<?xml version="1.0" encoding="utf-8" standalone="no"?>
<!DOCTYPE svg PUBLIC "-//W3C//DTD SVG 1.1//EN"
  "http://www.w3.org/Graphics/SVG/1.1/DTD/svg11.dtd">
<svg xmlns:xlink="http://www.w3.org/1999/xlink" width="432pt" height="288pt" viewBox="0 0 432 288" xmlns="http://www.w3.org/2000/svg" version="1.1">
 <metadata>
  <rdf:RDF xmlns:dc="http://purl.org/dc/elements/1.1/" xmlns:cc="http://creativecommons.org/ns#" xmlns:rdf="http://www.w3.org/1999/02/22-rdf-syntax-ns#">
   <cc:Work>
    <dc:type rdf:resource="http://purl.org/dc/dcmitype/StillImage"/>
    <dc:date>2022-05-23T10:00:47.441247</dc:date>
    <dc:format>image/svg+xml</dc:format>
    <dc:creator>
     <cc:Agent>
      <dc:title>omnetpp.scave 6.0.0; Matplotlib 3.5.1 w/ backend GTK3Agg; Pandas 1.4.2; Python 3.8.10; Linux-5.4.0-109-generic-x86_64-with-glibc2.29</dc:title>
     </cc:Agent>
    </dc:creator>
   </cc:Work>
  </rdf:RDF>
 </metadata>
 <defs>
  <style type="text/css">*{stroke-linejoin: round; stroke-linecap: butt}</style>
 </defs>
 <g id="figure_1">
  <g id="patch_1">
   <path d="M 0 288 
L 432 288 
L 432 0 
L 0 0 
z
" style="fill: #ffffff"/>
  </g>
  <g id="axes_1">
   <g id="patch_2">
    <path d="M 47.58125 246.7 
L 415.396903 246.7 
L 415.396903 25.8 
L 47.58125 25.8 
z
" style="fill: #ffffff"/>
   </g>
   <g id="matplotlib.axis_1">
    <g id="xtick_1">
     <g id="line2d_1">
      <path d="M 47.58125 246.7 
L 47.58125 25.8 
" clip-path="url(#pab7fc57f5f)" style="fill: none; stroke: #b0b0b0; stroke-width: 0.8; stroke-linecap: square"/>
     </g>
     <g id="line2d_2">
      <defs>
       <path id="m6efea09cad" d="M 0 0 
L 0 3.5 
" style="stroke: #000000; stroke-width: 0.8"/>
      </defs>
      <g>
       <use xlink:href="#m6efea09cad" x="47.58125" y="246.7" style="stroke: #000000; stroke-width: 0.8"/>
      </g>
     </g>
     <g id="text_1">
      <!-- 0 -->
      <g transform="translate(44.4 261.298437)scale(0.1 -0.1)">
       <defs>
        <path id="DejaVuSans-30" d="M 2034 4250 
Q 1547 4250 1301 3770 
Q 1056 3291 1056 2328 
Q 1056 1369 1301 889 
Q 1547 409 2034 409 
Q 2525 409 2770 889 
Q 3016 1369 3016 2328 
Q 3016 3291 2770 3770 
Q 2525 4250 2034 4250 
z
M 2034 4750 
Q 2819 4750 3233 4129 
Q 3647 3509 3647 2328 
Q 3647 1150 3233 529 
Q 2819 -91 2034 -91 
Q 1250 -91 836 529 
Q 422 1150 422 2328 
Q 422 3509 836 4129 
Q 1250 4750 2034 4750 
z
" transform="scale(0.015625)"/>
       </defs>
       <use xlink:href="#DejaVuSans-30"/>
      </g>
     </g>
    </g>
    <g id="xtick_2">
     <g id="line2d_3">
      <path d="M 93.081681 246.7 
L 93.081681 25.8 
" clip-path="url(#pab7fc57f5f)" style="fill: none; stroke: #b0b0b0; stroke-width: 0.8; stroke-linecap: square"/>
     </g>
     <g id="line2d_4">
      <g>
       <use xlink:href="#m6efea09cad" x="93.081681" y="246.7" style="stroke: #000000; stroke-width: 0.8"/>
      </g>
     </g>
     <g id="text_2">
      <!-- 25 -->
      <g transform="translate(86.719181 261.298437)scale(0.1 -0.1)">
       <defs>
        <path id="DejaVuSans-32" d="M 1228 531 
L 3431 531 
L 3431 0 
L 469 0 
L 469 531 
Q 828 903 1448 1529 
Q 2069 2156 2228 2338 
Q 2531 2678 2651 2914 
Q 2772 3150 2772 3378 
Q 2772 3750 2511 3984 
Q 2250 4219 1831 4219 
Q 1534 4219 1204 4116 
Q 875 4013 500 3803 
L 500 4441 
Q 881 4594 1212 4672 
Q 1544 4750 1819 4750 
Q 2544 4750 2975 4387 
Q 3406 4025 3406 3419 
Q 3406 3131 3298 2873 
Q 3191 2616 2906 2266 
Q 2828 2175 2409 1742 
Q 1991 1309 1228 531 
z
" transform="scale(0.015625)"/>
        <path id="DejaVuSans-35" d="M 691 4666 
L 3169 4666 
L 3169 4134 
L 1269 4134 
L 1269 2991 
Q 1406 3038 1543 3061 
Q 1681 3084 1819 3084 
Q 2600 3084 3056 2656 
Q 3513 2228 3513 1497 
Q 3513 744 3044 326 
Q 2575 -91 1722 -91 
Q 1428 -91 1123 -41 
Q 819 9 494 109 
L 494 744 
Q 775 591 1075 516 
Q 1375 441 1709 441 
Q 2250 441 2565 725 
Q 2881 1009 2881 1497 
Q 2881 1984 2565 2268 
Q 2250 2553 1709 2553 
Q 1456 2553 1204 2497 
Q 953 2441 691 2322 
L 691 4666 
z
" transform="scale(0.015625)"/>
       </defs>
       <use xlink:href="#DejaVuSans-32"/>
       <use xlink:href="#DejaVuSans-35" x="63.623047"/>
      </g>
     </g>
    </g>
    <g id="xtick_3">
     <g id="line2d_5">
      <path d="M 138.582112 246.7 
L 138.582112 25.8 
" clip-path="url(#pab7fc57f5f)" style="fill: none; stroke: #b0b0b0; stroke-width: 0.8; stroke-linecap: square"/>
     </g>
     <g id="line2d_6">
      <g>
       <use xlink:href="#m6efea09cad" x="138.582112" y="246.7" style="stroke: #000000; stroke-width: 0.8"/>
      </g>
     </g>
     <g id="text_3">
      <!-- 50 -->
      <g transform="translate(132.219612 261.298437)scale(0.1 -0.1)">
       <use xlink:href="#DejaVuSans-35"/>
       <use xlink:href="#DejaVuSans-30" x="63.623047"/>
      </g>
     </g>
    </g>
    <g id="xtick_4">
     <g id="line2d_7">
      <path d="M 184.082543 246.7 
L 184.082543 25.8 
" clip-path="url(#pab7fc57f5f)" style="fill: none; stroke: #b0b0b0; stroke-width: 0.8; stroke-linecap: square"/>
     </g>
     <g id="line2d_8">
      <g>
       <use xlink:href="#m6efea09cad" x="184.082543" y="246.7" style="stroke: #000000; stroke-width: 0.8"/>
      </g>
     </g>
     <g id="text_4">
      <!-- 75 -->
      <g transform="translate(177.720043 261.298437)scale(0.1 -0.1)">
       <defs>
        <path id="DejaVuSans-37" d="M 525 4666 
L 3525 4666 
L 3525 4397 
L 1831 0 
L 1172 0 
L 2766 4134 
L 525 4134 
L 525 4666 
z
" transform="scale(0.015625)"/>
       </defs>
       <use xlink:href="#DejaVuSans-37"/>
       <use xlink:href="#DejaVuSans-35" x="63.623047"/>
      </g>
     </g>
    </g>
    <g id="xtick_5">
     <g id="line2d_9">
      <path d="M 229.582974 246.7 
L 229.582974 25.8 
" clip-path="url(#pab7fc57f5f)" style="fill: none; stroke: #b0b0b0; stroke-width: 0.8; stroke-linecap: square"/>
     </g>
     <g id="line2d_10">
      <g>
       <use xlink:href="#m6efea09cad" x="229.582974" y="246.7" style="stroke: #000000; stroke-width: 0.8"/>
      </g>
     </g>
     <g id="text_5">
      <!-- 100 -->
      <g transform="translate(220.039224 261.298437)scale(0.1 -0.1)">
       <defs>
        <path id="DejaVuSans-31" d="M 794 531 
L 1825 531 
L 1825 4091 
L 703 3866 
L 703 4441 
L 1819 4666 
L 2450 4666 
L 2450 531 
L 3481 531 
L 3481 0 
L 794 0 
L 794 531 
z
" transform="scale(0.015625)"/>
       </defs>
       <use xlink:href="#DejaVuSans-31"/>
       <use xlink:href="#DejaVuSans-30" x="63.623047"/>
       <use xlink:href="#DejaVuSans-30" x="127.246094"/>
      </g>
     </g>
    </g>
    <g id="xtick_6">
     <g id="line2d_11">
      <path d="M 275.083405 246.7 
L 275.083405 25.8 
" clip-path="url(#pab7fc57f5f)" style="fill: none; stroke: #b0b0b0; stroke-width: 0.8; stroke-linecap: square"/>
     </g>
     <g id="line2d_12">
      <g>
       <use xlink:href="#m6efea09cad" x="275.083405" y="246.7" style="stroke: #000000; stroke-width: 0.8"/>
      </g>
     </g>
     <g id="text_6">
      <!-- 125 -->
      <g transform="translate(265.539655 261.298437)scale(0.1 -0.1)">
       <use xlink:href="#DejaVuSans-31"/>
       <use xlink:href="#DejaVuSans-32" x="63.623047"/>
       <use xlink:href="#DejaVuSans-35" x="127.246094"/>
      </g>
     </g>
    </g>
    <g id="xtick_7">
     <g id="line2d_13">
      <path d="M 320.583836 246.7 
L 320.583836 25.8 
" clip-path="url(#pab7fc57f5f)" style="fill: none; stroke: #b0b0b0; stroke-width: 0.8; stroke-linecap: square"/>
     </g>
     <g id="line2d_14">
      <g>
       <use xlink:href="#m6efea09cad" x="320.583836" y="246.7" style="stroke: #000000; stroke-width: 0.8"/>
      </g>
     </g>
     <g id="text_7">
      <!-- 150 -->
      <g transform="translate(311.040086 261.298437)scale(0.1 -0.1)">
       <use xlink:href="#DejaVuSans-31"/>
       <use xlink:href="#DejaVuSans-35" x="63.623047"/>
       <use xlink:href="#DejaVuSans-30" x="127.246094"/>
      </g>
     </g>
    </g>
    <g id="xtick_8">
     <g id="line2d_15">
      <path d="M 366.084267 246.7 
L 366.084267 25.8 
" clip-path="url(#pab7fc57f5f)" style="fill: none; stroke: #b0b0b0; stroke-width: 0.8; stroke-linecap: square"/>
     </g>
     <g id="line2d_16">
      <g>
       <use xlink:href="#m6efea09cad" x="366.084267" y="246.7" style="stroke: #000000; stroke-width: 0.8"/>
      </g>
     </g>
     <g id="text_8">
      <!-- 175 -->
      <g transform="translate(356.540517 261.298437)scale(0.1 -0.1)">
       <use xlink:href="#DejaVuSans-31"/>
       <use xlink:href="#DejaVuSans-37" x="63.623047"/>
       <use xlink:href="#DejaVuSans-35" x="127.246094"/>
      </g>
     </g>
    </g>
    <g id="xtick_9">
     <g id="line2d_17">
      <path d="M 411.584698 246.7 
L 411.584698 25.8 
" clip-path="url(#pab7fc57f5f)" style="fill: none; stroke: #b0b0b0; stroke-width: 0.8; stroke-linecap: square"/>
     </g>
     <g id="line2d_18">
      <g>
       <use xlink:href="#m6efea09cad" x="411.584698" y="246.7" style="stroke: #000000; stroke-width: 0.8"/>
      </g>
     </g>
     <g id="text_9">
      <!-- 200 -->
      <g transform="translate(402.040948 261.298437)scale(0.1 -0.1)">
       <use xlink:href="#DejaVuSans-32"/>
       <use xlink:href="#DejaVuSans-30" x="63.623047"/>
       <use xlink:href="#DejaVuSans-30" x="127.246094"/>
      </g>
     </g>
    </g>
    <g id="text_10">
     <!-- Tiampo -->
     <g transform="translate(213.034389 274.976562)scale(0.1 -0.1)">
      <defs>
       <path id="DejaVuSans-54" d="M -19 4666 
L 3928 4666 
L 3928 4134 
L 2272 4134 
L 2272 0 
L 1638 0 
L 1638 4134 
L -19 4134 
L -19 4666 
z
" transform="scale(0.015625)"/>
       <path id="DejaVuSans-69" d="M 603 3500 
L 1178 3500 
L 1178 0 
L 603 0 
L 603 3500 
z
M 603 4863 
L 1178 4863 
L 1178 4134 
L 603 4134 
L 603 4863 
z
" transform="scale(0.015625)"/>
       <path id="DejaVuSans-61" d="M 2194 1759 
Q 1497 1759 1228 1600 
Q 959 1441 959 1056 
Q 959 750 1161 570 
Q 1363 391 1709 391 
Q 2188 391 2477 730 
Q 2766 1069 2766 1631 
L 2766 1759 
L 2194 1759 
z
M 3341 1997 
L 3341 0 
L 2766 0 
L 2766 531 
Q 2569 213 2275 61 
Q 1981 -91 1556 -91 
Q 1019 -91 701 211 
Q 384 513 384 1019 
Q 384 1609 779 1909 
Q 1175 2209 1959 2209 
L 2766 2209 
L 2766 2266 
Q 2766 2663 2505 2880 
Q 2244 3097 1772 3097 
Q 1472 3097 1187 3025 
Q 903 2953 641 2809 
L 641 3341 
Q 956 3463 1253 3523 
Q 1550 3584 1831 3584 
Q 2591 3584 2966 3190 
Q 3341 2797 3341 1997 
z
" transform="scale(0.015625)"/>
       <path id="DejaVuSans-6d" d="M 3328 2828 
Q 3544 3216 3844 3400 
Q 4144 3584 4550 3584 
Q 5097 3584 5394 3201 
Q 5691 2819 5691 2113 
L 5691 0 
L 5113 0 
L 5113 2094 
Q 5113 2597 4934 2840 
Q 4756 3084 4391 3084 
Q 3944 3084 3684 2787 
Q 3425 2491 3425 1978 
L 3425 0 
L 2847 0 
L 2847 2094 
Q 2847 2600 2669 2842 
Q 2491 3084 2119 3084 
Q 1678 3084 1418 2786 
Q 1159 2488 1159 1978 
L 1159 0 
L 581 0 
L 581 3500 
L 1159 3500 
L 1159 2956 
Q 1356 3278 1631 3431 
Q 1906 3584 2284 3584 
Q 2666 3584 2933 3390 
Q 3200 3197 3328 2828 
z
" transform="scale(0.015625)"/>
       <path id="DejaVuSans-70" d="M 1159 525 
L 1159 -1331 
L 581 -1331 
L 581 3500 
L 1159 3500 
L 1159 2969 
Q 1341 3281 1617 3432 
Q 1894 3584 2278 3584 
Q 2916 3584 3314 3078 
Q 3713 2572 3713 1747 
Q 3713 922 3314 415 
Q 2916 -91 2278 -91 
Q 1894 -91 1617 61 
Q 1341 213 1159 525 
z
M 3116 1747 
Q 3116 2381 2855 2742 
Q 2594 3103 2138 3103 
Q 1681 3103 1420 2742 
Q 1159 2381 1159 1747 
Q 1159 1113 1420 752 
Q 1681 391 2138 391 
Q 2594 391 2855 752 
Q 3116 1113 3116 1747 
z
" transform="scale(0.015625)"/>
       <path id="DejaVuSans-6f" d="M 1959 3097 
Q 1497 3097 1228 2736 
Q 959 2375 959 1747 
Q 959 1119 1226 758 
Q 1494 397 1959 397 
Q 2419 397 2687 759 
Q 2956 1122 2956 1747 
Q 2956 2369 2687 2733 
Q 2419 3097 1959 3097 
z
M 1959 3584 
Q 2709 3584 3137 3096 
Q 3566 2609 3566 1747 
Q 3566 888 3137 398 
Q 2709 -91 1959 -91 
Q 1206 -91 779 398 
Q 353 888 353 1747 
Q 353 2609 779 3096 
Q 1206 3584 1959 3584 
z
" transform="scale(0.015625)"/>
      </defs>
      <use xlink:href="#DejaVuSans-54"/>
      <use xlink:href="#DejaVuSans-69" x="57.958984"/>
      <use xlink:href="#DejaVuSans-61" x="85.742188"/>
      <use xlink:href="#DejaVuSans-6d" x="147.021484"/>
      <use xlink:href="#DejaVuSans-70" x="244.433594"/>
      <use xlink:href="#DejaVuSans-6f" x="307.910156"/>
     </g>
    </g>
   </g>
   <g id="matplotlib.axis_2">
    <g id="ytick_1">
     <g id="line2d_19">
      <path d="M 47.58125 246.7 
L 415.396903 246.7 
" clip-path="url(#pab7fc57f5f)" style="fill: none; stroke: #b0b0b0; stroke-width: 0.8; stroke-linecap: square"/>
     </g>
     <g id="line2d_20">
      <defs>
       <path id="me372c19104" d="M 0 0 
L -3.5 0 
" style="stroke: #000000; stroke-width: 0.8"/>
      </defs>
      <g>
       <use xlink:href="#me372c19104" x="47.58125" y="246.7" style="stroke: #000000; stroke-width: 0.8"/>
      </g>
     </g>
     <g id="text_11">
      <!-- 0.0 -->
      <g transform="translate(24.678125 250.499219)scale(0.1 -0.1)">
       <defs>
        <path id="DejaVuSans-2e" d="M 684 794 
L 1344 794 
L 1344 0 
L 684 0 
L 684 794 
z
" transform="scale(0.015625)"/>
       </defs>
       <use xlink:href="#DejaVuSans-30"/>
       <use xlink:href="#DejaVuSans-2e" x="63.623047"/>
       <use xlink:href="#DejaVuSans-30" x="95.410156"/>
      </g>
     </g>
    </g>
    <g id="ytick_2">
     <g id="line2d_21">
      <path d="M 47.58125 205.28125 
L 415.396903 205.28125 
" clip-path="url(#pab7fc57f5f)" style="fill: none; stroke: #b0b0b0; stroke-width: 0.8; stroke-linecap: square"/>
     </g>
     <g id="line2d_22">
      <g>
       <use xlink:href="#me372c19104" x="47.58125" y="205.28125" style="stroke: #000000; stroke-width: 0.8"/>
      </g>
     </g>
     <g id="text_12">
      <!-- 0.5 -->
      <g transform="translate(24.678125 209.080469)scale(0.1 -0.1)">
       <use xlink:href="#DejaVuSans-30"/>
       <use xlink:href="#DejaVuSans-2e" x="63.623047"/>
       <use xlink:href="#DejaVuSans-35" x="95.410156"/>
      </g>
     </g>
    </g>
    <g id="ytick_3">
     <g id="line2d_23">
      <path d="M 47.58125 163.8625 
L 415.396903 163.8625 
" clip-path="url(#pab7fc57f5f)" style="fill: none; stroke: #b0b0b0; stroke-width: 0.8; stroke-linecap: square"/>
     </g>
     <g id="line2d_24">
      <g>
       <use xlink:href="#me372c19104" x="47.58125" y="163.8625" style="stroke: #000000; stroke-width: 0.8"/>
      </g>
     </g>
     <g id="text_13">
      <!-- 1.0 -->
      <g transform="translate(24.678125 167.661719)scale(0.1 -0.1)">
       <use xlink:href="#DejaVuSans-31"/>
       <use xlink:href="#DejaVuSans-2e" x="63.623047"/>
       <use xlink:href="#DejaVuSans-30" x="95.410156"/>
      </g>
     </g>
    </g>
    <g id="ytick_4">
     <g id="line2d_25">
      <path d="M 47.58125 122.44375 
L 415.396903 122.44375 
" clip-path="url(#pab7fc57f5f)" style="fill: none; stroke: #b0b0b0; stroke-width: 0.8; stroke-linecap: square"/>
     </g>
     <g id="line2d_26">
      <g>
       <use xlink:href="#me372c19104" x="47.58125" y="122.44375" style="stroke: #000000; stroke-width: 0.8"/>
      </g>
     </g>
     <g id="text_14">
      <!-- 1.5 -->
      <g transform="translate(24.678125 126.242969)scale(0.1 -0.1)">
       <use xlink:href="#DejaVuSans-31"/>
       <use xlink:href="#DejaVuSans-2e" x="63.623047"/>
       <use xlink:href="#DejaVuSans-35" x="95.410156"/>
      </g>
     </g>
    </g>
    <g id="ytick_5">
     <g id="line2d_27">
      <path d="M 47.58125 81.025 
L 415.396903 81.025 
" clip-path="url(#pab7fc57f5f)" style="fill: none; stroke: #b0b0b0; stroke-width: 0.8; stroke-linecap: square"/>
     </g>
     <g id="line2d_28">
      <g>
       <use xlink:href="#me372c19104" x="47.58125" y="81.025" style="stroke: #000000; stroke-width: 0.8"/>
      </g>
     </g>
     <g id="text_15">
      <!-- 2.0 -->
      <g transform="translate(24.678125 84.824219)scale(0.1 -0.1)">
       <use xlink:href="#DejaVuSans-32"/>
       <use xlink:href="#DejaVuSans-2e" x="63.623047"/>
       <use xlink:href="#DejaVuSans-30" x="95.410156"/>
      </g>
     </g>
    </g>
    <g id="ytick_6">
     <g id="line2d_29">
      <path d="M 47.58125 39.60625 
L 415.396903 39.60625 
" clip-path="url(#pab7fc57f5f)" style="fill: none; stroke: #b0b0b0; stroke-width: 0.8; stroke-linecap: square"/>
     </g>
     <g id="line2d_30">
      <g>
       <use xlink:href="#me372c19104" x="47.58125" y="39.60625" style="stroke: #000000; stroke-width: 0.8"/>
      </g>
     </g>
     <g id="text_16">
      <!-- 2.5 -->
      <g transform="translate(24.678125 43.405469)scale(0.1 -0.1)">
       <use xlink:href="#DejaVuSans-32"/>
       <use xlink:href="#DejaVuSans-2e" x="63.623047"/>
       <use xlink:href="#DejaVuSans-35" x="95.410156"/>
      </g>
     </g>
    </g>
    <g id="text_17">
     <!-- Paquetes -->
     <g transform="translate(18.598437 159.164844)rotate(-90)scale(0.1 -0.1)">
      <defs>
       <path id="DejaVuSans-50" d="M 1259 4147 
L 1259 2394 
L 2053 2394 
Q 2494 2394 2734 2622 
Q 2975 2850 2975 3272 
Q 2975 3691 2734 3919 
Q 2494 4147 2053 4147 
L 1259 4147 
z
M 628 4666 
L 2053 4666 
Q 2838 4666 3239 4311 
Q 3641 3956 3641 3272 
Q 3641 2581 3239 2228 
Q 2838 1875 2053 1875 
L 1259 1875 
L 1259 0 
L 628 0 
L 628 4666 
z
" transform="scale(0.015625)"/>
       <path id="DejaVuSans-71" d="M 947 1747 
Q 947 1113 1208 752 
Q 1469 391 1925 391 
Q 2381 391 2643 752 
Q 2906 1113 2906 1747 
Q 2906 2381 2643 2742 
Q 2381 3103 1925 3103 
Q 1469 3103 1208 2742 
Q 947 2381 947 1747 
z
M 2906 525 
Q 2725 213 2448 61 
Q 2172 -91 1784 -91 
Q 1150 -91 751 415 
Q 353 922 353 1747 
Q 353 2572 751 3078 
Q 1150 3584 1784 3584 
Q 2172 3584 2448 3432 
Q 2725 3281 2906 2969 
L 2906 3500 
L 3481 3500 
L 3481 -1331 
L 2906 -1331 
L 2906 525 
z
" transform="scale(0.015625)"/>
       <path id="DejaVuSans-75" d="M 544 1381 
L 544 3500 
L 1119 3500 
L 1119 1403 
Q 1119 906 1312 657 
Q 1506 409 1894 409 
Q 2359 409 2629 706 
Q 2900 1003 2900 1516 
L 2900 3500 
L 3475 3500 
L 3475 0 
L 2900 0 
L 2900 538 
Q 2691 219 2414 64 
Q 2138 -91 1772 -91 
Q 1169 -91 856 284 
Q 544 659 544 1381 
z
M 1991 3584 
L 1991 3584 
z
" transform="scale(0.015625)"/>
       <path id="DejaVuSans-65" d="M 3597 1894 
L 3597 1613 
L 953 1613 
Q 991 1019 1311 708 
Q 1631 397 2203 397 
Q 2534 397 2845 478 
Q 3156 559 3463 722 
L 3463 178 
Q 3153 47 2828 -22 
Q 2503 -91 2169 -91 
Q 1331 -91 842 396 
Q 353 884 353 1716 
Q 353 2575 817 3079 
Q 1281 3584 2069 3584 
Q 2775 3584 3186 3129 
Q 3597 2675 3597 1894 
z
M 3022 2063 
Q 3016 2534 2758 2815 
Q 2500 3097 2075 3097 
Q 1594 3097 1305 2825 
Q 1016 2553 972 2059 
L 3022 2063 
z
" transform="scale(0.015625)"/>
       <path id="DejaVuSans-74" d="M 1172 4494 
L 1172 3500 
L 2356 3500 
L 2356 3053 
L 1172 3053 
L 1172 1153 
Q 1172 725 1289 603 
Q 1406 481 1766 481 
L 2356 481 
L 2356 0 
L 1766 0 
Q 1100 0 847 248 
Q 594 497 594 1153 
L 594 3053 
L 172 3053 
L 172 3500 
L 594 3500 
L 594 4494 
L 1172 4494 
z
" transform="scale(0.015625)"/>
       <path id="DejaVuSans-73" d="M 2834 3397 
L 2834 2853 
Q 2591 2978 2328 3040 
Q 2066 3103 1784 3103 
Q 1356 3103 1142 2972 
Q 928 2841 928 2578 
Q 928 2378 1081 2264 
Q 1234 2150 1697 2047 
L 1894 2003 
Q 2506 1872 2764 1633 
Q 3022 1394 3022 966 
Q 3022 478 2636 193 
Q 2250 -91 1575 -91 
Q 1294 -91 989 -36 
Q 684 19 347 128 
L 347 722 
Q 666 556 975 473 
Q 1284 391 1588 391 
Q 1994 391 2212 530 
Q 2431 669 2431 922 
Q 2431 1156 2273 1281 
Q 2116 1406 1581 1522 
L 1381 1569 
Q 847 1681 609 1914 
Q 372 2147 372 2553 
Q 372 3047 722 3315 
Q 1072 3584 1716 3584 
Q 2034 3584 2315 3537 
Q 2597 3491 2834 3397 
z
" transform="scale(0.015625)"/>
      </defs>
      <use xlink:href="#DejaVuSans-50"/>
      <use xlink:href="#DejaVuSans-61" x="55.802734"/>
      <use xlink:href="#DejaVuSans-71" x="117.082031"/>
      <use xlink:href="#DejaVuSans-75" x="180.558594"/>
      <use xlink:href="#DejaVuSans-65" x="243.9375"/>
      <use xlink:href="#DejaVuSans-74" x="305.460938"/>
      <use xlink:href="#DejaVuSans-65" x="344.669922"/>
      <use xlink:href="#DejaVuSans-73" x="406.193359"/>
     </g>
    </g>
   </g>
   <g id="line2d_31">
    <path d="M 49.576124 246.7 
L 49.576124 163.8625 
L 49.576124 246.7 
L 51.21152 246.7 
L 51.21152 163.8625 
L 51.21152 246.7 
L 53.497336 246.7 
L 53.497336 163.8625 
L 53.497336 246.7 
L 56.881847 246.7 
L 56.881847 163.8625 
L 56.881847 246.7 
L 58.562129 246.7 
L 58.562129 163.8625 
L 58.562129 246.7 
L 62.113975 246.7 
L 62.113975 163.8625 
L 62.113975 246.7 
L 63.546695 246.7 
L 63.546695 163.8625 
L 63.546695 246.7 
L 66.966442 246.7 
L 66.966442 163.8625 
L 66.966442 246.7 
L 67.96936 246.7 
L 67.96936 163.8625 
L 67.96936 246.7 
L 69.747528 246.7 
L 69.747528 163.8625 
L 69.747528 246.7 
L 71.636996 246.7 
L 71.636996 163.8625 
L 71.636996 246.7 
L 72.519938 246.7 
L 72.519938 163.8625 
L 72.519938 246.7 
L 73.567393 246.7 
L 73.567393 163.8625 
L 73.567393 246.7 
L 74.210148 246.7 
L 74.210148 163.8625 
L 74.210148 246.7 
L 78.257001 246.7 
L 78.257001 163.8625 
L 78.257001 246.7 
L 78.621005 246.7 
L 78.621005 163.8625 
L 78.621005 246.7 
L 84.39646 246.7 
L 84.39646 163.8625 
L 84.39646 246.7 
L 84.975873 246.7 
L 84.975873 163.8625 
L 84.975873 246.7 
L 85.856038 246.7 
L 85.856038 163.8625 
L 85.856038 246.7 
L 87.038041 246.7 
L 87.038041 163.8625 
L 87.038041 246.7 
L 89.893459 246.7 
L 89.893459 163.8625 
L 89.893459 246.7 
L 92.936912 246.7 
L 92.936912 163.8625 
L 92.936912 246.7 
L 94.306792 246.7 
L 94.306792 163.8625 
L 94.306792 246.7 
L 95.49687 246.7 
L 95.49687 163.8625 
L 95.49687 246.7 
L 97.024652 246.7 
L 97.024652 163.8625 
L 97.024652 246.7 
L 97.932608 246.7 
L 97.932608 163.8625 
L 97.932608 246.7 
L 102.661475 246.7 
L 102.661475 163.8625 
L 102.661475 246.7 
L 105.952738 246.7 
L 105.952738 163.8625 
L 105.952738 246.7 
L 106.316741 246.7 
L 106.316741 163.8625 
L 106.316741 246.7 
L 106.835926 246.7 
L 106.835926 163.8625 
L 106.835926 246.7 
L 107.199929 246.7 
L 107.199929 163.8625 
L 107.199929 246.7 
L 108.903053 246.7 
L 108.903053 163.8625 
L 108.903053 246.7 
L 109.267057 246.7 
L 109.267057 163.8625 
L 109.267057 246.7 
L 109.776068 246.7 
L 109.776068 163.8625 
L 109.776068 246.7 
L 113.029326 246.7 
L 113.029326 163.8625 
L 113.029326 246.7 
L 118.762689 246.7 
L 118.762689 163.8625 
L 118.762689 246.7 
L 121.503243 246.7 
L 121.503243 163.8625 
L 121.503243 246.7 
L 121.867246 246.7 
L 121.867246 163.8625 
L 121.867246 246.7 
L 125.491893 246.7 
L 125.491893 163.8625 
L 125.491893 246.7 
L 129.206352 246.7 
L 129.206352 163.8625 
L 129.206352 246.7 
L 136.204722 246.7 
L 136.204722 163.8625 
L 136.204722 246.7 
L 137.372644 246.7 
L 137.372644 163.8625 
L 137.372644 246.7 
L 140.294207 246.7 
L 140.294207 163.8625 
L 140.294207 246.7 
L 143.231719 246.7 
L 143.231719 163.8625 
L 143.231719 246.7 
L 144.358181 246.7 
L 144.358181 163.8625 
L 144.358181 246.7 
L 145.695829 246.7 
L 145.695829 163.8625 
L 145.695829 246.7 
L 148.455951 246.7 
L 148.455951 163.8625 
L 148.455951 246.7 
L 150.523379 246.7 
L 150.523379 163.8625 
L 150.523379 246.7 
L 150.887383 246.7 
L 150.887383 163.8625 
L 150.887383 246.7 
L 153.073409 246.7 
L 153.073409 163.8625 
L 153.073409 246.7 
L 154.932433 246.7 
L 154.932433 163.8625 
L 154.932433 246.7 
L 156.520072 246.7 
L 156.520072 163.8625 
L 156.520072 246.7 
L 156.884076 246.7 
L 156.884076 163.8625 
L 156.884076 246.7 
L 158.204615 246.7 
L 158.204615 163.8625 
L 158.204615 246.7 
L 163.472511 246.7 
L 163.472511 163.8625 
L 163.472511 246.7 
L 166.059419 246.7 
L 166.059419 163.8625 
L 166.059419 246.7 
L 167.402277 246.7 
L 167.402277 163.8625 
L 167.402277 246.7 
L 167.766281 246.7 
L 167.766281 163.8625 
L 167.766281 246.7 
L 168.58076 246.7 
L 168.58076 163.8625 
L 168.58076 246.7 
L 169.748655 246.7 
L 169.748655 163.8625 
L 169.748655 246.7 
L 170.307911 246.7 
L 170.307911 163.8625 
L 170.307911 246.7 
L 170.683204 246.7 
L 170.683204 163.8625 
L 170.683204 246.7 
L 173.391854 246.7 
L 173.391854 163.8625 
L 173.391854 246.7 
L 175.822105 246.7 
L 175.822105 163.8625 
L 175.822105 246.7 
L 176.930645 246.7 
L 176.930645 163.8625 
L 176.930645 246.7 
L 177.374818 246.7 
L 177.374818 163.8625 
L 177.374818 246.7 
L 178.904242 246.7 
L 178.904242 163.8625 
L 178.904242 246.7 
L 179.268245 246.7 
L 179.268245 163.8625 
L 179.268245 246.7 
L 179.632248 246.7 
L 179.632248 163.8625 
L 179.632248 246.7 
L 179.996252 246.7 
L 179.996252 163.8625 
L 179.996252 246.7 
L 181.665933 246.7 
L 181.665933 163.8625 
L 181.665933 246.7 
L 182.029936 246.7 
L 182.029936 163.8625 
L 182.029936 246.7 
L 183.684574 246.7 
L 183.684574 163.8625 
L 183.684574 246.7 
L 184.142203 246.7 
L 184.142203 163.8625 
L 184.142203 246.7 
L 185.888597 246.7 
L 185.888597 163.8625 
L 185.888597 246.7 
L 186.777779 246.7 
L 186.777779 163.8625 
L 186.777779 246.7 
L 192.015634 246.7 
L 192.015634 163.8625 
L 192.015634 246.7 
L 196.254296 246.7 
L 196.254296 163.8625 
L 196.254296 246.7 
L 198.338469 246.7 
L 198.338469 163.8625 
L 198.338469 246.7 
L 199.426377 246.7 
L 199.426377 163.8625 
L 199.426377 246.7 
L 200.237229 246.7 
L 200.237229 163.8625 
L 200.237229 246.7 
L 201.965325 246.7 
L 201.965325 163.8625 
L 201.965325 246.7 
L 203.010984 246.7 
L 203.010984 163.8625 
L 203.010984 246.7 
L 207.244983 246.7 
L 207.244983 163.8625 
L 207.244983 246.7 
L 209.42192 246.7 
L 209.42192 163.8625 
L 209.42192 246.7 
L 209.785923 246.7 
L 209.785923 163.8625 
L 209.785923 246.7 
L 210.149927 246.7 
L 210.149927 163.8625 
L 210.149927 246.7 
L 216.095723 246.7 
L 216.095723 163.8625 
L 216.095723 246.7 
L 218.095763 246.7 
L 218.095763 163.8625 
L 218.095763 246.7 
L 220.022859 246.7 
L 220.022859 163.8625 
L 220.022859 246.7 
L 222.044166 246.7 
L 222.044166 163.8625 
L 222.044166 246.7 
L 222.408169 246.7 
L 222.408169 163.8625 
L 222.408169 246.7 
L 222.815185 246.7 
L 222.815185 163.8625 
L 222.815185 246.7 
L 223.622188 246.7 
L 223.622188 163.8625 
L 223.622188 246.7 
L 223.986191 246.7 
L 223.986191 163.8625 
L 223.986191 246.7 
L 226.401484 246.7 
L 226.401484 163.8625 
L 226.401484 246.7 
L 227.091201 246.7 
L 227.091201 163.8625 
L 227.091201 246.7 
L 228.794849 246.7 
L 228.794849 163.8625 
L 228.794849 246.7 
L 229.617683 246.7 
L 229.617683 163.8625 
L 229.617683 246.7 
L 230.333154 246.7 
L 230.333154 163.8625 
L 230.333154 246.7 
L 231.870028 246.7 
L 231.870028 163.8625 
L 231.870028 246.7 
L 232.234031 246.7 
L 232.234031 163.8625 
L 232.234031 246.7 
L 232.992082 246.7 
L 232.992082 163.8625 
L 232.992082 246.7 
L 234.822784 246.7 
L 234.822784 163.8625 
L 234.822784 246.7 
L 242.930045 246.7 
L 242.930045 163.8625 
L 242.930045 246.7 
L 248.741263 246.7 
L 248.741263 163.8625 
L 248.741263 246.7 
L 249.105267 246.7 
L 249.105267 163.8625 
L 249.105267 246.7 
L 250.862423 246.7 
L 250.862423 163.8625 
L 250.862423 246.7 
L 251.288856 246.7 
L 251.288856 163.8625 
L 251.288856 246.7 
L 253.123469 246.7 
L 253.123469 163.8625 
L 253.123469 246.7 
L 253.487472 246.7 
L 253.487472 163.8625 
L 253.487472 246.7 
L 263.199109 246.7 
L 263.199109 163.8625 
L 263.199109 246.7 
L 265.126039 246.7 
L 265.126039 163.8625 
L 265.126039 246.7 
L 266.712941 246.7 
L 266.712941 163.8625 
L 266.712941 246.7 
L 267.244533 246.7 
L 267.244533 163.8625 
L 267.244533 246.7 
L 268.21836 246.7 
L 268.21836 163.8625 
L 268.21836 246.7 
L 269.361224 246.7 
L 269.361224 163.8625 
L 269.361224 246.7 
L 270.532917 246.7 
L 270.532917 163.8625 
L 270.532917 246.7 
L 271.043026 246.7 
L 271.043026 163.8625 
L 271.043026 246.7 
L 272.820935 246.7 
L 272.820935 163.8625 
L 272.820935 246.7 
L 273.184939 246.7 
L 273.184939 163.8625 
L 273.184939 246.7 
L 273.88679 246.7 
L 273.88679 163.8625 
L 273.88679 246.7 
L 274.250793 246.7 
L 274.250793 163.8625 
L 274.250793 246.7 
L 276.143836 246.7 
L 276.143836 163.8625 
L 276.143836 246.7 
L 278.087746 246.7 
L 278.087746 163.8625 
L 278.087746 246.7 
L 278.782184 246.7 
L 278.782184 163.8625 
L 278.782184 246.7 
L 279.146188 246.7 
L 279.146188 163.8625 
L 279.146188 246.7 
L 281.794945 246.7 
L 281.794945 163.8625 
L 281.794945 246.7 
L 282.193312 246.7 
L 282.193312 163.8625 
L 282.193312 246.7 
L 287.630049 246.7 
L 287.630049 163.8625 
L 287.630049 246.7 
L 288.467282 246.7 
L 288.467282 163.8625 
L 288.467282 246.7 
L 290.444311 246.7 
L 290.444311 163.8625 
L 290.444311 246.7 
L 293.575344 246.7 
L 293.575344 163.8625 
L 293.575344 246.7 
L 293.939348 246.7 
L 293.939348 163.8625 
L 293.939348 246.7 
L 294.303351 246.7 
L 294.303351 163.8625 
L 294.303351 246.7 
L 295.560822 246.7 
L 295.560822 163.8625 
L 295.560822 246.7 
L 298.872924 246.7 
L 298.872924 163.8625 
L 298.872924 246.7 
L 300.911005 246.7 
L 300.911005 163.8625 
L 300.911005 246.7 
L 301.275009 246.7 
L 301.275009 163.8625 
L 301.275009 246.7 
L 307.598883 246.7 
L 307.598883 163.8625 
L 307.598883 246.7 
L 314.422185 246.7 
L 314.422185 163.8625 
L 314.422185 246.7 
L 318.253906 246.7 
L 318.253906 163.8625 
L 318.253906 246.7 
L 319.404769 246.7 
L 319.404769 163.8625 
L 319.404769 246.7 
L 320.701684 246.7 
L 320.701684 163.8625 
L 320.701684 246.7 
L 327.548456 246.7 
L 327.548456 163.8625 
L 327.548456 246.7 
L 327.91246 246.7 
L 327.91246 163.8625 
L 327.91246 246.7 
L 329.342639 246.7 
L 329.342639 163.8625 
L 329.342639 246.7 
L 330.434553 246.7 
L 330.434553 163.8625 
L 330.434553 246.7 
L 332.881102 246.7 
L 332.881102 163.8625 
L 332.881102 246.7 
L 333.245106 246.7 
L 333.245106 163.8625 
L 333.245106 246.7 
L 333.609109 246.7 
L 333.609109 163.8625 
L 333.609109 246.7 
L 334.051455 246.7 
L 334.051455 163.8625 
L 334.051455 246.7 
L 334.656447 246.7 
L 334.656447 163.8625 
L 334.656447 246.7 
L 341.739172 246.7 
L 341.739172 163.8625 
L 341.739172 246.7 
L 342.103175 246.7 
L 342.103175 163.8625 
L 342.103175 246.7 
L 342.782909 246.7 
L 342.782909 163.8625 
L 342.782909 246.7 
L 343.422055 246.7 
L 343.422055 163.8625 
L 343.422055 246.7 
L 344.615343 246.7 
L 344.615343 163.8625 
L 344.615343 246.7 
L 344.979346 246.7 
L 344.979346 163.8625 
L 344.979346 246.7 
L 346.969102 246.7 
L 346.969102 163.8625 
L 346.969102 246.7 
L 347.665624 246.7 
L 347.665624 163.8625 
L 347.665624 246.7 
L 351.531773 246.7 
L 351.531773 163.8625 
L 351.531773 246.7 
L 352.505271 246.7 
L 352.505271 163.8625 
L 352.505271 246.7 
L 357.062434 246.7 
L 357.062434 163.8625 
L 357.062434 246.7 
L 357.426437 246.7 
L 357.426437 163.8625 
L 357.426437 246.7 
L 357.790441 246.7 
L 357.790441 163.8625 
L 357.790441 246.7 
L 359.774046 246.7 
L 359.774046 163.8625 
L 359.774046 246.7 
L 361.289835 246.7 
L 361.289835 163.8625 
L 361.289835 246.7 
L 362.811547 246.7 
L 362.811547 163.8625 
L 362.811547 246.7 
L 366.457479 246.7 
L 366.457479 163.8625 
L 366.457479 246.7 
L 367.0188 246.7 
L 367.0188 163.8625 
L 367.0188 246.7 
L 368.313283 246.7 
L 368.313283 163.8625 
L 368.313283 246.7 
L 369.661477 246.7 
L 369.661477 163.8625 
L 369.661477 246.7 
L 374.18528 246.7 
L 374.18528 163.8625 
L 374.18528 246.7 
L 374.549283 246.7 
L 374.549283 163.8625 
L 374.549283 246.7 
L 378.988223 246.7 
L 378.988223 163.8625 
L 378.988223 246.7 
L 380.549608 246.7 
L 380.549608 163.8625 
L 380.549608 246.7 
L 380.913612 246.7 
L 380.913612 163.8625 
L 380.913612 246.7 
L 385.529223 246.7 
L 385.529223 163.8625 
L 385.529223 246.7 
L 386.121349 246.7 
L 386.121349 163.8625 
L 386.121349 246.7 
L 386.819435 246.7 
L 386.819435 163.8625 
L 386.819435 246.7 
L 387.183438 246.7 
L 387.183438 163.8625 
L 387.183438 246.7 
L 388.840103 246.7 
L 388.840103 163.8625 
L 388.840103 246.7 
L 392.202271 246.7 
L 392.202271 163.8625 
L 392.202271 246.7 
L 392.566274 246.7 
L 392.566274 163.8625 
L 392.566274 246.7 
L 394.355554 246.7 
L 394.355554 163.8625 
L 394.355554 246.7 
L 396.648655 246.7 
L 396.648655 163.8625 
L 396.648655 246.7 
L 399.999821 246.7 
L 399.999821 163.8625 
L 399.999821 246.7 
L 400.621638 246.7 
L 400.621638 163.8625 
L 400.621638 246.7 
L 401.181325 246.7 
L 401.181325 163.8625 
L 401.181325 246.7 
L 401.549606 246.7 
L 401.549606 163.8625 
L 401.549606 246.7 
L 402.472719 246.7 
L 402.472719 163.8625 
L 402.472719 246.7 
L 404.08003 246.7 
L 404.08003 163.8625 
L 404.08003 246.7 
L 405.544775 246.7 
L 405.544775 163.8625 
L 405.544775 246.7 
L 405.908778 246.7 
L 405.908778 163.8625 
L 405.908778 246.7 
L 406.272782 246.7 
L 406.272782 163.8625 
L 406.272782 246.7 
L 409.123485 246.7 
L 409.123485 163.8625 
L 409.123485 246.7 
L 409.963843 246.7 
L 409.963843 163.8625 
L 409.963843 246.7 
L 410.327847 246.7 
L 410.327847 163.8625 
L 410.327847 246.7 
L 410.69185 246.7 
L 410.69185 163.8625 
L 410.69185 246.7 
L 410.873852 246.7 
L 410.873852 246.7 
" clip-path="url(#pab7fc57f5f)" style="fill: none; stroke: #1f77b4; stroke-width: 1.5; stroke-linecap: square"/>
   </g>
   <g id="line2d_32">
    <path d="M 49.029755 246.7 
L 49.029755 163.8625 
L 49.029755 246.7 
L 50.665151 246.7 
L 50.665151 163.8625 
L 50.665151 246.7 
L 52.950966 246.7 
L 52.950966 163.8625 
L 52.950966 246.7 
L 56.335478 246.7 
L 56.335478 163.8625 
L 56.335478 246.7 
L 58.01576 246.7 
L 58.01576 163.8625 
L 58.01576 246.7 
L 61.567606 246.7 
L 61.567606 163.8625 
L 61.567606 246.7 
L 63.000326 246.7 
L 63.000326 163.8625 
L 63.000326 246.7 
L 66.420073 246.7 
L 66.420073 163.8625 
L 66.420073 246.7 
L 67.422991 246.7 
L 67.422991 163.8625 
L 67.422991 246.7 
L 69.201159 246.7 
L 69.201159 163.8625 
L 69.201159 246.7 
L 71.090627 246.7 
L 71.090627 163.8625 
L 71.090627 246.7 
L 71.973569 246.7 
L 71.973569 163.8625 
L 71.973569 246.7 
L 73.021023 246.7 
L 73.021023 163.8625 
L 73.021023 246.7 
L 73.663779 246.7 
L 73.663779 163.8625 
L 73.663779 246.7 
L 77.710632 246.7 
L 77.710632 163.8625 
L 77.816893 163.8625 
L 77.892634 163.8625 
L 77.892634 246.7 
L 83.850091 246.7 
L 83.850091 163.8625 
L 83.850091 246.7 
L 84.429504 246.7 
L 84.429504 163.8625 
L 84.429504 246.7 
L 85.309668 246.7 
L 85.309668 163.8625 
L 85.309668 246.7 
L 86.491672 246.7 
L 86.491672 163.8625 
L 86.491672 246.7 
L 89.34709 246.7 
L 89.34709 163.8625 
L 89.34709 246.7 
L 92.390543 246.7 
L 92.390543 163.8625 
L 92.390543 246.7 
L 93.760423 246.7 
L 93.760423 163.8625 
L 93.760423 246.7 
L 94.9505 246.7 
L 94.9505 163.8625 
L 94.9505 246.7 
L 96.478283 246.7 
L 96.478283 163.8625 
L 96.478283 246.7 
L 97.386238 246.7 
L 97.386238 163.8625 
L 97.386238 246.7 
L 102.115106 246.7 
L 102.115106 163.8625 
L 102.115106 246.7 
L 105.406369 246.7 
L 105.406369 163.8625 
L 105.406369 246.7 
L 105.540477 246.7 
L 105.540477 163.8625 
L 105.588371 246.7 
L 106.289557 246.7 
L 106.289557 163.8625 
L 106.289557 246.7 
L 106.455471 246.7 
L 106.455471 163.8625 
L 106.471558 246.7 
L 108.356684 246.7 
L 108.356684 163.8625 
L 108.393859 163.8625 
L 108.538686 163.8625 
L 108.538686 246.7 
L 109.229698 246.7 
L 109.229698 163.8625 
L 109.229698 246.7 
L 112.482957 246.7 
L 112.482957 163.8625 
L 112.482957 246.7 
L 118.21632 246.7 
L 118.21632 163.8625 
L 118.21632 246.7 
L 120.956874 246.7 
L 120.956874 163.8625 
L 120.956874 246.7 
L 121.232116 246.7 
L 121.232116 163.8625 
L 121.232116 246.7 
L 124.945524 246.7 
L 124.945524 163.8625 
L 124.945524 246.7 
L 128.659983 246.7 
L 128.659983 163.8625 
L 128.659983 246.7 
L 135.658353 246.7 
L 135.658353 163.8625 
L 135.658353 246.7 
L 136.826274 246.7 
L 136.826274 163.8625 
L 136.826274 246.7 
L 139.747838 246.7 
L 139.747838 163.8625 
L 139.747838 246.7 
L 142.68535 246.7 
L 142.68535 163.8625 
L 142.68535 246.7 
L 143.811812 246.7 
L 143.811812 163.8625 
L 143.811812 246.7 
L 145.14946 246.7 
L 145.14946 163.8625 
L 145.14946 246.7 
L 147.909581 246.7 
L 147.909581 163.8625 
L 147.909581 246.7 
L 149.97701 246.7 
L 149.97701 163.8625 
L 149.97701 246.7 
L 150.206103 246.7 
L 150.206103 163.8625 
L 150.206103 246.7 
L 152.52704 246.7 
L 152.52704 163.8625 
L 152.52704 246.7 
L 154.386064 246.7 
L 154.386064 163.8625 
L 154.386064 246.7 
L 155.973703 246.7 
L 155.973703 163.8625 
L 155.973703 246.7 
L 156.255314 246.7 
L 156.255314 163.8625 
L 156.255314 246.7 
L 157.658246 246.7 
L 157.658246 163.8625 
L 157.658246 246.7 
L 162.926141 246.7 
L 162.926141 163.8625 
L 162.926141 246.7 
L 165.51305 246.7 
L 165.51305 163.8625 
L 165.51305 246.7 
L 166.855908 246.7 
L 166.855908 163.8625 
L 166.855908 246.7 
L 167.059652 246.7 
L 167.059652 163.8625 
L 167.059652 246.7 
L 168.034391 246.7 
L 168.034391 163.8625 
L 168.034391 246.7 
L 169.202286 246.7 
L 169.202286 163.8625 
L 169.202286 246.7 
L 169.761542 246.7 
L 169.761542 163.8625 
L 169.761542 246.7 
L 170.136835 246.7 
L 170.136835 163.8625 
L 170.136835 246.7 
L 172.845485 246.7 
L 172.845485 163.8625 
L 172.845485 246.7 
L 175.275736 246.7 
L 175.275736 163.8625 
L 175.275736 246.7 
L 176.384276 246.7 
L 176.384276 163.8625 
L 176.384276 246.7 
L 176.828449 246.7 
L 176.828449 163.8625 
L 176.828449 246.7 
L 178.357872 246.7 
L 178.357872 163.8625 
L 178.357872 246.7 
L 178.622281 246.7 
L 178.622281 163.8625 
L 178.656804 163.8625 
L 178.804283 163.8625 
L 178.804283 246.7 
L 179.369834 246.7 
L 179.369834 163.8625 
L 179.369834 246.7 
L 181.119564 246.7 
L 181.119564 163.8625 
L 181.119564 246.7 
L 181.414655 246.7 
L 181.414655 163.8625 
L 181.414655 246.7 
L 183.138205 246.7 
L 183.138205 163.8625 
L 183.138205 246.7 
L 183.595834 246.7 
L 183.595834 163.8625 
L 183.595834 246.7 
L 185.342228 246.7 
L 185.342228 163.8625 
L 185.342228 246.7 
L 186.23141 246.7 
L 186.23141 163.8625 
L 186.23141 246.7 
L 191.469265 246.7 
L 191.469265 163.8625 
L 191.469265 246.7 
L 195.707927 246.7 
L 195.707927 163.8625 
L 195.707927 246.7 
L 197.7921 246.7 
L 197.7921 163.8625 
L 197.7921 246.7 
L 198.880008 246.7 
L 198.880008 163.8625 
L 198.880008 246.7 
L 199.690859 246.7 
L 199.690859 163.8625 
L 199.690859 246.7 
L 201.418956 246.7 
L 201.418956 163.8625 
L 201.418956 246.7 
L 202.464615 246.7 
L 202.464615 163.8625 
L 202.464615 246.7 
L 206.698614 246.7 
L 206.698614 163.8625 
L 206.698614 246.7 
L 208.875551 246.7 
L 208.875551 163.8625 
L 208.875551 246.7 
L 209.065854 246.7 
L 209.065854 163.8625 
L 209.065854 246.7 
L 209.178905 246.7 
L 209.178905 163.8625 
L 209.247856 246.7 
L 215.549354 246.7 
L 215.549354 163.8625 
L 215.549354 246.7 
L 217.549394 246.7 
L 217.549394 163.8625 
L 217.549394 246.7 
L 219.47649 246.7 
L 219.47649 163.8625 
L 219.47649 246.7 
L 221.497797 246.7 
L 221.497797 163.8625 
L 221.497797 246.7 
L 221.838915 246.7 
L 221.838915 163.8625 
L 221.838915 246.7 
L 222.268815 246.7 
L 222.268815 163.8625 
L 222.268815 246.7 
L 223.075818 246.7 
L 223.075818 163.8625 
L 223.075818 246.7 
L 223.327033 246.7 
L 223.327033 163.8625 
L 223.327033 246.7 
L 225.855115 246.7 
L 225.855115 163.8625 
L 225.855115 246.7 
L 226.544832 246.7 
L 226.544832 163.8625 
L 226.544832 246.7 
L 228.24848 246.7 
L 228.24848 163.8625 
L 228.24848 246.7 
L 229.071314 246.7 
L 229.071314 163.8625 
L 229.071314 246.7 
L 229.786785 246.7 
L 229.786785 163.8625 
L 229.786785 246.7 
L 231.323658 246.7 
L 231.323658 163.8625 
L 231.394972 163.8625 
L 231.50566 163.8625 
L 231.50566 246.7 
L 232.445713 246.7 
L 232.445713 163.8625 
L 232.445713 246.7 
L 234.276415 246.7 
L 234.276415 163.8625 
L 234.276415 246.7 
L 242.383676 246.7 
L 242.383676 163.8625 
L 242.383676 246.7 
L 248.194894 246.7 
L 248.194894 163.8625 
L 248.194894 246.7 
L 248.390792 246.7 
L 248.390792 163.8625 
L 248.390792 246.7 
L 250.316054 246.7 
L 250.316054 163.8625 
L 250.316054 246.7 
L 250.742487 246.7 
L 250.742487 163.8625 
L 250.742487 246.7 
L 252.577099 246.7 
L 252.577099 163.8625 
L 252.577099 246.7 
L 252.897265 246.7 
L 252.897265 163.8625 
L 252.897265 246.7 
L 262.65274 246.7 
L 262.65274 163.8625 
L 262.65274 246.7 
L 264.57967 246.7 
L 264.57967 163.8625 
L 264.57967 246.7 
L 266.166572 246.7 
L 266.166572 163.8625 
L 266.166572 246.7 
L 266.698164 246.7 
L 266.698164 163.8625 
L 266.698164 246.7 
L 267.671991 246.7 
L 267.671991 163.8625 
L 267.671991 246.7 
L 268.814855 246.7 
L 268.814855 163.8625 
L 268.814855 246.7 
L 269.986548 246.7 
L 269.986548 163.8625 
L 269.986548 246.7 
L 270.496657 246.7 
L 270.496657 163.8625 
L 270.496657 246.7 
L 272.274566 246.7 
L 272.274566 163.8625 
L 272.274566 246.7 
L 272.589661 246.7 
L 272.589661 163.8625 
L 272.589661 246.7 
L 273.34042 246.7 
L 273.34042 163.8625 
L 273.34042 246.7 
L 273.553281 246.7 
L 273.553281 163.8625 
L 273.553281 246.7 
L 275.597467 246.7 
L 275.597467 163.8625 
L 275.597467 246.7 
L 277.541377 246.7 
L 277.541377 163.8625 
L 277.541377 246.7 
L 278.235815 246.7 
L 278.235815 163.8625 
L 278.235815 246.7 
L 278.506474 246.7 
L 278.506474 163.8625 
L 278.506474 246.7 
L 281.248576 246.7 
L 281.248576 163.8625 
L 281.248576 246.7 
L 281.646943 246.7 
L 281.646943 163.8625 
L 281.646943 246.7 
L 287.08368 246.7 
L 287.08368 163.8625 
L 287.08368 246.7 
L 287.920913 246.7 
L 287.920913 163.8625 
L 287.920913 246.7 
L 289.897942 246.7 
L 289.897942 163.8625 
L 289.897942 246.7 
L 293.028975 246.7 
L 293.028975 163.8625 
L 293.053845 163.8625 
L 293.210977 163.8625 
L 293.210977 246.7 
L 293.23975 163.8625 
L 293.392979 163.8625 
L 293.392979 246.7 
L 295.014453 246.7 
L 295.014453 163.8625 
L 295.014453 246.7 
L 298.326555 246.7 
L 298.326555 163.8625 
L 298.326555 246.7 
L 300.364636 246.7 
L 300.364636 163.8625 
L 300.364636 246.7 
L 300.548521 246.7 
L 300.548521 163.8625 
L 300.548521 246.7 
L 307.052514 246.7 
L 307.052514 163.8625 
L 307.052514 246.7 
L 313.875815 246.7 
L 313.875815 163.8625 
L 313.875815 246.7 
L 317.707536 246.7 
L 317.707536 163.8625 
L 317.707536 246.7 
L 318.8584 246.7 
L 318.8584 163.8625 
L 318.8584 246.7 
L 320.155314 246.7 
L 320.155314 163.8625 
L 320.155314 246.7 
L 327.002087 246.7 
L 327.002087 163.8625 
L 327.106423 163.8625 
L 327.184089 163.8625 
L 327.184089 246.7 
L 328.79627 246.7 
L 328.79627 163.8625 
L 328.79627 246.7 
L 329.888183 246.7 
L 329.888183 163.8625 
L 329.888183 246.7 
L 332.334733 246.7 
L 332.444237 81.025 
L 332.516735 81.025 
L 332.516735 163.8625 
L 332.698736 163.8625 
L 332.698736 246.7 
L 333.505086 246.7 
L 333.505086 163.8625 
L 333.505086 246.7 
L 334.110078 246.7 
L 334.110078 163.8625 
L 334.110078 246.7 
L 341.192803 246.7 
L 341.192803 163.8625 
L 341.192803 246.7 
L 341.425868 246.7 
L 341.425868 163.8625 
L 341.425868 246.7 
L 342.236539 246.7 
L 342.236539 163.8625 
L 342.236539 246.7 
L 342.875686 246.7 
L 342.875686 163.8625 
L 342.875686 246.7 
L 344.068973 246.7 
L 344.068973 163.8625 
L 344.068973 246.7 
L 344.299003 246.7 
L 344.299003 163.8625 
L 344.299003 246.7 
L 346.422733 246.7 
L 346.422733 163.8625 
L 346.422733 246.7 
L 347.119255 246.7 
L 347.119255 163.8625 
L 347.119255 246.7 
L 350.985403 246.7 
L 350.985403 163.8625 
L 350.985403 246.7 
L 351.958902 246.7 
L 351.958902 163.8625 
L 351.958902 246.7 
L 356.516065 246.7 
L 356.516065 163.8625 
L 356.516065 246.7 
L 356.636727 246.7 
L 356.636727 163.8625 
L 356.698067 246.7 
L 357.081531 246.7 
L 357.081531 163.8625 
L 357.081531 246.7 
L 359.227676 246.7 
L 359.227676 163.8625 
L 359.227676 246.7 
L 360.743466 246.7 
L 360.743466 163.8625 
L 360.743466 246.7 
L 362.265178 246.7 
L 362.265178 163.8625 
L 362.265178 246.7 
L 365.91111 246.7 
L 365.91111 163.8625 
L 365.91111 246.7 
L 366.472431 246.7 
L 366.472431 163.8625 
L 366.472431 246.7 
L 367.766914 246.7 
L 367.766914 163.8625 
L 367.766914 246.7 
L 369.115108 246.7 
L 369.115108 163.8625 
L 369.115108 246.7 
L 373.638911 246.7 
L 373.638911 163.8625 
L 373.638911 246.7 
L 373.818456 246.7 
L 373.818456 163.8625 
L 373.820913 246.7 
L 378.441854 246.7 
L 378.441854 163.8625 
L 378.441854 246.7 
L 380.003239 246.7 
L 380.003239 163.8625 
L 380.003239 246.7 
L 380.161163 246.7 
L 380.161163 163.8625 
L 380.185241 246.7 
L 384.982854 246.7 
L 384.982854 163.8625 
L 384.982854 246.7 
L 385.574979 246.7 
L 385.574979 163.8625 
L 385.574979 246.7 
L 386.273066 246.7 
L 386.273066 163.8625 
L 386.290175 163.8625 
L 386.455067 163.8625 
L 386.455067 246.7 
L 388.293734 246.7 
L 388.293734 163.8625 
L 388.293734 246.7 
L 391.655902 246.7 
L 391.655902 163.8625 
L 391.655902 246.7 
L 391.913126 246.7 
L 391.913126 163.8625 
L 391.913126 246.7 
L 393.809185 246.7 
L 393.809185 163.8625 
L 393.809185 246.7 
L 396.102286 246.7 
L 396.102286 163.8625 
L 396.102286 246.7 
L 399.453452 246.7 
L 399.453452 163.8625 
L 399.453452 246.7 
L 400.075268 246.7 
L 400.075268 163.8625 
L 400.075268 246.7 
L 400.634956 246.7 
L 400.634956 163.8625 
L 400.634956 246.7 
L 401.003237 246.7 
L 401.003237 163.8625 
L 401.003237 246.7 
L 401.92635 246.7 
L 401.92635 163.8625 
L 401.92635 246.7 
L 403.53366 246.7 
L 403.53366 163.8625 
L 403.53366 246.7 
L 404.998405 246.7 
L 404.998405 163.8625 
L 405.035375 163.8625 
L 405.180407 163.8625 
L 405.180407 246.7 
L 405.363437 246.7 
L 405.363437 163.8625 
L 405.363437 246.7 
L 408.577116 246.7 
L 408.577116 163.8625 
L 408.577116 246.7 
L 409.417474 246.7 
L 409.417474 163.8625 
L 409.42604 163.8625 
L 409.599476 163.8625 
L 409.599476 246.7 
L 409.714224 246.7 
L 409.714224 163.8625 
L 409.781478 246.7 
L 409.963479 246.7 
L 409.963479 246.7 
" clip-path="url(#pab7fc57f5f)" style="fill: none; stroke: #ff7f0e; stroke-width: 1.5; stroke-linecap: square"/>
   </g>
   <g id="line2d_33">
    <path d="M 49.211939 246.7 
L 49.211939 163.8625 
L 49.211939 246.7 
L 50.847334 246.7 
L 50.847334 163.8625 
L 50.847334 246.7 
L 53.13315 246.7 
L 53.13315 163.8625 
L 53.13315 246.7 
L 56.517662 246.7 
L 56.517662 163.8625 
L 56.517662 246.7 
L 58.197944 246.7 
L 58.197944 163.8625 
L 58.197944 246.7 
L 61.74979 246.7 
L 61.74979 163.8625 
L 61.74979 246.7 
L 63.18251 246.7 
L 63.18251 163.8625 
L 63.18251 246.7 
L 66.602257 246.7 
L 66.602257 163.8625 
L 66.602257 246.7 
L 67.605174 246.7 
L 67.605174 163.8625 
L 67.605174 246.7 
L 69.383343 246.7 
L 69.383343 163.8625 
L 69.383343 246.7 
L 71.272811 246.7 
L 71.272811 163.8625 
L 71.272811 246.7 
L 72.155752 246.7 
L 72.155752 163.8625 
L 72.155752 246.7 
L 73.203207 246.7 
L 73.203207 163.8625 
L 73.203207 246.7 
L 73.845963 246.7 
L 73.845963 163.8625 
L 73.845963 246.7 
L 77.892816 246.7 
L 77.892816 163.8625 
L 77.892816 246.7 
L 78.074817 246.7 
L 78.074817 163.8625 
L 78.256819 163.8625 
L 78.256819 246.7 
L 84.032274 246.7 
L 84.032274 163.8625 
L 84.032274 246.7 
L 84.611688 246.7 
L 84.611688 163.8625 
L 84.611688 246.7 
L 85.491852 246.7 
L 85.491852 163.8625 
L 85.491852 246.7 
L 86.673856 246.7 
L 86.673856 163.8625 
L 86.673856 246.7 
L 89.529274 246.7 
L 89.529274 163.8625 
L 89.529274 246.7 
L 92.572727 246.7 
L 92.572727 163.8625 
L 92.572727 246.7 
L 93.942607 246.7 
L 93.942607 163.8625 
L 93.942607 246.7 
L 95.132684 246.7 
L 95.132684 163.8625 
L 95.132684 246.7 
L 96.660466 246.7 
L 96.660466 163.8625 
L 96.660466 246.7 
L 97.568422 246.7 
L 97.568422 163.8625 
L 97.568422 246.7 
L 102.297289 246.7 
L 102.297289 163.8625 
L 102.297289 246.7 
L 105.588553 246.7 
L 105.588553 163.8625 
L 105.588553 246.7 
L 105.770554 246.7 
L 105.770554 163.8625 
L 105.952556 163.8625 
L 105.952556 246.7 
L 106.47174 246.7 
L 106.47174 163.8625 
L 106.47174 246.7 
L 106.653742 246.7 
L 106.653742 163.8625 
L 106.835744 163.8625 
L 106.835744 246.7 
L 108.538868 246.7 
L 108.538868 163.8625 
L 108.538868 246.7 
L 108.720869 246.7 
L 108.720869 163.8625 
L 108.902871 163.8625 
L 108.902871 246.7 
L 109.411882 246.7 
L 109.411882 163.8625 
L 109.411882 246.7 
L 112.66514 246.7 
L 112.66514 163.8625 
L 112.66514 246.7 
L 118.398504 246.7 
L 118.398504 163.8625 
L 118.398504 246.7 
L 121.139057 246.7 
L 121.139057 163.8625 
L 121.139057 246.7 
L 121.4143 246.7 
L 121.4143 163.8625 
L 121.503061 246.7 
L 125.127707 246.7 
L 125.127707 163.8625 
L 125.127707 246.7 
L 128.842166 246.7 
L 128.842166 163.8625 
L 128.842166 246.7 
L 135.840536 246.7 
L 135.840536 163.8625 
L 135.840536 246.7 
L 137.008458 246.7 
L 137.008458 163.8625 
L 137.008458 246.7 
L 139.930022 246.7 
L 139.930022 163.8625 
L 139.930022 246.7 
L 142.867533 246.7 
L 142.867533 163.8625 
L 142.867533 246.7 
L 143.993996 246.7 
L 143.993996 163.8625 
L 143.993996 246.7 
L 145.331644 246.7 
L 145.331644 163.8625 
L 145.331644 246.7 
L 148.091765 246.7 
L 148.091765 163.8625 
L 148.091765 246.7 
L 150.159194 246.7 
L 150.159194 163.8625 
L 150.159194 246.7 
L 150.388287 246.7 
L 150.388287 163.8625 
L 150.523197 163.8625 
L 150.523197 246.7 
L 152.709224 246.7 
L 152.709224 163.8625 
L 152.709224 246.7 
L 154.568247 246.7 
L 154.568247 163.8625 
L 154.568247 246.7 
L 156.155887 246.7 
L 156.155887 163.8625 
L 156.155887 246.7 
L 156.437498 246.7 
L 156.437498 163.8625 
L 156.51989 246.7 
L 157.84043 246.7 
L 157.84043 163.8625 
L 157.84043 246.7 
L 163.108325 246.7 
L 163.108325 163.8625 
L 163.108325 246.7 
L 165.695233 246.7 
L 165.695233 163.8625 
L 165.695233 246.7 
L 167.038092 246.7 
L 167.038092 163.8625 
L 167.038092 246.7 
L 167.241836 246.7 
L 167.241836 163.8625 
L 167.402095 163.8625 
L 167.402095 246.7 
L 168.216574 246.7 
L 168.216574 163.8625 
L 168.216574 246.7 
L 169.38447 246.7 
L 169.38447 163.8625 
L 169.38447 246.7 
L 169.943725 246.7 
L 169.943725 163.8625 
L 169.943725 246.7 
L 170.319019 246.7 
L 170.319019 163.8625 
L 170.319019 246.7 
L 173.027668 246.7 
L 173.027668 163.8625 
L 173.027668 246.7 
L 175.45792 246.7 
L 175.45792 163.8625 
L 175.45792 246.7 
L 176.56646 246.7 
L 176.56646 163.8625 
L 176.56646 246.7 
L 177.010632 246.7 
L 177.010632 163.8625 
L 177.010632 246.7 
L 178.540056 246.7 
L 178.540056 163.8625 
L 178.540056 246.7 
L 178.804465 246.7 
L 178.804465 163.8625 
L 178.90406 246.7 
L 178.986466 246.7 
L 178.986466 163.8625 
L 179.268063 163.8625 
L 179.268063 246.7 
L 179.552017 246.7 
L 179.552017 163.8625 
L 179.632066 246.7 
L 181.301747 246.7 
L 181.301747 163.8625 
L 181.301747 246.7 
L 181.596838 246.7 
L 181.596838 163.8625 
L 181.665751 246.7 
L 183.320389 246.7 
L 183.320389 163.8625 
L 183.320389 246.7 
L 183.778017 246.7 
L 183.778017 163.8625 
L 183.778017 246.7 
L 185.524411 246.7 
L 185.524411 163.8625 
L 185.524411 246.7 
L 186.413594 246.7 
L 186.413594 163.8625 
L 186.413594 246.7 
L 191.651448 246.7 
L 191.651448 163.8625 
L 191.651448 246.7 
L 195.890111 246.7 
L 195.890111 163.8625 
L 195.890111 246.7 
L 197.974284 246.7 
L 197.974284 163.8625 
L 197.974284 246.7 
L 199.062192 246.7 
L 199.062192 163.8625 
L 199.062192 246.7 
L 199.873043 246.7 
L 199.873043 163.8625 
L 199.873043 246.7 
L 201.60114 246.7 
L 201.60114 163.8625 
L 201.60114 246.7 
L 202.646799 246.7 
L 202.646799 163.8625 
L 202.646799 246.7 
L 206.880798 246.7 
L 206.880798 163.8625 
L 206.880798 246.7 
L 209.057734 246.7 
L 209.057734 163.8625 
L 209.057734 246.7 
L 209.248038 246.7 
L 209.248038 163.8625 
L 209.421738 163.8625 
L 209.421738 246.7 
L 209.430039 163.8625 
L 209.785741 163.8625 
L 209.785741 246.7 
L 215.731538 246.7 
L 215.731538 163.8625 
L 215.731538 246.7 
L 217.731577 246.7 
L 217.731577 163.8625 
L 217.731577 246.7 
L 219.658674 246.7 
L 219.658674 163.8625 
L 219.658674 246.7 
L 221.67998 246.7 
L 221.67998 163.8625 
L 221.67998 246.7 
L 222.021099 246.7 
L 222.021099 163.8625 
L 222.043984 246.7 
L 222.450999 246.7 
L 222.450999 163.8625 
L 222.450999 246.7 
L 223.258002 246.7 
L 223.258002 163.8625 
L 223.258002 246.7 
L 223.509217 246.7 
L 223.509217 163.8625 
L 223.622006 163.8625 
L 223.622006 246.7 
L 226.037298 246.7 
L 226.037298 163.8625 
L 226.037298 246.7 
L 226.727016 246.7 
L 226.727016 163.8625 
L 226.727016 246.7 
L 228.430664 246.7 
L 228.430664 163.8625 
L 228.430664 246.7 
L 229.253497 246.7 
L 229.253497 163.8625 
L 229.253497 246.7 
L 229.968969 246.7 
L 229.968969 163.8625 
L 229.968969 246.7 
L 231.505842 246.7 
L 231.505842 163.8625 
L 231.505842 246.7 
L 231.687844 246.7 
L 231.687844 163.8625 
L 231.869846 163.8625 
L 231.869846 246.7 
L 232.627896 246.7 
L 232.627896 163.8625 
L 232.627896 246.7 
L 234.458599 246.7 
L 234.458599 163.8625 
L 234.458599 246.7 
L 242.56586 246.7 
L 242.56586 163.8625 
L 242.56586 246.7 
L 248.377078 246.7 
L 248.377078 163.8625 
L 248.377078 246.7 
L 248.572976 246.7 
L 248.572976 163.8625 
L 248.741081 163.8625 
L 248.741081 246.7 
L 250.498238 246.7 
L 250.498238 163.8625 
L 250.498238 246.7 
L 250.924671 246.7 
L 250.924671 163.8625 
L 250.924671 246.7 
L 252.759283 246.7 
L 252.759283 163.8625 
L 252.759283 246.7 
L 253.079449 246.7 
L 253.079449 163.8625 
L 253.123287 246.7 
L 262.834924 246.7 
L 262.834924 163.8625 
L 262.834924 246.7 
L 264.761854 246.7 
L 264.761854 163.8625 
L 264.761854 246.7 
L 266.348756 246.7 
L 266.348756 163.8625 
L 266.348756 246.7 
L 266.880347 246.7 
L 266.880347 163.8625 
L 266.880347 246.7 
L 267.854174 246.7 
L 267.854174 163.8625 
L 267.854174 246.7 
L 268.997039 246.7 
L 268.997039 163.8625 
L 268.997039 246.7 
L 270.168731 246.7 
L 270.168731 163.8625 
L 270.168731 246.7 
L 270.67884 246.7 
L 270.67884 163.8625 
L 270.67884 246.7 
L 272.45675 246.7 
L 272.45675 163.8625 
L 272.45675 246.7 
L 272.771845 246.7 
L 272.771845 163.8625 
L 272.820753 246.7 
L 273.522604 246.7 
L 273.522604 163.8625 
L 273.522604 246.7 
L 273.735465 246.7 
L 273.735465 163.8625 
L 273.886608 163.8625 
L 273.886608 246.7 
L 275.779651 246.7 
L 275.779651 163.8625 
L 275.779651 246.7 
L 277.72356 246.7 
L 277.72356 163.8625 
L 277.72356 246.7 
L 278.417999 246.7 
L 278.417999 163.8625 
L 278.417999 246.7 
L 278.688658 246.7 
L 278.688658 163.8625 
L 278.782002 246.7 
L 281.43076 246.7 
L 281.43076 163.8625 
L 281.43076 246.7 
L 281.829126 246.7 
L 281.829126 163.8625 
L 281.829126 246.7 
L 287.265863 246.7 
L 287.265863 163.8625 
L 287.265863 246.7 
L 288.103097 246.7 
L 288.103097 163.8625 
L 288.103097 246.7 
L 290.080126 246.7 
L 290.080126 163.8625 
L 290.080126 246.7 
L 293.211159 246.7 
L 293.211159 163.8625 
L 293.211159 246.7 
L 293.393161 246.7 
L 293.393161 163.8625 
L 293.575162 163.8625 
L 293.575162 246.7 
L 293.575162 163.8625 
L 293.939166 163.8625 
L 293.939166 246.7 
L 295.196637 246.7 
L 295.196637 163.8625 
L 295.196637 246.7 
L 298.508738 246.7 
L 298.508738 163.8625 
L 298.508738 246.7 
L 300.54682 246.7 
L 300.54682 163.8625 
L 300.54682 246.7 
L 300.730705 246.7 
L 300.730705 163.8625 
L 300.910823 163.8625 
L 300.910823 246.7 
L 307.234697 246.7 
L 307.234697 163.8625 
L 307.234697 246.7 
L 314.057999 246.7 
L 314.057999 163.8625 
L 314.057999 246.7 
L 317.88972 246.7 
L 317.88972 163.8625 
L 317.88972 246.7 
L 319.040584 246.7 
L 319.040584 163.8625 
L 319.040584 246.7 
L 320.337498 246.7 
L 320.337498 163.8625 
L 320.337498 246.7 
L 327.184271 246.7 
L 327.184271 163.8625 
L 327.184271 246.7 
L 327.366272 246.7 
L 327.366272 163.8625 
L 327.548274 163.8625 
L 327.548274 246.7 
L 328.978453 246.7 
L 328.978453 163.8625 
L 328.978453 246.7 
L 330.070367 246.7 
L 330.070367 163.8625 
L 330.070367 246.7 
L 332.516917 246.7 
L 332.516917 163.8625 
L 332.516917 246.7 
L 332.698918 246.7 
L 332.698918 163.8625 
L 332.88092 163.8625 
L 332.88092 246.7 
L 332.88092 163.8625 
L 333.244924 163.8625 
L 333.244924 246.7 
L 333.687269 246.7 
L 333.687269 163.8625 
L 333.687269 246.7 
L 334.292262 246.7 
L 334.292262 163.8625 
L 334.292262 246.7 
L 341.374986 246.7 
L 341.374986 163.8625 
L 341.374986 246.7 
L 341.608052 246.7 
L 341.608052 163.8625 
L 341.73899 163.8625 
L 341.73899 246.7 
L 342.418723 246.7 
L 342.418723 163.8625 
L 342.418723 246.7 
L 343.05787 246.7 
L 343.05787 163.8625 
L 343.05787 246.7 
L 344.251157 246.7 
L 344.251157 163.8625 
L 344.251157 246.7 
L 344.481187 246.7 
L 344.481187 163.8625 
L 344.615161 163.8625 
L 344.615161 246.7 
L 346.604917 246.7 
L 346.604917 163.8625 
L 346.604917 246.7 
L 347.301439 246.7 
L 347.301439 163.8625 
L 347.301439 246.7 
L 351.167587 246.7 
L 351.167587 163.8625 
L 351.167587 246.7 
L 352.141086 246.7 
L 352.141086 163.8625 
L 352.141086 246.7 
L 356.698249 246.7 
L 356.698249 163.8625 
L 356.698249 246.7 
L 356.88025 246.7 
L 356.88025 163.8625 
L 357.062252 163.8625 
L 357.062252 246.7 
L 357.263715 246.7 
L 357.263715 163.8625 
L 357.426255 163.8625 
L 357.426255 246.7 
L 359.40986 246.7 
L 359.40986 163.8625 
L 359.40986 246.7 
L 360.92565 246.7 
L 360.92565 163.8625 
L 360.92565 246.7 
L 362.447362 246.7 
L 362.447362 163.8625 
L 362.447362 246.7 
L 366.093294 246.7 
L 366.093294 163.8625 
L 366.093294 246.7 
L 366.654614 246.7 
L 366.654614 163.8625 
L 366.654614 246.7 
L 367.949098 246.7 
L 367.949098 163.8625 
L 367.949098 246.7 
L 369.297292 246.7 
L 369.297292 163.8625 
L 369.297292 246.7 
L 373.821095 246.7 
L 373.821095 163.8625 
L 373.821095 246.7 
L 374.003096 246.7 
L 374.003096 163.8625 
L 374.185098 163.8625 
L 374.185098 246.7 
L 378.624038 246.7 
L 378.624038 163.8625 
L 378.624038 246.7 
L 380.185423 246.7 
L 380.185423 163.8625 
L 380.185423 246.7 
L 380.367424 246.7 
L 380.367424 163.8625 
L 380.549426 163.8625 
L 380.549426 246.7 
L 385.165038 246.7 
L 385.165038 163.8625 
L 385.165038 246.7 
L 385.757163 246.7 
L 385.757163 163.8625 
L 385.757163 246.7 
L 386.455249 246.7 
L 386.455249 163.8625 
L 386.455249 246.7 
L 386.637251 246.7 
L 386.637251 163.8625 
L 386.819253 163.8625 
L 386.819253 246.7 
L 388.475917 246.7 
L 388.475917 163.8625 
L 388.475917 246.7 
L 391.838086 246.7 
L 391.838086 163.8625 
L 391.838086 246.7 
L 392.09531 246.7 
L 392.09531 163.8625 
L 392.202089 246.7 
L 393.991369 246.7 
L 393.991369 163.8625 
L 393.991369 246.7 
L 396.28447 246.7 
L 396.28447 163.8625 
L 396.28447 246.7 
L 399.635636 246.7 
L 399.635636 163.8625 
L 399.635636 246.7 
L 400.257452 246.7 
L 400.257452 163.8625 
L 400.257452 246.7 
L 400.81714 246.7 
L 400.81714 163.8625 
L 400.81714 246.7 
L 401.185421 246.7 
L 401.185421 163.8625 
L 401.185421 246.7 
L 402.108534 246.7 
L 402.108534 163.8625 
L 402.108534 246.7 
L 403.715844 246.7 
L 403.715844 163.8625 
L 403.715844 246.7 
L 405.180589 246.7 
L 405.180589 163.8625 
L 405.180589 246.7 
L 405.362591 246.7 
L 405.362591 163.8625 
L 405.544593 163.8625 
L 405.544593 246.7 
L 405.54562 163.8625 
L 405.908596 163.8625 
L 405.908596 246.7 
L 408.7593 246.7 
L 408.7593 163.8625 
L 408.7593 246.7 
L 409.599658 246.7 
L 409.599658 163.8625 
L 409.599658 246.7 
L 409.78166 246.7 
L 409.78166 163.8625 
L 409.963661 163.8625 
L 409.963661 246.7 
L 409.963661 163.8625 
L 410.327665 163.8625 
L 410.327665 246.7 
L 410.691668 246.7 
L 410.691668 246.7 
" clip-path="url(#pab7fc57f5f)" style="fill: none; stroke: #2ca02c; stroke-width: 1.5; stroke-linecap: square"/>
   </g>
   <g id="patch_3">
    <path d="M 47.58125 246.7 
L 47.58125 25.8 
" style="fill: none; stroke: #000000; stroke-width: 0.8; stroke-linejoin: miter; stroke-linecap: square"/>
   </g>
   <g id="patch_4">
    <path d="M 415.396903 246.7 
L 415.396903 25.8 
" style="fill: none; stroke: #000000; stroke-width: 0.8; stroke-linejoin: miter; stroke-linecap: square"/>
   </g>
   <g id="patch_5">
    <path d="M 47.58125 246.7 
L 415.396903 246.7 
" style="fill: none; stroke: #000000; stroke-width: 0.8; stroke-linejoin: miter; stroke-linecap: square"/>
   </g>
   <g id="patch_6">
    <path d="M 47.58125 25.8 
L 415.396903 25.8 
" style="fill: none; stroke: #000000; stroke-width: 0.8; stroke-linejoin: miter; stroke-linecap: square"/>
   </g>
   <g id="text_18">
    <!-- Cantidad de paquetes en los buffers -->
    <g transform="translate(122.433452 19.8)scale(0.12 -0.12)">
     <defs>
      <path id="DejaVuSans-43" d="M 4122 4306 
L 4122 3641 
Q 3803 3938 3442 4084 
Q 3081 4231 2675 4231 
Q 1875 4231 1450 3742 
Q 1025 3253 1025 2328 
Q 1025 1406 1450 917 
Q 1875 428 2675 428 
Q 3081 428 3442 575 
Q 3803 722 4122 1019 
L 4122 359 
Q 3791 134 3420 21 
Q 3050 -91 2638 -91 
Q 1578 -91 968 557 
Q 359 1206 359 2328 
Q 359 3453 968 4101 
Q 1578 4750 2638 4750 
Q 3056 4750 3426 4639 
Q 3797 4528 4122 4306 
z
" transform="scale(0.015625)"/>
      <path id="DejaVuSans-6e" d="M 3513 2113 
L 3513 0 
L 2938 0 
L 2938 2094 
Q 2938 2591 2744 2837 
Q 2550 3084 2163 3084 
Q 1697 3084 1428 2787 
Q 1159 2491 1159 1978 
L 1159 0 
L 581 0 
L 581 3500 
L 1159 3500 
L 1159 2956 
Q 1366 3272 1645 3428 
Q 1925 3584 2291 3584 
Q 2894 3584 3203 3211 
Q 3513 2838 3513 2113 
z
" transform="scale(0.015625)"/>
      <path id="DejaVuSans-64" d="M 2906 2969 
L 2906 4863 
L 3481 4863 
L 3481 0 
L 2906 0 
L 2906 525 
Q 2725 213 2448 61 
Q 2172 -91 1784 -91 
Q 1150 -91 751 415 
Q 353 922 353 1747 
Q 353 2572 751 3078 
Q 1150 3584 1784 3584 
Q 2172 3584 2448 3432 
Q 2725 3281 2906 2969 
z
M 947 1747 
Q 947 1113 1208 752 
Q 1469 391 1925 391 
Q 2381 391 2643 752 
Q 2906 1113 2906 1747 
Q 2906 2381 2643 2742 
Q 2381 3103 1925 3103 
Q 1469 3103 1208 2742 
Q 947 2381 947 1747 
z
" transform="scale(0.015625)"/>
      <path id="DejaVuSans-20" transform="scale(0.015625)"/>
      <path id="DejaVuSans-6c" d="M 603 4863 
L 1178 4863 
L 1178 0 
L 603 0 
L 603 4863 
z
" transform="scale(0.015625)"/>
      <path id="DejaVuSans-62" d="M 3116 1747 
Q 3116 2381 2855 2742 
Q 2594 3103 2138 3103 
Q 1681 3103 1420 2742 
Q 1159 2381 1159 1747 
Q 1159 1113 1420 752 
Q 1681 391 2138 391 
Q 2594 391 2855 752 
Q 3116 1113 3116 1747 
z
M 1159 2969 
Q 1341 3281 1617 3432 
Q 1894 3584 2278 3584 
Q 2916 3584 3314 3078 
Q 3713 2572 3713 1747 
Q 3713 922 3314 415 
Q 2916 -91 2278 -91 
Q 1894 -91 1617 61 
Q 1341 213 1159 525 
L 1159 0 
L 581 0 
L 581 4863 
L 1159 4863 
L 1159 2969 
z
" transform="scale(0.015625)"/>
      <path id="DejaVuSans-66" d="M 2375 4863 
L 2375 4384 
L 1825 4384 
Q 1516 4384 1395 4259 
Q 1275 4134 1275 3809 
L 1275 3500 
L 2222 3500 
L 2222 3053 
L 1275 3053 
L 1275 0 
L 697 0 
L 697 3053 
L 147 3053 
L 147 3500 
L 697 3500 
L 697 3744 
Q 697 4328 969 4595 
Q 1241 4863 1831 4863 
L 2375 4863 
z
" transform="scale(0.015625)"/>
      <path id="DejaVuSans-72" d="M 2631 2963 
Q 2534 3019 2420 3045 
Q 2306 3072 2169 3072 
Q 1681 3072 1420 2755 
Q 1159 2438 1159 1844 
L 1159 0 
L 581 0 
L 581 3500 
L 1159 3500 
L 1159 2956 
Q 1341 3275 1631 3429 
Q 1922 3584 2338 3584 
Q 2397 3584 2469 3576 
Q 2541 3569 2628 3553 
L 2631 2963 
z
" transform="scale(0.015625)"/>
     </defs>
     <use xlink:href="#DejaVuSans-43"/>
     <use xlink:href="#DejaVuSans-61" x="69.824219"/>
     <use xlink:href="#DejaVuSans-6e" x="131.103516"/>
     <use xlink:href="#DejaVuSans-74" x="194.482422"/>
     <use xlink:href="#DejaVuSans-69" x="233.691406"/>
     <use xlink:href="#DejaVuSans-64" x="261.474609"/>
     <use xlink:href="#DejaVuSans-61" x="324.951172"/>
     <use xlink:href="#DejaVuSans-64" x="386.230469"/>
     <use xlink:href="#DejaVuSans-20" x="449.707031"/>
     <use xlink:href="#DejaVuSans-64" x="481.494141"/>
     <use xlink:href="#DejaVuSans-65" x="544.970703"/>
     <use xlink:href="#DejaVuSans-20" x="606.494141"/>
     <use xlink:href="#DejaVuSans-70" x="638.28125"/>
     <use xlink:href="#DejaVuSans-61" x="701.757812"/>
     <use xlink:href="#DejaVuSans-71" x="763.037109"/>
     <use xlink:href="#DejaVuSans-75" x="826.513672"/>
     <use xlink:href="#DejaVuSans-65" x="889.892578"/>
     <use xlink:href="#DejaVuSans-74" x="951.416016"/>
     <use xlink:href="#DejaVuSans-65" x="990.625"/>
     <use xlink:href="#DejaVuSans-73" x="1052.148438"/>
     <use xlink:href="#DejaVuSans-20" x="1104.248047"/>
     <use xlink:href="#DejaVuSans-65" x="1136.035156"/>
     <use xlink:href="#DejaVuSans-6e" x="1197.558594"/>
     <use xlink:href="#DejaVuSans-20" x="1260.9375"/>
     <use xlink:href="#DejaVuSans-6c" x="1292.724609"/>
     <use xlink:href="#DejaVuSans-6f" x="1320.507812"/>
     <use xlink:href="#DejaVuSans-73" x="1381.689453"/>
     <use xlink:href="#DejaVuSans-20" x="1433.789062"/>
     <use xlink:href="#DejaVuSans-62" x="1465.576172"/>
     <use xlink:href="#DejaVuSans-75" x="1529.052734"/>
     <use xlink:href="#DejaVuSans-66" x="1592.431641"/>
     <use xlink:href="#DejaVuSans-66" x="1627.636719"/>
     <use xlink:href="#DejaVuSans-65" x="1662.841797"/>
     <use xlink:href="#DejaVuSans-72" x="1724.365234"/>
     <use xlink:href="#DejaVuSans-73" x="1765.478516"/>
    </g>
   </g>
   <g id="legend_1">
    <g id="patch_7">
     <path d="M 176.942216 78.004687 
L 408.396903 78.004687 
Q 410.396903 78.004687 410.396903 76.004687 
L 410.396903 32.8 
Q 410.396903 30.8 408.396903 30.8 
L 176.942216 30.8 
Q 174.942216 30.8 174.942216 32.8 
L 174.942216 76.004687 
Q 174.942216 78.004687 176.942216 78.004687 
z
" style="fill: #ffffff; opacity: 0.8; stroke: #cccccc; stroke-linejoin: miter"/>
    </g>
    <g id="line2d_34">
     <path d="M 178.942216 39.06875 
L 188.942216 39.06875 
L 198.942216 39.06875 
" style="fill: none; stroke: #1f77b4; stroke-width: 1.5; stroke-linecap: square"/>
    </g>
    <g id="text_19">
     <!-- Tamao del buffer del receptor -->
     <g transform="translate(206.942216 42.56875)scale(0.1 -0.1)">
      <defs>
       <path id="DejaVuSans-f1" d="M 3513 2113 
L 3513 0 
L 2938 0 
L 2938 2094 
Q 2938 2591 2744 2837 
Q 2550 3084 2163 3084 
Q 1697 3084 1428 2787 
Q 1159 2491 1159 1978 
L 1159 0 
L 581 0 
L 581 3500 
L 1159 3500 
L 1159 2956 
Q 1366 3272 1645 3428 
Q 1925 3584 2291 3584 
Q 2894 3584 3203 3211 
Q 3513 2838 3513 2113 
z
M 2060 4281 
L 1881 4453 
Q 1813 4516 1761 4545 
Q 1710 4575 1669 4575 
Q 1550 4575 1494 4461 
Q 1438 4347 1431 4091 
L 1041 4091 
Q 1047 4513 1206 4742 
Q 1366 4972 1650 4972 
Q 1769 4972 1869 4928 
Q 1969 4884 2085 4781 
L 2263 4609 
Q 2331 4547 2383 4517 
Q 2435 4488 2475 4488 
Q 2594 4488 2650 4602 
Q 2706 4716 2713 4972 
L 3103 4972 
Q 3097 4550 2937 4320 
Q 2778 4091 2494 4091 
Q 2375 4091 2275 4134 
Q 2175 4178 2060 4281 
z
" transform="scale(0.015625)"/>
       <path id="DejaVuSans-63" d="M 3122 3366 
L 3122 2828 
Q 2878 2963 2633 3030 
Q 2388 3097 2138 3097 
Q 1578 3097 1268 2742 
Q 959 2388 959 1747 
Q 959 1106 1268 751 
Q 1578 397 2138 397 
Q 2388 397 2633 464 
Q 2878 531 3122 666 
L 3122 134 
Q 2881 22 2623 -34 
Q 2366 -91 2075 -91 
Q 1284 -91 818 406 
Q 353 903 353 1747 
Q 353 2603 823 3093 
Q 1294 3584 2113 3584 
Q 2378 3584 2631 3529 
Q 2884 3475 3122 3366 
z
" transform="scale(0.015625)"/>
      </defs>
      <use xlink:href="#DejaVuSans-54"/>
      <use xlink:href="#DejaVuSans-61" x="44.583984"/>
      <use xlink:href="#DejaVuSans-6d" x="105.863281"/>
      <use xlink:href="#DejaVuSans-61" x="203.275391"/>
      <use xlink:href="#DejaVuSans-f1" x="264.554688"/>
      <use xlink:href="#DejaVuSans-6f" x="327.933594"/>
      <use xlink:href="#DejaVuSans-20" x="389.115234"/>
      <use xlink:href="#DejaVuSans-64" x="420.902344"/>
      <use xlink:href="#DejaVuSans-65" x="484.378906"/>
      <use xlink:href="#DejaVuSans-6c" x="545.902344"/>
      <use xlink:href="#DejaVuSans-20" x="573.685547"/>
      <use xlink:href="#DejaVuSans-62" x="605.472656"/>
      <use xlink:href="#DejaVuSans-75" x="668.949219"/>
      <use xlink:href="#DejaVuSans-66" x="732.328125"/>
      <use xlink:href="#DejaVuSans-66" x="767.533203"/>
      <use xlink:href="#DejaVuSans-65" x="802.738281"/>
      <use xlink:href="#DejaVuSans-72" x="864.261719"/>
      <use xlink:href="#DejaVuSans-20" x="905.375"/>
      <use xlink:href="#DejaVuSans-64" x="937.162109"/>
      <use xlink:href="#DejaVuSans-65" x="1000.638672"/>
      <use xlink:href="#DejaVuSans-6c" x="1062.162109"/>
      <use xlink:href="#DejaVuSans-20" x="1089.945312"/>
      <use xlink:href="#DejaVuSans-72" x="1121.732422"/>
      <use xlink:href="#DejaVuSans-65" x="1160.595703"/>
      <use xlink:href="#DejaVuSans-63" x="1222.119141"/>
      <use xlink:href="#DejaVuSans-65" x="1277.099609"/>
      <use xlink:href="#DejaVuSans-70" x="1338.623047"/>
      <use xlink:href="#DejaVuSans-74" x="1402.099609"/>
      <use xlink:href="#DejaVuSans-6f" x="1441.308594"/>
      <use xlink:href="#DejaVuSans-72" x="1502.490234"/>
     </g>
    </g>
    <g id="line2d_35">
     <path d="M 178.942216 53.746875 
L 188.942216 53.746875 
L 198.942216 53.746875 
" style="fill: none; stroke: #ff7f0e; stroke-width: 1.5; stroke-linecap: square"/>
    </g>
    <g id="text_20">
     <!-- Tamao del buffer del emisor -->
     <g transform="translate(206.942216 57.246875)scale(0.1 -0.1)">
      <use xlink:href="#DejaVuSans-54"/>
      <use xlink:href="#DejaVuSans-61" x="44.583984"/>
      <use xlink:href="#DejaVuSans-6d" x="105.863281"/>
      <use xlink:href="#DejaVuSans-61" x="203.275391"/>
      <use xlink:href="#DejaVuSans-f1" x="264.554688"/>
      <use xlink:href="#DejaVuSans-6f" x="327.933594"/>
      <use xlink:href="#DejaVuSans-20" x="389.115234"/>
      <use xlink:href="#DejaVuSans-64" x="420.902344"/>
      <use xlink:href="#DejaVuSans-65" x="484.378906"/>
      <use xlink:href="#DejaVuSans-6c" x="545.902344"/>
      <use xlink:href="#DejaVuSans-20" x="573.685547"/>
      <use xlink:href="#DejaVuSans-62" x="605.472656"/>
      <use xlink:href="#DejaVuSans-75" x="668.949219"/>
      <use xlink:href="#DejaVuSans-66" x="732.328125"/>
      <use xlink:href="#DejaVuSans-66" x="767.533203"/>
      <use xlink:href="#DejaVuSans-65" x="802.738281"/>
      <use xlink:href="#DejaVuSans-72" x="864.261719"/>
      <use xlink:href="#DejaVuSans-20" x="905.375"/>
      <use xlink:href="#DejaVuSans-64" x="937.162109"/>
      <use xlink:href="#DejaVuSans-65" x="1000.638672"/>
      <use xlink:href="#DejaVuSans-6c" x="1062.162109"/>
      <use xlink:href="#DejaVuSans-20" x="1089.945312"/>
      <use xlink:href="#DejaVuSans-65" x="1121.732422"/>
      <use xlink:href="#DejaVuSans-6d" x="1183.255859"/>
      <use xlink:href="#DejaVuSans-69" x="1280.667969"/>
      <use xlink:href="#DejaVuSans-73" x="1308.451172"/>
      <use xlink:href="#DejaVuSans-6f" x="1360.550781"/>
      <use xlink:href="#DejaVuSans-72" x="1421.732422"/>
     </g>
    </g>
    <g id="line2d_36">
     <path d="M 178.942216 68.425 
L 188.942216 68.425 
L 198.942216 68.425 
" style="fill: none; stroke: #2ca02c; stroke-width: 1.5; stroke-linecap: square"/>
    </g>
    <g id="text_21">
     <!-- Tamao del buffer de la cola intermedia -->
     <g transform="translate(206.942216 71.925)scale(0.1 -0.1)">
      <use xlink:href="#DejaVuSans-54"/>
      <use xlink:href="#DejaVuSans-61" x="44.583984"/>
      <use xlink:href="#DejaVuSans-6d" x="105.863281"/>
      <use xlink:href="#DejaVuSans-61" x="203.275391"/>
      <use xlink:href="#DejaVuSans-f1" x="264.554688"/>
      <use xlink:href="#DejaVuSans-6f" x="327.933594"/>
      <use xlink:href="#DejaVuSans-20" x="389.115234"/>
      <use xlink:href="#DejaVuSans-64" x="420.902344"/>
      <use xlink:href="#DejaVuSans-65" x="484.378906"/>
      <use xlink:href="#DejaVuSans-6c" x="545.902344"/>
      <use xlink:href="#DejaVuSans-20" x="573.685547"/>
      <use xlink:href="#DejaVuSans-62" x="605.472656"/>
      <use xlink:href="#DejaVuSans-75" x="668.949219"/>
      <use xlink:href="#DejaVuSans-66" x="732.328125"/>
      <use xlink:href="#DejaVuSans-66" x="767.533203"/>
      <use xlink:href="#DejaVuSans-65" x="802.738281"/>
      <use xlink:href="#DejaVuSans-72" x="864.261719"/>
      <use xlink:href="#DejaVuSans-20" x="905.375"/>
      <use xlink:href="#DejaVuSans-64" x="937.162109"/>
      <use xlink:href="#DejaVuSans-65" x="1000.638672"/>
      <use xlink:href="#DejaVuSans-20" x="1062.162109"/>
      <use xlink:href="#DejaVuSans-6c" x="1093.949219"/>
      <use xlink:href="#DejaVuSans-61" x="1121.732422"/>
      <use xlink:href="#DejaVuSans-20" x="1183.011719"/>
      <use xlink:href="#DejaVuSans-63" x="1214.798828"/>
      <use xlink:href="#DejaVuSans-6f" x="1269.779297"/>
      <use xlink:href="#DejaVuSans-6c" x="1330.960938"/>
      <use xlink:href="#DejaVuSans-61" x="1358.744141"/>
      <use xlink:href="#DejaVuSans-20" x="1420.023438"/>
      <use xlink:href="#DejaVuSans-69" x="1451.810547"/>
      <use xlink:href="#DejaVuSans-6e" x="1479.59375"/>
      <use xlink:href="#DejaVuSans-74" x="1542.972656"/>
      <use xlink:href="#DejaVuSans-65" x="1582.181641"/>
      <use xlink:href="#DejaVuSans-72" x="1643.705078"/>
      <use xlink:href="#DejaVuSans-6d" x="1683.068359"/>
      <use xlink:href="#DejaVuSans-65" x="1780.480469"/>
      <use xlink:href="#DejaVuSans-64" x="1842.003906"/>
      <use xlink:href="#DejaVuSans-69" x="1905.480469"/>
      <use xlink:href="#DejaVuSans-61" x="1933.263672"/>
     </g>
    </g>
   </g>
  </g>
 </g>
 <defs>
  <clipPath id="pab7fc57f5f">
   <rect x="47.58125" y="25.8" width="367.815653" height="220.9"/>
  </clipPath>
 </defs>
</svg>
