<?xml version="1.0" encoding="utf-8" standalone="no"?>
<!DOCTYPE svg PUBLIC "-//W3C//DTD SVG 1.1//EN"
  "http://www.w3.org/Graphics/SVG/1.1/DTD/svg11.dtd">
<svg xmlns:xlink="http://www.w3.org/1999/xlink" width="432pt" height="288pt" viewBox="0 0 432 288" xmlns="http://www.w3.org/2000/svg" version="1.1">
 <metadata>
  <rdf:RDF xmlns:dc="http://purl.org/dc/elements/1.1/" xmlns:cc="http://creativecommons.org/ns#" xmlns:rdf="http://www.w3.org/1999/02/22-rdf-syntax-ns#">
   <cc:Work>
    <dc:type rdf:resource="http://purl.org/dc/dcmitype/StillImage"/>
    <dc:date>2022-05-23T10:00:42.336512</dc:date>
    <dc:format>image/svg+xml</dc:format>
    <dc:creator>
     <cc:Agent>
      <dc:title>omnetpp.scave 6.0.0; Matplotlib 3.5.1 w/ backend GTK3Agg; Pandas 1.4.2; Python 3.8.10; Linux-5.4.0-109-generic-x86_64-with-glibc2.29</dc:title>
     </cc:Agent>
    </dc:creator>
   </cc:Work>
  </rdf:RDF>
 </metadata>
 <defs>
  <style type="text/css">*{stroke-linejoin: round; stroke-linecap: butt}</style>
 </defs>
 <g id="figure_1">
  <g id="patch_1">
   <path d="M 0 288 
L 432 288 
L 432 0 
L 0 0 
z
" style="fill: #ffffff"/>
  </g>
  <g id="axes_1">
   <g id="patch_2">
    <path d="M 38.01875 246.7 
L 416.025733 246.7 
L 416.025733 25.8 
L 38.01875 25.8 
z
" style="fill: #ffffff"/>
   </g>
   <g id="matplotlib.axis_1">
    <g id="xtick_1">
     <g id="line2d_1">
      <path d="M 38.01875 246.7 
L 38.01875 25.8 
" clip-path="url(#p563e13658d)" style="fill: none; stroke: #b0b0b0; stroke-width: 0.8; stroke-linecap: square"/>
     </g>
     <g id="line2d_2">
      <defs>
       <path id="m664a6d26f8" d="M 0 0 
L 0 3.5 
" style="stroke: #000000; stroke-width: 0.8"/>
      </defs>
      <g>
       <use xlink:href="#m664a6d26f8" x="38.01875" y="246.7" style="stroke: #000000; stroke-width: 0.8"/>
      </g>
     </g>
     <g id="text_1">
      <!-- 0 -->
      <g transform="translate(34.8375 261.298437)scale(0.1 -0.1)">
       <defs>
        <path id="DejaVuSans-30" d="M 2034 4250 
Q 1547 4250 1301 3770 
Q 1056 3291 1056 2328 
Q 1056 1369 1301 889 
Q 1547 409 2034 409 
Q 2525 409 2770 889 
Q 3016 1369 3016 2328 
Q 3016 3291 2770 3770 
Q 2525 4250 2034 4250 
z
M 2034 4750 
Q 2819 4750 3233 4129 
Q 3647 3509 3647 2328 
Q 3647 1150 3233 529 
Q 2819 -91 2034 -91 
Q 1250 -91 836 529 
Q 422 1150 422 2328 
Q 422 3509 836 4129 
Q 1250 4750 2034 4750 
z
" transform="scale(0.015625)"/>
       </defs>
       <use xlink:href="#DejaVuSans-30"/>
      </g>
     </g>
    </g>
    <g id="xtick_2">
     <g id="line2d_3">
      <path d="M 84.722721 246.7 
L 84.722721 25.8 
" clip-path="url(#p563e13658d)" style="fill: none; stroke: #b0b0b0; stroke-width: 0.8; stroke-linecap: square"/>
     </g>
     <g id="line2d_4">
      <g>
       <use xlink:href="#m664a6d26f8" x="84.722721" y="246.7" style="stroke: #000000; stroke-width: 0.8"/>
      </g>
     </g>
     <g id="text_2">
      <!-- 25 -->
      <g transform="translate(78.360221 261.298437)scale(0.1 -0.1)">
       <defs>
        <path id="DejaVuSans-32" d="M 1228 531 
L 3431 531 
L 3431 0 
L 469 0 
L 469 531 
Q 828 903 1448 1529 
Q 2069 2156 2228 2338 
Q 2531 2678 2651 2914 
Q 2772 3150 2772 3378 
Q 2772 3750 2511 3984 
Q 2250 4219 1831 4219 
Q 1534 4219 1204 4116 
Q 875 4013 500 3803 
L 500 4441 
Q 881 4594 1212 4672 
Q 1544 4750 1819 4750 
Q 2544 4750 2975 4387 
Q 3406 4025 3406 3419 
Q 3406 3131 3298 2873 
Q 3191 2616 2906 2266 
Q 2828 2175 2409 1742 
Q 1991 1309 1228 531 
z
" transform="scale(0.015625)"/>
        <path id="DejaVuSans-35" d="M 691 4666 
L 3169 4666 
L 3169 4134 
L 1269 4134 
L 1269 2991 
Q 1406 3038 1543 3061 
Q 1681 3084 1819 3084 
Q 2600 3084 3056 2656 
Q 3513 2228 3513 1497 
Q 3513 744 3044 326 
Q 2575 -91 1722 -91 
Q 1428 -91 1123 -41 
Q 819 9 494 109 
L 494 744 
Q 775 591 1075 516 
Q 1375 441 1709 441 
Q 2250 441 2565 725 
Q 2881 1009 2881 1497 
Q 2881 1984 2565 2268 
Q 2250 2553 1709 2553 
Q 1456 2553 1204 2497 
Q 953 2441 691 2322 
L 691 4666 
z
" transform="scale(0.015625)"/>
       </defs>
       <use xlink:href="#DejaVuSans-32"/>
       <use xlink:href="#DejaVuSans-35" x="63.623047"/>
      </g>
     </g>
    </g>
    <g id="xtick_3">
     <g id="line2d_5">
      <path d="M 131.426691 246.7 
L 131.426691 25.8 
" clip-path="url(#p563e13658d)" style="fill: none; stroke: #b0b0b0; stroke-width: 0.8; stroke-linecap: square"/>
     </g>
     <g id="line2d_6">
      <g>
       <use xlink:href="#m664a6d26f8" x="131.426691" y="246.7" style="stroke: #000000; stroke-width: 0.8"/>
      </g>
     </g>
     <g id="text_3">
      <!-- 50 -->
      <g transform="translate(125.064191 261.298437)scale(0.1 -0.1)">
       <use xlink:href="#DejaVuSans-35"/>
       <use xlink:href="#DejaVuSans-30" x="63.623047"/>
      </g>
     </g>
    </g>
    <g id="xtick_4">
     <g id="line2d_7">
      <path d="M 178.130662 246.7 
L 178.130662 25.8 
" clip-path="url(#p563e13658d)" style="fill: none; stroke: #b0b0b0; stroke-width: 0.8; stroke-linecap: square"/>
     </g>
     <g id="line2d_8">
      <g>
       <use xlink:href="#m664a6d26f8" x="178.130662" y="246.7" style="stroke: #000000; stroke-width: 0.8"/>
      </g>
     </g>
     <g id="text_4">
      <!-- 75 -->
      <g transform="translate(171.768162 261.298437)scale(0.1 -0.1)">
       <defs>
        <path id="DejaVuSans-37" d="M 525 4666 
L 3525 4666 
L 3525 4397 
L 1831 0 
L 1172 0 
L 2766 4134 
L 525 4134 
L 525 4666 
z
" transform="scale(0.015625)"/>
       </defs>
       <use xlink:href="#DejaVuSans-37"/>
       <use xlink:href="#DejaVuSans-35" x="63.623047"/>
      </g>
     </g>
    </g>
    <g id="xtick_5">
     <g id="line2d_9">
      <path d="M 224.834632 246.7 
L 224.834632 25.8 
" clip-path="url(#p563e13658d)" style="fill: none; stroke: #b0b0b0; stroke-width: 0.8; stroke-linecap: square"/>
     </g>
     <g id="line2d_10">
      <g>
       <use xlink:href="#m664a6d26f8" x="224.834632" y="246.7" style="stroke: #000000; stroke-width: 0.8"/>
      </g>
     </g>
     <g id="text_5">
      <!-- 100 -->
      <g transform="translate(215.290882 261.298437)scale(0.1 -0.1)">
       <defs>
        <path id="DejaVuSans-31" d="M 794 531 
L 1825 531 
L 1825 4091 
L 703 3866 
L 703 4441 
L 1819 4666 
L 2450 4666 
L 2450 531 
L 3481 531 
L 3481 0 
L 794 0 
L 794 531 
z
" transform="scale(0.015625)"/>
       </defs>
       <use xlink:href="#DejaVuSans-31"/>
       <use xlink:href="#DejaVuSans-30" x="63.623047"/>
       <use xlink:href="#DejaVuSans-30" x="127.246094"/>
      </g>
     </g>
    </g>
    <g id="xtick_6">
     <g id="line2d_11">
      <path d="M 271.538603 246.7 
L 271.538603 25.8 
" clip-path="url(#p563e13658d)" style="fill: none; stroke: #b0b0b0; stroke-width: 0.8; stroke-linecap: square"/>
     </g>
     <g id="line2d_12">
      <g>
       <use xlink:href="#m664a6d26f8" x="271.538603" y="246.7" style="stroke: #000000; stroke-width: 0.8"/>
      </g>
     </g>
     <g id="text_6">
      <!-- 125 -->
      <g transform="translate(261.994853 261.298437)scale(0.1 -0.1)">
       <use xlink:href="#DejaVuSans-31"/>
       <use xlink:href="#DejaVuSans-32" x="63.623047"/>
       <use xlink:href="#DejaVuSans-35" x="127.246094"/>
      </g>
     </g>
    </g>
    <g id="xtick_7">
     <g id="line2d_13">
      <path d="M 318.242573 246.7 
L 318.242573 25.8 
" clip-path="url(#p563e13658d)" style="fill: none; stroke: #b0b0b0; stroke-width: 0.8; stroke-linecap: square"/>
     </g>
     <g id="line2d_14">
      <g>
       <use xlink:href="#m664a6d26f8" x="318.242573" y="246.7" style="stroke: #000000; stroke-width: 0.8"/>
      </g>
     </g>
     <g id="text_7">
      <!-- 150 -->
      <g transform="translate(308.698823 261.298437)scale(0.1 -0.1)">
       <use xlink:href="#DejaVuSans-31"/>
       <use xlink:href="#DejaVuSans-35" x="63.623047"/>
       <use xlink:href="#DejaVuSans-30" x="127.246094"/>
      </g>
     </g>
    </g>
    <g id="xtick_8">
     <g id="line2d_15">
      <path d="M 364.946544 246.7 
L 364.946544 25.8 
" clip-path="url(#p563e13658d)" style="fill: none; stroke: #b0b0b0; stroke-width: 0.8; stroke-linecap: square"/>
     </g>
     <g id="line2d_16">
      <g>
       <use xlink:href="#m664a6d26f8" x="364.946544" y="246.7" style="stroke: #000000; stroke-width: 0.8"/>
      </g>
     </g>
     <g id="text_8">
      <!-- 175 -->
      <g transform="translate(355.402794 261.298437)scale(0.1 -0.1)">
       <use xlink:href="#DejaVuSans-31"/>
       <use xlink:href="#DejaVuSans-37" x="63.623047"/>
       <use xlink:href="#DejaVuSans-35" x="127.246094"/>
      </g>
     </g>
    </g>
    <g id="xtick_9">
     <g id="line2d_17">
      <path d="M 411.650514 246.7 
L 411.650514 25.8 
" clip-path="url(#p563e13658d)" style="fill: none; stroke: #b0b0b0; stroke-width: 0.8; stroke-linecap: square"/>
     </g>
     <g id="line2d_18">
      <g>
       <use xlink:href="#m664a6d26f8" x="411.650514" y="246.7" style="stroke: #000000; stroke-width: 0.8"/>
      </g>
     </g>
     <g id="text_9">
      <!-- 200 -->
      <g transform="translate(402.106764 261.298437)scale(0.1 -0.1)">
       <use xlink:href="#DejaVuSans-32"/>
       <use xlink:href="#DejaVuSans-30" x="63.623047"/>
       <use xlink:href="#DejaVuSans-30" x="127.246094"/>
      </g>
     </g>
    </g>
    <g id="text_10">
     <!-- Tiempo -->
     <g transform="translate(208.555054 274.976562)scale(0.1 -0.1)">
      <defs>
       <path id="DejaVuSans-54" d="M -19 4666 
L 3928 4666 
L 3928 4134 
L 2272 4134 
L 2272 0 
L 1638 0 
L 1638 4134 
L -19 4134 
L -19 4666 
z
" transform="scale(0.015625)"/>
       <path id="DejaVuSans-69" d="M 603 3500 
L 1178 3500 
L 1178 0 
L 603 0 
L 603 3500 
z
M 603 4863 
L 1178 4863 
L 1178 4134 
L 603 4134 
L 603 4863 
z
" transform="scale(0.015625)"/>
       <path id="DejaVuSans-65" d="M 3597 1894 
L 3597 1613 
L 953 1613 
Q 991 1019 1311 708 
Q 1631 397 2203 397 
Q 2534 397 2845 478 
Q 3156 559 3463 722 
L 3463 178 
Q 3153 47 2828 -22 
Q 2503 -91 2169 -91 
Q 1331 -91 842 396 
Q 353 884 353 1716 
Q 353 2575 817 3079 
Q 1281 3584 2069 3584 
Q 2775 3584 3186 3129 
Q 3597 2675 3597 1894 
z
M 3022 2063 
Q 3016 2534 2758 2815 
Q 2500 3097 2075 3097 
Q 1594 3097 1305 2825 
Q 1016 2553 972 2059 
L 3022 2063 
z
" transform="scale(0.015625)"/>
       <path id="DejaVuSans-6d" d="M 3328 2828 
Q 3544 3216 3844 3400 
Q 4144 3584 4550 3584 
Q 5097 3584 5394 3201 
Q 5691 2819 5691 2113 
L 5691 0 
L 5113 0 
L 5113 2094 
Q 5113 2597 4934 2840 
Q 4756 3084 4391 3084 
Q 3944 3084 3684 2787 
Q 3425 2491 3425 1978 
L 3425 0 
L 2847 0 
L 2847 2094 
Q 2847 2600 2669 2842 
Q 2491 3084 2119 3084 
Q 1678 3084 1418 2786 
Q 1159 2488 1159 1978 
L 1159 0 
L 581 0 
L 581 3500 
L 1159 3500 
L 1159 2956 
Q 1356 3278 1631 3431 
Q 1906 3584 2284 3584 
Q 2666 3584 2933 3390 
Q 3200 3197 3328 2828 
z
" transform="scale(0.015625)"/>
       <path id="DejaVuSans-70" d="M 1159 525 
L 1159 -1331 
L 581 -1331 
L 581 3500 
L 1159 3500 
L 1159 2969 
Q 1341 3281 1617 3432 
Q 1894 3584 2278 3584 
Q 2916 3584 3314 3078 
Q 3713 2572 3713 1747 
Q 3713 922 3314 415 
Q 2916 -91 2278 -91 
Q 1894 -91 1617 61 
Q 1341 213 1159 525 
z
M 3116 1747 
Q 3116 2381 2855 2742 
Q 2594 3103 2138 3103 
Q 1681 3103 1420 2742 
Q 1159 2381 1159 1747 
Q 1159 1113 1420 752 
Q 1681 391 2138 391 
Q 2594 391 2855 752 
Q 3116 1113 3116 1747 
z
" transform="scale(0.015625)"/>
       <path id="DejaVuSans-6f" d="M 1959 3097 
Q 1497 3097 1228 2736 
Q 959 2375 959 1747 
Q 959 1119 1226 758 
Q 1494 397 1959 397 
Q 2419 397 2687 759 
Q 2956 1122 2956 1747 
Q 2956 2369 2687 2733 
Q 2419 3097 1959 3097 
z
M 1959 3584 
Q 2709 3584 3137 3096 
Q 3566 2609 3566 1747 
Q 3566 888 3137 398 
Q 2709 -91 1959 -91 
Q 1206 -91 779 398 
Q 353 888 353 1747 
Q 353 2609 779 3096 
Q 1206 3584 1959 3584 
z
" transform="scale(0.015625)"/>
      </defs>
      <use xlink:href="#DejaVuSans-54"/>
      <use xlink:href="#DejaVuSans-69" x="57.958984"/>
      <use xlink:href="#DejaVuSans-65" x="85.742188"/>
      <use xlink:href="#DejaVuSans-6d" x="147.265625"/>
      <use xlink:href="#DejaVuSans-70" x="244.677734"/>
      <use xlink:href="#DejaVuSans-6f" x="308.154297"/>
     </g>
    </g>
   </g>
   <g id="matplotlib.axis_2">
    <g id="ytick_1">
     <g id="line2d_19">
      <path d="M 38.01875 246.7 
L 416.025733 246.7 
" clip-path="url(#p563e13658d)" style="fill: none; stroke: #b0b0b0; stroke-width: 0.8; stroke-linecap: square"/>
     </g>
     <g id="line2d_20">
      <defs>
       <path id="m98557cdc6f" d="M 0 0 
L -3.5 0 
" style="stroke: #000000; stroke-width: 0.8"/>
      </defs>
      <g>
       <use xlink:href="#m98557cdc6f" x="38.01875" y="246.7" style="stroke: #000000; stroke-width: 0.8"/>
      </g>
     </g>
     <g id="text_11">
      <!-- 0 -->
      <g transform="translate(24.65625 250.499219)scale(0.1 -0.1)">
       <use xlink:href="#DejaVuSans-30"/>
      </g>
     </g>
    </g>
    <g id="ytick_2">
     <g id="line2d_21">
      <path d="M 38.01875 197.805569 
L 416.025733 197.805569 
" clip-path="url(#p563e13658d)" style="fill: none; stroke: #b0b0b0; stroke-width: 0.8; stroke-linecap: square"/>
     </g>
     <g id="line2d_22">
      <g>
       <use xlink:href="#m98557cdc6f" x="38.01875" y="197.805569" style="stroke: #000000; stroke-width: 0.8"/>
      </g>
     </g>
     <g id="text_12">
      <!-- 2 -->
      <g transform="translate(24.65625 201.604788)scale(0.1 -0.1)">
       <use xlink:href="#DejaVuSans-32"/>
      </g>
     </g>
    </g>
    <g id="ytick_3">
     <g id="line2d_23">
      <path d="M 38.01875 148.911138 
L 416.025733 148.911138 
" clip-path="url(#p563e13658d)" style="fill: none; stroke: #b0b0b0; stroke-width: 0.8; stroke-linecap: square"/>
     </g>
     <g id="line2d_24">
      <g>
       <use xlink:href="#m98557cdc6f" x="38.01875" y="148.911138" style="stroke: #000000; stroke-width: 0.8"/>
      </g>
     </g>
     <g id="text_13">
      <!-- 4 -->
      <g transform="translate(24.65625 152.710357)scale(0.1 -0.1)">
       <defs>
        <path id="DejaVuSans-34" d="M 2419 4116 
L 825 1625 
L 2419 1625 
L 2419 4116 
z
M 2253 4666 
L 3047 4666 
L 3047 1625 
L 3713 1625 
L 3713 1100 
L 3047 1100 
L 3047 0 
L 2419 0 
L 2419 1100 
L 313 1100 
L 313 1709 
L 2253 4666 
z
" transform="scale(0.015625)"/>
       </defs>
       <use xlink:href="#DejaVuSans-34"/>
      </g>
     </g>
    </g>
    <g id="ytick_4">
     <g id="line2d_25">
      <path d="M 38.01875 100.016708 
L 416.025733 100.016708 
" clip-path="url(#p563e13658d)" style="fill: none; stroke: #b0b0b0; stroke-width: 0.8; stroke-linecap: square"/>
     </g>
     <g id="line2d_26">
      <g>
       <use xlink:href="#m98557cdc6f" x="38.01875" y="100.016708" style="stroke: #000000; stroke-width: 0.8"/>
      </g>
     </g>
     <g id="text_14">
      <!-- 6 -->
      <g transform="translate(24.65625 103.815926)scale(0.1 -0.1)">
       <defs>
        <path id="DejaVuSans-36" d="M 2113 2584 
Q 1688 2584 1439 2293 
Q 1191 2003 1191 1497 
Q 1191 994 1439 701 
Q 1688 409 2113 409 
Q 2538 409 2786 701 
Q 3034 994 3034 1497 
Q 3034 2003 2786 2293 
Q 2538 2584 2113 2584 
z
M 3366 4563 
L 3366 3988 
Q 3128 4100 2886 4159 
Q 2644 4219 2406 4219 
Q 1781 4219 1451 3797 
Q 1122 3375 1075 2522 
Q 1259 2794 1537 2939 
Q 1816 3084 2150 3084 
Q 2853 3084 3261 2657 
Q 3669 2231 3669 1497 
Q 3669 778 3244 343 
Q 2819 -91 2113 -91 
Q 1303 -91 875 529 
Q 447 1150 447 2328 
Q 447 3434 972 4092 
Q 1497 4750 2381 4750 
Q 2619 4750 2861 4703 
Q 3103 4656 3366 4563 
z
" transform="scale(0.015625)"/>
       </defs>
       <use xlink:href="#DejaVuSans-36"/>
      </g>
     </g>
    </g>
    <g id="ytick_5">
     <g id="line2d_27">
      <path d="M 38.01875 51.122277 
L 416.025733 51.122277 
" clip-path="url(#p563e13658d)" style="fill: none; stroke: #b0b0b0; stroke-width: 0.8; stroke-linecap: square"/>
     </g>
     <g id="line2d_28">
      <g>
       <use xlink:href="#m98557cdc6f" x="38.01875" y="51.122277" style="stroke: #000000; stroke-width: 0.8"/>
      </g>
     </g>
     <g id="text_15">
      <!-- 8 -->
      <g transform="translate(24.65625 54.921496)scale(0.1 -0.1)">
       <defs>
        <path id="DejaVuSans-38" d="M 2034 2216 
Q 1584 2216 1326 1975 
Q 1069 1734 1069 1313 
Q 1069 891 1326 650 
Q 1584 409 2034 409 
Q 2484 409 2743 651 
Q 3003 894 3003 1313 
Q 3003 1734 2745 1975 
Q 2488 2216 2034 2216 
z
M 1403 2484 
Q 997 2584 770 2862 
Q 544 3141 544 3541 
Q 544 4100 942 4425 
Q 1341 4750 2034 4750 
Q 2731 4750 3128 4425 
Q 3525 4100 3525 3541 
Q 3525 3141 3298 2862 
Q 3072 2584 2669 2484 
Q 3125 2378 3379 2068 
Q 3634 1759 3634 1313 
Q 3634 634 3220 271 
Q 2806 -91 2034 -91 
Q 1263 -91 848 271 
Q 434 634 434 1313 
Q 434 1759 690 2068 
Q 947 2378 1403 2484 
z
M 1172 3481 
Q 1172 3119 1398 2916 
Q 1625 2713 2034 2713 
Q 2441 2713 2670 2916 
Q 2900 3119 2900 3481 
Q 2900 3844 2670 4047 
Q 2441 4250 2034 4250 
Q 1625 4250 1398 4047 
Q 1172 3844 1172 3481 
z
" transform="scale(0.015625)"/>
       </defs>
       <use xlink:href="#DejaVuSans-38"/>
      </g>
     </g>
    </g>
    <g id="text_16">
     <!-- Tiempo -->
     <g transform="translate(18.576563 154.717187)rotate(-90)scale(0.1 -0.1)">
      <use xlink:href="#DejaVuSans-54"/>
      <use xlink:href="#DejaVuSans-69" x="57.958984"/>
      <use xlink:href="#DejaVuSans-65" x="85.742188"/>
      <use xlink:href="#DejaVuSans-6d" x="147.265625"/>
      <use xlink:href="#DejaVuSans-70" x="244.677734"/>
      <use xlink:href="#DejaVuSans-6f" x="308.154297"/>
     </g>
    </g>
   </g>
   <g id="line2d_29">
    <path d="M 39.063751 236.916224 
L 39.437383 236.420241 
L 39.868737 236.916224 
L 40.563545 236.916224 
L 40.937176 236.540828 
L 41.63765 236.916224 
L 42.011281 235.875756 
L 42.633814 236.916224 
L 43.007445 234.721102 
L 43.381077 234.608676 
L 43.754709 234.795253 
L 44.875604 227.039651 
L 45.249236 233.022004 
L 45.622868 228.418029 
L 46.212026 236.916224 
L 46.959289 231.058467 
L 47.332921 229.344455 
L 48.080185 235.412779 
L 48.453816 234.203493 
L 48.827448 232.511172 
L 49.20108 231.726088 
L 49.574712 229.275851 
L 49.961655 236.916224 
L 50.637319 236.916224 
L 51.010951 232.387062 
L 51.384583 229.510006 
L 51.758215 225.066289 
L 52.131846 225.28442 
L 52.505478 220.494846 
L 52.87911 217.850871 
L 53.252742 221.701247 
L 53.626373 232.21438 
L 54.000005 234.687384 
L 54.373637 230.537375 
L 54.747269 235.623933 
L 55.411059 236.916224 
L 56.847756 236.916224 
L 57.221388 235.164382 
L 57.687288 236.916224 
L 58.29033 236.916224 
L 58.663962 235.053002 
L 59.037594 233.757125 
L 59.411225 236.282699 
L 59.787237 236.916224 
L 60.160868 232.642237 
L 60.5345 233.987947 
L 60.908132 234.092737 
L 61.281764 233.468459 
L 61.655395 229.335558 
L 62.029027 228.215067 
L 62.445567 236.916224 
L 62.976634 236.916224 
L 63.350266 235.634346 
L 63.723897 231.292257 
L 64.844793 223.882506 
L 65.218424 220.001282 
L 65.592056 222.388576 
L 65.965688 224.027958 
L 66.33932 222.116589 
L 66.712952 218.420407 
L 67.086583 217.639733 
L 68.207479 205.690019 
L 68.58111 205.501193 
L 68.954742 201.404507 
L 69.328374 201.14535 
L 69.702006 197.485318 
L 70.075637 197.287531 
L 70.449269 194.786859 
L 71.196533 210.466464 
L 71.570164 211.176113 
L 71.943796 209.209315 
L 72.317428 206.49821 
L 72.69106 206.251266 
L 73.064691 204.170967 
L 73.438323 210.656085 
L 73.811955 211.614943 
L 74.559219 202.651012 
L 74.93285 214.875664 
L 75.306482 215.359291 
L 75.680114 215.646957 
L 76.053746 216.187717 
L 76.801009 208.480159 
L 77.174641 205.758715 
L 77.548273 201.544155 
L 77.921904 203.446357 
L 78.295536 200.409827 
L 78.669168 200.097204 
L 79.416431 194.450947 
L 79.790063 193.690285 
L 80.163695 188.992426 
L 80.537327 186.925777 
L 80.910959 186.954483 
L 81.28459 203.845049 
L 81.658222 214.567337 
L 82.031854 210.204169 
L 82.405486 210.486908 
L 82.779117 206.743069 
L 83.152749 206.782279 
L 83.526381 202.752955 
L 83.900013 224.071417 
L 84.273644 224.358636 
L 84.647276 223.732376 
L 85.020908 220.271044 
L 85.768171 216.178611 
L 86.141803 214.436899 
L 86.515435 210.917854 
L 86.889067 210.804732 
L 88.009962 199.571648 
L 88.383594 200.173872 
L 88.757226 200.506707 
L 89.130857 197.48286 
L 89.504489 193.320537 
L 89.878121 195.797702 
L 90.251753 191.978463 
L 90.625384 201.694715 
L 90.999016 199.054484 
L 91.372648 199.476293 
L 91.74628 202.998314 
L 92.493543 193.785671 
L 92.867175 193.663933 
L 93.240807 197.672391 
L 93.614439 198.258217 
L 93.98807 193.862778 
L 94.735334 219.887424 
L 95.108966 225.29183 
L 95.856229 222.088854 
L 96.229861 235.593141 
L 96.603493 230.983994 
L 96.977124 230.634294 
L 97.350756 228.678257 
L 97.724388 230.361425 
L 98.471651 220.876719 
L 98.845283 218.837227 
L 99.218915 215.573084 
L 99.592547 229.711252 
L 99.966179 225.447935 
L 101.087074 217.88026 
L 101.460706 213.608787 
L 101.834337 214.424705 
L 102.207969 211.406457 
L 102.581601 216.90335 
L 102.955233 214.629194 
L 103.328864 221.982485 
L 104.076128 213.722714 
L 104.44976 214.598851 
L 105.197023 212.980157 
L 105.570655 217.885445 
L 105.944287 214.503978 
L 106.69155 211.824597 
L 107.065182 219.088268 
L 107.438814 214.681169 
L 107.812446 222.212401 
L 108.186077 221.51759 
L 108.559709 217.052406 
L 108.933341 225.116349 
L 109.680604 218.803592 
L 110.054236 213.960113 
L 110.427868 214.453194 
L 110.8015 218.596154 
L 111.175131 214.397739 
L 111.548763 214.602023 
L 111.922395 215.872955 
L 112.296027 219.986358 
L 113.790554 207.071982 
L 114.164186 206.500548 
L 114.537817 205.546116 
L 115.285081 196.747879 
L 115.658713 200.491927 
L 116.032344 197.86009 
L 116.779608 188.878418 
L 117.15324 189.526926 
L 117.526871 188.759689 
L 117.900503 185.40906 
L 118.274135 186.467666 
L 118.647767 188.075109 
L 119.021398 184.849772 
L 119.39503 195.973955 
L 119.768662 193.861247 
L 120.142294 190.370287 
L 120.515926 192.379968 
L 120.889557 191.687588 
L 121.263189 189.264105 
L 121.636821 188.758492 
L 122.010453 194.937446 
L 122.384084 194.20022 
L 122.757716 194.29145 
L 123.131348 190.6362 
L 123.50498 196.608689 
L 123.878611 206.643203 
L 124.252243 207.325808 
L 124.999507 203.360487 
L 125.373138 207.631219 
L 125.74677 221.531938 
L 126.120402 222.520772 
L 126.867666 215.071934 
L 127.241297 217.305523 
L 127.614929 220.634853 
L 128.362193 215.920165 
L 128.735824 216.532724 
L 129.109456 222.055347 
L 129.483088 218.571181 
L 129.85672 217.938173 
L 130.230351 214.885884 
L 130.603983 220.434573 
L 130.977615 231.995028 
L 131.351247 232.87211 
L 131.724878 232.323815 
L 132.09851 233.751089 
L 132.472142 234.131658 
L 133.219406 231.479953 
L 133.971762 236.916224 
L 134.345393 233.308095 
L 134.719025 233.468454 
L 135.466289 228.841608 
L 135.83992 228.667805 
L 136.213552 228.337293 
L 136.587184 226.597163 
L 136.960816 221.802477 
L 137.334447 220.018454 
L 137.708079 216.883965 
L 138.081711 218.150544 
L 138.455343 218.538376 
L 139.576238 209.570648 
L 139.94987 209.386683 
L 140.323502 211.259238 
L 140.697133 209.107693 
L 141.070765 214.522495 
L 142.565292 198.41309 
L 142.938924 197.649792 
L 143.312556 194.897172 
L 143.686187 194.377567 
L 144.433451 192.698687 
L 144.807083 187.97648 
L 145.180714 188.265003 
L 145.554346 200.354324 
L 145.927978 200.627398 
L 147.048873 191.835309 
L 147.422505 198.038223 
L 147.796137 193.893411 
L 148.169769 191.244178 
L 148.5434 186.855026 
L 148.917032 184.764601 
L 149.290664 200.106743 
L 149.664296 206.095893 
L 150.037927 202.68094 
L 150.411559 205.814572 
L 150.785191 204.690376 
L 151.158823 205.75148 
L 151.532454 203.766726 
L 152.279718 195.01704 
L 152.65335 202.445484 
L 153.026982 199.679749 
L 153.400613 200.914859 
L 153.774245 199.122696 
L 154.147877 227.312244 
L 154.521509 231.41807 
L 154.89514 227.320081 
L 155.268772 233.921696 
L 155.796886 236.916224 
L 156.54415 228.191544 
L 156.917781 226.773204 
L 157.291413 226.557904 
L 158.038677 218.317835 
L 158.412308 220.810588 
L 159.533204 233.19376 
L 159.906836 230.895736 
L 160.280467 230.122622 
L 160.654099 225.970463 
L 161.027731 223.637563 
L 161.774994 214.374328 
L 162.148626 229.28638 
L 162.522258 230.241966 
L 163.269521 225.702469 
L 163.643153 223.477073 
L 164.016785 224.847751 
L 164.390417 220.212132 
L 164.764048 225.164027 
L 165.13768 222.498849 
L 165.511312 235.749047 
L 165.884944 230.941589 
L 166.258576 235.52093 
L 166.632207 231.914131 
L 167.005839 227.082302 
L 167.379471 229.271765 
L 167.753103 226.56425 
L 168.126734 235.778952 
L 168.529024 236.916224 
L 169.046986 236.916224 
L 169.79425 230.08522 
L 170.541514 227.193563 
L 170.915145 222.577293 
L 171.288777 219.711976 
L 172.409672 207.19336 
L 172.783304 203.22078 
L 173.156936 206.048896 
L 173.530568 204.203607 
L 173.904199 200.553666 
L 174.277831 205.814859 
L 174.651463 202.996863 
L 175.398726 220.191876 
L 175.772358 219.88452 
L 176.14599 220.954314 
L 176.519622 220.504309 
L 176.893253 215.773073 
L 177.266885 218.368542 
L 177.640517 214.35899 
L 178.014149 212.858908 
L 178.387781 212.719472 
L 178.761412 208.082729 
L 179.135044 207.402723 
L 179.508676 208.385359 
L 179.882308 204.824221 
L 180.255939 223.791021 
L 180.629571 232.207455 
L 181.003203 228.838472 
L 181.376835 228.602946 
L 181.750466 229.270826 
L 182.124098 228.131976 
L 182.49773 233.007591 
L 182.871362 232.476493 
L 183.618625 235.896475 
L 184.787858 236.916224 
L 185.16149 233.854878 
L 185.535122 232.916007 
L 185.908754 230.509742 
L 187.776912 211.826043 
L 188.150544 221.06257 
L 188.524176 220.294824 
L 188.897808 221.98338 
L 189.645071 218.44305 
L 190.018703 230.73745 
L 190.392335 227.109546 
L 190.765967 227.799632 
L 191.51323 219.891749 
L 192.260494 210.6891 
L 193.381389 203.905883 
L 193.755021 209.424452 
L 194.128652 210.362531 
L 194.502284 223.792338 
L 194.875916 221.222526 
L 195.249548 221.033987 
L 195.62318 217.112496 
L 195.996811 216.046479 
L 196.370443 211.279215 
L 196.744075 215.818379 
L 197.117707 211.269327 
L 197.491338 213.038972 
L 197.86497 213.711459 
L 198.612234 210.072794 
L 198.985865 210.71016 
L 199.359497 209.581284 
L 199.733129 209.258876 
L 200.106761 215.467686 
L 200.480392 216.710599 
L 200.854024 234.506472 
L 201.227656 232.716594 
L 201.601288 229.022576 
L 201.974919 227.109987 
L 202.348551 227.539791 
L 202.722183 234.233038 
L 203.469447 226.670052 
L 204.21671 218.266168 
L 204.590342 220.321609 
L 204.963974 225.864102 
L 205.337605 222.860457 
L 205.711237 229.450663 
L 206.084869 226.925942 
L 206.458501 227.111008 
L 206.832132 226.560955 
L 207.205764 223.590975 
L 207.579396 227.395663 
L 207.953028 226.091979 
L 208.326659 226.05044 
L 208.700291 221.161268 
L 209.073923 226.348093 
L 210.194818 217.779387 
L 210.56845 220.711681 
L 210.942082 226.411616 
L 211.315714 222.526209 
L 211.689345 223.206123 
L 212.062977 233.245053 
L 212.436609 231.333499 
L 212.810241 232.131032 
L 213.183872 230.471081 
L 213.557504 226.768396 
L 213.931136 229.480389 
L 214.46307 236.916224 
L 214.836702 233.301166 
L 215.210334 234.829156 
L 215.843974 236.916224 
L 216.964869 226.693887 
L 217.36331 236.916224 
L 217.736942 235.597188 
L 218.110574 233.828132 
L 218.484206 229.065803 
L 218.857837 230.255653 
L 219.605101 222.429609 
L 219.978733 220.243237 
L 220.352364 221.763719 
L 220.725996 219.165843 
L 221.099628 219.357537 
L 221.47326 217.513382 
L 222.594155 206.627006 
L 222.967787 206.058783 
L 223.341418 209.227514 
L 223.71505 214.087812 
L 224.088682 215.919788 
L 224.462314 211.641685 
L 224.835946 212.245338 
L 225.209577 210.917971 
L 225.956841 203.416789 
L 226.330473 199.467397 
L 227.077736 201.8183 
L 227.825 197.546476 
L 228.198631 196.731788 
L 228.572263 200.815761 
L 230.06679 185.015297 
L 230.440422 183.399534 
L 230.814054 179.162053 
L 231.187686 176.421302 
L 231.561317 177.792421 
L 231.934949 186.694316 
L 232.308581 181.956086 
L 233.055844 185.984487 
L 233.429476 187.847184 
L 233.803108 183.432837 
L 234.17674 189.987096 
L 234.924003 181.833005 
L 235.297635 183.707209 
L 235.671267 182.745904 
L 236.044898 184.289141 
L 236.41853 183.69368 
L 236.792162 179.032514 
L 237.165794 190.124198 
L 238.286689 179.945992 
L 238.660321 176.403727 
L 239.033953 177.043845 
L 240.154848 163.291632 
L 240.52848 162.368217 
L 240.902111 170.448308 
L 241.275743 165.604254 
L 241.649375 166.134317 
L 242.023007 169.996926 
L 242.396638 172.626609 
L 242.77027 188.05755 
L 243.143902 184.786072 
L 243.517534 185.840678 
L 243.891166 185.268029 
L 244.638429 176.792347 
L 245.385693 173.775826 
L 245.759324 173.133185 
L 246.132956 186.794406 
L 246.506588 189.478767 
L 246.88022 194.815871 
L 247.253851 194.48638 
L 248.001115 187.930349 
L 248.374747 198.975215 
L 248.748378 197.055029 
L 249.12201 193.454332 
L 249.495642 198.885959 
L 249.869274 208.577816 
L 250.242905 207.002448 
L 250.616537 215.982595 
L 250.990169 217.240341 
L 251.363801 220.200697 
L 251.737433 218.566853 
L 252.111064 218.544673 
L 252.484696 219.683329 
L 252.858328 224.933424 
L 253.23196 223.414932 
L 253.605591 220.220919 
L 254.352855 228.784942 
L 254.726487 224.952089 
L 255.100118 224.766349 
L 255.47375 227.134025 
L 255.847382 222.309735 
L 256.221014 235.313978 
L 256.594645 232.510057 
L 256.998762 236.916224 
L 257.372393 232.810726 
L 257.746025 235.334015 
L 259.122616 236.916224 
L 260.692565 236.916224 
L 261.066196 235.208818 
L 261.45906 236.916224 
L 261.832692 235.390442 
L 262.206324 230.520832 
L 262.579955 230.619535 
L 263.327219 224.624048 
L 263.700851 222.318515 
L 264.074482 218.14892 
L 264.448114 215.992713 
L 264.821746 219.545546 
L 265.942641 210.142387 
L 266.316273 208.754006 
L 267.063537 200.84578 
L 267.437168 215.258065 
L 267.8108 210.87208 
L 268.184432 208.530422 
L 268.558064 213.331319 
L 268.931695 212.559454 
L 269.305327 225.315722 
L 269.678959 222.484702 
L 270.052591 233.436873 
L 270.426222 236.151954 
L 271.253472 236.916224 
L 271.627104 234.617998 
L 272.007233 236.916224 
L 273.128129 228.899117 
L 273.501761 224.423221 
L 274.249024 218.958102 
L 274.622656 221.366799 
L 274.996288 217.769492 
L 275.369919 225.624733 
L 276.490815 213.843792 
L 276.864446 223.890912 
L 277.238078 225.324242 
L 277.985342 215.670232 
L 278.358973 214.508616 
L 278.732605 216.817431 
L 279.106237 213.70404 
L 279.479869 209.591692 
L 279.853501 215.187099 
L 280.974396 202.793581 
L 281.721659 203.997686 
L 282.095291 207.239219 
L 282.468923 203.726272 
L 283.216186 199.382257 
L 283.589818 201.312947 
L 283.96345 200.40849 
L 284.710713 208.914543 
L 285.084345 206.354815 
L 285.457977 207.814048 
L 286.20524 200.072564 
L 286.952504 192.429728 
L 287.326136 191.922835 
L 287.699768 187.311927 
L 288.073399 185.586808 
L 288.447031 182.452485 
L 288.820663 180.835561 
L 289.194295 177.432369 
L 289.941558 173.630845 
L 290.31519 172.377109 
L 290.688822 173.109261 
L 291.062453 171.072435 
L 291.436085 171.998967 
L 291.809717 176.472036 
L 292.183349 173.212749 
L 292.930612 168.548653 
L 293.304244 172.233898 
L 293.677876 168.321637 
L 294.051508 166.913517 
L 294.425139 169.621024 
L 295.172403 160.570006 
L 295.546035 160.955914 
L 295.919666 161.904532 
L 296.293298 158.146608 
L 296.66693 160.631498 
L 297.040562 164.929897 
L 297.414193 167.386416 
L 297.787825 168.088983 
L 299.282352 153.603091 
L 299.655984 153.044524 
L 300.029616 148.202682 
L 300.403248 144.870937 
L 300.776879 150.865805 
L 301.150511 148.242081 
L 301.897775 140.236699 
L 302.271406 142.732572 
L 302.645038 140.854631 
L 303.01867 148.640818 
L 303.392302 143.97452 
L 303.765933 145.225696 
L 304.139565 148.200521 
L 304.513197 146.611212 
L 304.886829 142.11331 
L 305.634092 139.010848 
L 306.007724 144.599969 
L 306.381356 141.502269 
L 306.754988 139.889886 
L 307.128619 139.213517 
L 307.502251 136.941903 
L 307.875883 147.72219 
L 308.249515 143.768079 
L 308.623146 143.950186 
L 308.996778 142.213987 
L 309.37041 137.500577 
L 309.744042 140.09613 
L 310.117673 137.958589 
L 310.491305 137.043766 
L 310.864937 135.642375 
L 311.238569 131.604649 
L 311.6122 130.471537 
L 311.985832 126.341354 
L 312.359464 127.044434 
L 312.733096 127.28054 
L 313.106728 123.981002 
L 313.480359 122.880106 
L 314.227623 115.702457 
L 314.601255 113.251341 
L 314.974886 109.139379 
L 315.348518 119.567727 
L 316.469413 107.441765 
L 316.843045 114.00946 
L 317.216677 113.349083 
L 317.590309 112.297056 
L 317.96394 107.880898 
L 318.337572 105.976376 
L 319.084836 118.451488 
L 319.458468 113.985554 
L 319.832099 112.096293 
L 320.205731 115.085366 
L 320.579363 116.49334 
L 320.952995 121.855281 
L 321.326626 119.455554 
L 321.700258 115.045861 
L 322.07389 121.616635 
L 322.447522 119.444055 
L 322.821153 120.281439 
L 323.194785 118.525999 
L 323.568417 119.517157 
L 323.942049 118.871603 
L 324.31568 115.923665 
L 324.689312 117.193166 
L 325.062944 119.216336 
L 325.436576 114.461069 
L 325.810208 114.513725 
L 326.183839 116.051562 
L 326.557471 112.504093 
L 326.931103 114.736418 
L 327.678366 105.861148 
L 328.051998 108.753528 
L 328.42563 105.66625 
L 328.799262 116.414492 
L 329.172893 112.821207 
L 329.920157 109.46104 
L 330.293789 108.942766 
L 330.66742 119.078949 
L 331.041052 123.723807 
L 331.414684 122.824241 
L 331.788316 120.922529 
L 332.161947 116.534507 
L 332.535579 126.479354 
L 332.909211 126.342503 
L 333.282843 125.64544 
L 334.030106 133.991762 
L 334.403738 129.941047 
L 334.77737 136.762699 
L 335.151002 155.750847 
L 335.524633 159.125711 
L 336.645529 146.225945 
L 337.392792 146.203114 
L 337.766424 143.798581 
L 338.140056 153.48838 
L 338.513687 148.915605 
L 338.887319 157.52398 
L 339.634583 153.342456 
L 340.008215 149.916562 
L 340.381846 151.38749 
L 340.755478 155.742659 
L 341.12911 157.481925 
L 341.502742 152.758096 
L 341.876373 149.661637 
L 342.250005 160.387911 
L 342.623637 156.122232 
L 343.744532 148.626718 
L 344.118164 146.168352 
L 344.491796 141.359405 
L 344.865427 140.180877 
L 345.239059 136.293047 
L 345.612691 140.530437 
L 345.986323 138.148921 
L 346.359955 137.016832 
L 346.733586 145.080444 
L 347.107218 145.76633 
L 347.48085 141.389949 
L 347.854482 141.094148 
L 348.228113 150.413033 
L 348.601745 146.030483 
L 348.975377 151.097384 
L 349.349009 146.679974 
L 349.72264 144.750765 
L 350.096272 140.142919 
L 350.469904 137.187572 
L 351.217167 129.146601 
L 351.590799 125.580849 
L 351.964431 125.351645 
L 352.338063 129.407644 
L 352.711695 124.682652 
L 353.085326 123.406116 
L 353.458958 118.59358 
L 353.83259 117.222799 
L 354.206222 115.071485 
L 354.579853 115.312741 
L 354.953485 110.768013 
L 355.327117 109.724406 
L 355.700749 106.254238 
L 356.448012 97.858844 
L 356.821644 97.212762 
L 357.195276 93.750772 
L 357.568907 96.070433 
L 357.942539 91.867838 
L 358.316171 89.286056 
L 358.689803 84.45582 
L 359.063435 82.868491 
L 359.437066 78.579056 
L 359.810698 93.235472 
L 360.18433 93.057461 
L 360.557962 89.539878 
L 360.931593 102.543655 
L 361.305225 99.946976 
L 361.678857 117.745918 
L 362.052489 113.084983 
L 362.42612 110.767537 
L 362.799752 107.692868 
L 363.173384 103.673143 
L 363.547016 107.491479 
L 363.920647 107.580553 
L 364.294279 110.735141 
L 364.667911 109.140906 
L 365.041543 109.247096 
L 365.415175 126.593979 
L 365.788806 123.948927 
L 366.162438 119.389688 
L 366.53607 116.334089 
L 367.283333 121.945214 
L 367.656965 118.719341 
L 368.404229 110.648615 
L 368.77786 111.385272 
L 369.151492 111.806758 
L 369.525124 109.260398 
L 369.898756 105.751962 
L 370.272387 105.776083 
L 370.646019 106.246411 
L 371.019651 114.145995 
L 371.393283 112.817913 
L 371.766915 117.33448 
L 372.140546 115.143042 
L 372.514178 113.620049 
L 372.88781 112.686066 
L 373.261442 110.52653 
L 373.635073 107.291411 
L 374.008705 110.8564 
L 374.382337 111.96206 
L 374.755969 113.62582 
L 375.876864 106.661767 
L 376.250496 118.741846 
L 376.624127 122.477808 
L 376.997759 119.794671 
L 377.371391 127.568035 
L 377.745023 125.156187 
L 378.118654 120.497033 
L 378.492286 122.169319 
L 378.865918 118.574514 
L 379.23955 116.600019 
L 379.613182 113.80574 
L 379.986813 122.455871 
L 380.360445 125.815986 
L 380.734077 122.380533 
L 381.107709 138.18818 
L 381.48134 135.649964 
L 381.854972 147.740851 
L 382.228604 148.691798 
L 382.975867 161.53657 
L 383.349499 158.367074 
L 383.723131 154.108557 
L 384.096763 172.833756 
L 385.59129 157.844869 
L 385.964922 156.243003 
L 386.338553 166.095076 
L 386.712185 172.066133 
L 387.459449 165.7546 
L 387.83308 166.587936 
L 388.206712 164.077301 
L 388.580344 159.481852 
L 388.953976 166.74576 
L 389.327607 168.271086 
L 389.701239 163.972441 
L 390.074871 169.520504 
L 390.448503 169.507297 
L 391.94303 156.823442 
L 392.690293 151.254559 
L 393.063925 153.119681 
L 393.437557 153.803203 
L 393.811189 150.241516 
L 394.18482 153.113366 
L 394.558452 149.1459 
L 394.932084 147.684179 
L 395.305716 145.711532 
L 396.052979 139.425665 
L 396.800243 149.19845 
L 397.547506 142.86728 
L 397.921138 144.5341 
L 398.29477 143.057183 
L 398.668402 142.1306 
L 399.042033 151.212375 
L 399.415665 147.423265 
L 399.789297 147.448277 
L 400.162929 146.447028 
L 400.53656 151.432228 
L 400.910192 150.127849 
L 401.283824 159.011535 
L 401.657456 156.219232 
L 402.031087 158.122978 
L 402.404719 153.35542 
L 402.778351 154.345812 
L 403.151983 150.244267 
L 403.525614 162.179124 
L 403.899246 157.981014 
L 404.272878 178.443966 
L 404.64651 179.572053 
L 405.020142 177.621921 
L 405.393773 178.769375 
L 405.767405 174.239337 
L 406.141037 173.975805 
L 406.514669 170.780228 
L 406.8883 171.339865 
L 407.261932 167.258613 
L 408.009196 163.023051 
L 408.382827 163.956844 
L 408.756459 159.755566 
L 409.130091 157.190269 
L 409.503723 156.831573 
L 409.877354 152.457458 
L 410.250986 149.927539 
L 410.624618 160.808095 
L 410.99825 166.956457 
L 411.371882 162.43466 
L 411.371882 162.43466 
" clip-path="url(#p563e13658d)" style="fill: none; stroke: #1f77b4; stroke-width: 1.5; stroke-linecap: square"/>
   </g>
   <g id="patch_3">
    <path d="M 38.01875 246.7 
L 38.01875 25.8 
" style="fill: none; stroke: #000000; stroke-width: 0.8; stroke-linejoin: miter; stroke-linecap: square"/>
   </g>
   <g id="patch_4">
    <path d="M 416.025733 246.7 
L 416.025733 25.8 
" style="fill: none; stroke: #000000; stroke-width: 0.8; stroke-linejoin: miter; stroke-linecap: square"/>
   </g>
   <g id="patch_5">
    <path d="M 38.01875 246.7 
L 416.025733 246.7 
" style="fill: none; stroke: #000000; stroke-width: 0.8; stroke-linejoin: miter; stroke-linecap: square"/>
   </g>
   <g id="patch_6">
    <path d="M 38.01875 25.8 
L 416.025733 25.8 
" style="fill: none; stroke: #000000; stroke-width: 0.8; stroke-linejoin: miter; stroke-linecap: square"/>
   </g>
   <g id="text_17">
    <!-- Retraso en paquetes recibidos -->
    <g transform="translate(135.893492 19.8)scale(0.12 -0.12)">
     <defs>
      <path id="DejaVuSans-52" d="M 2841 2188 
Q 3044 2119 3236 1894 
Q 3428 1669 3622 1275 
L 4263 0 
L 3584 0 
L 2988 1197 
Q 2756 1666 2539 1819 
Q 2322 1972 1947 1972 
L 1259 1972 
L 1259 0 
L 628 0 
L 628 4666 
L 2053 4666 
Q 2853 4666 3247 4331 
Q 3641 3997 3641 3322 
Q 3641 2881 3436 2590 
Q 3231 2300 2841 2188 
z
M 1259 4147 
L 1259 2491 
L 2053 2491 
Q 2509 2491 2742 2702 
Q 2975 2913 2975 3322 
Q 2975 3731 2742 3939 
Q 2509 4147 2053 4147 
L 1259 4147 
z
" transform="scale(0.015625)"/>
      <path id="DejaVuSans-74" d="M 1172 4494 
L 1172 3500 
L 2356 3500 
L 2356 3053 
L 1172 3053 
L 1172 1153 
Q 1172 725 1289 603 
Q 1406 481 1766 481 
L 2356 481 
L 2356 0 
L 1766 0 
Q 1100 0 847 248 
Q 594 497 594 1153 
L 594 3053 
L 172 3053 
L 172 3500 
L 594 3500 
L 594 4494 
L 1172 4494 
z
" transform="scale(0.015625)"/>
      <path id="DejaVuSans-72" d="M 2631 2963 
Q 2534 3019 2420 3045 
Q 2306 3072 2169 3072 
Q 1681 3072 1420 2755 
Q 1159 2438 1159 1844 
L 1159 0 
L 581 0 
L 581 3500 
L 1159 3500 
L 1159 2956 
Q 1341 3275 1631 3429 
Q 1922 3584 2338 3584 
Q 2397 3584 2469 3576 
Q 2541 3569 2628 3553 
L 2631 2963 
z
" transform="scale(0.015625)"/>
      <path id="DejaVuSans-61" d="M 2194 1759 
Q 1497 1759 1228 1600 
Q 959 1441 959 1056 
Q 959 750 1161 570 
Q 1363 391 1709 391 
Q 2188 391 2477 730 
Q 2766 1069 2766 1631 
L 2766 1759 
L 2194 1759 
z
M 3341 1997 
L 3341 0 
L 2766 0 
L 2766 531 
Q 2569 213 2275 61 
Q 1981 -91 1556 -91 
Q 1019 -91 701 211 
Q 384 513 384 1019 
Q 384 1609 779 1909 
Q 1175 2209 1959 2209 
L 2766 2209 
L 2766 2266 
Q 2766 2663 2505 2880 
Q 2244 3097 1772 3097 
Q 1472 3097 1187 3025 
Q 903 2953 641 2809 
L 641 3341 
Q 956 3463 1253 3523 
Q 1550 3584 1831 3584 
Q 2591 3584 2966 3190 
Q 3341 2797 3341 1997 
z
" transform="scale(0.015625)"/>
      <path id="DejaVuSans-73" d="M 2834 3397 
L 2834 2853 
Q 2591 2978 2328 3040 
Q 2066 3103 1784 3103 
Q 1356 3103 1142 2972 
Q 928 2841 928 2578 
Q 928 2378 1081 2264 
Q 1234 2150 1697 2047 
L 1894 2003 
Q 2506 1872 2764 1633 
Q 3022 1394 3022 966 
Q 3022 478 2636 193 
Q 2250 -91 1575 -91 
Q 1294 -91 989 -36 
Q 684 19 347 128 
L 347 722 
Q 666 556 975 473 
Q 1284 391 1588 391 
Q 1994 391 2212 530 
Q 2431 669 2431 922 
Q 2431 1156 2273 1281 
Q 2116 1406 1581 1522 
L 1381 1569 
Q 847 1681 609 1914 
Q 372 2147 372 2553 
Q 372 3047 722 3315 
Q 1072 3584 1716 3584 
Q 2034 3584 2315 3537 
Q 2597 3491 2834 3397 
z
" transform="scale(0.015625)"/>
      <path id="DejaVuSans-20" transform="scale(0.015625)"/>
      <path id="DejaVuSans-6e" d="M 3513 2113 
L 3513 0 
L 2938 0 
L 2938 2094 
Q 2938 2591 2744 2837 
Q 2550 3084 2163 3084 
Q 1697 3084 1428 2787 
Q 1159 2491 1159 1978 
L 1159 0 
L 581 0 
L 581 3500 
L 1159 3500 
L 1159 2956 
Q 1366 3272 1645 3428 
Q 1925 3584 2291 3584 
Q 2894 3584 3203 3211 
Q 3513 2838 3513 2113 
z
" transform="scale(0.015625)"/>
      <path id="DejaVuSans-71" d="M 947 1747 
Q 947 1113 1208 752 
Q 1469 391 1925 391 
Q 2381 391 2643 752 
Q 2906 1113 2906 1747 
Q 2906 2381 2643 2742 
Q 2381 3103 1925 3103 
Q 1469 3103 1208 2742 
Q 947 2381 947 1747 
z
M 2906 525 
Q 2725 213 2448 61 
Q 2172 -91 1784 -91 
Q 1150 -91 751 415 
Q 353 922 353 1747 
Q 353 2572 751 3078 
Q 1150 3584 1784 3584 
Q 2172 3584 2448 3432 
Q 2725 3281 2906 2969 
L 2906 3500 
L 3481 3500 
L 3481 -1331 
L 2906 -1331 
L 2906 525 
z
" transform="scale(0.015625)"/>
      <path id="DejaVuSans-75" d="M 544 1381 
L 544 3500 
L 1119 3500 
L 1119 1403 
Q 1119 906 1312 657 
Q 1506 409 1894 409 
Q 2359 409 2629 706 
Q 2900 1003 2900 1516 
L 2900 3500 
L 3475 3500 
L 3475 0 
L 2900 0 
L 2900 538 
Q 2691 219 2414 64 
Q 2138 -91 1772 -91 
Q 1169 -91 856 284 
Q 544 659 544 1381 
z
M 1991 3584 
L 1991 3584 
z
" transform="scale(0.015625)"/>
      <path id="DejaVuSans-63" d="M 3122 3366 
L 3122 2828 
Q 2878 2963 2633 3030 
Q 2388 3097 2138 3097 
Q 1578 3097 1268 2742 
Q 959 2388 959 1747 
Q 959 1106 1268 751 
Q 1578 397 2138 397 
Q 2388 397 2633 464 
Q 2878 531 3122 666 
L 3122 134 
Q 2881 22 2623 -34 
Q 2366 -91 2075 -91 
Q 1284 -91 818 406 
Q 353 903 353 1747 
Q 353 2603 823 3093 
Q 1294 3584 2113 3584 
Q 2378 3584 2631 3529 
Q 2884 3475 3122 3366 
z
" transform="scale(0.015625)"/>
      <path id="DejaVuSans-62" d="M 3116 1747 
Q 3116 2381 2855 2742 
Q 2594 3103 2138 3103 
Q 1681 3103 1420 2742 
Q 1159 2381 1159 1747 
Q 1159 1113 1420 752 
Q 1681 391 2138 391 
Q 2594 391 2855 752 
Q 3116 1113 3116 1747 
z
M 1159 2969 
Q 1341 3281 1617 3432 
Q 1894 3584 2278 3584 
Q 2916 3584 3314 3078 
Q 3713 2572 3713 1747 
Q 3713 922 3314 415 
Q 2916 -91 2278 -91 
Q 1894 -91 1617 61 
Q 1341 213 1159 525 
L 1159 0 
L 581 0 
L 581 4863 
L 1159 4863 
L 1159 2969 
z
" transform="scale(0.015625)"/>
      <path id="DejaVuSans-64" d="M 2906 2969 
L 2906 4863 
L 3481 4863 
L 3481 0 
L 2906 0 
L 2906 525 
Q 2725 213 2448 61 
Q 2172 -91 1784 -91 
Q 1150 -91 751 415 
Q 353 922 353 1747 
Q 353 2572 751 3078 
Q 1150 3584 1784 3584 
Q 2172 3584 2448 3432 
Q 2725 3281 2906 2969 
z
M 947 1747 
Q 947 1113 1208 752 
Q 1469 391 1925 391 
Q 2381 391 2643 752 
Q 2906 1113 2906 1747 
Q 2906 2381 2643 2742 
Q 2381 3103 1925 3103 
Q 1469 3103 1208 2742 
Q 947 2381 947 1747 
z
" transform="scale(0.015625)"/>
     </defs>
     <use xlink:href="#DejaVuSans-52"/>
     <use xlink:href="#DejaVuSans-65" x="64.982422"/>
     <use xlink:href="#DejaVuSans-74" x="126.505859"/>
     <use xlink:href="#DejaVuSans-72" x="165.714844"/>
     <use xlink:href="#DejaVuSans-61" x="206.828125"/>
     <use xlink:href="#DejaVuSans-73" x="268.107422"/>
     <use xlink:href="#DejaVuSans-6f" x="320.207031"/>
     <use xlink:href="#DejaVuSans-20" x="381.388672"/>
     <use xlink:href="#DejaVuSans-65" x="413.175781"/>
     <use xlink:href="#DejaVuSans-6e" x="474.699219"/>
     <use xlink:href="#DejaVuSans-20" x="538.078125"/>
     <use xlink:href="#DejaVuSans-70" x="569.865234"/>
     <use xlink:href="#DejaVuSans-61" x="633.341797"/>
     <use xlink:href="#DejaVuSans-71" x="694.621094"/>
     <use xlink:href="#DejaVuSans-75" x="758.097656"/>
     <use xlink:href="#DejaVuSans-65" x="821.476562"/>
     <use xlink:href="#DejaVuSans-74" x="883"/>
     <use xlink:href="#DejaVuSans-65" x="922.208984"/>
     <use xlink:href="#DejaVuSans-73" x="983.732422"/>
     <use xlink:href="#DejaVuSans-20" x="1035.832031"/>
     <use xlink:href="#DejaVuSans-72" x="1067.619141"/>
     <use xlink:href="#DejaVuSans-65" x="1106.482422"/>
     <use xlink:href="#DejaVuSans-63" x="1168.005859"/>
     <use xlink:href="#DejaVuSans-69" x="1222.986328"/>
     <use xlink:href="#DejaVuSans-62" x="1250.769531"/>
     <use xlink:href="#DejaVuSans-69" x="1314.246094"/>
     <use xlink:href="#DejaVuSans-64" x="1342.029297"/>
     <use xlink:href="#DejaVuSans-6f" x="1405.505859"/>
     <use xlink:href="#DejaVuSans-73" x="1466.6875"/>
    </g>
   </g>
  </g>
 </g>
 <defs>
  <clipPath id="p563e13658d">
   <rect x="38.01875" y="25.8" width="378.006983" height="220.9"/>
  </clipPath>
 </defs>
</svg>
