<?xml version="1.0" encoding="utf-8" standalone="no"?>
<!DOCTYPE svg PUBLIC "-//W3C//DTD SVG 1.1//EN"
  "http://www.w3.org/Graphics/SVG/1.1/DTD/svg11.dtd">
<svg xmlns:xlink="http://www.w3.org/1999/xlink" width="432pt" height="288pt" viewBox="0 0 432 288" xmlns="http://www.w3.org/2000/svg" version="1.1">
 <metadata>
  <rdf:RDF xmlns:dc="http://purl.org/dc/elements/1.1/" xmlns:cc="http://creativecommons.org/ns#" xmlns:rdf="http://www.w3.org/1999/02/22-rdf-syntax-ns#">
   <cc:Work>
    <dc:type rdf:resource="http://purl.org/dc/dcmitype/StillImage"/>
    <dc:date>2022-05-19T10:30:09.824594</dc:date>
    <dc:format>image/svg+xml</dc:format>
    <dc:creator>
     <cc:Agent>
      <dc:title>omnetpp.scave 6.0.0; Matplotlib 3.5.1 w/ backend GTK3Agg; Pandas 1.4.2; Python 3.8.10; Linux-5.4.0-109-generic-x86_64-with-glibc2.29</dc:title>
     </cc:Agent>
    </dc:creator>
   </cc:Work>
  </rdf:RDF>
 </metadata>
 <defs>
  <style type="text/css">*{stroke-linejoin: round; stroke-linecap: butt}</style>
 </defs>
 <g id="figure_1">
  <g id="patch_1">
   <path d="M 0 288 
L 432 288 
L 432 0 
L 0 0 
z
" style="fill: #ffffff"/>
  </g>
  <g id="axes_1">
   <g id="patch_2">
    <path d="M 40.20625 260.45 
L 416.148391 260.45 
L 416.148391 25.8 
L 40.20625 25.8 
z
" style="fill: #ffffff"/>
   </g>
   <g id="matplotlib.axis_1">
    <g id="xtick_1">
     <g id="line2d_1">
      <path d="M 40.20625 260.45 
L 40.20625 25.8 
" clip-path="url(#p24f82cdfad)" style="fill: none; stroke: #b0b0b0; stroke-width: 0.8; stroke-linecap: square"/>
     </g>
     <g id="line2d_2">
      <defs>
       <path id="m569d1d4938" d="M 0 0 
L 0 3.5 
" style="stroke: #000000; stroke-width: 0.8"/>
      </defs>
      <g>
       <use xlink:href="#m569d1d4938" x="40.20625" y="260.45" style="stroke: #000000; stroke-width: 0.8"/>
      </g>
     </g>
     <g id="text_1">
      <!-- 0 -->
      <g transform="translate(37.025 275.048437)scale(0.1 -0.1)">
       <defs>
        <path id="DejaVuSans-30" d="M 2034 4250 
Q 1547 4250 1301 3770 
Q 1056 3291 1056 2328 
Q 1056 1369 1301 889 
Q 1547 409 2034 409 
Q 2525 409 2770 889 
Q 3016 1369 3016 2328 
Q 3016 3291 2770 3770 
Q 2525 4250 2034 4250 
z
M 2034 4750 
Q 2819 4750 3233 4129 
Q 3647 3509 3647 2328 
Q 3647 1150 3233 529 
Q 2819 -91 2034 -91 
Q 1250 -91 836 529 
Q 422 1150 422 2328 
Q 422 3509 836 4129 
Q 1250 4750 2034 4750 
z
" transform="scale(0.015625)"/>
       </defs>
       <use xlink:href="#DejaVuSans-30"/>
      </g>
     </g>
    </g>
    <g id="xtick_2">
     <g id="line2d_3">
      <path d="M 86.646103 260.45 
L 86.646103 25.8 
" clip-path="url(#p24f82cdfad)" style="fill: none; stroke: #b0b0b0; stroke-width: 0.8; stroke-linecap: square"/>
     </g>
     <g id="line2d_4">
      <g>
       <use xlink:href="#m569d1d4938" x="86.646103" y="260.45" style="stroke: #000000; stroke-width: 0.8"/>
      </g>
     </g>
     <g id="text_2">
      <!-- 25 -->
      <g transform="translate(80.283603 275.048437)scale(0.1 -0.1)">
       <defs>
        <path id="DejaVuSans-32" d="M 1228 531 
L 3431 531 
L 3431 0 
L 469 0 
L 469 531 
Q 828 903 1448 1529 
Q 2069 2156 2228 2338 
Q 2531 2678 2651 2914 
Q 2772 3150 2772 3378 
Q 2772 3750 2511 3984 
Q 2250 4219 1831 4219 
Q 1534 4219 1204 4116 
Q 875 4013 500 3803 
L 500 4441 
Q 881 4594 1212 4672 
Q 1544 4750 1819 4750 
Q 2544 4750 2975 4387 
Q 3406 4025 3406 3419 
Q 3406 3131 3298 2873 
Q 3191 2616 2906 2266 
Q 2828 2175 2409 1742 
Q 1991 1309 1228 531 
z
" transform="scale(0.015625)"/>
        <path id="DejaVuSans-35" d="M 691 4666 
L 3169 4666 
L 3169 4134 
L 1269 4134 
L 1269 2991 
Q 1406 3038 1543 3061 
Q 1681 3084 1819 3084 
Q 2600 3084 3056 2656 
Q 3513 2228 3513 1497 
Q 3513 744 3044 326 
Q 2575 -91 1722 -91 
Q 1428 -91 1123 -41 
Q 819 9 494 109 
L 494 744 
Q 775 591 1075 516 
Q 1375 441 1709 441 
Q 2250 441 2565 725 
Q 2881 1009 2881 1497 
Q 2881 1984 2565 2268 
Q 2250 2553 1709 2553 
Q 1456 2553 1204 2497 
Q 953 2441 691 2322 
L 691 4666 
z
" transform="scale(0.015625)"/>
       </defs>
       <use xlink:href="#DejaVuSans-32"/>
       <use xlink:href="#DejaVuSans-35" x="63.623047"/>
      </g>
     </g>
    </g>
    <g id="xtick_3">
     <g id="line2d_5">
      <path d="M 133.085955 260.45 
L 133.085955 25.8 
" clip-path="url(#p24f82cdfad)" style="fill: none; stroke: #b0b0b0; stroke-width: 0.8; stroke-linecap: square"/>
     </g>
     <g id="line2d_6">
      <g>
       <use xlink:href="#m569d1d4938" x="133.085955" y="260.45" style="stroke: #000000; stroke-width: 0.8"/>
      </g>
     </g>
     <g id="text_3">
      <!-- 50 -->
      <g transform="translate(126.723455 275.048437)scale(0.1 -0.1)">
       <use xlink:href="#DejaVuSans-35"/>
       <use xlink:href="#DejaVuSans-30" x="63.623047"/>
      </g>
     </g>
    </g>
    <g id="xtick_4">
     <g id="line2d_7">
      <path d="M 179.525808 260.45 
L 179.525808 25.8 
" clip-path="url(#p24f82cdfad)" style="fill: none; stroke: #b0b0b0; stroke-width: 0.8; stroke-linecap: square"/>
     </g>
     <g id="line2d_8">
      <g>
       <use xlink:href="#m569d1d4938" x="179.525808" y="260.45" style="stroke: #000000; stroke-width: 0.8"/>
      </g>
     </g>
     <g id="text_4">
      <!-- 75 -->
      <g transform="translate(173.163308 275.048437)scale(0.1 -0.1)">
       <defs>
        <path id="DejaVuSans-37" d="M 525 4666 
L 3525 4666 
L 3525 4397 
L 1831 0 
L 1172 0 
L 2766 4134 
L 525 4134 
L 525 4666 
z
" transform="scale(0.015625)"/>
       </defs>
       <use xlink:href="#DejaVuSans-37"/>
       <use xlink:href="#DejaVuSans-35" x="63.623047"/>
      </g>
     </g>
    </g>
    <g id="xtick_5">
     <g id="line2d_9">
      <path d="M 225.96566 260.45 
L 225.96566 25.8 
" clip-path="url(#p24f82cdfad)" style="fill: none; stroke: #b0b0b0; stroke-width: 0.8; stroke-linecap: square"/>
     </g>
     <g id="line2d_10">
      <g>
       <use xlink:href="#m569d1d4938" x="225.96566" y="260.45" style="stroke: #000000; stroke-width: 0.8"/>
      </g>
     </g>
     <g id="text_5">
      <!-- 100 -->
      <g transform="translate(216.42191 275.048437)scale(0.1 -0.1)">
       <defs>
        <path id="DejaVuSans-31" d="M 794 531 
L 1825 531 
L 1825 4091 
L 703 3866 
L 703 4441 
L 1819 4666 
L 2450 4666 
L 2450 531 
L 3481 531 
L 3481 0 
L 794 0 
L 794 531 
z
" transform="scale(0.015625)"/>
       </defs>
       <use xlink:href="#DejaVuSans-31"/>
       <use xlink:href="#DejaVuSans-30" x="63.623047"/>
       <use xlink:href="#DejaVuSans-30" x="127.246094"/>
      </g>
     </g>
    </g>
    <g id="xtick_6">
     <g id="line2d_11">
      <path d="M 272.405513 260.45 
L 272.405513 25.8 
" clip-path="url(#p24f82cdfad)" style="fill: none; stroke: #b0b0b0; stroke-width: 0.8; stroke-linecap: square"/>
     </g>
     <g id="line2d_12">
      <g>
       <use xlink:href="#m569d1d4938" x="272.405513" y="260.45" style="stroke: #000000; stroke-width: 0.8"/>
      </g>
     </g>
     <g id="text_6">
      <!-- 125 -->
      <g transform="translate(262.861763 275.048437)scale(0.1 -0.1)">
       <use xlink:href="#DejaVuSans-31"/>
       <use xlink:href="#DejaVuSans-32" x="63.623047"/>
       <use xlink:href="#DejaVuSans-35" x="127.246094"/>
      </g>
     </g>
    </g>
    <g id="xtick_7">
     <g id="line2d_13">
      <path d="M 318.845365 260.45 
L 318.845365 25.8 
" clip-path="url(#p24f82cdfad)" style="fill: none; stroke: #b0b0b0; stroke-width: 0.8; stroke-linecap: square"/>
     </g>
     <g id="line2d_14">
      <g>
       <use xlink:href="#m569d1d4938" x="318.845365" y="260.45" style="stroke: #000000; stroke-width: 0.8"/>
      </g>
     </g>
     <g id="text_7">
      <!-- 150 -->
      <g transform="translate(309.301615 275.048437)scale(0.1 -0.1)">
       <use xlink:href="#DejaVuSans-31"/>
       <use xlink:href="#DejaVuSans-35" x="63.623047"/>
       <use xlink:href="#DejaVuSans-30" x="127.246094"/>
      </g>
     </g>
    </g>
    <g id="xtick_8">
     <g id="line2d_15">
      <path d="M 365.285218 260.45 
L 365.285218 25.8 
" clip-path="url(#p24f82cdfad)" style="fill: none; stroke: #b0b0b0; stroke-width: 0.8; stroke-linecap: square"/>
     </g>
     <g id="line2d_16">
      <g>
       <use xlink:href="#m569d1d4938" x="365.285218" y="260.45" style="stroke: #000000; stroke-width: 0.8"/>
      </g>
     </g>
     <g id="text_8">
      <!-- 175 -->
      <g transform="translate(355.741468 275.048437)scale(0.1 -0.1)">
       <use xlink:href="#DejaVuSans-31"/>
       <use xlink:href="#DejaVuSans-37" x="63.623047"/>
       <use xlink:href="#DejaVuSans-35" x="127.246094"/>
      </g>
     </g>
    </g>
    <g id="xtick_9">
     <g id="line2d_17">
      <path d="M 411.72507 260.45 
L 411.72507 25.8 
" clip-path="url(#p24f82cdfad)" style="fill: none; stroke: #b0b0b0; stroke-width: 0.8; stroke-linecap: square"/>
     </g>
     <g id="line2d_18">
      <g>
       <use xlink:href="#m569d1d4938" x="411.72507" y="260.45" style="stroke: #000000; stroke-width: 0.8"/>
      </g>
     </g>
     <g id="text_9">
      <!-- 200 -->
      <g transform="translate(402.18132 275.048437)scale(0.1 -0.1)">
       <use xlink:href="#DejaVuSans-32"/>
       <use xlink:href="#DejaVuSans-30" x="63.623047"/>
       <use xlink:href="#DejaVuSans-30" x="127.246094"/>
      </g>
     </g>
    </g>
   </g>
   <g id="matplotlib.axis_2">
    <g id="ytick_1">
     <g id="line2d_19">
      <path d="M 40.20625 260.45 
L 416.148391 260.45 
" clip-path="url(#p24f82cdfad)" style="fill: none; stroke: #b0b0b0; stroke-width: 0.8; stroke-linecap: square"/>
     </g>
     <g id="line2d_20">
      <defs>
       <path id="md3c4de1a4d" d="M 0 0 
L -3.5 0 
" style="stroke: #000000; stroke-width: 0.8"/>
      </defs>
      <g>
       <use xlink:href="#md3c4de1a4d" x="40.20625" y="260.45" style="stroke: #000000; stroke-width: 0.8"/>
      </g>
     </g>
     <g id="text_10">
      <!-- 0.00 -->
      <g transform="translate(10.940625 264.249219)scale(0.1 -0.1)">
       <defs>
        <path id="DejaVuSans-2e" d="M 684 794 
L 1344 794 
L 1344 0 
L 684 0 
L 684 794 
z
" transform="scale(0.015625)"/>
       </defs>
       <use xlink:href="#DejaVuSans-30"/>
       <use xlink:href="#DejaVuSans-2e" x="63.623047"/>
       <use xlink:href="#DejaVuSans-30" x="95.410156"/>
       <use xlink:href="#DejaVuSans-30" x="159.033203"/>
      </g>
     </g>
    </g>
    <g id="ytick_2">
     <g id="line2d_21">
      <path d="M 40.20625 228.278914 
L 416.148391 228.278914 
" clip-path="url(#p24f82cdfad)" style="fill: none; stroke: #b0b0b0; stroke-width: 0.8; stroke-linecap: square"/>
     </g>
     <g id="line2d_22">
      <g>
       <use xlink:href="#md3c4de1a4d" x="40.20625" y="228.278914" style="stroke: #000000; stroke-width: 0.8"/>
      </g>
     </g>
     <g id="text_11">
      <!-- 0.25 -->
      <g transform="translate(10.940625 232.078133)scale(0.1 -0.1)">
       <use xlink:href="#DejaVuSans-30"/>
       <use xlink:href="#DejaVuSans-2e" x="63.623047"/>
       <use xlink:href="#DejaVuSans-32" x="95.410156"/>
       <use xlink:href="#DejaVuSans-35" x="159.033203"/>
      </g>
     </g>
    </g>
    <g id="ytick_3">
     <g id="line2d_23">
      <path d="M 40.20625 196.107829 
L 416.148391 196.107829 
" clip-path="url(#p24f82cdfad)" style="fill: none; stroke: #b0b0b0; stroke-width: 0.8; stroke-linecap: square"/>
     </g>
     <g id="line2d_24">
      <g>
       <use xlink:href="#md3c4de1a4d" x="40.20625" y="196.107829" style="stroke: #000000; stroke-width: 0.8"/>
      </g>
     </g>
     <g id="text_12">
      <!-- 0.50 -->
      <g transform="translate(10.940625 199.907048)scale(0.1 -0.1)">
       <use xlink:href="#DejaVuSans-30"/>
       <use xlink:href="#DejaVuSans-2e" x="63.623047"/>
       <use xlink:href="#DejaVuSans-35" x="95.410156"/>
       <use xlink:href="#DejaVuSans-30" x="159.033203"/>
      </g>
     </g>
    </g>
    <g id="ytick_4">
     <g id="line2d_25">
      <path d="M 40.20625 163.936743 
L 416.148391 163.936743 
" clip-path="url(#p24f82cdfad)" style="fill: none; stroke: #b0b0b0; stroke-width: 0.8; stroke-linecap: square"/>
     </g>
     <g id="line2d_26">
      <g>
       <use xlink:href="#md3c4de1a4d" x="40.20625" y="163.936743" style="stroke: #000000; stroke-width: 0.8"/>
      </g>
     </g>
     <g id="text_13">
      <!-- 0.75 -->
      <g transform="translate(10.940625 167.735962)scale(0.1 -0.1)">
       <use xlink:href="#DejaVuSans-30"/>
       <use xlink:href="#DejaVuSans-2e" x="63.623047"/>
       <use xlink:href="#DejaVuSans-37" x="95.410156"/>
       <use xlink:href="#DejaVuSans-35" x="159.033203"/>
      </g>
     </g>
    </g>
    <g id="ytick_5">
     <g id="line2d_27">
      <path d="M 40.20625 131.765658 
L 416.148391 131.765658 
" clip-path="url(#p24f82cdfad)" style="fill: none; stroke: #b0b0b0; stroke-width: 0.8; stroke-linecap: square"/>
     </g>
     <g id="line2d_28">
      <g>
       <use xlink:href="#md3c4de1a4d" x="40.20625" y="131.765658" style="stroke: #000000; stroke-width: 0.8"/>
      </g>
     </g>
     <g id="text_14">
      <!-- 1.00 -->
      <g transform="translate(10.940625 135.564877)scale(0.1 -0.1)">
       <use xlink:href="#DejaVuSans-31"/>
       <use xlink:href="#DejaVuSans-2e" x="63.623047"/>
       <use xlink:href="#DejaVuSans-30" x="95.410156"/>
       <use xlink:href="#DejaVuSans-30" x="159.033203"/>
      </g>
     </g>
    </g>
    <g id="ytick_6">
     <g id="line2d_29">
      <path d="M 40.20625 99.594572 
L 416.148391 99.594572 
" clip-path="url(#p24f82cdfad)" style="fill: none; stroke: #b0b0b0; stroke-width: 0.8; stroke-linecap: square"/>
     </g>
     <g id="line2d_30">
      <g>
       <use xlink:href="#md3c4de1a4d" x="40.20625" y="99.594572" style="stroke: #000000; stroke-width: 0.8"/>
      </g>
     </g>
     <g id="text_15">
      <!-- 1.25 -->
      <g transform="translate(10.940625 103.393791)scale(0.1 -0.1)">
       <use xlink:href="#DejaVuSans-31"/>
       <use xlink:href="#DejaVuSans-2e" x="63.623047"/>
       <use xlink:href="#DejaVuSans-32" x="95.410156"/>
       <use xlink:href="#DejaVuSans-35" x="159.033203"/>
      </g>
     </g>
    </g>
    <g id="ytick_7">
     <g id="line2d_31">
      <path d="M 40.20625 67.423487 
L 416.148391 67.423487 
" clip-path="url(#p24f82cdfad)" style="fill: none; stroke: #b0b0b0; stroke-width: 0.8; stroke-linecap: square"/>
     </g>
     <g id="line2d_32">
      <g>
       <use xlink:href="#md3c4de1a4d" x="40.20625" y="67.423487" style="stroke: #000000; stroke-width: 0.8"/>
      </g>
     </g>
     <g id="text_16">
      <!-- 1.50 -->
      <g transform="translate(10.940625 71.222706)scale(0.1 -0.1)">
       <use xlink:href="#DejaVuSans-31"/>
       <use xlink:href="#DejaVuSans-2e" x="63.623047"/>
       <use xlink:href="#DejaVuSans-35" x="95.410156"/>
       <use xlink:href="#DejaVuSans-30" x="159.033203"/>
      </g>
     </g>
    </g>
    <g id="ytick_8">
     <g id="line2d_33">
      <path d="M 40.20625 35.252401 
L 416.148391 35.252401 
" clip-path="url(#p24f82cdfad)" style="fill: none; stroke: #b0b0b0; stroke-width: 0.8; stroke-linecap: square"/>
     </g>
     <g id="line2d_34">
      <g>
       <use xlink:href="#md3c4de1a4d" x="40.20625" y="35.252401" style="stroke: #000000; stroke-width: 0.8"/>
      </g>
     </g>
     <g id="text_17">
      <!-- 1.75 -->
      <g transform="translate(10.940625 39.05162)scale(0.1 -0.1)">
       <use xlink:href="#DejaVuSans-31"/>
       <use xlink:href="#DejaVuSans-2e" x="63.623047"/>
       <use xlink:href="#DejaVuSans-37" x="95.410156"/>
       <use xlink:href="#DejaVuSans-35" x="159.033203"/>
      </g>
     </g>
    </g>
   </g>
   <g id="line2d_35">
    <path d="M 41.393183 208.950526 
L 46.717992 208.950526 
L 47.089511 204.487051 
L 47.569544 208.950526 
L 48.148088 208.950526 
L 48.519606 201.942177 
L 48.891125 198.423402 
L 49.262644 186.320349 
L 50.175093 208.950526 
L 50.546612 185.467616 
L 52.054958 208.950526 
L 52.426477 195.503893 
L 52.797996 188.43663 
L 53.169514 187.771835 
L 53.738106 208.950526 
L 55.089442 208.950526 
L 55.46096 208.456992 
L 55.921634 208.950526 
L 56.293153 202.472763 
L 57.647595 208.950526 
L 58.65536 208.950526 
L 59.026878 186.058303 
L 59.398397 176.210528 
L 59.769916 153.992959 
L 60.141435 168.583672 
L 60.512954 143.63534 
L 60.884472 135.627885 
L 61.255991 178.897518 
L 62.577689 208.950526 
L 63.41683 208.950526 
L 63.788349 189.051971 
L 64.63813 208.950526 
L 67.918333 208.950526 
L 68.289852 207.987035 
L 69.170509 208.950526 
L 70.069957 208.950526 
L 70.441476 207.107617 
L 70.824453 208.950526 
L 72.302619 208.950526 
L 72.674138 188.073078 
L 73.083423 208.950526 
L 74.13877 208.950526 
L 74.510289 189.187044 
L 76.267565 208.950526 
L 77.470835 208.950526 
L 77.842354 187.535373 
L 78.213873 182.474182 
L 78.585392 181.510131 
L 79.328429 149.859586 
L 80.071467 207.389658 
L 80.442986 205.166601 
L 80.814505 188.851299 
L 81.186024 195.555806 
L 82.30058 139.810421 
L 82.672099 151.187954 
L 83.043618 131.710414 
L 83.415137 142.532639 
L 83.786655 126.502763 
L 84.158174 137.809534 
L 84.529693 130.933559 
L 85.007296 208.950526 
L 86.94331 208.950526 
L 87.314828 206.289826 
L 87.686347 197.752334 
L 88.057866 208.670991 
L 88.429385 205.11412 
L 89.67043 208.950526 
L 90.336995 208.950526 
L 91.080033 163.911387 
L 92.380473 208.950526 
L 94.20185 208.950526 
L 94.944888 173.831261 
L 95.316406 165.212139 
L 95.687925 144.80391 
L 96.059444 172.691455 
L 96.430963 161.584528 
L 96.802482 171.984599 
L 97.545519 153.140628 
L 97.917038 160.003151 
L 98.288557 135.77896 
L 98.660076 132.329871 
L 99.031595 145.424957 
L 100.59698 208.950526 
L 102.376339 208.950526 
L 102.747858 187.368944 
L 103.119377 202.469784 
L 103.490896 185.778197 
L 103.862415 198.956216 
L 104.233933 180.010544 
L 106.803244 208.950526 
L 107.879158 208.950526 
L 108.250677 194.489515 
L 108.622196 189.408981 
L 108.993714 187.913987 
L 109.365233 187.030479 
L 109.736752 172.113789 
L 110.108271 184.089054 
L 110.47979 165.035823 
L 110.851308 155.22369 
L 111.222827 134.00192 
L 111.965865 167.121686 
L 112.337384 156.114897 
L 112.708903 136.11911 
L 113.080421 168.546355 
L 113.45194 151.259438 
L 114.283849 208.950526 
L 114.655368 200.972636 
L 115.145559 208.950526 
L 116.104263 208.950526 
L 116.8473 161.947649 
L 117.218819 173.854886 
L 117.726349 208.950526 
L 118.350397 208.950526 
L 118.721916 187.114136 
L 120.398185 208.950526 
L 123.660688 208.950526 
L 124.032207 207.625204 
L 124.410183 208.950526 
L 126.506623 208.950526 
L 126.878142 185.426781 
L 127.249661 195.534106 
L 127.62118 192.958369 
L 128.139447 208.950526 
L 128.882485 159.799533 
L 129.254004 156.564861 
L 129.625522 143.66079 
L 130.851734 208.950526 
L 131.223253 188.157328 
L 131.594772 179.616013 
L 131.966291 167.436404 
L 132.33781 167.010958 
L 132.709328 146.153361 
L 133.080847 165.463999 
L 133.452366 154.501416 
L 133.850169 208.950526 
L 134.221688 203.863031 
L 135.543624 208.950526 
L 136.286662 169.471181 
L 136.658181 189.257281 
L 137.401218 202.213518 
L 138.42033 208.950526 
L 138.791849 195.120106 
L 139.163368 196.84118 
L 140.786536 208.950526 
L 141.158054 187.022083 
L 142.257168 208.950526 
L 142.735254 208.950526 
L 143.106773 186.563459 
L 144.259982 208.950526 
L 145.00302 184.844113 
L 145.374539 159.470163 
L 145.746058 176.231784 
L 146.303229 208.950526 
L 146.674748 188.669773 
L 147.046267 203.151162 
L 147.664685 208.950526 
L 148.690791 208.950526 
L 149.433829 182.538267 
L 149.805348 164.613198 
L 150.176867 158.456944 
L 150.548386 166.81354 
L 150.919904 172.146118 
L 151.662942 128.415243 
L 152.034461 170.845343 
L 152.40598 162.933735 
L 153.149017 117.754518 
L 153.520536 135.743333 
L 153.892055 142.55394 
L 154.263574 128.966997 
L 155.006611 175.754045 
L 155.37813 163.156365 
L 156.542245 208.950526 
L 156.913764 205.13777 
L 157.285282 190.442827 
L 157.804452 208.950526 
L 158.282816 208.950526 
L 158.654334 202.684003 
L 159.063526 208.950526 
L 161.365984 208.950526 
L 161.737503 192.958408 
L 162.74465 208.950526 
L 165.080698 208.950526 
L 165.823736 203.378626 
L 166.787343 208.950526 
L 169.598948 208.950526 
L 169.970467 187.982441 
L 170.341985 175.874022 
L 170.713504 206.378075 
L 171.613112 208.950526 
L 172.356149 197.461894 
L 172.817403 208.950526 
L 174.004126 208.950526 
L 174.375645 194.309226 
L 174.747164 202.179657 
L 175.118683 190.9483 
L 176.04851 208.950526 
L 182.95012 208.950526 
L 183.321638 193.330457 
L 183.693157 207.46503 
L 184.436195 196.669962 
L 184.807714 208.166116 
L 185.315998 208.950526 
L 185.687517 208.079515 
L 186.059036 183.090809 
L 186.430555 181.873238 
L 186.802074 169.992864 
L 187.173592 192.861751 
L 187.545111 208.792366 
L 188.288149 183.657651 
L 188.659668 176.591684 
L 189.031187 188.007596 
L 189.499574 208.950526 
L 189.871093 204.831124 
L 190.986063 208.950526 
L 191.7291 167.28721 
L 192.100619 155.225272 
L 192.472138 133.230136 
L 192.843657 140.071837 
L 193.215175 131.206568 
L 193.586694 139.972381 
L 193.958213 145.218274 
L 194.329732 152.453413 
L 194.701251 128.036978 
L 195.07277 143.183487 
L 196.058573 208.950526 
L 196.646975 208.950526 
L 197.018493 198.158932 
L 197.390012 194.219023 
L 197.761531 178.136626 
L 198.580984 208.950526 
L 198.952503 189.092999 
L 199.324022 181.044034 
L 199.695541 159.257284 
L 200.067059 155.620467 
L 201.603137 208.950526 
L 202.843033 208.950526 
L 203.214552 194.855701 
L 203.925526 208.950526 
L 205.032891 208.950526 
L 205.40441 206.148045 
L 206.147448 162.800511 
L 206.885201 208.950526 
L 207.256719 199.981703 
L 207.825303 208.950526 
L 208.196822 207.668674 
L 211.948523 208.950526 
L 212.973766 208.950526 
L 213.345284 189.462702 
L 214.373675 208.950526 
L 215.50267 208.950526 
L 216.245707 165.80042 
L 216.617226 167.470148 
L 216.988745 178.638653 
L 217.731783 139.314866 
L 218.617837 208.950526 
L 220.651181 208.950526 
L 221.0227 203.674579 
L 221.415702 208.950526 
L 221.787221 189.03499 
L 222.15874 183.483678 
L 222.901777 136.08134 
L 224.106782 208.950526 
L 224.772974 208.950526 
L 225.144493 201.252857 
L 225.516012 198.845137 
L 225.88753 194.142643 
L 226.387277 208.950526 
L 226.758796 185.217758 
L 227.537881 208.950526 
L 227.9094 200.775667 
L 229.858874 208.950526 
L 230.230393 183.860983 
L 230.94743 208.950526 
L 231.318949 193.34096 
L 231.690468 168.058987 
L 232.061987 198.214647 
L 232.433506 189.705504 
L 233.76323 208.950526 
L 235.265423 208.950526 
L 235.636942 190.482842 
L 236.008461 180.752217 
L 236.37998 183.433912 
L 236.751499 183.657585 
L 237.123017 160.077597 
L 237.494536 150.32251 
L 238.237574 115.100398 
L 238.980612 71.587632 
L 239.35213 106.785864 
L 239.723649 105.084554 
L 240.095168 89.13435 
L 240.466687 143.543289 
L 240.838206 134.161832 
L 241.366104 208.950526 
L 244.540427 208.950526 
L 244.911945 184.462802 
L 245.411557 208.950526 
L 245.783076 190.160965 
L 246.154595 191.185284 
L 246.526114 202.952778 
L 246.897633 179.211144 
L 247.269151 186.710493 
L 247.64067 207.33747 
L 248.012189 192.08843 
L 250.487815 208.950526 
L 252.004363 208.950526 
L 252.375881 195.218664 
L 252.7474 206.22747 
L 253.341493 208.950526 
L 258.743206 208.950526 
L 259.114724 197.647659 
L 259.486243 203.103105 
L 259.857762 196.972524 
L 261.715356 113.794853 
L 262.086875 199.591622 
L 262.458394 206.398204 
L 263.171283 208.950526 
L 263.542802 206.441657 
L 263.914321 206.734204 
L 265.84087 208.950526 
L 266.212389 193.174319 
L 266.620586 208.950526 
L 266.992105 194.54461 
L 268.106662 125.325596 
L 268.47818 121.589795 
L 268.849699 121.684265 
L 269.221218 110.373032 
L 269.592737 166.814117 
L 269.964256 187.089291 
L 271.736634 208.950526 
L 272.108153 201.528642 
L 272.536805 208.950526 
L 272.908324 190.856262 
L 273.279843 195.307803 
L 273.651362 170.535618 
L 274.171465 208.950526 
L 274.542984 185.901269 
L 274.969236 208.950526 
L 275.603162 208.950526 
L 275.974681 208.354617 
L 276.346199 205.95779 
L 276.932921 208.950526 
L 282.431516 208.950526 
L 282.803035 207.686718 
L 283.174554 191.3885 
L 283.546073 189.15581 
L 283.917591 205.417822 
L 285.186742 208.950526 
L 285.558261 195.011628 
L 286.672818 134.355542 
L 287.576556 208.950526 
L 287.948074 198.103248 
L 289.099893 208.950526 
L 289.471412 201.884664 
L 289.947785 208.950526 
L 290.442371 208.950526 
L 290.81389 198.369058 
L 291.652064 208.950526 
L 292.613298 208.950526 
L 292.984816 183.215795 
L 293.761779 208.950526 
L 294.504817 184.243311 
L 294.876336 179.900375 
L 295.348478 208.950526 
L 296.55541 208.950526 
L 296.926929 191.141171 
L 297.304618 208.950526 
L 299.006092 208.950526 
L 299.377611 206.726009 
L 299.993677 208.950526 
L 300.365196 208.712579 
L 300.736714 192.345932 
L 301.363402 208.950526 
L 303.004297 208.950526 
L 303.375816 193.275749 
L 303.880978 208.950526 
L 305.063939 208.950526 
L 306.178495 166.84389 
L 307.330055 208.950526 
L 307.736995 208.950526 
L 308.108514 207.851122 
L 308.480032 183.117904 
L 308.851551 205.380969 
L 309.594589 169.326177 
L 309.966108 164.931801 
L 310.337627 189.805418 
L 310.709145 182.161947 
L 311.080664 196.543926 
L 311.452183 194.851572 
L 312.566739 147.501923 
L 312.938258 155.883868 
L 313.309777 193.771479 
L 314.201898 208.950526 
L 314.967977 208.950526 
L 315.339496 188.040579 
L 315.711015 205.675243 
L 316.082534 208.063258 
L 316.454052 194.842194 
L 317.19709 156.258902 
L 317.940128 200.557664 
L 318.311647 194.288675 
L 318.683165 192.56573 
L 319.054684 199.001681 
L 319.933822 208.950526 
L 321.419898 135.669419 
L 321.791416 135.780368 
L 322.162935 115.191155 
L 322.534454 106.419595 
L 322.905973 130.113896 
L 323.339823 208.950526 
L 323.711342 184.407577 
L 324.164863 208.950526 
L 325.700335 208.950526 
L 326.071854 186.964845 
L 327.05879 208.950526 
L 327.430309 192.679604 
L 327.801827 170.305589 
L 328.173346 197.972072 
L 328.544865 203.250385 
L 329.195752 208.950526 
L 329.685162 208.950526 
L 330.056681 185.016052 
L 331.532642 208.950526 
L 332.27568 179.874638 
L 333.018717 152.092305 
L 333.390236 170.014887 
L 334.504793 100.037608 
L 334.876311 105.615084 
L 335.24783 182.28104 
L 335.619349 156.902546 
L 335.990868 173.956171 
L 336.483237 208.950526 
L 339.656268 208.950526 
L 340.027786 195.988534 
L 340.518154 208.950526 
L 341.010164 208.950526 
L 341.753202 167.766423 
L 342.124721 169.757677 
L 342.49624 169.685913 
L 342.867758 177.480288 
L 344.527804 208.950526 
L 347.076337 208.950526 
L 347.447856 199.147219 
L 347.819375 182.923308 
L 349.259791 208.950526 
L 349.63131 206.657859 
L 350.002828 191.096464 
L 350.921452 208.950526 
L 359.289944 208.950526 
L 359.661463 196.600174 
L 360.520518 208.950526 
L 361.57383 208.950526 
L 361.945349 191.556118 
L 362.316868 202.958011 
L 363.0575 208.950526 
L 363.429019 183.728083 
L 365.104373 208.950526 
L 365.475892 199.680202 
L 366.447015 208.950526 
L 366.818534 189.403404 
L 367.381238 208.950526 
L 371.956386 208.950526 
L 372.327905 208.337886 
L 373.099627 208.950526 
L 373.483003 208.950526 
L 373.854522 183.370253 
L 374.226041 197.018016 
L 374.59756 183.403132 
L 374.969079 175.416646 
L 375.340597 170.081415 
L 375.712116 150.028214 
L 376.083635 145.872006 
L 376.455154 186.792341 
L 376.826673 174.706176 
L 377.198191 157.097009 
L 377.56971 151.153644 
L 377.941229 153.059922 
L 378.684267 116.35625 
L 379.547573 208.950526 
L 379.919092 187.188783 
L 380.29061 181.56832 
L 380.999805 208.950526 
L 383.480294 208.950526 
L 383.851812 199.466232 
L 385.520465 208.950526 
L 387.708162 208.950526 
L 388.079681 203.672985 
L 388.83241 208.950526 
L 389.946967 184.255604 
L 390.318485 161.783953 
L 390.690004 149.917734 
L 391.061523 144.37019 
L 391.433042 176.256838 
L 391.804561 160.722211 
L 392.560957 208.950526 
L 392.932476 188.700456 
L 393.303995 178.154867 
L 393.675514 154.537715 
L 394.592457 208.950526 
L 395.3131 208.950526 
L 396.056137 158.462763 
L 396.427656 162.159491 
L 396.799175 193.25751 
L 397.170694 181.543717 
L 397.542213 161.942512 
L 398.058658 208.950526 
L 398.430177 186.412581 
L 398.801696 171.813833 
L 399.173215 149.70102 
L 400.496462 208.950526 
L 400.867981 194.081978 
L 401.611018 185.520052 
L 402.050123 208.950526 
L 404.588356 208.950526 
L 404.959875 201.608258 
L 405.577482 208.950526 
L 405.949001 187.133412 
L 406.692039 159.249905 
L 407.063558 138.955144 
L 407.435076 147.821336 
L 407.806595 124.283678 
L 408.178114 123.531185 
L 408.549633 111.652126 
L 408.921152 111.753898 
L 409.292671 97.751944 
L 410.035708 93.473326 
L 410.407227 96.442712 
L 410.778746 115.091958 
L 411.150265 111.87834 
L 411.521783 132.062335 
L 411.521783 132.062335 
" clip-path="url(#p24f82cdfad)" style="fill: none; stroke: #1f77b4; stroke-width: 1.5; stroke-linecap: square"/>
   </g>
   <g id="patch_3">
    <path d="M 40.20625 260.45 
L 40.20625 25.8 
" style="fill: none; stroke: #000000; stroke-width: 0.8; stroke-linejoin: miter; stroke-linecap: square"/>
   </g>
   <g id="patch_4">
    <path d="M 416.148391 260.45 
L 416.148391 25.8 
" style="fill: none; stroke: #000000; stroke-width: 0.8; stroke-linejoin: miter; stroke-linecap: square"/>
   </g>
   <g id="patch_5">
    <path d="M 40.20625 260.45 
L 416.148391 260.45 
" style="fill: none; stroke: #000000; stroke-width: 0.8; stroke-linejoin: miter; stroke-linecap: square"/>
   </g>
   <g id="patch_6">
    <path d="M 40.20625 25.8 
L 416.148391 25.8 
" style="fill: none; stroke: #000000; stroke-width: 0.8; stroke-linejoin: miter; stroke-linecap: square"/>
   </g>
   <g id="text_18">
    <!-- Resived_packet_delay -->
    <g transform="translate(162.25982 19.8)scale(0.12 -0.12)">
     <defs>
      <path id="DejaVuSans-52" d="M 2841 2188 
Q 3044 2119 3236 1894 
Q 3428 1669 3622 1275 
L 4263 0 
L 3584 0 
L 2988 1197 
Q 2756 1666 2539 1819 
Q 2322 1972 1947 1972 
L 1259 1972 
L 1259 0 
L 628 0 
L 628 4666 
L 2053 4666 
Q 2853 4666 3247 4331 
Q 3641 3997 3641 3322 
Q 3641 2881 3436 2590 
Q 3231 2300 2841 2188 
z
M 1259 4147 
L 1259 2491 
L 2053 2491 
Q 2509 2491 2742 2702 
Q 2975 2913 2975 3322 
Q 2975 3731 2742 3939 
Q 2509 4147 2053 4147 
L 1259 4147 
z
" transform="scale(0.015625)"/>
      <path id="DejaVuSans-65" d="M 3597 1894 
L 3597 1613 
L 953 1613 
Q 991 1019 1311 708 
Q 1631 397 2203 397 
Q 2534 397 2845 478 
Q 3156 559 3463 722 
L 3463 178 
Q 3153 47 2828 -22 
Q 2503 -91 2169 -91 
Q 1331 -91 842 396 
Q 353 884 353 1716 
Q 353 2575 817 3079 
Q 1281 3584 2069 3584 
Q 2775 3584 3186 3129 
Q 3597 2675 3597 1894 
z
M 3022 2063 
Q 3016 2534 2758 2815 
Q 2500 3097 2075 3097 
Q 1594 3097 1305 2825 
Q 1016 2553 972 2059 
L 3022 2063 
z
" transform="scale(0.015625)"/>
      <path id="DejaVuSans-73" d="M 2834 3397 
L 2834 2853 
Q 2591 2978 2328 3040 
Q 2066 3103 1784 3103 
Q 1356 3103 1142 2972 
Q 928 2841 928 2578 
Q 928 2378 1081 2264 
Q 1234 2150 1697 2047 
L 1894 2003 
Q 2506 1872 2764 1633 
Q 3022 1394 3022 966 
Q 3022 478 2636 193 
Q 2250 -91 1575 -91 
Q 1294 -91 989 -36 
Q 684 19 347 128 
L 347 722 
Q 666 556 975 473 
Q 1284 391 1588 391 
Q 1994 391 2212 530 
Q 2431 669 2431 922 
Q 2431 1156 2273 1281 
Q 2116 1406 1581 1522 
L 1381 1569 
Q 847 1681 609 1914 
Q 372 2147 372 2553 
Q 372 3047 722 3315 
Q 1072 3584 1716 3584 
Q 2034 3584 2315 3537 
Q 2597 3491 2834 3397 
z
" transform="scale(0.015625)"/>
      <path id="DejaVuSans-69" d="M 603 3500 
L 1178 3500 
L 1178 0 
L 603 0 
L 603 3500 
z
M 603 4863 
L 1178 4863 
L 1178 4134 
L 603 4134 
L 603 4863 
z
" transform="scale(0.015625)"/>
      <path id="DejaVuSans-76" d="M 191 3500 
L 800 3500 
L 1894 563 
L 2988 3500 
L 3597 3500 
L 2284 0 
L 1503 0 
L 191 3500 
z
" transform="scale(0.015625)"/>
      <path id="DejaVuSans-64" d="M 2906 2969 
L 2906 4863 
L 3481 4863 
L 3481 0 
L 2906 0 
L 2906 525 
Q 2725 213 2448 61 
Q 2172 -91 1784 -91 
Q 1150 -91 751 415 
Q 353 922 353 1747 
Q 353 2572 751 3078 
Q 1150 3584 1784 3584 
Q 2172 3584 2448 3432 
Q 2725 3281 2906 2969 
z
M 947 1747 
Q 947 1113 1208 752 
Q 1469 391 1925 391 
Q 2381 391 2643 752 
Q 2906 1113 2906 1747 
Q 2906 2381 2643 2742 
Q 2381 3103 1925 3103 
Q 1469 3103 1208 2742 
Q 947 2381 947 1747 
z
" transform="scale(0.015625)"/>
      <path id="DejaVuSans-5f" d="M 3263 -1063 
L 3263 -1509 
L -63 -1509 
L -63 -1063 
L 3263 -1063 
z
" transform="scale(0.015625)"/>
      <path id="DejaVuSans-70" d="M 1159 525 
L 1159 -1331 
L 581 -1331 
L 581 3500 
L 1159 3500 
L 1159 2969 
Q 1341 3281 1617 3432 
Q 1894 3584 2278 3584 
Q 2916 3584 3314 3078 
Q 3713 2572 3713 1747 
Q 3713 922 3314 415 
Q 2916 -91 2278 -91 
Q 1894 -91 1617 61 
Q 1341 213 1159 525 
z
M 3116 1747 
Q 3116 2381 2855 2742 
Q 2594 3103 2138 3103 
Q 1681 3103 1420 2742 
Q 1159 2381 1159 1747 
Q 1159 1113 1420 752 
Q 1681 391 2138 391 
Q 2594 391 2855 752 
Q 3116 1113 3116 1747 
z
" transform="scale(0.015625)"/>
      <path id="DejaVuSans-61" d="M 2194 1759 
Q 1497 1759 1228 1600 
Q 959 1441 959 1056 
Q 959 750 1161 570 
Q 1363 391 1709 391 
Q 2188 391 2477 730 
Q 2766 1069 2766 1631 
L 2766 1759 
L 2194 1759 
z
M 3341 1997 
L 3341 0 
L 2766 0 
L 2766 531 
Q 2569 213 2275 61 
Q 1981 -91 1556 -91 
Q 1019 -91 701 211 
Q 384 513 384 1019 
Q 384 1609 779 1909 
Q 1175 2209 1959 2209 
L 2766 2209 
L 2766 2266 
Q 2766 2663 2505 2880 
Q 2244 3097 1772 3097 
Q 1472 3097 1187 3025 
Q 903 2953 641 2809 
L 641 3341 
Q 956 3463 1253 3523 
Q 1550 3584 1831 3584 
Q 2591 3584 2966 3190 
Q 3341 2797 3341 1997 
z
" transform="scale(0.015625)"/>
      <path id="DejaVuSans-63" d="M 3122 3366 
L 3122 2828 
Q 2878 2963 2633 3030 
Q 2388 3097 2138 3097 
Q 1578 3097 1268 2742 
Q 959 2388 959 1747 
Q 959 1106 1268 751 
Q 1578 397 2138 397 
Q 2388 397 2633 464 
Q 2878 531 3122 666 
L 3122 134 
Q 2881 22 2623 -34 
Q 2366 -91 2075 -91 
Q 1284 -91 818 406 
Q 353 903 353 1747 
Q 353 2603 823 3093 
Q 1294 3584 2113 3584 
Q 2378 3584 2631 3529 
Q 2884 3475 3122 3366 
z
" transform="scale(0.015625)"/>
      <path id="DejaVuSans-6b" d="M 581 4863 
L 1159 4863 
L 1159 1991 
L 2875 3500 
L 3609 3500 
L 1753 1863 
L 3688 0 
L 2938 0 
L 1159 1709 
L 1159 0 
L 581 0 
L 581 4863 
z
" transform="scale(0.015625)"/>
      <path id="DejaVuSans-74" d="M 1172 4494 
L 1172 3500 
L 2356 3500 
L 2356 3053 
L 1172 3053 
L 1172 1153 
Q 1172 725 1289 603 
Q 1406 481 1766 481 
L 2356 481 
L 2356 0 
L 1766 0 
Q 1100 0 847 248 
Q 594 497 594 1153 
L 594 3053 
L 172 3053 
L 172 3500 
L 594 3500 
L 594 4494 
L 1172 4494 
z
" transform="scale(0.015625)"/>
      <path id="DejaVuSans-6c" d="M 603 4863 
L 1178 4863 
L 1178 0 
L 603 0 
L 603 4863 
z
" transform="scale(0.015625)"/>
      <path id="DejaVuSans-79" d="M 2059 -325 
Q 1816 -950 1584 -1140 
Q 1353 -1331 966 -1331 
L 506 -1331 
L 506 -850 
L 844 -850 
Q 1081 -850 1212 -737 
Q 1344 -625 1503 -206 
L 1606 56 
L 191 3500 
L 800 3500 
L 1894 763 
L 2988 3500 
L 3597 3500 
L 2059 -325 
z
" transform="scale(0.015625)"/>
     </defs>
     <use xlink:href="#DejaVuSans-52"/>
     <use xlink:href="#DejaVuSans-65" x="64.982422"/>
     <use xlink:href="#DejaVuSans-73" x="126.505859"/>
     <use xlink:href="#DejaVuSans-69" x="178.605469"/>
     <use xlink:href="#DejaVuSans-76" x="206.388672"/>
     <use xlink:href="#DejaVuSans-65" x="265.568359"/>
     <use xlink:href="#DejaVuSans-64" x="327.091797"/>
     <use xlink:href="#DejaVuSans-5f" x="390.568359"/>
     <use xlink:href="#DejaVuSans-70" x="440.568359"/>
     <use xlink:href="#DejaVuSans-61" x="504.044922"/>
     <use xlink:href="#DejaVuSans-63" x="565.324219"/>
     <use xlink:href="#DejaVuSans-6b" x="620.304688"/>
     <use xlink:href="#DejaVuSans-65" x="674.589844"/>
     <use xlink:href="#DejaVuSans-74" x="736.113281"/>
     <use xlink:href="#DejaVuSans-5f" x="775.322266"/>
     <use xlink:href="#DejaVuSans-64" x="825.322266"/>
     <use xlink:href="#DejaVuSans-65" x="888.798828"/>
     <use xlink:href="#DejaVuSans-6c" x="950.322266"/>
     <use xlink:href="#DejaVuSans-61" x="978.105469"/>
     <use xlink:href="#DejaVuSans-79" x="1039.384766"/>
    </g>
   </g>
   <g id="legend_1">
    <g id="patch_7">
     <path d="M 226.948391 48.478125 
L 409.148391 48.478125 
Q 411.148391 48.478125 411.148391 46.478125 
L 411.148391 32.8 
Q 411.148391 30.8 409.148391 30.8 
L 226.948391 30.8 
Q 224.948391 30.8 224.948391 32.8 
L 224.948391 46.478125 
Q 224.948391 48.478125 226.948391 48.478125 
z
" style="fill: #ffffff; opacity: 0.8; stroke: #cccccc; stroke-linejoin: miter"/>
    </g>
    <g id="line2d_36">
     <path d="M 228.948391 38.898437 
L 238.948391 38.898437 
L 248.948391 38.898437 
" style="fill: none; stroke: #1f77b4; stroke-width: 1.5; stroke-linecap: square"/>
    </g>
    <g id="text_19">
     <!-- Delay in Network.nodeRx.sink -->
     <g transform="translate(256.948391 42.398437)scale(0.1 -0.1)">
      <defs>
       <path id="DejaVuSans-44" d="M 1259 4147 
L 1259 519 
L 2022 519 
Q 2988 519 3436 956 
Q 3884 1394 3884 2338 
Q 3884 3275 3436 3711 
Q 2988 4147 2022 4147 
L 1259 4147 
z
M 628 4666 
L 1925 4666 
Q 3281 4666 3915 4102 
Q 4550 3538 4550 2338 
Q 4550 1131 3912 565 
Q 3275 0 1925 0 
L 628 0 
L 628 4666 
z
" transform="scale(0.015625)"/>
       <path id="DejaVuSans-20" transform="scale(0.015625)"/>
       <path id="DejaVuSans-6e" d="M 3513 2113 
L 3513 0 
L 2938 0 
L 2938 2094 
Q 2938 2591 2744 2837 
Q 2550 3084 2163 3084 
Q 1697 3084 1428 2787 
Q 1159 2491 1159 1978 
L 1159 0 
L 581 0 
L 581 3500 
L 1159 3500 
L 1159 2956 
Q 1366 3272 1645 3428 
Q 1925 3584 2291 3584 
Q 2894 3584 3203 3211 
Q 3513 2838 3513 2113 
z
" transform="scale(0.015625)"/>
       <path id="DejaVuSans-4e" d="M 628 4666 
L 1478 4666 
L 3547 763 
L 3547 4666 
L 4159 4666 
L 4159 0 
L 3309 0 
L 1241 3903 
L 1241 0 
L 628 0 
L 628 4666 
z
" transform="scale(0.015625)"/>
       <path id="DejaVuSans-77" d="M 269 3500 
L 844 3500 
L 1563 769 
L 2278 3500 
L 2956 3500 
L 3675 769 
L 4391 3500 
L 4966 3500 
L 4050 0 
L 3372 0 
L 2619 2869 
L 1863 0 
L 1184 0 
L 269 3500 
z
" transform="scale(0.015625)"/>
       <path id="DejaVuSans-6f" d="M 1959 3097 
Q 1497 3097 1228 2736 
Q 959 2375 959 1747 
Q 959 1119 1226 758 
Q 1494 397 1959 397 
Q 2419 397 2687 759 
Q 2956 1122 2956 1747 
Q 2956 2369 2687 2733 
Q 2419 3097 1959 3097 
z
M 1959 3584 
Q 2709 3584 3137 3096 
Q 3566 2609 3566 1747 
Q 3566 888 3137 398 
Q 2709 -91 1959 -91 
Q 1206 -91 779 398 
Q 353 888 353 1747 
Q 353 2609 779 3096 
Q 1206 3584 1959 3584 
z
" transform="scale(0.015625)"/>
       <path id="DejaVuSans-72" d="M 2631 2963 
Q 2534 3019 2420 3045 
Q 2306 3072 2169 3072 
Q 1681 3072 1420 2755 
Q 1159 2438 1159 1844 
L 1159 0 
L 581 0 
L 581 3500 
L 1159 3500 
L 1159 2956 
Q 1341 3275 1631 3429 
Q 1922 3584 2338 3584 
Q 2397 3584 2469 3576 
Q 2541 3569 2628 3553 
L 2631 2963 
z
" transform="scale(0.015625)"/>
       <path id="DejaVuSans-78" d="M 3513 3500 
L 2247 1797 
L 3578 0 
L 2900 0 
L 1881 1375 
L 863 0 
L 184 0 
L 1544 1831 
L 300 3500 
L 978 3500 
L 1906 2253 
L 2834 3500 
L 3513 3500 
z
" transform="scale(0.015625)"/>
      </defs>
      <use xlink:href="#DejaVuSans-44"/>
      <use xlink:href="#DejaVuSans-65" x="77.001953"/>
      <use xlink:href="#DejaVuSans-6c" x="138.525391"/>
      <use xlink:href="#DejaVuSans-61" x="166.308594"/>
      <use xlink:href="#DejaVuSans-79" x="227.587891"/>
      <use xlink:href="#DejaVuSans-20" x="286.767578"/>
      <use xlink:href="#DejaVuSans-69" x="318.554688"/>
      <use xlink:href="#DejaVuSans-6e" x="346.337891"/>
      <use xlink:href="#DejaVuSans-20" x="409.716797"/>
      <use xlink:href="#DejaVuSans-4e" x="441.503906"/>
      <use xlink:href="#DejaVuSans-65" x="516.308594"/>
      <use xlink:href="#DejaVuSans-74" x="577.832031"/>
      <use xlink:href="#DejaVuSans-77" x="617.041016"/>
      <use xlink:href="#DejaVuSans-6f" x="698.828125"/>
      <use xlink:href="#DejaVuSans-72" x="760.009766"/>
      <use xlink:href="#DejaVuSans-6b" x="801.123047"/>
      <use xlink:href="#DejaVuSans-2e" x="859.033203"/>
      <use xlink:href="#DejaVuSans-6e" x="890.820312"/>
      <use xlink:href="#DejaVuSans-6f" x="954.199219"/>
      <use xlink:href="#DejaVuSans-64" x="1015.380859"/>
      <use xlink:href="#DejaVuSans-65" x="1078.857422"/>
      <use xlink:href="#DejaVuSans-52" x="1140.380859"/>
      <use xlink:href="#DejaVuSans-78" x="1209.863281"/>
      <use xlink:href="#DejaVuSans-2e" x="1269.042969"/>
      <use xlink:href="#DejaVuSans-73" x="1300.830078"/>
      <use xlink:href="#DejaVuSans-69" x="1352.929688"/>
      <use xlink:href="#DejaVuSans-6e" x="1380.712891"/>
      <use xlink:href="#DejaVuSans-6b" x="1444.091797"/>
     </g>
    </g>
   </g>
  </g>
 </g>
 <defs>
  <clipPath id="p24f82cdfad">
   <rect x="40.20625" y="25.8" width="375.942141" height="234.65"/>
  </clipPath>
 </defs>
</svg>
