<?xml version="1.0" encoding="utf-8" standalone="no"?>
<!DOCTYPE svg PUBLIC "-//W3C//DTD SVG 1.1//EN"
  "http://www.w3.org/Graphics/SVG/1.1/DTD/svg11.dtd">
<svg xmlns:xlink="http://www.w3.org/1999/xlink" width="432pt" height="288pt" viewBox="0 0 432 288" xmlns="http://www.w3.org/2000/svg" version="1.1">
 <metadata>
  <rdf:RDF xmlns:dc="http://purl.org/dc/elements/1.1/" xmlns:cc="http://creativecommons.org/ns#" xmlns:rdf="http://www.w3.org/1999/02/22-rdf-syntax-ns#">
   <cc:Work>
    <dc:type rdf:resource="http://purl.org/dc/dcmitype/StillImage"/>
    <dc:date>2022-05-23T10:00:39.432736</dc:date>
    <dc:format>image/svg+xml</dc:format>
    <dc:creator>
     <cc:Agent>
      <dc:title>omnetpp.scave 6.0.0; Matplotlib 3.5.1 w/ backend GTK3Agg; Pandas 1.4.2; Python 3.8.10; Linux-5.4.0-109-generic-x86_64-with-glibc2.29</dc:title>
     </cc:Agent>
    </dc:creator>
   </cc:Work>
  </rdf:RDF>
 </metadata>
 <defs>
  <style type="text/css">*{stroke-linejoin: round; stroke-linecap: butt}</style>
 </defs>
 <g id="figure_1">
  <g id="patch_1">
   <path d="M 0 288 
L 432 288 
L 432 0 
L 0 0 
z
" style="fill: #ffffff"/>
  </g>
  <g id="axes_1">
   <g id="patch_2">
    <path d="M 44.39375 246.7 
L 416.007696 246.7 
L 416.007696 25.8 
L 44.39375 25.8 
z
" style="fill: #ffffff"/>
   </g>
   <g id="matplotlib.axis_1">
    <g id="xtick_1">
     <g id="line2d_1">
      <path d="M 44.39375 246.7 
L 44.39375 25.8 
" clip-path="url(#p650156fe90)" style="fill: none; stroke: #b0b0b0; stroke-width: 0.8; stroke-linecap: square"/>
     </g>
     <g id="line2d_2">
      <defs>
       <path id="m11cb04c905" d="M 0 0 
L 0 3.5 
" style="stroke: #000000; stroke-width: 0.8"/>
      </defs>
      <g>
       <use xlink:href="#m11cb04c905" x="44.39375" y="246.7" style="stroke: #000000; stroke-width: 0.8"/>
      </g>
     </g>
     <g id="text_1">
      <!-- 0 -->
      <g transform="translate(41.2125 261.298437)scale(0.1 -0.1)">
       <defs>
        <path id="DejaVuSans-30" d="M 2034 4250 
Q 1547 4250 1301 3770 
Q 1056 3291 1056 2328 
Q 1056 1369 1301 889 
Q 1547 409 2034 409 
Q 2525 409 2770 889 
Q 3016 1369 3016 2328 
Q 3016 3291 2770 3770 
Q 2525 4250 2034 4250 
z
M 2034 4750 
Q 2819 4750 3233 4129 
Q 3647 3509 3647 2328 
Q 3647 1150 3233 529 
Q 2819 -91 2034 -91 
Q 1250 -91 836 529 
Q 422 1150 422 2328 
Q 422 3509 836 4129 
Q 1250 4750 2034 4750 
z
" transform="scale(0.015625)"/>
       </defs>
       <use xlink:href="#DejaVuSans-30"/>
      </g>
     </g>
    </g>
    <g id="xtick_2">
     <g id="line2d_3">
      <path d="M 90.300968 246.7 
L 90.300968 25.8 
" clip-path="url(#p650156fe90)" style="fill: none; stroke: #b0b0b0; stroke-width: 0.8; stroke-linecap: square"/>
     </g>
     <g id="line2d_4">
      <g>
       <use xlink:href="#m11cb04c905" x="90.300968" y="246.7" style="stroke: #000000; stroke-width: 0.8"/>
      </g>
     </g>
     <g id="text_2">
      <!-- 25 -->
      <g transform="translate(83.938468 261.298437)scale(0.1 -0.1)">
       <defs>
        <path id="DejaVuSans-32" d="M 1228 531 
L 3431 531 
L 3431 0 
L 469 0 
L 469 531 
Q 828 903 1448 1529 
Q 2069 2156 2228 2338 
Q 2531 2678 2651 2914 
Q 2772 3150 2772 3378 
Q 2772 3750 2511 3984 
Q 2250 4219 1831 4219 
Q 1534 4219 1204 4116 
Q 875 4013 500 3803 
L 500 4441 
Q 881 4594 1212 4672 
Q 1544 4750 1819 4750 
Q 2544 4750 2975 4387 
Q 3406 4025 3406 3419 
Q 3406 3131 3298 2873 
Q 3191 2616 2906 2266 
Q 2828 2175 2409 1742 
Q 1991 1309 1228 531 
z
" transform="scale(0.015625)"/>
        <path id="DejaVuSans-35" d="M 691 4666 
L 3169 4666 
L 3169 4134 
L 1269 4134 
L 1269 2991 
Q 1406 3038 1543 3061 
Q 1681 3084 1819 3084 
Q 2600 3084 3056 2656 
Q 3513 2228 3513 1497 
Q 3513 744 3044 326 
Q 2575 -91 1722 -91 
Q 1428 -91 1123 -41 
Q 819 9 494 109 
L 494 744 
Q 775 591 1075 516 
Q 1375 441 1709 441 
Q 2250 441 2565 725 
Q 2881 1009 2881 1497 
Q 2881 1984 2565 2268 
Q 2250 2553 1709 2553 
Q 1456 2553 1204 2497 
Q 953 2441 691 2322 
L 691 4666 
z
" transform="scale(0.015625)"/>
       </defs>
       <use xlink:href="#DejaVuSans-32"/>
       <use xlink:href="#DejaVuSans-35" x="63.623047"/>
      </g>
     </g>
    </g>
    <g id="xtick_3">
     <g id="line2d_5">
      <path d="M 136.208185 246.7 
L 136.208185 25.8 
" clip-path="url(#p650156fe90)" style="fill: none; stroke: #b0b0b0; stroke-width: 0.8; stroke-linecap: square"/>
     </g>
     <g id="line2d_6">
      <g>
       <use xlink:href="#m11cb04c905" x="136.208185" y="246.7" style="stroke: #000000; stroke-width: 0.8"/>
      </g>
     </g>
     <g id="text_3">
      <!-- 50 -->
      <g transform="translate(129.845685 261.298437)scale(0.1 -0.1)">
       <use xlink:href="#DejaVuSans-35"/>
       <use xlink:href="#DejaVuSans-30" x="63.623047"/>
      </g>
     </g>
    </g>
    <g id="xtick_4">
     <g id="line2d_7">
      <path d="M 182.115403 246.7 
L 182.115403 25.8 
" clip-path="url(#p650156fe90)" style="fill: none; stroke: #b0b0b0; stroke-width: 0.8; stroke-linecap: square"/>
     </g>
     <g id="line2d_8">
      <g>
       <use xlink:href="#m11cb04c905" x="182.115403" y="246.7" style="stroke: #000000; stroke-width: 0.8"/>
      </g>
     </g>
     <g id="text_4">
      <!-- 75 -->
      <g transform="translate(175.752903 261.298437)scale(0.1 -0.1)">
       <defs>
        <path id="DejaVuSans-37" d="M 525 4666 
L 3525 4666 
L 3525 4397 
L 1831 0 
L 1172 0 
L 2766 4134 
L 525 4134 
L 525 4666 
z
" transform="scale(0.015625)"/>
       </defs>
       <use xlink:href="#DejaVuSans-37"/>
       <use xlink:href="#DejaVuSans-35" x="63.623047"/>
      </g>
     </g>
    </g>
    <g id="xtick_5">
     <g id="line2d_9">
      <path d="M 228.022621 246.7 
L 228.022621 25.8 
" clip-path="url(#p650156fe90)" style="fill: none; stroke: #b0b0b0; stroke-width: 0.8; stroke-linecap: square"/>
     </g>
     <g id="line2d_10">
      <g>
       <use xlink:href="#m11cb04c905" x="228.022621" y="246.7" style="stroke: #000000; stroke-width: 0.8"/>
      </g>
     </g>
     <g id="text_5">
      <!-- 100 -->
      <g transform="translate(218.478871 261.298437)scale(0.1 -0.1)">
       <defs>
        <path id="DejaVuSans-31" d="M 794 531 
L 1825 531 
L 1825 4091 
L 703 3866 
L 703 4441 
L 1819 4666 
L 2450 4666 
L 2450 531 
L 3481 531 
L 3481 0 
L 794 0 
L 794 531 
z
" transform="scale(0.015625)"/>
       </defs>
       <use xlink:href="#DejaVuSans-31"/>
       <use xlink:href="#DejaVuSans-30" x="63.623047"/>
       <use xlink:href="#DejaVuSans-30" x="127.246094"/>
      </g>
     </g>
    </g>
    <g id="xtick_6">
     <g id="line2d_11">
      <path d="M 273.929838 246.7 
L 273.929838 25.8 
" clip-path="url(#p650156fe90)" style="fill: none; stroke: #b0b0b0; stroke-width: 0.8; stroke-linecap: square"/>
     </g>
     <g id="line2d_12">
      <g>
       <use xlink:href="#m11cb04c905" x="273.929838" y="246.7" style="stroke: #000000; stroke-width: 0.8"/>
      </g>
     </g>
     <g id="text_6">
      <!-- 125 -->
      <g transform="translate(264.386088 261.298437)scale(0.1 -0.1)">
       <use xlink:href="#DejaVuSans-31"/>
       <use xlink:href="#DejaVuSans-32" x="63.623047"/>
       <use xlink:href="#DejaVuSans-35" x="127.246094"/>
      </g>
     </g>
    </g>
    <g id="xtick_7">
     <g id="line2d_13">
      <path d="M 319.837056 246.7 
L 319.837056 25.8 
" clip-path="url(#p650156fe90)" style="fill: none; stroke: #b0b0b0; stroke-width: 0.8; stroke-linecap: square"/>
     </g>
     <g id="line2d_14">
      <g>
       <use xlink:href="#m11cb04c905" x="319.837056" y="246.7" style="stroke: #000000; stroke-width: 0.8"/>
      </g>
     </g>
     <g id="text_7">
      <!-- 150 -->
      <g transform="translate(310.293306 261.298437)scale(0.1 -0.1)">
       <use xlink:href="#DejaVuSans-31"/>
       <use xlink:href="#DejaVuSans-35" x="63.623047"/>
       <use xlink:href="#DejaVuSans-30" x="127.246094"/>
      </g>
     </g>
    </g>
    <g id="xtick_8">
     <g id="line2d_15">
      <path d="M 365.744274 246.7 
L 365.744274 25.8 
" clip-path="url(#p650156fe90)" style="fill: none; stroke: #b0b0b0; stroke-width: 0.8; stroke-linecap: square"/>
     </g>
     <g id="line2d_16">
      <g>
       <use xlink:href="#m11cb04c905" x="365.744274" y="246.7" style="stroke: #000000; stroke-width: 0.8"/>
      </g>
     </g>
     <g id="text_8">
      <!-- 175 -->
      <g transform="translate(356.200524 261.298437)scale(0.1 -0.1)">
       <use xlink:href="#DejaVuSans-31"/>
       <use xlink:href="#DejaVuSans-37" x="63.623047"/>
       <use xlink:href="#DejaVuSans-35" x="127.246094"/>
      </g>
     </g>
    </g>
    <g id="xtick_9">
     <g id="line2d_17">
      <path d="M 411.651491 246.7 
L 411.651491 25.8 
" clip-path="url(#p650156fe90)" style="fill: none; stroke: #b0b0b0; stroke-width: 0.8; stroke-linecap: square"/>
     </g>
     <g id="line2d_18">
      <g>
       <use xlink:href="#m11cb04c905" x="411.651491" y="246.7" style="stroke: #000000; stroke-width: 0.8"/>
      </g>
     </g>
     <g id="text_9">
      <!-- 200 -->
      <g transform="translate(402.107741 261.298437)scale(0.1 -0.1)">
       <use xlink:href="#DejaVuSans-32"/>
       <use xlink:href="#DejaVuSans-30" x="63.623047"/>
       <use xlink:href="#DejaVuSans-30" x="127.246094"/>
      </g>
     </g>
    </g>
    <g id="text_10">
     <!-- Tiempo -->
     <g transform="translate(211.733535 274.976562)scale(0.1 -0.1)">
      <defs>
       <path id="DejaVuSans-54" d="M -19 4666 
L 3928 4666 
L 3928 4134 
L 2272 4134 
L 2272 0 
L 1638 0 
L 1638 4134 
L -19 4134 
L -19 4666 
z
" transform="scale(0.015625)"/>
       <path id="DejaVuSans-69" d="M 603 3500 
L 1178 3500 
L 1178 0 
L 603 0 
L 603 3500 
z
M 603 4863 
L 1178 4863 
L 1178 4134 
L 603 4134 
L 603 4863 
z
" transform="scale(0.015625)"/>
       <path id="DejaVuSans-65" d="M 3597 1894 
L 3597 1613 
L 953 1613 
Q 991 1019 1311 708 
Q 1631 397 2203 397 
Q 2534 397 2845 478 
Q 3156 559 3463 722 
L 3463 178 
Q 3153 47 2828 -22 
Q 2503 -91 2169 -91 
Q 1331 -91 842 396 
Q 353 884 353 1716 
Q 353 2575 817 3079 
Q 1281 3584 2069 3584 
Q 2775 3584 3186 3129 
Q 3597 2675 3597 1894 
z
M 3022 2063 
Q 3016 2534 2758 2815 
Q 2500 3097 2075 3097 
Q 1594 3097 1305 2825 
Q 1016 2553 972 2059 
L 3022 2063 
z
" transform="scale(0.015625)"/>
       <path id="DejaVuSans-6d" d="M 3328 2828 
Q 3544 3216 3844 3400 
Q 4144 3584 4550 3584 
Q 5097 3584 5394 3201 
Q 5691 2819 5691 2113 
L 5691 0 
L 5113 0 
L 5113 2094 
Q 5113 2597 4934 2840 
Q 4756 3084 4391 3084 
Q 3944 3084 3684 2787 
Q 3425 2491 3425 1978 
L 3425 0 
L 2847 0 
L 2847 2094 
Q 2847 2600 2669 2842 
Q 2491 3084 2119 3084 
Q 1678 3084 1418 2786 
Q 1159 2488 1159 1978 
L 1159 0 
L 581 0 
L 581 3500 
L 1159 3500 
L 1159 2956 
Q 1356 3278 1631 3431 
Q 1906 3584 2284 3584 
Q 2666 3584 2933 3390 
Q 3200 3197 3328 2828 
z
" transform="scale(0.015625)"/>
       <path id="DejaVuSans-70" d="M 1159 525 
L 1159 -1331 
L 581 -1331 
L 581 3500 
L 1159 3500 
L 1159 2969 
Q 1341 3281 1617 3432 
Q 1894 3584 2278 3584 
Q 2916 3584 3314 3078 
Q 3713 2572 3713 1747 
Q 3713 922 3314 415 
Q 2916 -91 2278 -91 
Q 1894 -91 1617 61 
Q 1341 213 1159 525 
z
M 3116 1747 
Q 3116 2381 2855 2742 
Q 2594 3103 2138 3103 
Q 1681 3103 1420 2742 
Q 1159 2381 1159 1747 
Q 1159 1113 1420 752 
Q 1681 391 2138 391 
Q 2594 391 2855 752 
Q 3116 1113 3116 1747 
z
" transform="scale(0.015625)"/>
       <path id="DejaVuSans-6f" d="M 1959 3097 
Q 1497 3097 1228 2736 
Q 959 2375 959 1747 
Q 959 1119 1226 758 
Q 1494 397 1959 397 
Q 2419 397 2687 759 
Q 2956 1122 2956 1747 
Q 2956 2369 2687 2733 
Q 2419 3097 1959 3097 
z
M 1959 3584 
Q 2709 3584 3137 3096 
Q 3566 2609 3566 1747 
Q 3566 888 3137 398 
Q 2709 -91 1959 -91 
Q 1206 -91 779 398 
Q 353 888 353 1747 
Q 353 2609 779 3096 
Q 1206 3584 1959 3584 
z
" transform="scale(0.015625)"/>
      </defs>
      <use xlink:href="#DejaVuSans-54"/>
      <use xlink:href="#DejaVuSans-69" x="57.958984"/>
      <use xlink:href="#DejaVuSans-65" x="85.742188"/>
      <use xlink:href="#DejaVuSans-6d" x="147.265625"/>
      <use xlink:href="#DejaVuSans-70" x="244.677734"/>
      <use xlink:href="#DejaVuSans-6f" x="308.154297"/>
     </g>
    </g>
   </g>
   <g id="matplotlib.axis_2">
    <g id="ytick_1">
     <g id="line2d_19">
      <path d="M 44.39375 246.7 
L 416.007696 246.7 
" clip-path="url(#p650156fe90)" style="fill: none; stroke: #b0b0b0; stroke-width: 0.8; stroke-linecap: square"/>
     </g>
     <g id="line2d_20">
      <defs>
       <path id="m73eeae4eb4" d="M 0 0 
L -3.5 0 
" style="stroke: #000000; stroke-width: 0.8"/>
      </defs>
      <g>
       <use xlink:href="#m73eeae4eb4" x="44.39375" y="246.7" style="stroke: #000000; stroke-width: 0.8"/>
      </g>
     </g>
     <g id="text_11">
      <!-- 0 -->
      <g transform="translate(31.03125 250.499219)scale(0.1 -0.1)">
       <use xlink:href="#DejaVuSans-30"/>
      </g>
     </g>
    </g>
    <g id="ytick_2">
     <g id="line2d_21">
      <path d="M 44.39375 208.530461 
L 416.007696 208.530461 
" clip-path="url(#p650156fe90)" style="fill: none; stroke: #b0b0b0; stroke-width: 0.8; stroke-linecap: square"/>
     </g>
     <g id="line2d_22">
      <g>
       <use xlink:href="#m73eeae4eb4" x="44.39375" y="208.530461" style="stroke: #000000; stroke-width: 0.8"/>
      </g>
     </g>
     <g id="text_12">
      <!-- 10 -->
      <g transform="translate(24.66875 212.32968)scale(0.1 -0.1)">
       <use xlink:href="#DejaVuSans-31"/>
       <use xlink:href="#DejaVuSans-30" x="63.623047"/>
      </g>
     </g>
    </g>
    <g id="ytick_3">
     <g id="line2d_23">
      <path d="M 44.39375 170.360923 
L 416.007696 170.360923 
" clip-path="url(#p650156fe90)" style="fill: none; stroke: #b0b0b0; stroke-width: 0.8; stroke-linecap: square"/>
     </g>
     <g id="line2d_24">
      <g>
       <use xlink:href="#m73eeae4eb4" x="44.39375" y="170.360923" style="stroke: #000000; stroke-width: 0.8"/>
      </g>
     </g>
     <g id="text_13">
      <!-- 20 -->
      <g transform="translate(24.66875 174.160142)scale(0.1 -0.1)">
       <use xlink:href="#DejaVuSans-32"/>
       <use xlink:href="#DejaVuSans-30" x="63.623047"/>
      </g>
     </g>
    </g>
    <g id="ytick_4">
     <g id="line2d_25">
      <path d="M 44.39375 132.191384 
L 416.007696 132.191384 
" clip-path="url(#p650156fe90)" style="fill: none; stroke: #b0b0b0; stroke-width: 0.8; stroke-linecap: square"/>
     </g>
     <g id="line2d_26">
      <g>
       <use xlink:href="#m73eeae4eb4" x="44.39375" y="132.191384" style="stroke: #000000; stroke-width: 0.8"/>
      </g>
     </g>
     <g id="text_14">
      <!-- 30 -->
      <g transform="translate(24.66875 135.990603)scale(0.1 -0.1)">
       <defs>
        <path id="DejaVuSans-33" d="M 2597 2516 
Q 3050 2419 3304 2112 
Q 3559 1806 3559 1356 
Q 3559 666 3084 287 
Q 2609 -91 1734 -91 
Q 1441 -91 1130 -33 
Q 819 25 488 141 
L 488 750 
Q 750 597 1062 519 
Q 1375 441 1716 441 
Q 2309 441 2620 675 
Q 2931 909 2931 1356 
Q 2931 1769 2642 2001 
Q 2353 2234 1838 2234 
L 1294 2234 
L 1294 2753 
L 1863 2753 
Q 2328 2753 2575 2939 
Q 2822 3125 2822 3475 
Q 2822 3834 2567 4026 
Q 2313 4219 1838 4219 
Q 1578 4219 1281 4162 
Q 984 4106 628 3988 
L 628 4550 
Q 988 4650 1302 4700 
Q 1616 4750 1894 4750 
Q 2613 4750 3031 4423 
Q 3450 4097 3450 3541 
Q 3450 3153 3228 2886 
Q 3006 2619 2597 2516 
z
" transform="scale(0.015625)"/>
       </defs>
       <use xlink:href="#DejaVuSans-33"/>
       <use xlink:href="#DejaVuSans-30" x="63.623047"/>
      </g>
     </g>
    </g>
    <g id="ytick_5">
     <g id="line2d_27">
      <path d="M 44.39375 94.021846 
L 416.007696 94.021846 
" clip-path="url(#p650156fe90)" style="fill: none; stroke: #b0b0b0; stroke-width: 0.8; stroke-linecap: square"/>
     </g>
     <g id="line2d_28">
      <g>
       <use xlink:href="#m73eeae4eb4" x="44.39375" y="94.021846" style="stroke: #000000; stroke-width: 0.8"/>
      </g>
     </g>
     <g id="text_15">
      <!-- 40 -->
      <g transform="translate(24.66875 97.821064)scale(0.1 -0.1)">
       <defs>
        <path id="DejaVuSans-34" d="M 2419 4116 
L 825 1625 
L 2419 1625 
L 2419 4116 
z
M 2253 4666 
L 3047 4666 
L 3047 1625 
L 3713 1625 
L 3713 1100 
L 3047 1100 
L 3047 0 
L 2419 0 
L 2419 1100 
L 313 1100 
L 313 1709 
L 2253 4666 
z
" transform="scale(0.015625)"/>
       </defs>
       <use xlink:href="#DejaVuSans-34"/>
       <use xlink:href="#DejaVuSans-30" x="63.623047"/>
      </g>
     </g>
    </g>
    <g id="ytick_6">
     <g id="line2d_29">
      <path d="M 44.39375 55.852307 
L 416.007696 55.852307 
" clip-path="url(#p650156fe90)" style="fill: none; stroke: #b0b0b0; stroke-width: 0.8; stroke-linecap: square"/>
     </g>
     <g id="line2d_30">
      <g>
       <use xlink:href="#m73eeae4eb4" x="44.39375" y="55.852307" style="stroke: #000000; stroke-width: 0.8"/>
      </g>
     </g>
     <g id="text_16">
      <!-- 50 -->
      <g transform="translate(24.66875 59.651526)scale(0.1 -0.1)">
       <use xlink:href="#DejaVuSans-35"/>
       <use xlink:href="#DejaVuSans-30" x="63.623047"/>
      </g>
     </g>
    </g>
    <g id="text_17">
     <!-- Tiempo -->
     <g transform="translate(18.589063 154.717187)rotate(-90)scale(0.1 -0.1)">
      <use xlink:href="#DejaVuSans-54"/>
      <use xlink:href="#DejaVuSans-69" x="57.958984"/>
      <use xlink:href="#DejaVuSans-65" x="85.742188"/>
      <use xlink:href="#DejaVuSans-6d" x="147.265625"/>
      <use xlink:href="#DejaVuSans-70" x="244.677734"/>
      <use xlink:href="#DejaVuSans-6f" x="308.154297"/>
     </g>
    </g>
   </g>
   <g id="line2d_31">
    <path d="M 45.274778 245.172455 
L 46.009294 244.468033 
L 46.376552 244.414444 
L 46.743809 244.003444 
L 47.111067 243.984949 
L 47.478325 243.522029 
L 47.845582 243.47583 
L 48.580098 242.5323 
L 48.947356 242.16517 
L 50.049129 240.414641 
L 50.416387 240.499959 
L 50.783644 239.758854 
L 51.150902 240.26075 
L 52.252675 238.524572 
L 52.987191 238.234906 
L 54.456222 236.229044 
L 54.82348 236.457395 
L 55.190737 236.38425 
L 56.292511 234.314096 
L 56.659768 233.949429 
L 57.394284 232.605737 
L 57.761541 232.524622 
L 58.128799 232.963637 
L 58.496057 232.774997 
L 58.863315 232.06933 
L 59.59783 232.100326 
L 59.965088 232.804639 
L 60.332346 232.286186 
L 61.066861 231.988174 
L 61.801377 230.978167 
L 62.168634 230.793631 
L 62.535892 230.463823 
L 62.90315 229.748478 
L 63.637665 229.098321 
L 64.004923 228.667891 
L 64.739439 227.494393 
L 65.106696 227.835789 
L 65.473954 227.614927 
L 65.841212 227.133161 
L 66.575727 225.853532 
L 67.310243 224.68897 
L 67.6775 224.004286 
L 68.412016 223.555239 
L 69.513789 221.911454 
L 70.615562 219.833511 
L 70.98282 219.437075 
L 71.350078 218.735571 
L 71.717336 218.333645 
L 72.084593 217.666228 
L 72.451851 217.269092 
L 72.819109 216.692181 
L 73.186367 217.027278 
L 73.553624 217.152822 
L 73.920882 216.826526 
L 75.389913 214.752886 
L 75.757171 214.877453 
L 76.124429 214.570611 
L 76.858944 213.107449 
L 77.226202 213.680074 
L 78.327975 212.637413 
L 79.797006 209.967479 
L 80.164264 209.734279 
L 80.898779 208.709436 
L 82.735068 205.772729 
L 83.102326 205.393275 
L 83.469583 206.330145 
L 83.836841 206.785487 
L 84.204099 206.06318 
L 84.571357 205.703557 
L 84.938614 205.029598 
L 85.305872 204.650963 
L 85.67313 203.954718 
L 86.040388 205.237253 
L 86.774903 204.447395 
L 87.876676 202.712622 
L 89.345707 200.450714 
L 90.44748 198.791341 
L 90.814738 198.435629 
L 91.549254 197.111248 
L 91.916511 196.922933 
L 92.283769 196.243088 
L 92.651027 196.619894 
L 93.018285 196.032088 
L 93.385542 195.683321 
L 93.7528 195.576573 
L 94.487316 194.093996 
L 94.854573 193.702797 
L 95.221831 193.634023 
L 95.589089 193.29806 
L 95.956347 192.573234 
L 96.690862 193.841462 
L 97.05812 193.881663 
L 97.792635 192.868231 
L 98.159893 193.540751 
L 98.527151 192.799241 
L 99.628924 191.605554 
L 100.730697 189.560829 
L 101.097955 188.924318 
L 101.465213 189.646321 
L 102.566986 187.709085 
L 102.934244 187.195951 
L 103.301501 186.480802 
L 103.668759 186.162802 
L 104.036017 185.545486 
L 104.403275 185.592907 
L 104.770532 185.033679 
L 105.13779 185.22602 
L 105.872306 183.817828 
L 106.606821 183.05903 
L 106.974079 182.614774 
L 107.341337 182.616011 
L 108.075852 181.47843 
L 108.44311 180.997784 
L 108.810368 181.183128 
L 109.177625 180.457392 
L 109.544883 180.663623 
L 109.912141 180.227687 
L 110.279398 179.497417 
L 110.646656 179.745235 
L 112.115687 177.386032 
L 112.482945 177.327757 
L 112.850203 176.618312 
L 113.584718 175.970084 
L 113.951976 175.909502 
L 115.788265 172.948253 
L 116.155522 172.492049 
L 116.890038 171.041823 
L 117.257296 170.952407 
L 117.991811 169.603662 
L 118.359069 168.90071 
L 119.093584 168.128051 
L 119.460842 167.484788 
L 120.195357 166.929522 
L 120.562615 166.296041 
L 120.929873 166.782757 
L 121.664388 165.581915 
L 122.031646 165.357105 
L 123.133419 163.929308 
L 123.500677 164.029974 
L 124.60245 162.54911 
L 124.969708 162.633658 
L 125.336966 163.035309 
L 125.704224 162.706902 
L 126.438739 161.633957 
L 126.805997 161.585657 
L 127.173255 162.289124 
L 127.540512 161.984623 
L 128.275028 160.639737 
L 129.009543 160.310616 
L 129.744059 159.179172 
L 130.111317 158.845297 
L 130.478574 158.894726 
L 131.21309 157.809927 
L 131.580347 157.189954 
L 131.947605 157.241418 
L 132.314863 157.762192 
L 133.783894 156.402207 
L 134.518409 155.431811 
L 134.885667 155.861397 
L 135.252925 155.198032 
L 135.620183 154.828855 
L 136.721956 153.309005 
L 137.456471 152.383969 
L 138.190987 151.10701 
L 138.558245 150.48062 
L 139.29276 149.846381 
L 140.394533 148.001228 
L 141.496306 146.820001 
L 141.863564 146.861013 
L 143.332595 144.076648 
L 145.168884 141.722075 
L 145.536142 140.971739 
L 145.903399 140.612567 
L 146.270657 141.174627 
L 146.637915 140.814249 
L 147.739688 138.982807 
L 148.106946 139.085343 
L 149.208719 137.067239 
L 149.575977 136.522354 
L 149.943235 137.338346 
L 150.310492 137.424195 
L 150.67775 136.77591 
L 151.045008 136.638843 
L 152.514039 134.610812 
L 152.881296 133.887454 
L 153.248554 134.085662 
L 153.615812 133.488059 
L 153.98307 133.202783 
L 154.350327 132.681181 
L 154.717585 134.500109 
L 155.084843 134.438936 
L 155.452101 133.73733 
L 155.819358 133.870991 
L 156.186616 133.88088 
L 156.921132 132.436396 
L 158.022905 130.851758 
L 158.390163 130.138821 
L 158.75742 129.951723 
L 159.859194 129.773332 
L 161.328225 127.500544 
L 162.06274 126.014016 
L 162.429998 126.796434 
L 162.797255 126.489336 
L 163.899029 124.816147 
L 164.266286 124.541454 
L 164.633544 123.797878 
L 165.000802 123.802753 
L 165.36806 123.213 
L 165.735317 123.865684 
L 166.102575 123.108694 
L 166.469833 123.084486 
L 167.204348 121.662332 
L 167.571606 121.451557 
L 167.938864 120.858499 
L 168.306122 121.196151 
L 169.040637 120.698264 
L 169.775153 119.401609 
L 170.509668 118.412481 
L 171.611441 116.386819 
L 172.713214 114.250868 
L 173.080472 114.08995 
L 173.814988 112.897573 
L 174.182245 112.926594 
L 174.549503 112.324911 
L 175.284019 112.903853 
L 176.385792 111.783157 
L 176.75305 111.032116 
L 177.120307 110.853037 
L 177.854823 109.659535 
L 178.222081 109.266955 
L 178.589338 108.523291 
L 179.691112 107.123829 
L 180.058369 108.222781 
L 180.425627 108.498116 
L 180.792885 107.85342 
L 181.894658 106.653181 
L 182.261916 106.652102 
L 182.629173 106.228946 
L 183.363689 105.732537 
L 183.730947 106.24322 
L 186.669009 101.230987 
L 187.036266 101.570343 
L 187.403524 101.128713 
L 187.770782 100.878835 
L 188.505297 99.839068 
L 188.872555 100.417138 
L 189.239813 99.752229 
L 189.607071 99.424405 
L 190.708844 97.303111 
L 191.443359 96.016023 
L 192.177875 94.887267 
L 192.545133 94.93638 
L 192.91239 94.627916 
L 193.279648 95.294621 
L 195.115937 92.409305 
L 195.483194 92.38196 
L 195.850452 91.645142 
L 196.584968 91.072397 
L 196.952225 90.557578 
L 197.686741 90.34311 
L 198.053999 90.92483 
L 198.421256 92.174341 
L 198.788514 91.73666 
L 199.155772 92.292723 
L 199.890287 91.046266 
L 200.257545 91.6394 
L 200.624803 91.919386 
L 201.359318 91.461948 
L 201.726576 91.657189 
L 202.093834 91.272272 
L 202.461092 91.438151 
L 202.828349 91.008265 
L 203.195607 91.682142 
L 203.562865 91.431904 
L 203.930122 92.06637 
L 204.664638 91.921706 
L 205.399153 92.929525 
L 206.133669 91.749821 
L 206.500927 92.470204 
L 206.868184 91.96033 
L 207.235442 91.760274 
L 207.6027 91.271594 
L 208.337215 91.058488 
L 208.704473 90.51157 
L 209.071731 90.164282 
L 209.438989 90.79107 
L 209.806246 90.600112 
L 210.173504 90.543615 
L 210.540762 89.958034 
L 211.642535 89.436168 
L 212.009793 89.450566 
L 212.744308 88.395383 
L 213.111566 87.850626 
L 213.478824 88.652591 
L 213.846082 88.454293 
L 214.580597 88.909642 
L 214.947855 88.273091 
L 215.68237 88.418345 
L 216.049628 88.920345 
L 216.784143 87.849254 
L 217.151401 87.55787 
L 217.518659 86.825655 
L 217.885917 87.384343 
L 218.253174 87.04757 
L 218.620432 87.554392 
L 218.98769 88.503623 
L 219.354948 88.541247 
L 219.722205 87.879591 
L 220.089463 87.644106 
L 220.456721 88.660404 
L 220.823979 89.286602 
L 221.191236 89.036722 
L 221.558494 89.611302 
L 221.925752 89.180313 
L 222.29301 90.360931 
L 222.660267 90.938986 
L 223.027525 91.268273 
L 223.394783 91.138995 
L 223.762041 91.637735 
L 224.129298 91.269852 
L 224.496556 91.938404 
L 225.231071 91.432916 
L 225.598329 92.229206 
L 225.965587 92.28382 
L 226.332845 93.628922 
L 226.700102 94.469361 
L 227.06736 93.954377 
L 227.434618 93.725618 
L 227.801876 93.224812 
L 228.169133 92.462969 
L 228.903649 91.62094 
L 229.270907 91.115458 
L 229.638164 91.224486 
L 230.005422 90.676421 
L 230.37268 90.382042 
L 230.739938 89.764685 
L 231.107195 90.54739 
L 231.474453 90.739371 
L 232.208969 92.308915 
L 232.576226 93.043939 
L 232.943484 92.482832 
L 233.310742 92.457098 
L 233.678 92.043025 
L 234.045257 91.449058 
L 234.412515 91.455013 
L 234.779773 91.787409 
L 235.14703 91.228465 
L 235.514288 91.652058 
L 235.881546 91.387618 
L 236.248804 90.919627 
L 236.616061 90.856818 
L 236.983319 90.972593 
L 237.350577 90.350955 
L 237.717835 90.055237 
L 238.085092 90.35214 
L 238.45235 89.912205 
L 238.819608 89.889505 
L 239.554123 90.283099 
L 239.921381 90.054074 
L 240.655897 89.156464 
L 241.390412 88.290933 
L 242.124928 87.630623 
L 242.492185 87.528773 
L 242.859443 87.950294 
L 243.226701 87.53103 
L 243.593959 87.619443 
L 243.961216 87.204106 
L 244.328474 87.068254 
L 245.06299 86.519716 
L 245.430247 87.049254 
L 245.797505 87.295869 
L 246.899278 85.743441 
L 247.266536 85.951338 
L 247.633794 85.4195 
L 248.001051 85.316416 
L 248.368309 85.777644 
L 248.735567 85.511042 
L 249.102825 85.619202 
L 249.470082 85.128346 
L 249.83734 85.462194 
L 250.571856 84.864366 
L 250.939113 85.397253 
L 251.673629 85.110601 
L 252.040887 84.872318 
L 252.775402 84.036832 
L 253.14266 84.11015 
L 253.509918 83.766629 
L 254.244433 82.693956 
L 254.611691 83.192843 
L 254.978949 82.561431 
L 255.346206 83.022587 
L 255.713464 82.595713 
L 256.080722 82.986759 
L 256.815237 83.158131 
L 257.182495 83.686626 
L 257.549753 83.155047 
L 257.91701 83.498393 
L 260.120557 83.13089 
L 260.487815 82.43804 
L 260.855072 82.422826 
L 261.22233 82.981379 
L 261.589588 82.719067 
L 261.956846 83.469891 
L 262.324103 83.762268 
L 262.691361 83.271258 
L 263.058619 84.036921 
L 263.425877 84.359597 
L 263.793134 84.317843 
L 264.160392 86.33269 
L 264.52765 86.248361 
L 264.894908 85.589126 
L 265.262165 85.587344 
L 265.629423 86.15607 
L 265.996681 86.47111 
L 266.363938 86.144678 
L 266.731196 85.992064 
L 267.098454 86.467827 
L 267.465712 85.857335 
L 267.832969 86.361682 
L 268.934743 85.117217 
L 269.302 85.144505 
L 269.669258 84.870215 
L 270.036516 85.553247 
L 270.403774 85.188512 
L 270.771031 85.573868 
L 271.138289 85.62457 
L 272.240062 83.977463 
L 272.60732 84.276202 
L 273.341836 83.32499 
L 273.709093 83.175881 
L 274.076351 82.739626 
L 274.443609 82.099629 
L 274.810867 81.762902 
L 275.178124 81.673726 
L 275.91264 80.643114 
L 276.279898 81.452414 
L 276.647155 81.163917 
L 277.381671 83.00197 
L 277.748928 82.581034 
L 278.116186 82.565312 
L 278.483444 82.81853 
L 278.850702 82.702365 
L 279.217959 83.850066 
L 279.585217 83.255613 
L 279.952475 83.693646 
L 280.319733 83.088006 
L 281.421506 82.4314 
L 281.788764 83.084799 
L 282.156021 83.333708 
L 282.890537 82.802244 
L 283.257795 82.827996 
L 283.625052 83.044191 
L 283.99231 82.711565 
L 284.359568 83.443575 
L 284.726826 83.525764 
L 285.094083 83.944311 
L 285.461341 83.711141 
L 285.828599 83.276372 
L 286.195857 83.733511 
L 286.563114 83.72763 
L 287.664887 86.784354 
L 288.032145 86.204484 
L 288.399403 87.390104 
L 289.133918 86.37111 
L 289.501176 87.606346 
L 289.868434 87.113635 
L 290.235692 86.982696 
L 290.602949 87.19101 
L 290.970207 86.97451 
L 291.337465 87.40659 
L 292.07198 86.416422 
L 292.439238 85.981686 
L 292.806496 86.180647 
L 293.173754 86.126794 
L 293.908269 85.301371 
L 294.642785 85.605008 
L 295.3773 85.269423 
L 295.744558 85.682596 
L 296.111816 85.606385 
L 296.479073 85.893729 
L 296.846331 86.369255 
L 297.580847 85.902818 
L 297.948104 86.506788 
L 298.315362 88.192297 
L 298.68262 88.129636 
L 299.049877 87.755425 
L 299.417135 87.54965 
L 299.784393 87.075822 
L 300.151651 86.973293 
L 300.886166 86.075591 
L 301.253424 86.727485 
L 301.620682 86.854463 
L 301.987939 87.409873 
L 302.355197 88.433778 
L 302.722455 87.854391 
L 303.089713 87.547663 
L 303.45697 87.743647 
L 303.824228 87.510585 
L 304.191486 88.473429 
L 304.558744 87.952727 
L 304.926001 88.760718 
L 305.293259 88.203257 
L 305.660517 88.384645 
L 306.027775 88.360994 
L 306.395032 87.863658 
L 306.76229 88.138233 
L 307.129548 87.669228 
L 307.496806 87.810916 
L 307.864063 87.354989 
L 308.231321 88.879495 
L 308.965836 89.083652 
L 309.333094 88.58475 
L 309.700352 88.886734 
L 310.434867 88.11264 
L 311.169383 88.010655 
L 311.903898 89.286409 
L 312.638414 88.82716 
L 313.005672 88.79763 
L 313.372929 88.962637 
L 313.740187 88.559963 
L 314.107445 88.663902 
L 314.474703 88.296985 
L 314.84196 88.142475 
L 315.576476 87.041528 
L 315.943734 86.878452 
L 316.310991 87.260363 
L 317.412765 85.756022 
L 317.780022 86.055947 
L 318.14728 85.667389 
L 318.514538 86.353144 
L 318.881795 86.127744 
L 319.249053 85.451256 
L 319.616311 85.147002 
L 319.983569 85.132821 
L 320.350826 85.286454 
L 320.718084 85.845885 
L 321.085342 85.181847 
L 321.4526 85.047702 
L 321.819857 86.000328 
L 322.187115 86.261103 
L 322.554373 87.693717 
L 322.921631 87.356865 
L 323.288888 87.270344 
L 323.656146 87.589349 
L 324.023404 87.497277 
L 324.390662 86.900284 
L 324.757919 87.695945 
L 325.125177 87.270044 
L 325.492435 88.533401 
L 325.859693 88.234504 
L 326.22695 88.550312 
L 326.594208 88.059198 
L 326.961466 88.063743 
L 327.328724 87.797609 
L 327.695981 88.239996 
L 328.063239 89.118344 
L 328.430497 88.874993 
L 328.797755 88.364085 
L 329.165012 89.405404 
L 329.53227 89.797063 
L 329.899528 89.482393 
L 330.266785 89.9926 
L 330.634043 89.575947 
L 331.001301 90.228474 
L 331.368559 90.270382 
L 331.735816 90.840992 
L 332.103074 91.087731 
L 332.83759 89.83647 
L 333.204847 89.369257 
L 333.572105 90.081827 
L 333.939363 90.358538 
L 334.306621 89.993128 
L 334.673878 90.407412 
L 335.041136 89.973489 
L 335.408394 90.452223 
L 335.775652 89.81567 
L 336.510167 89.454413 
L 336.877425 88.892519 
L 337.244683 89.507546 
L 337.61194 89.657171 
L 338.713714 88.171394 
L 339.080971 88.395394 
L 339.448229 88.363764 
L 340.182744 88.6934 
L 340.550002 88.499889 
L 340.91726 88.022595 
L 341.284518 89.625339 
L 342.019033 89.259896 
L 342.386291 88.679877 
L 342.753549 90.742033 
L 343.120806 90.468054 
L 343.488064 89.9888 
L 343.855322 89.746089 
L 344.22258 89.999904 
L 345.324353 89.162774 
L 345.691611 89.348117 
L 346.058868 89.076847 
L 346.426126 89.493996 
L 346.793384 89.305609 
L 347.160642 88.915118 
L 347.527899 89.839414 
L 347.895157 89.297774 
L 348.629673 88.782106 
L 348.99693 89.018184 
L 349.364188 88.86239 
L 349.731446 88.306853 
L 350.098703 91.898191 
L 350.465961 91.527246 
L 350.833219 92.310774 
L 351.567734 92.355416 
L 351.934992 93.019241 
L 352.30225 92.572757 
L 352.669508 92.651157 
L 353.036765 93.088197 
L 353.404023 92.876856 
L 353.771281 92.159443 
L 354.138539 91.974672 
L 354.505796 91.399968 
L 354.873054 91.250772 
L 355.60757 89.919107 
L 355.974827 89.48706 
L 356.342085 89.787348 
L 356.709343 89.665551 
L 357.076601 90.335721 
L 357.811116 89.384086 
L 358.545632 90.850425 
L 358.912889 90.827065 
L 359.280147 91.458052 
L 359.647405 93.108395 
L 360.014663 92.539857 
L 360.38192 92.538692 
L 360.749178 91.927067 
L 361.116436 92.157275 
L 361.483693 91.882033 
L 361.850951 92.748944 
L 362.218209 92.028032 
L 362.585467 91.563615 
L 362.952724 91.500832 
L 363.68724 90.372988 
L 364.054498 91.960227 
L 364.421755 92.085914 
L 365.523529 90.933393 
L 366.258044 92.68556 
L 366.625302 92.705064 
L 366.99256 92.004747 
L 368.828848 89.949247 
L 369.196106 90.405049 
L 369.563364 90.225525 
L 371.032395 88.758367 
L 371.399652 89.029388 
L 371.76691 89.606874 
L 372.134168 89.763366 
L 372.501426 89.443333 
L 372.868683 88.869717 
L 373.603199 88.994134 
L 373.970457 88.504535 
L 374.337714 88.230446 
L 374.704972 88.291953 
L 375.07223 87.767714 
L 375.439488 87.649022 
L 375.806745 87.383302 
L 376.174003 87.422587 
L 376.541261 87.89121 
L 376.908519 88.009478 
L 377.275776 88.454054 
L 377.643034 88.549066 
L 378.010292 88.078339 
L 378.37755 88.569208 
L 378.744807 89.302122 
L 379.112065 89.319486 
L 379.479323 90.483278 
L 379.846581 89.894766 
L 380.213838 90.129981 
L 380.581096 90.63485 
L 380.948354 90.536374 
L 381.315612 90.252265 
L 383.886416 86.184442 
L 384.253673 86.257627 
L 384.988189 85.309133 
L 385.355447 86.036702 
L 386.089962 86.500147 
L 386.45722 85.975847 
L 386.824478 85.905381 
L 387.191735 85.641264 
L 387.558993 85.179038 
L 387.926251 85.024027 
L 388.293509 85.000477 
L 388.660766 85.424825 
L 389.028024 84.739378 
L 389.395282 85.003321 
L 389.76254 84.468574 
L 390.129797 85.29133 
L 390.497055 85.39634 
L 391.231571 87.117927 
L 392.333344 86.402051 
L 393.435117 85.133626 
L 394.169632 84.528696 
L 394.53689 84.088111 
L 394.904148 84.101247 
L 395.638663 82.952689 
L 396.005921 83.873246 
L 397.107694 83.234846 
L 397.474952 82.575017 
L 397.84221 83.069584 
L 398.576725 85.117849 
L 398.943983 84.776841 
L 399.311241 84.769299 
L 399.678499 85.001183 
L 400.045756 85.462136 
L 400.413014 85.184545 
L 401.14753 86.119343 
L 402.249303 84.378108 
L 402.61656 85.227374 
L 402.983818 85.537916 
L 403.351076 85.402543 
L 403.718334 85.036623 
L 404.085591 84.850122 
L 404.452849 85.221969 
L 404.820107 86.134663 
L 405.187365 88.088296 
L 405.554622 87.703098 
L 405.92188 89.093548 
L 406.289138 88.954968 
L 406.656396 89.062893 
L 407.390911 88.132186 
L 407.758169 88.004142 
L 408.125427 88.742157 
L 408.492684 88.59953 
L 409.594458 87.796365 
L 409.961715 88.035356 
L 410.328973 87.54895 
L 410.696231 88.405922 
L 411.063489 88.485482 
L 411.430746 88.403874 
L 411.430746 88.403874 
" clip-path="url(#p650156fe90)" style="fill: none; stroke: #1f77b4; stroke-width: 1.5; stroke-linecap: square"/>
   </g>
   <g id="patch_3">
    <path d="M 44.39375 246.7 
L 44.39375 25.8 
" style="fill: none; stroke: #000000; stroke-width: 0.8; stroke-linejoin: miter; stroke-linecap: square"/>
   </g>
   <g id="patch_4">
    <path d="M 416.007696 246.7 
L 416.007696 25.8 
" style="fill: none; stroke: #000000; stroke-width: 0.8; stroke-linejoin: miter; stroke-linecap: square"/>
   </g>
   <g id="patch_5">
    <path d="M 44.39375 246.7 
L 416.007696 246.7 
" style="fill: none; stroke: #000000; stroke-width: 0.8; stroke-linejoin: miter; stroke-linecap: square"/>
   </g>
   <g id="patch_6">
    <path d="M 44.39375 25.8 
L 416.007696 25.8 
" style="fill: none; stroke: #000000; stroke-width: 0.8; stroke-linejoin: miter; stroke-linecap: square"/>
   </g>
   <g id="text_18">
    <!-- Retraso en paquetes recibidos -->
    <g transform="translate(139.071973 19.8)scale(0.12 -0.12)">
     <defs>
      <path id="DejaVuSans-52" d="M 2841 2188 
Q 3044 2119 3236 1894 
Q 3428 1669 3622 1275 
L 4263 0 
L 3584 0 
L 2988 1197 
Q 2756 1666 2539 1819 
Q 2322 1972 1947 1972 
L 1259 1972 
L 1259 0 
L 628 0 
L 628 4666 
L 2053 4666 
Q 2853 4666 3247 4331 
Q 3641 3997 3641 3322 
Q 3641 2881 3436 2590 
Q 3231 2300 2841 2188 
z
M 1259 4147 
L 1259 2491 
L 2053 2491 
Q 2509 2491 2742 2702 
Q 2975 2913 2975 3322 
Q 2975 3731 2742 3939 
Q 2509 4147 2053 4147 
L 1259 4147 
z
" transform="scale(0.015625)"/>
      <path id="DejaVuSans-74" d="M 1172 4494 
L 1172 3500 
L 2356 3500 
L 2356 3053 
L 1172 3053 
L 1172 1153 
Q 1172 725 1289 603 
Q 1406 481 1766 481 
L 2356 481 
L 2356 0 
L 1766 0 
Q 1100 0 847 248 
Q 594 497 594 1153 
L 594 3053 
L 172 3053 
L 172 3500 
L 594 3500 
L 594 4494 
L 1172 4494 
z
" transform="scale(0.015625)"/>
      <path id="DejaVuSans-72" d="M 2631 2963 
Q 2534 3019 2420 3045 
Q 2306 3072 2169 3072 
Q 1681 3072 1420 2755 
Q 1159 2438 1159 1844 
L 1159 0 
L 581 0 
L 581 3500 
L 1159 3500 
L 1159 2956 
Q 1341 3275 1631 3429 
Q 1922 3584 2338 3584 
Q 2397 3584 2469 3576 
Q 2541 3569 2628 3553 
L 2631 2963 
z
" transform="scale(0.015625)"/>
      <path id="DejaVuSans-61" d="M 2194 1759 
Q 1497 1759 1228 1600 
Q 959 1441 959 1056 
Q 959 750 1161 570 
Q 1363 391 1709 391 
Q 2188 391 2477 730 
Q 2766 1069 2766 1631 
L 2766 1759 
L 2194 1759 
z
M 3341 1997 
L 3341 0 
L 2766 0 
L 2766 531 
Q 2569 213 2275 61 
Q 1981 -91 1556 -91 
Q 1019 -91 701 211 
Q 384 513 384 1019 
Q 384 1609 779 1909 
Q 1175 2209 1959 2209 
L 2766 2209 
L 2766 2266 
Q 2766 2663 2505 2880 
Q 2244 3097 1772 3097 
Q 1472 3097 1187 3025 
Q 903 2953 641 2809 
L 641 3341 
Q 956 3463 1253 3523 
Q 1550 3584 1831 3584 
Q 2591 3584 2966 3190 
Q 3341 2797 3341 1997 
z
" transform="scale(0.015625)"/>
      <path id="DejaVuSans-73" d="M 2834 3397 
L 2834 2853 
Q 2591 2978 2328 3040 
Q 2066 3103 1784 3103 
Q 1356 3103 1142 2972 
Q 928 2841 928 2578 
Q 928 2378 1081 2264 
Q 1234 2150 1697 2047 
L 1894 2003 
Q 2506 1872 2764 1633 
Q 3022 1394 3022 966 
Q 3022 478 2636 193 
Q 2250 -91 1575 -91 
Q 1294 -91 989 -36 
Q 684 19 347 128 
L 347 722 
Q 666 556 975 473 
Q 1284 391 1588 391 
Q 1994 391 2212 530 
Q 2431 669 2431 922 
Q 2431 1156 2273 1281 
Q 2116 1406 1581 1522 
L 1381 1569 
Q 847 1681 609 1914 
Q 372 2147 372 2553 
Q 372 3047 722 3315 
Q 1072 3584 1716 3584 
Q 2034 3584 2315 3537 
Q 2597 3491 2834 3397 
z
" transform="scale(0.015625)"/>
      <path id="DejaVuSans-20" transform="scale(0.015625)"/>
      <path id="DejaVuSans-6e" d="M 3513 2113 
L 3513 0 
L 2938 0 
L 2938 2094 
Q 2938 2591 2744 2837 
Q 2550 3084 2163 3084 
Q 1697 3084 1428 2787 
Q 1159 2491 1159 1978 
L 1159 0 
L 581 0 
L 581 3500 
L 1159 3500 
L 1159 2956 
Q 1366 3272 1645 3428 
Q 1925 3584 2291 3584 
Q 2894 3584 3203 3211 
Q 3513 2838 3513 2113 
z
" transform="scale(0.015625)"/>
      <path id="DejaVuSans-71" d="M 947 1747 
Q 947 1113 1208 752 
Q 1469 391 1925 391 
Q 2381 391 2643 752 
Q 2906 1113 2906 1747 
Q 2906 2381 2643 2742 
Q 2381 3103 1925 3103 
Q 1469 3103 1208 2742 
Q 947 2381 947 1747 
z
M 2906 525 
Q 2725 213 2448 61 
Q 2172 -91 1784 -91 
Q 1150 -91 751 415 
Q 353 922 353 1747 
Q 353 2572 751 3078 
Q 1150 3584 1784 3584 
Q 2172 3584 2448 3432 
Q 2725 3281 2906 2969 
L 2906 3500 
L 3481 3500 
L 3481 -1331 
L 2906 -1331 
L 2906 525 
z
" transform="scale(0.015625)"/>
      <path id="DejaVuSans-75" d="M 544 1381 
L 544 3500 
L 1119 3500 
L 1119 1403 
Q 1119 906 1312 657 
Q 1506 409 1894 409 
Q 2359 409 2629 706 
Q 2900 1003 2900 1516 
L 2900 3500 
L 3475 3500 
L 3475 0 
L 2900 0 
L 2900 538 
Q 2691 219 2414 64 
Q 2138 -91 1772 -91 
Q 1169 -91 856 284 
Q 544 659 544 1381 
z
M 1991 3584 
L 1991 3584 
z
" transform="scale(0.015625)"/>
      <path id="DejaVuSans-63" d="M 3122 3366 
L 3122 2828 
Q 2878 2963 2633 3030 
Q 2388 3097 2138 3097 
Q 1578 3097 1268 2742 
Q 959 2388 959 1747 
Q 959 1106 1268 751 
Q 1578 397 2138 397 
Q 2388 397 2633 464 
Q 2878 531 3122 666 
L 3122 134 
Q 2881 22 2623 -34 
Q 2366 -91 2075 -91 
Q 1284 -91 818 406 
Q 353 903 353 1747 
Q 353 2603 823 3093 
Q 1294 3584 2113 3584 
Q 2378 3584 2631 3529 
Q 2884 3475 3122 3366 
z
" transform="scale(0.015625)"/>
      <path id="DejaVuSans-62" d="M 3116 1747 
Q 3116 2381 2855 2742 
Q 2594 3103 2138 3103 
Q 1681 3103 1420 2742 
Q 1159 2381 1159 1747 
Q 1159 1113 1420 752 
Q 1681 391 2138 391 
Q 2594 391 2855 752 
Q 3116 1113 3116 1747 
z
M 1159 2969 
Q 1341 3281 1617 3432 
Q 1894 3584 2278 3584 
Q 2916 3584 3314 3078 
Q 3713 2572 3713 1747 
Q 3713 922 3314 415 
Q 2916 -91 2278 -91 
Q 1894 -91 1617 61 
Q 1341 213 1159 525 
L 1159 0 
L 581 0 
L 581 4863 
L 1159 4863 
L 1159 2969 
z
" transform="scale(0.015625)"/>
      <path id="DejaVuSans-64" d="M 2906 2969 
L 2906 4863 
L 3481 4863 
L 3481 0 
L 2906 0 
L 2906 525 
Q 2725 213 2448 61 
Q 2172 -91 1784 -91 
Q 1150 -91 751 415 
Q 353 922 353 1747 
Q 353 2572 751 3078 
Q 1150 3584 1784 3584 
Q 2172 3584 2448 3432 
Q 2725 3281 2906 2969 
z
M 947 1747 
Q 947 1113 1208 752 
Q 1469 391 1925 391 
Q 2381 391 2643 752 
Q 2906 1113 2906 1747 
Q 2906 2381 2643 2742 
Q 2381 3103 1925 3103 
Q 1469 3103 1208 2742 
Q 947 2381 947 1747 
z
" transform="scale(0.015625)"/>
     </defs>
     <use xlink:href="#DejaVuSans-52"/>
     <use xlink:href="#DejaVuSans-65" x="64.982422"/>
     <use xlink:href="#DejaVuSans-74" x="126.505859"/>
     <use xlink:href="#DejaVuSans-72" x="165.714844"/>
     <use xlink:href="#DejaVuSans-61" x="206.828125"/>
     <use xlink:href="#DejaVuSans-73" x="268.107422"/>
     <use xlink:href="#DejaVuSans-6f" x="320.207031"/>
     <use xlink:href="#DejaVuSans-20" x="381.388672"/>
     <use xlink:href="#DejaVuSans-65" x="413.175781"/>
     <use xlink:href="#DejaVuSans-6e" x="474.699219"/>
     <use xlink:href="#DejaVuSans-20" x="538.078125"/>
     <use xlink:href="#DejaVuSans-70" x="569.865234"/>
     <use xlink:href="#DejaVuSans-61" x="633.341797"/>
     <use xlink:href="#DejaVuSans-71" x="694.621094"/>
     <use xlink:href="#DejaVuSans-75" x="758.097656"/>
     <use xlink:href="#DejaVuSans-65" x="821.476562"/>
     <use xlink:href="#DejaVuSans-74" x="883"/>
     <use xlink:href="#DejaVuSans-65" x="922.208984"/>
     <use xlink:href="#DejaVuSans-73" x="983.732422"/>
     <use xlink:href="#DejaVuSans-20" x="1035.832031"/>
     <use xlink:href="#DejaVuSans-72" x="1067.619141"/>
     <use xlink:href="#DejaVuSans-65" x="1106.482422"/>
     <use xlink:href="#DejaVuSans-63" x="1168.005859"/>
     <use xlink:href="#DejaVuSans-69" x="1222.986328"/>
     <use xlink:href="#DejaVuSans-62" x="1250.769531"/>
     <use xlink:href="#DejaVuSans-69" x="1314.246094"/>
     <use xlink:href="#DejaVuSans-64" x="1342.029297"/>
     <use xlink:href="#DejaVuSans-6f" x="1405.505859"/>
     <use xlink:href="#DejaVuSans-73" x="1466.6875"/>
    </g>
   </g>
  </g>
 </g>
 <defs>
  <clipPath id="p650156fe90">
   <rect x="44.39375" y="25.8" width="371.613946" height="220.9"/>
  </clipPath>
 </defs>
</svg>
