<?xml version="1.0" encoding="utf-8" standalone="no"?>
<!DOCTYPE svg PUBLIC "-//W3C//DTD SVG 1.1//EN"
  "http://www.w3.org/Graphics/SVG/1.1/DTD/svg11.dtd">
<svg xmlns:xlink="http://www.w3.org/1999/xlink" width="432pt" height="288pt" viewBox="0 0 432 288" xmlns="http://www.w3.org/2000/svg" version="1.1">
 <metadata>
  <rdf:RDF xmlns:dc="http://purl.org/dc/elements/1.1/" xmlns:cc="http://creativecommons.org/ns#" xmlns:rdf="http://www.w3.org/1999/02/22-rdf-syntax-ns#">
   <cc:Work>
    <dc:type rdf:resource="http://purl.org/dc/dcmitype/StillImage"/>
    <dc:date>2022-05-19T10:30:06.189773</dc:date>
    <dc:format>image/svg+xml</dc:format>
    <dc:creator>
     <cc:Agent>
      <dc:title>omnetpp.scave 6.0.0; Matplotlib 3.5.1 w/ backend GTK3Agg; Pandas 1.4.2; Python 3.8.10; Linux-5.4.0-109-generic-x86_64-with-glibc2.29</dc:title>
     </cc:Agent>
    </dc:creator>
   </cc:Work>
  </rdf:RDF>
 </metadata>
 <defs>
  <style type="text/css">*{stroke-linejoin: round; stroke-linecap: butt}</style>
 </defs>
 <g id="figure_1">
  <g id="patch_1">
   <path d="M 0 288 
L 432 288 
L 432 0 
L 0 0 
z
" style="fill: #ffffff"/>
  </g>
  <g id="axes_1">
   <g id="patch_2">
    <path d="M 24.26875 260.45 
L 416.184882 260.45 
L 416.184882 25.8 
L 24.26875 25.8 
z
" style="fill: #ffffff"/>
   </g>
   <g id="matplotlib.axis_1">
    <g id="xtick_1">
     <g id="line2d_1">
      <path d="M 24.26875 260.45 
L 24.26875 25.8 
" clip-path="url(#pef85ac71af)" style="fill: none; stroke: #b0b0b0; stroke-width: 0.8; stroke-linecap: square"/>
     </g>
     <g id="line2d_2">
      <defs>
       <path id="m6898c62144" d="M 0 0 
L 0 3.5 
" style="stroke: #000000; stroke-width: 0.8"/>
      </defs>
      <g>
       <use xlink:href="#m6898c62144" x="24.26875" y="260.45" style="stroke: #000000; stroke-width: 0.8"/>
      </g>
     </g>
     <g id="text_1">
      <!-- 0 -->
      <g transform="translate(21.0875 275.048437)scale(0.1 -0.1)">
       <defs>
        <path id="DejaVuSans-30" d="M 2034 4250 
Q 1547 4250 1301 3770 
Q 1056 3291 1056 2328 
Q 1056 1369 1301 889 
Q 1547 409 2034 409 
Q 2525 409 2770 889 
Q 3016 1369 3016 2328 
Q 3016 3291 2770 3770 
Q 2525 4250 2034 4250 
z
M 2034 4750 
Q 2819 4750 3233 4129 
Q 3647 3509 3647 2328 
Q 3647 1150 3233 529 
Q 2819 -91 2034 -91 
Q 1250 -91 836 529 
Q 422 1150 422 2328 
Q 422 3509 836 4129 
Q 1250 4750 2034 4750 
z
" transform="scale(0.015625)"/>
       </defs>
       <use xlink:href="#DejaVuSans-30"/>
      </g>
     </g>
    </g>
    <g id="xtick_2">
     <g id="line2d_3">
      <path d="M 72.69124 260.45 
L 72.69124 25.8 
" clip-path="url(#pef85ac71af)" style="fill: none; stroke: #b0b0b0; stroke-width: 0.8; stroke-linecap: square"/>
     </g>
     <g id="line2d_4">
      <g>
       <use xlink:href="#m6898c62144" x="72.69124" y="260.45" style="stroke: #000000; stroke-width: 0.8"/>
      </g>
     </g>
     <g id="text_2">
      <!-- 25 -->
      <g transform="translate(66.32874 275.048437)scale(0.1 -0.1)">
       <defs>
        <path id="DejaVuSans-32" d="M 1228 531 
L 3431 531 
L 3431 0 
L 469 0 
L 469 531 
Q 828 903 1448 1529 
Q 2069 2156 2228 2338 
Q 2531 2678 2651 2914 
Q 2772 3150 2772 3378 
Q 2772 3750 2511 3984 
Q 2250 4219 1831 4219 
Q 1534 4219 1204 4116 
Q 875 4013 500 3803 
L 500 4441 
Q 881 4594 1212 4672 
Q 1544 4750 1819 4750 
Q 2544 4750 2975 4387 
Q 3406 4025 3406 3419 
Q 3406 3131 3298 2873 
Q 3191 2616 2906 2266 
Q 2828 2175 2409 1742 
Q 1991 1309 1228 531 
z
" transform="scale(0.015625)"/>
        <path id="DejaVuSans-35" d="M 691 4666 
L 3169 4666 
L 3169 4134 
L 1269 4134 
L 1269 2991 
Q 1406 3038 1543 3061 
Q 1681 3084 1819 3084 
Q 2600 3084 3056 2656 
Q 3513 2228 3513 1497 
Q 3513 744 3044 326 
Q 2575 -91 1722 -91 
Q 1428 -91 1123 -41 
Q 819 9 494 109 
L 494 744 
Q 775 591 1075 516 
Q 1375 441 1709 441 
Q 2250 441 2565 725 
Q 2881 1009 2881 1497 
Q 2881 1984 2565 2268 
Q 2250 2553 1709 2553 
Q 1456 2553 1204 2497 
Q 953 2441 691 2322 
L 691 4666 
z
" transform="scale(0.015625)"/>
       </defs>
       <use xlink:href="#DejaVuSans-32"/>
       <use xlink:href="#DejaVuSans-35" x="63.623047"/>
      </g>
     </g>
    </g>
    <g id="xtick_3">
     <g id="line2d_5">
      <path d="M 121.113731 260.45 
L 121.113731 25.8 
" clip-path="url(#pef85ac71af)" style="fill: none; stroke: #b0b0b0; stroke-width: 0.8; stroke-linecap: square"/>
     </g>
     <g id="line2d_6">
      <g>
       <use xlink:href="#m6898c62144" x="121.113731" y="260.45" style="stroke: #000000; stroke-width: 0.8"/>
      </g>
     </g>
     <g id="text_3">
      <!-- 50 -->
      <g transform="translate(114.751231 275.048437)scale(0.1 -0.1)">
       <use xlink:href="#DejaVuSans-35"/>
       <use xlink:href="#DejaVuSans-30" x="63.623047"/>
      </g>
     </g>
    </g>
    <g id="xtick_4">
     <g id="line2d_7">
      <path d="M 169.536221 260.45 
L 169.536221 25.8 
" clip-path="url(#pef85ac71af)" style="fill: none; stroke: #b0b0b0; stroke-width: 0.8; stroke-linecap: square"/>
     </g>
     <g id="line2d_8">
      <g>
       <use xlink:href="#m6898c62144" x="169.536221" y="260.45" style="stroke: #000000; stroke-width: 0.8"/>
      </g>
     </g>
     <g id="text_4">
      <!-- 75 -->
      <g transform="translate(163.173721 275.048437)scale(0.1 -0.1)">
       <defs>
        <path id="DejaVuSans-37" d="M 525 4666 
L 3525 4666 
L 3525 4397 
L 1831 0 
L 1172 0 
L 2766 4134 
L 525 4134 
L 525 4666 
z
" transform="scale(0.015625)"/>
       </defs>
       <use xlink:href="#DejaVuSans-37"/>
       <use xlink:href="#DejaVuSans-35" x="63.623047"/>
      </g>
     </g>
    </g>
    <g id="xtick_5">
     <g id="line2d_9">
      <path d="M 217.958711 260.45 
L 217.958711 25.8 
" clip-path="url(#pef85ac71af)" style="fill: none; stroke: #b0b0b0; stroke-width: 0.8; stroke-linecap: square"/>
     </g>
     <g id="line2d_10">
      <g>
       <use xlink:href="#m6898c62144" x="217.958711" y="260.45" style="stroke: #000000; stroke-width: 0.8"/>
      </g>
     </g>
     <g id="text_5">
      <!-- 100 -->
      <g transform="translate(208.414961 275.048437)scale(0.1 -0.1)">
       <defs>
        <path id="DejaVuSans-31" d="M 794 531 
L 1825 531 
L 1825 4091 
L 703 3866 
L 703 4441 
L 1819 4666 
L 2450 4666 
L 2450 531 
L 3481 531 
L 3481 0 
L 794 0 
L 794 531 
z
" transform="scale(0.015625)"/>
       </defs>
       <use xlink:href="#DejaVuSans-31"/>
       <use xlink:href="#DejaVuSans-30" x="63.623047"/>
       <use xlink:href="#DejaVuSans-30" x="127.246094"/>
      </g>
     </g>
    </g>
    <g id="xtick_6">
     <g id="line2d_11">
      <path d="M 266.381201 260.45 
L 266.381201 25.8 
" clip-path="url(#pef85ac71af)" style="fill: none; stroke: #b0b0b0; stroke-width: 0.8; stroke-linecap: square"/>
     </g>
     <g id="line2d_12">
      <g>
       <use xlink:href="#m6898c62144" x="266.381201" y="260.45" style="stroke: #000000; stroke-width: 0.8"/>
      </g>
     </g>
     <g id="text_6">
      <!-- 125 -->
      <g transform="translate(256.837451 275.048437)scale(0.1 -0.1)">
       <use xlink:href="#DejaVuSans-31"/>
       <use xlink:href="#DejaVuSans-32" x="63.623047"/>
       <use xlink:href="#DejaVuSans-35" x="127.246094"/>
      </g>
     </g>
    </g>
    <g id="xtick_7">
     <g id="line2d_13">
      <path d="M 314.803692 260.45 
L 314.803692 25.8 
" clip-path="url(#pef85ac71af)" style="fill: none; stroke: #b0b0b0; stroke-width: 0.8; stroke-linecap: square"/>
     </g>
     <g id="line2d_14">
      <g>
       <use xlink:href="#m6898c62144" x="314.803692" y="260.45" style="stroke: #000000; stroke-width: 0.8"/>
      </g>
     </g>
     <g id="text_7">
      <!-- 150 -->
      <g transform="translate(305.259942 275.048437)scale(0.1 -0.1)">
       <use xlink:href="#DejaVuSans-31"/>
       <use xlink:href="#DejaVuSans-35" x="63.623047"/>
       <use xlink:href="#DejaVuSans-30" x="127.246094"/>
      </g>
     </g>
    </g>
    <g id="xtick_8">
     <g id="line2d_15">
      <path d="M 363.226182 260.45 
L 363.226182 25.8 
" clip-path="url(#pef85ac71af)" style="fill: none; stroke: #b0b0b0; stroke-width: 0.8; stroke-linecap: square"/>
     </g>
     <g id="line2d_16">
      <g>
       <use xlink:href="#m6898c62144" x="363.226182" y="260.45" style="stroke: #000000; stroke-width: 0.8"/>
      </g>
     </g>
     <g id="text_8">
      <!-- 175 -->
      <g transform="translate(353.682432 275.048437)scale(0.1 -0.1)">
       <use xlink:href="#DejaVuSans-31"/>
       <use xlink:href="#DejaVuSans-37" x="63.623047"/>
       <use xlink:href="#DejaVuSans-35" x="127.246094"/>
      </g>
     </g>
    </g>
    <g id="xtick_9">
     <g id="line2d_17">
      <path d="M 411.648672 260.45 
L 411.648672 25.8 
" clip-path="url(#pef85ac71af)" style="fill: none; stroke: #b0b0b0; stroke-width: 0.8; stroke-linecap: square"/>
     </g>
     <g id="line2d_18">
      <g>
       <use xlink:href="#m6898c62144" x="411.648672" y="260.45" style="stroke: #000000; stroke-width: 0.8"/>
      </g>
     </g>
     <g id="text_9">
      <!-- 200 -->
      <g transform="translate(402.104922 275.048437)scale(0.1 -0.1)">
       <use xlink:href="#DejaVuSans-32"/>
       <use xlink:href="#DejaVuSans-30" x="63.623047"/>
       <use xlink:href="#DejaVuSans-30" x="127.246094"/>
      </g>
     </g>
    </g>
   </g>
   <g id="matplotlib.axis_2">
    <g id="ytick_1">
     <g id="line2d_19">
      <path d="M 24.26875 260.45 
L 416.184882 260.45 
" clip-path="url(#pef85ac71af)" style="fill: none; stroke: #b0b0b0; stroke-width: 0.8; stroke-linecap: square"/>
     </g>
     <g id="line2d_20">
      <defs>
       <path id="mfc8fa6ea64" d="M 0 0 
L -3.5 0 
" style="stroke: #000000; stroke-width: 0.8"/>
      </defs>
      <g>
       <use xlink:href="#mfc8fa6ea64" x="24.26875" y="260.45" style="stroke: #000000; stroke-width: 0.8"/>
      </g>
     </g>
     <g id="text_10">
      <!-- 0 -->
      <g transform="translate(10.90625 264.249219)scale(0.1 -0.1)">
       <use xlink:href="#DejaVuSans-30"/>
      </g>
     </g>
    </g>
    <g id="ytick_2">
     <g id="line2d_21">
      <path d="M 24.26875 208.512118 
L 416.184882 208.512118 
" clip-path="url(#pef85ac71af)" style="fill: none; stroke: #b0b0b0; stroke-width: 0.8; stroke-linecap: square"/>
     </g>
     <g id="line2d_22">
      <g>
       <use xlink:href="#mfc8fa6ea64" x="24.26875" y="208.512118" style="stroke: #000000; stroke-width: 0.8"/>
      </g>
     </g>
     <g id="text_11">
      <!-- 2 -->
      <g transform="translate(10.90625 212.311337)scale(0.1 -0.1)">
       <use xlink:href="#DejaVuSans-32"/>
      </g>
     </g>
    </g>
    <g id="ytick_3">
     <g id="line2d_23">
      <path d="M 24.26875 156.574236 
L 416.184882 156.574236 
" clip-path="url(#pef85ac71af)" style="fill: none; stroke: #b0b0b0; stroke-width: 0.8; stroke-linecap: square"/>
     </g>
     <g id="line2d_24">
      <g>
       <use xlink:href="#mfc8fa6ea64" x="24.26875" y="156.574236" style="stroke: #000000; stroke-width: 0.8"/>
      </g>
     </g>
     <g id="text_12">
      <!-- 4 -->
      <g transform="translate(10.90625 160.373454)scale(0.1 -0.1)">
       <defs>
        <path id="DejaVuSans-34" d="M 2419 4116 
L 825 1625 
L 2419 1625 
L 2419 4116 
z
M 2253 4666 
L 3047 4666 
L 3047 1625 
L 3713 1625 
L 3713 1100 
L 3047 1100 
L 3047 0 
L 2419 0 
L 2419 1100 
L 313 1100 
L 313 1709 
L 2253 4666 
z
" transform="scale(0.015625)"/>
       </defs>
       <use xlink:href="#DejaVuSans-34"/>
      </g>
     </g>
    </g>
    <g id="ytick_4">
     <g id="line2d_25">
      <path d="M 24.26875 104.636353 
L 416.184882 104.636353 
" clip-path="url(#pef85ac71af)" style="fill: none; stroke: #b0b0b0; stroke-width: 0.8; stroke-linecap: square"/>
     </g>
     <g id="line2d_26">
      <g>
       <use xlink:href="#mfc8fa6ea64" x="24.26875" y="104.636353" style="stroke: #000000; stroke-width: 0.8"/>
      </g>
     </g>
     <g id="text_13">
      <!-- 6 -->
      <g transform="translate(10.90625 108.435572)scale(0.1 -0.1)">
       <defs>
        <path id="DejaVuSans-36" d="M 2113 2584 
Q 1688 2584 1439 2293 
Q 1191 2003 1191 1497 
Q 1191 994 1439 701 
Q 1688 409 2113 409 
Q 2538 409 2786 701 
Q 3034 994 3034 1497 
Q 3034 2003 2786 2293 
Q 2538 2584 2113 2584 
z
M 3366 4563 
L 3366 3988 
Q 3128 4100 2886 4159 
Q 2644 4219 2406 4219 
Q 1781 4219 1451 3797 
Q 1122 3375 1075 2522 
Q 1259 2794 1537 2939 
Q 1816 3084 2150 3084 
Q 2853 3084 3261 2657 
Q 3669 2231 3669 1497 
Q 3669 778 3244 343 
Q 2819 -91 2113 -91 
Q 1303 -91 875 529 
Q 447 1150 447 2328 
Q 447 3434 972 4092 
Q 1497 4750 2381 4750 
Q 2619 4750 2861 4703 
Q 3103 4656 3366 4563 
z
" transform="scale(0.015625)"/>
       </defs>
       <use xlink:href="#DejaVuSans-36"/>
      </g>
     </g>
    </g>
    <g id="ytick_5">
     <g id="line2d_27">
      <path d="M 24.26875 52.698471 
L 416.184882 52.698471 
" clip-path="url(#pef85ac71af)" style="fill: none; stroke: #b0b0b0; stroke-width: 0.8; stroke-linecap: square"/>
     </g>
     <g id="line2d_28">
      <g>
       <use xlink:href="#mfc8fa6ea64" x="24.26875" y="52.698471" style="stroke: #000000; stroke-width: 0.8"/>
      </g>
     </g>
     <g id="text_14">
      <!-- 8 -->
      <g transform="translate(10.90625 56.49769)scale(0.1 -0.1)">
       <defs>
        <path id="DejaVuSans-38" d="M 2034 2216 
Q 1584 2216 1326 1975 
Q 1069 1734 1069 1313 
Q 1069 891 1326 650 
Q 1584 409 2034 409 
Q 2484 409 2743 651 
Q 3003 894 3003 1313 
Q 3003 1734 2745 1975 
Q 2488 2216 2034 2216 
z
M 1403 2484 
Q 997 2584 770 2862 
Q 544 3141 544 3541 
Q 544 4100 942 4425 
Q 1341 4750 2034 4750 
Q 2731 4750 3128 4425 
Q 3525 4100 3525 3541 
Q 3525 3141 3298 2862 
Q 3072 2584 2669 2484 
Q 3125 2378 3379 2068 
Q 3634 1759 3634 1313 
Q 3634 634 3220 271 
Q 2806 -91 2034 -91 
Q 1263 -91 848 271 
Q 434 634 434 1313 
Q 434 1759 690 2068 
Q 947 2378 1403 2484 
z
M 1172 3481 
Q 1172 3119 1398 2916 
Q 1625 2713 2034 2713 
Q 2441 2713 2670 2916 
Q 2900 3119 2900 3481 
Q 2900 3844 2670 4047 
Q 2441 4250 2034 4250 
Q 1625 4250 1398 4047 
Q 1172 3844 1172 3481 
z
" transform="scale(0.015625)"/>
       </defs>
       <use xlink:href="#DejaVuSans-38"/>
      </g>
     </g>
    </g>
   </g>
   <g id="line2d_29">
    <path d="M 25.352203 250.05723 
L 25.739583 249.530374 
L 26.18681 250.05723 
L 26.907183 250.05723 
L 27.294563 249.658467 
L 28.020811 250.05723 
L 28.40819 248.951998 
L 29.053629 250.05723 
L 29.441009 247.725471 
L 29.828389 247.606047 
L 30.215769 247.804238 
L 31.377909 239.565885 
L 31.765289 245.920612 
L 32.152669 241.030061 
L 32.763506 250.05723 
L 33.538266 243.834855 
L 33.925646 242.014153 
L 34.700405 248.460202 
L 35.087785 247.175643 
L 35.475165 245.377983 
L 35.862545 244.544031 
L 36.249925 241.941278 
L 36.651106 250.05723 
L 37.351632 250.05723 
L 37.739012 245.246148 
L 38.126392 242.190008 
L 38.513772 237.469691 
L 38.901152 237.701399 
L 39.288532 232.613697 
L 39.675912 229.805146 
L 40.063292 233.895191 
L 40.450672 245.062718 
L 40.838052 247.689654 
L 41.225432 243.281327 
L 41.612811 248.684499 
L 42.301027 250.05723 
L 43.790588 250.05723 
L 44.177968 248.196343 
L 44.661011 250.05723 
L 45.286243 250.05723 
L 45.673623 248.07803 
L 46.061003 246.701491 
L 46.448383 249.38427 
L 46.83823 250.05723 
L 47.22561 245.517207 
L 47.61299 246.946681 
L 48.00037 247.057994 
L 48.38775 246.394857 
L 48.77513 242.004702 
L 49.16251 240.814466 
L 49.594376 250.05723 
L 50.144984 250.05723 
L 50.532364 248.69556 
L 50.919744 244.083197 
L 52.081884 236.212222 
L 52.469264 232.08941 
L 52.856644 234.625303 
L 53.244024 236.366729 
L 53.631404 234.336386 
L 54.018784 230.410134 
L 54.406164 229.580866 
L 55.568303 216.887338 
L 55.955683 216.686759 
L 56.343063 212.335073 
L 56.730443 212.059785 
L 57.117823 208.171933 
L 57.505203 207.961834 
L 57.892583 205.305507 
L 58.279963 215.059 
L 58.667343 221.961095 
L 59.054723 222.714916 
L 59.442103 220.625694 
L 59.829482 217.745835 
L 60.216862 217.48352 
L 60.604242 215.273732 
L 60.991622 222.162518 
L 61.379002 223.18106 
L 62.153762 213.659167 
L 62.541142 226.644747 
L 62.928522 227.158477 
L 63.315902 227.464049 
L 63.703282 228.038469 
L 64.478042 219.851152 
L 64.865421 216.96031 
L 65.252801 212.483414 
L 65.640181 214.504019 
L 66.027561 211.278479 
L 66.414941 210.946396 
L 67.189701 204.948685 
L 67.577081 204.140676 
L 67.964461 199.150397 
L 68.351841 196.955109 
L 68.739221 196.985602 
L 69.126601 214.927527 
L 69.513981 226.317227 
L 69.90136 221.682473 
L 70.28874 221.982811 
L 70.67612 218.005935 
L 71.0635 218.047586 
L 71.45088 213.767455 
L 71.83826 236.412893 
L 72.22564 236.71799 
L 72.61302 236.052748 
L 73.0004 232.375965 
L 73.77516 228.028796 
L 74.16254 226.17867 
L 74.549919 222.440581 
L 74.937299 222.320418 
L 75.324679 218.025817 
L 75.712059 214.974473 
L 76.099439 210.388127 
L 76.486819 211.027837 
L 76.874199 211.381389 
L 77.261579 208.169321 
L 77.648959 203.747913 
L 78.036339 206.37927 
L 78.423719 202.322301 
L 78.811099 212.643344 
L 79.198479 209.838771 
L 79.585858 210.286836 
L 79.973238 214.028086 
L 80.747998 204.242 
L 81.135378 204.112684 
L 81.522758 208.37065 
L 81.910138 208.992941 
L 82.297518 204.323906 
L 83.072278 231.968466 
L 83.459658 237.709271 
L 84.234418 234.306925 
L 84.621797 248.65179 
L 85.009177 243.755746 
L 85.396557 243.384278 
L 85.783937 241.306487 
L 86.171317 243.094424 
L 86.946077 233.01934 
L 87.333457 230.852898 
L 87.720837 227.385578 
L 88.108217 242.403781 
L 88.495597 237.875093 
L 89.657736 229.836365 
L 90.045116 225.299012 
L 90.432496 226.165718 
L 90.819876 222.959597 
L 91.207256 228.798647 
L 91.594636 226.382935 
L 91.982016 234.193935 
L 92.756776 225.420031 
L 93.144156 226.350703 
L 93.918916 224.631253 
L 94.306296 229.841872 
L 94.693675 226.249925 
L 95.468435 223.403765 
L 95.855815 231.119565 
L 96.243195 226.438146 
L 96.630575 234.438161 
L 97.017955 233.700101 
L 97.405335 228.956981 
L 97.792715 237.522867 
L 98.567475 230.81717 
L 98.954855 225.672207 
L 99.342235 226.19598 
L 99.729614 230.59682 
L 100.116994 226.137073 
L 100.504374 226.354073 
L 100.891754 227.704115 
L 101.279134 232.073557 
L 102.828654 218.355321 
L 103.216034 217.748318 
L 103.603414 216.734477 
L 104.378173 207.388591 
L 104.765553 211.365688 
L 105.152933 208.570033 
L 105.927693 199.029293 
L 106.315073 199.718167 
L 106.702453 198.903173 
L 107.089833 195.343983 
L 107.477213 196.468483 
L 107.864593 198.175982 
L 108.251973 194.749882 
L 108.639353 206.566494 
L 109.026733 204.32228 
L 109.414112 200.614024 
L 109.801492 202.748798 
L 110.188872 202.013321 
L 110.576252 199.438988 
L 110.963632 198.901902 
L 111.351012 205.465467 
L 111.738392 204.682352 
L 112.125772 204.779261 
L 112.513152 200.896489 
L 112.900532 207.240737 
L 113.287912 217.899854 
L 113.675292 218.624948 
L 114.450051 214.412803 
L 114.837431 218.949369 
L 115.224811 233.715343 
L 115.612191 234.765727 
L 116.386951 226.853234 
L 116.774331 229.225853 
L 117.161711 232.762418 
L 117.936471 227.754263 
L 118.323851 228.404951 
L 118.711231 234.271332 
L 119.098611 230.570293 
L 119.48599 229.897883 
L 119.87337 226.655603 
L 120.26075 232.549672 
L 120.64813 244.829711 
L 121.03551 245.761388 
L 121.42289 245.178964 
L 121.81027 246.695079 
L 122.19765 247.099337 
L 122.97241 244.282575 
L 123.752449 250.05723 
L 124.139829 246.224511 
L 124.527209 246.394852 
L 125.301969 241.480006 
L 125.689349 241.295385 
L 126.076729 240.9443 
L 126.464109 239.095855 
L 126.851489 234.002721 
L 127.238869 232.107652 
L 127.626249 228.778056 
L 128.013629 230.123473 
L 128.401009 230.535445 
L 129.563148 221.009518 
L 129.950528 220.814102 
L 130.337908 222.803215 
L 130.725288 220.517746 
L 131.112668 226.269595 
L 132.662188 209.157454 
L 133.049568 208.346644 
L 133.436948 205.422687 
L 133.824327 204.870738 
L 134.599087 203.087356 
L 134.986467 198.071213 
L 135.373847 198.377695 
L 135.761227 211.219521 
L 136.148607 211.509592 
L 136.535987 208.326475 
L 136.923367 206.065155 
L 137.310747 202.170237 
L 137.698127 208.759253 
L 138.085507 204.356446 
L 138.472887 201.54231 
L 138.860266 196.879954 
L 139.247646 194.659409 
L 139.635026 210.956529 
L 140.022406 217.318476 
L 140.409786 213.690957 
L 140.797166 217.019644 
L 141.184546 215.825472 
L 141.571926 216.952625 
L 141.959306 214.844329 
L 142.734066 205.550016 
L 143.121446 213.440846 
L 143.508826 210.502957 
L 143.896205 211.814947 
L 144.283585 209.911229 
L 144.670965 239.855447 
L 145.058345 244.216841 
L 145.445725 239.863771 
L 145.833105 246.876306 
L 146.380652 250.05723 
L 147.155411 240.789478 
L 147.542791 239.282853 
L 147.930171 239.054152 
L 148.704931 230.301177 
L 149.092311 232.949092 
L 150.254451 246.103059 
L 150.641831 243.661994 
L 151.029211 242.840757 
L 151.416591 238.430145 
L 151.80397 235.952033 
L 152.57873 226.112205 
L 152.96611 241.952463 
L 153.35349 242.96753 
L 154.12825 238.14547 
L 154.51563 235.781554 
L 154.90301 237.23755 
L 155.29039 232.313385 
L 155.67777 237.573512 
L 156.06515 234.74244 
L 156.45253 248.817401 
L 156.839909 243.710701 
L 157.227289 248.575085 
L 157.614669 244.74378 
L 158.002049 239.611191 
L 158.389429 241.936939 
L 158.776809 239.060893 
L 159.164189 248.849167 
L 159.581281 250.05723 
L 160.118303 250.05723 
L 160.893063 242.801027 
L 161.667822 239.729377 
L 162.055202 234.825766 
L 162.442582 231.782097 
L 163.217342 223.580943 
L 163.992102 214.264401 
L 164.379482 217.268554 
L 164.766862 215.308404 
L 165.154242 211.431271 
L 165.541622 217.019948 
L 165.929002 214.026545 
L 166.703761 232.291868 
L 167.091141 231.96538 
L 167.478521 233.101765 
L 167.865901 232.623749 
L 168.253281 227.598015 
L 168.640661 230.35504 
L 169.028041 226.095912 
L 169.415421 224.502457 
L 169.802801 224.354341 
L 170.190181 219.428983 
L 170.577561 218.70665 
L 170.96494 219.75045 
L 171.35232 215.967649 
L 171.7397 236.115043 
L 172.12708 245.055362 
L 172.51446 241.476674 
L 172.90184 241.226488 
L 173.28922 241.935941 
L 173.6766 240.726202 
L 174.06398 245.905302 
L 174.45136 245.341146 
L 175.22612 248.974005 
L 176.438376 250.05723 
L 176.825756 246.805329 
L 177.213136 245.808018 
L 177.600516 243.251974 
L 179.537415 223.405301 
L 179.924795 233.216759 
L 180.312175 232.401224 
L 180.699555 234.194886 
L 181.474315 230.434186 
L 181.861695 243.493856 
L 182.249075 239.640131 
L 182.636455 240.373171 
L 183.023835 236.7038 
L 184.185974 222.197589 
L 185.348114 214.992148 
L 185.735494 220.854222 
L 186.122874 221.850692 
L 186.510254 236.116442 
L 186.897634 233.386672 
L 187.285014 233.186397 
L 187.672394 229.020811 
L 188.059774 227.888439 
L 188.447153 222.824435 
L 188.834533 227.646141 
L 189.221913 222.813932 
L 189.609293 224.693729 
L 189.996673 225.408075 
L 190.771433 221.54292 
L 191.158813 222.219959 
L 191.546193 221.020816 
L 191.933573 220.678339 
L 192.320953 227.27362 
L 192.708333 228.593898 
L 193.095712 247.497482 
L 193.483092 245.596192 
L 193.870472 241.672238 
L 194.257852 239.640599 
L 194.645232 240.097156 
L 195.032612 247.207027 
L 195.807372 239.173281 
L 196.582132 230.246294 
L 196.969512 232.429677 
L 197.356892 238.317165 
L 197.744272 235.126557 
L 198.131651 242.126972 
L 198.519031 239.445099 
L 198.906411 239.641684 
L 199.293791 239.057393 
L 199.681171 235.902546 
L 200.068551 239.944057 
L 200.455931 238.559226 
L 200.843311 238.515101 
L 201.230691 233.3216 
L 201.618071 238.831281 
L 202.780211 229.729213 
L 203.16759 232.844028 
L 203.55497 238.898758 
L 203.94235 234.771503 
L 204.32973 235.493739 
L 204.71711 246.157545 
L 205.10449 244.127006 
L 205.49187 244.974181 
L 205.87925 243.210906 
L 206.26663 239.277746 
L 206.65401 242.158548 
L 207.205517 250.05723 
L 207.592897 246.217151 
L 207.980277 247.840252 
L 208.637233 250.05723 
L 209.799372 239.198599 
L 210.212474 250.05723 
L 210.599854 248.656089 
L 210.987234 246.776918 
L 211.374614 241.718156 
L 211.761994 242.982069 
L 212.536754 234.668889 
L 212.924134 232.346427 
L 213.311514 233.961551 
L 213.698894 231.201969 
L 214.086274 231.405595 
L 214.473654 229.44665 
L 215.635793 217.882648 
L 216.023173 217.279055 
L 216.410553 220.645026 
L 216.797933 225.807855 
L 217.185313 227.753863 
L 217.572693 223.209468 
L 217.960073 223.850695 
L 218.347453 222.440706 
L 219.122213 214.47261 
L 219.509593 210.277387 
L 220.284352 212.774622 
L 221.059112 208.236897 
L 221.446492 207.371499 
L 221.833872 211.70968 
L 223.383392 194.92571 
L 223.770772 193.209374 
L 224.158152 188.708129 
L 224.545532 185.796779 
L 224.932911 187.253244 
L 225.320291 196.709241 
L 225.707671 191.676077 
L 226.482431 195.955228 
L 226.869811 197.93387 
L 227.257191 193.24475 
L 227.644571 200.206981 
L 228.419331 191.545335 
L 228.806711 193.5362 
L 229.194091 192.515058 
L 229.58147 194.154354 
L 229.96885 193.521829 
L 230.35623 188.570527 
L 230.74361 200.352617 
L 231.90575 189.540865 
L 232.29313 185.77811 
L 232.68051 186.458073 
L 233.84265 171.849848 
L 234.23003 170.868955 
L 234.617409 179.451994 
L 235.004789 174.30642 
L 235.392169 174.869477 
L 235.779549 178.972516 
L 236.166929 181.765884 
L 236.554309 198.15733 
L 236.941689 194.682217 
L 237.329069 195.802468 
L 237.716449 195.194174 
L 238.491209 186.19092 
L 239.265969 182.986634 
L 239.653348 182.303993 
L 240.040728 196.81556 
L 240.428108 199.667011 
L 240.815488 205.336324 
L 241.202868 204.986325 
L 241.977628 198.022211 
L 242.365008 209.754569 
L 242.752388 207.71486 
L 243.139768 203.890036 
L 243.527148 209.659757 
L 243.914528 219.954887 
L 244.301908 218.281459 
L 244.689287 227.820579 
L 245.076667 229.156614 
L 245.464047 232.301239 
L 245.851427 230.565695 
L 246.238807 230.542134 
L 246.626187 231.751666 
L 247.013567 237.328556 
L 247.400947 235.715544 
L 247.788327 232.322719 
L 248.563087 241.419813 
L 248.950467 237.348382 
L 249.337847 237.15108 
L 249.725226 239.666133 
L 250.112606 234.541554 
L 250.499986 248.355251 
L 250.887366 245.376799 
L 251.306352 250.05723 
L 251.693732 245.696183 
L 252.081112 248.376536 
L 253.508356 250.05723 
L 255.136072 250.05723 
L 255.523452 248.243545 
L 255.930772 250.05723 
L 256.318152 248.436474 
L 256.705532 243.263754 
L 257.092912 243.368601 
L 257.867671 236.999922 
L 258.255051 234.550881 
L 258.642431 230.121748 
L 259.029811 227.831327 
L 259.417191 231.605307 
L 260.579331 221.616845 
L 260.966711 220.142044 
L 261.741471 211.741568 
L 262.128851 227.050951 
L 262.516231 222.391958 
L 262.90361 219.904543 
L 263.29099 225.004274 
L 263.67837 224.184363 
L 264.06575 237.73465 
L 264.45313 234.727412 
L 264.84051 246.361305 
L 265.22789 249.245387 
L 266.085579 250.05723 
L 266.472959 247.61595 
L 266.867076 250.05723 
L 268.029216 241.541095 
L 268.416596 236.786595 
L 269.191355 230.981298 
L 269.578735 233.539925 
L 269.966115 229.718702 
L 270.353495 238.062895 
L 270.740875 233.607277 
L 271.128255 230.457257 
L 271.515635 225.548646 
L 271.903015 236.221153 
L 272.290395 237.7437 
L 273.065155 227.488772 
L 273.452535 226.254851 
L 273.839915 228.70738 
L 274.227294 225.400195 
L 274.614674 221.031872 
L 275.002054 226.975568 
L 276.164194 213.81061 
L 276.938954 215.089665 
L 277.326334 218.532969 
L 277.713714 214.801357 
L 278.488474 210.186947 
L 278.875854 212.237814 
L 279.263233 211.277058 
L 280.037993 220.312574 
L 280.425373 217.593515 
L 280.812753 219.143578 
L 281.587513 210.920223 
L 282.362273 202.801655 
L 282.749653 202.263211 
L 283.137033 197.365295 
L 283.524413 195.532795 
L 283.911792 192.203376 
L 284.299172 190.485805 
L 284.686552 186.870781 
L 285.461312 182.832629 
L 285.848692 181.500854 
L 286.236072 182.278579 
L 286.623452 180.11497 
L 287.010832 181.099174 
L 287.398212 185.850671 
L 287.785592 182.388509 
L 288.560352 177.434094 
L 288.947731 181.348729 
L 289.335111 177.192948 
L 289.722491 175.697179 
L 290.109871 178.573216 
L 290.884631 168.958813 
L 291.272011 169.368743 
L 291.659391 170.376407 
L 292.046771 166.38457 
L 292.434151 169.024133 
L 292.821531 173.590088 
L 293.208911 176.199513 
L 293.596291 176.945812 
L 295.14581 161.558241 
L 295.53319 160.964906 
L 295.92057 155.821681 
L 296.30795 152.28255 
L 296.69533 158.650571 
L 297.08271 155.863532 
L 297.85747 147.359853 
L 298.24485 150.011082 
L 298.63223 148.016248 
L 299.019609 156.287089 
L 299.406989 151.330335 
L 299.794369 152.659392 
L 300.181749 155.819385 
L 300.569129 154.131149 
L 300.956509 149.353274 
L 301.731269 146.057698 
L 302.118649 151.994716 
L 302.506029 148.704198 
L 302.893409 146.991452 
L 303.280789 146.272982 
L 303.668169 143.859971 
L 304.055548 155.311281 
L 304.442928 151.111044 
L 304.830308 151.304487 
L 305.217688 149.460217 
L 305.605068 144.45342 
L 305.992448 147.210534 
L 306.379828 144.939941 
L 306.767208 143.968175 
L 307.154588 142.479553 
L 307.541968 138.190498 
L 307.929348 136.986855 
L 308.316728 132.599587 
L 308.704108 133.34643 
L 309.091487 133.597233 
L 309.478867 130.092314 
L 309.866247 128.922893 
L 310.253627 124.445604 
L 311.415767 114.326868 
L 311.803147 125.404333 
L 312.965287 112.523586 
L 313.352667 119.50009 
L 313.740046 118.798607 
L 314.127426 117.681096 
L 314.514806 112.990053 
L 314.902186 110.966984 
L 315.676946 124.218613 
L 316.064326 119.474695 
L 316.451706 117.467837 
L 316.839086 120.642966 
L 317.226466 122.13858 
L 317.613846 127.834276 
L 318.001226 125.285178 
L 318.388606 120.601002 
L 318.775985 127.580776 
L 319.163365 125.272962 
L 319.550745 126.16247 
L 319.938125 124.297762 
L 320.325505 125.350615 
L 320.712885 124.664879 
L 321.100265 121.533445 
L 321.487645 122.881966 
L 321.875025 125.031069 
L 322.262405 119.97981 
L 322.649785 120.035742 
L 323.037165 121.669303 
L 323.424545 117.901021 
L 323.811924 120.272298 
L 324.586684 110.844583 
L 324.974064 113.917 
L 325.361444 110.637553 
L 325.748824 122.054824 
L 326.136204 118.237873 
L 326.910964 114.668552 
L 327.298344 114.118018 
L 327.685724 124.885131 
L 328.073104 129.81911 
L 328.460484 128.86355 
L 328.847863 126.843465 
L 329.235243 122.182309 
L 329.622623 132.746176 
L 330.010003 132.600807 
L 330.397383 131.860355 
L 331.172143 140.726197 
L 331.559523 136.423344 
L 331.946903 143.669612 
L 332.334283 163.839684 
L 332.721663 167.424618 
L 333.883802 153.721901 
L 334.658562 153.697649 
L 335.045942 151.143445 
L 335.433322 161.436389 
L 335.820702 156.57898 
L 336.208082 165.723187 
L 336.982842 161.281383 
L 337.370222 157.642243 
L 337.757602 159.204728 
L 338.144982 163.830987 
L 338.532362 165.678514 
L 338.919741 160.660649 
L 339.307121 157.371449 
L 339.694501 168.765384 
L 340.081881 164.234186 
L 341.244021 156.272112 
L 341.631401 153.660723 
L 342.018781 148.552442 
L 342.406161 147.300556 
L 342.793541 143.170727 
L 343.180921 147.671874 
L 343.568301 145.14212 
L 343.95568 143.939564 
L 344.34306 152.505098 
L 344.73044 153.233677 
L 345.11782 148.584887 
L 345.5052 148.270673 
L 345.89258 158.169616 
L 346.27996 153.514272 
L 346.66734 158.896565 
L 347.05472 154.204192 
L 347.4421 152.154898 
L 347.82948 147.260235 
L 348.21686 144.120931 
L 348.991619 135.579447 
L 349.378999 131.791744 
L 349.766379 131.548273 
L 350.153759 135.856739 
L 350.541139 130.837638 
L 350.928519 129.481644 
L 351.315899 124.369549 
L 351.703279 122.913444 
L 352.090659 120.628221 
L 352.478039 120.884494 
L 352.865419 116.056878 
L 353.252799 114.948311 
L 353.640178 111.262141 
L 354.414938 102.344172 
L 354.802318 101.657875 
L 355.189698 97.980393 
L 355.577078 100.444441 
L 355.964458 95.980254 
L 356.351838 93.237768 
L 356.739218 88.106873 
L 357.126598 86.42074 
L 357.513978 81.864307 
L 357.901358 97.433017 
L 358.288738 97.243925 
L 358.676117 93.507389 
L 359.063497 107.320592 
L 359.450877 104.562281 
L 359.838257 123.469125 
L 360.225637 118.518068 
L 360.613017 116.056372 
L 361.000397 112.790319 
L 361.387777 108.520385 
L 361.775157 112.576395 
L 362.162537 112.671013 
L 362.549917 116.021959 
L 362.937297 114.32849 
L 363.324677 114.441291 
L 363.712056 132.867936 
L 364.099436 130.058242 
L 364.486816 125.215212 
L 364.874196 121.969416 
L 365.648956 127.929807 
L 366.036336 124.503139 
L 366.811096 115.930048 
L 367.198476 116.712558 
L 367.585856 117.160279 
L 367.973236 114.45542 
L 368.360616 110.728601 
L 368.747995 110.754223 
L 369.135375 111.253827 
L 369.522755 119.645124 
L 369.910135 118.234374 
L 370.297515 123.032077 
L 370.684895 120.704232 
L 371.072275 119.086439 
L 371.459655 118.09432 
L 371.847035 115.800363 
L 372.234415 112.363873 
L 372.621795 116.150766 
L 373.009175 117.325249 
L 373.396555 119.09257 
L 374.558694 111.695037 
L 374.946074 124.527045 
L 375.333454 128.495553 
L 375.720834 125.645403 
L 376.108214 133.902623 
L 376.495594 131.340648 
L 376.882974 126.391484 
L 377.270354 128.167862 
L 377.657734 124.349297 
L 378.045114 122.251899 
L 378.432494 119.283688 
L 378.819873 128.47225 
L 379.207253 132.041517 
L 379.594633 128.392223 
L 379.982013 145.183823 
L 380.369393 142.487614 
L 380.756773 155.331103 
L 381.144153 156.341243 
L 381.918913 169.985542 
L 382.306293 166.618759 
L 382.693673 162.09517 
L 383.081053 181.985926 
L 384.630572 166.064049 
L 385.017952 164.362475 
L 385.405332 174.827794 
L 385.792712 181.170521 
L 386.567472 174.466125 
L 386.954852 175.351332 
L 387.342232 172.684421 
L 387.729612 167.802927 
L 388.116992 175.51898 
L 388.504371 177.13925 
L 388.891751 172.573035 
L 389.279131 178.466439 
L 389.666511 178.45241 
L 391.216031 164.979043 
L 391.990791 159.063523 
L 392.378171 161.044741 
L 392.765551 161.770808 
L 393.152931 157.987423 
L 393.54031 161.038032 
L 393.92769 156.823609 
L 394.31507 155.270903 
L 394.70245 153.175469 
L 395.47721 146.498335 
L 395.86459 152.581434 
L 396.25197 156.879431 
L 397.02673 150.154175 
L 397.41411 151.924747 
L 397.80149 150.355898 
L 398.18887 149.37164 
L 398.576249 159.018714 
L 398.963629 154.993748 
L 399.351009 155.020318 
L 399.738389 153.956745 
L 400.125769 159.252251 
L 400.513149 157.86668 
L 400.900529 167.303335 
L 401.287909 164.337224 
L 401.675289 166.35947 
L 402.062669 161.295153 
L 402.450049 162.347193 
L 402.837429 157.990345 
L 403.224809 170.668091 
L 403.612188 166.208669 
L 403.999568 187.945345 
L 404.386948 189.14365 
L 404.774328 187.072132 
L 405.161708 188.291009 
L 405.549088 183.478997 
L 405.936468 183.199061 
L 406.323848 179.804574 
L 406.711228 180.399046 
L 407.098608 176.063755 
L 407.873368 171.564549 
L 408.260748 172.556466 
L 408.648127 168.093678 
L 409.035507 165.368704 
L 409.422887 164.98768 
L 409.810267 160.341297 
L 410.197647 157.653902 
L 410.585027 169.211723 
L 410.972407 175.742791 
L 411.359787 170.939533 
L 411.359787 170.939533 
" clip-path="url(#pef85ac71af)" style="fill: none; stroke: #1f77b4; stroke-width: 1.5; stroke-linecap: square"/>
   </g>
   <g id="patch_3">
    <path d="M 24.26875 260.45 
L 24.26875 25.8 
" style="fill: none; stroke: #000000; stroke-width: 0.8; stroke-linejoin: miter; stroke-linecap: square"/>
   </g>
   <g id="patch_4">
    <path d="M 416.184882 260.45 
L 416.184882 25.8 
" style="fill: none; stroke: #000000; stroke-width: 0.8; stroke-linejoin: miter; stroke-linecap: square"/>
   </g>
   <g id="patch_5">
    <path d="M 24.26875 260.45 
L 416.184882 260.45 
" style="fill: none; stroke: #000000; stroke-width: 0.8; stroke-linejoin: miter; stroke-linecap: square"/>
   </g>
   <g id="patch_6">
    <path d="M 24.26875 25.8 
L 416.184882 25.8 
" style="fill: none; stroke: #000000; stroke-width: 0.8; stroke-linejoin: miter; stroke-linecap: square"/>
   </g>
   <g id="text_15">
    <!-- Resived_packet_delay -->
    <g transform="translate(154.309316 19.8)scale(0.12 -0.12)">
     <defs>
      <path id="DejaVuSans-52" d="M 2841 2188 
Q 3044 2119 3236 1894 
Q 3428 1669 3622 1275 
L 4263 0 
L 3584 0 
L 2988 1197 
Q 2756 1666 2539 1819 
Q 2322 1972 1947 1972 
L 1259 1972 
L 1259 0 
L 628 0 
L 628 4666 
L 2053 4666 
Q 2853 4666 3247 4331 
Q 3641 3997 3641 3322 
Q 3641 2881 3436 2590 
Q 3231 2300 2841 2188 
z
M 1259 4147 
L 1259 2491 
L 2053 2491 
Q 2509 2491 2742 2702 
Q 2975 2913 2975 3322 
Q 2975 3731 2742 3939 
Q 2509 4147 2053 4147 
L 1259 4147 
z
" transform="scale(0.015625)"/>
      <path id="DejaVuSans-65" d="M 3597 1894 
L 3597 1613 
L 953 1613 
Q 991 1019 1311 708 
Q 1631 397 2203 397 
Q 2534 397 2845 478 
Q 3156 559 3463 722 
L 3463 178 
Q 3153 47 2828 -22 
Q 2503 -91 2169 -91 
Q 1331 -91 842 396 
Q 353 884 353 1716 
Q 353 2575 817 3079 
Q 1281 3584 2069 3584 
Q 2775 3584 3186 3129 
Q 3597 2675 3597 1894 
z
M 3022 2063 
Q 3016 2534 2758 2815 
Q 2500 3097 2075 3097 
Q 1594 3097 1305 2825 
Q 1016 2553 972 2059 
L 3022 2063 
z
" transform="scale(0.015625)"/>
      <path id="DejaVuSans-73" d="M 2834 3397 
L 2834 2853 
Q 2591 2978 2328 3040 
Q 2066 3103 1784 3103 
Q 1356 3103 1142 2972 
Q 928 2841 928 2578 
Q 928 2378 1081 2264 
Q 1234 2150 1697 2047 
L 1894 2003 
Q 2506 1872 2764 1633 
Q 3022 1394 3022 966 
Q 3022 478 2636 193 
Q 2250 -91 1575 -91 
Q 1294 -91 989 -36 
Q 684 19 347 128 
L 347 722 
Q 666 556 975 473 
Q 1284 391 1588 391 
Q 1994 391 2212 530 
Q 2431 669 2431 922 
Q 2431 1156 2273 1281 
Q 2116 1406 1581 1522 
L 1381 1569 
Q 847 1681 609 1914 
Q 372 2147 372 2553 
Q 372 3047 722 3315 
Q 1072 3584 1716 3584 
Q 2034 3584 2315 3537 
Q 2597 3491 2834 3397 
z
" transform="scale(0.015625)"/>
      <path id="DejaVuSans-69" d="M 603 3500 
L 1178 3500 
L 1178 0 
L 603 0 
L 603 3500 
z
M 603 4863 
L 1178 4863 
L 1178 4134 
L 603 4134 
L 603 4863 
z
" transform="scale(0.015625)"/>
      <path id="DejaVuSans-76" d="M 191 3500 
L 800 3500 
L 1894 563 
L 2988 3500 
L 3597 3500 
L 2284 0 
L 1503 0 
L 191 3500 
z
" transform="scale(0.015625)"/>
      <path id="DejaVuSans-64" d="M 2906 2969 
L 2906 4863 
L 3481 4863 
L 3481 0 
L 2906 0 
L 2906 525 
Q 2725 213 2448 61 
Q 2172 -91 1784 -91 
Q 1150 -91 751 415 
Q 353 922 353 1747 
Q 353 2572 751 3078 
Q 1150 3584 1784 3584 
Q 2172 3584 2448 3432 
Q 2725 3281 2906 2969 
z
M 947 1747 
Q 947 1113 1208 752 
Q 1469 391 1925 391 
Q 2381 391 2643 752 
Q 2906 1113 2906 1747 
Q 2906 2381 2643 2742 
Q 2381 3103 1925 3103 
Q 1469 3103 1208 2742 
Q 947 2381 947 1747 
z
" transform="scale(0.015625)"/>
      <path id="DejaVuSans-5f" d="M 3263 -1063 
L 3263 -1509 
L -63 -1509 
L -63 -1063 
L 3263 -1063 
z
" transform="scale(0.015625)"/>
      <path id="DejaVuSans-70" d="M 1159 525 
L 1159 -1331 
L 581 -1331 
L 581 3500 
L 1159 3500 
L 1159 2969 
Q 1341 3281 1617 3432 
Q 1894 3584 2278 3584 
Q 2916 3584 3314 3078 
Q 3713 2572 3713 1747 
Q 3713 922 3314 415 
Q 2916 -91 2278 -91 
Q 1894 -91 1617 61 
Q 1341 213 1159 525 
z
M 3116 1747 
Q 3116 2381 2855 2742 
Q 2594 3103 2138 3103 
Q 1681 3103 1420 2742 
Q 1159 2381 1159 1747 
Q 1159 1113 1420 752 
Q 1681 391 2138 391 
Q 2594 391 2855 752 
Q 3116 1113 3116 1747 
z
" transform="scale(0.015625)"/>
      <path id="DejaVuSans-61" d="M 2194 1759 
Q 1497 1759 1228 1600 
Q 959 1441 959 1056 
Q 959 750 1161 570 
Q 1363 391 1709 391 
Q 2188 391 2477 730 
Q 2766 1069 2766 1631 
L 2766 1759 
L 2194 1759 
z
M 3341 1997 
L 3341 0 
L 2766 0 
L 2766 531 
Q 2569 213 2275 61 
Q 1981 -91 1556 -91 
Q 1019 -91 701 211 
Q 384 513 384 1019 
Q 384 1609 779 1909 
Q 1175 2209 1959 2209 
L 2766 2209 
L 2766 2266 
Q 2766 2663 2505 2880 
Q 2244 3097 1772 3097 
Q 1472 3097 1187 3025 
Q 903 2953 641 2809 
L 641 3341 
Q 956 3463 1253 3523 
Q 1550 3584 1831 3584 
Q 2591 3584 2966 3190 
Q 3341 2797 3341 1997 
z
" transform="scale(0.015625)"/>
      <path id="DejaVuSans-63" d="M 3122 3366 
L 3122 2828 
Q 2878 2963 2633 3030 
Q 2388 3097 2138 3097 
Q 1578 3097 1268 2742 
Q 959 2388 959 1747 
Q 959 1106 1268 751 
Q 1578 397 2138 397 
Q 2388 397 2633 464 
Q 2878 531 3122 666 
L 3122 134 
Q 2881 22 2623 -34 
Q 2366 -91 2075 -91 
Q 1284 -91 818 406 
Q 353 903 353 1747 
Q 353 2603 823 3093 
Q 1294 3584 2113 3584 
Q 2378 3584 2631 3529 
Q 2884 3475 3122 3366 
z
" transform="scale(0.015625)"/>
      <path id="DejaVuSans-6b" d="M 581 4863 
L 1159 4863 
L 1159 1991 
L 2875 3500 
L 3609 3500 
L 1753 1863 
L 3688 0 
L 2938 0 
L 1159 1709 
L 1159 0 
L 581 0 
L 581 4863 
z
" transform="scale(0.015625)"/>
      <path id="DejaVuSans-74" d="M 1172 4494 
L 1172 3500 
L 2356 3500 
L 2356 3053 
L 1172 3053 
L 1172 1153 
Q 1172 725 1289 603 
Q 1406 481 1766 481 
L 2356 481 
L 2356 0 
L 1766 0 
Q 1100 0 847 248 
Q 594 497 594 1153 
L 594 3053 
L 172 3053 
L 172 3500 
L 594 3500 
L 594 4494 
L 1172 4494 
z
" transform="scale(0.015625)"/>
      <path id="DejaVuSans-6c" d="M 603 4863 
L 1178 4863 
L 1178 0 
L 603 0 
L 603 4863 
z
" transform="scale(0.015625)"/>
      <path id="DejaVuSans-79" d="M 2059 -325 
Q 1816 -950 1584 -1140 
Q 1353 -1331 966 -1331 
L 506 -1331 
L 506 -850 
L 844 -850 
Q 1081 -850 1212 -737 
Q 1344 -625 1503 -206 
L 1606 56 
L 191 3500 
L 800 3500 
L 1894 763 
L 2988 3500 
L 3597 3500 
L 2059 -325 
z
" transform="scale(0.015625)"/>
     </defs>
     <use xlink:href="#DejaVuSans-52"/>
     <use xlink:href="#DejaVuSans-65" x="64.982422"/>
     <use xlink:href="#DejaVuSans-73" x="126.505859"/>
     <use xlink:href="#DejaVuSans-69" x="178.605469"/>
     <use xlink:href="#DejaVuSans-76" x="206.388672"/>
     <use xlink:href="#DejaVuSans-65" x="265.568359"/>
     <use xlink:href="#DejaVuSans-64" x="327.091797"/>
     <use xlink:href="#DejaVuSans-5f" x="390.568359"/>
     <use xlink:href="#DejaVuSans-70" x="440.568359"/>
     <use xlink:href="#DejaVuSans-61" x="504.044922"/>
     <use xlink:href="#DejaVuSans-63" x="565.324219"/>
     <use xlink:href="#DejaVuSans-6b" x="620.304688"/>
     <use xlink:href="#DejaVuSans-65" x="674.589844"/>
     <use xlink:href="#DejaVuSans-74" x="736.113281"/>
     <use xlink:href="#DejaVuSans-5f" x="775.322266"/>
     <use xlink:href="#DejaVuSans-64" x="825.322266"/>
     <use xlink:href="#DejaVuSans-65" x="888.798828"/>
     <use xlink:href="#DejaVuSans-6c" x="950.322266"/>
     <use xlink:href="#DejaVuSans-61" x="978.105469"/>
     <use xlink:href="#DejaVuSans-79" x="1039.384766"/>
    </g>
   </g>
   <g id="legend_1">
    <g id="patch_7">
     <path d="M 226.984882 48.478125 
L 409.184882 48.478125 
Q 411.184882 48.478125 411.184882 46.478125 
L 411.184882 32.8 
Q 411.184882 30.8 409.184882 30.8 
L 226.984882 30.8 
Q 224.984882 30.8 224.984882 32.8 
L 224.984882 46.478125 
Q 224.984882 48.478125 226.984882 48.478125 
z
" style="fill: #ffffff; opacity: 0.8; stroke: #cccccc; stroke-linejoin: miter"/>
    </g>
    <g id="line2d_30">
     <path d="M 228.984882 38.898437 
L 238.984882 38.898437 
L 248.984882 38.898437 
" style="fill: none; stroke: #1f77b4; stroke-width: 1.5; stroke-linecap: square"/>
    </g>
    <g id="text_16">
     <!-- Delay in Network.nodeRx.sink -->
     <g transform="translate(256.984882 42.398437)scale(0.1 -0.1)">
      <defs>
       <path id="DejaVuSans-44" d="M 1259 4147 
L 1259 519 
L 2022 519 
Q 2988 519 3436 956 
Q 3884 1394 3884 2338 
Q 3884 3275 3436 3711 
Q 2988 4147 2022 4147 
L 1259 4147 
z
M 628 4666 
L 1925 4666 
Q 3281 4666 3915 4102 
Q 4550 3538 4550 2338 
Q 4550 1131 3912 565 
Q 3275 0 1925 0 
L 628 0 
L 628 4666 
z
" transform="scale(0.015625)"/>
       <path id="DejaVuSans-20" transform="scale(0.015625)"/>
       <path id="DejaVuSans-6e" d="M 3513 2113 
L 3513 0 
L 2938 0 
L 2938 2094 
Q 2938 2591 2744 2837 
Q 2550 3084 2163 3084 
Q 1697 3084 1428 2787 
Q 1159 2491 1159 1978 
L 1159 0 
L 581 0 
L 581 3500 
L 1159 3500 
L 1159 2956 
Q 1366 3272 1645 3428 
Q 1925 3584 2291 3584 
Q 2894 3584 3203 3211 
Q 3513 2838 3513 2113 
z
" transform="scale(0.015625)"/>
       <path id="DejaVuSans-4e" d="M 628 4666 
L 1478 4666 
L 3547 763 
L 3547 4666 
L 4159 4666 
L 4159 0 
L 3309 0 
L 1241 3903 
L 1241 0 
L 628 0 
L 628 4666 
z
" transform="scale(0.015625)"/>
       <path id="DejaVuSans-77" d="M 269 3500 
L 844 3500 
L 1563 769 
L 2278 3500 
L 2956 3500 
L 3675 769 
L 4391 3500 
L 4966 3500 
L 4050 0 
L 3372 0 
L 2619 2869 
L 1863 0 
L 1184 0 
L 269 3500 
z
" transform="scale(0.015625)"/>
       <path id="DejaVuSans-6f" d="M 1959 3097 
Q 1497 3097 1228 2736 
Q 959 2375 959 1747 
Q 959 1119 1226 758 
Q 1494 397 1959 397 
Q 2419 397 2687 759 
Q 2956 1122 2956 1747 
Q 2956 2369 2687 2733 
Q 2419 3097 1959 3097 
z
M 1959 3584 
Q 2709 3584 3137 3096 
Q 3566 2609 3566 1747 
Q 3566 888 3137 398 
Q 2709 -91 1959 -91 
Q 1206 -91 779 398 
Q 353 888 353 1747 
Q 353 2609 779 3096 
Q 1206 3584 1959 3584 
z
" transform="scale(0.015625)"/>
       <path id="DejaVuSans-72" d="M 2631 2963 
Q 2534 3019 2420 3045 
Q 2306 3072 2169 3072 
Q 1681 3072 1420 2755 
Q 1159 2438 1159 1844 
L 1159 0 
L 581 0 
L 581 3500 
L 1159 3500 
L 1159 2956 
Q 1341 3275 1631 3429 
Q 1922 3584 2338 3584 
Q 2397 3584 2469 3576 
Q 2541 3569 2628 3553 
L 2631 2963 
z
" transform="scale(0.015625)"/>
       <path id="DejaVuSans-2e" d="M 684 794 
L 1344 794 
L 1344 0 
L 684 0 
L 684 794 
z
" transform="scale(0.015625)"/>
       <path id="DejaVuSans-78" d="M 3513 3500 
L 2247 1797 
L 3578 0 
L 2900 0 
L 1881 1375 
L 863 0 
L 184 0 
L 1544 1831 
L 300 3500 
L 978 3500 
L 1906 2253 
L 2834 3500 
L 3513 3500 
z
" transform="scale(0.015625)"/>
      </defs>
      <use xlink:href="#DejaVuSans-44"/>
      <use xlink:href="#DejaVuSans-65" x="77.001953"/>
      <use xlink:href="#DejaVuSans-6c" x="138.525391"/>
      <use xlink:href="#DejaVuSans-61" x="166.308594"/>
      <use xlink:href="#DejaVuSans-79" x="227.587891"/>
      <use xlink:href="#DejaVuSans-20" x="286.767578"/>
      <use xlink:href="#DejaVuSans-69" x="318.554688"/>
      <use xlink:href="#DejaVuSans-6e" x="346.337891"/>
      <use xlink:href="#DejaVuSans-20" x="409.716797"/>
      <use xlink:href="#DejaVuSans-4e" x="441.503906"/>
      <use xlink:href="#DejaVuSans-65" x="516.308594"/>
      <use xlink:href="#DejaVuSans-74" x="577.832031"/>
      <use xlink:href="#DejaVuSans-77" x="617.041016"/>
      <use xlink:href="#DejaVuSans-6f" x="698.828125"/>
      <use xlink:href="#DejaVuSans-72" x="760.009766"/>
      <use xlink:href="#DejaVuSans-6b" x="801.123047"/>
      <use xlink:href="#DejaVuSans-2e" x="859.033203"/>
      <use xlink:href="#DejaVuSans-6e" x="890.820312"/>
      <use xlink:href="#DejaVuSans-6f" x="954.199219"/>
      <use xlink:href="#DejaVuSans-64" x="1015.380859"/>
      <use xlink:href="#DejaVuSans-65" x="1078.857422"/>
      <use xlink:href="#DejaVuSans-52" x="1140.380859"/>
      <use xlink:href="#DejaVuSans-78" x="1209.863281"/>
      <use xlink:href="#DejaVuSans-2e" x="1269.042969"/>
      <use xlink:href="#DejaVuSans-73" x="1300.830078"/>
      <use xlink:href="#DejaVuSans-69" x="1352.929688"/>
      <use xlink:href="#DejaVuSans-6e" x="1380.712891"/>
      <use xlink:href="#DejaVuSans-6b" x="1444.091797"/>
     </g>
    </g>
   </g>
  </g>
 </g>
 <defs>
  <clipPath id="pef85ac71af">
   <rect x="24.26875" y="25.8" width="391.916132" height="234.65"/>
  </clipPath>
 </defs>
</svg>
