<?xml version="1.0" encoding="utf-8" standalone="no"?>
<!DOCTYPE svg PUBLIC "-//W3C//DTD SVG 1.1//EN"
  "http://www.w3.org/Graphics/SVG/1.1/DTD/svg11.dtd">
<svg xmlns:xlink="http://www.w3.org/1999/xlink" width="432pt" height="288pt" viewBox="0 0 432 288" xmlns="http://www.w3.org/2000/svg" version="1.1">
 <metadata>
  <rdf:RDF xmlns:dc="http://purl.org/dc/elements/1.1/" xmlns:cc="http://creativecommons.org/ns#" xmlns:rdf="http://www.w3.org/1999/02/22-rdf-syntax-ns#">
   <cc:Work>
    <dc:type rdf:resource="http://purl.org/dc/dcmitype/StillImage"/>
    <dc:date>2022-05-18T18:47:20.083926</dc:date>
    <dc:format>image/svg+xml</dc:format>
    <dc:creator>
     <cc:Agent>
      <dc:title>omnetpp.scave 6.0.0; Matplotlib 3.5.1 w/ backend GTK3Agg; Pandas 1.4.2; Python 3.8.10; Linux-5.4.0-109-generic-x86_64-with-glibc2.29</dc:title>
     </cc:Agent>
    </dc:creator>
   </cc:Work>
  </rdf:RDF>
 </metadata>
 <defs>
  <style type="text/css">*{stroke-linejoin: round; stroke-linecap: butt}</style>
 </defs>
 <g id="figure_1">
  <g id="patch_1">
   <path d="M 0 288 
L 432 288 
L 432 0 
L 0 0 
z
" style="fill: #ffffff"/>
  </g>
  <g id="axes_1">
   <g id="patch_2">
    <path d="M 30.64375 260.45 
L 416.168879 260.45 
L 416.168879 25.8 
L 30.64375 25.8 
z
" style="fill: #ffffff"/>
   </g>
   <g id="matplotlib.axis_1">
    <g id="xtick_1">
     <g id="line2d_1">
      <path d="M 30.64375 260.45 
L 30.64375 25.8 
" clip-path="url(#pd04551039e)" style="fill: none; stroke: #b0b0b0; stroke-width: 0.8; stroke-linecap: square"/>
     </g>
     <g id="line2d_2">
      <defs>
       <path id="m501c61b55d" d="M 0 0 
L 0 3.5 
" style="stroke: #000000; stroke-width: 0.8"/>
      </defs>
      <g>
       <use xlink:href="#m501c61b55d" x="30.64375" y="260.45" style="stroke: #000000; stroke-width: 0.8"/>
      </g>
     </g>
     <g id="text_1">
      <!-- 0 -->
      <g transform="translate(27.4625 275.048437)scale(0.1 -0.1)">
       <defs>
        <path id="DejaVuSans-30" d="M 2034 4250 
Q 1547 4250 1301 3770 
Q 1056 3291 1056 2328 
Q 1056 1369 1301 889 
Q 1547 409 2034 409 
Q 2525 409 2770 889 
Q 3016 1369 3016 2328 
Q 3016 3291 2770 3770 
Q 2525 4250 2034 4250 
z
M 2034 4750 
Q 2819 4750 3233 4129 
Q 3647 3509 3647 2328 
Q 3647 1150 3233 529 
Q 2819 -91 2034 -91 
Q 1250 -91 836 529 
Q 422 1150 422 2328 
Q 422 3509 836 4129 
Q 1250 4750 2034 4750 
z
" transform="scale(0.015625)"/>
       </defs>
       <use xlink:href="#DejaVuSans-30"/>
      </g>
     </g>
    </g>
    <g id="xtick_2">
     <g id="line2d_3">
      <path d="M 78.269481 260.45 
L 78.269481 25.8 
" clip-path="url(#pd04551039e)" style="fill: none; stroke: #b0b0b0; stroke-width: 0.8; stroke-linecap: square"/>
     </g>
     <g id="line2d_4">
      <g>
       <use xlink:href="#m501c61b55d" x="78.269481" y="260.45" style="stroke: #000000; stroke-width: 0.8"/>
      </g>
     </g>
     <g id="text_2">
      <!-- 25 -->
      <g transform="translate(71.906981 275.048437)scale(0.1 -0.1)">
       <defs>
        <path id="DejaVuSans-32" d="M 1228 531 
L 3431 531 
L 3431 0 
L 469 0 
L 469 531 
Q 828 903 1448 1529 
Q 2069 2156 2228 2338 
Q 2531 2678 2651 2914 
Q 2772 3150 2772 3378 
Q 2772 3750 2511 3984 
Q 2250 4219 1831 4219 
Q 1534 4219 1204 4116 
Q 875 4013 500 3803 
L 500 4441 
Q 881 4594 1212 4672 
Q 1544 4750 1819 4750 
Q 2544 4750 2975 4387 
Q 3406 4025 3406 3419 
Q 3406 3131 3298 2873 
Q 3191 2616 2906 2266 
Q 2828 2175 2409 1742 
Q 1991 1309 1228 531 
z
" transform="scale(0.015625)"/>
        <path id="DejaVuSans-35" d="M 691 4666 
L 3169 4666 
L 3169 4134 
L 1269 4134 
L 1269 2991 
Q 1406 3038 1543 3061 
Q 1681 3084 1819 3084 
Q 2600 3084 3056 2656 
Q 3513 2228 3513 1497 
Q 3513 744 3044 326 
Q 2575 -91 1722 -91 
Q 1428 -91 1123 -41 
Q 819 9 494 109 
L 494 744 
Q 775 591 1075 516 
Q 1375 441 1709 441 
Q 2250 441 2565 725 
Q 2881 1009 2881 1497 
Q 2881 1984 2565 2268 
Q 2250 2553 1709 2553 
Q 1456 2553 1204 2497 
Q 953 2441 691 2322 
L 691 4666 
z
" transform="scale(0.015625)"/>
       </defs>
       <use xlink:href="#DejaVuSans-32"/>
       <use xlink:href="#DejaVuSans-35" x="63.623047"/>
      </g>
     </g>
    </g>
    <g id="xtick_3">
     <g id="line2d_5">
      <path d="M 125.895213 260.45 
L 125.895213 25.8 
" clip-path="url(#pd04551039e)" style="fill: none; stroke: #b0b0b0; stroke-width: 0.8; stroke-linecap: square"/>
     </g>
     <g id="line2d_6">
      <g>
       <use xlink:href="#m501c61b55d" x="125.895213" y="260.45" style="stroke: #000000; stroke-width: 0.8"/>
      </g>
     </g>
     <g id="text_3">
      <!-- 50 -->
      <g transform="translate(119.532713 275.048437)scale(0.1 -0.1)">
       <use xlink:href="#DejaVuSans-35"/>
       <use xlink:href="#DejaVuSans-30" x="63.623047"/>
      </g>
     </g>
    </g>
    <g id="xtick_4">
     <g id="line2d_7">
      <path d="M 173.520944 260.45 
L 173.520944 25.8 
" clip-path="url(#pd04551039e)" style="fill: none; stroke: #b0b0b0; stroke-width: 0.8; stroke-linecap: square"/>
     </g>
     <g id="line2d_8">
      <g>
       <use xlink:href="#m501c61b55d" x="173.520944" y="260.45" style="stroke: #000000; stroke-width: 0.8"/>
      </g>
     </g>
     <g id="text_4">
      <!-- 75 -->
      <g transform="translate(167.158444 275.048437)scale(0.1 -0.1)">
       <defs>
        <path id="DejaVuSans-37" d="M 525 4666 
L 3525 4666 
L 3525 4397 
L 1831 0 
L 1172 0 
L 2766 4134 
L 525 4134 
L 525 4666 
z
" transform="scale(0.015625)"/>
       </defs>
       <use xlink:href="#DejaVuSans-37"/>
       <use xlink:href="#DejaVuSans-35" x="63.623047"/>
      </g>
     </g>
    </g>
    <g id="xtick_5">
     <g id="line2d_9">
      <path d="M 221.146676 260.45 
L 221.146676 25.8 
" clip-path="url(#pd04551039e)" style="fill: none; stroke: #b0b0b0; stroke-width: 0.8; stroke-linecap: square"/>
     </g>
     <g id="line2d_10">
      <g>
       <use xlink:href="#m501c61b55d" x="221.146676" y="260.45" style="stroke: #000000; stroke-width: 0.8"/>
      </g>
     </g>
     <g id="text_5">
      <!-- 100 -->
      <g transform="translate(211.602926 275.048437)scale(0.1 -0.1)">
       <defs>
        <path id="DejaVuSans-31" d="M 794 531 
L 1825 531 
L 1825 4091 
L 703 3866 
L 703 4441 
L 1819 4666 
L 2450 4666 
L 2450 531 
L 3481 531 
L 3481 0 
L 794 0 
L 794 531 
z
" transform="scale(0.015625)"/>
       </defs>
       <use xlink:href="#DejaVuSans-31"/>
       <use xlink:href="#DejaVuSans-30" x="63.623047"/>
       <use xlink:href="#DejaVuSans-30" x="127.246094"/>
      </g>
     </g>
    </g>
    <g id="xtick_6">
     <g id="line2d_11">
      <path d="M 268.772407 260.45 
L 268.772407 25.8 
" clip-path="url(#pd04551039e)" style="fill: none; stroke: #b0b0b0; stroke-width: 0.8; stroke-linecap: square"/>
     </g>
     <g id="line2d_12">
      <g>
       <use xlink:href="#m501c61b55d" x="268.772407" y="260.45" style="stroke: #000000; stroke-width: 0.8"/>
      </g>
     </g>
     <g id="text_6">
      <!-- 125 -->
      <g transform="translate(259.228657 275.048437)scale(0.1 -0.1)">
       <use xlink:href="#DejaVuSans-31"/>
       <use xlink:href="#DejaVuSans-32" x="63.623047"/>
       <use xlink:href="#DejaVuSans-35" x="127.246094"/>
      </g>
     </g>
    </g>
    <g id="xtick_7">
     <g id="line2d_13">
      <path d="M 316.398139 260.45 
L 316.398139 25.8 
" clip-path="url(#pd04551039e)" style="fill: none; stroke: #b0b0b0; stroke-width: 0.8; stroke-linecap: square"/>
     </g>
     <g id="line2d_14">
      <g>
       <use xlink:href="#m501c61b55d" x="316.398139" y="260.45" style="stroke: #000000; stroke-width: 0.8"/>
      </g>
     </g>
     <g id="text_7">
      <!-- 150 -->
      <g transform="translate(306.854389 275.048437)scale(0.1 -0.1)">
       <use xlink:href="#DejaVuSans-31"/>
       <use xlink:href="#DejaVuSans-35" x="63.623047"/>
       <use xlink:href="#DejaVuSans-30" x="127.246094"/>
      </g>
     </g>
    </g>
    <g id="xtick_8">
     <g id="line2d_15">
      <path d="M 364.02387 260.45 
L 364.02387 25.8 
" clip-path="url(#pd04551039e)" style="fill: none; stroke: #b0b0b0; stroke-width: 0.8; stroke-linecap: square"/>
     </g>
     <g id="line2d_16">
      <g>
       <use xlink:href="#m501c61b55d" x="364.02387" y="260.45" style="stroke: #000000; stroke-width: 0.8"/>
      </g>
     </g>
     <g id="text_8">
      <!-- 175 -->
      <g transform="translate(354.48012 275.048437)scale(0.1 -0.1)">
       <use xlink:href="#DejaVuSans-31"/>
       <use xlink:href="#DejaVuSans-37" x="63.623047"/>
       <use xlink:href="#DejaVuSans-35" x="127.246094"/>
      </g>
     </g>
    </g>
    <g id="xtick_9">
     <g id="line2d_17">
      <path d="M 411.649602 260.45 
L 411.649602 25.8 
" clip-path="url(#pd04551039e)" style="fill: none; stroke: #b0b0b0; stroke-width: 0.8; stroke-linecap: square"/>
     </g>
     <g id="line2d_18">
      <g>
       <use xlink:href="#m501c61b55d" x="411.649602" y="260.45" style="stroke: #000000; stroke-width: 0.8"/>
      </g>
     </g>
     <g id="text_9">
      <!-- 200 -->
      <g transform="translate(402.105852 275.048437)scale(0.1 -0.1)">
       <use xlink:href="#DejaVuSans-32"/>
       <use xlink:href="#DejaVuSans-30" x="63.623047"/>
       <use xlink:href="#DejaVuSans-30" x="127.246094"/>
      </g>
     </g>
    </g>
   </g>
   <g id="matplotlib.axis_2">
    <g id="ytick_1">
     <g id="line2d_19">
      <path d="M 30.64375 260.45 
L 416.168879 260.45 
" clip-path="url(#pd04551039e)" style="fill: none; stroke: #b0b0b0; stroke-width: 0.8; stroke-linecap: square"/>
     </g>
     <g id="line2d_20">
      <defs>
       <path id="m71a280d0a9" d="M 0 0 
L -3.5 0 
" style="stroke: #000000; stroke-width: 0.8"/>
      </defs>
      <g>
       <use xlink:href="#m71a280d0a9" x="30.64375" y="260.45" style="stroke: #000000; stroke-width: 0.8"/>
      </g>
     </g>
     <g id="text_10">
      <!-- 0 -->
      <g transform="translate(17.28125 264.249219)scale(0.1 -0.1)">
       <use xlink:href="#DejaVuSans-30"/>
      </g>
     </g>
    </g>
    <g id="ytick_2">
     <g id="line2d_21">
      <path d="M 30.64375 219.784953 
L 416.168879 219.784953 
" clip-path="url(#pd04551039e)" style="fill: none; stroke: #b0b0b0; stroke-width: 0.8; stroke-linecap: square"/>
     </g>
     <g id="line2d_22">
      <g>
       <use xlink:href="#m71a280d0a9" x="30.64375" y="219.784953" style="stroke: #000000; stroke-width: 0.8"/>
      </g>
     </g>
     <g id="text_11">
      <!-- 10 -->
      <g transform="translate(10.91875 223.584171)scale(0.1 -0.1)">
       <use xlink:href="#DejaVuSans-31"/>
       <use xlink:href="#DejaVuSans-30" x="63.623047"/>
      </g>
     </g>
    </g>
    <g id="ytick_3">
     <g id="line2d_23">
      <path d="M 30.64375 179.119905 
L 416.168879 179.119905 
" clip-path="url(#pd04551039e)" style="fill: none; stroke: #b0b0b0; stroke-width: 0.8; stroke-linecap: square"/>
     </g>
     <g id="line2d_24">
      <g>
       <use xlink:href="#m71a280d0a9" x="30.64375" y="179.119905" style="stroke: #000000; stroke-width: 0.8"/>
      </g>
     </g>
     <g id="text_12">
      <!-- 20 -->
      <g transform="translate(10.91875 182.919124)scale(0.1 -0.1)">
       <use xlink:href="#DejaVuSans-32"/>
       <use xlink:href="#DejaVuSans-30" x="63.623047"/>
      </g>
     </g>
    </g>
    <g id="ytick_4">
     <g id="line2d_25">
      <path d="M 30.64375 138.454858 
L 416.168879 138.454858 
" clip-path="url(#pd04551039e)" style="fill: none; stroke: #b0b0b0; stroke-width: 0.8; stroke-linecap: square"/>
     </g>
     <g id="line2d_26">
      <g>
       <use xlink:href="#m71a280d0a9" x="30.64375" y="138.454858" style="stroke: #000000; stroke-width: 0.8"/>
      </g>
     </g>
     <g id="text_13">
      <!-- 30 -->
      <g transform="translate(10.91875 142.254077)scale(0.1 -0.1)">
       <defs>
        <path id="DejaVuSans-33" d="M 2597 2516 
Q 3050 2419 3304 2112 
Q 3559 1806 3559 1356 
Q 3559 666 3084 287 
Q 2609 -91 1734 -91 
Q 1441 -91 1130 -33 
Q 819 25 488 141 
L 488 750 
Q 750 597 1062 519 
Q 1375 441 1716 441 
Q 2309 441 2620 675 
Q 2931 909 2931 1356 
Q 2931 1769 2642 2001 
Q 2353 2234 1838 2234 
L 1294 2234 
L 1294 2753 
L 1863 2753 
Q 2328 2753 2575 2939 
Q 2822 3125 2822 3475 
Q 2822 3834 2567 4026 
Q 2313 4219 1838 4219 
Q 1578 4219 1281 4162 
Q 984 4106 628 3988 
L 628 4550 
Q 988 4650 1302 4700 
Q 1616 4750 1894 4750 
Q 2613 4750 3031 4423 
Q 3450 4097 3450 3541 
Q 3450 3153 3228 2886 
Q 3006 2619 2597 2516 
z
" transform="scale(0.015625)"/>
       </defs>
       <use xlink:href="#DejaVuSans-33"/>
       <use xlink:href="#DejaVuSans-30" x="63.623047"/>
      </g>
     </g>
    </g>
    <g id="ytick_5">
     <g id="line2d_27">
      <path d="M 30.64375 97.78981 
L 416.168879 97.78981 
" clip-path="url(#pd04551039e)" style="fill: none; stroke: #b0b0b0; stroke-width: 0.8; stroke-linecap: square"/>
     </g>
     <g id="line2d_28">
      <g>
       <use xlink:href="#m71a280d0a9" x="30.64375" y="97.78981" style="stroke: #000000; stroke-width: 0.8"/>
      </g>
     </g>
     <g id="text_14">
      <!-- 40 -->
      <g transform="translate(10.91875 101.589029)scale(0.1 -0.1)">
       <defs>
        <path id="DejaVuSans-34" d="M 2419 4116 
L 825 1625 
L 2419 1625 
L 2419 4116 
z
M 2253 4666 
L 3047 4666 
L 3047 1625 
L 3713 1625 
L 3713 1100 
L 3047 1100 
L 3047 0 
L 2419 0 
L 2419 1100 
L 313 1100 
L 313 1709 
L 2253 4666 
z
" transform="scale(0.015625)"/>
       </defs>
       <use xlink:href="#DejaVuSans-34"/>
       <use xlink:href="#DejaVuSans-30" x="63.623047"/>
      </g>
     </g>
    </g>
    <g id="ytick_6">
     <g id="line2d_29">
      <path d="M 30.64375 57.124763 
L 416.168879 57.124763 
" clip-path="url(#pd04551039e)" style="fill: none; stroke: #b0b0b0; stroke-width: 0.8; stroke-linecap: square"/>
     </g>
     <g id="line2d_30">
      <g>
       <use xlink:href="#m71a280d0a9" x="30.64375" y="57.124763" style="stroke: #000000; stroke-width: 0.8"/>
      </g>
     </g>
     <g id="text_15">
      <!-- 50 -->
      <g transform="translate(10.91875 60.923982)scale(0.1 -0.1)">
       <use xlink:href="#DejaVuSans-35"/>
       <use xlink:href="#DejaVuSans-30" x="63.623047"/>
      </g>
     </g>
    </g>
   </g>
   <g id="line2d_31">
    <path d="M 31.557759 258.822585 
L 32.319771 258.072108 
L 32.700777 258.015016 
L 33.081783 257.577144 
L 33.462788 257.55744 
L 33.843794 257.064255 
L 34.2248 257.015035 
L 34.986812 256.009818 
L 35.367818 255.618685 
L 36.510835 253.753707 
L 36.891841 253.844603 
L 37.272847 253.055044 
L 37.653853 253.589754 
L 38.79687 251.740066 
L 39.558882 251.431462 
L 41.082905 249.294457 
L 41.463911 249.537737 
L 41.844917 249.459811 
L 42.987935 247.254311 
L 43.368941 246.865802 
L 44.130952 245.43426 
L 44.511958 245.347842 
L 44.892964 245.815559 
L 45.27397 245.614586 
L 45.654976 244.862783 
L 46.416987 244.895806 
L 46.797993 245.646166 
L 47.178999 245.093816 
L 47.941011 244.77632 
L 48.703022 243.70028 
L 49.084028 243.503679 
L 49.465034 243.152308 
L 49.84604 242.390194 
L 50.608052 241.69753 
L 50.989058 241.238959 
L 51.370063 240.488579 
L 51.751069 239.988738 
L 52.132075 240.352455 
L 52.513081 240.117153 
L 52.894087 239.603889 
L 53.656099 238.240599 
L 54.41811 236.999898 
L 54.799116 236.27045 
L 55.561128 235.792044 
L 56.704145 234.040789 
L 57.847163 231.826991 
L 58.228169 231.404636 
L 58.609175 230.657268 
L 58.99018 230.229064 
L 59.371186 229.518012 
L 59.752192 229.094912 
L 60.133198 228.480283 
L 60.514204 228.837287 
L 60.89521 228.97104 
L 61.276216 228.62341 
L 62.800239 226.414197 
L 63.181245 226.546908 
L 63.562251 226.220005 
L 64.324262 224.661182 
L 64.705268 225.271244 
L 65.848286 224.160415 
L 67.372309 221.315922 
L 67.753315 221.067476 
L 68.134321 220.40828 
L 68.515327 219.975629 
L 70.420356 216.846921 
L 70.801362 216.442658 
L 71.182368 217.44078 
L 71.563374 217.925892 
L 71.944379 217.156361 
L 72.325385 216.773226 
L 72.706391 216.055204 
L 73.087397 215.651814 
L 73.468403 214.910049 
L 73.849409 216.276435 
L 74.61142 215.434937 
L 75.373432 214.144694 
L 77.278461 211.176955 
L 78.421479 209.409093 
L 78.802485 209.030124 
L 79.564496 207.619156 
L 79.945502 207.418529 
L 80.326508 206.694236 
L 80.707514 207.095677 
L 81.08852 206.469441 
L 81.469526 206.097872 
L 81.850532 205.984145 
L 82.612543 204.404637 
L 82.993549 203.987861 
L 83.374555 203.914591 
L 83.755561 203.556663 
L 84.136567 202.784448 
L 84.898578 204.135593 
L 85.279584 204.178422 
L 86.041596 203.098732 
L 86.422602 203.815221 
L 86.803608 203.025232 
L 87.946625 201.753502 
L 89.089643 199.575093 
L 89.470649 198.896967 
L 89.851654 199.666175 
L 90.994672 197.602283 
L 91.375678 197.055601 
L 91.756684 196.293696 
L 92.13769 195.954904 
L 92.518695 195.297229 
L 92.899701 195.34775 
L 93.280707 194.75196 
L 93.661713 194.956876 
L 94.423725 193.456618 
L 95.185736 192.64821 
L 95.566742 192.174908 
L 95.947748 192.176226 
L 96.328754 191.488342 
L 96.328754 259.810459 
L 96.70976 190.964271 
L 96.70976 259.810459 
L 96.70976 259.403808 
L 97.090766 190.4522 
L 97.090766 259.810459 
L 97.090766 259.403808 
L 97.471771 190.649662 
L 97.471771 259.998735 
L 97.471771 259.434999 
L 97.852777 189.876477 
L 97.852777 259.998735 
L 97.852777 259.592084 
L 98.233783 190.096192 
L 98.233783 259.998735 
L 98.233783 259.592084 
L 98.614789 189.631755 
L 98.614789 259.998735 
L 98.614789 259.592084 
L 98.995795 188.853739 
L 98.995795 259.998735 
L 98.995795 259.592084 
L 99.376801 189.117759 
L 99.376801 259.998735 
L 99.376801 259.592084 
L 99.757807 188.436758 
L 99.757807 259.998735 
L 99.757807 259.592084 
L 100.138812 187.779432 
L 100.138812 259.998735 
L 100.138812 259.592084 
L 100.519818 186.969954 
L 100.519818 259.998735 
L 100.519818 259.592084 
L 100.900824 186.604313 
L 100.900824 259.998735 
L 100.900824 259.592084 
L 101.28183 186.542229 
L 101.28183 259.998735 
L 101.28183 259.592084 
L 101.662836 185.7864 
L 101.662836 259.998735 
L 101.662836 259.592084 
L 102.043842 185.396739 
L 102.043842 259.998735 
L 102.043842 259.592084 
L 102.424848 185.095791 
L 102.424848 259.998735 
L 102.424848 259.592084 
L 102.805853 185.031249 
L 102.805853 259.998735 
L 102.805853 259.592084 
L 103.186859 184.356881 
L 103.186859 259.998735 
L 103.186859 259.592084 
L 103.567865 183.668633 
L 103.567865 259.998735 
L 103.567865 259.592084 
L 103.948871 182.937618 
L 103.948871 259.998735 
L 103.948871 259.592084 
L 104.329877 182.33057 
L 104.329877 259.998735 
L 104.329877 259.592084 
L 104.710883 181.876394 
L 104.710883 259.998735 
L 104.710883 259.592084 
L 105.091889 181.390364 
L 105.091889 259.592084 
L 105.472894 180.585323 
L 105.8539 179.845322 
L 105.8539 259.644694 
L 105.8539 259.238043 
L 106.234906 179.75006 
L 106.234906 259.644694 
L 106.234906 259.238043 
L 106.615912 179.124523 
L 106.615912 259.644694 
L 106.615912 259.238043 
L 106.996918 178.313136 
L 106.996918 259.644694 
L 106.996918 259.238043 
L 107.377924 177.564224 
L 107.377924 259.644694 
L 107.377924 259.238043 
L 107.758929 177.21151 
L 107.758929 259.644694 
L 107.758929 259.238043 
L 108.139935 176.741049 
L 108.139935 259.644694 
L 108.139935 259.238043 
L 108.520941 176.055729 
L 108.520941 259.644694 
L 108.520941 259.238043 
L 108.901947 175.737122 
L 108.901947 259.644694 
L 108.901947 259.238043 
L 109.282953 175.464161 
L 109.282953 259.644694 
L 109.282953 259.238043 
L 109.663959 174.789263 
L 109.663959 259.644694 
L 109.663959 259.238043 
L 110.044965 175.3078 
L 110.044965 259.644694 
L 110.044965 259.238043 
L 110.42597 174.725438 
L 110.42597 259.644694 
L 110.42597 259.238043 
L 110.806976 174.028447 
L 110.806976 259.644694 
L 110.806976 259.238043 
L 111.187982 173.78894 
L 111.187982 259.644694 
L 111.187982 259.238043 
L 111.568988 173.324705 
L 111.568988 259.644694 
L 111.568988 259.238043 
L 111.949994 172.716496 
L 111.949994 259.644694 
L 111.949994 259.238043 
L 112.331 172.267794 
L 112.331 259.238043 
L 112.712006 172.375041 
L 112.712006 259.238043 
L 113.093011 171.907076 
L 113.093011 259.238043 
L 113.474017 171.508014 
L 113.474017 259.238043 
L 113.855023 170.797359 
L 113.855023 259.238043 
L 114.236029 170.887435 
L 114.236029 259.238043 
L 114.617035 171.315346 
L 114.617035 259.238043 
L 114.998041 170.965467 
L 114.998041 259.238043 
L 115.379047 170.393157 
L 115.379047 259.238043 
L 115.760052 169.822374 
L 115.760052 259.238043 
L 116.141058 169.770917 
L 116.141058 259.238043 
L 116.522064 170.520376 
L 116.522064 259.238043 
L 116.90307 170.195966 
L 116.90307 259.238043 
L 117.284076 169.432897 
L 117.284076 259.238043 
L 117.665082 168.763152 
L 117.665082 259.238043 
L 118.046087 168.542267 
L 118.046087 259.238043 
L 118.427093 168.412514 
L 118.427093 259.238043 
L 118.808099 167.815032 
L 118.808099 259.238043 
L 119.189105 167.207097 
L 119.189105 259.238043 
L 119.570111 166.851392 
L 119.570111 259.238043 
L 119.951117 166.904053 
L 119.951117 259.238043 
L 120.332123 166.207628 
L 120.332123 259.238043 
L 120.713128 165.748331 
L 120.713128 259.238043 
L 121.094134 165.087824 
L 121.094134 259.410335 
L 121.47514 165.142653 
L 121.47514 259.693321 
L 121.856146 165.697475 
L 121.856146 259.286671 
L 122.237152 165.363771 
L 122.237152 259.286671 
L 122.618158 164.911519 
L 122.618158 259.313672 
L 122.999164 164.623573 
L 122.999164 259.313672 
L 123.380169 164.248575 
L 123.380169 259.313672 
L 123.761175 163.718221 
L 123.761175 259.313672 
L 124.142181 163.214734 
L 124.142181 259.313672 
L 124.523187 163.672406 
L 124.523187 259.313672 
L 124.904193 162.965671 
L 124.904193 259.313672 
L 125.285199 162.572357 
L 125.285199 259.313672 
L 125.666205 161.963321 
L 125.666205 259.313672 
L 126.04721 161.374246 
L 126.04721 259.313672 
L 126.428216 160.95314 
L 126.428216 259.313672 
L 126.809222 160.519001 
L 126.809222 259.313672 
L 127.190228 159.967626 
L 127.190228 259.313672 
L 127.571234 159.162206 
L 127.571234 259.313672 
L 127.95224 158.60718 
L 127.95224 259.313672 
L 128.333245 157.939837 
L 128.333245 259.313672 
L 128.714251 157.638526 
L 128.714251 259.313672 
L 129.095257 157.264132 
L 129.095257 259.313672 
L 129.476263 156.588955 
L 129.476263 259.313672 
L 129.857269 155.914973 
L 129.857269 259.313672 
L 130.238275 155.298343 
L 130.238275 259.313672 
L 130.619281 154.876392 
L 130.619281 259.313672 
L 131.000286 154.62548 
L 131.000286 259.313672 
L 131.381292 154.039888 
L 131.381292 259.313672 
L 131.762298 154.083581 
L 131.762298 259.313672 
L 132.143304 153.329478 
L 132.143304 259.313672 
L 132.52431 152.560318 
L 132.52431 259.313672 
L 132.905316 151.891062 
L 132.905316 259.313672 
L 133.286322 151.117175 
L 133.286322 259.313672 
L 133.667327 150.647042 
L 133.667327 259.313672 
L 134.048333 150.011458 
L 134.048333 259.313672 
L 134.429339 149.561593 
L 134.429339 259.313672 
L 134.810345 149.07465 
L 134.810345 259.313672 
L 135.191351 148.608661 
L 135.191351 259.313672 
L 135.572357 147.809269 
L 135.572357 259.313672 
L 135.953363 147.426615 
L 135.953363 259.313672 
L 136.334368 148.025422 
L 136.334368 259.313672 
L 136.715374 147.641483 
L 136.715374 259.313672 
L 137.09638 146.985608 
L 137.09638 259.313672 
L 137.477386 146.401906 
L 137.477386 259.313672 
L 137.858392 145.690301 
L 137.858392 259.313672 
L 138.239398 145.799541 
L 138.239398 259.313672 
L 138.620403 145.048171 
L 138.620403 259.313672 
L 139.001409 144.421186 
L 139.001409 259.313672 
L 139.382415 143.649494 
L 139.382415 259.313672 
L 139.763421 143.068985 
L 139.763421 259.313672 
L 140.144427 143.938326 
L 140.144427 259.313672 
L 140.525433 144.029788 
L 140.525433 259.313672 
L 140.906439 143.339119 
L 140.906439 259.313672 
L 141.287444 143.193089 
L 141.287444 259.313672 
L 141.66845 142.692941 
L 141.66845 259.313672 
L 142.049456 142.374541 
L 142.049456 259.313672 
L 142.430462 141.80282 
L 142.430462 259.313672 
L 142.811468 141.032467 
L 142.811468 259.346851 
L 143.192474 140.261816 
L 143.57348 140.472983 
L 143.57348 259.625143 
L 143.954485 139.836309 
L 144.335491 139.532381 
L 144.335491 259.707229 
L 144.716497 138.976678 
L 144.716497 259.728161 
L 144.716497 259.300579 
L 145.097503 140.914526 
L 145.097503 259.728161 
L 145.097503 259.321511 
L 145.478509 140.849354 
L 145.478509 259.321511 
L 145.859515 140.101877 
L 145.859515 259.321511 
L 146.240521 140.244277 
L 146.240521 259.321511 
L 146.621526 140.254813 
L 146.621526 259.321511 
L 147.002532 139.45708 
L 147.002532 259.321511 
L 147.383538 138.715888 
L 147.383538 259.321511 
L 147.764544 138.191276 
L 147.764544 259.321511 
L 148.14555 137.766719 
L 148.14555 259.321511 
L 148.526556 137.027647 
L 148.526556 259.321511 
L 148.907561 136.268099 
L 148.907561 259.321511 
L 149.288567 136.068768 
L 149.288567 259.321511 
L 149.669573 136.021568 
L 149.669573 259.815216 
L 150.050579 136.022376 
L 150.050579 259.408565 
L 150.431585 135.878714 
L 150.431585 259.415637 
L 150.812591 135.280939 
L 150.812591 259.415637 
L 151.193597 134.809989 
L 151.193597 259.415637 
L 151.574602 134.058008 
L 151.574602 259.415637 
L 151.955608 133.457332 
L 151.955608 259.415637 
L 152.336614 132.65777 
L 152.336614 259.415637 
L 152.71762 131.873616 
L 152.71762 259.415637 
L 153.098626 132.707188 
L 153.098626 259.415637 
L 153.479632 132.380012 
L 153.479632 259.415637 
L 153.860638 131.756728 
L 153.860638 259.415637 
L 154.241643 131.189165 
L 154.241643 259.415637 
L 154.622649 130.597431 
L 154.622649 259.415637 
L 155.003655 130.304779 
L 155.003655 259.415637 
L 155.384661 129.512588 
L 155.384661 259.415637 
L 155.765667 129.517782 
L 155.765667 259.415637 
L 156.146673 128.889471 
L 156.146673 259.415637 
L 156.527679 129.584827 
L 156.527679 259.415637 
L 156.908684 128.778345 
L 156.908684 259.415637 
L 157.28969 128.752554 
L 157.28969 259.415637 
L 157.670696 128.045929 
L 157.670696 259.415637 
L 158.051702 127.23742 
L 158.051702 259.415637 
L 158.432708 127.012865 
L 158.432708 259.415637 
L 158.813714 126.381033 
L 158.813714 259.415637 
L 159.194719 126.740761 
L 159.194719 259.415637 
L 159.575725 126.459887 
L 159.575725 259.415637 
L 159.956731 126.210322 
L 159.956731 259.415637 
L 160.337737 125.473591 
L 160.337737 259.415637 
L 160.718743 124.828893 
L 160.718743 259.415637 
L 161.099749 124.31494 
L 161.099749 259.415637 
L 161.480755 123.775095 
L 161.480755 259.415637 
L 161.86176 122.984514 
L 161.86176 259.415637 
L 162.242766 122.339558 
L 162.242766 259.415637 
L 162.623772 121.616997 
L 162.623772 259.415637 
L 163.004778 120.884143 
L 163.004778 259.415637 
L 163.385784 120.078445 
L 163.385784 259.415637 
L 163.76679 119.341398 
L 163.76679 259.415637 
L 164.147796 119.16996 
L 164.147796 259.415637 
L 164.528801 118.609838 
L 164.528801 259.415637 
L 164.909807 117.899625 
L 164.909807 259.415637 
L 165.290813 117.930544 
L 165.290813 259.415637 
L 165.671819 117.289523 
L 165.671819 259.415637 
L 166.052825 117.649223 
L 166.052825 259.415637 
L 166.433831 117.906315 
L 166.433831 259.415637 
L 166.814837 117.474102 
L 166.814837 259.415637 
L 167.195842 117.156426 
L 167.195842 259.415637 
L 167.576848 116.712349 
L 167.576848 259.415637 
L 167.957854 115.912206 
L 167.957854 259.415637 
L 168.33886 115.721418 
L 168.33886 259.415637 
L 168.719866 114.981297 
L 168.719866 259.415637 
L 169.100872 114.449886 
L 169.100872 259.415637 
L 169.481877 114.031639 
L 169.481877 259.415637 
L 169.862883 113.239355 
L 169.862883 259.415637 
L 170.243889 112.776149 
L 170.243889 259.415637 
L 170.624895 112.451223 
L 170.624895 259.415637 
L 171.005901 111.748396 
L 171.005901 259.415637 
L 171.386907 112.919197 
L 171.386907 259.415637 
L 171.767913 113.212533 
L 171.767913 259.415637 
L 172.148918 112.525688 
L 172.148918 259.415637 
L 172.529924 112.099449 
L 172.529924 259.415637 
L 172.91093 111.748345 
L 172.91093 259.415637 
L 173.291936 111.246978 
L 173.291936 259.415637 
L 173.672942 111.245828 
L 173.672942 259.415637 
L 174.053948 110.795006 
L 174.053948 259.415637 
L 174.434954 110.546818 
L 174.434954 259.415637 
L 174.815959 110.266142 
L 174.815959 259.415637 
L 175.196965 110.810214 
L 175.196965 259.415637 
L 175.577971 110.148954 
L 175.577971 259.415637 
L 175.958977 109.664218 
L 175.958977 259.415637 
L 176.339983 109.057441 
L 176.339983 259.415637 
L 176.720989 108.341229 
L 176.720989 259.415637 
L 177.101995 107.623704 
L 177.101995 259.415637 
L 177.483 106.912716 
L 177.483 259.415637 
L 177.864006 106.183198 
L 177.864006 259.415637 
L 178.245012 105.470283 
L 178.245012 259.415637 
L 178.626018 105.831826 
L 178.626018 259.415637 
L 179.007024 105.361322 
L 179.007024 259.415637 
L 179.38803 105.095108 
L 179.38803 259.415637 
L 179.769035 104.52648 
L 179.769035 259.415637 
L 180.150041 103.987361 
L 180.150041 259.415637 
L 180.531047 104.603224 
L 180.531047 259.415637 
L 180.912053 103.894844 
L 180.912053 259.415637 
L 181.293059 103.545587 
L 181.293059 259.415637 
L 181.674065 102.851642 
L 181.674065 259.415637 
L 182.055071 102.074595 
L 182.055071 259.415637 
L 182.436076 101.285604 
L 182.436076 259.415637 
L 182.817082 100.495918 
L 182.817082 259.415637 
L 183.198088 99.914367 
L 183.198088 259.415637 
L 183.579094 99.373161 
L 183.579094 259.415637 
L 183.9601 98.711813 
L 183.9601 259.415637 
L 184.341106 98.764137 
L 184.341106 259.415637 
L 184.722112 98.435506 
L 184.722112 259.415637 
L 185.103117 99.1458 
L 185.103117 259.415637 
L 185.484123 98.52542 
L 185.484123 259.415637 
L 185.865129 98.103089 
L 185.865129 259.415637 
L 186.246135 97.370292 
L 186.246135 259.415637 
L 186.627141 96.874982 
L 186.627141 259.415637 
L 187.008147 96.071842 
L 187.008147 259.415637 
L 187.389153 96.04271 
L 187.389153 259.415637 
L 187.770158 95.257719 
L 187.770158 259.415637 
L 188.151164 94.998248 
L 188.151164 259.415637 
L 188.53217 94.912351 
L 188.53217 259.415637 
L 188.913176 94.804563 
L 188.913176 259.415637 
L 189.294182 94.683861 
L 189.294182 259.415637 
L 189.675188 95.303614 
L 189.675188 259.415637 
L 190.056193 96.634818 
L 190.056193 259.415637 
L 190.437199 96.168522 
L 190.437199 259.415637 
L 190.818205 96.760939 
L 190.818205 259.415637 
L 191.199211 96.131933 
L 191.199211 259.415637 
L 191.580217 95.43299 
L 191.580217 259.415637 
L 191.961223 96.064903 
L 191.961223 259.415637 
L 192.342229 96.363194 
L 192.342229 259.415637 
L 192.723234 96.168607 
L 192.723234 259.415637 
L 193.10424 95.875849 
L 193.10424 259.415637 
L 193.485246 96.083855 
L 193.485246 259.415637 
L 193.866252 95.673772 
L 193.866252 259.415637 
L 194.247258 95.850496 
L 194.247258 259.415637 
L 194.628264 95.392504 
L 194.628264 259.415637 
L 195.00927 96.110439 
L 195.00927 259.415637 
L 195.390275 95.843841 
L 195.390275 259.415637 
L 195.771281 96.519787 
L 195.771281 259.415637 
L 196.152287 96.448061 
L 196.152287 259.415637 
L 196.533293 96.365666 
L 196.533293 259.415637 
L 196.914299 96.855729 
L 196.914299 259.415637 
L 197.295305 97.439376 
L 197.295305 259.415637 
L 197.676311 96.745204 
L 197.676311 259.415637 
L 198.057316 96.182543 
L 198.057316 259.415637 
L 198.438322 96.950024 
L 198.438322 259.415637 
L 198.819328 96.406814 
L 198.819328 259.415637 
L 199.200334 96.193679 
L 199.200334 259.415637 
L 199.58134 95.67305 
L 199.58134 259.415637 
L 199.962346 95.583444 
L 199.962346 259.415637 
L 200.343351 95.44601 
L 200.343351 259.415637 
L 200.724357 94.863335 
L 200.724357 259.415637 
L 201.105363 94.493342 
L 201.105363 259.415637 
L 201.486369 95.161109 
L 201.486369 259.415637 
L 201.867375 94.957667 
L 201.867375 259.415637 
L 202.248381 94.897476 
L 202.248381 259.415637 
L 202.629387 94.27361 
L 202.629387 259.415637 
L 203.010392 94.051609 
L 203.010392 259.415637 
L 203.391398 93.93908 
L 203.391398 259.415637 
L 203.772404 93.717624 
L 203.772404 259.415637 
L 204.15341 93.732964 
L 204.15341 259.415637 
L 204.534416 93.076516 
L 204.534416 259.415637 
L 204.915422 92.608793 
L 204.915422 259.415637 
L 205.296428 92.02842 
L 205.296428 259.415637 
L 205.677433 92.882817 
L 205.677433 259.415637 
L 206.058439 92.671554 
L 206.058439 259.415637 
L 206.439445 92.9787 
L 206.439445 259.415637 
L 206.820451 93.156674 
L 206.820451 259.415637 
L 207.201457 92.478506 
L 207.201457 259.415637 
L 207.582463 92.554431 
L 207.582463 259.415637 
L 207.963469 92.633257 
L 207.963469 259.415637 
L 208.344474 93.168077 
L 208.344474 259.415637 
L 208.72548 92.590705 
L 208.72548 259.415637 
L 209.106486 92.026958 
L 209.106486 259.415637 
L 209.487492 91.716523 
L 209.487492 259.415637 
L 209.868498 90.936437 
L 209.868498 259.415637 
L 210.249504 91.531651 
L 210.249504 259.415637 
L 210.630509 91.172861 
L 210.630509 259.415637 
L 211.011515 91.712819 
L 211.011515 259.415637 
L 211.392521 92.72411 
L 211.392521 259.415637 
L 211.773527 92.764194 
L 211.773527 259.415637 
L 212.154533 92.059279 
L 212.154533 259.415637 
L 212.535539 91.808398 
L 212.535539 259.415637 
L 212.916545 92.891141 
L 212.916545 259.415637 
L 213.29755 93.558279 
L 213.29755 259.415637 
L 213.678556 93.292062 
L 213.678556 259.415637 
L 214.059562 93.904208 
L 214.059562 259.415637 
L 214.440568 93.445041 
L 214.440568 259.415637 
L 214.821574 94.702848 
L 214.821574 259.415637 
L 215.20258 95.318696 
L 215.20258 259.415637 
L 215.583586 95.669512 
L 215.583586 259.415637 
L 215.964591 95.531782 
L 215.964591 259.415637 
L 216.345597 96.063128 
L 216.345597 259.415637 
L 216.726603 95.671194 
L 216.726603 259.415637 
L 217.107609 96.383456 
L 217.107609 259.415637 
L 217.488615 96.049233 
L 217.488615 259.415637 
L 217.869621 95.844918 
L 217.869621 259.415637 
L 218.250627 96.69327 
L 218.250627 259.415637 
L 218.631632 96.751455 
L 218.631632 259.415637 
L 219.012638 98.184499 
L 219.012638 259.415637 
L 219.393644 99.079886 
L 219.393644 259.415637 
L 219.77465 98.531232 
L 219.77465 259.415637 
L 220.155656 98.287516 
L 220.155656 259.415637 
L 220.536662 97.753968 
L 220.536662 259.415637 
L 220.917667 96.942316 
L 220.917667 259.415637 
L 221.298673 96.543875 
L 221.298673 259.415637 
L 221.679679 96.045236 
L 221.679679 259.415637 
L 222.060685 95.506705 
L 222.060685 259.415637 
L 222.441691 95.622862 
L 222.441691 259.415637 
L 222.822697 95.038964 
L 222.822697 259.415637 
L 223.203703 94.725339 
L 223.203703 259.415637 
L 223.584708 94.067619 
L 223.584708 259.415637 
L 223.965714 94.901497 
L 223.965714 259.415637 
L 224.34672 95.10603 
L 224.34672 259.415637 
L 224.727726 96.102762 
L 224.727726 259.415637 
L 225.108732 96.77819 
L 225.108732 259.415637 
L 225.489738 97.56127 
L 225.489738 259.415637 
L 225.870744 96.963478 
L 225.870744 259.415637 
L 226.251749 96.936061 
L 226.251749 259.415637 
L 226.632755 96.494916 
L 226.632755 259.415637 
L 227.013761 95.862117 
L 227.013761 259.415637 
L 227.394767 95.86846 
L 227.394767 259.415637 
L 227.775773 96.222589 
L 227.775773 259.415637 
L 228.156779 95.627101 
L 228.156779 259.415637 
L 228.537785 96.078388 
L 228.537785 259.415637 
L 228.91879 95.796659 
L 228.91879 259.415637 
L 229.299796 95.298071 
L 229.299796 259.415637 
L 229.680802 95.231156 
L 229.680802 259.415637 
L 230.061808 95.3545 
L 230.061808 259.415637 
L 230.442814 94.692219 
L 230.442814 259.415637 
L 230.82382 94.377168 
L 230.82382 259.415637 
L 231.204825 94.693482 
L 231.204825 259.415637 
L 231.585831 94.224785 
L 231.585831 259.415637 
L 231.966837 94.2006 
L 231.966837 259.415637 
L 232.347843 94.438343 
L 232.347843 259.415637 
L 232.728849 94.619927 
L 232.728849 259.415637 
L 233.109855 94.375929 
L 233.109855 259.415637 
L 233.490861 93.811117 
L 233.490861 259.415637 
L 233.871866 93.419633 
L 233.871866 259.415637 
L 234.252872 92.892671 
L 234.252872 259.415637 
L 234.633878 92.497515 
L 234.633878 259.415637 
L 235.014884 92.057279 
L 235.014884 259.415637 
L 235.39589 91.794033 
L 235.39589 259.415637 
L 235.776896 91.685524 
L 235.776896 259.415637 
L 236.157902 92.134604 
L 236.157902 259.415637 
L 236.538907 91.687929 
L 236.538907 259.415637 
L 236.919913 91.782122 
L 236.919913 259.415637 
L 237.300919 91.339631 
L 237.300919 259.415637 
L 237.681925 91.194897 
L 237.681925 259.415637 
L 238.062931 90.844143 
L 238.062931 259.415637 
L 238.443937 90.610495 
L 238.443937 259.415637 
L 238.824942 91.174655 
L 238.824942 259.415637 
L 239.205948 91.437393 
L 239.205948 259.415637 
L 239.586954 90.826111 
L 239.586954 259.415637 
L 239.96796 90.232615 
L 239.96796 259.415637 
L 240.348966 89.783468 
L 240.348966 259.415637 
L 240.729972 90.004958 
L 240.729972 259.415637 
L 241.110978 89.438348 
L 241.110978 259.415637 
L 241.491983 89.328524 
L 241.491983 259.415637 
L 241.872989 89.819907 
L 241.872989 259.415637 
L 242.253995 89.535875 
L 242.253995 259.415637 
L 242.635001 89.651107 
L 242.635001 259.415637 
L 243.016007 89.128159 
L 243.016007 259.415637 
L 243.397013 89.483834 
L 243.397013 259.415637 
L 243.778019 89.092101 
L 243.778019 259.415637 
L 244.159024 88.84692 
L 244.159024 259.415637 
L 244.54003 89.414646 
L 244.54003 259.415637 
L 244.921036 89.285394 
L 244.921036 259.415637 
L 245.302042 89.109254 
L 245.302042 259.415637 
L 245.683048 88.855391 
L 245.683048 259.415637 
L 246.064054 88.403025 
L 246.064054 259.415637 
L 246.44506 87.965282 
L 246.44506 259.415637 
L 246.826065 88.043393 
L 246.826065 259.415637 
L 247.207071 87.677413 
L 247.207071 259.415637 
L 247.588077 87.080454 
L 247.588077 259.415637 
L 247.969083 86.534609 
L 247.969083 259.415637 
L 248.350089 87.066113 
L 248.350089 259.415637 
L 248.731095 86.39342 
L 248.731095 259.415637 
L 249.1121 86.884726 
L 249.1121 259.415637 
L 249.493106 86.429943 
L 249.493106 259.415637 
L 249.874112 86.846556 
L 249.874112 259.415637 
L 250.255118 86.937661 
L 250.255118 259.415637 
L 250.636124 87.029131 
L 250.636124 259.415637 
L 251.01713 87.592179 
L 251.01713 259.415637 
L 251.398136 87.025846 
L 251.398136 259.415637 
L 251.779141 87.39164 
L 251.779141 259.415637 
L 252.160147 87.315286 
L 252.160147 259.415637 
L 252.541153 87.344029 
L 252.541153 259.415637 
L 252.922159 87.204435 
L 252.922159 259.415637 
L 253.303165 86.977209 
L 253.303165 259.415637 
L 253.684171 87.109489 
L 253.684171 259.415637 
L 254.065177 87.00011 
L 254.065177 259.415637 
L 254.446182 86.261962 
L 254.446182 259.415637 
L 254.827188 86.245752 
L 254.827188 259.415637 
L 255.208194 86.840823 
L 255.208194 259.415637 
L 255.5892 86.561361 
L 255.5892 259.415637 
L 255.970206 87.361274 
L 255.970206 259.415637 
L 256.351212 87.672767 
L 256.351212 259.415637 
L 256.732218 87.149655 
L 256.732218 259.415637 
L 257.113223 87.965377 
L 257.113223 259.415637 
L 257.494229 88.309149 
L 257.494229 259.415637 
L 257.875235 88.264665 
L 257.875235 259.415637 
L 258.256241 90.411242 
L 258.256241 259.415637 
L 258.637247 90.3214 
L 258.637247 259.415637 
L 259.018253 89.619065 
L 259.018253 259.415637 
L 259.399258 89.617166 
L 259.399258 259.415637 
L 259.780264 90.223075 
L 259.780264 259.415637 
L 260.16127 90.558712 
L 260.16127 259.415637 
L 260.542276 90.210938 
L 260.542276 259.415637 
L 260.923282 90.048346 
L 260.923282 259.415637 
L 261.304288 90.555214 
L 261.304288 259.415637 
L 261.685294 89.904808 
L 261.685294 259.415637 
L 262.066299 90.44213 
L 262.066299 259.415637 
L 262.447305 90.045989 
L 262.447305 259.415637 
L 262.828311 89.614275 
L 262.828311 259.415637 
L 263.209317 89.116302 
L 263.209317 259.415637 
L 263.590323 89.145375 
L 263.590323 259.415637 
L 263.971329 88.853151 
L 263.971329 259.415637 
L 264.352335 89.580839 
L 264.352335 259.415637 
L 264.73334 89.192258 
L 264.73334 259.415637 
L 265.114346 89.602808 
L 265.114346 259.415637 
L 265.495352 89.656826 
L 265.495352 259.415637 
L 265.876358 89.113145 
L 265.876358 259.415637 
L 266.257364 88.497506 
L 266.257364 259.415637 
L 266.63837 87.902031 
L 266.63837 259.415637 
L 267.019376 88.220302 
L 267.019376 259.415637 
L 267.400381 87.721161 
L 267.400381 259.415637 
L 267.781387 87.2069 
L 267.781387 259.415637 
L 268.162393 87.048042 
L 268.162393 259.415637 
L 268.543399 86.583265 
L 268.543399 259.415637 
L 268.924405 85.901425 
L 268.924405 259.415637 
L 269.305411 85.542683 
L 269.305411 259.415637 
L 269.686416 85.447677 
L 269.686416 259.415637 
L 270.067422 84.883427 
L 270.067422 259.415637 
L 270.448428 84.349684 
L 270.448428 259.415637 
L 270.829434 85.211896 
L 270.829434 259.415637 
L 271.21044 84.904537 
L 271.21044 259.415637 
L 271.591446 85.770086 
L 271.591446 259.415637 
L 271.972452 86.862761 
L 271.972452 259.415637 
L 272.353457 86.414304 
L 272.353457 259.415637 
L 272.734463 86.397555 
L 272.734463 259.415637 
L 273.115469 86.667327 
L 273.115469 259.415637 
L 273.496475 86.543568 
L 273.496475 259.788902 
L 273.877481 87.766306 
L 273.877481 259.382252 
L 274.258487 87.132987 
L 274.258487 259.396754 
L 274.639493 87.599659 
L 274.639493 259.862368 
L 275.020498 86.954422 
L 275.020498 259.637208 
L 275.401504 86.721398 
L 275.401504 259.230558 
L 275.78251 86.544674 
L 275.78251 259.230558 
L 276.163516 86.254887 
L 276.163516 259.230558 
L 276.544522 86.951005 
L 276.544522 259.230558 
L 276.925528 87.216188 
L 276.925528 259.230558 
L 277.306534 86.907262 
L 277.306534 259.230558 
L 277.687539 86.649977 
L 277.687539 259.230558 
L 278.068545 86.677412 
L 278.068545 259.230558 
L 278.449551 86.907742 
L 278.449551 259.230558 
L 278.830557 86.553369 
L 278.830557 259.230558 
L 279.211563 87.333238 
L 279.211563 259.230558 
L 279.592569 87.4208 
L 279.592569 259.230558 
L 279.973574 87.866712 
L 279.973574 259.230558 
L 280.35458 87.618297 
L 280.35458 259.230558 
L 280.735586 87.155104 
L 280.735586 259.230558 
L 281.116592 87.64213 
L 281.116592 259.230558 
L 281.497598 87.635864 
L 281.497598 259.883885 
L 281.878604 88.73947 
L 281.878604 259.477235 
L 282.25961 89.824147 
L 282.25961 259.488972 
L 282.640615 90.892435 
L 282.640615 259.488972 
L 283.021621 90.274654 
L 283.021621 259.488972 
L 283.402627 91.537789 
L 283.402627 259.488972 
L 283.783633 90.946528 
L 283.783633 259.500934 
L 284.164639 90.452174 
L 284.164639 259.500934 
L 284.545645 91.768169 
L 284.545645 259.500934 
L 284.926651 91.243245 
L 284.926651 259.500934 
L 285.307656 91.103745 
L 285.307656 259.500934 
L 285.688662 91.325679 
L 285.688662 259.500934 
L 286.069668 91.095024 
L 286.069668 259.500934 
L 286.450674 91.555353 
L 286.450674 259.500934 
L 286.83168 90.929338 
L 286.83168 259.500934 
L 287.212686 90.500449 
L 287.212686 259.500934 
L 287.593692 90.03729 
L 287.593692 259.500934 
L 287.974697 90.249258 
L 287.974697 259.500934 
L 288.355703 90.191885 
L 288.355703 259.615936 
L 288.736709 89.740345 
L 288.736709 259.615936 
L 289.117715 89.312496 
L 289.117715 259.615936 
L 289.498721 89.529771 
L 289.498721 259.615936 
L 289.879727 89.635985 
L 289.879727 259.615936 
L 290.260732 89.478355 
L 290.260732 259.615936 
L 290.641738 89.278459 
L 290.641738 259.615936 
L 291.022744 89.718645 
L 291.022744 259.615936 
L 291.40375 89.637452 
L 291.40375 259.615936 
L 291.784756 89.943582 
L 291.784756 259.615936 
L 292.165762 90.450197 
L 292.165762 259.615936 
L 292.546768 90.212017 
L 292.546768 259.615936 
L 292.927773 89.953265 
L 292.927773 259.615936 
L 293.308779 90.596723 
L 293.308779 259.615936 
L 293.689785 92.39243 
L 293.689785 259.615936 
L 294.070791 92.325672 
L 294.070791 259.615936 
L 294.451797 91.926995 
L 294.451797 259.615936 
L 294.832803 91.707766 
L 294.832803 259.615936 
L 295.213809 91.20296 
L 295.213809 259.615936 
L 295.594814 91.093727 
L 295.594814 259.615936 
L 295.97582 90.530957 
L 295.97582 259.615936 
L 296.356826 90.137334 
L 296.356826 259.615936 
L 296.737832 90.831849 
L 296.737832 259.615936 
L 297.118838 90.967129 
L 297.118838 259.615936 
L 297.499844 91.558851 
L 297.499844 259.615936 
L 297.88085 92.649699 
L 297.88085 259.615936 
L 298.261855 92.032432 
L 298.261855 259.615936 
L 298.642861 91.70565 
L 298.642861 259.615936 
L 299.023867 91.914447 
L 299.023867 259.615936 
L 299.404873 91.666147 
L 299.404873 259.615936 
L 299.785879 92.691941 
L 299.785879 259.615936 
L 300.166885 92.137196 
L 300.166885 259.615936 
L 300.54789 92.998014 
L 300.54789 259.615936 
L 300.928896 92.404106 
L 300.928896 259.615936 
L 301.309902 92.597353 
L 301.309902 259.615936 
L 301.690908 92.572156 
L 301.690908 259.615936 
L 302.071914 92.042304 
L 302.071914 259.615936 
L 302.45292 92.334831 
L 302.45292 259.615936 
L 302.833926 91.835163 
L 302.833926 259.615936 
L 303.214931 91.986113 
L 303.214931 259.615936 
L 303.595937 91.500378 
L 303.595937 259.615936 
L 303.976943 93.124556 
L 303.976943 259.615936 
L 304.357949 93.192641 
L 304.357949 259.615936 
L 304.738955 93.342061 
L 304.738955 259.615936 
L 305.119961 92.810541 
L 305.119961 259.615936 
L 305.500967 93.132269 
L 305.500967 259.615936 
L 305.881972 92.656033 
L 305.881972 259.615936 
L 306.262978 92.307564 
L 306.262978 259.615936 
L 306.643984 92.2411 
L 306.643984 259.615936 
L 307.02499 92.198912 
L 307.02499 259.615936 
L 307.405996 92.95894 
L 307.405996 259.615936 
L 307.787002 93.558074 
L 307.787002 259.615936 
L 308.168008 93.297726 
L 308.168008 259.615936 
L 308.549013 93.0688 
L 308.549013 259.615936 
L 308.930019 93.037338 
L 308.930019 259.615936 
L 309.311025 93.213133 
L 309.311025 259.615936 
L 309.692031 92.784134 
L 309.692031 259.615936 
L 310.073037 92.894868 
L 310.073037 259.615936 
L 310.454043 92.503961 
L 310.454043 259.615936 
L 310.835048 92.33935 
L 310.835048 259.615936 
L 311.216054 91.780006 
L 311.216054 259.615936 
L 311.59706 91.166423 
L 311.59706 259.615936 
L 311.978066 90.992686 
L 311.978066 259.615936 
L 312.359072 91.399566 
L 312.359072 259.615936 
L 312.740078 90.908469 
L 312.740078 259.615936 
L 313.121084 90.37477 
L 313.121084 259.615936 
L 313.502089 89.796872 
L 313.502089 259.615936 
L 313.883095 90.116405 
L 313.883095 259.615936 
L 314.264101 89.702444 
L 314.264101 259.615936 
L 314.645107 90.433034 
L 314.645107 259.615936 
L 315.026113 90.192897 
L 315.026113 259.615936 
L 315.407119 89.47218 
L 315.407119 259.615936 
L 315.788125 89.148034 
L 315.788125 259.615936 
L 316.16913 89.132926 
L 316.16913 259.615936 
L 316.550136 89.296603 
L 316.550136 259.615936 
L 316.931142 89.89261 
L 316.931142 259.615936 
L 317.312148 89.185157 
L 317.312148 259.615936 
L 317.693154 89.042243 
L 317.693154 259.615936 
L 318.07416 90.05715 
L 318.07416 259.615936 
L 318.455166 90.334974 
L 318.455166 259.615936 
L 318.836171 91.861253 
L 318.836171 259.615936 
L 319.217177 91.502377 
L 319.217177 259.615936 
L 319.598183 91.4102 
L 319.598183 259.615936 
L 319.979189 91.750061 
L 319.979189 259.615936 
L 320.360195 91.651969 
L 320.360195 259.615936 
L 320.741201 91.015945 
L 320.741201 259.615936 
L 321.122206 91.863627 
L 321.122206 259.615936 
L 321.503212 91.40988 
L 321.503212 259.615936 
L 321.884218 92.755835 
L 321.884218 259.615936 
L 322.265224 92.437396 
L 322.265224 259.615936 
L 322.64623 92.773851 
L 322.64623 259.615936 
L 323.027236 92.250629 
L 323.027236 259.615936 
L 323.408242 92.255471 
L 323.408242 259.615936 
L 323.789247 91.971937 
L 323.789247 259.615936 
L 324.170253 92.443247 
L 324.170253 259.615936 
L 324.551259 93.379021 
L 324.551259 259.615936 
L 324.932265 93.11976 
L 324.932265 259.615936 
L 325.313271 92.575449 
L 325.313271 259.615936 
L 325.694277 93.684849 
L 325.694277 259.615936 
L 326.075283 94.102114 
L 326.075283 259.615936 
L 326.456288 93.766872 
L 326.456288 259.615936 
L 326.837294 94.310436 
L 326.837294 259.615936 
L 327.2183 93.866542 
L 327.2183 259.615936 
L 327.599306 94.56173 
L 327.599306 259.615936 
L 327.980312 94.606378 
L 327.980312 259.615936 
L 328.361318 95.214295 
L 328.361318 259.615936 
L 328.742324 95.477165 
L 328.742324 259.615936 
L 329.123329 94.724548 
L 329.123329 259.615936 
L 329.504335 94.144098 
L 329.504335 259.615936 
L 329.885341 93.646338 
L 329.885341 259.615936 
L 330.266347 94.405497 
L 330.266347 259.615936 
L 330.647353 94.700299 
L 330.647353 259.615936 
L 331.028359 94.310998 
L 331.028359 259.615936 
L 331.409364 94.752368 
L 331.409364 259.615936 
L 331.79037 94.290075 
L 331.79037 259.615936 
L 332.171376 94.800108 
L 332.171376 259.615936 
L 332.552382 94.121937 
L 332.552382 259.615936 
L 332.933388 93.91496 
L 332.933388 259.615936 
L 333.314394 93.737062 
L 333.314394 259.615936 
L 333.6954 93.138432 
L 333.6954 259.615936 
L 334.076405 93.793669 
L 334.076405 259.615936 
L 334.457411 93.953076 
L 334.457411 259.615936 
L 334.838417 93.387774 
L 334.838417 259.615936 
L 335.219423 92.896061 
L 335.219423 259.615936 
L 335.600429 92.37016 
L 335.600429 259.615936 
L 335.981435 92.608804 
L 335.981435 259.615936 
L 336.362441 92.575107 
L 336.362441 259.615936 
L 336.743446 92.774812 
L 336.743446 259.615936 
L 337.124452 92.926295 
L 337.124452 259.615936 
L 337.505458 92.720132 
L 337.505458 259.615936 
L 337.886464 92.211632 
L 337.886464 259.615936 
L 338.26747 93.919163 
L 338.26747 259.615936 
L 338.648476 93.658616 
L 338.648476 259.615936 
L 339.029482 93.529828 
L 339.029482 259.615936 
L 339.410487 92.911887 
L 339.410487 259.615936 
L 339.791493 95.108866 
L 339.791493 259.615936 
L 340.172499 94.816974 
L 340.172499 259.615936 
L 340.553505 94.306387 
L 340.553505 259.615936 
L 340.934511 94.047808 
L 340.934511 259.615936 
L 341.315517 94.318217 
L 341.315517 259.615936 
L 341.696522 94.035415 
L 341.696522 259.615936 
L 342.077528 93.696112 
L 342.077528 259.615936 
L 342.458534 93.426355 
L 342.458534 259.615936 
L 342.83954 93.623816 
L 342.83954 259.615936 
L 343.220546 93.334811 
L 343.220546 259.615936 
L 343.601552 93.779233 
L 343.601552 259.615936 
L 343.982558 93.578529 
L 343.982558 259.615936 
L 344.363563 93.162508 
L 344.363563 259.615936 
L 344.744569 94.147234 
L 344.744569 259.615936 
L 345.125575 93.570182 
L 345.125575 259.615936 
L 345.506581 93.233434 
L 345.506581 259.615936 
L 345.887587 93.0208 
L 345.887587 259.615936 
L 346.268593 93.272312 
L 346.268593 259.615936 
L 346.649599 93.106333 
L 346.649599 259.615936 
L 347.030604 92.514475 
L 347.030604 259.615936 
L 347.41161 96.340613 
L 347.41161 259.615936 
L 347.792616 95.945416 
L 347.792616 259.615936 
L 348.173622 96.780171 
L 348.173622 259.615936 
L 348.554628 96.832964 
L 348.554628 259.615936 
L 348.935634 96.827731 
L 348.935634 259.615936 
L 349.31664 97.534957 
L 349.31664 259.615936 
L 349.697645 97.059282 
L 349.697645 259.615936 
L 350.078651 97.142808 
L 350.078651 259.615936 
L 350.459657 97.608422 
L 350.459657 259.615936 
L 350.840663 97.383263 
L 350.840663 259.615936 
L 351.221669 96.618946 
L 351.221669 259.615936 
L 351.602675 96.422095 
L 351.602675 259.615936 
L 351.98368 95.809817 
L 351.98368 259.615936 
L 352.364686 95.650866 
L 352.364686 259.615936 
L 352.745692 94.872786 
L 352.745692 259.615936 
L 353.126698 94.232138 
L 353.126698 259.615936 
L 353.507704 93.771844 
L 353.507704 259.615936 
L 353.88871 94.091764 
L 353.88871 259.615936 
L 354.269716 93.962004 
L 354.269716 259.615936 
L 354.650721 94.675989 
L 354.650721 259.615936 
L 355.031727 94.073338 
L 355.031727 259.615936 
L 355.412733 93.662138 
L 355.412733 259.615936 
L 355.793739 94.331918 
L 355.793739 259.615936 
L 356.174745 95.224344 
L 356.174745 259.615936 
L 356.555751 95.199458 
L 356.555751 259.615936 
L 356.936757 95.871698 
L 356.936757 259.615936 
L 357.317762 97.629939 
L 357.317762 259.615936 
L 357.698768 97.024232 
L 357.698768 259.615936 
L 358.079774 97.02299 
L 358.079774 259.615936 
L 358.46078 96.371377 
L 358.46078 259.615936 
L 358.841786 96.616636 
L 358.841786 259.615936 
L 359.222792 96.323399 
L 359.222792 259.615936 
L 359.603798 97.246988 
L 359.603798 259.615936 
L 359.984803 96.478944 
L 359.984803 259.615936 
L 360.365809 95.984163 
L 360.365809 259.615936 
L 360.746815 95.917275 
L 360.746815 259.615936 
L 361.127821 95.412405 
L 361.127821 259.615936 
L 361.508827 94.715693 
L 361.508827 259.615936 
L 361.889833 96.406705 
L 361.889833 259.615936 
L 362.270838 96.54061 
L 362.270838 259.615936 
L 362.651844 96.114557 
L 362.651844 259.615936 
L 363.03285 95.611947 
L 363.03285 259.615936 
L 363.413856 95.312737 
L 363.413856 259.615936 
L 363.794862 96.378247 
L 363.794862 259.615936 
L 364.175868 97.17946 
L 364.175868 259.615936 
L 364.556874 97.20024 
L 364.556874 259.615936 
L 364.937879 96.454136 
L 364.937879 259.615936 
L 365.318885 96.038339 
L 365.318885 259.615936 
L 365.699891 95.684607 
L 365.699891 259.615936 
L 366.080897 95.18798 
L 366.080897 259.615936 
L 366.461903 94.851898 
L 366.461903 259.615936 
L 366.842909 94.264248 
L 366.842909 259.615936 
L 367.223915 94.74985 
L 367.223915 259.615936 
L 367.60492 94.558588 
L 367.60492 259.615936 
L 367.985926 94.147758 
L 367.985926 259.615936 
L 368.366932 93.573336 
L 368.366932 259.615936 
L 368.747938 93.338655 
L 368.747938 259.615936 
L 369.128944 92.995509 
L 369.128944 259.615936 
L 369.50995 93.284249 
L 369.50995 259.615936 
L 369.890956 93.899491 
L 369.890956 259.615936 
L 370.271961 94.066215 
L 370.271961 259.615936 
L 370.652967 93.725257 
L 370.652967 259.615936 
L 371.033973 93.114138 
L 371.033973 259.615936 
L 371.414979 93.240569 
L 371.414979 259.615936 
L 371.795985 93.246691 
L 371.795985 259.615936 
L 372.176991 92.725082 
L 372.176991 259.615936 
L 372.557996 92.433073 
L 372.557996 259.615936 
L 372.939002 92.498601 
L 372.939002 259.615936 
L 373.320008 91.940087 
L 373.320008 259.615936 
L 373.701014 91.813635 
L 373.701014 259.615936 
L 374.08202 91.530542 
L 374.08202 259.615936 
L 374.463026 91.572396 
L 374.463026 259.615936 
L 374.844032 92.071657 
L 374.844032 259.615936 
L 375.225037 92.197657 
L 375.225037 259.615936 
L 375.606043 92.6713 
L 375.606043 259.615936 
L 375.987049 92.772524 
L 375.987049 259.615936 
L 376.368055 92.271021 
L 376.368055 259.615936 
L 376.749061 92.793983 
L 376.749061 259.615936 
L 377.130067 93.574815 
L 377.130067 259.615936 
L 377.511073 93.593313 
L 377.511073 259.615936 
L 377.892078 94.833194 
L 377.892078 259.615936 
L 378.273084 94.206205 
L 378.273084 259.615936 
L 378.65409 94.456798 
L 378.65409 259.615936 
L 379.035096 94.994676 
L 379.035096 259.615936 
L 379.416102 94.889762 
L 379.416102 259.615936 
L 379.797108 94.587077 
L 379.797108 259.615936 
L 380.178114 93.957268 
L 380.178114 259.615936 
L 380.559119 93.493606 
L 380.559119 259.615936 
L 380.940125 92.912605 
L 380.940125 259.615936 
L 381.321131 92.145704 
L 381.321131 259.615936 
L 381.702137 91.467899 
L 381.702137 259.615936 
L 382.083143 90.745793 
L 382.083143 259.615936 
L 382.464149 90.253302 
L 382.464149 259.615936 
L 382.845154 90.331272 
L 382.845154 259.615936 
L 383.22616 89.777457 
L 383.22616 259.615936 
L 383.607166 89.320765 
L 383.607166 259.615936 
L 383.988172 90.095902 
L 383.988172 259.615936 
L 384.369178 90.409822 
L 384.369178 259.615936 
L 384.750184 90.589647 
L 384.750184 259.615936 
L 385.13119 90.031069 
L 385.13119 259.615936 
L 385.512195 89.955995 
L 385.512195 259.615936 
L 385.893201 89.674611 
L 385.893201 259.615936 
L 386.274207 89.182164 
L 386.274207 259.615936 
L 386.655213 89.017019 
L 386.655213 259.615936 
L 387.036219 88.991929 
L 387.036219 259.615936 
L 387.417225 89.444022 
L 387.417225 259.615936 
L 387.798231 88.71376 
L 387.798231 259.615936 
L 388.179236 88.994959 
L 388.179236 259.615936 
L 388.560242 88.425251 
L 388.560242 259.615936 
L 388.941248 89.301798 
L 388.941248 259.615936 
L 389.322254 89.413673 
L 389.322254 259.615936 
L 389.70326 90.464492 
L 389.70326 259.615936 
L 390.084266 91.247818 
L 390.084266 259.615936 
L 390.465272 90.971358 
L 390.465272 259.615936 
L 390.846277 90.688287 
L 390.846277 259.615936 
L 391.227283 90.485138 
L 391.227283 259.615936 
L 391.608289 89.975628 
L 391.608289 259.615936 
L 391.989295 89.610958 
L 391.989295 259.615936 
L 392.370301 89.133783 
L 392.370301 259.615936 
L 392.751307 88.877055 
L 392.751307 259.615936 
L 393.132312 88.489304 
L 393.132312 259.615936 
L 393.513318 88.019913 
L 393.513318 259.615936 
L 393.894324 88.033908 
L 393.894324 259.615936 
L 394.27533 87.496152 
L 394.27533 259.615936 
L 394.656336 86.810257 
L 394.656336 259.615936 
L 395.037342 87.791001 
L 395.037342 259.615936 
L 395.418348 87.537896 
L 395.418348 259.615936 
L 395.799353 87.186444 
L 395.799353 259.615936 
L 396.180359 87.110862 
L 396.180359 259.615936 
L 396.561365 86.407894 
L 396.561365 259.615936 
L 396.942371 86.934795 
L 396.942371 259.615936 
L 397.323377 88.169098 
L 397.323377 259.615936 
L 397.704383 89.116975 
L 397.704383 259.615936 
L 398.085389 88.753672 
L 398.085389 259.615936 
L 398.466394 88.745638 
L 398.466394 259.615936 
L 398.8474 88.992682 
L 398.8474 259.615936 
L 399.228406 89.483772 
L 399.228406 259.615936 
L 399.609412 89.188031 
L 399.609412 259.615936 
L 399.990418 89.622925 
L 399.990418 259.615936 
L 400.371424 90.183946 
L 400.371424 259.615936 
L 400.75243 89.573377 
L 400.75243 259.615936 
L 401.133435 88.986343 
L 401.133435 259.615936 
L 401.514441 88.32887 
L 401.514441 259.615936 
L 401.895447 89.233661 
L 401.895447 259.615936 
L 402.276453 89.564506 
L 402.276453 259.615936 
L 402.657459 89.420283 
L 402.657459 259.615936 
L 403.038465 89.030438 
L 403.038465 259.615936 
L 403.41947 88.831744 
L 403.41947 259.615936 
L 403.800476 89.227902 
L 403.800476 259.615936 
L 404.181482 90.200268 
L 404.181482 259.615936 
L 404.562488 92.281629 
L 404.562488 259.615936 
L 404.943494 91.871246 
L 404.943494 259.615936 
L 405.3245 93.352604 
L 405.3245 259.615936 
L 405.705506 93.204964 
L 405.705506 259.615936 
L 406.086511 93.319945 
L 406.086511 259.615936 
L 406.467517 92.727718 
L 406.467517 259.615936 
L 406.848523 92.328388 
L 406.848523 259.615936 
L 407.229529 92.191973 
L 407.229529 259.615936 
L 407.610535 92.978239 
L 407.610535 259.615936 
L 407.991541 92.826288 
L 407.991541 259.615936 
L 408.372547 92.526579 
L 408.372547 259.615936 
L 408.753552 92.077976 
L 408.753552 259.615936 
L 409.134558 91.970611 
L 409.134558 259.615936 
L 409.515564 92.225228 
L 409.515564 259.615936 
L 409.89657 91.70702 
L 409.89657 259.615936 
L 410.277576 92.620022 
L 410.277576 259.615936 
L 410.658582 92.704783 
L 410.658582 259.615936 
L 411.039588 92.617839 
L 411.039588 259.615936 
L 411.420593 92.376241 
L 411.420593 259.615936 
L 411.420593 259.615936 
" clip-path="url(#pd04551039e)" style="fill: none; stroke: #1f77b4; stroke-width: 1.5; stroke-linecap: square"/>
   </g>
   <g id="patch_3">
    <path d="M 30.64375 260.45 
L 30.64375 25.8 
" style="fill: none; stroke: #000000; stroke-width: 0.8; stroke-linejoin: miter; stroke-linecap: square"/>
   </g>
   <g id="patch_4">
    <path d="M 416.168879 260.45 
L 416.168879 25.8 
" style="fill: none; stroke: #000000; stroke-width: 0.8; stroke-linejoin: miter; stroke-linecap: square"/>
   </g>
   <g id="patch_5">
    <path d="M 30.64375 260.45 
L 416.168879 260.45 
" style="fill: none; stroke: #000000; stroke-width: 0.8; stroke-linejoin: miter; stroke-linecap: square"/>
   </g>
   <g id="patch_6">
    <path d="M 30.64375 25.8 
L 416.168879 25.8 
" style="fill: none; stroke: #000000; stroke-width: 0.8; stroke-linejoin: miter; stroke-linecap: square"/>
   </g>
   <g id="text_16">
    <!-- Resived_packet_delay -->
    <g transform="translate(157.488814 19.8)scale(0.12 -0.12)">
     <defs>
      <path id="DejaVuSans-52" d="M 2841 2188 
Q 3044 2119 3236 1894 
Q 3428 1669 3622 1275 
L 4263 0 
L 3584 0 
L 2988 1197 
Q 2756 1666 2539 1819 
Q 2322 1972 1947 1972 
L 1259 1972 
L 1259 0 
L 628 0 
L 628 4666 
L 2053 4666 
Q 2853 4666 3247 4331 
Q 3641 3997 3641 3322 
Q 3641 2881 3436 2590 
Q 3231 2300 2841 2188 
z
M 1259 4147 
L 1259 2491 
L 2053 2491 
Q 2509 2491 2742 2702 
Q 2975 2913 2975 3322 
Q 2975 3731 2742 3939 
Q 2509 4147 2053 4147 
L 1259 4147 
z
" transform="scale(0.015625)"/>
      <path id="DejaVuSans-65" d="M 3597 1894 
L 3597 1613 
L 953 1613 
Q 991 1019 1311 708 
Q 1631 397 2203 397 
Q 2534 397 2845 478 
Q 3156 559 3463 722 
L 3463 178 
Q 3153 47 2828 -22 
Q 2503 -91 2169 -91 
Q 1331 -91 842 396 
Q 353 884 353 1716 
Q 353 2575 817 3079 
Q 1281 3584 2069 3584 
Q 2775 3584 3186 3129 
Q 3597 2675 3597 1894 
z
M 3022 2063 
Q 3016 2534 2758 2815 
Q 2500 3097 2075 3097 
Q 1594 3097 1305 2825 
Q 1016 2553 972 2059 
L 3022 2063 
z
" transform="scale(0.015625)"/>
      <path id="DejaVuSans-73" d="M 2834 3397 
L 2834 2853 
Q 2591 2978 2328 3040 
Q 2066 3103 1784 3103 
Q 1356 3103 1142 2972 
Q 928 2841 928 2578 
Q 928 2378 1081 2264 
Q 1234 2150 1697 2047 
L 1894 2003 
Q 2506 1872 2764 1633 
Q 3022 1394 3022 966 
Q 3022 478 2636 193 
Q 2250 -91 1575 -91 
Q 1294 -91 989 -36 
Q 684 19 347 128 
L 347 722 
Q 666 556 975 473 
Q 1284 391 1588 391 
Q 1994 391 2212 530 
Q 2431 669 2431 922 
Q 2431 1156 2273 1281 
Q 2116 1406 1581 1522 
L 1381 1569 
Q 847 1681 609 1914 
Q 372 2147 372 2553 
Q 372 3047 722 3315 
Q 1072 3584 1716 3584 
Q 2034 3584 2315 3537 
Q 2597 3491 2834 3397 
z
" transform="scale(0.015625)"/>
      <path id="DejaVuSans-69" d="M 603 3500 
L 1178 3500 
L 1178 0 
L 603 0 
L 603 3500 
z
M 603 4863 
L 1178 4863 
L 1178 4134 
L 603 4134 
L 603 4863 
z
" transform="scale(0.015625)"/>
      <path id="DejaVuSans-76" d="M 191 3500 
L 800 3500 
L 1894 563 
L 2988 3500 
L 3597 3500 
L 2284 0 
L 1503 0 
L 191 3500 
z
" transform="scale(0.015625)"/>
      <path id="DejaVuSans-64" d="M 2906 2969 
L 2906 4863 
L 3481 4863 
L 3481 0 
L 2906 0 
L 2906 525 
Q 2725 213 2448 61 
Q 2172 -91 1784 -91 
Q 1150 -91 751 415 
Q 353 922 353 1747 
Q 353 2572 751 3078 
Q 1150 3584 1784 3584 
Q 2172 3584 2448 3432 
Q 2725 3281 2906 2969 
z
M 947 1747 
Q 947 1113 1208 752 
Q 1469 391 1925 391 
Q 2381 391 2643 752 
Q 2906 1113 2906 1747 
Q 2906 2381 2643 2742 
Q 2381 3103 1925 3103 
Q 1469 3103 1208 2742 
Q 947 2381 947 1747 
z
" transform="scale(0.015625)"/>
      <path id="DejaVuSans-5f" d="M 3263 -1063 
L 3263 -1509 
L -63 -1509 
L -63 -1063 
L 3263 -1063 
z
" transform="scale(0.015625)"/>
      <path id="DejaVuSans-70" d="M 1159 525 
L 1159 -1331 
L 581 -1331 
L 581 3500 
L 1159 3500 
L 1159 2969 
Q 1341 3281 1617 3432 
Q 1894 3584 2278 3584 
Q 2916 3584 3314 3078 
Q 3713 2572 3713 1747 
Q 3713 922 3314 415 
Q 2916 -91 2278 -91 
Q 1894 -91 1617 61 
Q 1341 213 1159 525 
z
M 3116 1747 
Q 3116 2381 2855 2742 
Q 2594 3103 2138 3103 
Q 1681 3103 1420 2742 
Q 1159 2381 1159 1747 
Q 1159 1113 1420 752 
Q 1681 391 2138 391 
Q 2594 391 2855 752 
Q 3116 1113 3116 1747 
z
" transform="scale(0.015625)"/>
      <path id="DejaVuSans-61" d="M 2194 1759 
Q 1497 1759 1228 1600 
Q 959 1441 959 1056 
Q 959 750 1161 570 
Q 1363 391 1709 391 
Q 2188 391 2477 730 
Q 2766 1069 2766 1631 
L 2766 1759 
L 2194 1759 
z
M 3341 1997 
L 3341 0 
L 2766 0 
L 2766 531 
Q 2569 213 2275 61 
Q 1981 -91 1556 -91 
Q 1019 -91 701 211 
Q 384 513 384 1019 
Q 384 1609 779 1909 
Q 1175 2209 1959 2209 
L 2766 2209 
L 2766 2266 
Q 2766 2663 2505 2880 
Q 2244 3097 1772 3097 
Q 1472 3097 1187 3025 
Q 903 2953 641 2809 
L 641 3341 
Q 956 3463 1253 3523 
Q 1550 3584 1831 3584 
Q 2591 3584 2966 3190 
Q 3341 2797 3341 1997 
z
" transform="scale(0.015625)"/>
      <path id="DejaVuSans-63" d="M 3122 3366 
L 3122 2828 
Q 2878 2963 2633 3030 
Q 2388 3097 2138 3097 
Q 1578 3097 1268 2742 
Q 959 2388 959 1747 
Q 959 1106 1268 751 
Q 1578 397 2138 397 
Q 2388 397 2633 464 
Q 2878 531 3122 666 
L 3122 134 
Q 2881 22 2623 -34 
Q 2366 -91 2075 -91 
Q 1284 -91 818 406 
Q 353 903 353 1747 
Q 353 2603 823 3093 
Q 1294 3584 2113 3584 
Q 2378 3584 2631 3529 
Q 2884 3475 3122 3366 
z
" transform="scale(0.015625)"/>
      <path id="DejaVuSans-6b" d="M 581 4863 
L 1159 4863 
L 1159 1991 
L 2875 3500 
L 3609 3500 
L 1753 1863 
L 3688 0 
L 2938 0 
L 1159 1709 
L 1159 0 
L 581 0 
L 581 4863 
z
" transform="scale(0.015625)"/>
      <path id="DejaVuSans-74" d="M 1172 4494 
L 1172 3500 
L 2356 3500 
L 2356 3053 
L 1172 3053 
L 1172 1153 
Q 1172 725 1289 603 
Q 1406 481 1766 481 
L 2356 481 
L 2356 0 
L 1766 0 
Q 1100 0 847 248 
Q 594 497 594 1153 
L 594 3053 
L 172 3053 
L 172 3500 
L 594 3500 
L 594 4494 
L 1172 4494 
z
" transform="scale(0.015625)"/>
      <path id="DejaVuSans-6c" d="M 603 4863 
L 1178 4863 
L 1178 0 
L 603 0 
L 603 4863 
z
" transform="scale(0.015625)"/>
      <path id="DejaVuSans-79" d="M 2059 -325 
Q 1816 -950 1584 -1140 
Q 1353 -1331 966 -1331 
L 506 -1331 
L 506 -850 
L 844 -850 
Q 1081 -850 1212 -737 
Q 1344 -625 1503 -206 
L 1606 56 
L 191 3500 
L 800 3500 
L 1894 763 
L 2988 3500 
L 3597 3500 
L 2059 -325 
z
" transform="scale(0.015625)"/>
     </defs>
     <use xlink:href="#DejaVuSans-52"/>
     <use xlink:href="#DejaVuSans-65" x="64.982422"/>
     <use xlink:href="#DejaVuSans-73" x="126.505859"/>
     <use xlink:href="#DejaVuSans-69" x="178.605469"/>
     <use xlink:href="#DejaVuSans-76" x="206.388672"/>
     <use xlink:href="#DejaVuSans-65" x="265.568359"/>
     <use xlink:href="#DejaVuSans-64" x="327.091797"/>
     <use xlink:href="#DejaVuSans-5f" x="390.568359"/>
     <use xlink:href="#DejaVuSans-70" x="440.568359"/>
     <use xlink:href="#DejaVuSans-61" x="504.044922"/>
     <use xlink:href="#DejaVuSans-63" x="565.324219"/>
     <use xlink:href="#DejaVuSans-6b" x="620.304688"/>
     <use xlink:href="#DejaVuSans-65" x="674.589844"/>
     <use xlink:href="#DejaVuSans-74" x="736.113281"/>
     <use xlink:href="#DejaVuSans-5f" x="775.322266"/>
     <use xlink:href="#DejaVuSans-64" x="825.322266"/>
     <use xlink:href="#DejaVuSans-65" x="888.798828"/>
     <use xlink:href="#DejaVuSans-6c" x="950.322266"/>
     <use xlink:href="#DejaVuSans-61" x="978.105469"/>
     <use xlink:href="#DejaVuSans-79" x="1039.384766"/>
    </g>
   </g>
   <g id="legend_1">
    <g id="patch_7">
     <path d="M 226.968879 48.478125 
L 409.168879 48.478125 
Q 411.168879 48.478125 411.168879 46.478125 
L 411.168879 32.8 
Q 411.168879 30.8 409.168879 30.8 
L 226.968879 30.8 
Q 224.968879 30.8 224.968879 32.8 
L 224.968879 46.478125 
Q 224.968879 48.478125 226.968879 48.478125 
z
" style="fill: #ffffff; opacity: 0.8; stroke: #cccccc; stroke-linejoin: miter"/>
    </g>
    <g id="line2d_32">
     <path d="M 228.968879 38.898437 
L 238.968879 38.898437 
L 248.968879 38.898437 
" style="fill: none; stroke: #1f77b4; stroke-width: 1.5; stroke-linecap: square"/>
    </g>
    <g id="text_17">
     <!-- Delay in Network.nodeRx.sink -->
     <g transform="translate(256.968879 42.398437)scale(0.1 -0.1)">
      <defs>
       <path id="DejaVuSans-44" d="M 1259 4147 
L 1259 519 
L 2022 519 
Q 2988 519 3436 956 
Q 3884 1394 3884 2338 
Q 3884 3275 3436 3711 
Q 2988 4147 2022 4147 
L 1259 4147 
z
M 628 4666 
L 1925 4666 
Q 3281 4666 3915 4102 
Q 4550 3538 4550 2338 
Q 4550 1131 3912 565 
Q 3275 0 1925 0 
L 628 0 
L 628 4666 
z
" transform="scale(0.015625)"/>
       <path id="DejaVuSans-20" transform="scale(0.015625)"/>
       <path id="DejaVuSans-6e" d="M 3513 2113 
L 3513 0 
L 2938 0 
L 2938 2094 
Q 2938 2591 2744 2837 
Q 2550 3084 2163 3084 
Q 1697 3084 1428 2787 
Q 1159 2491 1159 1978 
L 1159 0 
L 581 0 
L 581 3500 
L 1159 3500 
L 1159 2956 
Q 1366 3272 1645 3428 
Q 1925 3584 2291 3584 
Q 2894 3584 3203 3211 
Q 3513 2838 3513 2113 
z
" transform="scale(0.015625)"/>
       <path id="DejaVuSans-4e" d="M 628 4666 
L 1478 4666 
L 3547 763 
L 3547 4666 
L 4159 4666 
L 4159 0 
L 3309 0 
L 1241 3903 
L 1241 0 
L 628 0 
L 628 4666 
z
" transform="scale(0.015625)"/>
       <path id="DejaVuSans-77" d="M 269 3500 
L 844 3500 
L 1563 769 
L 2278 3500 
L 2956 3500 
L 3675 769 
L 4391 3500 
L 4966 3500 
L 4050 0 
L 3372 0 
L 2619 2869 
L 1863 0 
L 1184 0 
L 269 3500 
z
" transform="scale(0.015625)"/>
       <path id="DejaVuSans-6f" d="M 1959 3097 
Q 1497 3097 1228 2736 
Q 959 2375 959 1747 
Q 959 1119 1226 758 
Q 1494 397 1959 397 
Q 2419 397 2687 759 
Q 2956 1122 2956 1747 
Q 2956 2369 2687 2733 
Q 2419 3097 1959 3097 
z
M 1959 3584 
Q 2709 3584 3137 3096 
Q 3566 2609 3566 1747 
Q 3566 888 3137 398 
Q 2709 -91 1959 -91 
Q 1206 -91 779 398 
Q 353 888 353 1747 
Q 353 2609 779 3096 
Q 1206 3584 1959 3584 
z
" transform="scale(0.015625)"/>
       <path id="DejaVuSans-72" d="M 2631 2963 
Q 2534 3019 2420 3045 
Q 2306 3072 2169 3072 
Q 1681 3072 1420 2755 
Q 1159 2438 1159 1844 
L 1159 0 
L 581 0 
L 581 3500 
L 1159 3500 
L 1159 2956 
Q 1341 3275 1631 3429 
Q 1922 3584 2338 3584 
Q 2397 3584 2469 3576 
Q 2541 3569 2628 3553 
L 2631 2963 
z
" transform="scale(0.015625)"/>
       <path id="DejaVuSans-2e" d="M 684 794 
L 1344 794 
L 1344 0 
L 684 0 
L 684 794 
z
" transform="scale(0.015625)"/>
       <path id="DejaVuSans-78" d="M 3513 3500 
L 2247 1797 
L 3578 0 
L 2900 0 
L 1881 1375 
L 863 0 
L 184 0 
L 1544 1831 
L 300 3500 
L 978 3500 
L 1906 2253 
L 2834 3500 
L 3513 3500 
z
" transform="scale(0.015625)"/>
      </defs>
      <use xlink:href="#DejaVuSans-44"/>
      <use xlink:href="#DejaVuSans-65" x="77.001953"/>
      <use xlink:href="#DejaVuSans-6c" x="138.525391"/>
      <use xlink:href="#DejaVuSans-61" x="166.308594"/>
      <use xlink:href="#DejaVuSans-79" x="227.587891"/>
      <use xlink:href="#DejaVuSans-20" x="286.767578"/>
      <use xlink:href="#DejaVuSans-69" x="318.554688"/>
      <use xlink:href="#DejaVuSans-6e" x="346.337891"/>
      <use xlink:href="#DejaVuSans-20" x="409.716797"/>
      <use xlink:href="#DejaVuSans-4e" x="441.503906"/>
      <use xlink:href="#DejaVuSans-65" x="516.308594"/>
      <use xlink:href="#DejaVuSans-74" x="577.832031"/>
      <use xlink:href="#DejaVuSans-77" x="617.041016"/>
      <use xlink:href="#DejaVuSans-6f" x="698.828125"/>
      <use xlink:href="#DejaVuSans-72" x="760.009766"/>
      <use xlink:href="#DejaVuSans-6b" x="801.123047"/>
      <use xlink:href="#DejaVuSans-2e" x="859.033203"/>
      <use xlink:href="#DejaVuSans-6e" x="890.820312"/>
      <use xlink:href="#DejaVuSans-6f" x="954.199219"/>
      <use xlink:href="#DejaVuSans-64" x="1015.380859"/>
      <use xlink:href="#DejaVuSans-65" x="1078.857422"/>
      <use xlink:href="#DejaVuSans-52" x="1140.380859"/>
      <use xlink:href="#DejaVuSans-78" x="1209.863281"/>
      <use xlink:href="#DejaVuSans-2e" x="1269.042969"/>
      <use xlink:href="#DejaVuSans-73" x="1300.830078"/>
      <use xlink:href="#DejaVuSans-69" x="1352.929688"/>
      <use xlink:href="#DejaVuSans-6e" x="1380.712891"/>
      <use xlink:href="#DejaVuSans-6b" x="1444.091797"/>
     </g>
    </g>
   </g>
  </g>
 </g>
 <defs>
  <clipPath id="pd04551039e">
   <rect x="30.64375" y="25.8" width="385.525129" height="234.65"/>
  </clipPath>
 </defs>
</svg>
