<?xml version="1.0" encoding="utf-8" standalone="no"?>
<!DOCTYPE svg PUBLIC "-//W3C//DTD SVG 1.1//EN"
  "http://www.w3.org/Graphics/SVG/1.1/DTD/svg11.dtd">
<svg xmlns:xlink="http://www.w3.org/1999/xlink" width="432pt" height="288pt" viewBox="0 0 432 288" xmlns="http://www.w3.org/2000/svg" version="1.1">
 <metadata>
  <rdf:RDF xmlns:dc="http://purl.org/dc/elements/1.1/" xmlns:cc="http://creativecommons.org/ns#" xmlns:rdf="http://www.w3.org/1999/02/22-rdf-syntax-ns#">
   <cc:Work>
    <dc:type rdf:resource="http://purl.org/dc/dcmitype/StillImage"/>
    <dc:date>2022-05-22T20:13:30.049669</dc:date>
    <dc:format>image/svg+xml</dc:format>
    <dc:creator>
     <cc:Agent>
      <dc:title>omnetpp.scave 6.0.0; Matplotlib 3.5.1 w/ backend GTK3Agg; Pandas 1.4.2; Python 3.8.10; Linux-5.4.0-109-generic-x86_64-with-glibc2.29</dc:title>
     </cc:Agent>
    </dc:creator>
   </cc:Work>
  </rdf:RDF>
 </metadata>
 <defs>
  <style type="text/css">*{stroke-linejoin: round; stroke-linecap: butt}</style>
 </defs>
 <g id="figure_1">
  <g id="patch_1">
   <path d="M 0 288 
L 432 288 
L 432 0 
L 0 0 
z
" style="fill: #ffffff"/>
  </g>
  <g id="axes_1">
   <g id="patch_2">
    <path d="M 37.01875 260.45 
L 415.60565 260.45 
L 415.60565 25.8 
L 37.01875 25.8 
z
" style="fill: #ffffff"/>
   </g>
   <g id="matplotlib.axis_1">
    <g id="xtick_1">
     <g id="line2d_1">
      <path d="M 37.01875 260.45 
L 37.01875 25.8 
" clip-path="url(#p00f7cfd5ea)" style="fill: none; stroke: #b0b0b0; stroke-width: 0.8; stroke-linecap: square"/>
     </g>
     <g id="line2d_2">
      <defs>
       <path id="ma59c62cb15" d="M 0 0 
L 0 3.5 
" style="stroke: #000000; stroke-width: 0.8"/>
      </defs>
      <g>
       <use xlink:href="#ma59c62cb15" x="37.01875" y="260.45" style="stroke: #000000; stroke-width: 0.8"/>
      </g>
     </g>
     <g id="text_1">
      <!-- 0 -->
      <g transform="translate(33.8375 275.048437)scale(0.1 -0.1)">
       <defs>
        <path id="DejaVuSans-30" d="M 2034 4250 
Q 1547 4250 1301 3770 
Q 1056 3291 1056 2328 
Q 1056 1369 1301 889 
Q 1547 409 2034 409 
Q 2525 409 2770 889 
Q 3016 1369 3016 2328 
Q 3016 3291 2770 3770 
Q 2525 4250 2034 4250 
z
M 2034 4750 
Q 2819 4750 3233 4129 
Q 3647 3509 3647 2328 
Q 3647 1150 3233 529 
Q 2819 -91 2034 -91 
Q 1250 -91 836 529 
Q 422 1150 422 2328 
Q 422 3509 836 4129 
Q 1250 4750 2034 4750 
z
" transform="scale(0.015625)"/>
       </defs>
       <use xlink:href="#DejaVuSans-30"/>
      </g>
     </g>
    </g>
    <g id="xtick_2">
     <g id="line2d_3">
      <path d="M 83.851632 260.45 
L 83.851632 25.8 
" clip-path="url(#p00f7cfd5ea)" style="fill: none; stroke: #b0b0b0; stroke-width: 0.8; stroke-linecap: square"/>
     </g>
     <g id="line2d_4">
      <g>
       <use xlink:href="#ma59c62cb15" x="83.851632" y="260.45" style="stroke: #000000; stroke-width: 0.8"/>
      </g>
     </g>
     <g id="text_2">
      <!-- 25 -->
      <g transform="translate(77.489132 275.048437)scale(0.1 -0.1)">
       <defs>
        <path id="DejaVuSans-32" d="M 1228 531 
L 3431 531 
L 3431 0 
L 469 0 
L 469 531 
Q 828 903 1448 1529 
Q 2069 2156 2228 2338 
Q 2531 2678 2651 2914 
Q 2772 3150 2772 3378 
Q 2772 3750 2511 3984 
Q 2250 4219 1831 4219 
Q 1534 4219 1204 4116 
Q 875 4013 500 3803 
L 500 4441 
Q 881 4594 1212 4672 
Q 1544 4750 1819 4750 
Q 2544 4750 2975 4387 
Q 3406 4025 3406 3419 
Q 3406 3131 3298 2873 
Q 3191 2616 2906 2266 
Q 2828 2175 2409 1742 
Q 1991 1309 1228 531 
z
" transform="scale(0.015625)"/>
        <path id="DejaVuSans-35" d="M 691 4666 
L 3169 4666 
L 3169 4134 
L 1269 4134 
L 1269 2991 
Q 1406 3038 1543 3061 
Q 1681 3084 1819 3084 
Q 2600 3084 3056 2656 
Q 3513 2228 3513 1497 
Q 3513 744 3044 326 
Q 2575 -91 1722 -91 
Q 1428 -91 1123 -41 
Q 819 9 494 109 
L 494 744 
Q 775 591 1075 516 
Q 1375 441 1709 441 
Q 2250 441 2565 725 
Q 2881 1009 2881 1497 
Q 2881 1984 2565 2268 
Q 2250 2553 1709 2553 
Q 1456 2553 1204 2497 
Q 953 2441 691 2322 
L 691 4666 
z
" transform="scale(0.015625)"/>
       </defs>
       <use xlink:href="#DejaVuSans-32"/>
       <use xlink:href="#DejaVuSans-35" x="63.623047"/>
      </g>
     </g>
    </g>
    <g id="xtick_3">
     <g id="line2d_5">
      <path d="M 130.684514 260.45 
L 130.684514 25.8 
" clip-path="url(#p00f7cfd5ea)" style="fill: none; stroke: #b0b0b0; stroke-width: 0.8; stroke-linecap: square"/>
     </g>
     <g id="line2d_6">
      <g>
       <use xlink:href="#ma59c62cb15" x="130.684514" y="260.45" style="stroke: #000000; stroke-width: 0.8"/>
      </g>
     </g>
     <g id="text_3">
      <!-- 50 -->
      <g transform="translate(124.322014 275.048437)scale(0.1 -0.1)">
       <use xlink:href="#DejaVuSans-35"/>
       <use xlink:href="#DejaVuSans-30" x="63.623047"/>
      </g>
     </g>
    </g>
    <g id="xtick_4">
     <g id="line2d_7">
      <path d="M 177.517396 260.45 
L 177.517396 25.8 
" clip-path="url(#p00f7cfd5ea)" style="fill: none; stroke: #b0b0b0; stroke-width: 0.8; stroke-linecap: square"/>
     </g>
     <g id="line2d_8">
      <g>
       <use xlink:href="#ma59c62cb15" x="177.517396" y="260.45" style="stroke: #000000; stroke-width: 0.8"/>
      </g>
     </g>
     <g id="text_4">
      <!-- 75 -->
      <g transform="translate(171.154896 275.048437)scale(0.1 -0.1)">
       <defs>
        <path id="DejaVuSans-37" d="M 525 4666 
L 3525 4666 
L 3525 4397 
L 1831 0 
L 1172 0 
L 2766 4134 
L 525 4134 
L 525 4666 
z
" transform="scale(0.015625)"/>
       </defs>
       <use xlink:href="#DejaVuSans-37"/>
       <use xlink:href="#DejaVuSans-35" x="63.623047"/>
      </g>
     </g>
    </g>
    <g id="xtick_5">
     <g id="line2d_9">
      <path d="M 224.350278 260.45 
L 224.350278 25.8 
" clip-path="url(#p00f7cfd5ea)" style="fill: none; stroke: #b0b0b0; stroke-width: 0.8; stroke-linecap: square"/>
     </g>
     <g id="line2d_10">
      <g>
       <use xlink:href="#ma59c62cb15" x="224.350278" y="260.45" style="stroke: #000000; stroke-width: 0.8"/>
      </g>
     </g>
     <g id="text_5">
      <!-- 100 -->
      <g transform="translate(214.806528 275.048437)scale(0.1 -0.1)">
       <defs>
        <path id="DejaVuSans-31" d="M 794 531 
L 1825 531 
L 1825 4091 
L 703 3866 
L 703 4441 
L 1819 4666 
L 2450 4666 
L 2450 531 
L 3481 531 
L 3481 0 
L 794 0 
L 794 531 
z
" transform="scale(0.015625)"/>
       </defs>
       <use xlink:href="#DejaVuSans-31"/>
       <use xlink:href="#DejaVuSans-30" x="63.623047"/>
       <use xlink:href="#DejaVuSans-30" x="127.246094"/>
      </g>
     </g>
    </g>
    <g id="xtick_6">
     <g id="line2d_11">
      <path d="M 271.18316 260.45 
L 271.18316 25.8 
" clip-path="url(#p00f7cfd5ea)" style="fill: none; stroke: #b0b0b0; stroke-width: 0.8; stroke-linecap: square"/>
     </g>
     <g id="line2d_12">
      <g>
       <use xlink:href="#ma59c62cb15" x="271.18316" y="260.45" style="stroke: #000000; stroke-width: 0.8"/>
      </g>
     </g>
     <g id="text_6">
      <!-- 125 -->
      <g transform="translate(261.63941 275.048437)scale(0.1 -0.1)">
       <use xlink:href="#DejaVuSans-31"/>
       <use xlink:href="#DejaVuSans-32" x="63.623047"/>
       <use xlink:href="#DejaVuSans-35" x="127.246094"/>
      </g>
     </g>
    </g>
    <g id="xtick_7">
     <g id="line2d_13">
      <path d="M 318.016042 260.45 
L 318.016042 25.8 
" clip-path="url(#p00f7cfd5ea)" style="fill: none; stroke: #b0b0b0; stroke-width: 0.8; stroke-linecap: square"/>
     </g>
     <g id="line2d_14">
      <g>
       <use xlink:href="#ma59c62cb15" x="318.016042" y="260.45" style="stroke: #000000; stroke-width: 0.8"/>
      </g>
     </g>
     <g id="text_7">
      <!-- 150 -->
      <g transform="translate(308.472292 275.048437)scale(0.1 -0.1)">
       <use xlink:href="#DejaVuSans-31"/>
       <use xlink:href="#DejaVuSans-35" x="63.623047"/>
       <use xlink:href="#DejaVuSans-30" x="127.246094"/>
      </g>
     </g>
    </g>
    <g id="xtick_8">
     <g id="line2d_15">
      <path d="M 364.848924 260.45 
L 364.848924 25.8 
" clip-path="url(#p00f7cfd5ea)" style="fill: none; stroke: #b0b0b0; stroke-width: 0.8; stroke-linecap: square"/>
     </g>
     <g id="line2d_16">
      <g>
       <use xlink:href="#ma59c62cb15" x="364.848924" y="260.45" style="stroke: #000000; stroke-width: 0.8"/>
      </g>
     </g>
     <g id="text_8">
      <!-- 175 -->
      <g transform="translate(355.305174 275.048437)scale(0.1 -0.1)">
       <use xlink:href="#DejaVuSans-31"/>
       <use xlink:href="#DejaVuSans-37" x="63.623047"/>
       <use xlink:href="#DejaVuSans-35" x="127.246094"/>
      </g>
     </g>
    </g>
    <g id="xtick_9">
     <g id="line2d_17">
      <path d="M 411.681806 260.45 
L 411.681806 25.8 
" clip-path="url(#p00f7cfd5ea)" style="fill: none; stroke: #b0b0b0; stroke-width: 0.8; stroke-linecap: square"/>
     </g>
     <g id="line2d_18">
      <g>
       <use xlink:href="#ma59c62cb15" x="411.681806" y="260.45" style="stroke: #000000; stroke-width: 0.8"/>
      </g>
     </g>
     <g id="text_9">
      <!-- 200 -->
      <g transform="translate(402.138056 275.048437)scale(0.1 -0.1)">
       <use xlink:href="#DejaVuSans-32"/>
       <use xlink:href="#DejaVuSans-30" x="63.623047"/>
       <use xlink:href="#DejaVuSans-30" x="127.246094"/>
      </g>
     </g>
    </g>
   </g>
   <g id="matplotlib.axis_2">
    <g id="ytick_1">
     <g id="line2d_19">
      <path d="M 37.01875 260.45 
L 415.60565 260.45 
" clip-path="url(#p00f7cfd5ea)" style="fill: none; stroke: #b0b0b0; stroke-width: 0.8; stroke-linecap: square"/>
     </g>
     <g id="line2d_20">
      <defs>
       <path id="m364fc19d76" d="M 0 0 
L -3.5 0 
" style="stroke: #000000; stroke-width: 0.8"/>
      </defs>
      <g>
       <use xlink:href="#m364fc19d76" x="37.01875" y="260.45" style="stroke: #000000; stroke-width: 0.8"/>
      </g>
     </g>
     <g id="text_10">
      <!-- 0 -->
      <g transform="translate(23.65625 264.249219)scale(0.1 -0.1)">
       <use xlink:href="#DejaVuSans-30"/>
      </g>
     </g>
    </g>
    <g id="ytick_2">
     <g id="line2d_21">
      <path d="M 37.01875 216.453125 
L 415.60565 216.453125 
" clip-path="url(#p00f7cfd5ea)" style="fill: none; stroke: #b0b0b0; stroke-width: 0.8; stroke-linecap: square"/>
     </g>
     <g id="line2d_22">
      <g>
       <use xlink:href="#m364fc19d76" x="37.01875" y="216.453125" style="stroke: #000000; stroke-width: 0.8"/>
      </g>
     </g>
     <g id="text_11">
      <!-- 50 -->
      <g transform="translate(17.29375 220.252344)scale(0.1 -0.1)">
       <use xlink:href="#DejaVuSans-35"/>
       <use xlink:href="#DejaVuSans-30" x="63.623047"/>
      </g>
     </g>
    </g>
    <g id="ytick_3">
     <g id="line2d_23">
      <path d="M 37.01875 172.45625 
L 415.60565 172.45625 
" clip-path="url(#p00f7cfd5ea)" style="fill: none; stroke: #b0b0b0; stroke-width: 0.8; stroke-linecap: square"/>
     </g>
     <g id="line2d_24">
      <g>
       <use xlink:href="#m364fc19d76" x="37.01875" y="172.45625" style="stroke: #000000; stroke-width: 0.8"/>
      </g>
     </g>
     <g id="text_12">
      <!-- 100 -->
      <g transform="translate(10.93125 176.255469)scale(0.1 -0.1)">
       <use xlink:href="#DejaVuSans-31"/>
       <use xlink:href="#DejaVuSans-30" x="63.623047"/>
       <use xlink:href="#DejaVuSans-30" x="127.246094"/>
      </g>
     </g>
    </g>
    <g id="ytick_4">
     <g id="line2d_25">
      <path d="M 37.01875 128.459375 
L 415.60565 128.459375 
" clip-path="url(#p00f7cfd5ea)" style="fill: none; stroke: #b0b0b0; stroke-width: 0.8; stroke-linecap: square"/>
     </g>
     <g id="line2d_26">
      <g>
       <use xlink:href="#m364fc19d76" x="37.01875" y="128.459375" style="stroke: #000000; stroke-width: 0.8"/>
      </g>
     </g>
     <g id="text_13">
      <!-- 150 -->
      <g transform="translate(10.93125 132.258594)scale(0.1 -0.1)">
       <use xlink:href="#DejaVuSans-31"/>
       <use xlink:href="#DejaVuSans-35" x="63.623047"/>
       <use xlink:href="#DejaVuSans-30" x="127.246094"/>
      </g>
     </g>
    </g>
    <g id="ytick_5">
     <g id="line2d_27">
      <path d="M 37.01875 84.4625 
L 415.60565 84.4625 
" clip-path="url(#p00f7cfd5ea)" style="fill: none; stroke: #b0b0b0; stroke-width: 0.8; stroke-linecap: square"/>
     </g>
     <g id="line2d_28">
      <g>
       <use xlink:href="#m364fc19d76" x="37.01875" y="84.4625" style="stroke: #000000; stroke-width: 0.8"/>
      </g>
     </g>
     <g id="text_14">
      <!-- 200 -->
      <g transform="translate(10.93125 88.261719)scale(0.1 -0.1)">
       <use xlink:href="#DejaVuSans-32"/>
       <use xlink:href="#DejaVuSans-30" x="63.623047"/>
       <use xlink:href="#DejaVuSans-30" x="127.246094"/>
      </g>
     </g>
    </g>
    <g id="ytick_6">
     <g id="line2d_29">
      <path d="M 37.01875 40.465625 
L 415.60565 40.465625 
" clip-path="url(#p00f7cfd5ea)" style="fill: none; stroke: #b0b0b0; stroke-width: 0.8; stroke-linecap: square"/>
     </g>
     <g id="line2d_30">
      <g>
       <use xlink:href="#m364fc19d76" x="37.01875" y="40.465625" style="stroke: #000000; stroke-width: 0.8"/>
      </g>
     </g>
     <g id="text_15">
      <!-- 250 -->
      <g transform="translate(10.93125 44.264844)scale(0.1 -0.1)">
       <use xlink:href="#DejaVuSans-32"/>
       <use xlink:href="#DejaVuSans-35" x="63.623047"/>
       <use xlink:href="#DejaVuSans-30" x="127.246094"/>
      </g>
     </g>
    </g>
   </g>
   <g id="line2d_31">
    <path d="M 39.259375 259.570063 
L 40.942662 258.690125 
L 43.295416 257.810187 
L 46.779041 256.93025 
L 48.508529 256.050312 
L 52.164389 255.170375 
L 53.639064 254.290437 
L 57.158957 253.4105 
L 58.191244 252.530562 
L 61.966285 250.770687 
L 62.875083 249.89075 
L 63.953212 249.010812 
L 64.61479 248.130875 
L 68.780152 247.250937 
L 69.154815 246.371 
L 75.099401 245.491062 
L 75.695783 244.611125 
L 76.601722 243.731187 
L 77.81834 242.85125 
L 83.889955 241.091375 
L 88.097402 238.451562 
L 89.031946 237.571625 
L 93.899296 236.691688 
L 97.286941 235.81175 
L 97.661604 234.931812 
L 98.195993 234.051875 
L 98.570656 233.171937 
L 100.323654 232.292 
L 100.698318 231.412062 
L 101.222235 230.532125 
L 104.570763 229.652187 
L 110.472024 228.77225 
L 113.292833 227.892312 
L 113.667496 227.012375 
L 121.221522 225.2525 
L 128.424835 224.372562 
L 129.626959 223.492625 
L 135.657613 221.73275 
L 136.817063 220.852812 
L 138.193883 219.972875 
L 141.034833 219.092937 
L 143.162805 218.213 
L 143.537468 217.333062 
L 145.787511 216.453125 
L 147.700975 215.573187 
L 149.335108 214.69325 
L 149.709771 213.813312 
L 151.068981 212.933375 
L 156.491144 212.053437 
L 159.153808 211.1735 
L 160.535991 210.293562 
L 160.910654 209.413625 
L 161.748985 208.533687 
L 162.951081 207.65375 
L 163.526714 206.773812 
L 163.912998 205.893875 
L 169.202388 204.134 
L 170.343391 203.254062 
L 170.800571 202.374125 
L 172.374783 201.494187 
L 173.498772 198.854375 
L 175.217349 197.974437 
L 175.592012 197.0945 
L 177.295105 196.214562 
L 177.766135 195.334625 
L 179.563671 194.454687 
L 180.478892 193.57475 
L 185.870134 192.694812 
L 190.232923 191.814875 
L 192.378129 190.934937 
L 193.497896 190.055 
L 194.332493 189.175062 
L 196.111196 188.295125 
L 197.187476 187.415187 
L 201.545465 186.53525 
L 203.786152 185.655312 
L 204.535478 183.895437 
L 210.655393 183.0155 
L 216.778032 180.375687 
L 217.57163 178.615812 
L 218.402266 177.735875 
L 218.776929 176.855937 
L 221.262952 175.976 
L 221.972867 175.096062 
L 223.726405 174.216125 
L 225.309759 172.45625 
L 226.891638 171.576312 
L 227.266301 170.696375 
L 228.046551 169.816437 
L 229.930865 168.9365 
L 238.275542 168.056562 
L 244.256937 167.176625 
L 244.6316 166.296687 
L 246.440214 165.41675 
L 246.879135 164.536812 
L 248.767473 163.656875 
L 249.142136 162.776937 
L 259.138172 161.897 
L 261.121531 161.017062 
L 262.754904 160.137125 
L 263.302063 159.257187 
L 264.304408 158.37725 
L 266.686745 156.617375 
L 267.211793 155.737437 
L 269.041767 154.8575 
L 269.41643 153.977562 
L 270.138834 153.097625 
L 270.513497 152.217687 
L 274.462813 150.457812 
L 275.177587 149.577875 
L 275.55225 148.697937 
L 278.278575 147.818 
L 278.688608 146.938062 
L 284.284556 146.058125 
L 285.146307 145.178187 
L 287.181232 144.29825 
L 290.403956 143.418312 
L 291.153282 141.658437 
L 292.447577 140.7785 
L 295.856671 139.898562 
L 297.954437 139.018625 
L 298.3291 138.138687 
L 311.861282 136.378812 
L 315.805213 135.498875 
L 318.324673 133.739 
L 325.371948 132.859062 
L 325.746611 131.979125 
L 327.218673 131.099187 
L 328.342562 130.21925 
L 330.860758 129.339312 
L 332.065383 126.6995 
L 332.688092 125.819562 
L 339.97823 124.939625 
L 340.352893 124.059687 
L 341.710396 122.299812 
L 342.938628 121.419875 
L 343.313291 120.539937 
L 345.361316 119.66 
L 346.078235 118.780062 
L 350.057601 117.900125 
L 351.059608 117.020187 
L 355.750224 116.14025 
L 356.49955 114.380375 
L 358.541244 113.500437 
L 361.667697 111.740562 
L 365.420398 110.860625 
L 365.998156 109.980687 
L 368.718223 108.220812 
L 373.374502 107.340875 
L 373.749165 106.460937 
L 378.318096 105.581 
L 379.925205 104.701062 
L 380.299868 103.821125 
L 385.050645 102.941187 
L 386.753303 100.301375 
L 388.458482 99.421437 
L 391.919109 98.5415 
L 392.293772 97.661562 
L 394.13545 96.781625 
L 396.495703 95.901687 
L 399.945005 95.02175 
L 401.161109 93.261875 
L 401.540175 92.381937 
L 402.490321 91.502 
L 405.652339 89.742125 
L 406.401665 87.98225 
L 409.33585 87.102312 
L 410.200818 86.222375 
L 410.950144 84.4625 
L 410.950144 84.4625 
" clip-path="url(#p00f7cfd5ea)" style="fill: none; stroke: #1f77b4; stroke-width: 1.5; stroke-linecap: square"/>
   </g>
   <g id="line2d_32">
    <path d="M 38.509674 259.570063 
L 40.192961 258.690125 
L 42.545715 257.810187 
L 46.02934 256.93025 
L 47.758828 256.050312 
L 51.414688 255.170375 
L 52.889364 254.290437 
L 56.409256 253.4105 
L 57.441543 252.530562 
L 61.216584 250.770687 
L 62.125382 249.89075 
L 63.203511 249.010812 
L 63.865089 248.130875 
L 68.030452 247.250937 
L 68.139825 246.371 
L 74.3497 245.491062 
L 74.946082 244.611125 
L 75.852021 243.731187 
L 77.068639 242.85125 
L 83.140255 241.091375 
L 87.347701 238.451562 
L 88.282246 237.571625 
L 93.149595 236.691688 
L 96.537241 235.81175 
L 96.675276 234.931812 
L 97.446292 234.051875 
L 97.617065 233.171937 
L 99.573954 232.292 
L 99.612217 231.412062 
L 100.472534 230.532125 
L 103.821062 229.652187 
L 109.722323 228.77225 
L 112.543132 227.892312 
L 112.826435 227.012375 
L 120.471821 225.2525 
L 127.675134 224.372562 
L 128.877258 223.492625 
L 134.907912 221.73275 
L 136.067362 220.852812 
L 137.444183 219.972875 
L 140.285133 219.092937 
L 142.413104 218.213 
L 142.648907 217.333062 
L 145.03781 216.453125 
L 146.951274 215.573187 
L 148.585407 214.69325 
L 148.875264 213.813312 
L 150.319281 212.933375 
L 155.741443 212.053437 
L 158.404107 211.1735 
L 159.78629 210.293562 
L 159.996001 209.413625 
L 160.999284 208.533687 
L 162.20138 207.65375 
L 162.777013 206.773812 
L 163.163297 205.893875 
L 168.452687 204.134 
L 169.593691 203.254062 
L 170.05087 202.374125 
L 171.625082 201.494187 
L 171.897234 200.61425 
L 171.932768 199.734312 
L 172.666678 198.854375 
L 174.467648 197.974437 
L 174.771381 197.0945 
L 176.545404 196.214562 
L 177.016434 195.334625 
L 178.81397 194.454687 
L 179.729191 193.57475 
L 185.120433 192.694812 
L 189.483222 191.814875 
L 191.628429 190.934937 
L 192.748196 190.055 
L 193.582792 189.175062 
L 195.361495 188.295125 
L 196.437775 187.415187 
L 200.795764 186.53525 
L 203.036451 185.655312 
L 203.348689 183.895437 
L 209.905693 183.0155 
L 216.028331 180.375687 
L 216.821929 178.615812 
L 217.652565 177.735875 
L 217.911136 176.855937 
L 220.513251 175.976 
L 221.223166 175.096062 
L 222.976705 174.216125 
L 224.560058 172.45625 
L 226.141937 171.576312 
L 226.21534 170.696375 
L 227.29685 169.816437 
L 229.181164 168.9365 
L 237.525841 168.056562 
L 243.507237 167.176625 
L 243.708871 166.296687 
L 245.690513 165.41675 
L 246.129434 164.536812 
L 248.017772 163.656875 
L 248.347313 162.776937 
L 258.388471 161.897 
L 260.37183 161.017062 
L 262.005204 160.137125 
L 262.552363 159.257187 
L 263.554707 158.37725 
L 265.937045 156.617375 
L 266.462092 155.737437 
L 268.292066 154.8575 
L 268.616389 153.977562 
L 269.389133 153.097625 
L 269.608228 152.217687 
L 273.713112 150.457812 
L 274.427887 149.577875 
L 274.706471 148.697937 
L 277.528874 147.818 
L 277.938907 146.938062 
L 283.534855 146.058125 
L 284.396606 145.178187 
L 286.431532 144.29825 
L 289.654255 143.418312 
L 289.679853 142.538375 
L 289.871203 141.658437 
L 291.697876 140.7785 
L 295.106971 139.898562 
L 297.204736 139.018625 
L 297.394006 138.138687 
L 311.111582 136.378812 
L 315.055512 135.498875 
L 317.574972 133.739 
L 324.622248 132.859062 
L 324.729639 131.979125 
L 326.468972 131.099187 
L 327.592862 130.21925 
L 330.111057 129.339312 
L 330.223768 127.579437 
L 331.315683 126.6995 
L 331.938392 125.819562 
L 339.228529 124.939625 
L 339.46842 124.059687 
L 340.302831 123.17975 
L 340.960695 122.299812 
L 342.188927 121.419875 
L 342.425693 120.539937 
L 344.611615 119.66 
L 345.328534 118.780062 
L 349.3079 117.900125 
L 350.309907 117.020187 
L 355.000524 116.14025 
L 355.12472 115.260312 
L 355.582549 114.380375 
L 357.791543 113.500437 
L 360.917996 111.740562 
L 364.670697 110.860625 
L 365.248455 109.980687 
L 367.968522 108.220812 
L 372.624801 107.340875 
L 372.809604 106.460937 
L 377.568396 105.581 
L 379.175505 104.701062 
L 379.338053 103.821125 
L 384.300945 102.941187 
L 385.628939 101.181312 
L 385.64655 100.301375 
L 387.708781 99.421437 
L 391.169408 98.5415 
L 391.434165 97.661562 
L 393.385749 96.781625 
L 395.746002 95.901687 
L 399.195305 95.02175 
L 400.411408 93.261875 
L 400.790474 92.381937 
L 401.74062 91.502 
L 404.902639 89.742125 
L 404.94069 88.862187 
L 405.278359 87.98225 
L 408.586149 87.102312 
L 409.451117 86.222375 
L 409.459934 85.342437 
L 409.756557 84.4625 
L 409.756557 84.4625 
" clip-path="url(#p00f7cfd5ea)" style="fill: none; stroke: #ff7f0e; stroke-width: 1.5; stroke-linecap: square"/>
   </g>
   <g id="line2d_33">
    <path d="M 39.072043 260.45 
L 39.072043 259.570063 
L 39.072043 260.45 
L 40.75533 260.45 
L 40.75533 259.570063 
L 40.75533 260.45 
L 43.108084 260.45 
L 43.108084 259.570063 
L 43.108084 260.45 
L 46.591709 260.45 
L 46.591709 259.570063 
L 46.591709 260.45 
L 48.321197 260.45 
L 48.321197 259.570063 
L 48.321197 260.45 
L 51.977057 260.45 
L 51.977057 259.570063 
L 51.977057 260.45 
L 53.451733 260.45 
L 53.451733 259.570063 
L 53.451733 260.45 
L 56.971625 260.45 
L 56.971625 259.570063 
L 56.971625 260.45 
L 58.003913 260.45 
L 58.003913 259.570063 
L 58.003913 260.45 
L 59.834154 260.45 
L 59.834154 259.570063 
L 59.834154 260.45 
L 61.778953 260.45 
L 61.778953 259.570063 
L 61.778953 260.45 
L 62.687751 260.45 
L 62.687751 259.570063 
L 62.687751 260.45 
L 63.76588 260.45 
L 63.76588 259.570063 
L 63.76588 260.45 
L 64.427459 260.45 
L 64.427459 259.570063 
L 64.427459 260.45 
L 68.592821 260.45 
L 68.592821 259.570063 
L 68.592821 260.45 
L 68.967484 260.45 
L 68.967484 259.570063 
L 68.967484 260.45 
L 74.91207 260.45 
L 74.91207 259.570063 
L 74.91207 260.45 
L 75.508451 260.45 
L 75.508451 259.570063 
L 75.508451 260.45 
L 76.41439 260.45 
L 76.41439 259.570063 
L 76.41439 260.45 
L 77.631008 260.45 
L 77.631008 259.570063 
L 77.631008 260.45 
L 80.570045 260.45 
L 80.570045 259.570063 
L 80.570045 260.45 
L 83.702624 260.45 
L 83.702624 259.570063 
L 83.702624 260.45 
L 85.11262 260.45 
L 85.11262 259.570063 
L 85.11262 260.45 
L 86.337548 260.45 
L 86.337548 259.570063 
L 86.337548 260.45 
L 87.91007 260.45 
L 87.91007 259.570063 
L 87.91007 260.45 
L 88.844615 260.45 
L 88.844615 259.570063 
L 88.844615 260.45 
L 93.711964 260.45 
L 93.711964 259.570063 
L 93.711964 260.45 
L 97.09961 260.45 
L 97.09961 259.570063 
L 97.09961 260.45 
L 97.474273 260.45 
L 97.474273 259.570063 
L 97.474273 260.45 
L 98.008661 260.45 
L 98.008661 259.570063 
L 98.008661 260.45 
L 98.383324 260.45 
L 98.383324 259.570063 
L 98.383324 260.45 
L 100.136323 260.45 
L 100.136323 259.570063 
L 100.136323 260.45 
L 100.510986 260.45 
L 100.510986 259.570063 
L 100.510986 260.45 
L 101.034903 260.45 
L 101.034903 259.570063 
L 101.034903 260.45 
L 104.383431 260.45 
L 104.383431 259.570063 
L 104.383431 260.45 
L 110.284692 260.45 
L 110.284692 259.570063 
L 110.284692 260.45 
L 113.105501 260.45 
L 113.105501 259.570063 
L 113.105501 260.45 
L 113.480164 260.45 
L 113.480164 259.570063 
L 113.480164 260.45 
L 117.210956 260.45 
L 117.210956 259.570063 
L 117.210956 260.45 
L 121.034191 260.45 
L 121.034191 259.570063 
L 121.034191 260.45 
L 128.237504 260.45 
L 128.237504 259.570063 
L 128.237504 260.45 
L 129.439627 260.45 
L 129.439627 259.570063 
L 129.439627 260.45 
L 132.446747 260.45 
L 132.446747 259.570063 
L 132.446747 260.45 
L 135.470282 260.45 
L 135.470282 259.570063 
L 135.470282 260.45 
L 136.629732 260.45 
L 136.629732 259.570063 
L 136.629732 260.45 
L 138.006552 260.45 
L 138.006552 259.570063 
L 138.006552 260.45 
L 140.847502 260.45 
L 140.847502 259.570063 
L 140.847502 260.45 
L 142.975474 260.45 
L 142.975474 259.570063 
L 142.975474 260.45 
L 143.350137 260.45 
L 143.350137 259.570063 
L 143.350137 260.45 
L 145.60018 260.45 
L 145.60018 259.570063 
L 145.60018 260.45 
L 147.513643 260.45 
L 147.513643 259.570063 
L 147.513643 260.45 
L 149.147776 260.45 
L 149.147776 259.570063 
L 149.147776 260.45 
L 149.522439 260.45 
L 149.522439 259.570063 
L 149.522439 260.45 
L 150.88165 260.45 
L 150.88165 259.570063 
L 150.88165 260.45 
L 156.303812 260.45 
L 156.303812 259.570063 
L 156.303812 260.45 
L 158.966476 260.45 
L 158.966476 259.570063 
L 158.966476 260.45 
L 160.348659 260.45 
L 160.348659 259.570063 
L 160.348659 260.45 
L 160.723322 260.45 
L 160.723322 259.570063 
L 160.723322 260.45 
L 161.561653 260.45 
L 161.561653 259.570063 
L 161.561653 260.45 
L 162.76375 260.45 
L 162.76375 259.570063 
L 162.76375 260.45 
L 163.339383 260.45 
L 163.339383 259.570063 
L 163.339383 260.45 
L 163.725666 260.45 
L 163.725666 259.570063 
L 163.725666 260.45 
L 166.513637 260.45 
L 166.513637 259.570063 
L 166.513637 260.45 
L 169.015056 260.45 
L 169.015056 259.570063 
L 169.015056 260.45 
L 170.15606 260.45 
L 170.15606 259.570063 
L 170.15606 260.45 
L 170.61324 260.45 
L 170.61324 259.570063 
L 170.61324 260.45 
L 172.187452 260.45 
L 172.187452 259.570063 
L 172.187452 260.45 
L 172.562115 260.45 
L 172.562115 259.570063 
L 172.562115 260.45 
L 172.936778 260.45 
L 172.936778 259.570063 
L 172.936778 260.45 
L 173.311441 260.45 
L 173.311441 259.570063 
L 173.311441 260.45 
L 175.030017 260.45 
L 175.030017 259.570063 
L 175.030017 260.45 
L 175.40468 260.45 
L 175.40468 259.570063 
L 175.40468 260.45 
L 177.107773 260.45 
L 177.107773 259.570063 
L 177.107773 260.45 
L 177.578803 260.45 
L 177.578803 259.570063 
L 177.578803 260.45 
L 179.376339 260.45 
L 179.376339 259.570063 
L 179.376339 260.45 
L 180.29156 260.45 
L 180.29156 259.570063 
L 180.29156 260.45 
L 185.682803 260.45 
L 185.682803 259.570063 
L 185.682803 260.45 
L 190.045592 260.45 
L 190.045592 259.570063 
L 190.045592 260.45 
L 192.190798 260.45 
L 192.190798 259.570063 
L 192.190798 260.45 
L 193.310565 260.45 
L 193.310565 259.570063 
L 193.310565 260.45 
L 194.145161 260.45 
L 194.145161 259.570063 
L 194.145161 260.45 
L 195.923864 260.45 
L 195.923864 259.570063 
L 195.923864 260.45 
L 197.000144 260.45 
L 197.000144 259.570063 
L 197.000144 260.45 
L 201.358133 260.45 
L 201.358133 259.570063 
L 201.358133 260.45 
L 203.59882 260.45 
L 203.59882 259.570063 
L 203.59882 260.45 
L 203.973483 260.45 
L 203.973483 259.570063 
L 203.973483 260.45 
L 204.348147 260.45 
L 204.348147 259.570063 
L 204.348147 260.45 
L 210.468062 260.45 
L 210.468062 259.570063 
L 210.468062 260.45 
L 212.526671 260.45 
L 212.526671 259.570063 
L 212.526671 260.45 
L 214.510202 260.45 
L 214.510202 259.570063 
L 214.510202 260.45 
L 216.590701 260.45 
L 216.590701 259.570063 
L 216.590701 260.45 
L 216.965364 260.45 
L 216.965364 259.570063 
L 216.965364 260.45 
L 217.384298 260.45 
L 217.384298 259.570063 
L 217.384298 260.45 
L 218.214934 260.45 
L 218.214934 259.570063 
L 218.214934 260.45 
L 218.589597 260.45 
L 218.589597 259.570063 
L 218.589597 260.45 
L 221.07562 260.45 
L 221.07562 259.570063 
L 221.07562 260.45 
L 221.785535 260.45 
L 221.785535 259.570063 
L 221.785535 260.45 
L 223.539074 260.45 
L 223.539074 259.570063 
L 223.539074 260.45 
L 224.386003 260.45 
L 224.386003 259.570063 
L 224.386003 260.45 
L 225.122427 260.45 
L 225.122427 259.570063 
L 225.122427 260.45 
L 226.704307 260.45 
L 226.704307 259.570063 
L 226.704307 260.45 
L 227.07897 260.45 
L 227.07897 259.570063 
L 227.07897 260.45 
L 227.85922 260.45 
L 227.85922 259.570063 
L 227.85922 260.45 
L 229.743533 260.45 
L 229.743533 259.570063 
L 229.743533 260.45 
L 238.08821 260.45 
L 238.08821 259.570063 
L 238.08821 260.45 
L 244.069606 260.45 
L 244.069606 259.570063 
L 244.069606 260.45 
L 244.444269 260.45 
L 244.444269 259.570063 
L 244.444269 260.45 
L 246.252883 260.45 
L 246.252883 259.570063 
L 246.252883 260.45 
L 246.691803 260.45 
L 246.691803 259.570063 
L 246.691803 260.45 
L 248.580141 260.45 
L 248.580141 259.570063 
L 248.580141 260.45 
L 248.954804 260.45 
L 248.954804 259.570063 
L 248.954804 260.45 
L 258.950841 260.45 
L 258.950841 259.570063 
L 258.950841 260.45 
L 260.9342 260.45 
L 260.9342 259.570063 
L 260.9342 260.45 
L 262.567573 260.45 
L 262.567573 259.570063 
L 262.567573 260.45 
L 263.114732 260.45 
L 263.114732 259.570063 
L 263.114732 260.45 
L 264.117077 260.45 
L 264.117077 259.570063 
L 264.117077 260.45 
L 265.293409 260.45 
L 265.293409 259.570063 
L 265.293409 260.45 
L 266.499414 260.45 
L 266.499414 259.570063 
L 266.499414 260.45 
L 267.024461 260.45 
L 267.024461 259.570063 
L 267.024461 260.45 
L 268.854436 260.45 
L 268.854436 259.570063 
L 268.854436 260.45 
L 269.229099 260.45 
L 269.229099 259.570063 
L 269.229099 260.45 
L 269.951503 260.45 
L 269.951503 259.570063 
L 269.951503 260.45 
L 270.326166 260.45 
L 270.326166 259.570063 
L 270.326166 260.45 
L 272.274645 260.45 
L 272.274645 259.570063 
L 272.274645 260.45 
L 274.275481 260.45 
L 274.275481 259.570063 
L 274.275481 260.45 
L 274.990256 260.45 
L 274.990256 259.570063 
L 274.990256 260.45 
L 275.364919 260.45 
L 275.364919 259.570063 
L 275.364919 260.45 
L 278.091244 260.45 
L 278.091244 259.570063 
L 278.091244 260.45 
L 278.501276 260.45 
L 278.501276 259.570063 
L 278.501276 260.45 
L 284.097225 260.45 
L 284.097225 259.570063 
L 284.097225 260.45 
L 284.958976 260.45 
L 284.958976 259.570063 
L 284.958976 260.45 
L 286.993901 260.45 
L 286.993901 259.570063 
L 286.993901 260.45 
L 290.216624 260.45 
L 290.216624 259.570063 
L 290.216624 260.45 
L 290.591287 260.45 
L 290.591287 259.570063 
L 290.591287 260.45 
L 290.96595 260.45 
L 290.96595 259.570063 
L 290.96595 260.45 
L 292.260245 260.45 
L 292.260245 259.570063 
L 292.260245 260.45 
L 295.66934 260.45 
L 295.66934 259.570063 
L 295.66934 260.45 
L 297.767105 260.45 
L 297.767105 259.570063 
L 297.767105 260.45 
L 298.141768 260.45 
L 298.141768 259.570063 
L 298.141768 260.45 
L 304.650833 260.45 
L 304.650833 259.570063 
L 304.650833 260.45 
L 311.673951 260.45 
L 311.673951 259.570063 
L 311.673951 260.45 
L 315.617881 260.45 
L 315.617881 259.570063 
L 315.617881 260.45 
L 316.802447 260.45 
L 316.802447 259.570063 
L 316.802447 260.45 
L 318.137341 260.45 
L 318.137341 259.570063 
L 318.137341 260.45 
L 325.184617 260.45 
L 325.184617 259.570063 
L 325.184617 260.45 
L 325.55928 260.45 
L 325.55928 259.570063 
L 325.55928 260.45 
L 327.031341 260.45 
L 327.031341 259.570063 
L 327.031341 260.45 
L 328.155231 260.45 
L 328.155231 259.570063 
L 328.155231 260.45 
L 330.673426 260.45 
L 330.673426 259.570063 
L 330.673426 260.45 
L 331.048089 260.45 
L 331.048089 259.570063 
L 331.048089 260.45 
L 331.422752 260.45 
L 331.422752 259.570063 
L 331.422752 260.45 
L 331.878052 260.45 
L 331.878052 259.570063 
L 331.878052 260.45 
L 332.500761 260.45 
L 332.500761 259.570063 
L 332.500761 260.45 
L 339.790899 260.45 
L 339.790899 259.570063 
L 339.790899 260.45 
L 340.165562 260.45 
L 340.165562 259.570063 
L 340.165562 260.45 
L 340.8652 260.45 
L 340.8652 259.570063 
L 340.8652 260.45 
L 341.523064 260.45 
L 341.523064 259.570063 
L 341.523064 260.45 
L 342.751296 260.45 
L 342.751296 259.570063 
L 342.751296 260.45 
L 343.125959 260.45 
L 343.125959 259.570063 
L 343.125959 260.45 
L 345.173984 260.45 
L 345.173984 259.570063 
L 345.173984 260.45 
L 345.890904 260.45 
L 345.890904 259.570063 
L 345.890904 260.45 
L 349.87027 260.45 
L 349.87027 259.570063 
L 349.87027 260.45 
L 350.872277 260.45 
L 350.872277 259.570063 
L 350.872277 260.45 
L 355.562893 260.45 
L 355.562893 259.570063 
L 355.562893 260.45 
L 355.937556 260.45 
L 355.937556 259.570063 
L 355.937556 260.45 
L 356.312219 260.45 
L 356.312219 259.570063 
L 356.312219 260.45 
L 358.353912 260.45 
L 358.353912 259.570063 
L 358.353912 260.45 
L 359.914091 260.45 
L 359.914091 259.570063 
L 359.914091 260.45 
L 361.480365 260.45 
L 361.480365 259.570063 
L 361.480365 260.45 
L 365.233066 260.45 
L 365.233066 259.570063 
L 365.233066 260.45 
L 365.810824 260.45 
L 365.810824 259.570063 
L 365.810824 260.45 
L 367.143216 260.45 
L 367.143216 259.570063 
L 367.143216 260.45 
L 368.530891 260.45 
L 368.530891 259.570063 
L 368.530891 260.45 
L 373.18717 260.45 
L 373.18717 259.570063 
L 373.18717 260.45 
L 373.561833 260.45 
L 373.561833 259.570063 
L 373.561833 260.45 
L 378.130765 260.45 
L 378.130765 259.570063 
L 378.130765 260.45 
L 379.737874 260.45 
L 379.737874 259.570063 
L 379.737874 260.45 
L 380.112537 260.45 
L 380.112537 259.570063 
L 380.112537 260.45 
L 384.863314 260.45 
L 384.863314 259.570063 
L 384.863314 260.45 
L 385.472779 260.45 
L 385.472779 259.570063 
L 385.472779 260.45 
L 386.191308 260.45 
L 386.191308 259.570063 
L 386.191308 260.45 
L 386.565971 260.45 
L 386.565971 259.570063 
L 386.565971 260.45 
L 388.27115 260.45 
L 388.27115 259.570063 
L 388.27115 260.45 
L 391.731777 260.45 
L 391.731777 259.570063 
L 391.731777 260.45 
L 392.10644 260.45 
L 392.10644 259.570063 
L 392.10644 260.45 
L 393.948118 260.45 
L 393.948118 259.570063 
L 393.948118 260.45 
L 396.308371 260.45 
L 396.308371 259.570063 
L 396.308371 260.45 
L 399.757674 260.45 
L 399.757674 259.570063 
L 399.757674 260.45 
L 400.3977 260.45 
L 400.3977 259.570063 
L 400.3977 260.45 
L 400.973777 260.45 
L 400.973777 259.570063 
L 400.973777 260.45 
L 401.352844 260.45 
L 401.352844 259.570063 
L 401.352844 260.45 
L 402.302989 260.45 
L 402.302989 259.570063 
L 402.302989 260.45 
L 403.957369 260.45 
L 403.957369 259.570063 
L 403.957369 260.45 
L 405.465008 260.45 
L 405.465008 259.570063 
L 405.465008 260.45 
L 405.839671 260.45 
L 405.839671 259.570063 
L 405.839671 260.45 
L 406.214334 260.45 
L 406.214334 259.570063 
L 406.214334 260.45 
L 409.148518 260.45 
L 409.148518 259.570063 
L 409.148518 260.45 
L 410.013486 260.45 
L 410.013486 259.570063 
L 410.013486 260.45 
L 410.388149 260.45 
L 410.388149 259.570063 
L 410.388149 260.45 
L 410.762812 260.45 
L 410.762812 259.570063 
L 410.762812 260.45 
L 410.950144 260.45 
L 410.950144 260.45 
" clip-path="url(#p00f7cfd5ea)" style="fill: none; stroke: #2ca02c; stroke-width: 1.5; stroke-linecap: square"/>
   </g>
   <g id="line2d_34">
    <path d="M 38.509674 260.45 
L 38.509674 259.570063 
L 38.509674 260.45 
L 40.192961 260.45 
L 40.192961 259.570063 
L 40.192961 260.45 
L 42.545715 260.45 
L 42.545715 259.570063 
L 42.545715 260.45 
L 46.02934 260.45 
L 46.02934 259.570063 
L 46.02934 260.45 
L 47.758828 260.45 
L 47.758828 259.570063 
L 47.758828 260.45 
L 51.414688 260.45 
L 51.414688 259.570063 
L 51.414688 260.45 
L 52.889364 260.45 
L 52.889364 259.570063 
L 52.889364 260.45 
L 56.409256 260.45 
L 56.409256 259.570063 
L 56.409256 260.45 
L 57.441543 260.45 
L 57.441543 259.570063 
L 57.441543 260.45 
L 59.271784 260.45 
L 59.271784 259.570063 
L 59.271784 260.45 
L 61.216584 260.45 
L 61.216584 259.570063 
L 61.216584 260.45 
L 62.125382 260.45 
L 62.125382 259.570063 
L 62.125382 260.45 
L 63.203511 260.45 
L 63.203511 259.570063 
L 63.203511 260.45 
L 63.865089 260.45 
L 63.865089 259.570063 
L 63.865089 260.45 
L 68.030452 260.45 
L 68.030452 259.570063 
L 68.139825 259.570063 
L 68.217783 259.570063 
L 68.217783 260.45 
L 74.3497 260.45 
L 74.3497 259.570063 
L 74.3497 260.45 
L 74.946082 260.45 
L 74.946082 259.570063 
L 74.946082 260.45 
L 75.852021 260.45 
L 75.852021 259.570063 
L 75.852021 260.45 
L 77.068639 260.45 
L 77.068639 259.570063 
L 77.068639 260.45 
L 80.007676 260.45 
L 80.007676 259.570063 
L 80.007676 260.45 
L 83.140255 260.45 
L 83.140255 259.570063 
L 83.140255 260.45 
L 84.550251 260.45 
L 84.550251 259.570063 
L 84.550251 260.45 
L 85.775179 260.45 
L 85.775179 259.570063 
L 85.775179 260.45 
L 87.347701 260.45 
L 87.347701 259.570063 
L 87.347701 260.45 
L 88.282246 260.45 
L 88.282246 259.570063 
L 88.282246 260.45 
L 93.149595 260.45 
L 93.149595 259.570063 
L 93.149595 260.45 
L 96.537241 260.45 
L 96.537241 259.570063 
L 96.537241 260.45 
L 96.675276 260.45 
L 96.675276 259.570063 
L 96.724572 260.45 
L 97.446292 260.45 
L 97.446292 259.570063 
L 97.446292 260.45 
L 97.617065 260.45 
L 97.617065 259.570063 
L 97.633623 260.45 
L 99.573954 260.45 
L 99.573954 259.570063 
L 99.612217 259.570063 
L 99.761285 259.570063 
L 99.761285 260.45 
L 100.472534 260.45 
L 100.472534 259.570063 
L 100.472534 260.45 
L 103.821062 260.45 
L 103.821062 259.570063 
L 103.821062 260.45 
L 109.722323 260.45 
L 109.722323 259.570063 
L 109.722323 260.45 
L 112.543132 260.45 
L 112.543132 259.570063 
L 112.543132 260.45 
L 112.826435 260.45 
L 112.826435 259.570063 
L 112.826435 260.45 
L 116.648587 260.45 
L 116.648587 259.570063 
L 116.648587 260.45 
L 120.471821 260.45 
L 120.471821 259.570063 
L 120.471821 260.45 
L 127.675134 260.45 
L 127.675134 259.570063 
L 127.675134 260.45 
L 128.877258 260.45 
L 128.877258 259.570063 
L 128.877258 260.45 
L 131.884378 260.45 
L 131.884378 259.570063 
L 131.884378 260.45 
L 134.907912 260.45 
L 134.907912 259.570063 
L 134.907912 260.45 
L 136.067362 260.45 
L 136.067362 259.570063 
L 136.067362 260.45 
L 137.444183 260.45 
L 137.444183 259.570063 
L 137.444183 260.45 
L 140.285133 260.45 
L 140.285133 259.570063 
L 140.285133 260.45 
L 142.413104 260.45 
L 142.413104 259.570063 
L 142.413104 260.45 
L 142.648907 260.45 
L 142.648907 259.570063 
L 142.648907 260.45 
L 145.03781 260.45 
L 145.03781 259.570063 
L 145.03781 260.45 
L 146.951274 260.45 
L 146.951274 259.570063 
L 146.951274 260.45 
L 148.585407 260.45 
L 148.585407 259.570063 
L 148.585407 260.45 
L 148.875264 260.45 
L 148.875264 259.570063 
L 148.875264 260.45 
L 150.319281 260.45 
L 150.319281 259.570063 
L 150.319281 260.45 
L 155.741443 260.45 
L 155.741443 259.570063 
L 155.741443 260.45 
L 158.404107 260.45 
L 158.404107 259.570063 
L 158.404107 260.45 
L 159.78629 260.45 
L 159.78629 259.570063 
L 159.78629 260.45 
L 159.996001 260.45 
L 159.996001 259.570063 
L 159.996001 260.45 
L 160.999284 260.45 
L 160.999284 259.570063 
L 160.999284 260.45 
L 162.20138 260.45 
L 162.20138 259.570063 
L 162.20138 260.45 
L 162.777013 260.45 
L 162.777013 259.570063 
L 162.777013 260.45 
L 163.163297 260.45 
L 163.163297 259.570063 
L 163.163297 260.45 
L 165.951268 260.45 
L 165.951268 259.570063 
L 165.951268 260.45 
L 168.452687 260.45 
L 168.452687 259.570063 
L 168.452687 260.45 
L 169.593691 260.45 
L 169.593691 259.570063 
L 169.593691 260.45 
L 170.05087 260.45 
L 170.05087 259.570063 
L 170.05087 260.45 
L 171.625082 260.45 
L 171.625082 259.570063 
L 171.625082 260.45 
L 171.897234 260.45 
L 171.897234 259.570063 
L 171.932768 259.570063 
L 172.084565 259.570063 
L 172.084565 260.45 
L 172.666678 260.45 
L 172.666678 259.570063 
L 172.666678 260.45 
L 174.467648 260.45 
L 174.467648 259.570063 
L 174.467648 260.45 
L 174.771381 260.45 
L 174.771381 259.570063 
L 174.771381 260.45 
L 176.545404 260.45 
L 176.545404 259.570063 
L 176.545404 260.45 
L 177.016434 260.45 
L 177.016434 259.570063 
L 177.016434 260.45 
L 178.81397 260.45 
L 178.81397 259.570063 
L 178.81397 260.45 
L 179.729191 260.45 
L 179.729191 259.570063 
L 179.729191 260.45 
L 185.120433 260.45 
L 185.120433 259.570063 
L 185.120433 260.45 
L 189.483222 260.45 
L 189.483222 259.570063 
L 189.483222 260.45 
L 191.628429 260.45 
L 191.628429 259.570063 
L 191.628429 260.45 
L 192.748196 260.45 
L 192.748196 259.570063 
L 192.748196 260.45 
L 193.582792 260.45 
L 193.582792 259.570063 
L 193.582792 260.45 
L 195.361495 260.45 
L 195.361495 259.570063 
L 195.361495 260.45 
L 196.437775 260.45 
L 196.437775 259.570063 
L 196.437775 260.45 
L 200.795764 260.45 
L 200.795764 259.570063 
L 200.795764 260.45 
L 203.036451 260.45 
L 203.036451 259.570063 
L 203.036451 260.45 
L 203.232327 260.45 
L 203.232327 259.570063 
L 203.232327 260.45 
L 203.348689 260.45 
L 203.348689 259.570063 
L 203.419659 260.45 
L 209.905693 260.45 
L 209.905693 259.570063 
L 209.905693 260.45 
L 211.964302 260.45 
L 211.964302 259.570063 
L 211.964302 260.45 
L 213.947832 260.45 
L 213.947832 259.570063 
L 213.947832 260.45 
L 216.028331 260.45 
L 216.028331 259.570063 
L 216.028331 260.45 
L 216.37944 260.45 
L 216.37944 259.570063 
L 216.37944 260.45 
L 216.821929 260.45 
L 216.821929 259.570063 
L 216.821929 260.45 
L 217.652565 260.45 
L 217.652565 259.570063 
L 217.652565 260.45 
L 217.911136 260.45 
L 217.911136 259.570063 
L 217.911136 260.45 
L 220.513251 260.45 
L 220.513251 259.570063 
L 220.513251 260.45 
L 221.223166 260.45 
L 221.223166 259.570063 
L 221.223166 260.45 
L 222.976705 260.45 
L 222.976705 259.570063 
L 222.976705 260.45 
L 223.823634 260.45 
L 223.823634 259.570063 
L 223.823634 260.45 
L 224.560058 260.45 
L 224.560058 259.570063 
L 224.560058 260.45 
L 226.141937 260.45 
L 226.141937 259.570063 
L 226.21534 259.570063 
L 226.329269 259.570063 
L 226.329269 260.45 
L 227.29685 260.45 
L 227.29685 259.570063 
L 227.29685 260.45 
L 229.181164 260.45 
L 229.181164 259.570063 
L 229.181164 260.45 
L 237.525841 260.45 
L 237.525841 259.570063 
L 237.525841 260.45 
L 243.507237 260.45 
L 243.507237 259.570063 
L 243.507237 260.45 
L 243.708871 260.45 
L 243.708871 259.570063 
L 243.708871 260.45 
L 245.690513 260.45 
L 245.690513 259.570063 
L 245.690513 260.45 
L 246.129434 260.45 
L 246.129434 259.570063 
L 246.129434 260.45 
L 248.017772 260.45 
L 248.017772 259.570063 
L 248.017772 260.45 
L 248.347313 260.45 
L 248.347313 259.570063 
L 248.347313 260.45 
L 258.388471 260.45 
L 258.388471 259.570063 
L 258.388471 260.45 
L 260.37183 260.45 
L 260.37183 259.570063 
L 260.37183 260.45 
L 262.005204 260.45 
L 262.005204 259.570063 
L 262.005204 260.45 
L 262.552363 260.45 
L 262.552363 259.570063 
L 262.552363 260.45 
L 263.554707 260.45 
L 263.554707 259.570063 
L 263.554707 260.45 
L 264.73104 260.45 
L 264.73104 259.570063 
L 264.73104 260.45 
L 265.937045 260.45 
L 265.937045 259.570063 
L 265.937045 260.45 
L 266.462092 260.45 
L 266.462092 259.570063 
L 266.462092 260.45 
L 268.292066 260.45 
L 268.292066 259.570063 
L 268.292066 260.45 
L 268.616389 260.45 
L 268.616389 259.570063 
L 268.616389 260.45 
L 269.389133 260.45 
L 269.389133 259.570063 
L 269.389133 260.45 
L 269.608228 260.45 
L 269.608228 259.570063 
L 269.608228 260.45 
L 271.712276 260.45 
L 271.712276 259.570063 
L 271.712276 260.45 
L 273.713112 260.45 
L 273.713112 259.570063 
L 273.713112 260.45 
L 274.427887 260.45 
L 274.427887 259.570063 
L 274.427887 260.45 
L 274.706471 260.45 
L 274.706471 259.570063 
L 274.706471 260.45 
L 277.528874 260.45 
L 277.528874 259.570063 
L 277.528874 260.45 
L 277.938907 260.45 
L 277.938907 259.570063 
L 277.938907 260.45 
L 283.534855 260.45 
L 283.534855 259.570063 
L 283.534855 260.45 
L 284.396606 260.45 
L 284.396606 259.570063 
L 284.396606 260.45 
L 286.431532 260.45 
L 286.431532 259.570063 
L 286.431532 260.45 
L 289.654255 260.45 
L 289.654255 259.570063 
L 289.679853 259.570063 
L 289.841587 259.570063 
L 289.841587 260.45 
L 289.871203 259.570063 
L 290.028918 259.570063 
L 290.028918 260.45 
L 291.697876 260.45 
L 291.697876 259.570063 
L 291.697876 260.45 
L 295.106971 260.45 
L 295.106971 259.570063 
L 295.106971 260.45 
L 297.204736 260.45 
L 297.204736 259.570063 
L 297.204736 260.45 
L 297.394006 260.45 
L 297.394006 259.570063 
L 297.394006 260.45 
L 304.088464 260.45 
L 304.088464 259.570063 
L 304.088464 260.45 
L 311.111582 260.45 
L 311.111582 259.570063 
L 311.111582 260.45 
L 315.055512 260.45 
L 315.055512 259.570063 
L 315.055512 260.45 
L 316.240078 260.45 
L 316.240078 259.570063 
L 316.240078 260.45 
L 317.574972 260.45 
L 317.574972 259.570063 
L 317.574972 260.45 
L 324.622248 260.45 
L 324.622248 259.570063 
L 324.729639 259.570063 
L 324.809579 259.570063 
L 324.809579 260.45 
L 326.468972 260.45 
L 326.468972 259.570063 
L 326.468972 260.45 
L 327.592862 260.45 
L 327.592862 259.570063 
L 327.592862 260.45 
L 330.111057 260.45 
L 330.111057 259.570063 
L 330.148879 259.570063 
L 330.223768 259.570063 
L 330.223768 258.690125 
L 330.298388 259.570063 
L 330.48572 259.570063 
L 330.48572 260.45 
L 331.315683 260.45 
L 331.315683 259.570063 
L 331.315683 260.45 
L 331.938392 260.45 
L 331.938392 259.570063 
L 331.938392 260.45 
L 339.228529 260.45 
L 339.228529 259.570063 
L 339.228529 260.45 
L 339.46842 260.45 
L 339.46842 259.570063 
L 339.46842 260.45 
L 340.302831 260.45 
L 340.302831 259.570063 
L 340.302831 260.45 
L 340.960695 260.45 
L 340.960695 259.570063 
L 340.960695 260.45 
L 342.188927 260.45 
L 342.188927 259.570063 
L 342.188927 260.45 
L 342.425693 260.45 
L 342.425693 259.570063 
L 342.425693 260.45 
L 344.611615 260.45 
L 344.611615 259.570063 
L 344.611615 260.45 
L 345.328534 260.45 
L 345.328534 259.570063 
L 345.328534 260.45 
L 349.3079 260.45 
L 349.3079 259.570063 
L 349.3079 260.45 
L 350.309907 260.45 
L 350.309907 259.570063 
L 350.309907 260.45 
L 355.000524 260.45 
L 355.000524 259.570063 
L 355.000524 260.45 
L 355.12472 260.45 
L 355.12472 259.570063 
L 355.187855 260.45 
L 355.582549 260.45 
L 355.582549 259.570063 
L 355.582549 260.45 
L 357.791543 260.45 
L 357.791543 259.570063 
L 357.791543 260.45 
L 359.351721 260.45 
L 359.351721 259.570063 
L 359.351721 260.45 
L 360.917996 260.45 
L 360.917996 259.570063 
L 360.917996 260.45 
L 364.670697 260.45 
L 364.670697 259.570063 
L 364.670697 260.45 
L 365.248455 260.45 
L 365.248455 259.570063 
L 365.248455 260.45 
L 366.580847 260.45 
L 366.580847 259.570063 
L 366.580847 260.45 
L 367.968522 260.45 
L 367.968522 259.570063 
L 367.968522 260.45 
L 372.624801 260.45 
L 372.624801 259.570063 
L 372.624801 260.45 
L 372.809604 260.45 
L 372.809604 259.570063 
L 372.812133 260.45 
L 377.568396 260.45 
L 377.568396 259.570063 
L 377.568396 260.45 
L 379.175505 260.45 
L 379.175505 259.570063 
L 379.175505 260.45 
L 379.338053 260.45 
L 379.338053 259.570063 
L 379.362836 260.45 
L 384.300945 260.45 
L 384.300945 259.570063 
L 384.300945 260.45 
L 384.91041 260.45 
L 384.91041 259.570063 
L 384.91041 260.45 
L 385.628939 260.45 
L 385.628939 259.570063 
L 385.64655 259.570063 
L 385.816271 259.570063 
L 385.816271 260.45 
L 387.708781 260.45 
L 387.708781 259.570063 
L 387.708781 260.45 
L 391.169408 260.45 
L 391.169408 259.570063 
L 391.169408 260.45 
L 391.434165 260.45 
L 391.434165 259.570063 
L 391.434165 260.45 
L 393.385749 260.45 
L 393.385749 259.570063 
L 393.385749 260.45 
L 395.746002 260.45 
L 395.746002 259.570063 
L 395.746002 260.45 
L 399.195305 260.45 
L 399.195305 259.570063 
L 399.195305 260.45 
L 399.835331 260.45 
L 399.835331 259.570063 
L 399.835331 260.45 
L 400.411408 260.45 
L 400.411408 259.570063 
L 400.411408 260.45 
L 400.790474 260.45 
L 400.790474 259.570063 
L 400.790474 260.45 
L 401.74062 260.45 
L 401.74062 259.570063 
L 401.74062 260.45 
L 403.394999 260.45 
L 403.394999 259.570063 
L 403.394999 260.45 
L 404.902639 260.45 
L 404.902639 259.570063 
L 404.94069 259.570063 
L 405.08997 259.570063 
L 405.08997 260.45 
L 405.278359 260.45 
L 405.278359 259.570063 
L 405.278359 260.45 
L 408.586149 260.45 
L 408.586149 259.570063 
L 408.586149 260.45 
L 409.451117 260.45 
L 409.451117 259.570063 
L 409.459934 259.570063 
L 409.638448 259.570063 
L 409.638448 260.45 
L 409.756557 260.45 
L 409.756557 259.570063 
L 409.82578 260.45 
L 410.013111 260.45 
L 410.013111 260.45 
" clip-path="url(#p00f7cfd5ea)" style="fill: none; stroke: #d62728; stroke-width: 1.5; stroke-linecap: square"/>
   </g>
   <g id="line2d_35">
    <path d="M 38.697193 260.45 
L 38.697193 259.570063 
L 38.697193 260.45 
L 40.38048 260.45 
L 40.38048 259.570063 
L 40.38048 260.45 
L 42.733234 260.45 
L 42.733234 259.570063 
L 42.733234 260.45 
L 46.216859 260.45 
L 46.216859 259.570063 
L 46.216859 260.45 
L 47.946347 260.45 
L 47.946347 259.570063 
L 47.946347 260.45 
L 51.602207 260.45 
L 51.602207 259.570063 
L 51.602207 260.45 
L 53.076883 260.45 
L 53.076883 259.570063 
L 53.076883 260.45 
L 56.596775 260.45 
L 56.596775 259.570063 
L 56.596775 260.45 
L 57.629062 260.45 
L 57.629062 259.570063 
L 57.629062 260.45 
L 59.459303 260.45 
L 59.459303 259.570063 
L 59.459303 260.45 
L 61.404103 260.45 
L 61.404103 259.570063 
L 61.404103 260.45 
L 62.312901 260.45 
L 62.312901 259.570063 
L 62.312901 260.45 
L 63.39103 260.45 
L 63.39103 259.570063 
L 63.39103 260.45 
L 64.052608 260.45 
L 64.052608 259.570063 
L 64.052608 260.45 
L 68.21797 260.45 
L 68.21797 259.570063 
L 68.21797 260.45 
L 68.405302 260.45 
L 68.405302 259.570063 
L 68.592634 259.570063 
L 68.592634 260.45 
L 74.537219 260.45 
L 74.537219 259.570063 
L 74.537219 260.45 
L 75.133601 260.45 
L 75.133601 259.570063 
L 75.133601 260.45 
L 76.03954 260.45 
L 76.03954 259.570063 
L 76.03954 260.45 
L 77.256158 260.45 
L 77.256158 259.570063 
L 77.256158 260.45 
L 80.195195 260.45 
L 80.195195 259.570063 
L 80.195195 260.45 
L 83.327773 260.45 
L 83.327773 259.570063 
L 83.327773 260.45 
L 84.737769 260.45 
L 84.737769 259.570063 
L 84.737769 260.45 
L 85.962698 260.45 
L 85.962698 259.570063 
L 85.962698 260.45 
L 87.53522 260.45 
L 87.53522 259.570063 
L 87.53522 260.45 
L 88.469765 260.45 
L 88.469765 259.570063 
L 88.469765 260.45 
L 93.337114 260.45 
L 93.337114 259.570063 
L 93.337114 260.45 
L 96.724759 260.45 
L 96.724759 259.570063 
L 96.724759 260.45 
L 96.912091 260.45 
L 96.912091 259.570063 
L 97.099422 259.570063 
L 97.099422 260.45 
L 97.633811 260.45 
L 97.633811 259.570063 
L 97.633811 260.45 
L 97.821142 260.45 
L 97.821142 259.570063 
L 98.008474 259.570063 
L 98.008474 260.45 
L 99.761473 260.45 
L 99.761473 259.570063 
L 99.761473 260.45 
L 99.948804 260.45 
L 99.948804 259.570063 
L 100.136136 259.570063 
L 100.136136 260.45 
L 100.660053 260.45 
L 100.660053 259.570063 
L 100.660053 260.45 
L 104.008581 260.45 
L 104.008581 259.570063 
L 104.008581 260.45 
L 109.909842 260.45 
L 109.909842 259.570063 
L 109.909842 260.45 
L 112.730651 260.45 
L 112.730651 259.570063 
L 112.730651 260.45 
L 113.013954 260.45 
L 113.013954 259.570063 
L 113.105314 260.45 
L 116.836106 260.45 
L 116.836106 259.570063 
L 116.836106 260.45 
L 120.65934 260.45 
L 120.65934 259.570063 
L 120.65934 260.45 
L 127.862653 260.45 
L 127.862653 259.570063 
L 127.862653 260.45 
L 129.064777 260.45 
L 129.064777 259.570063 
L 129.064777 260.45 
L 132.071897 260.45 
L 132.071897 259.570063 
L 132.071897 260.45 
L 135.095431 260.45 
L 135.095431 259.570063 
L 135.095431 260.45 
L 136.254881 260.45 
L 136.254881 259.570063 
L 136.254881 260.45 
L 137.631701 260.45 
L 137.631701 259.570063 
L 137.631701 260.45 
L 140.472651 260.45 
L 140.472651 259.570063 
L 140.472651 260.45 
L 142.600623 260.45 
L 142.600623 259.570063 
L 142.600623 260.45 
L 142.836426 260.45 
L 142.836426 259.570063 
L 142.975286 259.570063 
L 142.975286 260.45 
L 145.225329 260.45 
L 145.225329 259.570063 
L 145.225329 260.45 
L 147.138793 260.45 
L 147.138793 259.570063 
L 147.138793 260.45 
L 148.772926 260.45 
L 148.772926 259.570063 
L 148.772926 260.45 
L 149.062783 260.45 
L 149.062783 259.570063 
L 149.147589 260.45 
L 150.5068 260.45 
L 150.5068 259.570063 
L 150.5068 260.45 
L 155.928962 260.45 
L 155.928962 259.570063 
L 155.928962 260.45 
L 158.591626 260.45 
L 158.591626 259.570063 
L 158.591626 260.45 
L 159.973809 260.45 
L 159.973809 259.570063 
L 159.973809 260.45 
L 160.183519 260.45 
L 160.183519 259.570063 
L 160.348472 259.570063 
L 160.348472 260.45 
L 161.186803 260.45 
L 161.186803 259.570063 
L 161.186803 260.45 
L 162.388899 260.45 
L 162.388899 259.570063 
L 162.388899 260.45 
L 162.964532 260.45 
L 162.964532 259.570063 
L 162.964532 260.45 
L 163.350816 260.45 
L 163.350816 259.570063 
L 163.350816 260.45 
L 166.138787 260.45 
L 166.138787 259.570063 
L 166.138787 260.45 
L 168.640206 260.45 
L 168.640206 259.570063 
L 168.640206 260.45 
L 169.78121 260.45 
L 169.78121 259.570063 
L 169.78121 260.45 
L 170.238389 260.45 
L 170.238389 259.570063 
L 170.238389 260.45 
L 171.812601 260.45 
L 171.812601 259.570063 
L 171.812601 260.45 
L 172.084753 260.45 
L 172.084753 259.570063 
L 172.187264 260.45 
L 172.272084 260.45 
L 172.272084 259.570063 
L 172.561927 259.570063 
L 172.561927 260.45 
L 172.854197 260.45 
L 172.854197 259.570063 
L 172.93659 260.45 
L 174.655167 260.45 
L 174.655167 259.570063 
L 174.655167 260.45 
L 174.958899 260.45 
L 174.958899 259.570063 
L 175.02983 260.45 
L 176.732923 260.45 
L 176.732923 259.570063 
L 176.732923 260.45 
L 177.203953 260.45 
L 177.203953 259.570063 
L 177.203953 260.45 
L 179.001489 260.45 
L 179.001489 259.570063 
L 179.001489 260.45 
L 179.91671 260.45 
L 179.91671 259.570063 
L 179.91671 260.45 
L 185.307952 260.45 
L 185.307952 259.570063 
L 185.307952 260.45 
L 189.670741 260.45 
L 189.670741 259.570063 
L 189.670741 260.45 
L 191.815948 260.45 
L 191.815948 259.570063 
L 191.815948 260.45 
L 192.935714 260.45 
L 192.935714 259.570063 
L 192.935714 260.45 
L 193.770311 260.45 
L 193.770311 259.570063 
L 193.770311 260.45 
L 195.549014 260.45 
L 195.549014 259.570063 
L 195.549014 260.45 
L 196.625294 260.45 
L 196.625294 259.570063 
L 196.625294 260.45 
L 200.983283 260.45 
L 200.983283 259.570063 
L 200.983283 260.45 
L 203.22397 260.45 
L 203.22397 259.570063 
L 203.22397 260.45 
L 203.419846 260.45 
L 203.419846 259.570063 
L 203.598633 259.570063 
L 203.598633 260.45 
L 203.607178 259.570063 
L 203.973296 259.570063 
L 203.973296 260.45 
L 210.093211 260.45 
L 210.093211 259.570063 
L 210.093211 260.45 
L 212.151821 260.45 
L 212.151821 259.570063 
L 212.151821 260.45 
L 214.135351 260.45 
L 214.135351 259.570063 
L 214.135351 260.45 
L 216.21585 260.45 
L 216.21585 259.570063 
L 216.21585 260.45 
L 216.566958 260.45 
L 216.566958 259.570063 
L 216.590513 260.45 
L 217.009448 260.45 
L 217.009448 259.570063 
L 217.009448 260.45 
L 217.840084 260.45 
L 217.840084 259.570063 
L 217.840084 260.45 
L 218.098655 260.45 
L 218.098655 259.570063 
L 218.214747 259.570063 
L 218.214747 260.45 
L 220.70077 260.45 
L 220.70077 259.570063 
L 220.70077 260.45 
L 221.410685 260.45 
L 221.410685 259.570063 
L 221.410685 260.45 
L 223.164223 260.45 
L 223.164223 259.570063 
L 223.164223 260.45 
L 224.011153 260.45 
L 224.011153 259.570063 
L 224.011153 260.45 
L 224.747577 260.45 
L 224.747577 259.570063 
L 224.747577 260.45 
L 226.329456 260.45 
L 226.329456 259.570063 
L 226.329456 260.45 
L 226.516788 260.45 
L 226.516788 259.570063 
L 226.704119 259.570063 
L 226.704119 260.45 
L 227.484369 260.45 
L 227.484369 259.570063 
L 227.484369 260.45 
L 229.368683 260.45 
L 229.368683 259.570063 
L 229.368683 260.45 
L 237.71336 260.45 
L 237.71336 259.570063 
L 237.71336 260.45 
L 243.694755 260.45 
L 243.694755 259.570063 
L 243.694755 260.45 
L 243.89639 260.45 
L 243.89639 259.570063 
L 244.069419 259.570063 
L 244.069419 260.45 
L 245.878032 260.45 
L 245.878032 259.570063 
L 245.878032 260.45 
L 246.316953 260.45 
L 246.316953 259.570063 
L 246.316953 260.45 
L 248.205291 260.45 
L 248.205291 259.570063 
L 248.205291 260.45 
L 248.534832 260.45 
L 248.534832 259.570063 
L 248.579954 260.45 
L 258.57599 260.45 
L 258.57599 259.570063 
L 258.57599 260.45 
L 260.559349 260.45 
L 260.559349 259.570063 
L 260.559349 260.45 
L 262.192722 260.45 
L 262.192722 259.570063 
L 262.192722 260.45 
L 262.739881 260.45 
L 262.739881 259.570063 
L 262.739881 260.45 
L 263.742226 260.45 
L 263.742226 259.570063 
L 263.742226 260.45 
L 264.918559 260.45 
L 264.918559 259.570063 
L 264.918559 260.45 
L 266.124564 260.45 
L 266.124564 259.570063 
L 266.124564 260.45 
L 266.649611 260.45 
L 266.649611 259.570063 
L 266.649611 260.45 
L 268.479585 260.45 
L 268.479585 259.570063 
L 268.479585 260.45 
L 268.803907 260.45 
L 268.803907 259.570063 
L 268.854248 260.45 
L 269.576652 260.45 
L 269.576652 259.570063 
L 269.576652 260.45 
L 269.795747 260.45 
L 269.795747 259.570063 
L 269.951315 259.570063 
L 269.951315 260.45 
L 271.899795 260.45 
L 271.899795 259.570063 
L 271.899795 260.45 
L 273.900631 260.45 
L 273.900631 259.570063 
L 273.900631 260.45 
L 274.615405 260.45 
L 274.615405 259.570063 
L 274.615405 260.45 
L 274.89399 260.45 
L 274.89399 259.570063 
L 274.990068 260.45 
L 277.716393 260.45 
L 277.716393 259.570063 
L 277.716393 260.45 
L 278.126426 260.45 
L 278.126426 259.570063 
L 278.126426 260.45 
L 283.722374 260.45 
L 283.722374 259.570063 
L 283.722374 260.45 
L 284.584125 260.45 
L 284.584125 259.570063 
L 284.584125 260.45 
L 286.61905 260.45 
L 286.61905 259.570063 
L 286.61905 260.45 
L 289.841774 260.45 
L 289.841774 259.570063 
L 289.841774 260.45 
L 290.029105 260.45 
L 290.029105 259.570063 
L 290.216437 259.570063 
L 290.216437 260.45 
L 290.216437 259.570063 
L 290.5911 259.570063 
L 290.5911 260.45 
L 291.885395 260.45 
L 291.885395 259.570063 
L 291.885395 260.45 
L 295.29449 260.45 
L 295.29449 259.570063 
L 295.29449 260.45 
L 297.392255 260.45 
L 297.392255 259.570063 
L 297.392255 260.45 
L 297.581525 260.45 
L 297.581525 259.570063 
L 297.766918 259.570063 
L 297.766918 260.45 
L 304.275983 260.45 
L 304.275983 259.570063 
L 304.275983 260.45 
L 311.2991 260.45 
L 311.2991 259.570063 
L 311.2991 260.45 
L 315.243031 260.45 
L 315.243031 259.570063 
L 315.243031 260.45 
L 316.427597 260.45 
L 316.427597 259.570063 
L 316.427597 260.45 
L 317.762491 260.45 
L 317.762491 259.570063 
L 317.762491 260.45 
L 324.809766 260.45 
L 324.809766 259.570063 
L 324.809766 260.45 
L 324.997098 260.45 
L 324.997098 259.570063 
L 325.18443 259.570063 
L 325.18443 260.45 
L 326.656491 260.45 
L 326.656491 259.570063 
L 326.656491 260.45 
L 327.78038 260.45 
L 327.78038 259.570063 
L 327.78038 260.45 
L 330.298576 260.45 
L 330.298576 259.570063 
L 330.298576 260.45 
L 330.485907 260.45 
L 330.485907 259.570063 
L 330.673239 259.570063 
L 330.673239 260.45 
L 330.673239 259.570063 
L 331.047902 259.570063 
L 331.047902 260.45 
L 331.503201 260.45 
L 331.503201 259.570063 
L 331.503201 260.45 
L 332.125911 260.45 
L 332.125911 259.570063 
L 332.125911 260.45 
L 339.416048 260.45 
L 339.416048 259.570063 
L 339.416048 260.45 
L 339.655939 260.45 
L 339.655939 259.570063 
L 339.790711 259.570063 
L 339.790711 260.45 
L 340.49035 260.45 
L 340.49035 259.570063 
L 340.49035 260.45 
L 341.148214 260.45 
L 341.148214 259.570063 
L 341.148214 260.45 
L 342.376446 260.45 
L 342.376446 259.570063 
L 342.376446 260.45 
L 342.613212 260.45 
L 342.613212 259.570063 
L 342.751109 259.570063 
L 342.751109 260.45 
L 344.799134 260.45 
L 344.799134 259.570063 
L 344.799134 260.45 
L 345.516053 260.45 
L 345.516053 259.570063 
L 345.516053 260.45 
L 349.495419 260.45 
L 349.495419 259.570063 
L 349.495419 260.45 
L 350.497426 260.45 
L 350.497426 259.570063 
L 350.497426 260.45 
L 355.188042 260.45 
L 355.188042 259.570063 
L 355.188042 260.45 
L 355.375374 260.45 
L 355.375374 259.570063 
L 355.562705 259.570063 
L 355.562705 260.45 
L 355.770068 260.45 
L 355.770068 259.570063 
L 355.937369 259.570063 
L 355.937369 260.45 
L 357.979062 260.45 
L 357.979062 259.570063 
L 357.979062 260.45 
L 359.53924 260.45 
L 359.53924 259.570063 
L 359.53924 260.45 
L 361.105515 260.45 
L 361.105515 259.570063 
L 361.105515 260.45 
L 364.858216 260.45 
L 364.858216 259.570063 
L 364.858216 260.45 
L 365.435974 260.45 
L 365.435974 259.570063 
L 365.435974 260.45 
L 366.768366 260.45 
L 366.768366 259.570063 
L 366.768366 260.45 
L 368.156041 260.45 
L 368.156041 259.570063 
L 368.156041 260.45 
L 372.81232 260.45 
L 372.81232 259.570063 
L 372.81232 260.45 
L 372.999652 260.45 
L 372.999652 259.570063 
L 373.186983 259.570063 
L 373.186983 260.45 
L 377.755914 260.45 
L 377.755914 259.570063 
L 377.755914 260.45 
L 379.363023 260.45 
L 379.363023 259.570063 
L 379.363023 260.45 
L 379.550355 260.45 
L 379.550355 259.570063 
L 379.737686 259.570063 
L 379.737686 260.45 
L 384.488464 260.45 
L 384.488464 259.570063 
L 384.488464 260.45 
L 385.097929 260.45 
L 385.097929 259.570063 
L 385.097929 260.45 
L 385.816458 260.45 
L 385.816458 259.570063 
L 385.816458 260.45 
L 386.003789 260.45 
L 386.003789 259.570063 
L 386.191121 259.570063 
L 386.191121 260.45 
L 387.8963 260.45 
L 387.8963 259.570063 
L 387.8963 260.45 
L 391.356927 260.45 
L 391.356927 259.570063 
L 391.356927 260.45 
L 391.621684 260.45 
L 391.621684 259.570063 
L 391.73159 260.45 
L 393.573268 260.45 
L 393.573268 259.570063 
L 393.573268 260.45 
L 395.933521 260.45 
L 395.933521 259.570063 
L 395.933521 260.45 
L 399.382823 260.45 
L 399.382823 259.570063 
L 399.382823 260.45 
L 400.022849 260.45 
L 400.022849 259.570063 
L 400.022849 260.45 
L 400.598927 260.45 
L 400.598927 259.570063 
L 400.598927 260.45 
L 400.977993 260.45 
L 400.977993 259.570063 
L 400.977993 260.45 
L 401.928139 260.45 
L 401.928139 259.570063 
L 401.928139 260.45 
L 403.582518 260.45 
L 403.582518 259.570063 
L 403.582518 260.45 
L 405.090157 260.45 
L 405.090157 259.570063 
L 405.090157 260.45 
L 405.277489 260.45 
L 405.277489 259.570063 
L 405.46482 259.570063 
L 405.46482 260.45 
L 405.465878 259.570063 
L 405.839484 259.570063 
L 405.839484 260.45 
L 408.773668 260.45 
L 408.773668 259.570063 
L 408.773668 260.45 
L 409.638636 260.45 
L 409.638636 259.570063 
L 409.638636 260.45 
L 409.825967 260.45 
L 409.825967 259.570063 
L 410.013299 259.570063 
L 410.013299 260.45 
L 410.013299 259.570063 
L 410.387962 259.570063 
L 410.387962 260.45 
L 410.762625 260.45 
L 410.762625 260.45 
" clip-path="url(#p00f7cfd5ea)" style="fill: none; stroke: #9467bd; stroke-width: 1.5; stroke-linecap: square"/>
   </g>
   <g id="patch_3">
    <path d="M 37.01875 260.45 
L 37.01875 25.8 
" style="fill: none; stroke: #000000; stroke-width: 0.8; stroke-linejoin: miter; stroke-linecap: square"/>
   </g>
   <g id="patch_4">
    <path d="M 415.60565 260.45 
L 415.60565 25.8 
" style="fill: none; stroke: #000000; stroke-width: 0.8; stroke-linejoin: miter; stroke-linecap: square"/>
   </g>
   <g id="patch_5">
    <path d="M 37.01875 260.45 
L 415.60565 260.45 
" style="fill: none; stroke: #000000; stroke-width: 0.8; stroke-linejoin: miter; stroke-linecap: square"/>
   </g>
   <g id="patch_6">
    <path d="M 37.01875 25.8 
L 415.60565 25.8 
" style="fill: none; stroke: #000000; stroke-width: 0.8; stroke-linejoin: miter; stroke-linecap: square"/>
   </g>
   <g id="text_16">
    <!-- Sent_vs_recived_packets -->
    <g transform="translate(151.726575 19.8)scale(0.12 -0.12)">
     <defs>
      <path id="DejaVuSans-53" d="M 3425 4513 
L 3425 3897 
Q 3066 4069 2747 4153 
Q 2428 4238 2131 4238 
Q 1616 4238 1336 4038 
Q 1056 3838 1056 3469 
Q 1056 3159 1242 3001 
Q 1428 2844 1947 2747 
L 2328 2669 
Q 3034 2534 3370 2195 
Q 3706 1856 3706 1288 
Q 3706 609 3251 259 
Q 2797 -91 1919 -91 
Q 1588 -91 1214 -16 
Q 841 59 441 206 
L 441 856 
Q 825 641 1194 531 
Q 1563 422 1919 422 
Q 2459 422 2753 634 
Q 3047 847 3047 1241 
Q 3047 1584 2836 1778 
Q 2625 1972 2144 2069 
L 1759 2144 
Q 1053 2284 737 2584 
Q 422 2884 422 3419 
Q 422 4038 858 4394 
Q 1294 4750 2059 4750 
Q 2388 4750 2728 4690 
Q 3069 4631 3425 4513 
z
" transform="scale(0.015625)"/>
      <path id="DejaVuSans-65" d="M 3597 1894 
L 3597 1613 
L 953 1613 
Q 991 1019 1311 708 
Q 1631 397 2203 397 
Q 2534 397 2845 478 
Q 3156 559 3463 722 
L 3463 178 
Q 3153 47 2828 -22 
Q 2503 -91 2169 -91 
Q 1331 -91 842 396 
Q 353 884 353 1716 
Q 353 2575 817 3079 
Q 1281 3584 2069 3584 
Q 2775 3584 3186 3129 
Q 3597 2675 3597 1894 
z
M 3022 2063 
Q 3016 2534 2758 2815 
Q 2500 3097 2075 3097 
Q 1594 3097 1305 2825 
Q 1016 2553 972 2059 
L 3022 2063 
z
" transform="scale(0.015625)"/>
      <path id="DejaVuSans-6e" d="M 3513 2113 
L 3513 0 
L 2938 0 
L 2938 2094 
Q 2938 2591 2744 2837 
Q 2550 3084 2163 3084 
Q 1697 3084 1428 2787 
Q 1159 2491 1159 1978 
L 1159 0 
L 581 0 
L 581 3500 
L 1159 3500 
L 1159 2956 
Q 1366 3272 1645 3428 
Q 1925 3584 2291 3584 
Q 2894 3584 3203 3211 
Q 3513 2838 3513 2113 
z
" transform="scale(0.015625)"/>
      <path id="DejaVuSans-74" d="M 1172 4494 
L 1172 3500 
L 2356 3500 
L 2356 3053 
L 1172 3053 
L 1172 1153 
Q 1172 725 1289 603 
Q 1406 481 1766 481 
L 2356 481 
L 2356 0 
L 1766 0 
Q 1100 0 847 248 
Q 594 497 594 1153 
L 594 3053 
L 172 3053 
L 172 3500 
L 594 3500 
L 594 4494 
L 1172 4494 
z
" transform="scale(0.015625)"/>
      <path id="DejaVuSans-5f" d="M 3263 -1063 
L 3263 -1509 
L -63 -1509 
L -63 -1063 
L 3263 -1063 
z
" transform="scale(0.015625)"/>
      <path id="DejaVuSans-76" d="M 191 3500 
L 800 3500 
L 1894 563 
L 2988 3500 
L 3597 3500 
L 2284 0 
L 1503 0 
L 191 3500 
z
" transform="scale(0.015625)"/>
      <path id="DejaVuSans-73" d="M 2834 3397 
L 2834 2853 
Q 2591 2978 2328 3040 
Q 2066 3103 1784 3103 
Q 1356 3103 1142 2972 
Q 928 2841 928 2578 
Q 928 2378 1081 2264 
Q 1234 2150 1697 2047 
L 1894 2003 
Q 2506 1872 2764 1633 
Q 3022 1394 3022 966 
Q 3022 478 2636 193 
Q 2250 -91 1575 -91 
Q 1294 -91 989 -36 
Q 684 19 347 128 
L 347 722 
Q 666 556 975 473 
Q 1284 391 1588 391 
Q 1994 391 2212 530 
Q 2431 669 2431 922 
Q 2431 1156 2273 1281 
Q 2116 1406 1581 1522 
L 1381 1569 
Q 847 1681 609 1914 
Q 372 2147 372 2553 
Q 372 3047 722 3315 
Q 1072 3584 1716 3584 
Q 2034 3584 2315 3537 
Q 2597 3491 2834 3397 
z
" transform="scale(0.015625)"/>
      <path id="DejaVuSans-72" d="M 2631 2963 
Q 2534 3019 2420 3045 
Q 2306 3072 2169 3072 
Q 1681 3072 1420 2755 
Q 1159 2438 1159 1844 
L 1159 0 
L 581 0 
L 581 3500 
L 1159 3500 
L 1159 2956 
Q 1341 3275 1631 3429 
Q 1922 3584 2338 3584 
Q 2397 3584 2469 3576 
Q 2541 3569 2628 3553 
L 2631 2963 
z
" transform="scale(0.015625)"/>
      <path id="DejaVuSans-63" d="M 3122 3366 
L 3122 2828 
Q 2878 2963 2633 3030 
Q 2388 3097 2138 3097 
Q 1578 3097 1268 2742 
Q 959 2388 959 1747 
Q 959 1106 1268 751 
Q 1578 397 2138 397 
Q 2388 397 2633 464 
Q 2878 531 3122 666 
L 3122 134 
Q 2881 22 2623 -34 
Q 2366 -91 2075 -91 
Q 1284 -91 818 406 
Q 353 903 353 1747 
Q 353 2603 823 3093 
Q 1294 3584 2113 3584 
Q 2378 3584 2631 3529 
Q 2884 3475 3122 3366 
z
" transform="scale(0.015625)"/>
      <path id="DejaVuSans-69" d="M 603 3500 
L 1178 3500 
L 1178 0 
L 603 0 
L 603 3500 
z
M 603 4863 
L 1178 4863 
L 1178 4134 
L 603 4134 
L 603 4863 
z
" transform="scale(0.015625)"/>
      <path id="DejaVuSans-64" d="M 2906 2969 
L 2906 4863 
L 3481 4863 
L 3481 0 
L 2906 0 
L 2906 525 
Q 2725 213 2448 61 
Q 2172 -91 1784 -91 
Q 1150 -91 751 415 
Q 353 922 353 1747 
Q 353 2572 751 3078 
Q 1150 3584 1784 3584 
Q 2172 3584 2448 3432 
Q 2725 3281 2906 2969 
z
M 947 1747 
Q 947 1113 1208 752 
Q 1469 391 1925 391 
Q 2381 391 2643 752 
Q 2906 1113 2906 1747 
Q 2906 2381 2643 2742 
Q 2381 3103 1925 3103 
Q 1469 3103 1208 2742 
Q 947 2381 947 1747 
z
" transform="scale(0.015625)"/>
      <path id="DejaVuSans-70" d="M 1159 525 
L 1159 -1331 
L 581 -1331 
L 581 3500 
L 1159 3500 
L 1159 2969 
Q 1341 3281 1617 3432 
Q 1894 3584 2278 3584 
Q 2916 3584 3314 3078 
Q 3713 2572 3713 1747 
Q 3713 922 3314 415 
Q 2916 -91 2278 -91 
Q 1894 -91 1617 61 
Q 1341 213 1159 525 
z
M 3116 1747 
Q 3116 2381 2855 2742 
Q 2594 3103 2138 3103 
Q 1681 3103 1420 2742 
Q 1159 2381 1159 1747 
Q 1159 1113 1420 752 
Q 1681 391 2138 391 
Q 2594 391 2855 752 
Q 3116 1113 3116 1747 
z
" transform="scale(0.015625)"/>
      <path id="DejaVuSans-61" d="M 2194 1759 
Q 1497 1759 1228 1600 
Q 959 1441 959 1056 
Q 959 750 1161 570 
Q 1363 391 1709 391 
Q 2188 391 2477 730 
Q 2766 1069 2766 1631 
L 2766 1759 
L 2194 1759 
z
M 3341 1997 
L 3341 0 
L 2766 0 
L 2766 531 
Q 2569 213 2275 61 
Q 1981 -91 1556 -91 
Q 1019 -91 701 211 
Q 384 513 384 1019 
Q 384 1609 779 1909 
Q 1175 2209 1959 2209 
L 2766 2209 
L 2766 2266 
Q 2766 2663 2505 2880 
Q 2244 3097 1772 3097 
Q 1472 3097 1187 3025 
Q 903 2953 641 2809 
L 641 3341 
Q 956 3463 1253 3523 
Q 1550 3584 1831 3584 
Q 2591 3584 2966 3190 
Q 3341 2797 3341 1997 
z
" transform="scale(0.015625)"/>
      <path id="DejaVuSans-6b" d="M 581 4863 
L 1159 4863 
L 1159 1991 
L 2875 3500 
L 3609 3500 
L 1753 1863 
L 3688 0 
L 2938 0 
L 1159 1709 
L 1159 0 
L 581 0 
L 581 4863 
z
" transform="scale(0.015625)"/>
     </defs>
     <use xlink:href="#DejaVuSans-53"/>
     <use xlink:href="#DejaVuSans-65" x="63.476562"/>
     <use xlink:href="#DejaVuSans-6e" x="125"/>
     <use xlink:href="#DejaVuSans-74" x="188.378906"/>
     <use xlink:href="#DejaVuSans-5f" x="227.587891"/>
     <use xlink:href="#DejaVuSans-76" x="277.587891"/>
     <use xlink:href="#DejaVuSans-73" x="336.767578"/>
     <use xlink:href="#DejaVuSans-5f" x="388.867188"/>
     <use xlink:href="#DejaVuSans-72" x="438.867188"/>
     <use xlink:href="#DejaVuSans-65" x="477.730469"/>
     <use xlink:href="#DejaVuSans-63" x="539.253906"/>
     <use xlink:href="#DejaVuSans-69" x="594.234375"/>
     <use xlink:href="#DejaVuSans-76" x="622.017578"/>
     <use xlink:href="#DejaVuSans-65" x="681.197266"/>
     <use xlink:href="#DejaVuSans-64" x="742.720703"/>
     <use xlink:href="#DejaVuSans-5f" x="806.197266"/>
     <use xlink:href="#DejaVuSans-70" x="856.197266"/>
     <use xlink:href="#DejaVuSans-61" x="919.673828"/>
     <use xlink:href="#DejaVuSans-63" x="980.953125"/>
     <use xlink:href="#DejaVuSans-6b" x="1035.933594"/>
     <use xlink:href="#DejaVuSans-65" x="1090.21875"/>
     <use xlink:href="#DejaVuSans-74" x="1151.742188"/>
     <use xlink:href="#DejaVuSans-73" x="1190.951172"/>
    </g>
   </g>
   <g id="legend_1">
    <g id="patch_7">
     <path d="M 167.71815 107.190625 
L 408.60565 107.190625 
Q 410.60565 107.190625 410.60565 105.190625 
L 410.60565 32.8 
Q 410.60565 30.8 408.60565 30.8 
L 167.71815 30.8 
Q 165.71815 30.8 165.71815 32.8 
L 165.71815 105.190625 
Q 165.71815 107.190625 167.71815 107.190625 
z
" style="fill: #ffffff; opacity: 0.8; stroke: #cccccc; stroke-linejoin: miter"/>
    </g>
    <g id="line2d_36">
     <path d="M 169.71815 38.898437 
L 179.71815 38.898437 
L 189.71815 38.898437 
" style="fill: none; stroke: #1f77b4; stroke-width: 1.5; stroke-linecap: square"/>
    </g>
    <g id="text_17">
     <!-- Received packets in Network.nodeRx.sink -->
     <g transform="translate(197.71815 42.398437)scale(0.1 -0.1)">
      <defs>
       <path id="DejaVuSans-52" d="M 2841 2188 
Q 3044 2119 3236 1894 
Q 3428 1669 3622 1275 
L 4263 0 
L 3584 0 
L 2988 1197 
Q 2756 1666 2539 1819 
Q 2322 1972 1947 1972 
L 1259 1972 
L 1259 0 
L 628 0 
L 628 4666 
L 2053 4666 
Q 2853 4666 3247 4331 
Q 3641 3997 3641 3322 
Q 3641 2881 3436 2590 
Q 3231 2300 2841 2188 
z
M 1259 4147 
L 1259 2491 
L 2053 2491 
Q 2509 2491 2742 2702 
Q 2975 2913 2975 3322 
Q 2975 3731 2742 3939 
Q 2509 4147 2053 4147 
L 1259 4147 
z
" transform="scale(0.015625)"/>
       <path id="DejaVuSans-20" transform="scale(0.015625)"/>
       <path id="DejaVuSans-4e" d="M 628 4666 
L 1478 4666 
L 3547 763 
L 3547 4666 
L 4159 4666 
L 4159 0 
L 3309 0 
L 1241 3903 
L 1241 0 
L 628 0 
L 628 4666 
z
" transform="scale(0.015625)"/>
       <path id="DejaVuSans-77" d="M 269 3500 
L 844 3500 
L 1563 769 
L 2278 3500 
L 2956 3500 
L 3675 769 
L 4391 3500 
L 4966 3500 
L 4050 0 
L 3372 0 
L 2619 2869 
L 1863 0 
L 1184 0 
L 269 3500 
z
" transform="scale(0.015625)"/>
       <path id="DejaVuSans-6f" d="M 1959 3097 
Q 1497 3097 1228 2736 
Q 959 2375 959 1747 
Q 959 1119 1226 758 
Q 1494 397 1959 397 
Q 2419 397 2687 759 
Q 2956 1122 2956 1747 
Q 2956 2369 2687 2733 
Q 2419 3097 1959 3097 
z
M 1959 3584 
Q 2709 3584 3137 3096 
Q 3566 2609 3566 1747 
Q 3566 888 3137 398 
Q 2709 -91 1959 -91 
Q 1206 -91 779 398 
Q 353 888 353 1747 
Q 353 2609 779 3096 
Q 1206 3584 1959 3584 
z
" transform="scale(0.015625)"/>
       <path id="DejaVuSans-2e" d="M 684 794 
L 1344 794 
L 1344 0 
L 684 0 
L 684 794 
z
" transform="scale(0.015625)"/>
       <path id="DejaVuSans-78" d="M 3513 3500 
L 2247 1797 
L 3578 0 
L 2900 0 
L 1881 1375 
L 863 0 
L 184 0 
L 1544 1831 
L 300 3500 
L 978 3500 
L 1906 2253 
L 2834 3500 
L 3513 3500 
z
" transform="scale(0.015625)"/>
      </defs>
      <use xlink:href="#DejaVuSans-52"/>
      <use xlink:href="#DejaVuSans-65" x="64.982422"/>
      <use xlink:href="#DejaVuSans-63" x="126.505859"/>
      <use xlink:href="#DejaVuSans-65" x="181.486328"/>
      <use xlink:href="#DejaVuSans-69" x="243.009766"/>
      <use xlink:href="#DejaVuSans-76" x="270.792969"/>
      <use xlink:href="#DejaVuSans-65" x="329.972656"/>
      <use xlink:href="#DejaVuSans-64" x="391.496094"/>
      <use xlink:href="#DejaVuSans-20" x="454.972656"/>
      <use xlink:href="#DejaVuSans-70" x="486.759766"/>
      <use xlink:href="#DejaVuSans-61" x="550.236328"/>
      <use xlink:href="#DejaVuSans-63" x="611.515625"/>
      <use xlink:href="#DejaVuSans-6b" x="666.496094"/>
      <use xlink:href="#DejaVuSans-65" x="720.78125"/>
      <use xlink:href="#DejaVuSans-74" x="782.304688"/>
      <use xlink:href="#DejaVuSans-73" x="821.513672"/>
      <use xlink:href="#DejaVuSans-20" x="873.613281"/>
      <use xlink:href="#DejaVuSans-69" x="905.400391"/>
      <use xlink:href="#DejaVuSans-6e" x="933.183594"/>
      <use xlink:href="#DejaVuSans-20" x="996.5625"/>
      <use xlink:href="#DejaVuSans-4e" x="1028.349609"/>
      <use xlink:href="#DejaVuSans-65" x="1103.154297"/>
      <use xlink:href="#DejaVuSans-74" x="1164.677734"/>
      <use xlink:href="#DejaVuSans-77" x="1203.886719"/>
      <use xlink:href="#DejaVuSans-6f" x="1285.673828"/>
      <use xlink:href="#DejaVuSans-72" x="1346.855469"/>
      <use xlink:href="#DejaVuSans-6b" x="1387.96875"/>
      <use xlink:href="#DejaVuSans-2e" x="1445.878906"/>
      <use xlink:href="#DejaVuSans-6e" x="1477.666016"/>
      <use xlink:href="#DejaVuSans-6f" x="1541.044922"/>
      <use xlink:href="#DejaVuSans-64" x="1602.226562"/>
      <use xlink:href="#DejaVuSans-65" x="1665.703125"/>
      <use xlink:href="#DejaVuSans-52" x="1727.226562"/>
      <use xlink:href="#DejaVuSans-78" x="1796.708984"/>
      <use xlink:href="#DejaVuSans-2e" x="1855.888672"/>
      <use xlink:href="#DejaVuSans-73" x="1887.675781"/>
      <use xlink:href="#DejaVuSans-69" x="1939.775391"/>
      <use xlink:href="#DejaVuSans-6e" x="1967.558594"/>
      <use xlink:href="#DejaVuSans-6b" x="2030.9375"/>
     </g>
    </g>
    <g id="line2d_37">
     <path d="M 169.71815 53.576562 
L 179.71815 53.576562 
L 189.71815 53.576562 
" style="fill: none; stroke: #ff7f0e; stroke-width: 1.5; stroke-linecap: square"/>
    </g>
    <g id="text_18">
     <!-- Sent packets in Network.nodeTx.gen -->
     <g transform="translate(197.71815 57.076562)scale(0.1 -0.1)">
      <defs>
       <path id="DejaVuSans-54" d="M -19 4666 
L 3928 4666 
L 3928 4134 
L 2272 4134 
L 2272 0 
L 1638 0 
L 1638 4134 
L -19 4134 
L -19 4666 
z
" transform="scale(0.015625)"/>
       <path id="DejaVuSans-67" d="M 2906 1791 
Q 2906 2416 2648 2759 
Q 2391 3103 1925 3103 
Q 1463 3103 1205 2759 
Q 947 2416 947 1791 
Q 947 1169 1205 825 
Q 1463 481 1925 481 
Q 2391 481 2648 825 
Q 2906 1169 2906 1791 
z
M 3481 434 
Q 3481 -459 3084 -895 
Q 2688 -1331 1869 -1331 
Q 1566 -1331 1297 -1286 
Q 1028 -1241 775 -1147 
L 775 -588 
Q 1028 -725 1275 -790 
Q 1522 -856 1778 -856 
Q 2344 -856 2625 -561 
Q 2906 -266 2906 331 
L 2906 616 
Q 2728 306 2450 153 
Q 2172 0 1784 0 
Q 1141 0 747 490 
Q 353 981 353 1791 
Q 353 2603 747 3093 
Q 1141 3584 1784 3584 
Q 2172 3584 2450 3431 
Q 2728 3278 2906 2969 
L 2906 3500 
L 3481 3500 
L 3481 434 
z
" transform="scale(0.015625)"/>
      </defs>
      <use xlink:href="#DejaVuSans-53"/>
      <use xlink:href="#DejaVuSans-65" x="63.476562"/>
      <use xlink:href="#DejaVuSans-6e" x="125"/>
      <use xlink:href="#DejaVuSans-74" x="188.378906"/>
      <use xlink:href="#DejaVuSans-20" x="227.587891"/>
      <use xlink:href="#DejaVuSans-70" x="259.375"/>
      <use xlink:href="#DejaVuSans-61" x="322.851562"/>
      <use xlink:href="#DejaVuSans-63" x="384.130859"/>
      <use xlink:href="#DejaVuSans-6b" x="439.111328"/>
      <use xlink:href="#DejaVuSans-65" x="493.396484"/>
      <use xlink:href="#DejaVuSans-74" x="554.919922"/>
      <use xlink:href="#DejaVuSans-73" x="594.128906"/>
      <use xlink:href="#DejaVuSans-20" x="646.228516"/>
      <use xlink:href="#DejaVuSans-69" x="678.015625"/>
      <use xlink:href="#DejaVuSans-6e" x="705.798828"/>
      <use xlink:href="#DejaVuSans-20" x="769.177734"/>
      <use xlink:href="#DejaVuSans-4e" x="800.964844"/>
      <use xlink:href="#DejaVuSans-65" x="875.769531"/>
      <use xlink:href="#DejaVuSans-74" x="937.292969"/>
      <use xlink:href="#DejaVuSans-77" x="976.501953"/>
      <use xlink:href="#DejaVuSans-6f" x="1058.289062"/>
      <use xlink:href="#DejaVuSans-72" x="1119.470703"/>
      <use xlink:href="#DejaVuSans-6b" x="1160.583984"/>
      <use xlink:href="#DejaVuSans-2e" x="1218.494141"/>
      <use xlink:href="#DejaVuSans-6e" x="1250.28125"/>
      <use xlink:href="#DejaVuSans-6f" x="1313.660156"/>
      <use xlink:href="#DejaVuSans-64" x="1374.841797"/>
      <use xlink:href="#DejaVuSans-65" x="1438.318359"/>
      <use xlink:href="#DejaVuSans-54" x="1499.841797"/>
      <use xlink:href="#DejaVuSans-78" x="1560.925781"/>
      <use xlink:href="#DejaVuSans-2e" x="1620.105469"/>
      <use xlink:href="#DejaVuSans-67" x="1651.892578"/>
      <use xlink:href="#DejaVuSans-65" x="1715.369141"/>
      <use xlink:href="#DejaVuSans-6e" x="1776.892578"/>
     </g>
    </g>
    <g id="line2d_38">
     <path d="M 169.71815 68.254687 
L 179.71815 68.254687 
L 189.71815 68.254687 
" style="fill: none; stroke: #2ca02c; stroke-width: 1.5; stroke-linecap: square"/>
    </g>
    <g id="text_19">
     <!-- buffer size in Network.nodeRx.queue -->
     <g transform="translate(197.71815 71.754687)scale(0.1 -0.1)">
      <defs>
       <path id="DejaVuSans-62" d="M 3116 1747 
Q 3116 2381 2855 2742 
Q 2594 3103 2138 3103 
Q 1681 3103 1420 2742 
Q 1159 2381 1159 1747 
Q 1159 1113 1420 752 
Q 1681 391 2138 391 
Q 2594 391 2855 752 
Q 3116 1113 3116 1747 
z
M 1159 2969 
Q 1341 3281 1617 3432 
Q 1894 3584 2278 3584 
Q 2916 3584 3314 3078 
Q 3713 2572 3713 1747 
Q 3713 922 3314 415 
Q 2916 -91 2278 -91 
Q 1894 -91 1617 61 
Q 1341 213 1159 525 
L 1159 0 
L 581 0 
L 581 4863 
L 1159 4863 
L 1159 2969 
z
" transform="scale(0.015625)"/>
       <path id="DejaVuSans-75" d="M 544 1381 
L 544 3500 
L 1119 3500 
L 1119 1403 
Q 1119 906 1312 657 
Q 1506 409 1894 409 
Q 2359 409 2629 706 
Q 2900 1003 2900 1516 
L 2900 3500 
L 3475 3500 
L 3475 0 
L 2900 0 
L 2900 538 
Q 2691 219 2414 64 
Q 2138 -91 1772 -91 
Q 1169 -91 856 284 
Q 544 659 544 1381 
z
M 1991 3584 
L 1991 3584 
z
" transform="scale(0.015625)"/>
       <path id="DejaVuSans-66" d="M 2375 4863 
L 2375 4384 
L 1825 4384 
Q 1516 4384 1395 4259 
Q 1275 4134 1275 3809 
L 1275 3500 
L 2222 3500 
L 2222 3053 
L 1275 3053 
L 1275 0 
L 697 0 
L 697 3053 
L 147 3053 
L 147 3500 
L 697 3500 
L 697 3744 
Q 697 4328 969 4595 
Q 1241 4863 1831 4863 
L 2375 4863 
z
" transform="scale(0.015625)"/>
       <path id="DejaVuSans-7a" d="M 353 3500 
L 3084 3500 
L 3084 2975 
L 922 459 
L 3084 459 
L 3084 0 
L 275 0 
L 275 525 
L 2438 3041 
L 353 3041 
L 353 3500 
z
" transform="scale(0.015625)"/>
       <path id="DejaVuSans-71" d="M 947 1747 
Q 947 1113 1208 752 
Q 1469 391 1925 391 
Q 2381 391 2643 752 
Q 2906 1113 2906 1747 
Q 2906 2381 2643 2742 
Q 2381 3103 1925 3103 
Q 1469 3103 1208 2742 
Q 947 2381 947 1747 
z
M 2906 525 
Q 2725 213 2448 61 
Q 2172 -91 1784 -91 
Q 1150 -91 751 415 
Q 353 922 353 1747 
Q 353 2572 751 3078 
Q 1150 3584 1784 3584 
Q 2172 3584 2448 3432 
Q 2725 3281 2906 2969 
L 2906 3500 
L 3481 3500 
L 3481 -1331 
L 2906 -1331 
L 2906 525 
z
" transform="scale(0.015625)"/>
      </defs>
      <use xlink:href="#DejaVuSans-62"/>
      <use xlink:href="#DejaVuSans-75" x="63.476562"/>
      <use xlink:href="#DejaVuSans-66" x="126.855469"/>
      <use xlink:href="#DejaVuSans-66" x="162.060547"/>
      <use xlink:href="#DejaVuSans-65" x="197.265625"/>
      <use xlink:href="#DejaVuSans-72" x="258.789062"/>
      <use xlink:href="#DejaVuSans-20" x="299.902344"/>
      <use xlink:href="#DejaVuSans-73" x="331.689453"/>
      <use xlink:href="#DejaVuSans-69" x="383.789062"/>
      <use xlink:href="#DejaVuSans-7a" x="411.572266"/>
      <use xlink:href="#DejaVuSans-65" x="464.0625"/>
      <use xlink:href="#DejaVuSans-20" x="525.585938"/>
      <use xlink:href="#DejaVuSans-69" x="557.373047"/>
      <use xlink:href="#DejaVuSans-6e" x="585.15625"/>
      <use xlink:href="#DejaVuSans-20" x="648.535156"/>
      <use xlink:href="#DejaVuSans-4e" x="680.322266"/>
      <use xlink:href="#DejaVuSans-65" x="755.126953"/>
      <use xlink:href="#DejaVuSans-74" x="816.650391"/>
      <use xlink:href="#DejaVuSans-77" x="855.859375"/>
      <use xlink:href="#DejaVuSans-6f" x="937.646484"/>
      <use xlink:href="#DejaVuSans-72" x="998.828125"/>
      <use xlink:href="#DejaVuSans-6b" x="1039.941406"/>
      <use xlink:href="#DejaVuSans-2e" x="1097.851562"/>
      <use xlink:href="#DejaVuSans-6e" x="1129.638672"/>
      <use xlink:href="#DejaVuSans-6f" x="1193.017578"/>
      <use xlink:href="#DejaVuSans-64" x="1254.199219"/>
      <use xlink:href="#DejaVuSans-65" x="1317.675781"/>
      <use xlink:href="#DejaVuSans-52" x="1379.199219"/>
      <use xlink:href="#DejaVuSans-78" x="1448.681641"/>
      <use xlink:href="#DejaVuSans-2e" x="1507.861328"/>
      <use xlink:href="#DejaVuSans-71" x="1539.648438"/>
      <use xlink:href="#DejaVuSans-75" x="1603.125"/>
      <use xlink:href="#DejaVuSans-65" x="1666.503906"/>
      <use xlink:href="#DejaVuSans-75" x="1728.027344"/>
      <use xlink:href="#DejaVuSans-65" x="1791.40625"/>
     </g>
    </g>
    <g id="line2d_39">
     <path d="M 169.71815 82.932812 
L 179.71815 82.932812 
L 189.71815 82.932812 
" style="fill: none; stroke: #d62728; stroke-width: 1.5; stroke-linecap: square"/>
    </g>
    <g id="text_20">
     <!-- buffer size in Network.nodeTx.queue -->
     <g transform="translate(197.71815 86.432812)scale(0.1 -0.1)">
      <use xlink:href="#DejaVuSans-62"/>
      <use xlink:href="#DejaVuSans-75" x="63.476562"/>
      <use xlink:href="#DejaVuSans-66" x="126.855469"/>
      <use xlink:href="#DejaVuSans-66" x="162.060547"/>
      <use xlink:href="#DejaVuSans-65" x="197.265625"/>
      <use xlink:href="#DejaVuSans-72" x="258.789062"/>
      <use xlink:href="#DejaVuSans-20" x="299.902344"/>
      <use xlink:href="#DejaVuSans-73" x="331.689453"/>
      <use xlink:href="#DejaVuSans-69" x="383.789062"/>
      <use xlink:href="#DejaVuSans-7a" x="411.572266"/>
      <use xlink:href="#DejaVuSans-65" x="464.0625"/>
      <use xlink:href="#DejaVuSans-20" x="525.585938"/>
      <use xlink:href="#DejaVuSans-69" x="557.373047"/>
      <use xlink:href="#DejaVuSans-6e" x="585.15625"/>
      <use xlink:href="#DejaVuSans-20" x="648.535156"/>
      <use xlink:href="#DejaVuSans-4e" x="680.322266"/>
      <use xlink:href="#DejaVuSans-65" x="755.126953"/>
      <use xlink:href="#DejaVuSans-74" x="816.650391"/>
      <use xlink:href="#DejaVuSans-77" x="855.859375"/>
      <use xlink:href="#DejaVuSans-6f" x="937.646484"/>
      <use xlink:href="#DejaVuSans-72" x="998.828125"/>
      <use xlink:href="#DejaVuSans-6b" x="1039.941406"/>
      <use xlink:href="#DejaVuSans-2e" x="1097.851562"/>
      <use xlink:href="#DejaVuSans-6e" x="1129.638672"/>
      <use xlink:href="#DejaVuSans-6f" x="1193.017578"/>
      <use xlink:href="#DejaVuSans-64" x="1254.199219"/>
      <use xlink:href="#DejaVuSans-65" x="1317.675781"/>
      <use xlink:href="#DejaVuSans-54" x="1379.199219"/>
      <use xlink:href="#DejaVuSans-78" x="1440.283203"/>
      <use xlink:href="#DejaVuSans-2e" x="1499.462891"/>
      <use xlink:href="#DejaVuSans-71" x="1531.25"/>
      <use xlink:href="#DejaVuSans-75" x="1594.726562"/>
      <use xlink:href="#DejaVuSans-65" x="1658.105469"/>
      <use xlink:href="#DejaVuSans-75" x="1719.628906"/>
      <use xlink:href="#DejaVuSans-65" x="1783.007812"/>
     </g>
    </g>
    <g id="line2d_40">
     <path d="M 169.71815 97.610937 
L 179.71815 97.610937 
L 189.71815 97.610937 
" style="fill: none; stroke: #9467bd; stroke-width: 1.5; stroke-linecap: square"/>
    </g>
    <g id="text_21">
     <!-- buffer size in Network.queue -->
     <g transform="translate(197.71815 101.110937)scale(0.1 -0.1)">
      <use xlink:href="#DejaVuSans-62"/>
      <use xlink:href="#DejaVuSans-75" x="63.476562"/>
      <use xlink:href="#DejaVuSans-66" x="126.855469"/>
      <use xlink:href="#DejaVuSans-66" x="162.060547"/>
      <use xlink:href="#DejaVuSans-65" x="197.265625"/>
      <use xlink:href="#DejaVuSans-72" x="258.789062"/>
      <use xlink:href="#DejaVuSans-20" x="299.902344"/>
      <use xlink:href="#DejaVuSans-73" x="331.689453"/>
      <use xlink:href="#DejaVuSans-69" x="383.789062"/>
      <use xlink:href="#DejaVuSans-7a" x="411.572266"/>
      <use xlink:href="#DejaVuSans-65" x="464.0625"/>
      <use xlink:href="#DejaVuSans-20" x="525.585938"/>
      <use xlink:href="#DejaVuSans-69" x="557.373047"/>
      <use xlink:href="#DejaVuSans-6e" x="585.15625"/>
      <use xlink:href="#DejaVuSans-20" x="648.535156"/>
      <use xlink:href="#DejaVuSans-4e" x="680.322266"/>
      <use xlink:href="#DejaVuSans-65" x="755.126953"/>
      <use xlink:href="#DejaVuSans-74" x="816.650391"/>
      <use xlink:href="#DejaVuSans-77" x="855.859375"/>
      <use xlink:href="#DejaVuSans-6f" x="937.646484"/>
      <use xlink:href="#DejaVuSans-72" x="998.828125"/>
      <use xlink:href="#DejaVuSans-6b" x="1039.941406"/>
      <use xlink:href="#DejaVuSans-2e" x="1097.851562"/>
      <use xlink:href="#DejaVuSans-71" x="1129.638672"/>
      <use xlink:href="#DejaVuSans-75" x="1193.115234"/>
      <use xlink:href="#DejaVuSans-65" x="1256.494141"/>
      <use xlink:href="#DejaVuSans-75" x="1318.017578"/>
      <use xlink:href="#DejaVuSans-65" x="1381.396484"/>
     </g>
    </g>
   </g>
  </g>
 </g>
 <defs>
  <clipPath id="p00f7cfd5ea">
   <rect x="37.01875" y="25.8" width="378.5869" height="234.65"/>
  </clipPath>
 </defs>
</svg>
