<?xml version="1.0" encoding="utf-8" standalone="no"?>
<!DOCTYPE svg PUBLIC "-//W3C//DTD SVG 1.1//EN"
  "http://www.w3.org/Graphics/SVG/1.1/DTD/svg11.dtd">
<svg xmlns:xlink="http://www.w3.org/1999/xlink" width="432pt" height="288pt" viewBox="0 0 432 288" xmlns="http://www.w3.org/2000/svg" version="1.1">
 <metadata>
  <rdf:RDF xmlns:dc="http://purl.org/dc/elements/1.1/" xmlns:cc="http://creativecommons.org/ns#" xmlns:rdf="http://www.w3.org/1999/02/22-rdf-syntax-ns#">
   <cc:Work>
    <dc:type rdf:resource="http://purl.org/dc/dcmitype/StillImage"/>
    <dc:date>2022-05-19T10:29:20.463605</dc:date>
    <dc:format>image/svg+xml</dc:format>
    <dc:creator>
     <cc:Agent>
      <dc:title>omnetpp.scave 6.0.0; Matplotlib 3.5.1 w/ backend GTK3Agg; Pandas 1.4.2; Python 3.8.10; Linux-5.4.0-109-generic-x86_64-with-glibc2.29</dc:title>
     </cc:Agent>
    </dc:creator>
   </cc:Work>
  </rdf:RDF>
 </metadata>
 <defs>
  <style type="text/css">*{stroke-linejoin: round; stroke-linecap: butt}</style>
 </defs>
 <g id="figure_1">
  <g id="patch_1">
   <path d="M 0 288 
L 432 288 
L 432 0 
L 0 0 
z
" style="fill: #ffffff"/>
  </g>
  <g id="axes_1">
   <g id="patch_2">
    <path d="M 33.83125 260.45 
L 415.539414 260.45 
L 415.539414 25.8 
L 33.83125 25.8 
z
" style="fill: #ffffff"/>
   </g>
   <g id="matplotlib.axis_1">
    <g id="xtick_1">
     <g id="line2d_1">
      <path d="M 33.83125 260.45 
L 33.83125 25.8 
" clip-path="url(#pffa6dde768)" style="fill: none; stroke: #b0b0b0; stroke-width: 0.8; stroke-linecap: square"/>
     </g>
     <g id="line2d_2">
      <defs>
       <path id="m7c5aac55fe" d="M 0 0 
L 0 3.5 
" style="stroke: #000000; stroke-width: 0.8"/>
      </defs>
      <g>
       <use xlink:href="#m7c5aac55fe" x="33.83125" y="260.45" style="stroke: #000000; stroke-width: 0.8"/>
      </g>
     </g>
     <g id="text_1">
      <!-- 0 -->
      <g transform="translate(30.65 275.048437)scale(0.1 -0.1)">
       <defs>
        <path id="DejaVuSans-30" d="M 2034 4250 
Q 1547 4250 1301 3770 
Q 1056 3291 1056 2328 
Q 1056 1369 1301 889 
Q 1547 409 2034 409 
Q 2525 409 2770 889 
Q 3016 1369 3016 2328 
Q 3016 3291 2770 3770 
Q 2525 4250 2034 4250 
z
M 2034 4750 
Q 2819 4750 3233 4129 
Q 3647 3509 3647 2328 
Q 3647 1150 3233 529 
Q 2819 -91 2034 -91 
Q 1250 -91 836 529 
Q 422 1150 422 2328 
Q 422 3509 836 4129 
Q 1250 4750 2034 4750 
z
" transform="scale(0.015625)"/>
       </defs>
       <use xlink:href="#DejaVuSans-30"/>
      </g>
     </g>
    </g>
    <g id="xtick_2">
     <g id="line2d_3">
      <path d="M 81.050246 260.45 
L 81.050246 25.8 
" clip-path="url(#pffa6dde768)" style="fill: none; stroke: #b0b0b0; stroke-width: 0.8; stroke-linecap: square"/>
     </g>
     <g id="line2d_4">
      <g>
       <use xlink:href="#m7c5aac55fe" x="81.050246" y="260.45" style="stroke: #000000; stroke-width: 0.8"/>
      </g>
     </g>
     <g id="text_2">
      <!-- 25 -->
      <g transform="translate(74.687746 275.048437)scale(0.1 -0.1)">
       <defs>
        <path id="DejaVuSans-32" d="M 1228 531 
L 3431 531 
L 3431 0 
L 469 0 
L 469 531 
Q 828 903 1448 1529 
Q 2069 2156 2228 2338 
Q 2531 2678 2651 2914 
Q 2772 3150 2772 3378 
Q 2772 3750 2511 3984 
Q 2250 4219 1831 4219 
Q 1534 4219 1204 4116 
Q 875 4013 500 3803 
L 500 4441 
Q 881 4594 1212 4672 
Q 1544 4750 1819 4750 
Q 2544 4750 2975 4387 
Q 3406 4025 3406 3419 
Q 3406 3131 3298 2873 
Q 3191 2616 2906 2266 
Q 2828 2175 2409 1742 
Q 1991 1309 1228 531 
z
" transform="scale(0.015625)"/>
        <path id="DejaVuSans-35" d="M 691 4666 
L 3169 4666 
L 3169 4134 
L 1269 4134 
L 1269 2991 
Q 1406 3038 1543 3061 
Q 1681 3084 1819 3084 
Q 2600 3084 3056 2656 
Q 3513 2228 3513 1497 
Q 3513 744 3044 326 
Q 2575 -91 1722 -91 
Q 1428 -91 1123 -41 
Q 819 9 494 109 
L 494 744 
Q 775 591 1075 516 
Q 1375 441 1709 441 
Q 2250 441 2565 725 
Q 2881 1009 2881 1497 
Q 2881 1984 2565 2268 
Q 2250 2553 1709 2553 
Q 1456 2553 1204 2497 
Q 953 2441 691 2322 
L 691 4666 
z
" transform="scale(0.015625)"/>
       </defs>
       <use xlink:href="#DejaVuSans-32"/>
       <use xlink:href="#DejaVuSans-35" x="63.623047"/>
      </g>
     </g>
    </g>
    <g id="xtick_3">
     <g id="line2d_5">
      <path d="M 128.269243 260.45 
L 128.269243 25.8 
" clip-path="url(#pffa6dde768)" style="fill: none; stroke: #b0b0b0; stroke-width: 0.8; stroke-linecap: square"/>
     </g>
     <g id="line2d_6">
      <g>
       <use xlink:href="#m7c5aac55fe" x="128.269243" y="260.45" style="stroke: #000000; stroke-width: 0.8"/>
      </g>
     </g>
     <g id="text_3">
      <!-- 50 -->
      <g transform="translate(121.906743 275.048437)scale(0.1 -0.1)">
       <use xlink:href="#DejaVuSans-35"/>
       <use xlink:href="#DejaVuSans-30" x="63.623047"/>
      </g>
     </g>
    </g>
    <g id="xtick_4">
     <g id="line2d_7">
      <path d="M 175.488239 260.45 
L 175.488239 25.8 
" clip-path="url(#pffa6dde768)" style="fill: none; stroke: #b0b0b0; stroke-width: 0.8; stroke-linecap: square"/>
     </g>
     <g id="line2d_8">
      <g>
       <use xlink:href="#m7c5aac55fe" x="175.488239" y="260.45" style="stroke: #000000; stroke-width: 0.8"/>
      </g>
     </g>
     <g id="text_4">
      <!-- 75 -->
      <g transform="translate(169.125739 275.048437)scale(0.1 -0.1)">
       <defs>
        <path id="DejaVuSans-37" d="M 525 4666 
L 3525 4666 
L 3525 4397 
L 1831 0 
L 1172 0 
L 2766 4134 
L 525 4134 
L 525 4666 
z
" transform="scale(0.015625)"/>
       </defs>
       <use xlink:href="#DejaVuSans-37"/>
       <use xlink:href="#DejaVuSans-35" x="63.623047"/>
      </g>
     </g>
    </g>
    <g id="xtick_5">
     <g id="line2d_9">
      <path d="M 222.707235 260.45 
L 222.707235 25.8 
" clip-path="url(#pffa6dde768)" style="fill: none; stroke: #b0b0b0; stroke-width: 0.8; stroke-linecap: square"/>
     </g>
     <g id="line2d_10">
      <g>
       <use xlink:href="#m7c5aac55fe" x="222.707235" y="260.45" style="stroke: #000000; stroke-width: 0.8"/>
      </g>
     </g>
     <g id="text_5">
      <!-- 100 -->
      <g transform="translate(213.163485 275.048437)scale(0.1 -0.1)">
       <defs>
        <path id="DejaVuSans-31" d="M 794 531 
L 1825 531 
L 1825 4091 
L 703 3866 
L 703 4441 
L 1819 4666 
L 2450 4666 
L 2450 531 
L 3481 531 
L 3481 0 
L 794 0 
L 794 531 
z
" transform="scale(0.015625)"/>
       </defs>
       <use xlink:href="#DejaVuSans-31"/>
       <use xlink:href="#DejaVuSans-30" x="63.623047"/>
       <use xlink:href="#DejaVuSans-30" x="127.246094"/>
      </g>
     </g>
    </g>
    <g id="xtick_6">
     <g id="line2d_11">
      <path d="M 269.926232 260.45 
L 269.926232 25.8 
" clip-path="url(#pffa6dde768)" style="fill: none; stroke: #b0b0b0; stroke-width: 0.8; stroke-linecap: square"/>
     </g>
     <g id="line2d_12">
      <g>
       <use xlink:href="#m7c5aac55fe" x="269.926232" y="260.45" style="stroke: #000000; stroke-width: 0.8"/>
      </g>
     </g>
     <g id="text_6">
      <!-- 125 -->
      <g transform="translate(260.382482 275.048437)scale(0.1 -0.1)">
       <use xlink:href="#DejaVuSans-31"/>
       <use xlink:href="#DejaVuSans-32" x="63.623047"/>
       <use xlink:href="#DejaVuSans-35" x="127.246094"/>
      </g>
     </g>
    </g>
    <g id="xtick_7">
     <g id="line2d_13">
      <path d="M 317.145228 260.45 
L 317.145228 25.8 
" clip-path="url(#pffa6dde768)" style="fill: none; stroke: #b0b0b0; stroke-width: 0.8; stroke-linecap: square"/>
     </g>
     <g id="line2d_14">
      <g>
       <use xlink:href="#m7c5aac55fe" x="317.145228" y="260.45" style="stroke: #000000; stroke-width: 0.8"/>
      </g>
     </g>
     <g id="text_7">
      <!-- 150 -->
      <g transform="translate(307.601478 275.048437)scale(0.1 -0.1)">
       <use xlink:href="#DejaVuSans-31"/>
       <use xlink:href="#DejaVuSans-35" x="63.623047"/>
       <use xlink:href="#DejaVuSans-30" x="127.246094"/>
      </g>
     </g>
    </g>
    <g id="xtick_8">
     <g id="line2d_15">
      <path d="M 364.364224 260.45 
L 364.364224 25.8 
" clip-path="url(#pffa6dde768)" style="fill: none; stroke: #b0b0b0; stroke-width: 0.8; stroke-linecap: square"/>
     </g>
     <g id="line2d_16">
      <g>
       <use xlink:href="#m7c5aac55fe" x="364.364224" y="260.45" style="stroke: #000000; stroke-width: 0.8"/>
      </g>
     </g>
     <g id="text_8">
      <!-- 175 -->
      <g transform="translate(354.820474 275.048437)scale(0.1 -0.1)">
       <use xlink:href="#DejaVuSans-31"/>
       <use xlink:href="#DejaVuSans-37" x="63.623047"/>
       <use xlink:href="#DejaVuSans-35" x="127.246094"/>
      </g>
     </g>
    </g>
    <g id="xtick_9">
     <g id="line2d_17">
      <path d="M 411.58322 260.45 
L 411.58322 25.8 
" clip-path="url(#pffa6dde768)" style="fill: none; stroke: #b0b0b0; stroke-width: 0.8; stroke-linecap: square"/>
     </g>
     <g id="line2d_18">
      <g>
       <use xlink:href="#m7c5aac55fe" x="411.58322" y="260.45" style="stroke: #000000; stroke-width: 0.8"/>
      </g>
     </g>
     <g id="text_9">
      <!-- 200 -->
      <g transform="translate(402.03947 275.048437)scale(0.1 -0.1)">
       <use xlink:href="#DejaVuSans-32"/>
       <use xlink:href="#DejaVuSans-30" x="63.623047"/>
       <use xlink:href="#DejaVuSans-30" x="127.246094"/>
      </g>
     </g>
    </g>
   </g>
   <g id="matplotlib.axis_2">
    <g id="ytick_1">
     <g id="line2d_19">
      <path d="M 33.83125 260.45 
L 415.539414 260.45 
" clip-path="url(#pffa6dde768)" style="fill: none; stroke: #b0b0b0; stroke-width: 0.8; stroke-linecap: square"/>
     </g>
     <g id="line2d_20">
      <defs>
       <path id="m9239e888f8" d="M 0 0 
L -3.5 0 
" style="stroke: #000000; stroke-width: 0.8"/>
      </defs>
      <g>
       <use xlink:href="#m9239e888f8" x="33.83125" y="260.45" style="stroke: #000000; stroke-width: 0.8"/>
      </g>
     </g>
     <g id="text_10">
      <!-- 0.0 -->
      <g transform="translate(10.928125 264.249219)scale(0.1 -0.1)">
       <defs>
        <path id="DejaVuSans-2e" d="M 684 794 
L 1344 794 
L 1344 0 
L 684 0 
L 684 794 
z
" transform="scale(0.015625)"/>
       </defs>
       <use xlink:href="#DejaVuSans-30"/>
       <use xlink:href="#DejaVuSans-2e" x="63.623047"/>
       <use xlink:href="#DejaVuSans-30" x="95.410156"/>
      </g>
     </g>
    </g>
    <g id="ytick_2">
     <g id="line2d_21">
      <path d="M 33.83125 216.453125 
L 415.539414 216.453125 
" clip-path="url(#pffa6dde768)" style="fill: none; stroke: #b0b0b0; stroke-width: 0.8; stroke-linecap: square"/>
     </g>
     <g id="line2d_22">
      <g>
       <use xlink:href="#m9239e888f8" x="33.83125" y="216.453125" style="stroke: #000000; stroke-width: 0.8"/>
      </g>
     </g>
     <g id="text_11">
      <!-- 0.5 -->
      <g transform="translate(10.928125 220.252344)scale(0.1 -0.1)">
       <use xlink:href="#DejaVuSans-30"/>
       <use xlink:href="#DejaVuSans-2e" x="63.623047"/>
       <use xlink:href="#DejaVuSans-35" x="95.410156"/>
      </g>
     </g>
    </g>
    <g id="ytick_3">
     <g id="line2d_23">
      <path d="M 33.83125 172.45625 
L 415.539414 172.45625 
" clip-path="url(#pffa6dde768)" style="fill: none; stroke: #b0b0b0; stroke-width: 0.8; stroke-linecap: square"/>
     </g>
     <g id="line2d_24">
      <g>
       <use xlink:href="#m9239e888f8" x="33.83125" y="172.45625" style="stroke: #000000; stroke-width: 0.8"/>
      </g>
     </g>
     <g id="text_12">
      <!-- 1.0 -->
      <g transform="translate(10.928125 176.255469)scale(0.1 -0.1)">
       <use xlink:href="#DejaVuSans-31"/>
       <use xlink:href="#DejaVuSans-2e" x="63.623047"/>
       <use xlink:href="#DejaVuSans-30" x="95.410156"/>
      </g>
     </g>
    </g>
    <g id="ytick_4">
     <g id="line2d_25">
      <path d="M 33.83125 128.459375 
L 415.539414 128.459375 
" clip-path="url(#pffa6dde768)" style="fill: none; stroke: #b0b0b0; stroke-width: 0.8; stroke-linecap: square"/>
     </g>
     <g id="line2d_26">
      <g>
       <use xlink:href="#m9239e888f8" x="33.83125" y="128.459375" style="stroke: #000000; stroke-width: 0.8"/>
      </g>
     </g>
     <g id="text_13">
      <!-- 1.5 -->
      <g transform="translate(10.928125 132.258594)scale(0.1 -0.1)">
       <use xlink:href="#DejaVuSans-31"/>
       <use xlink:href="#DejaVuSans-2e" x="63.623047"/>
       <use xlink:href="#DejaVuSans-35" x="95.410156"/>
      </g>
     </g>
    </g>
    <g id="ytick_5">
     <g id="line2d_27">
      <path d="M 33.83125 84.4625 
L 415.539414 84.4625 
" clip-path="url(#pffa6dde768)" style="fill: none; stroke: #b0b0b0; stroke-width: 0.8; stroke-linecap: square"/>
     </g>
     <g id="line2d_28">
      <g>
       <use xlink:href="#m9239e888f8" x="33.83125" y="84.4625" style="stroke: #000000; stroke-width: 0.8"/>
      </g>
     </g>
     <g id="text_14">
      <!-- 2.0 -->
      <g transform="translate(10.928125 88.261719)scale(0.1 -0.1)">
       <use xlink:href="#DejaVuSans-32"/>
       <use xlink:href="#DejaVuSans-2e" x="63.623047"/>
       <use xlink:href="#DejaVuSans-30" x="95.410156"/>
      </g>
     </g>
    </g>
    <g id="ytick_6">
     <g id="line2d_29">
      <path d="M 33.83125 40.465625 
L 415.539414 40.465625 
" clip-path="url(#pffa6dde768)" style="fill: none; stroke: #b0b0b0; stroke-width: 0.8; stroke-linecap: square"/>
     </g>
     <g id="line2d_30">
      <g>
       <use xlink:href="#m9239e888f8" x="33.83125" y="40.465625" style="stroke: #000000; stroke-width: 0.8"/>
      </g>
     </g>
     <g id="text_15">
      <!-- 2.5 -->
      <g transform="translate(10.928125 44.264844)scale(0.1 -0.1)">
       <use xlink:href="#DejaVuSans-32"/>
       <use xlink:href="#DejaVuSans-2e" x="63.623047"/>
       <use xlink:href="#DejaVuSans-35" x="95.410156"/>
      </g>
     </g>
    </g>
   </g>
   <g id="line2d_31">
    <path d="M 35.712596 260.45 
L 35.712596 172.45625 
L 35.712596 260.45 
L 37.40976 260.45 
L 37.40976 172.45625 
L 37.40976 260.45 
L 39.781912 260.45 
L 39.781912 172.45625 
L 39.781912 260.45 
L 43.294258 260.45 
L 43.294258 172.45625 
L 43.294258 260.45 
L 45.038004 260.45 
L 45.038004 172.45625 
L 45.038004 260.45 
L 48.724005 260.45 
L 48.724005 172.45625 
L 48.724005 260.45 
L 50.210839 260.45 
L 50.210839 172.45625 
L 50.210839 260.45 
L 53.759751 260.45 
L 53.759751 172.45625 
L 53.759751 260.45 
L 54.800549 260.45 
L 54.800549 172.45625 
L 54.800549 260.45 
L 56.64588 260.45 
L 56.64588 172.45625 
L 56.64588 260.45 
L 58.606713 260.45 
L 58.606713 172.45625 
L 58.606713 260.45 
L 59.523004 260.45 
L 59.523004 172.45625 
L 59.523004 260.45 
L 60.610021 260.45 
L 60.610021 172.45625 
L 60.610021 260.45 
L 61.277054 260.45 
L 61.277054 172.45625 
L 61.277054 260.45 
L 65.476758 260.45 
L 65.476758 172.45625 
L 65.476758 260.45 
L 65.665634 260.45 
L 65.665634 172.45625 
L 65.85451 172.45625 
L 65.85451 260.45 
L 71.848106 260.45 
L 71.848106 172.45625 
L 71.848106 260.45 
L 72.449404 260.45 
L 72.449404 172.45625 
L 72.449404 260.45 
L 73.362812 260.45 
L 73.362812 172.45625 
L 73.362812 260.45 
L 74.58946 260.45 
L 74.58946 172.45625 
L 74.58946 260.45 
L 77.552728 260.45 
L 77.552728 172.45625 
L 77.552728 260.45 
L 80.711134 260.45 
L 80.711134 172.45625 
L 80.711134 260.45 
L 82.132754 260.45 
L 82.132754 172.45625 
L 82.132754 260.45 
L 83.367781 260.45 
L 83.367781 172.45625 
L 83.367781 260.45 
L 84.953269 260.45 
L 84.953269 172.45625 
L 84.953269 260.45 
L 85.895518 260.45 
L 85.895518 172.45625 
L 85.895518 260.45 
L 90.802996 260.45 
L 90.802996 172.45625 
L 90.802996 260.45 
L 94.218571 260.45 
L 94.218571 172.45625 
L 94.218571 260.45 
L 94.407447 260.45 
L 94.407447 172.45625 
L 94.596323 172.45625 
L 94.596323 260.45 
L 95.135117 260.45 
L 95.135117 172.45625 
L 95.135117 260.45 
L 95.323993 260.45 
L 95.323993 172.45625 
L 95.512869 172.45625 
L 95.512869 260.45 
L 97.280321 260.45 
L 97.280321 172.45625 
L 97.280321 260.45 
L 97.469197 260.45 
L 97.469197 172.45625 
L 97.658073 172.45625 
L 97.658073 260.45 
L 98.186309 260.45 
L 98.186309 172.45625 
L 98.186309 260.45 
L 101.562444 260.45 
L 101.562444 172.45625 
L 101.562444 260.45 
L 107.512359 260.45 
L 107.512359 172.45625 
L 107.512359 260.45 
L 110.356423 260.45 
L 110.356423 172.45625 
L 110.356423 260.45 
L 110.642062 260.45 
L 110.642062 172.45625 
L 110.734175 260.45 
L 114.495726 260.45 
L 114.495726 172.45625 
L 114.495726 260.45 
L 118.350481 260.45 
L 118.350481 172.45625 
L 118.350481 260.45 
L 125.613182 260.45 
L 125.613182 172.45625 
L 125.613182 260.45 
L 126.825216 260.45 
L 126.825216 172.45625 
L 126.825216 260.45 
L 129.857128 260.45 
L 129.857128 172.45625 
L 129.857128 260.45 
L 132.905591 260.45 
L 132.905591 172.45625 
L 132.905591 260.45 
L 134.0746 260.45 
L 134.0746 172.45625 
L 134.0746 260.45 
L 135.462771 260.45 
L 135.462771 172.45625 
L 135.462771 260.45 
L 138.327143 260.45 
L 138.327143 172.45625 
L 138.327143 260.45 
L 140.472659 260.45 
L 140.472659 172.45625 
L 140.472659 260.45 
L 140.710406 260.45 
L 140.710406 172.45625 
L 140.850411 172.45625 
L 140.850411 260.45 
L 143.119005 260.45 
L 143.119005 172.45625 
L 143.119005 260.45 
L 145.048244 260.45 
L 145.048244 172.45625 
L 145.048244 260.45 
L 146.695849 260.45 
L 146.695849 172.45625 
L 146.695849 260.45 
L 146.988097 260.45 
L 146.988097 172.45625 
L 147.073601 260.45 
L 148.444018 260.45 
L 148.444018 172.45625 
L 148.444018 260.45 
L 153.910883 260.45 
L 153.910883 172.45625 
L 153.910883 260.45 
L 156.5955 260.45 
L 156.5955 172.45625 
L 156.5955 260.45 
L 157.989078 260.45 
L 157.989078 172.45625 
L 157.989078 260.45 
L 158.200518 260.45 
L 158.200518 172.45625 
L 158.36683 172.45625 
L 158.36683 260.45 
L 159.212073 260.45 
L 159.212073 172.45625 
L 159.212073 260.45 
L 160.42408 260.45 
L 160.42408 172.45625 
L 160.42408 260.45 
L 161.004459 260.45 
L 161.004459 172.45625 
L 161.004459 260.45 
L 161.393927 260.45 
L 161.393927 172.45625 
L 161.393927 260.45 
L 164.204883 260.45 
L 164.204883 172.45625 
L 164.204883 260.45 
L 166.726926 260.45 
L 166.726926 172.45625 
L 166.726926 260.45 
L 167.877336 260.45 
L 167.877336 172.45625 
L 167.877336 260.45 
L 168.338285 260.45 
L 168.338285 172.45625 
L 168.338285 260.45 
L 169.925476 260.45 
L 169.925476 172.45625 
L 169.925476 260.45 
L 170.199871 260.45 
L 170.199871 172.45625 
L 170.303228 260.45 
L 170.388747 260.45 
L 170.388747 172.45625 
L 170.68098 172.45625 
L 170.68098 260.45 
L 170.975659 260.45 
L 170.975659 172.45625 
L 171.058732 260.45 
L 172.791477 260.45 
L 172.791477 172.45625 
L 172.791477 260.45 
L 173.097714 260.45 
L 173.097714 172.45625 
L 173.169229 260.45 
L 174.886363 260.45 
L 174.886363 172.45625 
L 174.886363 260.45 
L 175.361276 260.45 
L 175.361276 172.45625 
L 175.361276 260.45 
L 177.173632 260.45 
L 177.173632 172.45625 
L 177.173632 260.45 
L 178.096399 260.45 
L 178.096399 172.45625 
L 178.096399 260.45 
L 183.532089 260.45 
L 183.532089 172.45625 
L 183.532089 260.45 
L 187.930847 260.45 
L 187.930847 172.45625 
L 187.930847 260.45 
L 190.09374 260.45 
L 190.09374 172.45625 
L 190.09374 260.45 
L 191.222739 260.45 
L 191.222739 172.45625 
L 191.222739 260.45 
L 192.064216 260.45 
L 192.064216 172.45625 
L 192.064216 260.45 
L 193.857583 260.45 
L 193.857583 172.45625 
L 193.857583 260.45 
L 194.942737 260.45 
L 194.942737 172.45625 
L 194.942737 260.45 
L 199.336656 260.45 
L 199.336656 172.45625 
L 199.336656 260.45 
L 201.595816 260.45 
L 201.595816 172.45625 
L 201.595816 260.45 
L 201.793307 260.45 
L 201.793307 172.45625 
L 201.973568 172.45625 
L 201.973568 260.45 
L 201.982183 172.45625 
L 202.35132 172.45625 
L 202.35132 260.45 
L 208.521691 260.45 
L 208.521691 172.45625 
L 208.521691 260.45 
L 210.597273 260.45 
L 210.597273 172.45625 
L 210.597273 260.45 
L 212.597156 260.45 
L 212.597156 172.45625 
L 212.597156 260.45 
L 214.694808 260.45 
L 214.694808 172.45625 
L 214.694808 260.45 
L 215.048811 260.45 
L 215.048811 172.45625 
L 215.07256 260.45 
L 215.494949 260.45 
L 215.494949 172.45625 
L 215.494949 260.45 
L 216.332432 260.45 
L 216.332432 172.45625 
L 216.332432 260.45 
L 216.593135 260.45 
L 216.593135 172.45625 
L 216.710184 172.45625 
L 216.710184 260.45 
L 219.216703 260.45 
L 219.216703 172.45625 
L 219.216703 260.45 
L 219.932472 260.45 
L 219.932472 172.45625 
L 219.932472 260.45 
L 221.700467 260.45 
L 221.700467 172.45625 
L 221.700467 260.45 
L 222.554379 260.45 
L 222.554379 172.45625 
L 222.554379 260.45 
L 223.296875 260.45 
L 223.296875 172.45625 
L 223.296875 260.45 
L 224.891796 260.45 
L 224.891796 172.45625 
L 224.891796 260.45 
L 225.080672 260.45 
L 225.080672 172.45625 
L 225.269548 172.45625 
L 225.269548 260.45 
L 226.05623 260.45 
L 226.05623 172.45625 
L 226.05623 260.45 
L 227.956079 260.45 
L 227.956079 172.45625 
L 227.956079 260.45 
L 236.369554 260.45 
L 236.369554 172.45625 
L 236.369554 260.45 
L 242.400263 260.45 
L 242.400263 172.45625 
L 242.400263 260.45 
L 242.60356 260.45 
L 242.60356 172.45625 
L 242.778015 172.45625 
L 242.778015 260.45 
L 244.60154 260.45 
L 244.60154 172.45625 
L 244.60154 260.45 
L 245.04408 260.45 
L 245.04408 172.45625 
L 245.04408 260.45 
L 246.947986 260.45 
L 246.947986 172.45625 
L 246.947986 260.45 
L 247.280244 260.45 
L 247.280244 172.45625 
L 247.325738 260.45 
L 257.404187 260.45 
L 257.404187 172.45625 
L 257.404187 260.45 
L 259.403897 260.45 
L 259.403897 172.45625 
L 259.403897 260.45 
L 261.050737 260.45 
L 261.050737 172.45625 
L 261.050737 260.45 
L 261.602407 260.45 
L 261.602407 172.45625 
L 261.602407 260.45 
L 262.613016 260.45 
L 262.613016 172.45625 
L 262.613016 260.45 
L 263.799047 260.45 
L 263.799047 172.45625 
L 263.799047 260.45 
L 265.014994 260.45 
L 265.014994 172.45625 
L 265.014994 260.45 
L 265.54437 260.45 
L 265.54437 172.45625 
L 265.54437 260.45 
L 267.389432 260.45 
L 267.389432 172.45625 
L 267.389432 260.45 
L 267.716428 260.45 
L 267.716428 172.45625 
L 267.767184 260.45 
L 268.495544 260.45 
L 268.495544 172.45625 
L 268.495544 260.45 
L 268.716445 260.45 
L 268.716445 172.45625 
L 268.873296 172.45625 
L 268.873296 260.45 
L 270.83784 260.45 
L 270.83784 172.45625 
L 270.83784 260.45 
L 272.855172 260.45 
L 272.855172 172.45625 
L 272.855172 260.45 
L 273.575839 260.45 
L 273.575839 172.45625 
L 273.575839 260.45 
L 273.856721 260.45 
L 273.856721 172.45625 
L 273.953591 260.45 
L 276.702393 260.45 
L 276.702393 172.45625 
L 276.702393 260.45 
L 277.115806 260.45 
L 277.115806 172.45625 
L 277.115806 260.45 
L 282.75789 260.45 
L 282.75789 172.45625 
L 282.75789 260.45 
L 283.626746 260.45 
L 283.626746 172.45625 
L 283.626746 260.45 
L 285.678448 260.45 
L 285.678448 172.45625 
L 285.678448 260.45 
L 288.927742 260.45 
L 288.927742 172.45625 
L 288.927742 260.45 
L 289.116618 260.45 
L 289.116618 172.45625 
L 289.305494 172.45625 
L 289.305494 260.45 
L 289.305494 172.45625 
L 289.683246 172.45625 
L 289.683246 260.45 
L 290.988211 260.45 
L 290.988211 172.45625 
L 290.988211 260.45 
L 294.425412 260.45 
L 294.425412 172.45625 
L 294.425412 260.45 
L 296.540473 260.45 
L 296.540473 172.45625 
L 296.540473 260.45 
L 296.731303 260.45 
L 296.731303 172.45625 
L 296.918225 172.45625 
L 296.918225 260.45 
L 303.480953 260.45 
L 303.480953 172.45625 
L 303.480953 260.45 
L 310.561973 260.45 
L 310.561973 172.45625 
L 310.561973 260.45 
L 314.53842 260.45 
L 314.53842 172.45625 
L 314.53842 260.45 
L 315.732752 260.45 
L 315.732752 172.45625 
L 315.732752 260.45 
L 317.078651 260.45 
L 317.078651 172.45625 
L 317.078651 260.45 
L 324.184028 260.45 
L 324.184028 172.45625 
L 324.184028 260.45 
L 324.372904 260.45 
L 324.372904 172.45625 
L 324.56178 172.45625 
L 324.56178 260.45 
L 326.045978 260.45 
L 326.045978 172.45625 
L 326.045978 260.45 
L 327.179133 260.45 
L 327.179133 172.45625 
L 327.179133 260.45 
L 329.71809 260.45 
L 329.71809 172.45625 
L 329.71809 260.45 
L 329.906966 260.45 
L 329.906966 172.45625 
L 330.095842 172.45625 
L 330.095842 260.45 
L 330.095842 172.45625 
L 330.473594 172.45625 
L 330.473594 260.45 
L 330.932647 260.45 
L 330.932647 172.45625 
L 330.932647 260.45 
L 331.56049 260.45 
L 331.56049 172.45625 
L 331.56049 260.45 
L 338.910732 260.45 
L 338.910732 172.45625 
L 338.910732 260.45 
L 339.1526 260.45 
L 339.1526 172.45625 
L 339.288484 172.45625 
L 339.288484 260.45 
L 339.993891 260.45 
L 339.993891 172.45625 
L 339.993891 260.45 
L 340.657178 260.45 
L 340.657178 172.45625 
L 340.657178 260.45 
L 341.895536 260.45 
L 341.895536 172.45625 
L 341.895536 260.45 
L 342.134254 260.45 
L 342.134254 172.45625 
L 342.273288 172.45625 
L 342.273288 260.45 
L 344.338198 260.45 
L 344.338198 172.45625 
L 344.338198 260.45 
L 345.061028 260.45 
L 345.061028 172.45625 
L 345.061028 260.45 
L 349.073202 260.45 
L 349.073202 172.45625 
L 349.073202 260.45 
L 350.08347 260.45 
L 350.08347 172.45625 
L 350.08347 260.45 
L 354.812758 260.45 
L 354.812758 172.45625 
L 354.812758 260.45 
L 355.001634 260.45 
L 355.001634 172.45625 
L 355.19051 172.45625 
L 355.19051 260.45 
L 355.399582 260.45 
L 355.399582 172.45625 
L 355.568262 172.45625 
L 355.568262 260.45 
L 357.626788 260.45 
L 357.626788 172.45625 
L 357.626788 260.45 
L 359.19983 260.45 
L 359.19983 172.45625 
L 359.19983 260.45 
L 360.779017 260.45 
L 360.779017 172.45625 
L 360.779017 260.45 
L 364.562657 260.45 
L 364.562657 172.45625 
L 364.562657 260.45 
L 365.145179 260.45 
L 365.145179 172.45625 
L 365.145179 260.45 
L 366.488555 260.45 
L 366.488555 172.45625 
L 366.488555 260.45 
L 367.887671 260.45 
L 367.887671 172.45625 
L 367.887671 260.45 
L 372.582339 260.45 
L 372.582339 172.45625 
L 372.582339 260.45 
L 372.771215 260.45 
L 372.771215 172.45625 
L 372.960091 172.45625 
L 372.960091 260.45 
L 377.566691 260.45 
L 377.566691 172.45625 
L 377.566691 260.45 
L 379.18705 260.45 
L 379.18705 172.45625 
L 379.18705 260.45 
L 379.375926 260.45 
L 379.375926 172.45625 
L 379.564802 172.45625 
L 379.564802 260.45 
L 384.354747 260.45 
L 384.354747 172.45625 
L 384.354747 260.45 
L 384.969237 260.45 
L 384.969237 172.45625 
L 384.969237 260.45 
L 385.69369 260.45 
L 385.69369 172.45625 
L 385.69369 260.45 
L 385.882566 260.45 
L 385.882566 172.45625 
L 386.071442 172.45625 
L 386.071442 260.45 
L 387.790679 260.45 
L 387.790679 172.45625 
L 387.790679 260.45 
L 391.279838 260.45 
L 391.279838 172.45625 
L 391.279838 260.45 
L 391.546777 260.45 
L 391.546777 172.45625 
L 391.65759 260.45 
L 393.514451 260.45 
L 393.514451 172.45625 
L 393.514451 260.45 
L 395.894163 260.45 
L 395.894163 172.45625 
L 395.894163 260.45 
L 399.371904 260.45 
L 399.371904 172.45625 
L 399.371904 260.45 
L 400.017206 260.45 
L 400.017206 172.45625 
L 400.017206 260.45 
L 400.598034 260.45 
L 400.598034 172.45625 
L 400.598034 260.45 
L 400.980225 260.45 
L 400.980225 172.45625 
L 400.980225 260.45 
L 401.938204 260.45 
L 401.938204 172.45625 
L 401.938204 260.45 
L 403.606223 260.45 
L 403.606223 172.45625 
L 403.606223 260.45 
L 405.126292 260.45 
L 405.126292 172.45625 
L 405.126292 260.45 
L 405.315168 260.45 
L 405.315168 172.45625 
L 405.504044 172.45625 
L 405.504044 260.45 
L 405.50511 172.45625 
L 405.881796 172.45625 
L 405.881796 260.45 
L 408.840171 260.45 
L 408.840171 172.45625 
L 408.840171 260.45 
L 409.71227 260.45 
L 409.71227 172.45625 
L 409.71227 260.45 
L 409.901146 260.45 
L 409.901146 172.45625 
L 410.090022 172.45625 
L 410.090022 260.45 
L 410.090022 172.45625 
L 410.467774 172.45625 
L 410.467774 260.45 
L 410.845526 260.45 
L 410.845526 260.45 
" clip-path="url(#pffa6dde768)" style="fill: none; stroke: #1f77b4; stroke-width: 1.5; stroke-linecap: square"/>
   </g>
   <g id="line2d_32">
    <path d="M 35.334466 260.45 
L 35.334466 172.45625 
L 35.334466 260.45 
L 37.031631 260.45 
L 37.031631 172.45625 
L 37.031631 260.45 
L 39.403782 260.45 
L 39.403782 172.45625 
L 39.403782 260.45 
L 42.916128 260.45 
L 42.916128 172.45625 
L 42.916128 260.45 
L 44.659875 260.45 
L 44.659875 172.45625 
L 44.659875 260.45 
L 48.345875 260.45 
L 48.345875 172.45625 
L 48.345875 260.45 
L 49.832709 260.45 
L 49.832709 172.45625 
L 49.832709 260.45 
L 53.381621 260.45 
L 53.381621 172.45625 
L 53.381621 260.45 
L 54.422419 260.45 
L 54.422419 172.45625 
L 54.422419 260.45 
L 56.26775 260.45 
L 56.26775 172.45625 
L 56.26775 260.45 
L 58.228583 260.45 
L 58.228583 172.45625 
L 58.228583 260.45 
L 59.144874 260.45 
L 59.144874 172.45625 
L 59.144874 260.45 
L 60.231892 260.45 
L 60.231892 172.45625 
L 60.231892 260.45 
L 60.898924 260.45 
L 60.898924 172.45625 
L 60.898924 260.45 
L 65.098628 260.45 
L 65.098628 172.45625 
L 65.208903 172.45625 
L 65.287504 172.45625 
L 65.287504 260.45 
L 71.469976 260.45 
L 71.469976 172.45625 
L 71.469976 260.45 
L 72.071274 260.45 
L 72.071274 172.45625 
L 72.071274 260.45 
L 72.984682 260.45 
L 72.984682 172.45625 
L 72.984682 260.45 
L 74.211331 260.45 
L 74.211331 172.45625 
L 74.211331 260.45 
L 77.174599 260.45 
L 77.174599 172.45625 
L 77.174599 260.45 
L 80.333004 260.45 
L 80.333004 172.45625 
L 80.333004 260.45 
L 81.754625 260.45 
L 81.754625 172.45625 
L 81.754625 260.45 
L 82.989652 260.45 
L 82.989652 172.45625 
L 82.989652 260.45 
L 84.575139 260.45 
L 84.575139 172.45625 
L 84.575139 260.45 
L 85.517388 260.45 
L 85.517388 172.45625 
L 85.517388 260.45 
L 90.424866 260.45 
L 90.424866 172.45625 
L 90.424866 260.45 
L 93.840442 260.45 
L 93.840442 172.45625 
L 93.840442 260.45 
L 93.979615 260.45 
L 93.979615 172.45625 
L 94.029317 260.45 
L 94.756987 260.45 
L 94.756987 172.45625 
L 94.756987 260.45 
L 94.929169 260.45 
L 94.929169 172.45625 
L 94.945863 260.45 
L 96.902191 260.45 
L 96.902191 172.45625 
L 96.94077 172.45625 
L 97.091067 172.45625 
L 97.091067 260.45 
L 97.808179 260.45 
L 97.808179 172.45625 
L 97.808179 260.45 
L 101.184314 260.45 
L 101.184314 172.45625 
L 101.184314 260.45 
L 107.134229 260.45 
L 107.134229 172.45625 
L 107.134229 260.45 
L 109.978294 260.45 
L 109.978294 172.45625 
L 109.978294 260.45 
L 110.263932 260.45 
L 110.263932 172.45625 
L 110.263932 260.45 
L 114.117596 260.45 
L 114.117596 172.45625 
L 114.117596 260.45 
L 117.972351 260.45 
L 117.972351 172.45625 
L 117.972351 260.45 
L 125.235052 260.45 
L 125.235052 172.45625 
L 125.235052 260.45 
L 126.447087 260.45 
L 126.447087 172.45625 
L 126.447087 260.45 
L 129.478999 260.45 
L 129.478999 172.45625 
L 129.478999 260.45 
L 132.527461 260.45 
L 132.527461 172.45625 
L 132.527461 260.45 
L 133.69647 260.45 
L 133.69647 172.45625 
L 133.69647 260.45 
L 135.084641 260.45 
L 135.084641 172.45625 
L 135.084641 260.45 
L 137.949014 260.45 
L 137.949014 172.45625 
L 137.949014 260.45 
L 140.094529 260.45 
L 140.094529 172.45625 
L 140.094529 260.45 
L 140.332276 260.45 
L 140.332276 172.45625 
L 140.332276 260.45 
L 142.740875 260.45 
L 142.740875 172.45625 
L 142.740875 260.45 
L 144.670114 260.45 
L 144.670114 172.45625 
L 144.670114 260.45 
L 146.31772 260.45 
L 146.31772 172.45625 
L 146.31772 260.45 
L 146.609967 260.45 
L 146.609967 172.45625 
L 146.609967 260.45 
L 148.065888 260.45 
L 148.065888 172.45625 
L 148.065888 260.45 
L 153.532754 260.45 
L 153.532754 172.45625 
L 153.532754 260.45 
L 156.21737 260.45 
L 156.21737 172.45625 
L 156.21737 260.45 
L 157.610949 260.45 
L 157.610949 172.45625 
L 157.610949 260.45 
L 157.822388 260.45 
L 157.822388 172.45625 
L 157.822388 260.45 
L 158.833943 260.45 
L 158.833943 172.45625 
L 158.833943 260.45 
L 160.04595 260.45 
L 160.04595 172.45625 
L 160.04595 260.45 
L 160.626329 260.45 
L 160.626329 172.45625 
L 160.626329 260.45 
L 161.015798 260.45 
L 161.015798 172.45625 
L 161.015798 260.45 
L 163.826754 260.45 
L 163.826754 172.45625 
L 163.826754 260.45 
L 166.348796 260.45 
L 166.348796 172.45625 
L 166.348796 260.45 
L 167.499207 260.45 
L 167.499207 172.45625 
L 167.499207 260.45 
L 167.960155 260.45 
L 167.960155 172.45625 
L 167.960155 260.45 
L 169.547346 260.45 
L 169.547346 172.45625 
L 169.547346 260.45 
L 169.821741 260.45 
L 169.821741 172.45625 
L 169.857568 172.45625 
L 170.010617 172.45625 
L 170.010617 260.45 
L 170.597529 260.45 
L 170.597529 172.45625 
L 170.597529 260.45 
L 172.413347 260.45 
L 172.413347 172.45625 
L 172.413347 260.45 
L 172.719584 260.45 
L 172.719584 172.45625 
L 172.719584 260.45 
L 174.508233 260.45 
L 174.508233 172.45625 
L 174.508233 260.45 
L 174.983147 260.45 
L 174.983147 172.45625 
L 174.983147 260.45 
L 176.795502 260.45 
L 176.795502 172.45625 
L 176.795502 260.45 
L 177.718269 260.45 
L 177.718269 172.45625 
L 177.718269 260.45 
L 183.15396 260.45 
L 183.15396 172.45625 
L 183.15396 260.45 
L 187.552718 260.45 
L 187.552718 172.45625 
L 187.552718 260.45 
L 189.71561 260.45 
L 189.71561 172.45625 
L 189.71561 260.45 
L 190.844609 260.45 
L 190.844609 172.45625 
L 190.844609 260.45 
L 191.686086 260.45 
L 191.686086 172.45625 
L 191.686086 260.45 
L 193.479454 260.45 
L 193.479454 172.45625 
L 193.479454 260.45 
L 194.564607 260.45 
L 194.564607 172.45625 
L 194.564607 260.45 
L 198.958526 260.45 
L 198.958526 172.45625 
L 198.958526 260.45 
L 201.217686 260.45 
L 201.217686 172.45625 
L 201.217686 260.45 
L 201.415177 260.45 
L 201.415177 172.45625 
L 201.415177 260.45 
L 201.532498 260.45 
L 201.532498 172.45625 
L 201.604053 260.45 
L 208.143561 260.45 
L 208.143561 172.45625 
L 208.143561 260.45 
L 210.219143 260.45 
L 210.219143 172.45625 
L 210.219143 260.45 
L 212.219026 260.45 
L 212.219026 172.45625 
L 212.219026 260.45 
L 214.316678 260.45 
L 214.316678 172.45625 
L 214.316678 260.45 
L 214.670681 260.45 
L 214.670681 172.45625 
L 214.670681 260.45 
L 215.116819 260.45 
L 215.116819 172.45625 
L 215.116819 260.45 
L 215.954303 260.45 
L 215.954303 172.45625 
L 215.954303 260.45 
L 216.215006 260.45 
L 216.215006 172.45625 
L 216.215006 260.45 
L 218.838574 260.45 
L 218.838574 172.45625 
L 218.838574 260.45 
L 219.554342 260.45 
L 219.554342 172.45625 
L 219.554342 260.45 
L 221.322337 260.45 
L 221.322337 172.45625 
L 221.322337 260.45 
L 222.17625 260.45 
L 222.17625 172.45625 
L 222.17625 260.45 
L 222.918745 260.45 
L 222.918745 172.45625 
L 222.918745 260.45 
L 224.513666 260.45 
L 224.513666 172.45625 
L 224.587674 172.45625 
L 224.702542 172.45625 
L 224.702542 260.45 
L 225.678101 260.45 
L 225.678101 172.45625 
L 225.678101 260.45 
L 227.577949 260.45 
L 227.577949 172.45625 
L 227.577949 260.45 
L 235.991424 260.45 
L 235.991424 172.45625 
L 235.991424 260.45 
L 242.022134 260.45 
L 242.022134 172.45625 
L 242.022134 260.45 
L 242.225431 260.45 
L 242.225431 172.45625 
L 242.225431 260.45 
L 244.223411 260.45 
L 244.223411 172.45625 
L 244.223411 260.45 
L 244.66595 260.45 
L 244.66595 172.45625 
L 244.66595 260.45 
L 246.569856 260.45 
L 246.569856 172.45625 
L 246.569856 260.45 
L 246.902115 260.45 
L 246.902115 172.45625 
L 246.902115 260.45 
L 257.026057 260.45 
L 257.026057 172.45625 
L 257.026057 260.45 
L 259.025768 260.45 
L 259.025768 172.45625 
L 259.025768 260.45 
L 260.672607 260.45 
L 260.672607 172.45625 
L 260.672607 260.45 
L 261.224277 260.45 
L 261.224277 172.45625 
L 261.224277 260.45 
L 262.234886 260.45 
L 262.234886 172.45625 
L 262.234886 260.45 
L 263.420917 260.45 
L 263.420917 172.45625 
L 263.420917 260.45 
L 264.636865 260.45 
L 264.636865 172.45625 
L 264.636865 260.45 
L 265.166241 260.45 
L 265.166241 172.45625 
L 265.166241 260.45 
L 267.011302 260.45 
L 267.011302 172.45625 
L 267.011302 260.45 
L 267.338298 260.45 
L 267.338298 172.45625 
L 267.338298 260.45 
L 268.117414 260.45 
L 268.117414 172.45625 
L 268.117414 260.45 
L 268.338315 260.45 
L 268.338315 172.45625 
L 268.338315 260.45 
L 270.45971 260.45 
L 270.45971 172.45625 
L 270.45971 260.45 
L 272.477042 260.45 
L 272.477042 172.45625 
L 272.477042 260.45 
L 273.197709 260.45 
L 273.197709 172.45625 
L 273.197709 260.45 
L 273.478591 260.45 
L 273.478591 172.45625 
L 273.478591 260.45 
L 276.324263 260.45 
L 276.324263 172.45625 
L 276.324263 260.45 
L 276.737676 260.45 
L 276.737676 172.45625 
L 276.737676 260.45 
L 282.379761 260.45 
L 282.379761 172.45625 
L 282.379761 260.45 
L 283.248616 260.45 
L 283.248616 172.45625 
L 283.248616 260.45 
L 285.300318 260.45 
L 285.300318 172.45625 
L 285.300318 260.45 
L 288.549612 260.45 
L 288.549612 172.45625 
L 288.575421 172.45625 
L 288.738488 172.45625 
L 288.738488 260.45 
L 288.768348 172.45625 
L 288.927364 172.45625 
L 288.927364 260.45 
L 290.610082 260.45 
L 290.610082 172.45625 
L 290.610082 260.45 
L 294.047282 260.45 
L 294.047282 172.45625 
L 294.047282 260.45 
L 296.162343 260.45 
L 296.162343 172.45625 
L 296.162343 260.45 
L 296.353173 260.45 
L 296.353173 172.45625 
L 296.353173 260.45 
L 303.102824 260.45 
L 303.102824 172.45625 
L 303.102824 260.45 
L 310.183844 260.45 
L 310.183844 172.45625 
L 310.183844 260.45 
L 314.16029 260.45 
L 314.16029 172.45625 
L 314.16029 260.45 
L 315.354622 260.45 
L 315.354622 172.45625 
L 315.354622 260.45 
L 316.700521 260.45 
L 316.700521 172.45625 
L 316.700521 260.45 
L 323.805898 260.45 
L 323.805898 172.45625 
L 323.914175 172.45625 
L 323.994774 172.45625 
L 323.994774 260.45 
L 325.667848 260.45 
L 325.667848 172.45625 
L 325.667848 260.45 
L 326.801004 260.45 
L 326.801004 172.45625 
L 326.801004 260.45 
L 329.33996 260.45 
L 329.33996 172.45625 
L 329.378095 172.45625 
L 329.4536 172.45625 
L 329.4536 84.4625 
L 329.528836 172.45625 
L 329.717712 172.45625 
L 329.717712 260.45 
L 330.554517 260.45 
L 330.554517 172.45625 
L 330.554517 260.45 
L 331.182361 260.45 
L 331.182361 172.45625 
L 331.182361 260.45 
L 338.532602 260.45 
L 338.532602 172.45625 
L 338.532602 260.45 
L 338.77447 260.45 
L 338.77447 172.45625 
L 338.77447 260.45 
L 339.615761 260.45 
L 339.615761 172.45625 
L 339.615761 260.45 
L 340.279048 260.45 
L 340.279048 172.45625 
L 340.279048 260.45 
L 341.517407 260.45 
L 341.517407 172.45625 
L 341.517407 260.45 
L 341.756124 260.45 
L 341.756124 172.45625 
L 341.756124 260.45 
L 343.960068 260.45 
L 343.960068 172.45625 
L 343.960068 260.45 
L 344.682898 260.45 
L 344.682898 172.45625 
L 344.682898 260.45 
L 348.695072 260.45 
L 348.695072 172.45625 
L 348.695072 260.45 
L 349.70534 260.45 
L 349.70534 172.45625 
L 349.70534 260.45 
L 354.434629 260.45 
L 354.434629 172.45625 
L 354.434629 260.45 
L 354.559848 260.45 
L 354.559848 172.45625 
L 354.623505 260.45 
L 355.021453 260.45 
L 355.021453 172.45625 
L 355.021453 260.45 
L 357.248659 260.45 
L 357.248659 172.45625 
L 357.248659 260.45 
L 358.8217 260.45 
L 358.8217 172.45625 
L 358.8217 260.45 
L 360.400887 260.45 
L 360.400887 172.45625 
L 360.400887 260.45 
L 364.184528 260.45 
L 364.184528 172.45625 
L 364.184528 260.45 
L 364.767049 260.45 
L 364.767049 172.45625 
L 364.767049 260.45 
L 366.110426 260.45 
L 366.110426 172.45625 
L 366.110426 260.45 
L 367.509542 260.45 
L 367.509542 172.45625 
L 367.509542 260.45 
L 372.20421 260.45 
L 372.20421 172.45625 
L 372.20421 260.45 
L 372.390536 260.45 
L 372.390536 172.45625 
L 372.393086 260.45 
L 377.188562 260.45 
L 377.188562 172.45625 
L 377.188562 260.45 
L 378.80892 260.45 
L 378.80892 172.45625 
L 378.80892 260.45 
L 378.972809 260.45 
L 378.972809 172.45625 
L 378.997796 260.45 
L 383.976617 260.45 
L 383.976617 172.45625 
L 383.976617 260.45 
L 384.591107 260.45 
L 384.591107 172.45625 
L 384.591107 260.45 
L 385.31556 260.45 
L 385.31556 172.45625 
L 385.333316 172.45625 
L 385.504436 172.45625 
L 385.504436 260.45 
L 387.41255 260.45 
L 387.41255 172.45625 
L 387.41255 260.45 
L 390.901708 260.45 
L 390.901708 172.45625 
L 390.901708 260.45 
L 391.168648 260.45 
L 391.168648 172.45625 
L 391.168648 260.45 
L 393.136321 260.45 
L 393.136321 172.45625 
L 393.136321 260.45 
L 395.516034 260.45 
L 395.516034 172.45625 
L 395.516034 260.45 
L 398.993774 260.45 
L 398.993774 172.45625 
L 398.993774 260.45 
L 399.639077 260.45 
L 399.639077 172.45625 
L 399.639077 260.45 
L 400.219904 260.45 
L 400.219904 172.45625 
L 400.219904 260.45 
L 400.602095 260.45 
L 400.602095 172.45625 
L 400.602095 260.45 
L 401.560074 260.45 
L 401.560074 172.45625 
L 401.560074 260.45 
L 403.228093 260.45 
L 403.228093 172.45625 
L 403.228093 260.45 
L 404.748162 260.45 
L 404.748162 172.45625 
L 404.786527 172.45625 
L 404.937038 172.45625 
L 404.937038 260.45 
L 405.126981 260.45 
L 405.126981 172.45625 
L 405.126981 260.45 
L 408.462042 260.45 
L 408.462042 172.45625 
L 408.462042 260.45 
L 409.33414 260.45 
L 409.33414 172.45625 
L 409.34303 172.45625 
L 409.523016 172.45625 
L 409.523016 260.45 
L 409.642099 260.45 
L 409.642099 172.45625 
L 409.711892 260.45 
L 409.900768 260.45 
L 409.900768 260.45 
" clip-path="url(#pffa6dde768)" style="fill: none; stroke: #ff7f0e; stroke-width: 1.5; stroke-linecap: square"/>
   </g>
   <g id="line2d_33">
    <path d="M 35.523531 260.45 
L 35.523531 172.45625 
L 35.523531 260.45 
L 37.220695 260.45 
L 37.220695 172.45625 
L 37.220695 260.45 
L 39.592847 260.45 
L 39.592847 172.45625 
L 39.592847 260.45 
L 43.105193 260.45 
L 43.105193 172.45625 
L 43.105193 260.45 
L 44.84894 260.45 
L 44.84894 172.45625 
L 44.84894 260.45 
L 48.53494 260.45 
L 48.53494 172.45625 
L 48.53494 260.45 
L 50.021774 260.45 
L 50.021774 172.45625 
L 50.021774 260.45 
L 53.570686 260.45 
L 53.570686 172.45625 
L 53.570686 260.45 
L 54.611484 260.45 
L 54.611484 172.45625 
L 54.611484 260.45 
L 56.456815 260.45 
L 56.456815 172.45625 
L 56.456815 260.45 
L 58.417648 260.45 
L 58.417648 172.45625 
L 58.417648 260.45 
L 59.333939 260.45 
L 59.333939 172.45625 
L 59.333939 260.45 
L 60.420956 260.45 
L 60.420956 172.45625 
L 60.420956 260.45 
L 61.087989 260.45 
L 61.087989 172.45625 
L 61.087989 260.45 
L 65.287693 260.45 
L 65.287693 172.45625 
L 65.287693 260.45 
L 65.476569 260.45 
L 65.476569 172.45625 
L 65.476569 260.45 
L 71.659041 260.45 
L 71.659041 172.45625 
L 71.659041 260.45 
L 72.260339 260.45 
L 72.260339 172.45625 
L 72.260339 260.45 
L 73.173747 260.45 
L 73.173747 172.45625 
L 73.173747 260.45 
L 74.400395 260.45 
L 74.400395 172.45625 
L 74.400395 260.45 
L 77.363663 260.45 
L 77.363663 172.45625 
L 77.363663 260.45 
L 80.522069 260.45 
L 80.522069 172.45625 
L 80.522069 260.45 
L 81.943689 260.45 
L 81.943689 172.45625 
L 81.943689 260.45 
L 83.178717 260.45 
L 83.178717 172.45625 
L 83.178717 260.45 
L 84.764204 260.45 
L 84.764204 172.45625 
L 84.764204 260.45 
L 85.706453 260.45 
L 85.706453 172.45625 
L 85.706453 260.45 
L 90.613931 260.45 
L 90.613931 172.45625 
L 90.613931 260.45 
L 94.029506 260.45 
L 94.029506 172.45625 
L 94.029506 260.45 
L 94.218382 260.45 
L 94.218382 172.45625 
L 94.218382 260.45 
L 94.946052 260.45 
L 94.946052 172.45625 
L 94.946052 260.45 
L 95.134928 260.45 
L 95.134928 172.45625 
L 95.134928 260.45 
L 97.091256 260.45 
L 97.091256 172.45625 
L 97.091256 260.45 
L 97.280132 260.45 
L 97.280132 172.45625 
L 97.280132 260.45 
L 97.997244 260.45 
L 97.997244 172.45625 
L 97.997244 260.45 
L 101.373379 260.45 
L 101.373379 172.45625 
L 101.373379 260.45 
L 107.323294 260.45 
L 107.323294 172.45625 
L 107.323294 260.45 
L 110.167359 260.45 
L 110.167359 172.45625 
L 110.167359 260.45 
L 110.452997 260.45 
L 110.452997 172.45625 
L 110.452997 260.45 
L 114.306661 260.45 
L 114.306661 172.45625 
L 114.306661 260.45 
L 118.161416 260.45 
L 118.161416 172.45625 
L 118.161416 260.45 
L 125.424117 260.45 
L 125.424117 172.45625 
L 125.424117 260.45 
L 126.636151 260.45 
L 126.636151 172.45625 
L 126.636151 260.45 
L 129.668063 260.45 
L 129.668063 172.45625 
L 129.668063 260.45 
L 132.716526 260.45 
L 132.716526 172.45625 
L 132.716526 260.45 
L 133.885535 260.45 
L 133.885535 172.45625 
L 133.885535 260.45 
L 135.273706 260.45 
L 135.273706 172.45625 
L 135.273706 260.45 
L 138.138078 260.45 
L 138.138078 172.45625 
L 138.138078 260.45 
L 140.283594 260.45 
L 140.283594 172.45625 
L 140.283594 260.45 
L 140.521341 260.45 
L 140.521341 172.45625 
L 140.521341 260.45 
L 142.92994 260.45 
L 142.92994 172.45625 
L 142.92994 260.45 
L 144.859179 260.45 
L 144.859179 172.45625 
L 144.859179 260.45 
L 146.506785 260.45 
L 146.506785 172.45625 
L 146.506785 260.45 
L 146.799032 260.45 
L 146.799032 172.45625 
L 146.799032 260.45 
L 148.254953 260.45 
L 148.254953 172.45625 
L 148.254953 260.45 
L 153.721818 260.45 
L 153.721818 172.45625 
L 153.721818 260.45 
L 156.406435 260.45 
L 156.406435 172.45625 
L 156.406435 260.45 
L 157.800014 260.45 
L 157.800014 172.45625 
L 157.800014 260.45 
L 158.011453 260.45 
L 158.011453 172.45625 
L 158.011453 260.45 
L 159.023008 260.45 
L 159.023008 172.45625 
L 159.023008 260.45 
L 160.235015 260.45 
L 160.235015 172.45625 
L 160.235015 260.45 
L 160.815394 260.45 
L 160.815394 172.45625 
L 160.815394 260.45 
L 161.204862 260.45 
L 161.204862 172.45625 
L 161.204862 260.45 
L 164.015818 260.45 
L 164.015818 172.45625 
L 164.015818 260.45 
L 166.537861 260.45 
L 166.537861 172.45625 
L 166.537861 260.45 
L 167.688271 260.45 
L 167.688271 172.45625 
L 167.688271 260.45 
L 168.14922 260.45 
L 168.14922 172.45625 
L 168.14922 260.45 
L 169.736411 260.45 
L 169.736411 172.45625 
L 169.736411 260.45 
L 170.010806 260.45 
L 170.010806 172.45625 
L 170.010806 260.45 
L 170.199682 260.45 
L 170.199682 172.45625 
L 170.199682 260.45 
L 170.786594 260.45 
L 170.786594 172.45625 
L 170.786594 260.45 
L 172.602412 260.45 
L 172.602412 172.45625 
L 172.602412 260.45 
L 172.908649 260.45 
L 172.908649 172.45625 
L 172.908649 260.45 
L 174.697298 260.45 
L 174.697298 172.45625 
L 174.697298 260.45 
L 175.172212 260.45 
L 175.172212 172.45625 
L 175.172212 260.45 
L 176.984567 260.45 
L 176.984567 172.45625 
L 176.984567 260.45 
L 177.907334 260.45 
L 177.907334 172.45625 
L 177.907334 260.45 
L 183.343025 260.45 
L 183.343025 172.45625 
L 183.343025 260.45 
L 187.741783 260.45 
L 187.741783 172.45625 
L 187.741783 260.45 
L 189.904675 260.45 
L 189.904675 172.45625 
L 189.904675 260.45 
L 191.033674 260.45 
L 191.033674 172.45625 
L 191.033674 260.45 
L 191.875151 260.45 
L 191.875151 172.45625 
L 191.875151 260.45 
L 193.668519 260.45 
L 193.668519 172.45625 
L 193.668519 260.45 
L 194.753672 260.45 
L 194.753672 172.45625 
L 194.753672 260.45 
L 199.147591 260.45 
L 199.147591 172.45625 
L 199.147591 260.45 
L 201.406751 260.45 
L 201.406751 172.45625 
L 201.406751 260.45 
L 201.604242 260.45 
L 201.604242 172.45625 
L 201.604242 260.45 
L 201.793118 260.45 
L 201.793118 172.45625 
L 201.793118 260.45 
L 208.332626 260.45 
L 208.332626 172.45625 
L 208.332626 260.45 
L 210.408208 260.45 
L 210.408208 172.45625 
L 210.408208 260.45 
L 212.408091 260.45 
L 212.408091 172.45625 
L 212.408091 260.45 
L 214.505743 260.45 
L 214.505743 172.45625 
L 214.505743 260.45 
L 214.859746 260.45 
L 214.859746 172.45625 
L 214.859746 260.45 
L 215.305884 260.45 
L 215.305884 172.45625 
L 215.305884 260.45 
L 216.143367 260.45 
L 216.143367 172.45625 
L 216.143367 260.45 
L 216.404071 260.45 
L 216.404071 172.45625 
L 216.404071 260.45 
L 219.027639 260.45 
L 219.027639 172.45625 
L 219.027639 260.45 
L 219.743407 260.45 
L 219.743407 172.45625 
L 219.743407 260.45 
L 221.511402 260.45 
L 221.511402 172.45625 
L 221.511402 260.45 
L 222.365314 260.45 
L 222.365314 172.45625 
L 222.365314 260.45 
L 223.10781 260.45 
L 223.10781 172.45625 
L 223.10781 260.45 
L 224.702731 260.45 
L 224.702731 172.45625 
L 224.702731 260.45 
L 224.891607 260.45 
L 224.891607 172.45625 
L 224.891607 260.45 
L 225.867166 260.45 
L 225.867166 172.45625 
L 225.867166 260.45 
L 227.767014 260.45 
L 227.767014 172.45625 
L 227.767014 260.45 
L 236.180489 260.45 
L 236.180489 172.45625 
L 236.180489 260.45 
L 242.211199 260.45 
L 242.211199 172.45625 
L 242.211199 260.45 
L 242.414495 260.45 
L 242.414495 172.45625 
L 242.414495 260.45 
L 244.412475 260.45 
L 244.412475 172.45625 
L 244.412475 260.45 
L 244.855015 260.45 
L 244.855015 172.45625 
L 244.855015 260.45 
L 246.758921 260.45 
L 246.758921 172.45625 
L 246.758921 260.45 
L 247.09118 260.45 
L 247.09118 172.45625 
L 247.09118 260.45 
L 257.215122 260.45 
L 257.215122 172.45625 
L 257.215122 260.45 
L 259.214833 260.45 
L 259.214833 172.45625 
L 259.214833 260.45 
L 260.861672 260.45 
L 260.861672 172.45625 
L 260.861672 260.45 
L 261.413342 260.45 
L 261.413342 172.45625 
L 261.413342 260.45 
L 262.423951 260.45 
L 262.423951 172.45625 
L 262.423951 260.45 
L 263.609982 260.45 
L 263.609982 172.45625 
L 263.609982 260.45 
L 264.825929 260.45 
L 264.825929 172.45625 
L 264.825929 260.45 
L 265.355305 260.45 
L 265.355305 172.45625 
L 265.355305 260.45 
L 267.200367 260.45 
L 267.200367 172.45625 
L 267.200367 260.45 
L 267.527363 260.45 
L 267.527363 172.45625 
L 267.527363 260.45 
L 268.306479 260.45 
L 268.306479 172.45625 
L 268.306479 260.45 
L 268.52738 260.45 
L 268.52738 172.45625 
L 268.52738 260.45 
L 270.648775 260.45 
L 270.648775 172.45625 
L 270.648775 260.45 
L 272.666107 260.45 
L 272.666107 172.45625 
L 272.666107 260.45 
L 273.386774 260.45 
L 273.386774 172.45625 
L 273.386774 260.45 
L 273.667656 260.45 
L 273.667656 172.45625 
L 273.667656 260.45 
L 276.513328 260.45 
L 276.513328 172.45625 
L 276.513328 260.45 
L 276.926741 260.45 
L 276.926741 172.45625 
L 276.926741 260.45 
L 282.568825 260.45 
L 282.568825 172.45625 
L 282.568825 260.45 
L 283.437681 260.45 
L 283.437681 172.45625 
L 283.437681 260.45 
L 285.489383 260.45 
L 285.489383 172.45625 
L 285.489383 260.45 
L 288.738677 260.45 
L 288.738677 172.45625 
L 288.738677 260.45 
L 288.927553 260.45 
L 288.927553 172.45625 
L 288.927553 260.45 
L 289.116429 260.45 
L 289.116429 172.45625 
L 289.116429 260.45 
L 290.799146 260.45 
L 290.799146 172.45625 
L 290.799146 260.45 
L 294.236347 260.45 
L 294.236347 172.45625 
L 294.236347 260.45 
L 296.351408 260.45 
L 296.351408 172.45625 
L 296.351408 260.45 
L 296.542238 260.45 
L 296.542238 172.45625 
L 296.542238 260.45 
L 303.291888 260.45 
L 303.291888 172.45625 
L 303.291888 260.45 
L 310.372908 260.45 
L 310.372908 172.45625 
L 310.372908 260.45 
L 314.349355 260.45 
L 314.349355 172.45625 
L 314.349355 260.45 
L 315.543687 260.45 
L 315.543687 172.45625 
L 315.543687 260.45 
L 316.889586 260.45 
L 316.889586 172.45625 
L 316.889586 260.45 
L 323.994963 260.45 
L 323.994963 172.45625 
L 323.994963 260.45 
L 324.183839 260.45 
L 324.183839 172.45625 
L 324.183839 260.45 
L 325.856913 260.45 
L 325.856913 172.45625 
L 325.856913 260.45 
L 326.990069 260.45 
L 326.990069 172.45625 
L 326.990069 260.45 
L 329.529025 260.45 
L 329.529025 172.45625 
L 329.529025 260.45 
L 329.717901 260.45 
L 329.717901 172.45625 
L 329.717901 260.45 
L 329.906777 260.45 
L 329.906777 172.45625 
L 329.906777 260.45 
L 330.743582 260.45 
L 330.743582 172.45625 
L 330.743582 260.45 
L 331.371425 260.45 
L 331.371425 172.45625 
L 331.371425 260.45 
L 338.721667 260.45 
L 338.721667 172.45625 
L 338.721667 260.45 
L 338.963535 260.45 
L 338.963535 172.45625 
L 338.963535 260.45 
L 339.804826 260.45 
L 339.804826 172.45625 
L 339.804826 260.45 
L 340.468113 260.45 
L 340.468113 172.45625 
L 340.468113 260.45 
L 341.706471 260.45 
L 341.706471 172.45625 
L 341.706471 260.45 
L 341.945189 260.45 
L 341.945189 172.45625 
L 341.945189 260.45 
L 344.149133 260.45 
L 344.149133 172.45625 
L 344.149133 260.45 
L 344.871963 260.45 
L 344.871963 172.45625 
L 344.871963 260.45 
L 348.884137 260.45 
L 348.884137 172.45625 
L 348.884137 260.45 
L 349.894405 260.45 
L 349.894405 172.45625 
L 349.894405 260.45 
L 354.623693 260.45 
L 354.623693 172.45625 
L 354.623693 260.45 
L 354.812569 260.45 
L 354.812569 172.45625 
L 354.812569 260.45 
L 355.210518 260.45 
L 355.210518 172.45625 
L 355.210518 260.45 
L 357.437723 260.45 
L 357.437723 172.45625 
L 357.437723 260.45 
L 359.010765 260.45 
L 359.010765 172.45625 
L 359.010765 260.45 
L 360.589952 260.45 
L 360.589952 172.45625 
L 360.589952 260.45 
L 364.373593 260.45 
L 364.373593 172.45625 
L 364.373593 260.45 
L 364.956114 260.45 
L 364.956114 172.45625 
L 364.956114 260.45 
L 366.299491 260.45 
L 366.299491 172.45625 
L 366.299491 260.45 
L 367.698606 260.45 
L 367.698606 172.45625 
L 367.698606 260.45 
L 372.393275 260.45 
L 372.393275 172.45625 
L 372.393275 260.45 
L 372.582151 260.45 
L 372.582151 172.45625 
L 372.582151 260.45 
L 377.377626 260.45 
L 377.377626 172.45625 
L 377.377626 260.45 
L 378.997985 260.45 
L 378.997985 172.45625 
L 378.997985 260.45 
L 379.186861 260.45 
L 379.186861 172.45625 
L 379.186861 260.45 
L 384.165682 260.45 
L 384.165682 172.45625 
L 384.165682 260.45 
L 384.780172 260.45 
L 384.780172 172.45625 
L 384.780172 260.45 
L 385.504625 260.45 
L 385.504625 172.45625 
L 385.504625 260.45 
L 385.693501 260.45 
L 385.693501 172.45625 
L 385.693501 260.45 
L 387.601615 260.45 
L 387.601615 172.45625 
L 387.601615 260.45 
L 391.090773 260.45 
L 391.090773 172.45625 
L 391.090773 260.45 
L 391.357713 260.45 
L 391.357713 172.45625 
L 391.357713 260.45 
L 393.325386 260.45 
L 393.325386 172.45625 
L 393.325386 260.45 
L 395.705098 260.45 
L 395.705098 172.45625 
L 395.705098 260.45 
L 399.182839 260.45 
L 399.182839 172.45625 
L 399.182839 260.45 
L 399.828142 260.45 
L 399.828142 172.45625 
L 399.828142 260.45 
L 400.408969 260.45 
L 400.408969 172.45625 
L 400.408969 260.45 
L 400.79116 260.45 
L 400.79116 172.45625 
L 400.79116 260.45 
L 401.749139 260.45 
L 401.749139 172.45625 
L 401.749139 260.45 
L 403.417158 260.45 
L 403.417158 172.45625 
L 403.417158 260.45 
L 404.937227 260.45 
L 404.937227 172.45625 
L 404.937227 260.45 
L 405.126103 260.45 
L 405.126103 172.45625 
L 405.126103 260.45 
L 405.316046 260.45 
L 405.316046 172.45625 
L 405.316046 260.45 
L 408.651106 260.45 
L 408.651106 172.45625 
L 408.651106 260.45 
L 409.523205 260.45 
L 409.523205 172.45625 
L 409.523205 260.45 
L 409.712081 260.45 
L 409.712081 172.45625 
L 409.712081 260.45 
L 409.900957 260.45 
L 409.900957 172.45625 
L 409.900957 260.45 
L 410.089833 260.45 
L 410.089833 260.45 
" clip-path="url(#pffa6dde768)" style="fill: none; stroke: #2ca02c; stroke-width: 1.5; stroke-linecap: square"/>
   </g>
   <g id="patch_3">
    <path d="M 33.83125 260.45 
L 33.83125 25.8 
" style="fill: none; stroke: #000000; stroke-width: 0.8; stroke-linejoin: miter; stroke-linecap: square"/>
   </g>
   <g id="patch_4">
    <path d="M 415.539414 260.45 
L 415.539414 25.8 
" style="fill: none; stroke: #000000; stroke-width: 0.8; stroke-linejoin: miter; stroke-linecap: square"/>
   </g>
   <g id="patch_5">
    <path d="M 33.83125 260.45 
L 415.539414 260.45 
" style="fill: none; stroke: #000000; stroke-width: 0.8; stroke-linejoin: miter; stroke-linecap: square"/>
   </g>
   <g id="patch_6">
    <path d="M 33.83125 25.8 
L 415.539414 25.8 
" style="fill: none; stroke: #000000; stroke-width: 0.8; stroke-linejoin: miter; stroke-linecap: square"/>
   </g>
   <g id="text_16">
    <!-- Buffers_sizes -->
    <g transform="translate(185.49877 19.8)scale(0.12 -0.12)">
     <defs>
      <path id="DejaVuSans-42" d="M 1259 2228 
L 1259 519 
L 2272 519 
Q 2781 519 3026 730 
Q 3272 941 3272 1375 
Q 3272 1813 3026 2020 
Q 2781 2228 2272 2228 
L 1259 2228 
z
M 1259 4147 
L 1259 2741 
L 2194 2741 
Q 2656 2741 2882 2914 
Q 3109 3088 3109 3444 
Q 3109 3797 2882 3972 
Q 2656 4147 2194 4147 
L 1259 4147 
z
M 628 4666 
L 2241 4666 
Q 2963 4666 3353 4366 
Q 3744 4066 3744 3513 
Q 3744 3084 3544 2831 
Q 3344 2578 2956 2516 
Q 3422 2416 3680 2098 
Q 3938 1781 3938 1306 
Q 3938 681 3513 340 
Q 3088 0 2303 0 
L 628 0 
L 628 4666 
z
" transform="scale(0.015625)"/>
      <path id="DejaVuSans-75" d="M 544 1381 
L 544 3500 
L 1119 3500 
L 1119 1403 
Q 1119 906 1312 657 
Q 1506 409 1894 409 
Q 2359 409 2629 706 
Q 2900 1003 2900 1516 
L 2900 3500 
L 3475 3500 
L 3475 0 
L 2900 0 
L 2900 538 
Q 2691 219 2414 64 
Q 2138 -91 1772 -91 
Q 1169 -91 856 284 
Q 544 659 544 1381 
z
M 1991 3584 
L 1991 3584 
z
" transform="scale(0.015625)"/>
      <path id="DejaVuSans-66" d="M 2375 4863 
L 2375 4384 
L 1825 4384 
Q 1516 4384 1395 4259 
Q 1275 4134 1275 3809 
L 1275 3500 
L 2222 3500 
L 2222 3053 
L 1275 3053 
L 1275 0 
L 697 0 
L 697 3053 
L 147 3053 
L 147 3500 
L 697 3500 
L 697 3744 
Q 697 4328 969 4595 
Q 1241 4863 1831 4863 
L 2375 4863 
z
" transform="scale(0.015625)"/>
      <path id="DejaVuSans-65" d="M 3597 1894 
L 3597 1613 
L 953 1613 
Q 991 1019 1311 708 
Q 1631 397 2203 397 
Q 2534 397 2845 478 
Q 3156 559 3463 722 
L 3463 178 
Q 3153 47 2828 -22 
Q 2503 -91 2169 -91 
Q 1331 -91 842 396 
Q 353 884 353 1716 
Q 353 2575 817 3079 
Q 1281 3584 2069 3584 
Q 2775 3584 3186 3129 
Q 3597 2675 3597 1894 
z
M 3022 2063 
Q 3016 2534 2758 2815 
Q 2500 3097 2075 3097 
Q 1594 3097 1305 2825 
Q 1016 2553 972 2059 
L 3022 2063 
z
" transform="scale(0.015625)"/>
      <path id="DejaVuSans-72" d="M 2631 2963 
Q 2534 3019 2420 3045 
Q 2306 3072 2169 3072 
Q 1681 3072 1420 2755 
Q 1159 2438 1159 1844 
L 1159 0 
L 581 0 
L 581 3500 
L 1159 3500 
L 1159 2956 
Q 1341 3275 1631 3429 
Q 1922 3584 2338 3584 
Q 2397 3584 2469 3576 
Q 2541 3569 2628 3553 
L 2631 2963 
z
" transform="scale(0.015625)"/>
      <path id="DejaVuSans-73" d="M 2834 3397 
L 2834 2853 
Q 2591 2978 2328 3040 
Q 2066 3103 1784 3103 
Q 1356 3103 1142 2972 
Q 928 2841 928 2578 
Q 928 2378 1081 2264 
Q 1234 2150 1697 2047 
L 1894 2003 
Q 2506 1872 2764 1633 
Q 3022 1394 3022 966 
Q 3022 478 2636 193 
Q 2250 -91 1575 -91 
Q 1294 -91 989 -36 
Q 684 19 347 128 
L 347 722 
Q 666 556 975 473 
Q 1284 391 1588 391 
Q 1994 391 2212 530 
Q 2431 669 2431 922 
Q 2431 1156 2273 1281 
Q 2116 1406 1581 1522 
L 1381 1569 
Q 847 1681 609 1914 
Q 372 2147 372 2553 
Q 372 3047 722 3315 
Q 1072 3584 1716 3584 
Q 2034 3584 2315 3537 
Q 2597 3491 2834 3397 
z
" transform="scale(0.015625)"/>
      <path id="DejaVuSans-5f" d="M 3263 -1063 
L 3263 -1509 
L -63 -1509 
L -63 -1063 
L 3263 -1063 
z
" transform="scale(0.015625)"/>
      <path id="DejaVuSans-69" d="M 603 3500 
L 1178 3500 
L 1178 0 
L 603 0 
L 603 3500 
z
M 603 4863 
L 1178 4863 
L 1178 4134 
L 603 4134 
L 603 4863 
z
" transform="scale(0.015625)"/>
      <path id="DejaVuSans-7a" d="M 353 3500 
L 3084 3500 
L 3084 2975 
L 922 459 
L 3084 459 
L 3084 0 
L 275 0 
L 275 525 
L 2438 3041 
L 353 3041 
L 353 3500 
z
" transform="scale(0.015625)"/>
     </defs>
     <use xlink:href="#DejaVuSans-42"/>
     <use xlink:href="#DejaVuSans-75" x="68.603516"/>
     <use xlink:href="#DejaVuSans-66" x="131.982422"/>
     <use xlink:href="#DejaVuSans-66" x="167.1875"/>
     <use xlink:href="#DejaVuSans-65" x="202.392578"/>
     <use xlink:href="#DejaVuSans-72" x="263.916016"/>
     <use xlink:href="#DejaVuSans-73" x="305.029297"/>
     <use xlink:href="#DejaVuSans-5f" x="357.128906"/>
     <use xlink:href="#DejaVuSans-73" x="407.128906"/>
     <use xlink:href="#DejaVuSans-69" x="459.228516"/>
     <use xlink:href="#DejaVuSans-7a" x="487.011719"/>
     <use xlink:href="#DejaVuSans-65" x="539.501953"/>
     <use xlink:href="#DejaVuSans-73" x="601.025391"/>
    </g>
   </g>
   <g id="legend_1">
    <g id="patch_7">
     <path d="M 259.275352 77.834375 
L 408.539414 77.834375 
Q 410.539414 77.834375 410.539414 75.834375 
L 410.539414 32.8 
Q 410.539414 30.8 408.539414 30.8 
L 259.275352 30.8 
Q 257.275352 30.8 257.275352 32.8 
L 257.275352 75.834375 
Q 257.275352 77.834375 259.275352 77.834375 
z
" style="fill: #ffffff; opacity: 0.8; stroke: #cccccc; stroke-linejoin: miter"/>
    </g>
    <g id="line2d_34">
     <path d="M 261.275352 38.898437 
L 271.275352 38.898437 
L 281.275352 38.898437 
" style="fill: none; stroke: #1f77b4; stroke-width: 1.5; stroke-linecap: square"/>
    </g>
    <g id="text_17">
     <!-- Network.nodeRx.queue -->
     <g transform="translate(289.275352 42.398437)scale(0.1 -0.1)">
      <defs>
       <path id="DejaVuSans-4e" d="M 628 4666 
L 1478 4666 
L 3547 763 
L 3547 4666 
L 4159 4666 
L 4159 0 
L 3309 0 
L 1241 3903 
L 1241 0 
L 628 0 
L 628 4666 
z
" transform="scale(0.015625)"/>
       <path id="DejaVuSans-74" d="M 1172 4494 
L 1172 3500 
L 2356 3500 
L 2356 3053 
L 1172 3053 
L 1172 1153 
Q 1172 725 1289 603 
Q 1406 481 1766 481 
L 2356 481 
L 2356 0 
L 1766 0 
Q 1100 0 847 248 
Q 594 497 594 1153 
L 594 3053 
L 172 3053 
L 172 3500 
L 594 3500 
L 594 4494 
L 1172 4494 
z
" transform="scale(0.015625)"/>
       <path id="DejaVuSans-77" d="M 269 3500 
L 844 3500 
L 1563 769 
L 2278 3500 
L 2956 3500 
L 3675 769 
L 4391 3500 
L 4966 3500 
L 4050 0 
L 3372 0 
L 2619 2869 
L 1863 0 
L 1184 0 
L 269 3500 
z
" transform="scale(0.015625)"/>
       <path id="DejaVuSans-6f" d="M 1959 3097 
Q 1497 3097 1228 2736 
Q 959 2375 959 1747 
Q 959 1119 1226 758 
Q 1494 397 1959 397 
Q 2419 397 2687 759 
Q 2956 1122 2956 1747 
Q 2956 2369 2687 2733 
Q 2419 3097 1959 3097 
z
M 1959 3584 
Q 2709 3584 3137 3096 
Q 3566 2609 3566 1747 
Q 3566 888 3137 398 
Q 2709 -91 1959 -91 
Q 1206 -91 779 398 
Q 353 888 353 1747 
Q 353 2609 779 3096 
Q 1206 3584 1959 3584 
z
" transform="scale(0.015625)"/>
       <path id="DejaVuSans-6b" d="M 581 4863 
L 1159 4863 
L 1159 1991 
L 2875 3500 
L 3609 3500 
L 1753 1863 
L 3688 0 
L 2938 0 
L 1159 1709 
L 1159 0 
L 581 0 
L 581 4863 
z
" transform="scale(0.015625)"/>
       <path id="DejaVuSans-6e" d="M 3513 2113 
L 3513 0 
L 2938 0 
L 2938 2094 
Q 2938 2591 2744 2837 
Q 2550 3084 2163 3084 
Q 1697 3084 1428 2787 
Q 1159 2491 1159 1978 
L 1159 0 
L 581 0 
L 581 3500 
L 1159 3500 
L 1159 2956 
Q 1366 3272 1645 3428 
Q 1925 3584 2291 3584 
Q 2894 3584 3203 3211 
Q 3513 2838 3513 2113 
z
" transform="scale(0.015625)"/>
       <path id="DejaVuSans-64" d="M 2906 2969 
L 2906 4863 
L 3481 4863 
L 3481 0 
L 2906 0 
L 2906 525 
Q 2725 213 2448 61 
Q 2172 -91 1784 -91 
Q 1150 -91 751 415 
Q 353 922 353 1747 
Q 353 2572 751 3078 
Q 1150 3584 1784 3584 
Q 2172 3584 2448 3432 
Q 2725 3281 2906 2969 
z
M 947 1747 
Q 947 1113 1208 752 
Q 1469 391 1925 391 
Q 2381 391 2643 752 
Q 2906 1113 2906 1747 
Q 2906 2381 2643 2742 
Q 2381 3103 1925 3103 
Q 1469 3103 1208 2742 
Q 947 2381 947 1747 
z
" transform="scale(0.015625)"/>
       <path id="DejaVuSans-52" d="M 2841 2188 
Q 3044 2119 3236 1894 
Q 3428 1669 3622 1275 
L 4263 0 
L 3584 0 
L 2988 1197 
Q 2756 1666 2539 1819 
Q 2322 1972 1947 1972 
L 1259 1972 
L 1259 0 
L 628 0 
L 628 4666 
L 2053 4666 
Q 2853 4666 3247 4331 
Q 3641 3997 3641 3322 
Q 3641 2881 3436 2590 
Q 3231 2300 2841 2188 
z
M 1259 4147 
L 1259 2491 
L 2053 2491 
Q 2509 2491 2742 2702 
Q 2975 2913 2975 3322 
Q 2975 3731 2742 3939 
Q 2509 4147 2053 4147 
L 1259 4147 
z
" transform="scale(0.015625)"/>
       <path id="DejaVuSans-78" d="M 3513 3500 
L 2247 1797 
L 3578 0 
L 2900 0 
L 1881 1375 
L 863 0 
L 184 0 
L 1544 1831 
L 300 3500 
L 978 3500 
L 1906 2253 
L 2834 3500 
L 3513 3500 
z
" transform="scale(0.015625)"/>
       <path id="DejaVuSans-71" d="M 947 1747 
Q 947 1113 1208 752 
Q 1469 391 1925 391 
Q 2381 391 2643 752 
Q 2906 1113 2906 1747 
Q 2906 2381 2643 2742 
Q 2381 3103 1925 3103 
Q 1469 3103 1208 2742 
Q 947 2381 947 1747 
z
M 2906 525 
Q 2725 213 2448 61 
Q 2172 -91 1784 -91 
Q 1150 -91 751 415 
Q 353 922 353 1747 
Q 353 2572 751 3078 
Q 1150 3584 1784 3584 
Q 2172 3584 2448 3432 
Q 2725 3281 2906 2969 
L 2906 3500 
L 3481 3500 
L 3481 -1331 
L 2906 -1331 
L 2906 525 
z
" transform="scale(0.015625)"/>
      </defs>
      <use xlink:href="#DejaVuSans-4e"/>
      <use xlink:href="#DejaVuSans-65" x="74.804688"/>
      <use xlink:href="#DejaVuSans-74" x="136.328125"/>
      <use xlink:href="#DejaVuSans-77" x="175.537109"/>
      <use xlink:href="#DejaVuSans-6f" x="257.324219"/>
      <use xlink:href="#DejaVuSans-72" x="318.505859"/>
      <use xlink:href="#DejaVuSans-6b" x="359.619141"/>
      <use xlink:href="#DejaVuSans-2e" x="417.529297"/>
      <use xlink:href="#DejaVuSans-6e" x="449.316406"/>
      <use xlink:href="#DejaVuSans-6f" x="512.695312"/>
      <use xlink:href="#DejaVuSans-64" x="573.876953"/>
      <use xlink:href="#DejaVuSans-65" x="637.353516"/>
      <use xlink:href="#DejaVuSans-52" x="698.876953"/>
      <use xlink:href="#DejaVuSans-78" x="768.359375"/>
      <use xlink:href="#DejaVuSans-2e" x="827.539062"/>
      <use xlink:href="#DejaVuSans-71" x="859.326172"/>
      <use xlink:href="#DejaVuSans-75" x="922.802734"/>
      <use xlink:href="#DejaVuSans-65" x="986.181641"/>
      <use xlink:href="#DejaVuSans-75" x="1047.705078"/>
      <use xlink:href="#DejaVuSans-65" x="1111.083984"/>
     </g>
    </g>
    <g id="line2d_35">
     <path d="M 261.275352 53.576562 
L 271.275352 53.576562 
L 281.275352 53.576562 
" style="fill: none; stroke: #ff7f0e; stroke-width: 1.5; stroke-linecap: square"/>
    </g>
    <g id="text_18">
     <!-- Network.nodeTx.queue -->
     <g transform="translate(289.275352 57.076562)scale(0.1 -0.1)">
      <defs>
       <path id="DejaVuSans-54" d="M -19 4666 
L 3928 4666 
L 3928 4134 
L 2272 4134 
L 2272 0 
L 1638 0 
L 1638 4134 
L -19 4134 
L -19 4666 
z
" transform="scale(0.015625)"/>
      </defs>
      <use xlink:href="#DejaVuSans-4e"/>
      <use xlink:href="#DejaVuSans-65" x="74.804688"/>
      <use xlink:href="#DejaVuSans-74" x="136.328125"/>
      <use xlink:href="#DejaVuSans-77" x="175.537109"/>
      <use xlink:href="#DejaVuSans-6f" x="257.324219"/>
      <use xlink:href="#DejaVuSans-72" x="318.505859"/>
      <use xlink:href="#DejaVuSans-6b" x="359.619141"/>
      <use xlink:href="#DejaVuSans-2e" x="417.529297"/>
      <use xlink:href="#DejaVuSans-6e" x="449.316406"/>
      <use xlink:href="#DejaVuSans-6f" x="512.695312"/>
      <use xlink:href="#DejaVuSans-64" x="573.876953"/>
      <use xlink:href="#DejaVuSans-65" x="637.353516"/>
      <use xlink:href="#DejaVuSans-54" x="698.876953"/>
      <use xlink:href="#DejaVuSans-78" x="759.960938"/>
      <use xlink:href="#DejaVuSans-2e" x="819.140625"/>
      <use xlink:href="#DejaVuSans-71" x="850.927734"/>
      <use xlink:href="#DejaVuSans-75" x="914.404297"/>
      <use xlink:href="#DejaVuSans-65" x="977.783203"/>
      <use xlink:href="#DejaVuSans-75" x="1039.306641"/>
      <use xlink:href="#DejaVuSans-65" x="1102.685547"/>
     </g>
    </g>
    <g id="line2d_36">
     <path d="M 261.275352 68.254687 
L 271.275352 68.254687 
L 281.275352 68.254687 
" style="fill: none; stroke: #2ca02c; stroke-width: 1.5; stroke-linecap: square"/>
    </g>
    <g id="text_19">
     <!-- Network.queue -->
     <g transform="translate(289.275352 71.754687)scale(0.1 -0.1)">
      <use xlink:href="#DejaVuSans-4e"/>
      <use xlink:href="#DejaVuSans-65" x="74.804688"/>
      <use xlink:href="#DejaVuSans-74" x="136.328125"/>
      <use xlink:href="#DejaVuSans-77" x="175.537109"/>
      <use xlink:href="#DejaVuSans-6f" x="257.324219"/>
      <use xlink:href="#DejaVuSans-72" x="318.505859"/>
      <use xlink:href="#DejaVuSans-6b" x="359.619141"/>
      <use xlink:href="#DejaVuSans-2e" x="417.529297"/>
      <use xlink:href="#DejaVuSans-71" x="449.316406"/>
      <use xlink:href="#DejaVuSans-75" x="512.792969"/>
      <use xlink:href="#DejaVuSans-65" x="576.171875"/>
      <use xlink:href="#DejaVuSans-75" x="637.695312"/>
      <use xlink:href="#DejaVuSans-65" x="701.074219"/>
     </g>
    </g>
   </g>
  </g>
 </g>
 <defs>
  <clipPath id="pffa6dde768">
   <rect x="33.83125" y="25.8" width="381.708164" height="234.65"/>
  </clipPath>
 </defs>
</svg>
