<?xml version="1.0" encoding="utf-8" standalone="no"?>
<!DOCTYPE svg PUBLIC "-//W3C//DTD SVG 1.1//EN"
  "http://www.w3.org/Graphics/SVG/1.1/DTD/svg11.dtd">
<svg xmlns:xlink="http://www.w3.org/1999/xlink" width="432pt" height="288pt" viewBox="0 0 432 288" xmlns="http://www.w3.org/2000/svg" version="1.1">
 <metadata>
  <rdf:RDF xmlns:dc="http://purl.org/dc/elements/1.1/" xmlns:cc="http://creativecommons.org/ns#" xmlns:rdf="http://www.w3.org/1999/02/22-rdf-syntax-ns#">
   <cc:Work>
    <dc:type rdf:resource="http://purl.org/dc/dcmitype/StillImage"/>
    <dc:date>2022-05-22T20:26:56.208467</dc:date>
    <dc:format>image/svg+xml</dc:format>
    <dc:creator>
     <cc:Agent>
      <dc:title>omnetpp.scave 6.0.0; Matplotlib 3.5.1 w/ backend GTK3Agg; Pandas 1.4.2; Python 3.8.10; Linux-5.4.0-109-generic-x86_64-with-glibc2.29</dc:title>
     </cc:Agent>
    </dc:creator>
   </cc:Work>
  </rdf:RDF>
 </metadata>
 <defs>
  <style type="text/css">*{stroke-linejoin: round; stroke-linecap: butt}</style>
 </defs>
 <g id="figure_1">
  <g id="patch_1">
   <path d="M 0 288 
L 432 288 
L 432 0 
L 0 0 
z
" style="fill: #ffffff"/>
  </g>
  <g id="axes_1">
   <g id="patch_2">
    <path d="M 30.64375 260.45 
L 416.168879 260.45 
L 416.168879 25.8 
L 30.64375 25.8 
z
" style="fill: #ffffff"/>
   </g>
   <g id="matplotlib.axis_1">
    <g id="xtick_1">
     <g id="line2d_1">
      <path d="M 30.64375 260.45 
L 30.64375 25.8 
" clip-path="url(#p1bea3abf63)" style="fill: none; stroke: #b0b0b0; stroke-width: 0.8; stroke-linecap: square"/>
     </g>
     <g id="line2d_2">
      <defs>
       <path id="mbbe4c07890" d="M 0 0 
L 0 3.5 
" style="stroke: #000000; stroke-width: 0.8"/>
      </defs>
      <g>
       <use xlink:href="#mbbe4c07890" x="30.64375" y="260.45" style="stroke: #000000; stroke-width: 0.8"/>
      </g>
     </g>
     <g id="text_1">
      <!-- 0 -->
      <g transform="translate(27.4625 275.048437)scale(0.1 -0.1)">
       <defs>
        <path id="DejaVuSans-30" d="M 2034 4250 
Q 1547 4250 1301 3770 
Q 1056 3291 1056 2328 
Q 1056 1369 1301 889 
Q 1547 409 2034 409 
Q 2525 409 2770 889 
Q 3016 1369 3016 2328 
Q 3016 3291 2770 3770 
Q 2525 4250 2034 4250 
z
M 2034 4750 
Q 2819 4750 3233 4129 
Q 3647 3509 3647 2328 
Q 3647 1150 3233 529 
Q 2819 -91 2034 -91 
Q 1250 -91 836 529 
Q 422 1150 422 2328 
Q 422 3509 836 4129 
Q 1250 4750 2034 4750 
z
" transform="scale(0.015625)"/>
       </defs>
       <use xlink:href="#DejaVuSans-30"/>
      </g>
     </g>
    </g>
    <g id="xtick_2">
     <g id="line2d_3">
      <path d="M 78.269481 260.45 
L 78.269481 25.8 
" clip-path="url(#p1bea3abf63)" style="fill: none; stroke: #b0b0b0; stroke-width: 0.8; stroke-linecap: square"/>
     </g>
     <g id="line2d_4">
      <g>
       <use xlink:href="#mbbe4c07890" x="78.269481" y="260.45" style="stroke: #000000; stroke-width: 0.8"/>
      </g>
     </g>
     <g id="text_2">
      <!-- 25 -->
      <g transform="translate(71.906981 275.048437)scale(0.1 -0.1)">
       <defs>
        <path id="DejaVuSans-32" d="M 1228 531 
L 3431 531 
L 3431 0 
L 469 0 
L 469 531 
Q 828 903 1448 1529 
Q 2069 2156 2228 2338 
Q 2531 2678 2651 2914 
Q 2772 3150 2772 3378 
Q 2772 3750 2511 3984 
Q 2250 4219 1831 4219 
Q 1534 4219 1204 4116 
Q 875 4013 500 3803 
L 500 4441 
Q 881 4594 1212 4672 
Q 1544 4750 1819 4750 
Q 2544 4750 2975 4387 
Q 3406 4025 3406 3419 
Q 3406 3131 3298 2873 
Q 3191 2616 2906 2266 
Q 2828 2175 2409 1742 
Q 1991 1309 1228 531 
z
" transform="scale(0.015625)"/>
        <path id="DejaVuSans-35" d="M 691 4666 
L 3169 4666 
L 3169 4134 
L 1269 4134 
L 1269 2991 
Q 1406 3038 1543 3061 
Q 1681 3084 1819 3084 
Q 2600 3084 3056 2656 
Q 3513 2228 3513 1497 
Q 3513 744 3044 326 
Q 2575 -91 1722 -91 
Q 1428 -91 1123 -41 
Q 819 9 494 109 
L 494 744 
Q 775 591 1075 516 
Q 1375 441 1709 441 
Q 2250 441 2565 725 
Q 2881 1009 2881 1497 
Q 2881 1984 2565 2268 
Q 2250 2553 1709 2553 
Q 1456 2553 1204 2497 
Q 953 2441 691 2322 
L 691 4666 
z
" transform="scale(0.015625)"/>
       </defs>
       <use xlink:href="#DejaVuSans-32"/>
       <use xlink:href="#DejaVuSans-35" x="63.623047"/>
      </g>
     </g>
    </g>
    <g id="xtick_3">
     <g id="line2d_5">
      <path d="M 125.895213 260.45 
L 125.895213 25.8 
" clip-path="url(#p1bea3abf63)" style="fill: none; stroke: #b0b0b0; stroke-width: 0.8; stroke-linecap: square"/>
     </g>
     <g id="line2d_6">
      <g>
       <use xlink:href="#mbbe4c07890" x="125.895213" y="260.45" style="stroke: #000000; stroke-width: 0.8"/>
      </g>
     </g>
     <g id="text_3">
      <!-- 50 -->
      <g transform="translate(119.532713 275.048437)scale(0.1 -0.1)">
       <use xlink:href="#DejaVuSans-35"/>
       <use xlink:href="#DejaVuSans-30" x="63.623047"/>
      </g>
     </g>
    </g>
    <g id="xtick_4">
     <g id="line2d_7">
      <path d="M 173.520944 260.45 
L 173.520944 25.8 
" clip-path="url(#p1bea3abf63)" style="fill: none; stroke: #b0b0b0; stroke-width: 0.8; stroke-linecap: square"/>
     </g>
     <g id="line2d_8">
      <g>
       <use xlink:href="#mbbe4c07890" x="173.520944" y="260.45" style="stroke: #000000; stroke-width: 0.8"/>
      </g>
     </g>
     <g id="text_4">
      <!-- 75 -->
      <g transform="translate(167.158444 275.048437)scale(0.1 -0.1)">
       <defs>
        <path id="DejaVuSans-37" d="M 525 4666 
L 3525 4666 
L 3525 4397 
L 1831 0 
L 1172 0 
L 2766 4134 
L 525 4134 
L 525 4666 
z
" transform="scale(0.015625)"/>
       </defs>
       <use xlink:href="#DejaVuSans-37"/>
       <use xlink:href="#DejaVuSans-35" x="63.623047"/>
      </g>
     </g>
    </g>
    <g id="xtick_5">
     <g id="line2d_9">
      <path d="M 221.146676 260.45 
L 221.146676 25.8 
" clip-path="url(#p1bea3abf63)" style="fill: none; stroke: #b0b0b0; stroke-width: 0.8; stroke-linecap: square"/>
     </g>
     <g id="line2d_10">
      <g>
       <use xlink:href="#mbbe4c07890" x="221.146676" y="260.45" style="stroke: #000000; stroke-width: 0.8"/>
      </g>
     </g>
     <g id="text_5">
      <!-- 100 -->
      <g transform="translate(211.602926 275.048437)scale(0.1 -0.1)">
       <defs>
        <path id="DejaVuSans-31" d="M 794 531 
L 1825 531 
L 1825 4091 
L 703 3866 
L 703 4441 
L 1819 4666 
L 2450 4666 
L 2450 531 
L 3481 531 
L 3481 0 
L 794 0 
L 794 531 
z
" transform="scale(0.015625)"/>
       </defs>
       <use xlink:href="#DejaVuSans-31"/>
       <use xlink:href="#DejaVuSans-30" x="63.623047"/>
       <use xlink:href="#DejaVuSans-30" x="127.246094"/>
      </g>
     </g>
    </g>
    <g id="xtick_6">
     <g id="line2d_11">
      <path d="M 268.772407 260.45 
L 268.772407 25.8 
" clip-path="url(#p1bea3abf63)" style="fill: none; stroke: #b0b0b0; stroke-width: 0.8; stroke-linecap: square"/>
     </g>
     <g id="line2d_12">
      <g>
       <use xlink:href="#mbbe4c07890" x="268.772407" y="260.45" style="stroke: #000000; stroke-width: 0.8"/>
      </g>
     </g>
     <g id="text_6">
      <!-- 125 -->
      <g transform="translate(259.228657 275.048437)scale(0.1 -0.1)">
       <use xlink:href="#DejaVuSans-31"/>
       <use xlink:href="#DejaVuSans-32" x="63.623047"/>
       <use xlink:href="#DejaVuSans-35" x="127.246094"/>
      </g>
     </g>
    </g>
    <g id="xtick_7">
     <g id="line2d_13">
      <path d="M 316.398139 260.45 
L 316.398139 25.8 
" clip-path="url(#p1bea3abf63)" style="fill: none; stroke: #b0b0b0; stroke-width: 0.8; stroke-linecap: square"/>
     </g>
     <g id="line2d_14">
      <g>
       <use xlink:href="#mbbe4c07890" x="316.398139" y="260.45" style="stroke: #000000; stroke-width: 0.8"/>
      </g>
     </g>
     <g id="text_7">
      <!-- 150 -->
      <g transform="translate(306.854389 275.048437)scale(0.1 -0.1)">
       <use xlink:href="#DejaVuSans-31"/>
       <use xlink:href="#DejaVuSans-35" x="63.623047"/>
       <use xlink:href="#DejaVuSans-30" x="127.246094"/>
      </g>
     </g>
    </g>
    <g id="xtick_8">
     <g id="line2d_15">
      <path d="M 364.02387 260.45 
L 364.02387 25.8 
" clip-path="url(#p1bea3abf63)" style="fill: none; stroke: #b0b0b0; stroke-width: 0.8; stroke-linecap: square"/>
     </g>
     <g id="line2d_16">
      <g>
       <use xlink:href="#mbbe4c07890" x="364.02387" y="260.45" style="stroke: #000000; stroke-width: 0.8"/>
      </g>
     </g>
     <g id="text_8">
      <!-- 175 -->
      <g transform="translate(354.48012 275.048437)scale(0.1 -0.1)">
       <use xlink:href="#DejaVuSans-31"/>
       <use xlink:href="#DejaVuSans-37" x="63.623047"/>
       <use xlink:href="#DejaVuSans-35" x="127.246094"/>
      </g>
     </g>
    </g>
    <g id="xtick_9">
     <g id="line2d_17">
      <path d="M 411.649602 260.45 
L 411.649602 25.8 
" clip-path="url(#p1bea3abf63)" style="fill: none; stroke: #b0b0b0; stroke-width: 0.8; stroke-linecap: square"/>
     </g>
     <g id="line2d_18">
      <g>
       <use xlink:href="#mbbe4c07890" x="411.649602" y="260.45" style="stroke: #000000; stroke-width: 0.8"/>
      </g>
     </g>
     <g id="text_9">
      <!-- 200 -->
      <g transform="translate(402.105852 275.048437)scale(0.1 -0.1)">
       <use xlink:href="#DejaVuSans-32"/>
       <use xlink:href="#DejaVuSans-30" x="63.623047"/>
       <use xlink:href="#DejaVuSans-30" x="127.246094"/>
      </g>
     </g>
    </g>
   </g>
   <g id="matplotlib.axis_2">
    <g id="ytick_1">
     <g id="line2d_19">
      <path d="M 30.64375 260.45 
L 416.168879 260.45 
" clip-path="url(#p1bea3abf63)" style="fill: none; stroke: #b0b0b0; stroke-width: 0.8; stroke-linecap: square"/>
     </g>
     <g id="line2d_20">
      <defs>
       <path id="mae9f45bd14" d="M 0 0 
L -3.5 0 
" style="stroke: #000000; stroke-width: 0.8"/>
      </defs>
      <g>
       <use xlink:href="#mae9f45bd14" x="30.64375" y="260.45" style="stroke: #000000; stroke-width: 0.8"/>
      </g>
     </g>
     <g id="text_10">
      <!-- 0 -->
      <g transform="translate(17.28125 264.249219)scale(0.1 -0.1)">
       <use xlink:href="#DejaVuSans-30"/>
      </g>
     </g>
    </g>
    <g id="ytick_2">
     <g id="line2d_21">
      <path d="M 30.64375 219.904585 
L 416.168879 219.904585 
" clip-path="url(#p1bea3abf63)" style="fill: none; stroke: #b0b0b0; stroke-width: 0.8; stroke-linecap: square"/>
     </g>
     <g id="line2d_22">
      <g>
       <use xlink:href="#mae9f45bd14" x="30.64375" y="219.904585" style="stroke: #000000; stroke-width: 0.8"/>
      </g>
     </g>
     <g id="text_11">
      <!-- 10 -->
      <g transform="translate(10.91875 223.703803)scale(0.1 -0.1)">
       <use xlink:href="#DejaVuSans-31"/>
       <use xlink:href="#DejaVuSans-30" x="63.623047"/>
      </g>
     </g>
    </g>
    <g id="ytick_3">
     <g id="line2d_23">
      <path d="M 30.64375 179.359169 
L 416.168879 179.359169 
" clip-path="url(#p1bea3abf63)" style="fill: none; stroke: #b0b0b0; stroke-width: 0.8; stroke-linecap: square"/>
     </g>
     <g id="line2d_24">
      <g>
       <use xlink:href="#mae9f45bd14" x="30.64375" y="179.359169" style="stroke: #000000; stroke-width: 0.8"/>
      </g>
     </g>
     <g id="text_12">
      <!-- 20 -->
      <g transform="translate(10.91875 183.158388)scale(0.1 -0.1)">
       <use xlink:href="#DejaVuSans-32"/>
       <use xlink:href="#DejaVuSans-30" x="63.623047"/>
      </g>
     </g>
    </g>
    <g id="ytick_4">
     <g id="line2d_25">
      <path d="M 30.64375 138.813754 
L 416.168879 138.813754 
" clip-path="url(#p1bea3abf63)" style="fill: none; stroke: #b0b0b0; stroke-width: 0.8; stroke-linecap: square"/>
     </g>
     <g id="line2d_26">
      <g>
       <use xlink:href="#mae9f45bd14" x="30.64375" y="138.813754" style="stroke: #000000; stroke-width: 0.8"/>
      </g>
     </g>
     <g id="text_13">
      <!-- 30 -->
      <g transform="translate(10.91875 142.612973)scale(0.1 -0.1)">
       <defs>
        <path id="DejaVuSans-33" d="M 2597 2516 
Q 3050 2419 3304 2112 
Q 3559 1806 3559 1356 
Q 3559 666 3084 287 
Q 2609 -91 1734 -91 
Q 1441 -91 1130 -33 
Q 819 25 488 141 
L 488 750 
Q 750 597 1062 519 
Q 1375 441 1716 441 
Q 2309 441 2620 675 
Q 2931 909 2931 1356 
Q 2931 1769 2642 2001 
Q 2353 2234 1838 2234 
L 1294 2234 
L 1294 2753 
L 1863 2753 
Q 2328 2753 2575 2939 
Q 2822 3125 2822 3475 
Q 2822 3834 2567 4026 
Q 2313 4219 1838 4219 
Q 1578 4219 1281 4162 
Q 984 4106 628 3988 
L 628 4550 
Q 988 4650 1302 4700 
Q 1616 4750 1894 4750 
Q 2613 4750 3031 4423 
Q 3450 4097 3450 3541 
Q 3450 3153 3228 2886 
Q 3006 2619 2597 2516 
z
" transform="scale(0.015625)"/>
       </defs>
       <use xlink:href="#DejaVuSans-33"/>
       <use xlink:href="#DejaVuSans-30" x="63.623047"/>
      </g>
     </g>
    </g>
    <g id="ytick_5">
     <g id="line2d_27">
      <path d="M 30.64375 98.268339 
L 416.168879 98.268339 
" clip-path="url(#p1bea3abf63)" style="fill: none; stroke: #b0b0b0; stroke-width: 0.8; stroke-linecap: square"/>
     </g>
     <g id="line2d_28">
      <g>
       <use xlink:href="#mae9f45bd14" x="30.64375" y="98.268339" style="stroke: #000000; stroke-width: 0.8"/>
      </g>
     </g>
     <g id="text_14">
      <!-- 40 -->
      <g transform="translate(10.91875 102.067558)scale(0.1 -0.1)">
       <defs>
        <path id="DejaVuSans-34" d="M 2419 4116 
L 825 1625 
L 2419 1625 
L 2419 4116 
z
M 2253 4666 
L 3047 4666 
L 3047 1625 
L 3713 1625 
L 3713 1100 
L 3047 1100 
L 3047 0 
L 2419 0 
L 2419 1100 
L 313 1100 
L 313 1709 
L 2253 4666 
z
" transform="scale(0.015625)"/>
       </defs>
       <use xlink:href="#DejaVuSans-34"/>
       <use xlink:href="#DejaVuSans-30" x="63.623047"/>
      </g>
     </g>
    </g>
    <g id="ytick_6">
     <g id="line2d_29">
      <path d="M 30.64375 57.722924 
L 416.168879 57.722924 
" clip-path="url(#p1bea3abf63)" style="fill: none; stroke: #b0b0b0; stroke-width: 0.8; stroke-linecap: square"/>
     </g>
     <g id="line2d_30">
      <g>
       <use xlink:href="#mae9f45bd14" x="30.64375" y="57.722924" style="stroke: #000000; stroke-width: 0.8"/>
      </g>
     </g>
     <g id="text_15">
      <!-- 50 -->
      <g transform="translate(10.91875 61.522142)scale(0.1 -0.1)">
       <use xlink:href="#DejaVuSans-35"/>
       <use xlink:href="#DejaVuSans-30" x="63.623047"/>
      </g>
     </g>
    </g>
   </g>
   <g id="line2d_31">
    <path d="M 31.557759 258.827372 
L 32.319771 258.079103 
L 32.700777 258.022179 
L 33.081783 257.585596 
L 33.462788 257.565949 
L 33.843794 257.074215 
L 34.2248 257.025141 
L 34.986812 256.02288 
L 35.367818 255.632898 
L 36.510835 253.773407 
L 36.891841 253.864036 
L 37.272847 253.0768 
L 37.653853 253.609936 
L 38.79687 251.765689 
L 39.558882 251.457993 
L 41.082905 249.327275 
L 41.463911 249.56984 
L 41.844917 249.492143 
L 42.987935 247.293131 
L 43.368941 246.905765 
L 44.130952 245.478435 
L 44.511958 245.392271 
L 44.892964 245.858612 
L 45.27397 245.65823 
L 45.654976 244.908639 
L 46.416987 244.941564 
L 46.797993 245.689717 
L 47.178999 245.138992 
L 47.941011 244.822431 
L 48.703022 243.749556 
L 49.084028 243.553534 
L 49.465034 243.203196 
L 49.84604 242.443324 
L 50.608052 241.752698 
L 50.989058 241.295476 
L 51.370063 240.547303 
L 51.751069 240.048933 
L 52.132075 240.41158 
L 52.513081 240.17697 
L 52.894087 239.665216 
L 53.656099 238.305936 
L 54.41811 237.068885 
L 54.799116 236.341583 
L 55.561128 235.864585 
L 56.704145 234.118482 
L 57.847163 231.911197 
L 58.228169 231.490085 
L 58.609175 230.744915 
L 58.99018 230.317971 
L 59.371186 229.60901 
L 59.752192 229.187155 
L 60.133198 228.574334 
L 60.514204 228.930288 
L 60.89521 229.063648 
L 61.276216 228.717041 
L 62.800239 226.514326 
L 63.181245 226.646647 
L 63.562251 226.320705 
L 64.324262 224.766468 
L 64.705268 225.374736 
L 65.848286 224.267175 
L 67.372309 221.43105 
L 67.753315 221.183335 
L 68.134321 220.526078 
L 68.515327 220.0947 
L 70.420356 216.975196 
L 70.801362 216.572123 
L 71.182368 217.567309 
L 71.563374 218.050994 
L 71.944379 217.283727 
L 72.325385 216.901718 
L 72.706391 216.185809 
L 73.087397 215.783606 
L 73.468403 215.044022 
L 73.849409 216.406389 
L 74.61142 215.567366 
L 75.373432 214.280919 
L 77.278461 211.321911 
L 78.421479 209.55925 
L 78.802485 209.181396 
L 79.564496 207.774578 
L 79.945502 207.574542 
L 80.326508 206.852379 
L 80.707514 207.25264 
L 81.08852 206.628246 
L 81.469526 206.25777 
L 81.850532 206.144377 
L 82.612543 204.569516 
L 82.993549 204.153967 
L 83.374555 204.080912 
L 83.755561 203.724037 
L 84.136567 202.954093 
L 84.898578 204.301263 
L 85.279584 204.343966 
L 86.041596 203.267453 
L 86.422602 203.981834 
L 86.803608 203.194169 
L 87.946625 201.92618 
L 89.089643 199.754181 
L 89.470649 199.07805 
L 89.851654 199.844995 
L 90.994672 197.787174 
L 91.375678 197.2421 
L 91.756684 196.482436 
L 92.13769 196.144642 
L 92.518695 195.488901 
L 92.899701 195.539274 
L 93.280707 194.945237 
L 93.661713 195.14955 
L 94.423725 193.653705 
L 95.185736 192.847675 
L 95.566742 192.375766 
L 95.947748 192.37708 
L 96.70976 191.16869 
L 97.090766 190.658125 
L 97.471771 190.855007 
L 97.852777 190.084097 
L 98.233783 190.303165 
L 98.614789 189.840094 
L 98.995795 189.064368 
L 99.376801 189.327611 
L 100.900824 186.821559 
L 101.28183 186.759657 
L 101.662836 186.006052 
L 102.424848 185.317475 
L 102.805853 185.253122 
L 104.710883 182.107549 
L 105.091889 181.622949 
L 105.8539 180.082452 
L 106.234906 179.987471 
L 106.996918 178.554773 
L 107.377924 177.808065 
L 108.139935 176.987311 
L 108.520941 176.304008 
L 109.282953 175.71418 
L 109.663959 175.041267 
L 110.044965 175.558279 
L 110.806976 174.28269 
L 111.187982 174.043887 
L 112.331 172.527216 
L 112.712006 172.634148 
L 113.855023 171.061108 
L 114.236029 171.150918 
L 114.617035 171.57757 
L 114.998041 171.228721 
L 115.760052 170.088991 
L 116.141058 170.037684 
L 116.522064 170.784939 
L 116.90307 170.461483 
L 117.665082 169.032885 
L 118.427093 168.683278 
L 119.189105 167.481407 
L 119.570111 167.126749 
L 119.951117 167.179255 
L 120.332123 166.484879 
L 120.713128 166.026933 
L 121.094134 165.368369 
L 121.47514 165.423037 
L 121.856146 165.976226 
L 123.380169 164.531589 
L 124.142181 163.500789 
L 124.523187 163.957115 
L 124.904193 163.252459 
L 125.285199 162.860302 
L 126.428216 161.245849 
L 127.190228 160.263234 
L 127.95224 158.90679 
L 128.333245 158.24141 
L 129.095257 157.567693 
L 130.238275 155.607687 
L 130.619281 155.186978 
L 131.000286 154.936804 
L 131.381292 154.352934 
L 131.762298 154.396499 
L 133.286322 151.43882 
L 135.191351 148.937686 
L 135.572357 148.140645 
L 135.953363 147.759117 
L 136.334368 148.356163 
L 136.715374 147.973353 
L 137.858392 146.027912 
L 138.239398 146.13683 
L 139.382415 143.993108 
L 139.763421 143.414307 
L 140.144427 144.28109 
L 140.525433 144.372283 
L 140.906439 143.683646 
L 141.287444 143.538046 
L 142.811468 141.38378 
L 143.192474 140.615397 
L 143.57348 140.825942 
L 143.954485 140.191141 
L 144.335491 139.888107 
L 144.716497 139.334039 
L 145.097503 141.266186 
L 145.478509 141.201205 
L 145.859515 140.455928 
L 146.240521 140.597909 
L 146.621526 140.608414 
L 147.383538 139.074016 
L 148.526556 137.390742 
L 148.907561 136.633428 
L 149.288567 136.434684 
L 150.431585 136.245189 
L 151.955608 133.83093 
L 152.71762 132.251874 
L 153.098626 133.082993 
L 153.479632 132.75678 
L 154.622649 130.979443 
L 155.003655 130.687651 
L 155.384661 129.897791 
L 155.765667 129.90297 
L 156.146673 129.276508 
L 156.527679 129.969818 
L 156.908684 129.165709 
L 157.28969 129.139994 
L 158.051702 127.629317 
L 158.432708 127.405423 
L 158.813714 126.77545 
L 159.194719 127.134119 
L 159.956731 126.60524 
L 160.718743 125.227875 
L 161.480755 124.177178 
L 162.623772 122.025428 
L 163.76679 119.756524 
L 164.147796 119.58559 
L 164.909807 118.318993 
L 165.290813 118.34982 
L 165.671819 117.710685 
L 166.433831 118.325663 
L 167.576848 117.135209 
L 167.957854 116.33742 
L 168.33886 116.147194 
L 169.100872 114.879402 
L 169.481877 114.462385 
L 169.862883 113.672432 
L 171.005901 112.18586 
L 171.386907 113.353216 
L 171.767913 113.64569 
L 172.148918 112.960865 
L 173.291936 111.685917 
L 173.672942 111.68477 
L 174.053948 111.235275 
L 174.815959 110.707966 
L 175.196965 111.250437 
L 175.958977 110.107814 
L 176.720989 108.788716 
L 178.245012 105.926216 
L 178.626018 106.286695 
L 179.007024 105.817576 
L 179.38803 105.552145 
L 180.150041 104.447656 
L 180.531047 105.061708 
L 180.912053 104.355412 
L 181.293059 104.007183 
L 182.436076 101.753848 
L 183.198088 100.386645 
L 183.9601 99.187629 
L 184.341106 99.239799 
L 184.722112 98.912134 
L 185.103117 99.620339 
L 187.008147 96.555425 
L 187.389153 96.526378 
L 187.770158 95.743697 
L 188.53217 95.135301 
L 188.913176 94.588437 
L 189.675188 94.360619 
L 190.056193 94.978548 
L 190.437199 96.305836 
L 190.818205 95.840912 
L 191.199211 96.431586 
L 191.961223 95.107543 
L 192.342229 95.737597 
L 192.723234 96.035011 
L 193.485246 95.5491 
L 193.866252 95.756494 
L 194.247258 95.347618 
L 194.628264 95.523822 
L 195.00927 95.067177 
L 195.390275 95.783 
L 195.771281 95.517186 
L 196.152287 96.191144 
L 196.914299 96.037476 
L 197.676311 97.108027 
L 198.438322 95.854891 
L 198.819328 96.620114 
L 199.200334 96.078503 
L 199.58134 95.865995 
L 199.962346 95.346897 
L 200.724357 95.120526 
L 201.105363 94.539565 
L 201.486369 94.17066 
L 201.867375 94.836462 
L 202.248381 94.633619 
L 202.629387 94.573605 
L 203.010392 93.951574 
L 204.15341 93.397224 
L 204.534416 93.412519 
L 205.296428 92.291655 
L 205.677433 91.712989 
L 206.058439 92.564873 
L 206.439445 92.354232 
L 207.201457 92.837925 
L 207.582463 92.161752 
L 208.344474 92.316047 
L 208.72548 92.849294 
L 209.487492 91.711532 
L 209.868498 91.402011 
L 210.249504 90.624219 
L 210.630509 91.217682 
L 211.011515 90.859947 
L 211.392521 91.398317 
L 211.773527 92.406633 
L 212.154533 92.446599 
L 212.535539 91.743758 
L 212.916545 91.493615 
L 213.29755 92.573173 
L 213.678556 93.238348 
L 214.059562 92.972914 
L 214.440568 93.583259 
L 214.821574 93.125443 
L 215.20258 94.379549 
L 215.583586 94.993586 
L 215.964591 95.34337 
L 216.345597 95.206045 
L 216.726603 95.735828 
L 217.107609 95.345046 
L 217.488615 96.055213 
L 218.250627 95.51826 
L 218.631632 96.364116 
L 219.012638 96.42213 
L 219.393644 97.850957 
L 219.77465 98.743711 
L 220.155656 98.196671 
L 220.536662 97.953672 
L 220.917667 97.421693 
L 221.298673 96.61243 
L 222.060685 95.717988 
L 222.441691 95.181042 
L 222.822697 95.296857 
L 223.203703 94.714677 
L 223.584708 94.401975 
L 223.965714 93.74619 
L 224.34672 94.577615 
L 224.727726 94.781546 
L 225.108732 95.775345 
L 225.870744 97.229562 
L 226.251749 96.633529 
L 226.632755 96.606193 
L 227.013761 96.166346 
L 227.394767 95.535408 
L 227.775773 95.541733 
L 228.156779 95.894819 
L 228.537785 95.301084 
L 228.91879 95.751043 
L 229.299796 95.470142 
L 229.680802 94.973022 
L 230.061808 94.906303 
L 230.442814 95.029285 
L 230.82382 94.368952 
L 231.204825 94.054828 
L 231.585831 94.370212 
L 231.966837 93.902893 
L 232.347843 93.878779 
L 233.109855 94.296873 
L 233.490861 94.053592 
L 234.252872 93.10011 
L 235.014884 92.180704 
L 235.39589 91.741764 
L 235.776896 91.479292 
L 236.157902 91.371103 
L 236.538907 91.818861 
L 236.919913 91.3735 
L 237.300919 91.467416 
L 237.681925 91.026227 
L 238.062931 90.881919 
L 238.824942 90.299236 
L 239.205948 90.861736 
L 239.586954 91.123702 
L 240.729972 89.474642 
L 241.110978 89.69548 
L 241.491983 89.130537 
L 241.872989 89.021036 
L 242.253995 89.510974 
L 242.635001 89.227777 
L 243.016007 89.34267 
L 243.397013 88.821261 
L 243.778019 89.175889 
L 244.54003 88.540849 
L 244.921036 89.106905 
L 245.683048 88.802411 
L 246.064054 88.549296 
L 246.826065 87.661804 
L 247.207071 87.739686 
L 247.588077 87.374782 
L 248.350089 86.235341 
L 248.731095 86.765281 
L 249.1121 86.094567 
L 249.493106 86.584428 
L 249.874112 86.130982 
L 250.255118 86.54637 
L 251.01713 86.728408 
L 251.398136 87.289799 
L 251.779141 86.725132 
L 252.160147 87.08985 
L 254.446182 86.699472 
L 254.827188 85.963495 
L 255.208194 85.947334 
L 255.5892 86.540654 
L 255.970206 86.262014 
L 256.351212 87.059574 
L 256.732218 87.37015 
L 257.113223 86.848577 
L 257.494229 87.6619 
L 257.875235 88.00466 
L 258.256241 87.960307 
L 258.637247 90.100569 
L 259.018253 90.010991 
L 259.399258 89.310722 
L 259.780264 89.308829 
L 260.16127 89.912955 
L 260.542276 90.247605 
L 260.923282 89.900855 
L 261.304288 89.73874 
L 261.685294 90.244118 
L 262.066299 89.595625 
L 262.447305 90.131366 
L 263.590323 88.809439 
L 263.971329 88.838426 
L 264.352335 88.547062 
L 264.73334 89.272609 
L 265.114346 88.885171 
L 265.495352 89.294514 
L 265.876358 89.348372 
L 267.019376 87.59874 
L 267.400381 87.916075 
L 268.162393 86.905654 
L 268.543399 86.747263 
L 268.924405 86.283854 
L 269.305411 85.60402 
L 269.686416 85.246333 
L 270.067422 85.151606 
L 270.829434 84.056843 
L 271.21044 84.916519 
L 271.591446 84.610064 
L 272.353457 86.562528 
L 272.734463 86.11539 
L 273.115469 86.09869 
L 273.496475 86.367668 
L 273.877481 86.244273 
L 274.258487 87.463414 
L 274.639493 86.831958 
L 275.020498 87.297257 
L 275.401504 86.653918 
L 276.544522 85.956442 
L 276.925528 86.650512 
L 277.306534 86.914915 
L 278.068545 86.350369 
L 278.449551 86.377724 
L 278.830557 86.607376 
L 279.211563 86.254046 
L 279.592569 87.03162 
L 279.973574 87.118925 
L 280.35458 87.563525 
L 280.735586 87.315841 
L 281.116592 86.85401 
L 281.497598 87.339603 
L 281.878604 87.333356 
L 283.021621 90.580347 
L 283.402627 89.964383 
L 283.783633 91.223802 
L 284.545645 90.141381 
L 284.926651 91.453504 
L 285.307656 90.930124 
L 285.688662 90.791035 
L 286.069668 91.012316 
L 286.450674 90.78234 
L 286.83168 91.241314 
L 287.593692 90.189513 
L 287.974697 89.727717 
L 288.355703 89.939062 
L 288.736709 89.881858 
L 289.498721 89.005055 
L 290.260732 89.327592 
L 291.022744 88.971118 
L 291.40375 89.410009 
L 291.784756 89.329055 
L 292.165762 89.634285 
L 292.546768 90.13941 
L 293.308779 89.643939 
L 293.689785 90.285504 
L 294.070791 92.075928 
L 294.451797 92.009367 
L 294.832803 91.611863 
L 295.213809 91.393279 
L 295.594814 90.889958 
L 295.97582 90.781046 
L 296.737832 89.827467 
L 297.118838 90.519938 
L 297.499844 90.65482 
L 297.88085 91.244802 
L 298.261855 92.33244 
L 298.642861 91.716989 
L 299.023867 91.391169 
L 299.404873 91.599352 
L 299.785879 91.351783 
L 300.166885 92.374559 
L 300.54789 91.821446 
L 300.928896 92.679731 
L 301.309902 92.087571 
L 301.690908 92.280249 
L 302.071914 92.255126 
L 302.45292 91.726832 
L 302.833926 92.018499 
L 303.214931 91.520301 
L 303.595937 91.670807 
L 303.976943 91.186501 
L 304.357949 92.8059 
L 305.119961 93.022766 
L 305.500967 92.49281 
L 305.881972 92.813591 
L 306.643984 91.991312 
L 307.405996 91.88298 
L 308.168008 93.238143 
L 308.930019 92.750308 
L 309.311025 92.71894 
L 309.692031 92.894218 
L 310.073037 92.46648 
L 310.454043 92.576889 
L 310.835048 92.187132 
L 311.216054 92.023005 
L 311.978066 90.853529 
L 312.359072 90.680302 
L 312.740078 91.085985 
L 313.883095 89.488006 
L 314.264101 89.8066 
L 314.645107 89.393856 
L 315.026113 90.122297 
L 315.407119 89.882866 
L 315.788125 89.16427 
L 316.16913 88.841078 
L 316.550136 88.826013 
L 316.931142 88.989209 
L 317.312148 89.583463 
L 317.693154 88.878091 
L 318.07416 88.735597 
L 318.455166 89.747519 
L 318.836171 90.024526 
L 319.217177 91.546314 
L 319.598183 91.188494 
L 319.979189 91.096588 
L 320.360195 91.435449 
L 320.741201 91.337646 
L 321.122206 90.703493 
L 321.503212 91.548681 
L 321.884218 91.096269 
L 322.265224 92.438264 
L 322.64623 92.120762 
L 323.027236 92.456227 
L 323.408242 91.934544 
L 323.789247 91.939372 
L 324.170253 91.656673 
L 324.551259 92.126596 
L 324.932265 93.059617 
L 325.313271 92.801119 
L 325.694277 92.258409 
L 326.075283 93.364546 
L 326.456288 93.780583 
L 326.837294 93.446327 
L 327.2183 93.988292 
L 327.599306 93.545704 
L 327.980312 94.238847 
L 328.361318 94.283364 
L 328.742324 94.889492 
L 329.123329 95.151589 
L 329.885341 93.822443 
L 330.266347 93.326148 
L 330.647353 94.083073 
L 331.028359 94.377008 
L 331.409364 93.988853 
L 331.79037 94.428924 
L 332.171376 93.967991 
L 332.552382 94.476524 
L 332.933388 93.800348 
L 333.6954 93.416605 
L 334.076405 92.819735 
L 334.457411 93.473045 
L 334.838417 93.631983 
L 335.981435 92.053724 
L 336.362441 92.291666 
L 336.743446 92.258068 
L 337.505458 92.608223 
L 337.886464 92.402666 
L 338.26747 91.895663 
L 338.648476 93.59817 
L 339.410487 93.20998 
L 339.791493 92.593857 
L 340.172499 94.784374 
L 340.553505 94.49334 
L 340.934511 93.984255 
L 341.315517 93.726436 
L 341.696522 93.99605 
L 342.83954 93.106812 
L 343.220546 93.303692 
L 343.601552 93.015538 
L 343.982558 93.458651 
L 344.363563 93.258539 
L 344.744569 92.843741 
L 345.125575 93.82557 
L 345.506581 93.250216 
L 346.268593 92.70245 
L 346.649599 92.953222 
L 347.030604 92.787731 
L 347.41161 92.197614 
L 347.792616 96.012497 
L 348.173622 95.618462 
L 348.554628 96.450761 
L 349.31664 96.498182 
L 349.697645 97.203327 
L 350.078651 96.729051 
L 350.459657 96.812332 
L 350.840663 97.276576 
L 351.221669 97.052079 
L 351.602675 96.290011 
L 351.98368 96.093739 
L 352.364686 95.483262 
L 352.745692 95.324779 
L 353.507704 93.910224 
L 353.88871 93.451284 
L 354.269716 93.770263 
L 354.650721 93.640885 
L 355.031727 94.35277 
L 355.793739 93.341901 
L 356.555751 94.899512 
L 356.936757 94.874698 
L 357.317762 95.544961 
L 357.698768 97.29803 
L 358.079774 96.694104 
L 358.46078 96.692866 
L 358.841786 96.04317 
L 359.222792 96.287708 
L 359.603798 95.995333 
L 359.984803 96.916205 
L 360.365809 96.15042 
L 360.746815 95.657095 
L 361.127821 95.590404 
L 361.508827 95.087019 
L 361.889833 94.392357 
L 362.270838 96.078394 
L 362.651844 96.211905 
L 363.794862 94.987644 
L 364.556874 96.848876 
L 364.937879 96.869594 
L 365.318885 96.125685 
L 367.223915 93.94224 
L 367.60492 94.426413 
L 367.985926 94.235714 
L 369.50995 92.677233 
L 369.890956 92.965124 
L 370.271961 93.578556 
L 370.652967 93.744789 
L 371.033973 93.404835 
L 371.414979 92.795514 
L 371.795985 92.921573 
L 372.176991 92.927676 
L 372.557996 92.407602 
L 372.939002 92.116452 
L 373.320008 92.181787 
L 373.701014 91.624916 
L 374.08202 91.498837 
L 374.463026 91.216576 
L 374.844032 91.258307 
L 375.225037 91.7561 
L 375.606043 91.881729 
L 375.987049 92.353978 
L 376.368055 92.454904 
L 376.749061 91.954877 
L 377.130067 92.4763 
L 377.511073 93.254835 
L 377.892078 93.273279 
L 378.273084 94.509512 
L 378.65409 93.884368 
L 379.035096 94.134224 
L 379.416102 94.670519 
L 379.797108 94.565913 
L 380.178114 94.264119 
L 380.940125 93.173865 
L 381.702137 91.829929 
L 382.845154 89.943094 
L 383.22616 90.020834 
L 383.988172 89.0133 
L 384.369178 89.786157 
L 385.13119 90.278449 
L 385.512195 89.721514 
L 385.893201 89.646662 
L 386.274207 89.366105 
L 386.655213 88.875107 
L 387.036219 88.710448 
L 387.417225 88.685432 
L 387.798231 89.136194 
L 388.179236 88.40808 
L 388.560242 88.688453 
L 388.941248 88.12042 
L 389.322254 88.994389 
L 389.70326 89.105935 
L 390.465272 90.934684 
L 391.608289 90.174248 
L 392.751307 88.826869 
L 393.513318 88.184285 
L 393.894324 87.716275 
L 394.27533 87.730229 
L 395.037342 86.510178 
L 395.418348 87.488036 
L 396.561365 86.809899 
L 396.942371 86.108999 
L 397.323377 86.63435 
L 398.085389 88.81011 
L 398.466394 88.447876 
L 398.8474 88.439865 
L 399.228406 88.686182 
L 399.609412 89.175827 
L 399.990418 88.880957 
L 400.75243 89.873942 
L 401.895447 88.024323 
L 402.276453 88.926453 
L 402.657459 89.256324 
L 403.038465 89.112525 
L 403.41947 88.723827 
L 403.800476 88.525718 
L 404.181482 88.920711 
L 404.562488 89.890216 
L 404.943494 91.965453 
L 405.3245 91.556278 
L 405.705506 93.033278 
L 406.086511 92.886072 
L 406.467517 93.000715 
L 407.229529 92.012075 
L 407.610535 91.876061 
L 407.991541 92.660014 
L 408.372547 92.50851 
L 408.753552 92.209683 
L 409.134558 91.7624 
L 409.515564 91.655351 
L 409.89657 91.909218 
L 410.277576 91.392535 
L 410.658582 92.302851 
L 411.039588 92.387363 
L 411.420593 92.300674 
L 411.420593 92.300674 
" clip-path="url(#p1bea3abf63)" style="fill: none; stroke: #1f77b4; stroke-width: 1.5; stroke-linecap: square"/>
   </g>
   <g id="patch_3">
    <path d="M 30.64375 260.45 
L 30.64375 25.8 
" style="fill: none; stroke: #000000; stroke-width: 0.8; stroke-linejoin: miter; stroke-linecap: square"/>
   </g>
   <g id="patch_4">
    <path d="M 416.168879 260.45 
L 416.168879 25.8 
" style="fill: none; stroke: #000000; stroke-width: 0.8; stroke-linejoin: miter; stroke-linecap: square"/>
   </g>
   <g id="patch_5">
    <path d="M 30.64375 260.45 
L 416.168879 260.45 
" style="fill: none; stroke: #000000; stroke-width: 0.8; stroke-linejoin: miter; stroke-linecap: square"/>
   </g>
   <g id="patch_6">
    <path d="M 30.64375 25.8 
L 416.168879 25.8 
" style="fill: none; stroke: #000000; stroke-width: 0.8; stroke-linejoin: miter; stroke-linecap: square"/>
   </g>
   <g id="text_16">
    <!-- Resived_packet_delay -->
    <g transform="translate(157.488814 19.8)scale(0.12 -0.12)">
     <defs>
      <path id="DejaVuSans-52" d="M 2841 2188 
Q 3044 2119 3236 1894 
Q 3428 1669 3622 1275 
L 4263 0 
L 3584 0 
L 2988 1197 
Q 2756 1666 2539 1819 
Q 2322 1972 1947 1972 
L 1259 1972 
L 1259 0 
L 628 0 
L 628 4666 
L 2053 4666 
Q 2853 4666 3247 4331 
Q 3641 3997 3641 3322 
Q 3641 2881 3436 2590 
Q 3231 2300 2841 2188 
z
M 1259 4147 
L 1259 2491 
L 2053 2491 
Q 2509 2491 2742 2702 
Q 2975 2913 2975 3322 
Q 2975 3731 2742 3939 
Q 2509 4147 2053 4147 
L 1259 4147 
z
" transform="scale(0.015625)"/>
      <path id="DejaVuSans-65" d="M 3597 1894 
L 3597 1613 
L 953 1613 
Q 991 1019 1311 708 
Q 1631 397 2203 397 
Q 2534 397 2845 478 
Q 3156 559 3463 722 
L 3463 178 
Q 3153 47 2828 -22 
Q 2503 -91 2169 -91 
Q 1331 -91 842 396 
Q 353 884 353 1716 
Q 353 2575 817 3079 
Q 1281 3584 2069 3584 
Q 2775 3584 3186 3129 
Q 3597 2675 3597 1894 
z
M 3022 2063 
Q 3016 2534 2758 2815 
Q 2500 3097 2075 3097 
Q 1594 3097 1305 2825 
Q 1016 2553 972 2059 
L 3022 2063 
z
" transform="scale(0.015625)"/>
      <path id="DejaVuSans-73" d="M 2834 3397 
L 2834 2853 
Q 2591 2978 2328 3040 
Q 2066 3103 1784 3103 
Q 1356 3103 1142 2972 
Q 928 2841 928 2578 
Q 928 2378 1081 2264 
Q 1234 2150 1697 2047 
L 1894 2003 
Q 2506 1872 2764 1633 
Q 3022 1394 3022 966 
Q 3022 478 2636 193 
Q 2250 -91 1575 -91 
Q 1294 -91 989 -36 
Q 684 19 347 128 
L 347 722 
Q 666 556 975 473 
Q 1284 391 1588 391 
Q 1994 391 2212 530 
Q 2431 669 2431 922 
Q 2431 1156 2273 1281 
Q 2116 1406 1581 1522 
L 1381 1569 
Q 847 1681 609 1914 
Q 372 2147 372 2553 
Q 372 3047 722 3315 
Q 1072 3584 1716 3584 
Q 2034 3584 2315 3537 
Q 2597 3491 2834 3397 
z
" transform="scale(0.015625)"/>
      <path id="DejaVuSans-69" d="M 603 3500 
L 1178 3500 
L 1178 0 
L 603 0 
L 603 3500 
z
M 603 4863 
L 1178 4863 
L 1178 4134 
L 603 4134 
L 603 4863 
z
" transform="scale(0.015625)"/>
      <path id="DejaVuSans-76" d="M 191 3500 
L 800 3500 
L 1894 563 
L 2988 3500 
L 3597 3500 
L 2284 0 
L 1503 0 
L 191 3500 
z
" transform="scale(0.015625)"/>
      <path id="DejaVuSans-64" d="M 2906 2969 
L 2906 4863 
L 3481 4863 
L 3481 0 
L 2906 0 
L 2906 525 
Q 2725 213 2448 61 
Q 2172 -91 1784 -91 
Q 1150 -91 751 415 
Q 353 922 353 1747 
Q 353 2572 751 3078 
Q 1150 3584 1784 3584 
Q 2172 3584 2448 3432 
Q 2725 3281 2906 2969 
z
M 947 1747 
Q 947 1113 1208 752 
Q 1469 391 1925 391 
Q 2381 391 2643 752 
Q 2906 1113 2906 1747 
Q 2906 2381 2643 2742 
Q 2381 3103 1925 3103 
Q 1469 3103 1208 2742 
Q 947 2381 947 1747 
z
" transform="scale(0.015625)"/>
      <path id="DejaVuSans-5f" d="M 3263 -1063 
L 3263 -1509 
L -63 -1509 
L -63 -1063 
L 3263 -1063 
z
" transform="scale(0.015625)"/>
      <path id="DejaVuSans-70" d="M 1159 525 
L 1159 -1331 
L 581 -1331 
L 581 3500 
L 1159 3500 
L 1159 2969 
Q 1341 3281 1617 3432 
Q 1894 3584 2278 3584 
Q 2916 3584 3314 3078 
Q 3713 2572 3713 1747 
Q 3713 922 3314 415 
Q 2916 -91 2278 -91 
Q 1894 -91 1617 61 
Q 1341 213 1159 525 
z
M 3116 1747 
Q 3116 2381 2855 2742 
Q 2594 3103 2138 3103 
Q 1681 3103 1420 2742 
Q 1159 2381 1159 1747 
Q 1159 1113 1420 752 
Q 1681 391 2138 391 
Q 2594 391 2855 752 
Q 3116 1113 3116 1747 
z
" transform="scale(0.015625)"/>
      <path id="DejaVuSans-61" d="M 2194 1759 
Q 1497 1759 1228 1600 
Q 959 1441 959 1056 
Q 959 750 1161 570 
Q 1363 391 1709 391 
Q 2188 391 2477 730 
Q 2766 1069 2766 1631 
L 2766 1759 
L 2194 1759 
z
M 3341 1997 
L 3341 0 
L 2766 0 
L 2766 531 
Q 2569 213 2275 61 
Q 1981 -91 1556 -91 
Q 1019 -91 701 211 
Q 384 513 384 1019 
Q 384 1609 779 1909 
Q 1175 2209 1959 2209 
L 2766 2209 
L 2766 2266 
Q 2766 2663 2505 2880 
Q 2244 3097 1772 3097 
Q 1472 3097 1187 3025 
Q 903 2953 641 2809 
L 641 3341 
Q 956 3463 1253 3523 
Q 1550 3584 1831 3584 
Q 2591 3584 2966 3190 
Q 3341 2797 3341 1997 
z
" transform="scale(0.015625)"/>
      <path id="DejaVuSans-63" d="M 3122 3366 
L 3122 2828 
Q 2878 2963 2633 3030 
Q 2388 3097 2138 3097 
Q 1578 3097 1268 2742 
Q 959 2388 959 1747 
Q 959 1106 1268 751 
Q 1578 397 2138 397 
Q 2388 397 2633 464 
Q 2878 531 3122 666 
L 3122 134 
Q 2881 22 2623 -34 
Q 2366 -91 2075 -91 
Q 1284 -91 818 406 
Q 353 903 353 1747 
Q 353 2603 823 3093 
Q 1294 3584 2113 3584 
Q 2378 3584 2631 3529 
Q 2884 3475 3122 3366 
z
" transform="scale(0.015625)"/>
      <path id="DejaVuSans-6b" d="M 581 4863 
L 1159 4863 
L 1159 1991 
L 2875 3500 
L 3609 3500 
L 1753 1863 
L 3688 0 
L 2938 0 
L 1159 1709 
L 1159 0 
L 581 0 
L 581 4863 
z
" transform="scale(0.015625)"/>
      <path id="DejaVuSans-74" d="M 1172 4494 
L 1172 3500 
L 2356 3500 
L 2356 3053 
L 1172 3053 
L 1172 1153 
Q 1172 725 1289 603 
Q 1406 481 1766 481 
L 2356 481 
L 2356 0 
L 1766 0 
Q 1100 0 847 248 
Q 594 497 594 1153 
L 594 3053 
L 172 3053 
L 172 3500 
L 594 3500 
L 594 4494 
L 1172 4494 
z
" transform="scale(0.015625)"/>
      <path id="DejaVuSans-6c" d="M 603 4863 
L 1178 4863 
L 1178 0 
L 603 0 
L 603 4863 
z
" transform="scale(0.015625)"/>
      <path id="DejaVuSans-79" d="M 2059 -325 
Q 1816 -950 1584 -1140 
Q 1353 -1331 966 -1331 
L 506 -1331 
L 506 -850 
L 844 -850 
Q 1081 -850 1212 -737 
Q 1344 -625 1503 -206 
L 1606 56 
L 191 3500 
L 800 3500 
L 1894 763 
L 2988 3500 
L 3597 3500 
L 2059 -325 
z
" transform="scale(0.015625)"/>
     </defs>
     <use xlink:href="#DejaVuSans-52"/>
     <use xlink:href="#DejaVuSans-65" x="64.982422"/>
     <use xlink:href="#DejaVuSans-73" x="126.505859"/>
     <use xlink:href="#DejaVuSans-69" x="178.605469"/>
     <use xlink:href="#DejaVuSans-76" x="206.388672"/>
     <use xlink:href="#DejaVuSans-65" x="265.568359"/>
     <use xlink:href="#DejaVuSans-64" x="327.091797"/>
     <use xlink:href="#DejaVuSans-5f" x="390.568359"/>
     <use xlink:href="#DejaVuSans-70" x="440.568359"/>
     <use xlink:href="#DejaVuSans-61" x="504.044922"/>
     <use xlink:href="#DejaVuSans-63" x="565.324219"/>
     <use xlink:href="#DejaVuSans-6b" x="620.304688"/>
     <use xlink:href="#DejaVuSans-65" x="674.589844"/>
     <use xlink:href="#DejaVuSans-74" x="736.113281"/>
     <use xlink:href="#DejaVuSans-5f" x="775.322266"/>
     <use xlink:href="#DejaVuSans-64" x="825.322266"/>
     <use xlink:href="#DejaVuSans-65" x="888.798828"/>
     <use xlink:href="#DejaVuSans-6c" x="950.322266"/>
     <use xlink:href="#DejaVuSans-61" x="978.105469"/>
     <use xlink:href="#DejaVuSans-79" x="1039.384766"/>
    </g>
   </g>
   <g id="legend_1">
    <g id="patch_7">
     <path d="M 226.968879 48.478125 
L 409.168879 48.478125 
Q 411.168879 48.478125 411.168879 46.478125 
L 411.168879 32.8 
Q 411.168879 30.8 409.168879 30.8 
L 226.968879 30.8 
Q 224.968879 30.8 224.968879 32.8 
L 224.968879 46.478125 
Q 224.968879 48.478125 226.968879 48.478125 
z
" style="fill: #ffffff; opacity: 0.8; stroke: #cccccc; stroke-linejoin: miter"/>
    </g>
    <g id="line2d_32">
     <path d="M 228.968879 38.898437 
L 238.968879 38.898437 
L 248.968879 38.898437 
" style="fill: none; stroke: #1f77b4; stroke-width: 1.5; stroke-linecap: square"/>
    </g>
    <g id="text_17">
     <!-- Delay in Network.nodeRx.sink -->
     <g transform="translate(256.968879 42.398437)scale(0.1 -0.1)">
      <defs>
       <path id="DejaVuSans-44" d="M 1259 4147 
L 1259 519 
L 2022 519 
Q 2988 519 3436 956 
Q 3884 1394 3884 2338 
Q 3884 3275 3436 3711 
Q 2988 4147 2022 4147 
L 1259 4147 
z
M 628 4666 
L 1925 4666 
Q 3281 4666 3915 4102 
Q 4550 3538 4550 2338 
Q 4550 1131 3912 565 
Q 3275 0 1925 0 
L 628 0 
L 628 4666 
z
" transform="scale(0.015625)"/>
       <path id="DejaVuSans-20" transform="scale(0.015625)"/>
       <path id="DejaVuSans-6e" d="M 3513 2113 
L 3513 0 
L 2938 0 
L 2938 2094 
Q 2938 2591 2744 2837 
Q 2550 3084 2163 3084 
Q 1697 3084 1428 2787 
Q 1159 2491 1159 1978 
L 1159 0 
L 581 0 
L 581 3500 
L 1159 3500 
L 1159 2956 
Q 1366 3272 1645 3428 
Q 1925 3584 2291 3584 
Q 2894 3584 3203 3211 
Q 3513 2838 3513 2113 
z
" transform="scale(0.015625)"/>
       <path id="DejaVuSans-4e" d="M 628 4666 
L 1478 4666 
L 3547 763 
L 3547 4666 
L 4159 4666 
L 4159 0 
L 3309 0 
L 1241 3903 
L 1241 0 
L 628 0 
L 628 4666 
z
" transform="scale(0.015625)"/>
       <path id="DejaVuSans-77" d="M 269 3500 
L 844 3500 
L 1563 769 
L 2278 3500 
L 2956 3500 
L 3675 769 
L 4391 3500 
L 4966 3500 
L 4050 0 
L 3372 0 
L 2619 2869 
L 1863 0 
L 1184 0 
L 269 3500 
z
" transform="scale(0.015625)"/>
       <path id="DejaVuSans-6f" d="M 1959 3097 
Q 1497 3097 1228 2736 
Q 959 2375 959 1747 
Q 959 1119 1226 758 
Q 1494 397 1959 397 
Q 2419 397 2687 759 
Q 2956 1122 2956 1747 
Q 2956 2369 2687 2733 
Q 2419 3097 1959 3097 
z
M 1959 3584 
Q 2709 3584 3137 3096 
Q 3566 2609 3566 1747 
Q 3566 888 3137 398 
Q 2709 -91 1959 -91 
Q 1206 -91 779 398 
Q 353 888 353 1747 
Q 353 2609 779 3096 
Q 1206 3584 1959 3584 
z
" transform="scale(0.015625)"/>
       <path id="DejaVuSans-72" d="M 2631 2963 
Q 2534 3019 2420 3045 
Q 2306 3072 2169 3072 
Q 1681 3072 1420 2755 
Q 1159 2438 1159 1844 
L 1159 0 
L 581 0 
L 581 3500 
L 1159 3500 
L 1159 2956 
Q 1341 3275 1631 3429 
Q 1922 3584 2338 3584 
Q 2397 3584 2469 3576 
Q 2541 3569 2628 3553 
L 2631 2963 
z
" transform="scale(0.015625)"/>
       <path id="DejaVuSans-2e" d="M 684 794 
L 1344 794 
L 1344 0 
L 684 0 
L 684 794 
z
" transform="scale(0.015625)"/>
       <path id="DejaVuSans-78" d="M 3513 3500 
L 2247 1797 
L 3578 0 
L 2900 0 
L 1881 1375 
L 863 0 
L 184 0 
L 1544 1831 
L 300 3500 
L 978 3500 
L 1906 2253 
L 2834 3500 
L 3513 3500 
z
" transform="scale(0.015625)"/>
      </defs>
      <use xlink:href="#DejaVuSans-44"/>
      <use xlink:href="#DejaVuSans-65" x="77.001953"/>
      <use xlink:href="#DejaVuSans-6c" x="138.525391"/>
      <use xlink:href="#DejaVuSans-61" x="166.308594"/>
      <use xlink:href="#DejaVuSans-79" x="227.587891"/>
      <use xlink:href="#DejaVuSans-20" x="286.767578"/>
      <use xlink:href="#DejaVuSans-69" x="318.554688"/>
      <use xlink:href="#DejaVuSans-6e" x="346.337891"/>
      <use xlink:href="#DejaVuSans-20" x="409.716797"/>
      <use xlink:href="#DejaVuSans-4e" x="441.503906"/>
      <use xlink:href="#DejaVuSans-65" x="516.308594"/>
      <use xlink:href="#DejaVuSans-74" x="577.832031"/>
      <use xlink:href="#DejaVuSans-77" x="617.041016"/>
      <use xlink:href="#DejaVuSans-6f" x="698.828125"/>
      <use xlink:href="#DejaVuSans-72" x="760.009766"/>
      <use xlink:href="#DejaVuSans-6b" x="801.123047"/>
      <use xlink:href="#DejaVuSans-2e" x="859.033203"/>
      <use xlink:href="#DejaVuSans-6e" x="890.820312"/>
      <use xlink:href="#DejaVuSans-6f" x="954.199219"/>
      <use xlink:href="#DejaVuSans-64" x="1015.380859"/>
      <use xlink:href="#DejaVuSans-65" x="1078.857422"/>
      <use xlink:href="#DejaVuSans-52" x="1140.380859"/>
      <use xlink:href="#DejaVuSans-78" x="1209.863281"/>
      <use xlink:href="#DejaVuSans-2e" x="1269.042969"/>
      <use xlink:href="#DejaVuSans-73" x="1300.830078"/>
      <use xlink:href="#DejaVuSans-69" x="1352.929688"/>
      <use xlink:href="#DejaVuSans-6e" x="1380.712891"/>
      <use xlink:href="#DejaVuSans-6b" x="1444.091797"/>
     </g>
    </g>
   </g>
  </g>
 </g>
 <defs>
  <clipPath id="p1bea3abf63">
   <rect x="30.64375" y="25.8" width="385.525129" height="234.65"/>
  </clipPath>
 </defs>
</svg>
