<?xml version="1.0" encoding="utf-8" standalone="no"?>
<!DOCTYPE svg PUBLIC "-//W3C//DTD SVG 1.1//EN"
  "http://www.w3.org/Graphics/SVG/1.1/DTD/svg11.dtd">
<svg xmlns:xlink="http://www.w3.org/1999/xlink" width="432pt" height="288pt" viewBox="0 0 432 288" xmlns="http://www.w3.org/2000/svg" version="1.1">
 <metadata>
  <rdf:RDF xmlns:dc="http://purl.org/dc/elements/1.1/" xmlns:cc="http://creativecommons.org/ns#" xmlns:rdf="http://www.w3.org/1999/02/22-rdf-syntax-ns#">
   <cc:Work>
    <dc:type rdf:resource="http://purl.org/dc/dcmitype/StillImage"/>
    <dc:date>2022-05-23T10:01:47.338557</dc:date>
    <dc:format>image/svg+xml</dc:format>
    <dc:creator>
     <cc:Agent>
      <dc:title>omnetpp.scave 6.0.0; Matplotlib 3.5.1 w/ backend GTK3Agg; Pandas 1.4.2; Python 3.8.10; Linux-5.4.0-109-generic-x86_64-with-glibc2.29</dc:title>
     </cc:Agent>
    </dc:creator>
   </cc:Work>
  </rdf:RDF>
 </metadata>
 <defs>
  <style type="text/css">*{stroke-linejoin: round; stroke-linecap: butt}</style>
 </defs>
 <g id="figure_1">
  <g id="patch_1">
   <path d="M 0 288 
L 432 288 
L 432 0 
L 0 0 
z
" style="fill: #ffffff"/>
  </g>
  <g id="axes_1">
   <g id="patch_2">
    <path d="M 53.95625 246.7 
L 415.986609 246.7 
L 415.986609 25.8 
L 53.95625 25.8 
z
" style="fill: #ffffff"/>
   </g>
   <g id="matplotlib.axis_1">
    <g id="xtick_1">
     <g id="line2d_1">
      <path d="M 53.95625 246.7 
L 53.95625 25.8 
" clip-path="url(#pd7bc1a2698)" style="fill: none; stroke: #b0b0b0; stroke-width: 0.8; stroke-linecap: square"/>
     </g>
     <g id="line2d_2">
      <defs>
       <path id="mbd6d230b9c" d="M 0 0 
L 0 3.5 
" style="stroke: #000000; stroke-width: 0.8"/>
      </defs>
      <g>
       <use xlink:href="#mbd6d230b9c" x="53.95625" y="246.7" style="stroke: #000000; stroke-width: 0.8"/>
      </g>
     </g>
     <g id="text_1">
      <!-- 0 -->
      <g transform="translate(50.775 261.298437)scale(0.1 -0.1)">
       <defs>
        <path id="DejaVuSans-30" d="M 2034 4250 
Q 1547 4250 1301 3770 
Q 1056 3291 1056 2328 
Q 1056 1369 1301 889 
Q 1547 409 2034 409 
Q 2525 409 2770 889 
Q 3016 1369 3016 2328 
Q 3016 3291 2770 3770 
Q 2525 4250 2034 4250 
z
M 2034 4750 
Q 2819 4750 3233 4129 
Q 3647 3509 3647 2328 
Q 3647 1150 3233 529 
Q 2819 -91 2034 -91 
Q 1250 -91 836 529 
Q 422 1150 422 2328 
Q 422 3509 836 4129 
Q 1250 4750 2034 4750 
z
" transform="scale(0.015625)"/>
       </defs>
       <use xlink:href="#DejaVuSans-30"/>
      </g>
     </g>
    </g>
    <g id="xtick_2">
     <g id="line2d_3">
      <path d="M 98.67759 246.7 
L 98.67759 25.8 
" clip-path="url(#pd7bc1a2698)" style="fill: none; stroke: #b0b0b0; stroke-width: 0.8; stroke-linecap: square"/>
     </g>
     <g id="line2d_4">
      <g>
       <use xlink:href="#mbd6d230b9c" x="98.67759" y="246.7" style="stroke: #000000; stroke-width: 0.8"/>
      </g>
     </g>
     <g id="text_2">
      <!-- 25 -->
      <g transform="translate(92.31509 261.298437)scale(0.1 -0.1)">
       <defs>
        <path id="DejaVuSans-32" d="M 1228 531 
L 3431 531 
L 3431 0 
L 469 0 
L 469 531 
Q 828 903 1448 1529 
Q 2069 2156 2228 2338 
Q 2531 2678 2651 2914 
Q 2772 3150 2772 3378 
Q 2772 3750 2511 3984 
Q 2250 4219 1831 4219 
Q 1534 4219 1204 4116 
Q 875 4013 500 3803 
L 500 4441 
Q 881 4594 1212 4672 
Q 1544 4750 1819 4750 
Q 2544 4750 2975 4387 
Q 3406 4025 3406 3419 
Q 3406 3131 3298 2873 
Q 3191 2616 2906 2266 
Q 2828 2175 2409 1742 
Q 1991 1309 1228 531 
z
" transform="scale(0.015625)"/>
        <path id="DejaVuSans-35" d="M 691 4666 
L 3169 4666 
L 3169 4134 
L 1269 4134 
L 1269 2991 
Q 1406 3038 1543 3061 
Q 1681 3084 1819 3084 
Q 2600 3084 3056 2656 
Q 3513 2228 3513 1497 
Q 3513 744 3044 326 
Q 2575 -91 1722 -91 
Q 1428 -91 1123 -41 
Q 819 9 494 109 
L 494 744 
Q 775 591 1075 516 
Q 1375 441 1709 441 
Q 2250 441 2565 725 
Q 2881 1009 2881 1497 
Q 2881 1984 2565 2268 
Q 2250 2553 1709 2553 
Q 1456 2553 1204 2497 
Q 953 2441 691 2322 
L 691 4666 
z
" transform="scale(0.015625)"/>
       </defs>
       <use xlink:href="#DejaVuSans-32"/>
       <use xlink:href="#DejaVuSans-35" x="63.623047"/>
      </g>
     </g>
    </g>
    <g id="xtick_3">
     <g id="line2d_5">
      <path d="M 143.398931 246.7 
L 143.398931 25.8 
" clip-path="url(#pd7bc1a2698)" style="fill: none; stroke: #b0b0b0; stroke-width: 0.8; stroke-linecap: square"/>
     </g>
     <g id="line2d_6">
      <g>
       <use xlink:href="#mbd6d230b9c" x="143.398931" y="246.7" style="stroke: #000000; stroke-width: 0.8"/>
      </g>
     </g>
     <g id="text_3">
      <!-- 50 -->
      <g transform="translate(137.036431 261.298437)scale(0.1 -0.1)">
       <use xlink:href="#DejaVuSans-35"/>
       <use xlink:href="#DejaVuSans-30" x="63.623047"/>
      </g>
     </g>
    </g>
    <g id="xtick_4">
     <g id="line2d_7">
      <path d="M 188.120271 246.7 
L 188.120271 25.8 
" clip-path="url(#pd7bc1a2698)" style="fill: none; stroke: #b0b0b0; stroke-width: 0.8; stroke-linecap: square"/>
     </g>
     <g id="line2d_8">
      <g>
       <use xlink:href="#mbd6d230b9c" x="188.120271" y="246.7" style="stroke: #000000; stroke-width: 0.8"/>
      </g>
     </g>
     <g id="text_4">
      <!-- 75 -->
      <g transform="translate(181.757771 261.298437)scale(0.1 -0.1)">
       <defs>
        <path id="DejaVuSans-37" d="M 525 4666 
L 3525 4666 
L 3525 4397 
L 1831 0 
L 1172 0 
L 2766 4134 
L 525 4134 
L 525 4666 
z
" transform="scale(0.015625)"/>
       </defs>
       <use xlink:href="#DejaVuSans-37"/>
       <use xlink:href="#DejaVuSans-35" x="63.623047"/>
      </g>
     </g>
    </g>
    <g id="xtick_5">
     <g id="line2d_9">
      <path d="M 232.841612 246.7 
L 232.841612 25.8 
" clip-path="url(#pd7bc1a2698)" style="fill: none; stroke: #b0b0b0; stroke-width: 0.8; stroke-linecap: square"/>
     </g>
     <g id="line2d_10">
      <g>
       <use xlink:href="#mbd6d230b9c" x="232.841612" y="246.7" style="stroke: #000000; stroke-width: 0.8"/>
      </g>
     </g>
     <g id="text_5">
      <!-- 100 -->
      <g transform="translate(223.297862 261.298437)scale(0.1 -0.1)">
       <defs>
        <path id="DejaVuSans-31" d="M 794 531 
L 1825 531 
L 1825 4091 
L 703 3866 
L 703 4441 
L 1819 4666 
L 2450 4666 
L 2450 531 
L 3481 531 
L 3481 0 
L 794 0 
L 794 531 
z
" transform="scale(0.015625)"/>
       </defs>
       <use xlink:href="#DejaVuSans-31"/>
       <use xlink:href="#DejaVuSans-30" x="63.623047"/>
       <use xlink:href="#DejaVuSans-30" x="127.246094"/>
      </g>
     </g>
    </g>
    <g id="xtick_6">
     <g id="line2d_11">
      <path d="M 277.562952 246.7 
L 277.562952 25.8 
" clip-path="url(#pd7bc1a2698)" style="fill: none; stroke: #b0b0b0; stroke-width: 0.8; stroke-linecap: square"/>
     </g>
     <g id="line2d_12">
      <g>
       <use xlink:href="#mbd6d230b9c" x="277.562952" y="246.7" style="stroke: #000000; stroke-width: 0.8"/>
      </g>
     </g>
     <g id="text_6">
      <!-- 125 -->
      <g transform="translate(268.019202 261.298437)scale(0.1 -0.1)">
       <use xlink:href="#DejaVuSans-31"/>
       <use xlink:href="#DejaVuSans-32" x="63.623047"/>
       <use xlink:href="#DejaVuSans-35" x="127.246094"/>
      </g>
     </g>
    </g>
    <g id="xtick_7">
     <g id="line2d_13">
      <path d="M 322.284293 246.7 
L 322.284293 25.8 
" clip-path="url(#pd7bc1a2698)" style="fill: none; stroke: #b0b0b0; stroke-width: 0.8; stroke-linecap: square"/>
     </g>
     <g id="line2d_14">
      <g>
       <use xlink:href="#mbd6d230b9c" x="322.284293" y="246.7" style="stroke: #000000; stroke-width: 0.8"/>
      </g>
     </g>
     <g id="text_7">
      <!-- 150 -->
      <g transform="translate(312.740543 261.298437)scale(0.1 -0.1)">
       <use xlink:href="#DejaVuSans-31"/>
       <use xlink:href="#DejaVuSans-35" x="63.623047"/>
       <use xlink:href="#DejaVuSans-30" x="127.246094"/>
      </g>
     </g>
    </g>
    <g id="xtick_8">
     <g id="line2d_15">
      <path d="M 367.005633 246.7 
L 367.005633 25.8 
" clip-path="url(#pd7bc1a2698)" style="fill: none; stroke: #b0b0b0; stroke-width: 0.8; stroke-linecap: square"/>
     </g>
     <g id="line2d_16">
      <g>
       <use xlink:href="#mbd6d230b9c" x="367.005633" y="246.7" style="stroke: #000000; stroke-width: 0.8"/>
      </g>
     </g>
     <g id="text_8">
      <!-- 175 -->
      <g transform="translate(357.461883 261.298437)scale(0.1 -0.1)">
       <use xlink:href="#DejaVuSans-31"/>
       <use xlink:href="#DejaVuSans-37" x="63.623047"/>
       <use xlink:href="#DejaVuSans-35" x="127.246094"/>
      </g>
     </g>
    </g>
    <g id="xtick_9">
     <g id="line2d_17">
      <path d="M 411.726974 246.7 
L 411.726974 25.8 
" clip-path="url(#pd7bc1a2698)" style="fill: none; stroke: #b0b0b0; stroke-width: 0.8; stroke-linecap: square"/>
     </g>
     <g id="line2d_18">
      <g>
       <use xlink:href="#mbd6d230b9c" x="411.726974" y="246.7" style="stroke: #000000; stroke-width: 0.8"/>
      </g>
     </g>
     <g id="text_9">
      <!-- 200 -->
      <g transform="translate(402.183224 261.298437)scale(0.1 -0.1)">
       <use xlink:href="#DejaVuSans-32"/>
       <use xlink:href="#DejaVuSans-30" x="63.623047"/>
       <use xlink:href="#DejaVuSans-30" x="127.246094"/>
      </g>
     </g>
    </g>
    <g id="text_10">
     <!-- Tiempo -->
     <g transform="translate(216.504242 274.976562)scale(0.1 -0.1)">
      <defs>
       <path id="DejaVuSans-54" d="M -19 4666 
L 3928 4666 
L 3928 4134 
L 2272 4134 
L 2272 0 
L 1638 0 
L 1638 4134 
L -19 4134 
L -19 4666 
z
" transform="scale(0.015625)"/>
       <path id="DejaVuSans-69" d="M 603 3500 
L 1178 3500 
L 1178 0 
L 603 0 
L 603 3500 
z
M 603 4863 
L 1178 4863 
L 1178 4134 
L 603 4134 
L 603 4863 
z
" transform="scale(0.015625)"/>
       <path id="DejaVuSans-65" d="M 3597 1894 
L 3597 1613 
L 953 1613 
Q 991 1019 1311 708 
Q 1631 397 2203 397 
Q 2534 397 2845 478 
Q 3156 559 3463 722 
L 3463 178 
Q 3153 47 2828 -22 
Q 2503 -91 2169 -91 
Q 1331 -91 842 396 
Q 353 884 353 1716 
Q 353 2575 817 3079 
Q 1281 3584 2069 3584 
Q 2775 3584 3186 3129 
Q 3597 2675 3597 1894 
z
M 3022 2063 
Q 3016 2534 2758 2815 
Q 2500 3097 2075 3097 
Q 1594 3097 1305 2825 
Q 1016 2553 972 2059 
L 3022 2063 
z
" transform="scale(0.015625)"/>
       <path id="DejaVuSans-6d" d="M 3328 2828 
Q 3544 3216 3844 3400 
Q 4144 3584 4550 3584 
Q 5097 3584 5394 3201 
Q 5691 2819 5691 2113 
L 5691 0 
L 5113 0 
L 5113 2094 
Q 5113 2597 4934 2840 
Q 4756 3084 4391 3084 
Q 3944 3084 3684 2787 
Q 3425 2491 3425 1978 
L 3425 0 
L 2847 0 
L 2847 2094 
Q 2847 2600 2669 2842 
Q 2491 3084 2119 3084 
Q 1678 3084 1418 2786 
Q 1159 2488 1159 1978 
L 1159 0 
L 581 0 
L 581 3500 
L 1159 3500 
L 1159 2956 
Q 1356 3278 1631 3431 
Q 1906 3584 2284 3584 
Q 2666 3584 2933 3390 
Q 3200 3197 3328 2828 
z
" transform="scale(0.015625)"/>
       <path id="DejaVuSans-70" d="M 1159 525 
L 1159 -1331 
L 581 -1331 
L 581 3500 
L 1159 3500 
L 1159 2969 
Q 1341 3281 1617 3432 
Q 1894 3584 2278 3584 
Q 2916 3584 3314 3078 
Q 3713 2572 3713 1747 
Q 3713 922 3314 415 
Q 2916 -91 2278 -91 
Q 1894 -91 1617 61 
Q 1341 213 1159 525 
z
M 3116 1747 
Q 3116 2381 2855 2742 
Q 2594 3103 2138 3103 
Q 1681 3103 1420 2742 
Q 1159 2381 1159 1747 
Q 1159 1113 1420 752 
Q 1681 391 2138 391 
Q 2594 391 2855 752 
Q 3116 1113 3116 1747 
z
" transform="scale(0.015625)"/>
       <path id="DejaVuSans-6f" d="M 1959 3097 
Q 1497 3097 1228 2736 
Q 959 2375 959 1747 
Q 959 1119 1226 758 
Q 1494 397 1959 397 
Q 2419 397 2687 759 
Q 2956 1122 2956 1747 
Q 2956 2369 2687 2733 
Q 2419 3097 1959 3097 
z
M 1959 3584 
Q 2709 3584 3137 3096 
Q 3566 2609 3566 1747 
Q 3566 888 3137 398 
Q 2709 -91 1959 -91 
Q 1206 -91 779 398 
Q 353 888 353 1747 
Q 353 2609 779 3096 
Q 1206 3584 1959 3584 
z
" transform="scale(0.015625)"/>
      </defs>
      <use xlink:href="#DejaVuSans-54"/>
      <use xlink:href="#DejaVuSans-69" x="57.958984"/>
      <use xlink:href="#DejaVuSans-65" x="85.742188"/>
      <use xlink:href="#DejaVuSans-6d" x="147.265625"/>
      <use xlink:href="#DejaVuSans-70" x="244.677734"/>
      <use xlink:href="#DejaVuSans-6f" x="308.154297"/>
     </g>
    </g>
   </g>
   <g id="matplotlib.axis_2">
    <g id="ytick_1">
     <g id="line2d_19">
      <path d="M 53.95625 246.7 
L 415.986609 246.7 
" clip-path="url(#pd7bc1a2698)" style="fill: none; stroke: #b0b0b0; stroke-width: 0.8; stroke-linecap: square"/>
     </g>
     <g id="line2d_20">
      <defs>
       <path id="m4a02f5993b" d="M 0 0 
L -3.5 0 
" style="stroke: #000000; stroke-width: 0.8"/>
      </defs>
      <g>
       <use xlink:href="#m4a02f5993b" x="53.95625" y="246.7" style="stroke: #000000; stroke-width: 0.8"/>
      </g>
     </g>
     <g id="text_11">
      <!-- 0.00 -->
      <g transform="translate(24.690625 250.499219)scale(0.1 -0.1)">
       <defs>
        <path id="DejaVuSans-2e" d="M 684 794 
L 1344 794 
L 1344 0 
L 684 0 
L 684 794 
z
" transform="scale(0.015625)"/>
       </defs>
       <use xlink:href="#DejaVuSans-30"/>
       <use xlink:href="#DejaVuSans-2e" x="63.623047"/>
       <use xlink:href="#DejaVuSans-30" x="95.410156"/>
       <use xlink:href="#DejaVuSans-30" x="159.033203"/>
      </g>
     </g>
    </g>
    <g id="ytick_2">
     <g id="line2d_21">
      <path d="M 53.95625 216.414073 
L 415.986609 216.414073 
" clip-path="url(#pd7bc1a2698)" style="fill: none; stroke: #b0b0b0; stroke-width: 0.8; stroke-linecap: square"/>
     </g>
     <g id="line2d_22">
      <g>
       <use xlink:href="#m4a02f5993b" x="53.95625" y="216.414073" style="stroke: #000000; stroke-width: 0.8"/>
      </g>
     </g>
     <g id="text_12">
      <!-- 0.25 -->
      <g transform="translate(24.690625 220.213292)scale(0.1 -0.1)">
       <use xlink:href="#DejaVuSans-30"/>
       <use xlink:href="#DejaVuSans-2e" x="63.623047"/>
       <use xlink:href="#DejaVuSans-32" x="95.410156"/>
       <use xlink:href="#DejaVuSans-35" x="159.033203"/>
      </g>
     </g>
    </g>
    <g id="ytick_3">
     <g id="line2d_23">
      <path d="M 53.95625 186.128146 
L 415.986609 186.128146 
" clip-path="url(#pd7bc1a2698)" style="fill: none; stroke: #b0b0b0; stroke-width: 0.8; stroke-linecap: square"/>
     </g>
     <g id="line2d_24">
      <g>
       <use xlink:href="#m4a02f5993b" x="53.95625" y="186.128146" style="stroke: #000000; stroke-width: 0.8"/>
      </g>
     </g>
     <g id="text_13">
      <!-- 0.50 -->
      <g transform="translate(24.690625 189.927365)scale(0.1 -0.1)">
       <use xlink:href="#DejaVuSans-30"/>
       <use xlink:href="#DejaVuSans-2e" x="63.623047"/>
       <use xlink:href="#DejaVuSans-35" x="95.410156"/>
       <use xlink:href="#DejaVuSans-30" x="159.033203"/>
      </g>
     </g>
    </g>
    <g id="ytick_4">
     <g id="line2d_25">
      <path d="M 53.95625 155.842219 
L 415.986609 155.842219 
" clip-path="url(#pd7bc1a2698)" style="fill: none; stroke: #b0b0b0; stroke-width: 0.8; stroke-linecap: square"/>
     </g>
     <g id="line2d_26">
      <g>
       <use xlink:href="#m4a02f5993b" x="53.95625" y="155.842219" style="stroke: #000000; stroke-width: 0.8"/>
      </g>
     </g>
     <g id="text_14">
      <!-- 0.75 -->
      <g transform="translate(24.690625 159.641437)scale(0.1 -0.1)">
       <use xlink:href="#DejaVuSans-30"/>
       <use xlink:href="#DejaVuSans-2e" x="63.623047"/>
       <use xlink:href="#DejaVuSans-37" x="95.410156"/>
       <use xlink:href="#DejaVuSans-35" x="159.033203"/>
      </g>
     </g>
    </g>
    <g id="ytick_5">
     <g id="line2d_27">
      <path d="M 53.95625 125.556292 
L 415.986609 125.556292 
" clip-path="url(#pd7bc1a2698)" style="fill: none; stroke: #b0b0b0; stroke-width: 0.8; stroke-linecap: square"/>
     </g>
     <g id="line2d_28">
      <g>
       <use xlink:href="#m4a02f5993b" x="53.95625" y="125.556292" style="stroke: #000000; stroke-width: 0.8"/>
      </g>
     </g>
     <g id="text_15">
      <!-- 1.00 -->
      <g transform="translate(24.690625 129.35551)scale(0.1 -0.1)">
       <use xlink:href="#DejaVuSans-31"/>
       <use xlink:href="#DejaVuSans-2e" x="63.623047"/>
       <use xlink:href="#DejaVuSans-30" x="95.410156"/>
       <use xlink:href="#DejaVuSans-30" x="159.033203"/>
      </g>
     </g>
    </g>
    <g id="ytick_6">
     <g id="line2d_29">
      <path d="M 53.95625 95.270364 
L 415.986609 95.270364 
" clip-path="url(#pd7bc1a2698)" style="fill: none; stroke: #b0b0b0; stroke-width: 0.8; stroke-linecap: square"/>
     </g>
     <g id="line2d_30">
      <g>
       <use xlink:href="#m4a02f5993b" x="53.95625" y="95.270364" style="stroke: #000000; stroke-width: 0.8"/>
      </g>
     </g>
     <g id="text_16">
      <!-- 1.25 -->
      <g transform="translate(24.690625 99.069583)scale(0.1 -0.1)">
       <use xlink:href="#DejaVuSans-31"/>
       <use xlink:href="#DejaVuSans-2e" x="63.623047"/>
       <use xlink:href="#DejaVuSans-32" x="95.410156"/>
       <use xlink:href="#DejaVuSans-35" x="159.033203"/>
      </g>
     </g>
    </g>
    <g id="ytick_7">
     <g id="line2d_31">
      <path d="M 53.95625 64.984437 
L 415.986609 64.984437 
" clip-path="url(#pd7bc1a2698)" style="fill: none; stroke: #b0b0b0; stroke-width: 0.8; stroke-linecap: square"/>
     </g>
     <g id="line2d_32">
      <g>
       <use xlink:href="#m4a02f5993b" x="53.95625" y="64.984437" style="stroke: #000000; stroke-width: 0.8"/>
      </g>
     </g>
     <g id="text_17">
      <!-- 1.50 -->
      <g transform="translate(24.690625 68.783656)scale(0.1 -0.1)">
       <use xlink:href="#DejaVuSans-31"/>
       <use xlink:href="#DejaVuSans-2e" x="63.623047"/>
       <use xlink:href="#DejaVuSans-35" x="95.410156"/>
       <use xlink:href="#DejaVuSans-30" x="159.033203"/>
      </g>
     </g>
    </g>
    <g id="ytick_8">
     <g id="line2d_33">
      <path d="M 53.95625 34.69851 
L 415.986609 34.69851 
" clip-path="url(#pd7bc1a2698)" style="fill: none; stroke: #b0b0b0; stroke-width: 0.8; stroke-linecap: square"/>
     </g>
     <g id="line2d_34">
      <g>
       <use xlink:href="#m4a02f5993b" x="53.95625" y="34.69851" style="stroke: #000000; stroke-width: 0.8"/>
      </g>
     </g>
     <g id="text_18">
      <!-- 1.75 -->
      <g transform="translate(24.690625 38.497729)scale(0.1 -0.1)">
       <use xlink:href="#DejaVuSans-31"/>
       <use xlink:href="#DejaVuSans-2e" x="63.623047"/>
       <use xlink:href="#DejaVuSans-37" x="95.410156"/>
       <use xlink:href="#DejaVuSans-35" x="159.033203"/>
      </g>
     </g>
    </g>
    <g id="text_19">
     <!-- Tiempo -->
     <g transform="translate(18.610938 154.717187)rotate(-90)scale(0.1 -0.1)">
      <use xlink:href="#DejaVuSans-54"/>
      <use xlink:href="#DejaVuSans-69" x="57.958984"/>
      <use xlink:href="#DejaVuSans-65" x="85.742188"/>
      <use xlink:href="#DejaVuSans-6d" x="147.265625"/>
      <use xlink:href="#DejaVuSans-70" x="244.677734"/>
      <use xlink:href="#DejaVuSans-6f" x="308.154297"/>
     </g>
    </g>
   </g>
   <g id="line2d_35">
    <path d="M 55.09926 198.218288 
L 60.227025 198.218288 
L 60.584795 194.016363 
L 61.047065 198.218288 
L 61.604199 198.218288 
L 61.96197 191.620614 
L 62.319741 188.308031 
L 62.677511 176.914192 
L 63.556195 198.218288 
L 63.913966 176.111427 
L 65.366495 198.218288 
L 65.724266 185.559599 
L 66.082037 178.906463 
L 66.439807 178.280623 
L 66.987358 198.218288 
L 68.288687 198.218288 
L 68.646458 197.753674 
L 69.090084 198.218288 
L 69.447855 192.120108 
L 70.752176 198.218288 
L 71.722648 198.218288 
L 72.080419 176.667501 
L 72.43819 167.396785 
L 72.79596 146.481119 
L 73.153731 160.216847 
L 73.511502 136.730435 
L 73.869272 129.1922 
L 74.227043 169.926324 
L 75.499831 198.218288 
L 76.30792 198.218288 
L 76.66569 179.485746 
L 77.484026 198.218288 
L 80.642845 198.218288 
L 81.000615 197.311255 
L 81.848683 198.218288 
L 82.714847 198.218288 
L 83.072618 196.483369 
L 83.441423 198.218288 
L 84.864889 198.218288 
L 85.22266 178.564214 
L 85.616799 198.218288 
L 86.633094 198.218288 
L 86.990864 179.612904 
L 88.683112 198.218288 
L 89.841855 198.218288 
L 90.199626 178.058018 
L 90.557397 173.293402 
L 90.915167 172.385843 
L 91.630709 142.589953 
L 92.34625 196.748884 
L 92.704021 194.656093 
L 93.061792 179.296833 
L 93.419562 185.60847 
L 94.492875 133.129648 
L 94.850645 143.840482 
L 95.208416 125.504285 
L 95.566187 135.69235 
L 95.923957 120.601791 
L 96.281728 131.246009 
L 96.639499 124.772952 
L 97.099428 198.218288 
L 98.963799 198.218288 
L 99.32157 195.713499 
L 99.679341 187.676286 
L 100.037111 197.955133 
L 100.394882 194.606687 
L 101.590002 198.218288 
L 102.231901 198.218288 
L 102.947442 155.818348 
L 104.19976 198.218288 
L 105.953737 198.218288 
L 106.669278 165.156938 
L 107.027049 157.042879 
L 107.38482 137.830529 
L 107.74259 164.083922 
L 108.100361 153.627838 
L 108.458132 163.418487 
L 109.173673 145.678734 
L 109.531444 152.139126 
L 109.889215 129.334422 
L 110.246985 126.087443 
L 110.604756 138.415185 
L 112.112214 198.218288 
L 113.825728 198.218288 
L 114.183499 177.901341 
L 114.541269 192.117304 
L 114.89904 176.403809 
L 115.256811 188.809624 
L 115.614582 170.974128 
L 118.088815 198.218288 
L 119.124914 198.218288 
L 119.482685 184.604662 
L 119.840456 179.821836 
L 120.198226 178.414446 
L 120.555997 177.58271 
L 120.913768 163.540107 
L 121.271539 174.813646 
L 121.629309 156.876895 
L 121.98708 147.639732 
L 122.344851 127.661514 
L 123.060392 158.84053 
L 123.418163 148.478716 
L 123.775934 129.654641 
L 124.133704 160.181717 
L 124.491475 143.907777 
L 125.292599 198.218288 
L 125.65037 190.707885 
L 126.122422 198.218288 
L 127.045648 198.218288 
L 127.761189 153.969681 
L 128.11896 165.179178 
L 128.607709 198.218288 
L 129.208664 198.218288 
L 129.566435 177.661464 
L 131.180673 198.218288 
L 134.322447 198.218288 
L 134.680218 196.970626 
L 135.044207 198.218288 
L 137.063068 198.218288 
L 137.420839 176.072985 
L 137.778609 185.588042 
L 138.13638 183.163237 
L 138.635469 198.218288 
L 139.351011 151.94744 
L 139.708781 148.902313 
L 140.066552 136.754394 
L 141.247388 198.218288 
L 141.605158 178.643528 
L 141.962929 170.602716 
L 142.3207 159.136806 
L 142.678471 158.736291 
L 143.036241 139.100906 
L 143.394012 157.27998 
L 143.751783 146.959782 
L 144.134865 198.218288 
L 144.492636 193.428909 
L 145.765654 198.218288 
L 146.481195 161.05235 
L 146.838966 179.679026 
L 147.554507 191.876055 
L 148.535907 198.218288 
L 148.893677 185.198301 
L 149.251448 186.818524 
L 150.814551 198.218288 
L 151.172321 177.574805 
L 152.230762 198.218288 
L 152.691157 198.218288 
L 153.048927 177.143056 
L 154.159462 198.218288 
L 154.875003 175.52446 
L 155.232774 151.637371 
L 155.590545 167.416796 
L 156.127098 198.218288 
L 156.484869 179.125944 
L 156.842639 192.758754 
L 157.438173 198.218288 
L 158.426309 198.218288 
L 159.14185 173.353732 
L 159.499621 156.479035 
L 159.857391 150.683524 
L 160.215162 158.550441 
L 160.572933 163.570541 
L 161.288474 122.402204 
L 161.646245 162.345989 
L 162.004016 154.897985 
L 162.719557 112.366175 
L 163.077328 129.300883 
L 163.435099 135.712403 
L 163.792869 122.921626 
L 164.508411 166.967051 
L 164.866182 155.107569 
L 165.987218 198.218288 
L 166.344989 194.628951 
L 166.702759 180.795101 
L 167.202717 198.218288 
L 167.663379 198.218288 
L 168.021149 192.31897 
L 168.415199 198.218288 
L 170.632454 198.218288 
L 170.990225 183.163274 
L 171.960102 198.218288 
L 174.209705 198.218288 
L 174.925247 192.97289 
L 175.853195 198.218288 
L 178.560756 198.218288 
L 178.918527 178.478889 
L 179.276298 167.079998 
L 179.634068 195.796577 
L 180.500386 198.218288 
L 181.215927 187.402865 
L 181.660112 198.218288 
L 182.802921 198.218288 
L 183.160691 184.434937 
L 183.518462 191.844177 
L 183.876233 181.270955 
L 184.771652 198.218288 
L 191.417866 198.218288 
L 191.775637 183.513522 
L 192.133408 196.819838 
L 192.848949 186.657339 
L 193.20672 197.479842 
L 193.696195 198.218288 
L 194.053966 197.398316 
L 194.411737 173.873896 
L 194.769508 172.727672 
L 195.127278 161.543463 
L 195.84282 198.069395 
L 196.558361 174.407522 
L 196.916132 167.755607 
L 197.273903 178.50257 
L 197.724957 198.218288 
L 198.082728 194.340274 
L 199.156438 198.218288 
L 199.87198 158.996355 
L 200.22975 147.641221 
L 200.587521 126.934954 
L 200.945292 133.375746 
L 201.303063 125.029963 
L 201.660833 133.282118 
L 202.018604 138.220613 
L 202.376375 145.031787 
L 202.734146 122.046104 
L 203.091916 136.30506 
L 204.041239 198.218288 
L 204.607868 198.218288 
L 204.965638 188.059059 
L 205.323409 184.35002 
L 205.68118 169.210018 
L 206.470309 198.218288 
L 206.82808 179.524371 
L 207.18585 171.947058 
L 207.543621 151.436965 
L 207.901392 148.013258 
L 209.380626 198.218288 
L 210.57464 198.218288 
L 210.932411 184.94939 
L 211.617075 198.218288 
L 212.683462 198.218288 
L 213.041233 195.580026 
L 213.756775 154.772567 
L 214.467227 198.218288 
L 214.824998 189.775019 
L 215.372541 198.218288 
L 215.730311 197.011549 
L 219.34318 198.218288 
L 220.330484 198.218288 
L 220.688255 179.872409 
L 221.678589 198.218288 
L 222.765806 198.218288 
L 223.481347 157.596688 
L 223.839118 159.168573 
L 224.196889 169.682627 
L 224.91243 132.663132 
L 225.765696 198.218288 
L 227.723796 198.218288 
L 228.081567 193.2515 
L 228.460026 198.218288 
L 228.817796 179.469761 
L 229.175567 174.243744 
L 229.891109 129.619084 
L 231.051522 198.218288 
L 231.693061 198.218288 
L 232.050832 190.971686 
L 232.408603 188.705053 
L 232.766373 184.278115 
L 233.247627 198.218288 
L 233.605397 175.87621 
L 234.355653 198.218288 
L 234.713423 190.522459 
L 236.590757 198.218288 
L 236.948527 174.598939 
L 237.639031 198.218288 
L 237.996802 183.52341 
L 238.354573 159.722907 
L 238.712343 188.111509 
L 239.070114 180.100984 
L 240.350632 198.218288 
L 241.797236 198.218288 
L 242.155007 180.832772 
L 242.512778 171.67234 
L 242.870548 174.196894 
L 243.228319 174.407461 
L 243.58609 152.20921 
L 243.943861 143.025751 
L 244.659402 109.867581 
L 245.374944 68.904572 
L 245.732714 102.040261 
L 246.090485 100.438645 
L 246.448256 85.42309 
L 246.806026 136.643779 
L 247.163797 127.812055 
L 247.67216 198.218288 
L 250.729017 198.218288 
L 251.086788 175.165493 
L 251.567911 198.218288 
L 251.925682 180.529756 
L 252.283453 181.494052 
L 252.641224 192.571995 
L 252.998994 170.221571 
L 253.356765 177.281474 
L 253.714536 196.699753 
L 254.072306 182.344275 
L 256.456321 198.218288 
L 257.916749 198.218288 
L 258.27452 185.291084 
L 258.632291 195.654797 
L 259.204399 198.218288 
L 264.406221 198.218288 
L 264.763991 187.577745 
L 265.121762 192.713514 
L 265.479533 186.942171 
L 267.268386 108.638538 
L 267.626157 189.407796 
L 267.983928 195.815527 
L 268.670437 198.218288 
L 269.028207 195.856433 
L 269.385978 196.131838 
L 271.241235 198.218288 
L 271.599006 183.366533 
L 271.992098 198.218288 
L 272.349869 184.656528 
L 273.423181 119.493604 
L 273.780951 115.976713 
L 274.138722 116.065647 
L 274.496493 105.417229 
L 274.854264 158.550984 
L 275.212034 177.638075 
L 276.918826 198.218288 
L 277.276596 191.231311 
L 277.689386 198.218288 
L 278.047157 181.18431 
L 278.404928 185.375 
L 278.762699 162.054413 
L 279.263555 198.218288 
L 279.621326 176.519669 
L 280.031805 198.218288 
L 280.642272 198.218288 
L 281.000043 197.657298 
L 281.357814 195.40092 
L 281.922823 198.218288 
L 287.217942 198.218288 
L 287.575713 197.028536 
L 287.933484 181.685359 
L 288.291255 179.583501 
L 288.649025 194.892592 
L 289.871211 198.218288 
L 290.228982 185.09618 
L 291.302294 127.994414 
L 292.172589 198.218288 
L 292.53036 188.006637 
L 293.639555 198.218288 
L 293.997326 191.566471 
L 294.456071 198.218288 
L 294.932355 198.218288 
L 295.290125 188.256872 
L 296.097283 198.218288 
L 297.022946 198.218288 
L 297.380717 173.991558 
L 298.128928 198.218288 
L 298.844469 174.958864 
L 299.20224 170.870415 
L 299.65691 198.218288 
L 300.81918 198.218288 
L 301.176951 181.452523 
L 301.540664 198.218288 
L 303.179174 198.218288 
L 303.536945 196.124123 
L 304.130213 198.218288 
L 304.487984 197.994284 
L 304.845755 182.586688 
L 305.449252 198.218288 
L 307.029425 198.218288 
L 307.387196 183.46202 
L 307.873665 198.218288 
L 309.01285 198.218288 
L 310.086162 158.579012 
L 311.195108 198.218288 
L 311.586989 198.218288 
L 311.94476 197.183307 
L 312.30253 173.899404 
L 312.660301 194.857899 
L 313.375843 160.915843 
L 313.733613 156.778968 
L 314.091384 180.195043 
L 314.449155 172.999463 
L 314.806925 186.538689 
L 315.164696 184.945503 
L 316.238008 140.370445 
L 316.595779 148.261225 
L 316.95355 183.928701 
L 317.812658 198.218288 
L 318.550388 198.218288 
L 318.908159 178.53362 
L 319.265929 195.134929 
L 319.6237 197.383012 
L 319.981471 184.936675 
L 320.697012 148.614283 
L 321.412554 190.31723 
L 321.770325 184.415591 
L 322.128095 182.793607 
L 322.485866 188.852424 
L 323.332471 198.218288 
L 324.763554 129.231301 
L 325.121325 129.335748 
L 325.479096 109.95302 
L 325.836866 101.695455 
L 326.194637 124.001319 
L 326.612433 198.218288 
L 326.970204 175.113504 
L 327.406942 198.218288 
L 328.885594 198.218288 
L 329.243365 177.520922 
L 330.193779 198.218288 
L 330.551549 182.900808 
L 330.90932 161.837863 
L 331.267091 187.883148 
L 331.624862 192.852163 
L 332.251662 198.218288 
L 332.722962 198.218288 
L 333.080732 175.686324 
L 334.502075 198.218288 
L 335.217617 170.846186 
L 335.933158 144.69184 
L 336.290929 161.564196 
L 337.364241 95.687439 
L 337.722012 100.938087 
L 338.079783 173.111578 
L 338.437553 149.22021 
L 338.795324 165.274529 
L 339.269473 198.218288 
L 342.325085 198.218288 
L 342.682856 186.015841 
L 343.155078 198.218288 
L 343.628881 198.218288 
L 344.344423 159.447487 
L 344.702193 161.322058 
L 345.059964 161.254499 
L 345.417735 168.59214 
L 347.01635 198.218288 
L 349.470575 198.218288 
L 349.828345 188.989434 
L 350.186116 173.71621 
L 351.573229 198.218288 
L 351.931 196.059966 
L 352.28877 181.410437 
L 353.173401 198.218288 
L 361.232216 198.218288 
L 361.589986 186.591641 
L 362.417251 198.218288 
L 363.431586 198.218288 
L 363.789357 181.843155 
L 364.147127 192.576921 
L 364.860353 198.218288 
L 365.218123 174.473827 
L 366.831481 198.218288 
L 367.189252 189.491185 
L 368.124438 198.218288 
L 368.482209 179.816586 
L 369.02409 198.218288 
L 373.429934 198.218288 
L 373.787705 197.641547 
L 374.53087 198.218288 
L 374.900059 198.218288 
L 375.25783 174.136966 
L 375.6156 186.984998 
L 375.973371 174.167917 
L 376.331142 166.649423 
L 376.688912 161.626825 
L 377.046683 142.7487 
L 377.404454 138.836037 
L 377.762225 177.358526 
L 378.119995 165.980585 
L 378.477766 149.403278 
L 378.835537 143.808182 
L 379.193308 145.602756 
L 379.908849 111.049843 
L 380.740208 198.218288 
L 381.097979 177.731737 
L 381.45575 172.440622 
L 382.138701 198.218288 
L 384.527398 198.218288 
L 384.885169 189.289753 
L 386.492073 198.218288 
L 388.598814 198.218288 
L 388.956585 193.25 
L 389.681459 198.218288 
L 390.754771 174.970437 
L 391.112542 153.815577 
L 391.470313 142.644694 
L 391.828084 137.422225 
L 392.185854 167.440382 
L 392.543625 152.816051 
L 393.272031 198.218288 
L 393.629802 179.15483 
L 393.987573 169.22719 
L 394.345343 146.993954 
L 395.228355 198.218288 
L 395.92233 198.218288 
L 396.637872 150.689002 
L 396.995642 154.16911 
L 397.353413 183.44485 
L 397.711184 172.417461 
L 398.068955 153.964846 
L 398.566289 198.218288 
L 398.92406 177.001019 
L 399.28183 163.257727 
L 399.639601 142.440679 
L 400.913881 198.218288 
L 401.271652 184.221005 
L 401.987193 176.160791 
L 402.410049 198.218288 
L 404.854354 198.218288 
L 405.212125 191.306261 
L 405.806878 198.218288 
L 406.164649 177.679611 
L 406.88019 151.430019 
L 407.237961 132.324489 
L 407.595732 140.67114 
L 407.953502 118.51274 
L 408.311273 117.804341 
L 408.669044 106.621371 
L 409.026815 106.717179 
L 409.384585 93.53571 
L 410.100127 89.50781 
L 410.457897 92.303196 
L 410.815668 109.859635 
L 411.173439 106.834329 
L 411.53121 125.835584 
L 411.53121 125.835584 
" clip-path="url(#pd7bc1a2698)" style="fill: none; stroke: #1f77b4; stroke-width: 1.5; stroke-linecap: square"/>
   </g>
   <g id="patch_3">
    <path d="M 53.95625 246.7 
L 53.95625 25.8 
" style="fill: none; stroke: #000000; stroke-width: 0.8; stroke-linejoin: miter; stroke-linecap: square"/>
   </g>
   <g id="patch_4">
    <path d="M 415.986609 246.7 
L 415.986609 25.8 
" style="fill: none; stroke: #000000; stroke-width: 0.8; stroke-linejoin: miter; stroke-linecap: square"/>
   </g>
   <g id="patch_5">
    <path d="M 53.95625 246.7 
L 415.986609 246.7 
" style="fill: none; stroke: #000000; stroke-width: 0.8; stroke-linejoin: miter; stroke-linecap: square"/>
   </g>
   <g id="patch_6">
    <path d="M 53.95625 25.8 
L 415.986609 25.8 
" style="fill: none; stroke: #000000; stroke-width: 0.8; stroke-linejoin: miter; stroke-linecap: square"/>
   </g>
   <g id="text_20">
    <!-- Retraso en paquetes recibidos -->
    <g transform="translate(143.84268 19.8)scale(0.12 -0.12)">
     <defs>
      <path id="DejaVuSans-52" d="M 2841 2188 
Q 3044 2119 3236 1894 
Q 3428 1669 3622 1275 
L 4263 0 
L 3584 0 
L 2988 1197 
Q 2756 1666 2539 1819 
Q 2322 1972 1947 1972 
L 1259 1972 
L 1259 0 
L 628 0 
L 628 4666 
L 2053 4666 
Q 2853 4666 3247 4331 
Q 3641 3997 3641 3322 
Q 3641 2881 3436 2590 
Q 3231 2300 2841 2188 
z
M 1259 4147 
L 1259 2491 
L 2053 2491 
Q 2509 2491 2742 2702 
Q 2975 2913 2975 3322 
Q 2975 3731 2742 3939 
Q 2509 4147 2053 4147 
L 1259 4147 
z
" transform="scale(0.015625)"/>
      <path id="DejaVuSans-74" d="M 1172 4494 
L 1172 3500 
L 2356 3500 
L 2356 3053 
L 1172 3053 
L 1172 1153 
Q 1172 725 1289 603 
Q 1406 481 1766 481 
L 2356 481 
L 2356 0 
L 1766 0 
Q 1100 0 847 248 
Q 594 497 594 1153 
L 594 3053 
L 172 3053 
L 172 3500 
L 594 3500 
L 594 4494 
L 1172 4494 
z
" transform="scale(0.015625)"/>
      <path id="DejaVuSans-72" d="M 2631 2963 
Q 2534 3019 2420 3045 
Q 2306 3072 2169 3072 
Q 1681 3072 1420 2755 
Q 1159 2438 1159 1844 
L 1159 0 
L 581 0 
L 581 3500 
L 1159 3500 
L 1159 2956 
Q 1341 3275 1631 3429 
Q 1922 3584 2338 3584 
Q 2397 3584 2469 3576 
Q 2541 3569 2628 3553 
L 2631 2963 
z
" transform="scale(0.015625)"/>
      <path id="DejaVuSans-61" d="M 2194 1759 
Q 1497 1759 1228 1600 
Q 959 1441 959 1056 
Q 959 750 1161 570 
Q 1363 391 1709 391 
Q 2188 391 2477 730 
Q 2766 1069 2766 1631 
L 2766 1759 
L 2194 1759 
z
M 3341 1997 
L 3341 0 
L 2766 0 
L 2766 531 
Q 2569 213 2275 61 
Q 1981 -91 1556 -91 
Q 1019 -91 701 211 
Q 384 513 384 1019 
Q 384 1609 779 1909 
Q 1175 2209 1959 2209 
L 2766 2209 
L 2766 2266 
Q 2766 2663 2505 2880 
Q 2244 3097 1772 3097 
Q 1472 3097 1187 3025 
Q 903 2953 641 2809 
L 641 3341 
Q 956 3463 1253 3523 
Q 1550 3584 1831 3584 
Q 2591 3584 2966 3190 
Q 3341 2797 3341 1997 
z
" transform="scale(0.015625)"/>
      <path id="DejaVuSans-73" d="M 2834 3397 
L 2834 2853 
Q 2591 2978 2328 3040 
Q 2066 3103 1784 3103 
Q 1356 3103 1142 2972 
Q 928 2841 928 2578 
Q 928 2378 1081 2264 
Q 1234 2150 1697 2047 
L 1894 2003 
Q 2506 1872 2764 1633 
Q 3022 1394 3022 966 
Q 3022 478 2636 193 
Q 2250 -91 1575 -91 
Q 1294 -91 989 -36 
Q 684 19 347 128 
L 347 722 
Q 666 556 975 473 
Q 1284 391 1588 391 
Q 1994 391 2212 530 
Q 2431 669 2431 922 
Q 2431 1156 2273 1281 
Q 2116 1406 1581 1522 
L 1381 1569 
Q 847 1681 609 1914 
Q 372 2147 372 2553 
Q 372 3047 722 3315 
Q 1072 3584 1716 3584 
Q 2034 3584 2315 3537 
Q 2597 3491 2834 3397 
z
" transform="scale(0.015625)"/>
      <path id="DejaVuSans-20" transform="scale(0.015625)"/>
      <path id="DejaVuSans-6e" d="M 3513 2113 
L 3513 0 
L 2938 0 
L 2938 2094 
Q 2938 2591 2744 2837 
Q 2550 3084 2163 3084 
Q 1697 3084 1428 2787 
Q 1159 2491 1159 1978 
L 1159 0 
L 581 0 
L 581 3500 
L 1159 3500 
L 1159 2956 
Q 1366 3272 1645 3428 
Q 1925 3584 2291 3584 
Q 2894 3584 3203 3211 
Q 3513 2838 3513 2113 
z
" transform="scale(0.015625)"/>
      <path id="DejaVuSans-71" d="M 947 1747 
Q 947 1113 1208 752 
Q 1469 391 1925 391 
Q 2381 391 2643 752 
Q 2906 1113 2906 1747 
Q 2906 2381 2643 2742 
Q 2381 3103 1925 3103 
Q 1469 3103 1208 2742 
Q 947 2381 947 1747 
z
M 2906 525 
Q 2725 213 2448 61 
Q 2172 -91 1784 -91 
Q 1150 -91 751 415 
Q 353 922 353 1747 
Q 353 2572 751 3078 
Q 1150 3584 1784 3584 
Q 2172 3584 2448 3432 
Q 2725 3281 2906 2969 
L 2906 3500 
L 3481 3500 
L 3481 -1331 
L 2906 -1331 
L 2906 525 
z
" transform="scale(0.015625)"/>
      <path id="DejaVuSans-75" d="M 544 1381 
L 544 3500 
L 1119 3500 
L 1119 1403 
Q 1119 906 1312 657 
Q 1506 409 1894 409 
Q 2359 409 2629 706 
Q 2900 1003 2900 1516 
L 2900 3500 
L 3475 3500 
L 3475 0 
L 2900 0 
L 2900 538 
Q 2691 219 2414 64 
Q 2138 -91 1772 -91 
Q 1169 -91 856 284 
Q 544 659 544 1381 
z
M 1991 3584 
L 1991 3584 
z
" transform="scale(0.015625)"/>
      <path id="DejaVuSans-63" d="M 3122 3366 
L 3122 2828 
Q 2878 2963 2633 3030 
Q 2388 3097 2138 3097 
Q 1578 3097 1268 2742 
Q 959 2388 959 1747 
Q 959 1106 1268 751 
Q 1578 397 2138 397 
Q 2388 397 2633 464 
Q 2878 531 3122 666 
L 3122 134 
Q 2881 22 2623 -34 
Q 2366 -91 2075 -91 
Q 1284 -91 818 406 
Q 353 903 353 1747 
Q 353 2603 823 3093 
Q 1294 3584 2113 3584 
Q 2378 3584 2631 3529 
Q 2884 3475 3122 3366 
z
" transform="scale(0.015625)"/>
      <path id="DejaVuSans-62" d="M 3116 1747 
Q 3116 2381 2855 2742 
Q 2594 3103 2138 3103 
Q 1681 3103 1420 2742 
Q 1159 2381 1159 1747 
Q 1159 1113 1420 752 
Q 1681 391 2138 391 
Q 2594 391 2855 752 
Q 3116 1113 3116 1747 
z
M 1159 2969 
Q 1341 3281 1617 3432 
Q 1894 3584 2278 3584 
Q 2916 3584 3314 3078 
Q 3713 2572 3713 1747 
Q 3713 922 3314 415 
Q 2916 -91 2278 -91 
Q 1894 -91 1617 61 
Q 1341 213 1159 525 
L 1159 0 
L 581 0 
L 581 4863 
L 1159 4863 
L 1159 2969 
z
" transform="scale(0.015625)"/>
      <path id="DejaVuSans-64" d="M 2906 2969 
L 2906 4863 
L 3481 4863 
L 3481 0 
L 2906 0 
L 2906 525 
Q 2725 213 2448 61 
Q 2172 -91 1784 -91 
Q 1150 -91 751 415 
Q 353 922 353 1747 
Q 353 2572 751 3078 
Q 1150 3584 1784 3584 
Q 2172 3584 2448 3432 
Q 2725 3281 2906 2969 
z
M 947 1747 
Q 947 1113 1208 752 
Q 1469 391 1925 391 
Q 2381 391 2643 752 
Q 2906 1113 2906 1747 
Q 2906 2381 2643 2742 
Q 2381 3103 1925 3103 
Q 1469 3103 1208 2742 
Q 947 2381 947 1747 
z
" transform="scale(0.015625)"/>
     </defs>
     <use xlink:href="#DejaVuSans-52"/>
     <use xlink:href="#DejaVuSans-65" x="64.982422"/>
     <use xlink:href="#DejaVuSans-74" x="126.505859"/>
     <use xlink:href="#DejaVuSans-72" x="165.714844"/>
     <use xlink:href="#DejaVuSans-61" x="206.828125"/>
     <use xlink:href="#DejaVuSans-73" x="268.107422"/>
     <use xlink:href="#DejaVuSans-6f" x="320.207031"/>
     <use xlink:href="#DejaVuSans-20" x="381.388672"/>
     <use xlink:href="#DejaVuSans-65" x="413.175781"/>
     <use xlink:href="#DejaVuSans-6e" x="474.699219"/>
     <use xlink:href="#DejaVuSans-20" x="538.078125"/>
     <use xlink:href="#DejaVuSans-70" x="569.865234"/>
     <use xlink:href="#DejaVuSans-61" x="633.341797"/>
     <use xlink:href="#DejaVuSans-71" x="694.621094"/>
     <use xlink:href="#DejaVuSans-75" x="758.097656"/>
     <use xlink:href="#DejaVuSans-65" x="821.476562"/>
     <use xlink:href="#DejaVuSans-74" x="883"/>
     <use xlink:href="#DejaVuSans-65" x="922.208984"/>
     <use xlink:href="#DejaVuSans-73" x="983.732422"/>
     <use xlink:href="#DejaVuSans-20" x="1035.832031"/>
     <use xlink:href="#DejaVuSans-72" x="1067.619141"/>
     <use xlink:href="#DejaVuSans-65" x="1106.482422"/>
     <use xlink:href="#DejaVuSans-63" x="1168.005859"/>
     <use xlink:href="#DejaVuSans-69" x="1222.986328"/>
     <use xlink:href="#DejaVuSans-62" x="1250.769531"/>
     <use xlink:href="#DejaVuSans-69" x="1314.246094"/>
     <use xlink:href="#DejaVuSans-64" x="1342.029297"/>
     <use xlink:href="#DejaVuSans-6f" x="1405.505859"/>
     <use xlink:href="#DejaVuSans-73" x="1466.6875"/>
    </g>
   </g>
  </g>
 </g>
 <defs>
  <clipPath id="pd7bc1a2698">
   <rect x="53.95625" y="25.8" width="362.030359" height="220.9"/>
  </clipPath>
 </defs>
</svg>
