<?xml version="1.0" encoding="utf-8" standalone="no"?>
<!DOCTYPE svg PUBLIC "-//W3C//DTD SVG 1.1//EN"
  "http://www.w3.org/Graphics/SVG/1.1/DTD/svg11.dtd">
<svg xmlns:xlink="http://www.w3.org/1999/xlink" width="432pt" height="288pt" viewBox="0 0 432 288" xmlns="http://www.w3.org/2000/svg" version="1.1">
 <metadata>
  <rdf:RDF xmlns:dc="http://purl.org/dc/elements/1.1/" xmlns:cc="http://creativecommons.org/ns#" xmlns:rdf="http://www.w3.org/1999/02/22-rdf-syntax-ns#">
   <cc:Work>
    <dc:type rdf:resource="http://purl.org/dc/dcmitype/StillImage"/>
    <dc:date>2022-05-19T10:29:17.111759</dc:date>
    <dc:format>image/svg+xml</dc:format>
    <dc:creator>
     <cc:Agent>
      <dc:title>omnetpp.scave 6.0.0; Matplotlib 3.5.1 w/ backend GTK3Agg; Pandas 1.4.2; Python 3.8.10; Linux-5.4.0-109-generic-x86_64-with-glibc2.29</dc:title>
     </cc:Agent>
    </dc:creator>
   </cc:Work>
  </rdf:RDF>
 </metadata>
 <defs>
  <style type="text/css">*{stroke-linejoin: round; stroke-linecap: butt}</style>
 </defs>
 <g id="figure_1">
  <g id="patch_1">
   <path d="M 0 288 
L 432 288 
L 432 0 
L 0 0 
z
" style="fill: #ffffff"/>
  </g>
  <g id="axes_1">
   <g id="patch_2">
    <path d="M 37.01875 260.45 
L 416.158037 260.45 
L 416.158037 25.8 
L 37.01875 25.8 
z
" style="fill: #ffffff"/>
   </g>
   <g id="matplotlib.axis_1">
    <g id="xtick_1">
     <g id="line2d_1">
      <path d="M 37.01875 260.45 
L 37.01875 25.8 
" clip-path="url(#pccfca6d9ec)" style="fill: none; stroke: #b0b0b0; stroke-width: 0.8; stroke-linecap: square"/>
     </g>
     <g id="line2d_2">
      <defs>
       <path id="m8b2f281a67" d="M 0 0 
L 0 3.5 
" style="stroke: #000000; stroke-width: 0.8"/>
      </defs>
      <g>
       <use xlink:href="#m8b2f281a67" x="37.01875" y="260.45" style="stroke: #000000; stroke-width: 0.8"/>
      </g>
     </g>
     <g id="text_1">
      <!-- 0 -->
      <g transform="translate(33.8375 275.048437)scale(0.1 -0.1)">
       <defs>
        <path id="DejaVuSans-30" d="M 2034 4250 
Q 1547 4250 1301 3770 
Q 1056 3291 1056 2328 
Q 1056 1369 1301 889 
Q 1547 409 2034 409 
Q 2525 409 2770 889 
Q 3016 1369 3016 2328 
Q 3016 3291 2770 3770 
Q 2525 4250 2034 4250 
z
M 2034 4750 
Q 2819 4750 3233 4129 
Q 3647 3509 3647 2328 
Q 3647 1150 3233 529 
Q 2819 -91 2034 -91 
Q 1250 -91 836 529 
Q 422 1150 422 2328 
Q 422 3509 836 4129 
Q 1250 4750 2034 4750 
z
" transform="scale(0.015625)"/>
       </defs>
       <use xlink:href="#DejaVuSans-30"/>
      </g>
     </g>
    </g>
    <g id="xtick_2">
     <g id="line2d_3">
      <path d="M 83.852386 260.45 
L 83.852386 25.8 
" clip-path="url(#pccfca6d9ec)" style="fill: none; stroke: #b0b0b0; stroke-width: 0.8; stroke-linecap: square"/>
     </g>
     <g id="line2d_4">
      <g>
       <use xlink:href="#m8b2f281a67" x="83.852386" y="260.45" style="stroke: #000000; stroke-width: 0.8"/>
      </g>
     </g>
     <g id="text_2">
      <!-- 25 -->
      <g transform="translate(77.489886 275.048437)scale(0.1 -0.1)">
       <defs>
        <path id="DejaVuSans-32" d="M 1228 531 
L 3431 531 
L 3431 0 
L 469 0 
L 469 531 
Q 828 903 1448 1529 
Q 2069 2156 2228 2338 
Q 2531 2678 2651 2914 
Q 2772 3150 2772 3378 
Q 2772 3750 2511 3984 
Q 2250 4219 1831 4219 
Q 1534 4219 1204 4116 
Q 875 4013 500 3803 
L 500 4441 
Q 881 4594 1212 4672 
Q 1544 4750 1819 4750 
Q 2544 4750 2975 4387 
Q 3406 4025 3406 3419 
Q 3406 3131 3298 2873 
Q 3191 2616 2906 2266 
Q 2828 2175 2409 1742 
Q 1991 1309 1228 531 
z
" transform="scale(0.015625)"/>
        <path id="DejaVuSans-35" d="M 691 4666 
L 3169 4666 
L 3169 4134 
L 1269 4134 
L 1269 2991 
Q 1406 3038 1543 3061 
Q 1681 3084 1819 3084 
Q 2600 3084 3056 2656 
Q 3513 2228 3513 1497 
Q 3513 744 3044 326 
Q 2575 -91 1722 -91 
Q 1428 -91 1123 -41 
Q 819 9 494 109 
L 494 744 
Q 775 591 1075 516 
Q 1375 441 1709 441 
Q 2250 441 2565 725 
Q 2881 1009 2881 1497 
Q 2881 1984 2565 2268 
Q 2250 2553 1709 2553 
Q 1456 2553 1204 2497 
Q 953 2441 691 2322 
L 691 4666 
z
" transform="scale(0.015625)"/>
       </defs>
       <use xlink:href="#DejaVuSans-32"/>
       <use xlink:href="#DejaVuSans-35" x="63.623047"/>
      </g>
     </g>
    </g>
    <g id="xtick_3">
     <g id="line2d_5">
      <path d="M 130.686022 260.45 
L 130.686022 25.8 
" clip-path="url(#pccfca6d9ec)" style="fill: none; stroke: #b0b0b0; stroke-width: 0.8; stroke-linecap: square"/>
     </g>
     <g id="line2d_6">
      <g>
       <use xlink:href="#m8b2f281a67" x="130.686022" y="260.45" style="stroke: #000000; stroke-width: 0.8"/>
      </g>
     </g>
     <g id="text_3">
      <!-- 50 -->
      <g transform="translate(124.323522 275.048437)scale(0.1 -0.1)">
       <use xlink:href="#DejaVuSans-35"/>
       <use xlink:href="#DejaVuSans-30" x="63.623047"/>
      </g>
     </g>
    </g>
    <g id="xtick_4">
     <g id="line2d_7">
      <path d="M 177.519658 260.45 
L 177.519658 25.8 
" clip-path="url(#pccfca6d9ec)" style="fill: none; stroke: #b0b0b0; stroke-width: 0.8; stroke-linecap: square"/>
     </g>
     <g id="line2d_8">
      <g>
       <use xlink:href="#m8b2f281a67" x="177.519658" y="260.45" style="stroke: #000000; stroke-width: 0.8"/>
      </g>
     </g>
     <g id="text_4">
      <!-- 75 -->
      <g transform="translate(171.157158 275.048437)scale(0.1 -0.1)">
       <defs>
        <path id="DejaVuSans-37" d="M 525 4666 
L 3525 4666 
L 3525 4397 
L 1831 0 
L 1172 0 
L 2766 4134 
L 525 4134 
L 525 4666 
z
" transform="scale(0.015625)"/>
       </defs>
       <use xlink:href="#DejaVuSans-37"/>
       <use xlink:href="#DejaVuSans-35" x="63.623047"/>
      </g>
     </g>
    </g>
    <g id="xtick_5">
     <g id="line2d_9">
      <path d="M 224.353294 260.45 
L 224.353294 25.8 
" clip-path="url(#pccfca6d9ec)" style="fill: none; stroke: #b0b0b0; stroke-width: 0.8; stroke-linecap: square"/>
     </g>
     <g id="line2d_10">
      <g>
       <use xlink:href="#m8b2f281a67" x="224.353294" y="260.45" style="stroke: #000000; stroke-width: 0.8"/>
      </g>
     </g>
     <g id="text_5">
      <!-- 100 -->
      <g transform="translate(214.809544 275.048437)scale(0.1 -0.1)">
       <defs>
        <path id="DejaVuSans-31" d="M 794 531 
L 1825 531 
L 1825 4091 
L 703 3866 
L 703 4441 
L 1819 4666 
L 2450 4666 
L 2450 531 
L 3481 531 
L 3481 0 
L 794 0 
L 794 531 
z
" transform="scale(0.015625)"/>
       </defs>
       <use xlink:href="#DejaVuSans-31"/>
       <use xlink:href="#DejaVuSans-30" x="63.623047"/>
       <use xlink:href="#DejaVuSans-30" x="127.246094"/>
      </g>
     </g>
    </g>
    <g id="xtick_6">
     <g id="line2d_11">
      <path d="M 271.18693 260.45 
L 271.18693 25.8 
" clip-path="url(#pccfca6d9ec)" style="fill: none; stroke: #b0b0b0; stroke-width: 0.8; stroke-linecap: square"/>
     </g>
     <g id="line2d_12">
      <g>
       <use xlink:href="#m8b2f281a67" x="271.18693" y="260.45" style="stroke: #000000; stroke-width: 0.8"/>
      </g>
     </g>
     <g id="text_6">
      <!-- 125 -->
      <g transform="translate(261.64318 275.048437)scale(0.1 -0.1)">
       <use xlink:href="#DejaVuSans-31"/>
       <use xlink:href="#DejaVuSans-32" x="63.623047"/>
       <use xlink:href="#DejaVuSans-35" x="127.246094"/>
      </g>
     </g>
    </g>
    <g id="xtick_7">
     <g id="line2d_13">
      <path d="M 318.020566 260.45 
L 318.020566 25.8 
" clip-path="url(#pccfca6d9ec)" style="fill: none; stroke: #b0b0b0; stroke-width: 0.8; stroke-linecap: square"/>
     </g>
     <g id="line2d_14">
      <g>
       <use xlink:href="#m8b2f281a67" x="318.020566" y="260.45" style="stroke: #000000; stroke-width: 0.8"/>
      </g>
     </g>
     <g id="text_7">
      <!-- 150 -->
      <g transform="translate(308.476816 275.048437)scale(0.1 -0.1)">
       <use xlink:href="#DejaVuSans-31"/>
       <use xlink:href="#DejaVuSans-35" x="63.623047"/>
       <use xlink:href="#DejaVuSans-30" x="127.246094"/>
      </g>
     </g>
    </g>
    <g id="xtick_8">
     <g id="line2d_15">
      <path d="M 364.854202 260.45 
L 364.854202 25.8 
" clip-path="url(#pccfca6d9ec)" style="fill: none; stroke: #b0b0b0; stroke-width: 0.8; stroke-linecap: square"/>
     </g>
     <g id="line2d_16">
      <g>
       <use xlink:href="#m8b2f281a67" x="364.854202" y="260.45" style="stroke: #000000; stroke-width: 0.8"/>
      </g>
     </g>
     <g id="text_8">
      <!-- 175 -->
      <g transform="translate(355.310452 275.048437)scale(0.1 -0.1)">
       <use xlink:href="#DejaVuSans-31"/>
       <use xlink:href="#DejaVuSans-37" x="63.623047"/>
       <use xlink:href="#DejaVuSans-35" x="127.246094"/>
      </g>
     </g>
    </g>
    <g id="xtick_9">
     <g id="line2d_17">
      <path d="M 411.687838 260.45 
L 411.687838 25.8 
" clip-path="url(#pccfca6d9ec)" style="fill: none; stroke: #b0b0b0; stroke-width: 0.8; stroke-linecap: square"/>
     </g>
     <g id="line2d_18">
      <g>
       <use xlink:href="#m8b2f281a67" x="411.687838" y="260.45" style="stroke: #000000; stroke-width: 0.8"/>
      </g>
     </g>
     <g id="text_9">
      <!-- 200 -->
      <g transform="translate(402.144088 275.048437)scale(0.1 -0.1)">
       <use xlink:href="#DejaVuSans-32"/>
       <use xlink:href="#DejaVuSans-30" x="63.623047"/>
       <use xlink:href="#DejaVuSans-30" x="127.246094"/>
      </g>
     </g>
    </g>
   </g>
   <g id="matplotlib.axis_2">
    <g id="ytick_1">
     <g id="line2d_19">
      <path d="M 37.01875 260.45 
L 416.158037 260.45 
" clip-path="url(#pccfca6d9ec)" style="fill: none; stroke: #b0b0b0; stroke-width: 0.8; stroke-linecap: square"/>
     </g>
     <g id="line2d_20">
      <defs>
       <path id="m07a1a6651c" d="M 0 0 
L -3.5 0 
" style="stroke: #000000; stroke-width: 0.8"/>
      </defs>
      <g>
       <use xlink:href="#m07a1a6651c" x="37.01875" y="260.45" style="stroke: #000000; stroke-width: 0.8"/>
      </g>
     </g>
     <g id="text_10">
      <!-- 0 -->
      <g transform="translate(23.65625 264.249219)scale(0.1 -0.1)">
       <use xlink:href="#DejaVuSans-30"/>
      </g>
     </g>
    </g>
    <g id="ytick_2">
     <g id="line2d_21">
      <path d="M 37.01875 233.73463 
L 416.158037 233.73463 
" clip-path="url(#pccfca6d9ec)" style="fill: none; stroke: #b0b0b0; stroke-width: 0.8; stroke-linecap: square"/>
     </g>
     <g id="line2d_22">
      <g>
       <use xlink:href="#m07a1a6651c" x="37.01875" y="233.73463" style="stroke: #000000; stroke-width: 0.8"/>
      </g>
     </g>
     <g id="text_11">
      <!-- 100 -->
      <g transform="translate(10.93125 237.533849)scale(0.1 -0.1)">
       <use xlink:href="#DejaVuSans-31"/>
       <use xlink:href="#DejaVuSans-30" x="63.623047"/>
       <use xlink:href="#DejaVuSans-30" x="127.246094"/>
      </g>
     </g>
    </g>
    <g id="ytick_3">
     <g id="line2d_23">
      <path d="M 37.01875 207.01926 
L 416.158037 207.01926 
" clip-path="url(#pccfca6d9ec)" style="fill: none; stroke: #b0b0b0; stroke-width: 0.8; stroke-linecap: square"/>
     </g>
     <g id="line2d_24">
      <g>
       <use xlink:href="#m07a1a6651c" x="37.01875" y="207.01926" style="stroke: #000000; stroke-width: 0.8"/>
      </g>
     </g>
     <g id="text_12">
      <!-- 200 -->
      <g transform="translate(10.93125 210.818479)scale(0.1 -0.1)">
       <use xlink:href="#DejaVuSans-32"/>
       <use xlink:href="#DejaVuSans-30" x="63.623047"/>
       <use xlink:href="#DejaVuSans-30" x="127.246094"/>
      </g>
     </g>
    </g>
    <g id="ytick_4">
     <g id="line2d_25">
      <path d="M 37.01875 180.30389 
L 416.158037 180.30389 
" clip-path="url(#pccfca6d9ec)" style="fill: none; stroke: #b0b0b0; stroke-width: 0.8; stroke-linecap: square"/>
     </g>
     <g id="line2d_26">
      <g>
       <use xlink:href="#m07a1a6651c" x="37.01875" y="180.30389" style="stroke: #000000; stroke-width: 0.8"/>
      </g>
     </g>
     <g id="text_13">
      <!-- 300 -->
      <g transform="translate(10.93125 184.103109)scale(0.1 -0.1)">
       <defs>
        <path id="DejaVuSans-33" d="M 2597 2516 
Q 3050 2419 3304 2112 
Q 3559 1806 3559 1356 
Q 3559 666 3084 287 
Q 2609 -91 1734 -91 
Q 1441 -91 1130 -33 
Q 819 25 488 141 
L 488 750 
Q 750 597 1062 519 
Q 1375 441 1716 441 
Q 2309 441 2620 675 
Q 2931 909 2931 1356 
Q 2931 1769 2642 2001 
Q 2353 2234 1838 2234 
L 1294 2234 
L 1294 2753 
L 1863 2753 
Q 2328 2753 2575 2939 
Q 2822 3125 2822 3475 
Q 2822 3834 2567 4026 
Q 2313 4219 1838 4219 
Q 1578 4219 1281 4162 
Q 984 4106 628 3988 
L 628 4550 
Q 988 4650 1302 4700 
Q 1616 4750 1894 4750 
Q 2613 4750 3031 4423 
Q 3450 4097 3450 3541 
Q 3450 3153 3228 2886 
Q 3006 2619 2597 2516 
z
" transform="scale(0.015625)"/>
       </defs>
       <use xlink:href="#DejaVuSans-33"/>
       <use xlink:href="#DejaVuSans-30" x="63.623047"/>
       <use xlink:href="#DejaVuSans-30" x="127.246094"/>
      </g>
     </g>
    </g>
    <g id="ytick_5">
     <g id="line2d_27">
      <path d="M 37.01875 153.58852 
L 416.158037 153.58852 
" clip-path="url(#pccfca6d9ec)" style="fill: none; stroke: #b0b0b0; stroke-width: 0.8; stroke-linecap: square"/>
     </g>
     <g id="line2d_28">
      <g>
       <use xlink:href="#m07a1a6651c" x="37.01875" y="153.58852" style="stroke: #000000; stroke-width: 0.8"/>
      </g>
     </g>
     <g id="text_14">
      <!-- 400 -->
      <g transform="translate(10.93125 157.387739)scale(0.1 -0.1)">
       <defs>
        <path id="DejaVuSans-34" d="M 2419 4116 
L 825 1625 
L 2419 1625 
L 2419 4116 
z
M 2253 4666 
L 3047 4666 
L 3047 1625 
L 3713 1625 
L 3713 1100 
L 3047 1100 
L 3047 0 
L 2419 0 
L 2419 1100 
L 313 1100 
L 313 1709 
L 2253 4666 
z
" transform="scale(0.015625)"/>
       </defs>
       <use xlink:href="#DejaVuSans-34"/>
       <use xlink:href="#DejaVuSans-30" x="63.623047"/>
       <use xlink:href="#DejaVuSans-30" x="127.246094"/>
      </g>
     </g>
    </g>
    <g id="ytick_6">
     <g id="line2d_29">
      <path d="M 37.01875 126.87315 
L 416.158037 126.87315 
" clip-path="url(#pccfca6d9ec)" style="fill: none; stroke: #b0b0b0; stroke-width: 0.8; stroke-linecap: square"/>
     </g>
     <g id="line2d_30">
      <g>
       <use xlink:href="#m07a1a6651c" x="37.01875" y="126.87315" style="stroke: #000000; stroke-width: 0.8"/>
      </g>
     </g>
     <g id="text_15">
      <!-- 500 -->
      <g transform="translate(10.93125 130.672369)scale(0.1 -0.1)">
       <use xlink:href="#DejaVuSans-35"/>
       <use xlink:href="#DejaVuSans-30" x="63.623047"/>
       <use xlink:href="#DejaVuSans-30" x="127.246094"/>
      </g>
     </g>
    </g>
    <g id="ytick_7">
     <g id="line2d_31">
      <path d="M 37.01875 100.15778 
L 416.158037 100.15778 
" clip-path="url(#pccfca6d9ec)" style="fill: none; stroke: #b0b0b0; stroke-width: 0.8; stroke-linecap: square"/>
     </g>
     <g id="line2d_32">
      <g>
       <use xlink:href="#m07a1a6651c" x="37.01875" y="100.15778" style="stroke: #000000; stroke-width: 0.8"/>
      </g>
     </g>
     <g id="text_16">
      <!-- 600 -->
      <g transform="translate(10.93125 103.956999)scale(0.1 -0.1)">
       <defs>
        <path id="DejaVuSans-36" d="M 2113 2584 
Q 1688 2584 1439 2293 
Q 1191 2003 1191 1497 
Q 1191 994 1439 701 
Q 1688 409 2113 409 
Q 2538 409 2786 701 
Q 3034 994 3034 1497 
Q 3034 2003 2786 2293 
Q 2538 2584 2113 2584 
z
M 3366 4563 
L 3366 3988 
Q 3128 4100 2886 4159 
Q 2644 4219 2406 4219 
Q 1781 4219 1451 3797 
Q 1122 3375 1075 2522 
Q 1259 2794 1537 2939 
Q 1816 3084 2150 3084 
Q 2853 3084 3261 2657 
Q 3669 2231 3669 1497 
Q 3669 778 3244 343 
Q 2819 -91 2113 -91 
Q 1303 -91 875 529 
Q 447 1150 447 2328 
Q 447 3434 972 4092 
Q 1497 4750 2381 4750 
Q 2619 4750 2861 4703 
Q 3103 4656 3366 4563 
z
" transform="scale(0.015625)"/>
       </defs>
       <use xlink:href="#DejaVuSans-36"/>
       <use xlink:href="#DejaVuSans-30" x="63.623047"/>
       <use xlink:href="#DejaVuSans-30" x="127.246094"/>
      </g>
     </g>
    </g>
    <g id="ytick_8">
     <g id="line2d_33">
      <path d="M 37.01875 73.44241 
L 416.158037 73.44241 
" clip-path="url(#pccfca6d9ec)" style="fill: none; stroke: #b0b0b0; stroke-width: 0.8; stroke-linecap: square"/>
     </g>
     <g id="line2d_34">
      <g>
       <use xlink:href="#m07a1a6651c" x="37.01875" y="73.44241" style="stroke: #000000; stroke-width: 0.8"/>
      </g>
     </g>
     <g id="text_17">
      <!-- 700 -->
      <g transform="translate(10.93125 77.241629)scale(0.1 -0.1)">
       <use xlink:href="#DejaVuSans-37"/>
       <use xlink:href="#DejaVuSans-30" x="63.623047"/>
       <use xlink:href="#DejaVuSans-30" x="127.246094"/>
      </g>
     </g>
    </g>
    <g id="ytick_9">
     <g id="line2d_35">
      <path d="M 37.01875 46.72704 
L 416.158037 46.72704 
" clip-path="url(#pccfca6d9ec)" style="fill: none; stroke: #b0b0b0; stroke-width: 0.8; stroke-linecap: square"/>
     </g>
     <g id="line2d_36">
      <g>
       <use xlink:href="#m07a1a6651c" x="37.01875" y="46.72704" style="stroke: #000000; stroke-width: 0.8"/>
      </g>
     </g>
     <g id="text_18">
      <!-- 800 -->
      <g transform="translate(10.93125 50.526259)scale(0.1 -0.1)">
       <defs>
        <path id="DejaVuSans-38" d="M 2034 2216 
Q 1584 2216 1326 1975 
Q 1069 1734 1069 1313 
Q 1069 891 1326 650 
Q 1584 409 2034 409 
Q 2484 409 2743 651 
Q 3003 894 3003 1313 
Q 3003 1734 2745 1975 
Q 2488 2216 2034 2216 
z
M 1403 2484 
Q 997 2584 770 2862 
Q 544 3141 544 3541 
Q 544 4100 942 4425 
Q 1341 4750 2034 4750 
Q 2731 4750 3128 4425 
Q 3525 4100 3525 3541 
Q 3525 3141 3298 2862 
Q 3072 2584 2669 2484 
Q 3125 2378 3379 2068 
Q 3634 1759 3634 1313 
Q 3634 634 3220 271 
Q 2806 -91 2034 -91 
Q 1263 -91 848 271 
Q 434 634 434 1313 
Q 434 1759 690 2068 
Q 947 2378 1403 2484 
z
M 1172 3481 
Q 1172 3119 1398 2916 
Q 1625 2713 2034 2713 
Q 2441 2713 2670 2916 
Q 2900 3119 2900 3481 
Q 2900 3844 2670 4047 
Q 2441 4250 2034 4250 
Q 1625 4250 1398 4047 
Q 1172 3844 1172 3481 
z
" transform="scale(0.015625)"/>
       </defs>
       <use xlink:href="#DejaVuSans-38"/>
       <use xlink:href="#DejaVuSans-30" x="63.623047"/>
       <use xlink:href="#DejaVuSans-30" x="127.246094"/>
      </g>
     </g>
    </g>
   </g>
   <g id="line2d_37">
    <path d="M 38.215747 260.182846 
L 39.426579 259.648539 
L 40.471683 259.381385 
L 40.990538 259.114231 
L 42.087314 258.847078 
L 42.529724 258.579924 
L 43.585708 258.31277 
L 44.444481 257.778463 
L 45.402599 257.244156 
L 46.151937 256.709848 
L 47.072123 256.442694 
L 47.446792 256.175541 
L 48.967928 255.908387 
L 50.091936 255.106926 
L 50.665348 254.839772 
L 51.605137 254.572619 
L 53.24206 253.504004 
L 55.624297 252.969696 
L 58.246981 251.09962 
L 60.426142 250.565313 
L 60.800811 250.298159 
L 62.804787 249.763852 
L 64.965816 249.496698 
L 65.340485 249.229545 
L 67.135684 248.695237 
L 67.896578 248.16093 
L 69.387278 247.626622 
L 70.174703 247.092315 
L 71.238999 246.558008 
L 71.988337 246.0237 
L 73.385844 245.756546 
L 74.184656 245.489393 
L 76.472663 243.886471 
L 82.199683 239.879165 
L 83.508541 239.612011 
L 84.526782 239.077704 
L 85.65079 238.276243 
L 86.902358 238.009089 
L 87.949244 237.474782 
L 88.323913 237.207628 
L 89.635381 236.940474 
L 91.846871 235.87186 
L 96.3429 232.666015 
L 99.716006 232.131708 
L 101.589352 230.795939 
L 104.180448 230.528786 
L 105.265486 229.994478 
L 110.885522 225.987173 
L 111.724485 225.720019 
L 112.593502 225.185712 
L 113.560335 224.918558 
L 115.196176 223.849943 
L 116.200184 223.315636 
L 121.180834 222.514175 
L 121.936684 221.979867 
L 124.050901 221.712713 
L 127.196247 219.575484 
L 128.432856 219.30833 
L 131.831385 216.903947 
L 133.164531 216.636793 
L 135.037876 215.301025 
L 136.065629 215.033871 
L 137.189637 214.23241 
L 138.451899 213.965256 
L 138.826568 213.698102 
L 139.935001 213.430949 
L 140.791811 212.896641 
L 141.954799 212.629488 
L 144.764709 210.759412 
L 145.388371 210.492258 
L 146.423178 210.225104 
L 153.167222 205.416338 
L 154.341208 205.149184 
L 155.614118 204.347723 
L 156.883868 203.546262 
L 158.156094 203.279108 
L 159.580519 202.477647 
L 160.596205 202.210493 
L 162.311599 201.94334 
L 163.326732 201.409032 
L 163.701401 201.141879 
L 164.673178 200.874725 
L 166.832962 200.607571 
L 167.883293 200.073264 
L 168.632631 199.538956 
L 169.539867 199.271803 
L 170.75437 198.470342 
L 171.951156 198.203188 
L 173.075163 197.401727 
L 174.012875 197.134573 
L 175.903664 196.867419 
L 178.397267 195.798805 
L 179.216482 195.264497 
L 180.973006 194.997343 
L 187.105637 190.722884 
L 187.952665 190.188577 
L 189.077089 189.921423 
L 193.198449 186.982732 
L 194.786003 186.448425 
L 195.91001 185.646964 
L 196.736412 185.37981 
L 198.235088 184.311195 
L 201.0346 183.776888 
L 201.409269 183.509734 
L 203.243027 182.708273 
L 204.367034 181.906812 
L 205.111043 181.639658 
L 205.485712 181.372505 
L 206.433786 180.838197 
L 210.217299 180.571044 
L 211.251236 180.30389 
L 211.625905 180.036736 
L 213.801583 179.502429 
L 216.943166 177.365199 
L 218.993751 176.830892 
L 221.263431 175.22797 
L 222.478654 174.960816 
L 223.525164 174.426509 
L 225.153155 173.357894 
L 225.938846 173.09074 
L 226.313516 172.823586 
L 228.27952 172.556433 
L 228.654189 172.289279 
L 229.377307 172.022125 
L 230.875983 170.95351 
L 232.216983 170.686357 
L 234.106583 169.884896 
L 239.884325 165.87759 
L 241.363641 165.610436 
L 244.33875 164.007514 
L 246.586765 162.404592 
L 250.61279 161.870285 
L 251.362128 161.335977 
L 252.39236 160.80167 
L 253.514777 160.534516 
L 254.015735 160.267362 
L 255.532843 159.733055 
L 257.408774 159.465901 
L 261.155465 156.794364 
L 261.8744 156.527211 
L 262.623738 155.992903 
L 264.566623 155.72575 
L 268.724973 152.787059 
L 270.51238 152.519905 
L 272.443343 151.184137 
L 274.411693 150.115522 
L 275.161032 149.581214 
L 276.709922 148.779753 
L 277.98558 148.5126 
L 278.690447 148.245446 
L 281.297948 147.978292 
L 282.796625 146.909677 
L 284.076537 146.642524 
L 286.861284 144.772448 
L 288.022869 144.505294 
L 288.877951 143.970987 
L 291.940734 142.368065 
L 292.724286 142.100911 
L 294.324438 141.032296 
L 295.541605 140.765142 
L 296.297166 140.230835 
L 298.013067 139.963681 
L 298.387736 139.696528 
L 299.383695 139.16222 
L 299.758364 138.895066 
L 300.390366 138.627913 
L 302.045175 138.360759 
L 302.92929 137.826452 
L 304.122281 137.559298 
L 305.246288 136.757837 
L 306.407612 136.490683 
L 308.691348 134.887761 
L 312.438039 132.216224 
L 314.1103 131.681917 
L 318.23166 128.743226 
L 319.118253 128.476072 
L 323.38517 125.537381 
L 324.933662 125.003074 
L 325.308331 124.73592 
L 326.303636 124.468767 
L 327.802312 123.400152 
L 328.952278 122.865844 
L 329.326947 122.598691 
L 330.815424 122.331537 
L 335.807997 118.858539 
L 336.672262 118.591385 
L 339.007933 118.324231 
L 339.877128 117.789924 
L 340.747979 117.255617 
L 342.246655 116.187002 
L 343.920777 115.919848 
L 346.490921 115.118387 
L 347.240259 114.58408 
L 348.692888 114.316926 
L 349.442227 113.782619 
L 350.36864 113.515465 
L 352.044648 113.248311 
L 352.425575 112.981157 
L 354.019777 112.714004 
L 358.808092 110.843928 
L 359.182761 110.576774 
L 361.486013 109.775313 
L 361.860682 109.508159 
L 362.607595 109.241006 
L 362.982264 108.973852 
L 364.671824 108.706698 
L 365.046493 108.439545 
L 366.025851 108.172391 
L 366.40052 107.905237 
L 366.967996 107.638083 
L 371.581938 107.103776 
L 371.956607 106.836622 
L 372.734873 106.569469 
L 378.366867 102.562163 
L 379.237494 102.295009 
L 379.986832 101.760702 
L 381.175324 101.226395 
L 383.203562 100.959241 
L 383.578231 100.692087 
L 385.261032 100.424934 
L 386.135114 100.15778 
L 387.46728 99.890626 
L 387.841949 99.623472 
L 388.601061 99.356319 
L 391.598414 97.219089 
L 392.361224 96.951935 
L 393.485232 96.150474 
L 395.136703 95.616167 
L 399.778888 92.410323 
L 400.738686 91.876015 
L 402.388896 90.8074 
L 404.490608 90.273093 
L 404.865277 90.005939 
L 405.862791 89.471632 
L 411.482827 85.464326 
L 411.482827 85.464326 
" clip-path="url(#pccfca6d9ec)" style="fill: none; stroke: #1f77b4; stroke-width: 1.5; stroke-linecap: square"/>
   </g>
   <g id="line2d_38">
    <path d="M 37.466034 260.182846 
L 38.676866 259.648539 
L 39.721971 259.381385 
L 40.240825 259.114231 
L 41.337601 258.847078 
L 41.780011 258.579924 
L 42.835995 258.31277 
L 43.145687 258.045617 
L 44.550861 257.244156 
L 45.072781 256.709848 
L 46.32241 256.442694 
L 46.355223 256.175541 
L 48.218215 255.908387 
L 48.668919 255.37408 
L 49.03391 255.106926 
L 50.855424 254.572619 
L 52.398046 253.504004 
L 54.874585 252.969696 
L 54.915996 252.702543 
L 55.147304 252.435389 
L 55.198537 252.168235 
L 55.785613 251.901082 
L 55.797092 251.633928 
L 56.055192 251.366774 
L 57.059766 251.09962 
L 58.830173 250.832467 
L 59.676429 250.565313 
L 59.761422 250.298159 
L 62.055074 249.763852 
L 64.216103 249.496698 
L 64.576746 249.229545 
L 66.385972 248.695237 
L 67.146865 248.16093 
L 68.637565 247.626622 
L 68.708307 247.359469 
L 69.999038 246.825161 
L 70.489286 246.558008 
L 70.576245 246.290854 
L 71.009456 246.0237 
L 72.636131 245.756546 
L 73.434943 245.489393 
L 73.849605 245.222239 
L 73.912519 244.955085 
L 74.746836 244.153624 
L 74.862723 243.886471 
L 76.449566 243.352163 
L 76.791873 243.085009 
L 76.929029 242.817856 
L 77.4013 242.550702 
L 77.713784 241.749241 
L 78.254083 241.482087 
L 78.345204 241.214934 
L 78.87742 240.94778 
L 79.018731 240.680626 
L 79.558001 240.413472 
L 79.832572 240.146319 
L 82.758828 239.612011 
L 83.4024 239.344858 
L 84.845228 238.276243 
L 86.152645 238.009089 
L 86.824862 237.741935 
L 86.918535 237.207628 
L 88.885668 236.940474 
L 90.722489 236.139013 
L 90.960572 235.604706 
L 91.209767 235.337552 
L 91.287339 235.070398 
L 92.067987 234.803245 
L 92.280965 234.536091 
L 92.807035 234.268937 
L 93.282048 233.73463 
L 93.75662 233.467476 
L 93.778641 233.200323 
L 94.103099 232.933169 
L 94.668402 232.666015 
L 98.966293 232.131708 
L 99.026785 231.864554 
L 99.621287 231.5974 
L 99.752965 231.330247 
L 100.319476 231.063093 
L 100.41834 230.795939 
L 103.430736 230.528786 
L 104.515773 229.994478 
L 104.679923 229.727324 
L 105.852861 228.65871 
L 106.401862 228.391556 
L 106.49916 228.124402 
L 106.730987 227.857249 
L 106.796717 227.590095 
L 108.028202 227.055787 
L 108.326214 226.52148 
L 109.172949 226.254326 
L 109.295961 225.987173 
L 110.974772 225.720019 
L 111.233302 225.452865 
L 111.843789 225.185712 
L 112.810622 224.918558 
L 112.875707 224.38425 
L 113.423718 224.117097 
L 115.075802 223.582789 
L 115.132584 223.315636 
L 120.431122 222.514175 
L 121.186972 221.979867 
L 123.301188 221.712713 
L 123.333406 221.44556 
L 124.947858 220.644099 
L 124.981671 220.109791 
L 125.496067 219.575484 
L 127.683143 219.30833 
L 127.755112 219.041176 
L 128.642308 217.972562 
L 129.298095 217.705408 
L 129.513174 217.438254 
L 130.707003 217.171101 
L 131.00761 216.903947 
L 132.414818 216.636793 
L 132.589428 216.102486 
L 133.720198 215.568178 
L 134.190088 215.301025 
L 135.315917 215.033871 
L 135.489247 214.766717 
L 136.30528 214.23241 
L 137.702186 213.965256 
L 137.757628 213.698102 
L 139.185288 213.430949 
L 139.667429 213.163795 
L 139.716194 212.896641 
L 141.205086 212.629488 
L 141.60349 212.09518 
L 141.608774 211.828027 
L 142.227453 211.560873 
L 143.265658 211.293719 
L 143.345086 211.026565 
L 144.638658 210.492258 
L 145.673466 210.225104 
L 146.437073 209.15649 
L 147.385693 208.622182 
L 147.498411 208.087875 
L 148.490764 207.820721 
L 148.750259 207.553567 
L 148.841892 207.01926 
L 149.952253 206.484953 
L 150.129127 206.217799 
L 151.559576 205.683491 
L 151.750852 205.416338 
L 153.591495 205.149184 
L 154.071404 204.614877 
L 155.346825 204.080569 
L 155.630268 203.813416 
L 156.134155 203.546262 
L 157.406382 203.279108 
L 158.456137 202.744801 
L 158.597998 202.477647 
L 162.20235 201.676186 
L 162.870574 201.141879 
L 163.923465 200.874725 
L 166.083249 200.607571 
L 166.758911 200.340417 
L 166.828334 200.073264 
L 167.026732 199.80611 
L 168.790154 199.271803 
L 169.372244 198.737495 
L 170.004657 198.470342 
L 171.201443 198.203188 
L 171.362969 197.936034 
L 171.852213 197.66888 
L 172.06338 197.401727 
L 173.263162 197.134573 
L 175.153951 196.867419 
L 177.647554 195.798805 
L 178.466769 195.264497 
L 180.223293 194.997343 
L 180.37057 194.73019 
L 180.951006 194.463036 
L 181.543193 193.928729 
L 182.971223 193.127268 
L 182.982114 192.860114 
L 183.540777 192.325806 
L 184.854945 191.791499 
L 185.510186 190.990038 
L 187.142983 190.188577 
L 188.327376 189.921423 
L 188.72374 188.852808 
L 189.198008 188.585655 
L 189.443619 188.318501 
L 190.876931 187.51704 
L 190.896154 187.249886 
L 191.491321 186.982732 
L 193.442899 186.715579 
L 194.03629 186.448425 
L 194.711718 185.646964 
L 195.986699 185.37981 
L 196.072288 185.112657 
L 196.329783 184.845503 
L 196.387288 184.578349 
L 196.709013 184.311195 
L 199.034477 184.044042 
L 200.284887 183.776888 
L 200.454369 183.509734 
L 201.376559 183.242581 
L 201.809345 182.975427 
L 202.493314 182.708273 
L 202.827186 182.44112 
L 202.945484 181.906812 
L 204.36133 181.639658 
L 204.605434 181.372505 
L 205.309404 181.105351 
L 205.665412 180.838197 
L 209.467586 180.571044 
L 210.501523 180.30389 
L 210.592494 180.036736 
L 213.051871 179.502429 
L 213.173043 178.968121 
L 214.211864 178.16666 
L 214.286152 177.899507 
L 216.193453 177.365199 
L 218.244038 176.830892 
L 218.541902 176.563738 
L 219.015042 176.296584 
L 219.099787 176.029431 
L 219.393642 175.762277 
L 219.452912 175.22797 
L 221.728941 174.960816 
L 222.400782 174.693662 
L 223.309221 173.892201 
L 224.028773 173.625047 
L 224.057948 173.357894 
L 225.189134 173.09074 
L 225.444796 172.823586 
L 227.529807 172.556433 
L 227.539231 172.289279 
L 228.627594 172.022125 
L 228.775024 171.754972 
L 228.781646 171.487818 
L 229.595312 171.220664 
L 229.846108 170.95351 
L 231.46727 170.686357 
L 232.982201 170.152049 
L 233.088023 169.884896 
L 233.321037 169.617742 
L 234.112671 169.083435 
L 234.14407 168.816281 
L 234.502133 168.281973 
L 234.729207 167.480512 
L 235.616281 167.213359 
L 235.966183 166.946205 
L 236.108654 166.679051 
L 237.275391 166.411898 
L 237.513487 166.144744 
L 240.613928 165.610436 
L 242.335851 164.808975 
L 242.354036 164.541822 
L 243.214368 164.274668 
L 243.315505 164.007514 
L 244.251062 163.473207 
L 244.280108 163.206053 
L 245.591579 162.404592 
L 248.333669 162.137438 
L 249.863077 161.870285 
L 250.037842 161.603131 
L 251.642647 160.80167 
L 252.765065 160.534516 
L 253.266023 160.267362 
L 254.78313 159.733055 
L 256.659062 159.465901 
L 256.869187 159.198748 
L 257.608697 158.66444 
L 258.271168 157.328672 
L 259.894839 157.061518 
L 260.368597 156.794364 
L 261.124687 156.527211 
L 261.84176 155.992903 
L 263.81691 155.72575 
L 263.961914 155.458596 
L 264.603238 155.191442 
L 264.818295 154.657135 
L 264.884529 154.122827 
L 265.790862 153.321366 
L 266.987182 153.054213 
L 267.657011 152.787059 
L 269.762667 152.519905 
L 270.02929 152.252751 
L 270.569623 151.985598 
L 270.680882 151.718444 
L 271.120355 151.45129 
L 271.134398 151.184137 
L 272.218144 150.916983 
L 272.257269 150.649829 
L 273.66198 150.115522 
L 274.367751 149.581214 
L 275.435263 149.046907 
L 275.960209 148.779753 
L 277.235867 148.5126 
L 277.940734 148.245446 
L 280.548235 147.978292 
L 280.904506 147.711139 
L 281.041911 147.443985 
L 281.384078 147.176831 
L 281.995484 146.909677 
L 283.326824 146.642524 
L 283.581525 146.108216 
L 283.593252 145.841063 
L 283.739571 145.573909 
L 284.537831 145.306755 
L 285.736902 145.039602 
L 285.95366 144.772448 
L 287.273156 144.505294 
L 287.544963 144.23814 
L 288.627018 143.703833 
L 288.847645 143.436679 
L 289.846968 143.169526 
L 290.816353 142.635218 
L 290.816384 142.368065 
L 291.974573 142.100911 
L 292.675677 141.29945 
L 294.791892 140.765142 
L 294.907299 140.497989 
L 295.547453 140.230835 
L 297.263354 139.963681 
L 297.605639 139.696528 
L 298.630518 139.16222 
L 298.766927 138.895066 
L 299.640653 138.627913 
L 301.295462 138.360759 
L 301.441942 138.093605 
L 302.179577 137.826452 
L 303.372568 137.559298 
L 303.8836 136.757837 
L 305.6579 136.490683 
L 306.426954 135.956376 
L 306.441565 135.689222 
L 307.140333 135.422068 
L 307.364797 134.887761 
L 307.675494 134.620607 
L 308.412265 134.353454 
L 308.675663 134.0863 
L 309.609733 133.551992 
L 310.044439 132.750531 
L 310.54113 132.483378 
L 313.360587 131.681917 
L 313.430856 131.414763 
L 314.471678 130.880455 
L 314.733482 130.346148 
L 314.841534 130.078994 
L 316.235759 129.544687 
L 316.868753 129.01038 
L 317.337115 128.743226 
L 318.36854 128.476072 
L 318.800413 127.407457 
L 319.176697 127.140304 
L 319.251635 126.87315 
L 319.498611 126.605996 
L 320.218214 126.338843 
L 321.803422 126.071689 
L 321.820802 125.804535 
L 324.183949 125.003074 
L 324.238558 124.73592 
L 325.553923 124.468767 
L 325.740681 123.934459 
L 326.969618 123.400152 
L 328.202565 122.865844 
L 328.228804 122.598691 
L 330.065711 122.331537 
L 330.581816 121.530076 
L 330.736663 121.262922 
L 331.372244 120.995769 
L 331.477544 120.194307 
L 331.933408 119.927154 
L 333.424156 119.66 
L 333.429373 119.392846 
L 334.052303 119.125693 
L 335.922549 118.591385 
L 338.25822 118.324231 
L 338.444193 118.057078 
L 339.623597 117.52277 
L 339.77339 116.988463 
L 341.038809 116.187002 
L 343.171064 115.919848 
L 345.741208 115.118387 
L 346.11165 114.58408 
L 347.943176 114.316926 
L 348.284469 114.049772 
L 348.4326 113.782619 
L 353.976636 112.44685 
L 354.87891 112.179696 
L 355.81257 111.645389 
L 356.505453 111.378235 
L 357.670914 111.111082 
L 358.253256 110.576774 
L 360.361631 110.042467 
L 360.483078 109.775313 
L 361.023732 109.508159 
L 361.857882 109.241006 
L 361.865371 108.973852 
L 363.922111 108.706698 
L 364.161826 108.439545 
L 365.276138 108.172391 
L 365.366246 107.905237 
L 366.218283 107.638083 
L 370.832225 107.103776 
L 371.197976 106.836622 
L 371.985161 106.569469 
L 372.371787 106.302315 
L 372.374067 106.035161 
L 372.947416 105.768008 
L 373.382288 105.2337 
L 373.679289 104.966546 
L 373.76203 104.699393 
L 374.076194 104.432239 
L 375.046568 104.165085 
L 375.651759 103.363624 
L 376.054179 103.096471 
L 376.269197 102.562163 
L 378.487781 102.295009 
L 378.54565 102.027856 
L 378.838498 101.760702 
L 379.952327 101.493548 
L 380.425611 101.226395 
L 382.453849 100.959241 
L 382.690449 100.692087 
L 384.51132 100.424934 
L 385.385401 100.15778 
L 386.717567 99.890626 
L 387.015407 99.623472 
L 387.851348 99.356319 
L 388.615855 98.554858 
L 388.663389 98.287704 
L 389.159223 97.753397 
L 389.998088 97.486243 
L 390.146609 97.219089 
L 391.611512 96.951935 
L 391.691387 96.684782 
L 391.912536 96.417628 
L 391.943394 96.150474 
L 393.660237 95.883321 
L 394.386991 95.616167 
L 394.401344 95.08186 
L 394.829829 94.814706 
L 395.657213 94.547552 
L 395.950677 94.013245 
L 397.15583 93.746091 
L 397.202399 93.478937 
L 397.417302 92.94463 
L 398.679712 92.410323 
L 399.614304 92.143169 
L 399.772522 91.876015 
L 400.397218 91.341708 
L 404.008678 90.005939 
L 404.738409 89.738786 
L 404.795472 89.471632 
L 405.218115 88.670171 
L 405.721855 88.403017 
L 405.753871 88.135863 
L 406.695474 87.334402 
L 406.866307 87.067249 
L 407.971255 86.265787 
L 408.617413 85.998634 
L 408.9453 85.73148 
L 409.613801 85.464326 
L 410.689949 85.197173 
L 411.196637 84.662865 
L 411.465229 84.395712 
L 411.465229 84.395712 
" clip-path="url(#pccfca6d9ec)" style="fill: none; stroke: #ff7f0e; stroke-width: 1.5; stroke-linecap: square"/>
   </g>
   <g id="patch_3">
    <path d="M 37.01875 260.45 
L 37.01875 25.8 
" style="fill: none; stroke: #000000; stroke-width: 0.8; stroke-linejoin: miter; stroke-linecap: square"/>
   </g>
   <g id="patch_4">
    <path d="M 416.158037 260.45 
L 416.158037 25.8 
" style="fill: none; stroke: #000000; stroke-width: 0.8; stroke-linejoin: miter; stroke-linecap: square"/>
   </g>
   <g id="patch_5">
    <path d="M 37.01875 260.45 
L 416.158037 260.45 
" style="fill: none; stroke: #000000; stroke-width: 0.8; stroke-linejoin: miter; stroke-linecap: square"/>
   </g>
   <g id="patch_6">
    <path d="M 37.01875 25.8 
L 416.158037 25.8 
" style="fill: none; stroke: #000000; stroke-width: 0.8; stroke-linejoin: miter; stroke-linecap: square"/>
   </g>
   <g id="text_19">
    <!-- Sent_vs_recived_packets -->
    <g transform="translate(152.002769 19.8)scale(0.12 -0.12)">
     <defs>
      <path id="DejaVuSans-53" d="M 3425 4513 
L 3425 3897 
Q 3066 4069 2747 4153 
Q 2428 4238 2131 4238 
Q 1616 4238 1336 4038 
Q 1056 3838 1056 3469 
Q 1056 3159 1242 3001 
Q 1428 2844 1947 2747 
L 2328 2669 
Q 3034 2534 3370 2195 
Q 3706 1856 3706 1288 
Q 3706 609 3251 259 
Q 2797 -91 1919 -91 
Q 1588 -91 1214 -16 
Q 841 59 441 206 
L 441 856 
Q 825 641 1194 531 
Q 1563 422 1919 422 
Q 2459 422 2753 634 
Q 3047 847 3047 1241 
Q 3047 1584 2836 1778 
Q 2625 1972 2144 2069 
L 1759 2144 
Q 1053 2284 737 2584 
Q 422 2884 422 3419 
Q 422 4038 858 4394 
Q 1294 4750 2059 4750 
Q 2388 4750 2728 4690 
Q 3069 4631 3425 4513 
z
" transform="scale(0.015625)"/>
      <path id="DejaVuSans-65" d="M 3597 1894 
L 3597 1613 
L 953 1613 
Q 991 1019 1311 708 
Q 1631 397 2203 397 
Q 2534 397 2845 478 
Q 3156 559 3463 722 
L 3463 178 
Q 3153 47 2828 -22 
Q 2503 -91 2169 -91 
Q 1331 -91 842 396 
Q 353 884 353 1716 
Q 353 2575 817 3079 
Q 1281 3584 2069 3584 
Q 2775 3584 3186 3129 
Q 3597 2675 3597 1894 
z
M 3022 2063 
Q 3016 2534 2758 2815 
Q 2500 3097 2075 3097 
Q 1594 3097 1305 2825 
Q 1016 2553 972 2059 
L 3022 2063 
z
" transform="scale(0.015625)"/>
      <path id="DejaVuSans-6e" d="M 3513 2113 
L 3513 0 
L 2938 0 
L 2938 2094 
Q 2938 2591 2744 2837 
Q 2550 3084 2163 3084 
Q 1697 3084 1428 2787 
Q 1159 2491 1159 1978 
L 1159 0 
L 581 0 
L 581 3500 
L 1159 3500 
L 1159 2956 
Q 1366 3272 1645 3428 
Q 1925 3584 2291 3584 
Q 2894 3584 3203 3211 
Q 3513 2838 3513 2113 
z
" transform="scale(0.015625)"/>
      <path id="DejaVuSans-74" d="M 1172 4494 
L 1172 3500 
L 2356 3500 
L 2356 3053 
L 1172 3053 
L 1172 1153 
Q 1172 725 1289 603 
Q 1406 481 1766 481 
L 2356 481 
L 2356 0 
L 1766 0 
Q 1100 0 847 248 
Q 594 497 594 1153 
L 594 3053 
L 172 3053 
L 172 3500 
L 594 3500 
L 594 4494 
L 1172 4494 
z
" transform="scale(0.015625)"/>
      <path id="DejaVuSans-5f" d="M 3263 -1063 
L 3263 -1509 
L -63 -1509 
L -63 -1063 
L 3263 -1063 
z
" transform="scale(0.015625)"/>
      <path id="DejaVuSans-76" d="M 191 3500 
L 800 3500 
L 1894 563 
L 2988 3500 
L 3597 3500 
L 2284 0 
L 1503 0 
L 191 3500 
z
" transform="scale(0.015625)"/>
      <path id="DejaVuSans-73" d="M 2834 3397 
L 2834 2853 
Q 2591 2978 2328 3040 
Q 2066 3103 1784 3103 
Q 1356 3103 1142 2972 
Q 928 2841 928 2578 
Q 928 2378 1081 2264 
Q 1234 2150 1697 2047 
L 1894 2003 
Q 2506 1872 2764 1633 
Q 3022 1394 3022 966 
Q 3022 478 2636 193 
Q 2250 -91 1575 -91 
Q 1294 -91 989 -36 
Q 684 19 347 128 
L 347 722 
Q 666 556 975 473 
Q 1284 391 1588 391 
Q 1994 391 2212 530 
Q 2431 669 2431 922 
Q 2431 1156 2273 1281 
Q 2116 1406 1581 1522 
L 1381 1569 
Q 847 1681 609 1914 
Q 372 2147 372 2553 
Q 372 3047 722 3315 
Q 1072 3584 1716 3584 
Q 2034 3584 2315 3537 
Q 2597 3491 2834 3397 
z
" transform="scale(0.015625)"/>
      <path id="DejaVuSans-72" d="M 2631 2963 
Q 2534 3019 2420 3045 
Q 2306 3072 2169 3072 
Q 1681 3072 1420 2755 
Q 1159 2438 1159 1844 
L 1159 0 
L 581 0 
L 581 3500 
L 1159 3500 
L 1159 2956 
Q 1341 3275 1631 3429 
Q 1922 3584 2338 3584 
Q 2397 3584 2469 3576 
Q 2541 3569 2628 3553 
L 2631 2963 
z
" transform="scale(0.015625)"/>
      <path id="DejaVuSans-63" d="M 3122 3366 
L 3122 2828 
Q 2878 2963 2633 3030 
Q 2388 3097 2138 3097 
Q 1578 3097 1268 2742 
Q 959 2388 959 1747 
Q 959 1106 1268 751 
Q 1578 397 2138 397 
Q 2388 397 2633 464 
Q 2878 531 3122 666 
L 3122 134 
Q 2881 22 2623 -34 
Q 2366 -91 2075 -91 
Q 1284 -91 818 406 
Q 353 903 353 1747 
Q 353 2603 823 3093 
Q 1294 3584 2113 3584 
Q 2378 3584 2631 3529 
Q 2884 3475 3122 3366 
z
" transform="scale(0.015625)"/>
      <path id="DejaVuSans-69" d="M 603 3500 
L 1178 3500 
L 1178 0 
L 603 0 
L 603 3500 
z
M 603 4863 
L 1178 4863 
L 1178 4134 
L 603 4134 
L 603 4863 
z
" transform="scale(0.015625)"/>
      <path id="DejaVuSans-64" d="M 2906 2969 
L 2906 4863 
L 3481 4863 
L 3481 0 
L 2906 0 
L 2906 525 
Q 2725 213 2448 61 
Q 2172 -91 1784 -91 
Q 1150 -91 751 415 
Q 353 922 353 1747 
Q 353 2572 751 3078 
Q 1150 3584 1784 3584 
Q 2172 3584 2448 3432 
Q 2725 3281 2906 2969 
z
M 947 1747 
Q 947 1113 1208 752 
Q 1469 391 1925 391 
Q 2381 391 2643 752 
Q 2906 1113 2906 1747 
Q 2906 2381 2643 2742 
Q 2381 3103 1925 3103 
Q 1469 3103 1208 2742 
Q 947 2381 947 1747 
z
" transform="scale(0.015625)"/>
      <path id="DejaVuSans-70" d="M 1159 525 
L 1159 -1331 
L 581 -1331 
L 581 3500 
L 1159 3500 
L 1159 2969 
Q 1341 3281 1617 3432 
Q 1894 3584 2278 3584 
Q 2916 3584 3314 3078 
Q 3713 2572 3713 1747 
Q 3713 922 3314 415 
Q 2916 -91 2278 -91 
Q 1894 -91 1617 61 
Q 1341 213 1159 525 
z
M 3116 1747 
Q 3116 2381 2855 2742 
Q 2594 3103 2138 3103 
Q 1681 3103 1420 2742 
Q 1159 2381 1159 1747 
Q 1159 1113 1420 752 
Q 1681 391 2138 391 
Q 2594 391 2855 752 
Q 3116 1113 3116 1747 
z
" transform="scale(0.015625)"/>
      <path id="DejaVuSans-61" d="M 2194 1759 
Q 1497 1759 1228 1600 
Q 959 1441 959 1056 
Q 959 750 1161 570 
Q 1363 391 1709 391 
Q 2188 391 2477 730 
Q 2766 1069 2766 1631 
L 2766 1759 
L 2194 1759 
z
M 3341 1997 
L 3341 0 
L 2766 0 
L 2766 531 
Q 2569 213 2275 61 
Q 1981 -91 1556 -91 
Q 1019 -91 701 211 
Q 384 513 384 1019 
Q 384 1609 779 1909 
Q 1175 2209 1959 2209 
L 2766 2209 
L 2766 2266 
Q 2766 2663 2505 2880 
Q 2244 3097 1772 3097 
Q 1472 3097 1187 3025 
Q 903 2953 641 2809 
L 641 3341 
Q 956 3463 1253 3523 
Q 1550 3584 1831 3584 
Q 2591 3584 2966 3190 
Q 3341 2797 3341 1997 
z
" transform="scale(0.015625)"/>
      <path id="DejaVuSans-6b" d="M 581 4863 
L 1159 4863 
L 1159 1991 
L 2875 3500 
L 3609 3500 
L 1753 1863 
L 3688 0 
L 2938 0 
L 1159 1709 
L 1159 0 
L 581 0 
L 581 4863 
z
" transform="scale(0.015625)"/>
     </defs>
     <use xlink:href="#DejaVuSans-53"/>
     <use xlink:href="#DejaVuSans-65" x="63.476562"/>
     <use xlink:href="#DejaVuSans-6e" x="125"/>
     <use xlink:href="#DejaVuSans-74" x="188.378906"/>
     <use xlink:href="#DejaVuSans-5f" x="227.587891"/>
     <use xlink:href="#DejaVuSans-76" x="277.587891"/>
     <use xlink:href="#DejaVuSans-73" x="336.767578"/>
     <use xlink:href="#DejaVuSans-5f" x="388.867188"/>
     <use xlink:href="#DejaVuSans-72" x="438.867188"/>
     <use xlink:href="#DejaVuSans-65" x="477.730469"/>
     <use xlink:href="#DejaVuSans-63" x="539.253906"/>
     <use xlink:href="#DejaVuSans-69" x="594.234375"/>
     <use xlink:href="#DejaVuSans-76" x="622.017578"/>
     <use xlink:href="#DejaVuSans-65" x="681.197266"/>
     <use xlink:href="#DejaVuSans-64" x="742.720703"/>
     <use xlink:href="#DejaVuSans-5f" x="806.197266"/>
     <use xlink:href="#DejaVuSans-70" x="856.197266"/>
     <use xlink:href="#DejaVuSans-61" x="919.673828"/>
     <use xlink:href="#DejaVuSans-63" x="980.953125"/>
     <use xlink:href="#DejaVuSans-6b" x="1035.933594"/>
     <use xlink:href="#DejaVuSans-65" x="1090.21875"/>
     <use xlink:href="#DejaVuSans-74" x="1151.742188"/>
     <use xlink:href="#DejaVuSans-73" x="1190.951172"/>
    </g>
   </g>
   <g id="legend_1">
    <g id="patch_7">
     <path d="M 168.270537 63.15625 
L 409.158037 63.15625 
Q 411.158037 63.15625 411.158037 61.15625 
L 411.158037 32.8 
Q 411.158037 30.8 409.158037 30.8 
L 168.270537 30.8 
Q 166.270537 30.8 166.270537 32.8 
L 166.270537 61.15625 
Q 166.270537 63.15625 168.270537 63.15625 
z
" style="fill: #ffffff; opacity: 0.8; stroke: #cccccc; stroke-linejoin: miter"/>
    </g>
    <g id="line2d_39">
     <path d="M 170.270537 38.898437 
L 180.270537 38.898437 
L 190.270537 38.898437 
" style="fill: none; stroke: #1f77b4; stroke-width: 1.5; stroke-linecap: square"/>
    </g>
    <g id="text_20">
     <!-- Received packets in Network.nodeRx.sink -->
     <g transform="translate(198.270537 42.398437)scale(0.1 -0.1)">
      <defs>
       <path id="DejaVuSans-52" d="M 2841 2188 
Q 3044 2119 3236 1894 
Q 3428 1669 3622 1275 
L 4263 0 
L 3584 0 
L 2988 1197 
Q 2756 1666 2539 1819 
Q 2322 1972 1947 1972 
L 1259 1972 
L 1259 0 
L 628 0 
L 628 4666 
L 2053 4666 
Q 2853 4666 3247 4331 
Q 3641 3997 3641 3322 
Q 3641 2881 3436 2590 
Q 3231 2300 2841 2188 
z
M 1259 4147 
L 1259 2491 
L 2053 2491 
Q 2509 2491 2742 2702 
Q 2975 2913 2975 3322 
Q 2975 3731 2742 3939 
Q 2509 4147 2053 4147 
L 1259 4147 
z
" transform="scale(0.015625)"/>
       <path id="DejaVuSans-20" transform="scale(0.015625)"/>
       <path id="DejaVuSans-4e" d="M 628 4666 
L 1478 4666 
L 3547 763 
L 3547 4666 
L 4159 4666 
L 4159 0 
L 3309 0 
L 1241 3903 
L 1241 0 
L 628 0 
L 628 4666 
z
" transform="scale(0.015625)"/>
       <path id="DejaVuSans-77" d="M 269 3500 
L 844 3500 
L 1563 769 
L 2278 3500 
L 2956 3500 
L 3675 769 
L 4391 3500 
L 4966 3500 
L 4050 0 
L 3372 0 
L 2619 2869 
L 1863 0 
L 1184 0 
L 269 3500 
z
" transform="scale(0.015625)"/>
       <path id="DejaVuSans-6f" d="M 1959 3097 
Q 1497 3097 1228 2736 
Q 959 2375 959 1747 
Q 959 1119 1226 758 
Q 1494 397 1959 397 
Q 2419 397 2687 759 
Q 2956 1122 2956 1747 
Q 2956 2369 2687 2733 
Q 2419 3097 1959 3097 
z
M 1959 3584 
Q 2709 3584 3137 3096 
Q 3566 2609 3566 1747 
Q 3566 888 3137 398 
Q 2709 -91 1959 -91 
Q 1206 -91 779 398 
Q 353 888 353 1747 
Q 353 2609 779 3096 
Q 1206 3584 1959 3584 
z
" transform="scale(0.015625)"/>
       <path id="DejaVuSans-2e" d="M 684 794 
L 1344 794 
L 1344 0 
L 684 0 
L 684 794 
z
" transform="scale(0.015625)"/>
       <path id="DejaVuSans-78" d="M 3513 3500 
L 2247 1797 
L 3578 0 
L 2900 0 
L 1881 1375 
L 863 0 
L 184 0 
L 1544 1831 
L 300 3500 
L 978 3500 
L 1906 2253 
L 2834 3500 
L 3513 3500 
z
" transform="scale(0.015625)"/>
      </defs>
      <use xlink:href="#DejaVuSans-52"/>
      <use xlink:href="#DejaVuSans-65" x="64.982422"/>
      <use xlink:href="#DejaVuSans-63" x="126.505859"/>
      <use xlink:href="#DejaVuSans-65" x="181.486328"/>
      <use xlink:href="#DejaVuSans-69" x="243.009766"/>
      <use xlink:href="#DejaVuSans-76" x="270.792969"/>
      <use xlink:href="#DejaVuSans-65" x="329.972656"/>
      <use xlink:href="#DejaVuSans-64" x="391.496094"/>
      <use xlink:href="#DejaVuSans-20" x="454.972656"/>
      <use xlink:href="#DejaVuSans-70" x="486.759766"/>
      <use xlink:href="#DejaVuSans-61" x="550.236328"/>
      <use xlink:href="#DejaVuSans-63" x="611.515625"/>
      <use xlink:href="#DejaVuSans-6b" x="666.496094"/>
      <use xlink:href="#DejaVuSans-65" x="720.78125"/>
      <use xlink:href="#DejaVuSans-74" x="782.304688"/>
      <use xlink:href="#DejaVuSans-73" x="821.513672"/>
      <use xlink:href="#DejaVuSans-20" x="873.613281"/>
      <use xlink:href="#DejaVuSans-69" x="905.400391"/>
      <use xlink:href="#DejaVuSans-6e" x="933.183594"/>
      <use xlink:href="#DejaVuSans-20" x="996.5625"/>
      <use xlink:href="#DejaVuSans-4e" x="1028.349609"/>
      <use xlink:href="#DejaVuSans-65" x="1103.154297"/>
      <use xlink:href="#DejaVuSans-74" x="1164.677734"/>
      <use xlink:href="#DejaVuSans-77" x="1203.886719"/>
      <use xlink:href="#DejaVuSans-6f" x="1285.673828"/>
      <use xlink:href="#DejaVuSans-72" x="1346.855469"/>
      <use xlink:href="#DejaVuSans-6b" x="1387.96875"/>
      <use xlink:href="#DejaVuSans-2e" x="1445.878906"/>
      <use xlink:href="#DejaVuSans-6e" x="1477.666016"/>
      <use xlink:href="#DejaVuSans-6f" x="1541.044922"/>
      <use xlink:href="#DejaVuSans-64" x="1602.226562"/>
      <use xlink:href="#DejaVuSans-65" x="1665.703125"/>
      <use xlink:href="#DejaVuSans-52" x="1727.226562"/>
      <use xlink:href="#DejaVuSans-78" x="1796.708984"/>
      <use xlink:href="#DejaVuSans-2e" x="1855.888672"/>
      <use xlink:href="#DejaVuSans-73" x="1887.675781"/>
      <use xlink:href="#DejaVuSans-69" x="1939.775391"/>
      <use xlink:href="#DejaVuSans-6e" x="1967.558594"/>
      <use xlink:href="#DejaVuSans-6b" x="2030.9375"/>
     </g>
    </g>
    <g id="line2d_40">
     <path d="M 170.270537 53.576562 
L 180.270537 53.576562 
L 190.270537 53.576562 
" style="fill: none; stroke: #ff7f0e; stroke-width: 1.5; stroke-linecap: square"/>
    </g>
    <g id="text_21">
     <!-- Sent packets in Network.nodeTx.gen -->
     <g transform="translate(198.270537 57.076562)scale(0.1 -0.1)">
      <defs>
       <path id="DejaVuSans-54" d="M -19 4666 
L 3928 4666 
L 3928 4134 
L 2272 4134 
L 2272 0 
L 1638 0 
L 1638 4134 
L -19 4134 
L -19 4666 
z
" transform="scale(0.015625)"/>
       <path id="DejaVuSans-67" d="M 2906 1791 
Q 2906 2416 2648 2759 
Q 2391 3103 1925 3103 
Q 1463 3103 1205 2759 
Q 947 2416 947 1791 
Q 947 1169 1205 825 
Q 1463 481 1925 481 
Q 2391 481 2648 825 
Q 2906 1169 2906 1791 
z
M 3481 434 
Q 3481 -459 3084 -895 
Q 2688 -1331 1869 -1331 
Q 1566 -1331 1297 -1286 
Q 1028 -1241 775 -1147 
L 775 -588 
Q 1028 -725 1275 -790 
Q 1522 -856 1778 -856 
Q 2344 -856 2625 -561 
Q 2906 -266 2906 331 
L 2906 616 
Q 2728 306 2450 153 
Q 2172 0 1784 0 
Q 1141 0 747 490 
Q 353 981 353 1791 
Q 353 2603 747 3093 
Q 1141 3584 1784 3584 
Q 2172 3584 2450 3431 
Q 2728 3278 2906 2969 
L 2906 3500 
L 3481 3500 
L 3481 434 
z
" transform="scale(0.015625)"/>
      </defs>
      <use xlink:href="#DejaVuSans-53"/>
      <use xlink:href="#DejaVuSans-65" x="63.476562"/>
      <use xlink:href="#DejaVuSans-6e" x="125"/>
      <use xlink:href="#DejaVuSans-74" x="188.378906"/>
      <use xlink:href="#DejaVuSans-20" x="227.587891"/>
      <use xlink:href="#DejaVuSans-70" x="259.375"/>
      <use xlink:href="#DejaVuSans-61" x="322.851562"/>
      <use xlink:href="#DejaVuSans-63" x="384.130859"/>
      <use xlink:href="#DejaVuSans-6b" x="439.111328"/>
      <use xlink:href="#DejaVuSans-65" x="493.396484"/>
      <use xlink:href="#DejaVuSans-74" x="554.919922"/>
      <use xlink:href="#DejaVuSans-73" x="594.128906"/>
      <use xlink:href="#DejaVuSans-20" x="646.228516"/>
      <use xlink:href="#DejaVuSans-69" x="678.015625"/>
      <use xlink:href="#DejaVuSans-6e" x="705.798828"/>
      <use xlink:href="#DejaVuSans-20" x="769.177734"/>
      <use xlink:href="#DejaVuSans-4e" x="800.964844"/>
      <use xlink:href="#DejaVuSans-65" x="875.769531"/>
      <use xlink:href="#DejaVuSans-74" x="937.292969"/>
      <use xlink:href="#DejaVuSans-77" x="976.501953"/>
      <use xlink:href="#DejaVuSans-6f" x="1058.289062"/>
      <use xlink:href="#DejaVuSans-72" x="1119.470703"/>
      <use xlink:href="#DejaVuSans-6b" x="1160.583984"/>
      <use xlink:href="#DejaVuSans-2e" x="1218.494141"/>
      <use xlink:href="#DejaVuSans-6e" x="1250.28125"/>
      <use xlink:href="#DejaVuSans-6f" x="1313.660156"/>
      <use xlink:href="#DejaVuSans-64" x="1374.841797"/>
      <use xlink:href="#DejaVuSans-65" x="1438.318359"/>
      <use xlink:href="#DejaVuSans-54" x="1499.841797"/>
      <use xlink:href="#DejaVuSans-78" x="1560.925781"/>
      <use xlink:href="#DejaVuSans-2e" x="1620.105469"/>
      <use xlink:href="#DejaVuSans-67" x="1651.892578"/>
      <use xlink:href="#DejaVuSans-65" x="1715.369141"/>
      <use xlink:href="#DejaVuSans-6e" x="1776.892578"/>
     </g>
    </g>
   </g>
  </g>
 </g>
 <defs>
  <clipPath id="pccfca6d9ec">
   <rect x="37.01875" y="25.8" width="379.139287" height="234.65"/>
  </clipPath>
 </defs>
</svg>
