<?xml version="1.0" encoding="utf-8" standalone="no"?>
<!DOCTYPE svg PUBLIC "-//W3C//DTD SVG 1.1//EN"
  "http://www.w3.org/Graphics/SVG/1.1/DTD/svg11.dtd">
<svg xmlns:xlink="http://www.w3.org/1999/xlink" width="432pt" height="288pt" viewBox="0 0 432 288" xmlns="http://www.w3.org/2000/svg" version="1.1">
 <metadata>
  <rdf:RDF xmlns:dc="http://purl.org/dc/elements/1.1/" xmlns:cc="http://creativecommons.org/ns#" xmlns:rdf="http://www.w3.org/1999/02/22-rdf-syntax-ns#">
   <cc:Work>
    <dc:type rdf:resource="http://purl.org/dc/dcmitype/StillImage"/>
    <dc:date>2022-05-19T10:29:20.181926</dc:date>
    <dc:format>image/svg+xml</dc:format>
    <dc:creator>
     <cc:Agent>
      <dc:title>omnetpp.scave 6.0.0; Matplotlib 3.5.1 w/ backend GTK3Agg; Pandas 1.4.2; Python 3.8.10; Linux-5.4.0-109-generic-x86_64-with-glibc2.29</dc:title>
     </cc:Agent>
    </dc:creator>
   </cc:Work>
  </rdf:RDF>
 </metadata>
 <defs>
  <style type="text/css">*{stroke-linejoin: round; stroke-linecap: butt}</style>
 </defs>
 <g id="figure_1">
  <g id="patch_1">
   <path d="M 0 288 
L 432 288 
L 432 0 
L 0 0 
z
" style="fill: #ffffff"/>
  </g>
  <g id="axes_1">
   <g id="patch_2">
    <path d="M 37.01875 260.45 
L 415.60565 260.45 
L 415.60565 25.8 
L 37.01875 25.8 
z
" style="fill: #ffffff"/>
   </g>
   <g id="matplotlib.axis_1">
    <g id="xtick_1">
     <g id="line2d_1">
      <path d="M 37.01875 260.45 
L 37.01875 25.8 
" clip-path="url(#pcb65cb7e1f)" style="fill: none; stroke: #b0b0b0; stroke-width: 0.8; stroke-linecap: square"/>
     </g>
     <g id="line2d_2">
      <defs>
       <path id="mb3d641997e" d="M 0 0 
L 0 3.5 
" style="stroke: #000000; stroke-width: 0.8"/>
      </defs>
      <g>
       <use xlink:href="#mb3d641997e" x="37.01875" y="260.45" style="stroke: #000000; stroke-width: 0.8"/>
      </g>
     </g>
     <g id="text_1">
      <!-- 0 -->
      <g transform="translate(33.8375 275.048437)scale(0.1 -0.1)">
       <defs>
        <path id="DejaVuSans-30" d="M 2034 4250 
Q 1547 4250 1301 3770 
Q 1056 3291 1056 2328 
Q 1056 1369 1301 889 
Q 1547 409 2034 409 
Q 2525 409 2770 889 
Q 3016 1369 3016 2328 
Q 3016 3291 2770 3770 
Q 2525 4250 2034 4250 
z
M 2034 4750 
Q 2819 4750 3233 4129 
Q 3647 3509 3647 2328 
Q 3647 1150 3233 529 
Q 2819 -91 2034 -91 
Q 1250 -91 836 529 
Q 422 1150 422 2328 
Q 422 3509 836 4129 
Q 1250 4750 2034 4750 
z
" transform="scale(0.015625)"/>
       </defs>
       <use xlink:href="#DejaVuSans-30"/>
      </g>
     </g>
    </g>
    <g id="xtick_2">
     <g id="line2d_3">
      <path d="M 83.851632 260.45 
L 83.851632 25.8 
" clip-path="url(#pcb65cb7e1f)" style="fill: none; stroke: #b0b0b0; stroke-width: 0.8; stroke-linecap: square"/>
     </g>
     <g id="line2d_4">
      <g>
       <use xlink:href="#mb3d641997e" x="83.851632" y="260.45" style="stroke: #000000; stroke-width: 0.8"/>
      </g>
     </g>
     <g id="text_2">
      <!-- 25 -->
      <g transform="translate(77.489132 275.048437)scale(0.1 -0.1)">
       <defs>
        <path id="DejaVuSans-32" d="M 1228 531 
L 3431 531 
L 3431 0 
L 469 0 
L 469 531 
Q 828 903 1448 1529 
Q 2069 2156 2228 2338 
Q 2531 2678 2651 2914 
Q 2772 3150 2772 3378 
Q 2772 3750 2511 3984 
Q 2250 4219 1831 4219 
Q 1534 4219 1204 4116 
Q 875 4013 500 3803 
L 500 4441 
Q 881 4594 1212 4672 
Q 1544 4750 1819 4750 
Q 2544 4750 2975 4387 
Q 3406 4025 3406 3419 
Q 3406 3131 3298 2873 
Q 3191 2616 2906 2266 
Q 2828 2175 2409 1742 
Q 1991 1309 1228 531 
z
" transform="scale(0.015625)"/>
        <path id="DejaVuSans-35" d="M 691 4666 
L 3169 4666 
L 3169 4134 
L 1269 4134 
L 1269 2991 
Q 1406 3038 1543 3061 
Q 1681 3084 1819 3084 
Q 2600 3084 3056 2656 
Q 3513 2228 3513 1497 
Q 3513 744 3044 326 
Q 2575 -91 1722 -91 
Q 1428 -91 1123 -41 
Q 819 9 494 109 
L 494 744 
Q 775 591 1075 516 
Q 1375 441 1709 441 
Q 2250 441 2565 725 
Q 2881 1009 2881 1497 
Q 2881 1984 2565 2268 
Q 2250 2553 1709 2553 
Q 1456 2553 1204 2497 
Q 953 2441 691 2322 
L 691 4666 
z
" transform="scale(0.015625)"/>
       </defs>
       <use xlink:href="#DejaVuSans-32"/>
       <use xlink:href="#DejaVuSans-35" x="63.623047"/>
      </g>
     </g>
    </g>
    <g id="xtick_3">
     <g id="line2d_5">
      <path d="M 130.684514 260.45 
L 130.684514 25.8 
" clip-path="url(#pcb65cb7e1f)" style="fill: none; stroke: #b0b0b0; stroke-width: 0.8; stroke-linecap: square"/>
     </g>
     <g id="line2d_6">
      <g>
       <use xlink:href="#mb3d641997e" x="130.684514" y="260.45" style="stroke: #000000; stroke-width: 0.8"/>
      </g>
     </g>
     <g id="text_3">
      <!-- 50 -->
      <g transform="translate(124.322014 275.048437)scale(0.1 -0.1)">
       <use xlink:href="#DejaVuSans-35"/>
       <use xlink:href="#DejaVuSans-30" x="63.623047"/>
      </g>
     </g>
    </g>
    <g id="xtick_4">
     <g id="line2d_7">
      <path d="M 177.517396 260.45 
L 177.517396 25.8 
" clip-path="url(#pcb65cb7e1f)" style="fill: none; stroke: #b0b0b0; stroke-width: 0.8; stroke-linecap: square"/>
     </g>
     <g id="line2d_8">
      <g>
       <use xlink:href="#mb3d641997e" x="177.517396" y="260.45" style="stroke: #000000; stroke-width: 0.8"/>
      </g>
     </g>
     <g id="text_4">
      <!-- 75 -->
      <g transform="translate(171.154896 275.048437)scale(0.1 -0.1)">
       <defs>
        <path id="DejaVuSans-37" d="M 525 4666 
L 3525 4666 
L 3525 4397 
L 1831 0 
L 1172 0 
L 2766 4134 
L 525 4134 
L 525 4666 
z
" transform="scale(0.015625)"/>
       </defs>
       <use xlink:href="#DejaVuSans-37"/>
       <use xlink:href="#DejaVuSans-35" x="63.623047"/>
      </g>
     </g>
    </g>
    <g id="xtick_5">
     <g id="line2d_9">
      <path d="M 224.350278 260.45 
L 224.350278 25.8 
" clip-path="url(#pcb65cb7e1f)" style="fill: none; stroke: #b0b0b0; stroke-width: 0.8; stroke-linecap: square"/>
     </g>
     <g id="line2d_10">
      <g>
       <use xlink:href="#mb3d641997e" x="224.350278" y="260.45" style="stroke: #000000; stroke-width: 0.8"/>
      </g>
     </g>
     <g id="text_5">
      <!-- 100 -->
      <g transform="translate(214.806528 275.048437)scale(0.1 -0.1)">
       <defs>
        <path id="DejaVuSans-31" d="M 794 531 
L 1825 531 
L 1825 4091 
L 703 3866 
L 703 4441 
L 1819 4666 
L 2450 4666 
L 2450 531 
L 3481 531 
L 3481 0 
L 794 0 
L 794 531 
z
" transform="scale(0.015625)"/>
       </defs>
       <use xlink:href="#DejaVuSans-31"/>
       <use xlink:href="#DejaVuSans-30" x="63.623047"/>
       <use xlink:href="#DejaVuSans-30" x="127.246094"/>
      </g>
     </g>
    </g>
    <g id="xtick_6">
     <g id="line2d_11">
      <path d="M 271.18316 260.45 
L 271.18316 25.8 
" clip-path="url(#pcb65cb7e1f)" style="fill: none; stroke: #b0b0b0; stroke-width: 0.8; stroke-linecap: square"/>
     </g>
     <g id="line2d_12">
      <g>
       <use xlink:href="#mb3d641997e" x="271.18316" y="260.45" style="stroke: #000000; stroke-width: 0.8"/>
      </g>
     </g>
     <g id="text_6">
      <!-- 125 -->
      <g transform="translate(261.63941 275.048437)scale(0.1 -0.1)">
       <use xlink:href="#DejaVuSans-31"/>
       <use xlink:href="#DejaVuSans-32" x="63.623047"/>
       <use xlink:href="#DejaVuSans-35" x="127.246094"/>
      </g>
     </g>
    </g>
    <g id="xtick_7">
     <g id="line2d_13">
      <path d="M 318.016042 260.45 
L 318.016042 25.8 
" clip-path="url(#pcb65cb7e1f)" style="fill: none; stroke: #b0b0b0; stroke-width: 0.8; stroke-linecap: square"/>
     </g>
     <g id="line2d_14">
      <g>
       <use xlink:href="#mb3d641997e" x="318.016042" y="260.45" style="stroke: #000000; stroke-width: 0.8"/>
      </g>
     </g>
     <g id="text_7">
      <!-- 150 -->
      <g transform="translate(308.472292 275.048437)scale(0.1 -0.1)">
       <use xlink:href="#DejaVuSans-31"/>
       <use xlink:href="#DejaVuSans-35" x="63.623047"/>
       <use xlink:href="#DejaVuSans-30" x="127.246094"/>
      </g>
     </g>
    </g>
    <g id="xtick_8">
     <g id="line2d_15">
      <path d="M 364.848924 260.45 
L 364.848924 25.8 
" clip-path="url(#pcb65cb7e1f)" style="fill: none; stroke: #b0b0b0; stroke-width: 0.8; stroke-linecap: square"/>
     </g>
     <g id="line2d_16">
      <g>
       <use xlink:href="#mb3d641997e" x="364.848924" y="260.45" style="stroke: #000000; stroke-width: 0.8"/>
      </g>
     </g>
     <g id="text_8">
      <!-- 175 -->
      <g transform="translate(355.305174 275.048437)scale(0.1 -0.1)">
       <use xlink:href="#DejaVuSans-31"/>
       <use xlink:href="#DejaVuSans-37" x="63.623047"/>
       <use xlink:href="#DejaVuSans-35" x="127.246094"/>
      </g>
     </g>
    </g>
    <g id="xtick_9">
     <g id="line2d_17">
      <path d="M 411.681806 260.45 
L 411.681806 25.8 
" clip-path="url(#pcb65cb7e1f)" style="fill: none; stroke: #b0b0b0; stroke-width: 0.8; stroke-linecap: square"/>
     </g>
     <g id="line2d_18">
      <g>
       <use xlink:href="#mb3d641997e" x="411.681806" y="260.45" style="stroke: #000000; stroke-width: 0.8"/>
      </g>
     </g>
     <g id="text_9">
      <!-- 200 -->
      <g transform="translate(402.138056 275.048437)scale(0.1 -0.1)">
       <use xlink:href="#DejaVuSans-32"/>
       <use xlink:href="#DejaVuSans-30" x="63.623047"/>
       <use xlink:href="#DejaVuSans-30" x="127.246094"/>
      </g>
     </g>
    </g>
   </g>
   <g id="matplotlib.axis_2">
    <g id="ytick_1">
     <g id="line2d_19">
      <path d="M 37.01875 260.45 
L 415.60565 260.45 
" clip-path="url(#pcb65cb7e1f)" style="fill: none; stroke: #b0b0b0; stroke-width: 0.8; stroke-linecap: square"/>
     </g>
     <g id="line2d_20">
      <defs>
       <path id="m41ae4d94c8" d="M 0 0 
L -3.5 0 
" style="stroke: #000000; stroke-width: 0.8"/>
      </defs>
      <g>
       <use xlink:href="#m41ae4d94c8" x="37.01875" y="260.45" style="stroke: #000000; stroke-width: 0.8"/>
      </g>
     </g>
     <g id="text_10">
      <!-- 0 -->
      <g transform="translate(23.65625 264.249219)scale(0.1 -0.1)">
       <use xlink:href="#DejaVuSans-30"/>
      </g>
     </g>
    </g>
    <g id="ytick_2">
     <g id="line2d_21">
      <path d="M 37.01875 216.39806 
L 415.60565 216.39806 
" clip-path="url(#pcb65cb7e1f)" style="fill: none; stroke: #b0b0b0; stroke-width: 0.8; stroke-linecap: square"/>
     </g>
     <g id="line2d_22">
      <g>
       <use xlink:href="#m41ae4d94c8" x="37.01875" y="216.39806" style="stroke: #000000; stroke-width: 0.8"/>
      </g>
     </g>
     <g id="text_11">
      <!-- 50 -->
      <g transform="translate(17.29375 220.197279)scale(0.1 -0.1)">
       <use xlink:href="#DejaVuSans-35"/>
       <use xlink:href="#DejaVuSans-30" x="63.623047"/>
      </g>
     </g>
    </g>
    <g id="ytick_3">
     <g id="line2d_23">
      <path d="M 37.01875 172.34612 
L 415.60565 172.34612 
" clip-path="url(#pcb65cb7e1f)" style="fill: none; stroke: #b0b0b0; stroke-width: 0.8; stroke-linecap: square"/>
     </g>
     <g id="line2d_24">
      <g>
       <use xlink:href="#m41ae4d94c8" x="37.01875" y="172.34612" style="stroke: #000000; stroke-width: 0.8"/>
      </g>
     </g>
     <g id="text_12">
      <!-- 100 -->
      <g transform="translate(10.93125 176.145339)scale(0.1 -0.1)">
       <use xlink:href="#DejaVuSans-31"/>
       <use xlink:href="#DejaVuSans-30" x="63.623047"/>
       <use xlink:href="#DejaVuSans-30" x="127.246094"/>
      </g>
     </g>
    </g>
    <g id="ytick_4">
     <g id="line2d_25">
      <path d="M 37.01875 128.29418 
L 415.60565 128.29418 
" clip-path="url(#pcb65cb7e1f)" style="fill: none; stroke: #b0b0b0; stroke-width: 0.8; stroke-linecap: square"/>
     </g>
     <g id="line2d_26">
      <g>
       <use xlink:href="#m41ae4d94c8" x="37.01875" y="128.29418" style="stroke: #000000; stroke-width: 0.8"/>
      </g>
     </g>
     <g id="text_13">
      <!-- 150 -->
      <g transform="translate(10.93125 132.093399)scale(0.1 -0.1)">
       <use xlink:href="#DejaVuSans-31"/>
       <use xlink:href="#DejaVuSans-35" x="63.623047"/>
       <use xlink:href="#DejaVuSans-30" x="127.246094"/>
      </g>
     </g>
    </g>
    <g id="ytick_5">
     <g id="line2d_27">
      <path d="M 37.01875 84.24224 
L 415.60565 84.24224 
" clip-path="url(#pcb65cb7e1f)" style="fill: none; stroke: #b0b0b0; stroke-width: 0.8; stroke-linecap: square"/>
     </g>
     <g id="line2d_28">
      <g>
       <use xlink:href="#m41ae4d94c8" x="37.01875" y="84.24224" style="stroke: #000000; stroke-width: 0.8"/>
      </g>
     </g>
     <g id="text_14">
      <!-- 200 -->
      <g transform="translate(10.93125 88.041459)scale(0.1 -0.1)">
       <use xlink:href="#DejaVuSans-32"/>
       <use xlink:href="#DejaVuSans-30" x="63.623047"/>
       <use xlink:href="#DejaVuSans-30" x="127.246094"/>
      </g>
     </g>
    </g>
    <g id="ytick_6">
     <g id="line2d_29">
      <path d="M 37.01875 40.1903 
L 415.60565 40.1903 
" clip-path="url(#pcb65cb7e1f)" style="fill: none; stroke: #b0b0b0; stroke-width: 0.8; stroke-linecap: square"/>
     </g>
     <g id="line2d_30">
      <g>
       <use xlink:href="#m41ae4d94c8" x="37.01875" y="40.1903" style="stroke: #000000; stroke-width: 0.8"/>
      </g>
     </g>
     <g id="text_15">
      <!-- 250 -->
      <g transform="translate(10.93125 43.989519)scale(0.1 -0.1)">
       <use xlink:href="#DejaVuSans-32"/>
       <use xlink:href="#DejaVuSans-35" x="63.623047"/>
       <use xlink:href="#DejaVuSans-30" x="127.246094"/>
      </g>
     </g>
    </g>
   </g>
   <g id="line2d_31">
    <path d="M 39.259375 259.568961 
L 40.942662 258.687922 
L 43.295416 257.806884 
L 46.779041 256.925845 
L 48.508529 256.044806 
L 52.164389 255.163767 
L 53.639064 254.282728 
L 57.158957 253.40169 
L 58.191244 252.520651 
L 61.966285 250.758573 
L 62.875083 249.877534 
L 63.953212 248.996496 
L 64.61479 248.115457 
L 68.780152 247.234418 
L 69.154815 246.353379 
L 75.099401 245.47234 
L 75.695783 244.591302 
L 76.601722 243.710263 
L 77.81834 242.829224 
L 83.889955 241.067146 
L 88.097402 238.42403 
L 89.031946 237.542991 
L 93.899296 236.661952 
L 97.286941 235.780914 
L 97.661604 234.899875 
L 98.195993 234.018836 
L 98.570656 233.137797 
L 100.323654 232.256758 
L 100.698318 231.37572 
L 101.222235 230.494681 
L 104.570763 229.613642 
L 110.472024 228.732603 
L 113.292833 227.851564 
L 113.667496 226.970526 
L 121.221522 225.208448 
L 128.424835 224.327409 
L 129.626959 223.44637 
L 135.657613 221.684293 
L 136.817063 220.803254 
L 138.193883 219.922215 
L 141.034833 219.041176 
L 143.162805 218.160138 
L 143.537468 217.279099 
L 145.787511 216.39806 
L 147.700975 215.517021 
L 149.335108 214.635982 
L 149.709771 213.754944 
L 151.068981 212.873905 
L 156.491144 211.992866 
L 159.153808 211.111827 
L 160.535991 210.230788 
L 160.910654 209.34975 
L 161.748985 208.468711 
L 162.951081 207.587672 
L 163.526714 206.706633 
L 163.912998 205.825594 
L 169.202388 204.063517 
L 170.343391 203.182478 
L 170.800571 202.301439 
L 172.374783 201.420401 
L 173.498772 198.777284 
L 175.217349 197.896245 
L 175.592012 197.015207 
L 177.295105 196.134168 
L 177.766135 195.253129 
L 179.563671 194.37209 
L 180.478892 193.491051 
L 185.870134 192.610013 
L 190.232923 191.728974 
L 192.378129 190.847935 
L 193.497896 189.966896 
L 194.332493 189.085857 
L 196.111196 188.204819 
L 197.187476 187.32378 
L 201.545465 186.442741 
L 203.786152 185.561702 
L 204.535478 183.799625 
L 210.655393 182.918586 
L 216.778032 180.275469 
L 217.57163 178.513392 
L 218.402266 177.632353 
L 218.776929 176.751314 
L 221.262952 175.870275 
L 221.972867 174.989237 
L 223.726405 174.108198 
L 225.309759 172.34612 
L 226.891638 171.465081 
L 227.266301 170.584043 
L 228.046551 169.703004 
L 229.930865 168.821965 
L 238.275542 167.940926 
L 244.256937 167.059887 
L 244.6316 166.178849 
L 246.440214 165.29781 
L 246.879135 164.416771 
L 248.767473 163.535732 
L 249.142136 162.654693 
L 259.138172 161.773655 
L 261.121531 160.892616 
L 262.754904 160.011577 
L 263.302063 159.130538 
L 264.304408 158.249499 
L 266.686745 156.487422 
L 267.211793 155.606383 
L 269.041767 154.725344 
L 269.41643 153.844305 
L 270.138834 152.963267 
L 270.513497 152.082228 
L 274.462813 150.32015 
L 275.177587 149.439111 
L 275.55225 148.558073 
L 278.278575 147.677034 
L 278.688608 146.795995 
L 284.284556 145.914956 
L 285.146307 145.033917 
L 287.181232 144.152879 
L 290.403956 143.27184 
L 291.153282 141.509762 
L 292.447577 140.628723 
L 295.856671 139.747685 
L 297.954437 138.866646 
L 298.3291 137.985607 
L 311.861282 136.223529 
L 315.805213 135.342491 
L 318.324673 133.580413 
L 325.371948 132.699374 
L 325.746611 131.818335 
L 327.218673 130.937297 
L 328.342562 130.056258 
L 330.860758 129.175219 
L 332.065383 126.532103 
L 332.688092 125.651064 
L 339.97823 124.770025 
L 340.352893 123.888986 
L 341.710396 122.126909 
L 342.938628 121.24587 
L 343.313291 120.364831 
L 345.361316 119.483792 
L 346.078235 118.602753 
L 350.057601 117.721715 
L 351.059608 116.840676 
L 355.750224 115.959637 
L 356.49955 114.197559 
L 358.541244 113.316521 
L 361.667697 111.554443 
L 365.420398 110.673404 
L 365.998156 109.792365 
L 368.718223 108.030288 
L 373.374502 107.149249 
L 373.749165 106.26821 
L 378.318096 105.387171 
L 379.925205 104.506133 
L 380.299868 103.625094 
L 385.050645 102.744055 
L 386.753303 100.100939 
L 388.458482 99.2199 
L 391.919109 98.338861 
L 392.293772 97.457822 
L 394.13545 96.576783 
L 396.495703 95.695745 
L 399.945005 94.814706 
L 401.161109 93.052628 
L 401.540175 92.171589 
L 402.490321 91.290551 
L 405.652339 89.528473 
L 406.401665 87.766395 
L 409.33585 86.885357 
L 410.200818 86.004318 
L 410.950144 84.24224 
L 410.950144 84.24224 
" clip-path="url(#pcb65cb7e1f)" style="fill: none; stroke: #1f77b4; stroke-width: 1.5; stroke-linecap: square"/>
   </g>
   <g id="line2d_32">
    <path d="M 38.509674 259.568961 
L 40.192961 258.687922 
L 42.545715 257.806884 
L 46.02934 256.925845 
L 47.758828 256.044806 
L 51.414688 255.163767 
L 52.889364 254.282728 
L 56.409256 253.40169 
L 57.441543 252.520651 
L 61.216584 250.758573 
L 62.125382 249.877534 
L 63.203511 248.996496 
L 63.865089 248.115457 
L 68.030452 247.234418 
L 68.139825 246.353379 
L 74.3497 245.47234 
L 74.946082 244.591302 
L 75.852021 243.710263 
L 77.068639 242.829224 
L 83.140255 241.067146 
L 87.347701 238.42403 
L 88.282246 237.542991 
L 93.149595 236.661952 
L 96.537241 235.780914 
L 96.675276 234.899875 
L 97.446292 234.018836 
L 97.617065 233.137797 
L 99.573954 232.256758 
L 99.612217 231.37572 
L 100.472534 230.494681 
L 103.821062 229.613642 
L 109.722323 228.732603 
L 112.543132 227.851564 
L 112.826435 226.970526 
L 120.471821 225.208448 
L 127.675134 224.327409 
L 128.877258 223.44637 
L 134.907912 221.684293 
L 136.067362 220.803254 
L 137.444183 219.922215 
L 140.285133 219.041176 
L 142.413104 218.160138 
L 142.648907 217.279099 
L 145.03781 216.39806 
L 146.951274 215.517021 
L 148.585407 214.635982 
L 148.875264 213.754944 
L 150.319281 212.873905 
L 155.741443 211.992866 
L 158.404107 211.111827 
L 159.78629 210.230788 
L 159.996001 209.34975 
L 160.999284 208.468711 
L 162.20138 207.587672 
L 162.777013 206.706633 
L 163.163297 205.825594 
L 168.452687 204.063517 
L 169.593691 203.182478 
L 170.05087 202.301439 
L 171.625082 201.420401 
L 171.897234 200.539362 
L 171.932768 199.658323 
L 172.666678 198.777284 
L 174.467648 197.896245 
L 174.771381 197.015207 
L 176.545404 196.134168 
L 177.016434 195.253129 
L 178.81397 194.37209 
L 179.729191 193.491051 
L 185.120433 192.610013 
L 189.483222 191.728974 
L 191.628429 190.847935 
L 192.748196 189.966896 
L 193.582792 189.085857 
L 195.361495 188.204819 
L 196.437775 187.32378 
L 200.795764 186.442741 
L 203.036451 185.561702 
L 203.348689 183.799625 
L 209.905693 182.918586 
L 216.028331 180.275469 
L 216.821929 178.513392 
L 217.652565 177.632353 
L 217.911136 176.751314 
L 220.513251 175.870275 
L 221.223166 174.989237 
L 222.976705 174.108198 
L 224.560058 172.34612 
L 226.141937 171.465081 
L 226.21534 170.584043 
L 227.29685 169.703004 
L 229.181164 168.821965 
L 237.525841 167.940926 
L 243.507237 167.059887 
L 243.708871 166.178849 
L 245.690513 165.29781 
L 246.129434 164.416771 
L 248.017772 163.535732 
L 248.347313 162.654693 
L 258.388471 161.773655 
L 260.37183 160.892616 
L 262.005204 160.011577 
L 262.552363 159.130538 
L 263.554707 158.249499 
L 265.937045 156.487422 
L 266.462092 155.606383 
L 268.292066 154.725344 
L 268.616389 153.844305 
L 269.389133 152.963267 
L 269.608228 152.082228 
L 273.713112 150.32015 
L 274.427887 149.439111 
L 274.706471 148.558073 
L 277.528874 147.677034 
L 277.938907 146.795995 
L 283.534855 145.914956 
L 284.396606 145.033917 
L 286.431532 144.152879 
L 289.654255 143.27184 
L 289.679853 142.390801 
L 289.871203 141.509762 
L 291.697876 140.628723 
L 295.106971 139.747685 
L 297.204736 138.866646 
L 297.394006 137.985607 
L 311.111582 136.223529 
L 315.055512 135.342491 
L 317.574972 133.580413 
L 324.622248 132.699374 
L 324.729639 131.818335 
L 326.468972 130.937297 
L 327.592862 130.056258 
L 330.111057 129.175219 
L 330.223768 127.413141 
L 331.315683 126.532103 
L 331.938392 125.651064 
L 339.228529 124.770025 
L 339.46842 123.888986 
L 340.302831 123.007947 
L 340.960695 122.126909 
L 342.188927 121.24587 
L 342.425693 120.364831 
L 344.611615 119.483792 
L 345.328534 118.602753 
L 349.3079 117.721715 
L 350.309907 116.840676 
L 355.000524 115.959637 
L 355.12472 115.078598 
L 355.582549 114.197559 
L 357.791543 113.316521 
L 360.917996 111.554443 
L 364.670697 110.673404 
L 365.248455 109.792365 
L 367.968522 108.030288 
L 372.624801 107.149249 
L 372.809604 106.26821 
L 377.568396 105.387171 
L 379.175505 104.506133 
L 379.338053 103.625094 
L 384.300945 102.744055 
L 385.628939 100.981977 
L 385.64655 100.100939 
L 387.708781 99.2199 
L 391.169408 98.338861 
L 391.434165 97.457822 
L 393.385749 96.576783 
L 395.746002 95.695745 
L 399.195305 94.814706 
L 400.411408 93.052628 
L 400.790474 92.171589 
L 401.74062 91.290551 
L 404.902639 89.528473 
L 404.94069 88.647434 
L 405.278359 87.766395 
L 408.586149 86.885357 
L 409.451117 86.004318 
L 409.459934 85.123279 
L 409.756557 84.24224 
L 409.756557 84.24224 
" clip-path="url(#pcb65cb7e1f)" style="fill: none; stroke: #ff7f0e; stroke-width: 1.5; stroke-linecap: square"/>
   </g>
   <g id="patch_3">
    <path d="M 37.01875 260.45 
L 37.01875 25.8 
" style="fill: none; stroke: #000000; stroke-width: 0.8; stroke-linejoin: miter; stroke-linecap: square"/>
   </g>
   <g id="patch_4">
    <path d="M 415.60565 260.45 
L 415.60565 25.8 
" style="fill: none; stroke: #000000; stroke-width: 0.8; stroke-linejoin: miter; stroke-linecap: square"/>
   </g>
   <g id="patch_5">
    <path d="M 37.01875 260.45 
L 415.60565 260.45 
" style="fill: none; stroke: #000000; stroke-width: 0.8; stroke-linejoin: miter; stroke-linecap: square"/>
   </g>
   <g id="patch_6">
    <path d="M 37.01875 25.8 
L 415.60565 25.8 
" style="fill: none; stroke: #000000; stroke-width: 0.8; stroke-linejoin: miter; stroke-linecap: square"/>
   </g>
   <g id="text_16">
    <!-- Sent_vs_recived_packets -->
    <g transform="translate(151.726575 19.8)scale(0.12 -0.12)">
     <defs>
      <path id="DejaVuSans-53" d="M 3425 4513 
L 3425 3897 
Q 3066 4069 2747 4153 
Q 2428 4238 2131 4238 
Q 1616 4238 1336 4038 
Q 1056 3838 1056 3469 
Q 1056 3159 1242 3001 
Q 1428 2844 1947 2747 
L 2328 2669 
Q 3034 2534 3370 2195 
Q 3706 1856 3706 1288 
Q 3706 609 3251 259 
Q 2797 -91 1919 -91 
Q 1588 -91 1214 -16 
Q 841 59 441 206 
L 441 856 
Q 825 641 1194 531 
Q 1563 422 1919 422 
Q 2459 422 2753 634 
Q 3047 847 3047 1241 
Q 3047 1584 2836 1778 
Q 2625 1972 2144 2069 
L 1759 2144 
Q 1053 2284 737 2584 
Q 422 2884 422 3419 
Q 422 4038 858 4394 
Q 1294 4750 2059 4750 
Q 2388 4750 2728 4690 
Q 3069 4631 3425 4513 
z
" transform="scale(0.015625)"/>
      <path id="DejaVuSans-65" d="M 3597 1894 
L 3597 1613 
L 953 1613 
Q 991 1019 1311 708 
Q 1631 397 2203 397 
Q 2534 397 2845 478 
Q 3156 559 3463 722 
L 3463 178 
Q 3153 47 2828 -22 
Q 2503 -91 2169 -91 
Q 1331 -91 842 396 
Q 353 884 353 1716 
Q 353 2575 817 3079 
Q 1281 3584 2069 3584 
Q 2775 3584 3186 3129 
Q 3597 2675 3597 1894 
z
M 3022 2063 
Q 3016 2534 2758 2815 
Q 2500 3097 2075 3097 
Q 1594 3097 1305 2825 
Q 1016 2553 972 2059 
L 3022 2063 
z
" transform="scale(0.015625)"/>
      <path id="DejaVuSans-6e" d="M 3513 2113 
L 3513 0 
L 2938 0 
L 2938 2094 
Q 2938 2591 2744 2837 
Q 2550 3084 2163 3084 
Q 1697 3084 1428 2787 
Q 1159 2491 1159 1978 
L 1159 0 
L 581 0 
L 581 3500 
L 1159 3500 
L 1159 2956 
Q 1366 3272 1645 3428 
Q 1925 3584 2291 3584 
Q 2894 3584 3203 3211 
Q 3513 2838 3513 2113 
z
" transform="scale(0.015625)"/>
      <path id="DejaVuSans-74" d="M 1172 4494 
L 1172 3500 
L 2356 3500 
L 2356 3053 
L 1172 3053 
L 1172 1153 
Q 1172 725 1289 603 
Q 1406 481 1766 481 
L 2356 481 
L 2356 0 
L 1766 0 
Q 1100 0 847 248 
Q 594 497 594 1153 
L 594 3053 
L 172 3053 
L 172 3500 
L 594 3500 
L 594 4494 
L 1172 4494 
z
" transform="scale(0.015625)"/>
      <path id="DejaVuSans-5f" d="M 3263 -1063 
L 3263 -1509 
L -63 -1509 
L -63 -1063 
L 3263 -1063 
z
" transform="scale(0.015625)"/>
      <path id="DejaVuSans-76" d="M 191 3500 
L 800 3500 
L 1894 563 
L 2988 3500 
L 3597 3500 
L 2284 0 
L 1503 0 
L 191 3500 
z
" transform="scale(0.015625)"/>
      <path id="DejaVuSans-73" d="M 2834 3397 
L 2834 2853 
Q 2591 2978 2328 3040 
Q 2066 3103 1784 3103 
Q 1356 3103 1142 2972 
Q 928 2841 928 2578 
Q 928 2378 1081 2264 
Q 1234 2150 1697 2047 
L 1894 2003 
Q 2506 1872 2764 1633 
Q 3022 1394 3022 966 
Q 3022 478 2636 193 
Q 2250 -91 1575 -91 
Q 1294 -91 989 -36 
Q 684 19 347 128 
L 347 722 
Q 666 556 975 473 
Q 1284 391 1588 391 
Q 1994 391 2212 530 
Q 2431 669 2431 922 
Q 2431 1156 2273 1281 
Q 2116 1406 1581 1522 
L 1381 1569 
Q 847 1681 609 1914 
Q 372 2147 372 2553 
Q 372 3047 722 3315 
Q 1072 3584 1716 3584 
Q 2034 3584 2315 3537 
Q 2597 3491 2834 3397 
z
" transform="scale(0.015625)"/>
      <path id="DejaVuSans-72" d="M 2631 2963 
Q 2534 3019 2420 3045 
Q 2306 3072 2169 3072 
Q 1681 3072 1420 2755 
Q 1159 2438 1159 1844 
L 1159 0 
L 581 0 
L 581 3500 
L 1159 3500 
L 1159 2956 
Q 1341 3275 1631 3429 
Q 1922 3584 2338 3584 
Q 2397 3584 2469 3576 
Q 2541 3569 2628 3553 
L 2631 2963 
z
" transform="scale(0.015625)"/>
      <path id="DejaVuSans-63" d="M 3122 3366 
L 3122 2828 
Q 2878 2963 2633 3030 
Q 2388 3097 2138 3097 
Q 1578 3097 1268 2742 
Q 959 2388 959 1747 
Q 959 1106 1268 751 
Q 1578 397 2138 397 
Q 2388 397 2633 464 
Q 2878 531 3122 666 
L 3122 134 
Q 2881 22 2623 -34 
Q 2366 -91 2075 -91 
Q 1284 -91 818 406 
Q 353 903 353 1747 
Q 353 2603 823 3093 
Q 1294 3584 2113 3584 
Q 2378 3584 2631 3529 
Q 2884 3475 3122 3366 
z
" transform="scale(0.015625)"/>
      <path id="DejaVuSans-69" d="M 603 3500 
L 1178 3500 
L 1178 0 
L 603 0 
L 603 3500 
z
M 603 4863 
L 1178 4863 
L 1178 4134 
L 603 4134 
L 603 4863 
z
" transform="scale(0.015625)"/>
      <path id="DejaVuSans-64" d="M 2906 2969 
L 2906 4863 
L 3481 4863 
L 3481 0 
L 2906 0 
L 2906 525 
Q 2725 213 2448 61 
Q 2172 -91 1784 -91 
Q 1150 -91 751 415 
Q 353 922 353 1747 
Q 353 2572 751 3078 
Q 1150 3584 1784 3584 
Q 2172 3584 2448 3432 
Q 2725 3281 2906 2969 
z
M 947 1747 
Q 947 1113 1208 752 
Q 1469 391 1925 391 
Q 2381 391 2643 752 
Q 2906 1113 2906 1747 
Q 2906 2381 2643 2742 
Q 2381 3103 1925 3103 
Q 1469 3103 1208 2742 
Q 947 2381 947 1747 
z
" transform="scale(0.015625)"/>
      <path id="DejaVuSans-70" d="M 1159 525 
L 1159 -1331 
L 581 -1331 
L 581 3500 
L 1159 3500 
L 1159 2969 
Q 1341 3281 1617 3432 
Q 1894 3584 2278 3584 
Q 2916 3584 3314 3078 
Q 3713 2572 3713 1747 
Q 3713 922 3314 415 
Q 2916 -91 2278 -91 
Q 1894 -91 1617 61 
Q 1341 213 1159 525 
z
M 3116 1747 
Q 3116 2381 2855 2742 
Q 2594 3103 2138 3103 
Q 1681 3103 1420 2742 
Q 1159 2381 1159 1747 
Q 1159 1113 1420 752 
Q 1681 391 2138 391 
Q 2594 391 2855 752 
Q 3116 1113 3116 1747 
z
" transform="scale(0.015625)"/>
      <path id="DejaVuSans-61" d="M 2194 1759 
Q 1497 1759 1228 1600 
Q 959 1441 959 1056 
Q 959 750 1161 570 
Q 1363 391 1709 391 
Q 2188 391 2477 730 
Q 2766 1069 2766 1631 
L 2766 1759 
L 2194 1759 
z
M 3341 1997 
L 3341 0 
L 2766 0 
L 2766 531 
Q 2569 213 2275 61 
Q 1981 -91 1556 -91 
Q 1019 -91 701 211 
Q 384 513 384 1019 
Q 384 1609 779 1909 
Q 1175 2209 1959 2209 
L 2766 2209 
L 2766 2266 
Q 2766 2663 2505 2880 
Q 2244 3097 1772 3097 
Q 1472 3097 1187 3025 
Q 903 2953 641 2809 
L 641 3341 
Q 956 3463 1253 3523 
Q 1550 3584 1831 3584 
Q 2591 3584 2966 3190 
Q 3341 2797 3341 1997 
z
" transform="scale(0.015625)"/>
      <path id="DejaVuSans-6b" d="M 581 4863 
L 1159 4863 
L 1159 1991 
L 2875 3500 
L 3609 3500 
L 1753 1863 
L 3688 0 
L 2938 0 
L 1159 1709 
L 1159 0 
L 581 0 
L 581 4863 
z
" transform="scale(0.015625)"/>
     </defs>
     <use xlink:href="#DejaVuSans-53"/>
     <use xlink:href="#DejaVuSans-65" x="63.476562"/>
     <use xlink:href="#DejaVuSans-6e" x="125"/>
     <use xlink:href="#DejaVuSans-74" x="188.378906"/>
     <use xlink:href="#DejaVuSans-5f" x="227.587891"/>
     <use xlink:href="#DejaVuSans-76" x="277.587891"/>
     <use xlink:href="#DejaVuSans-73" x="336.767578"/>
     <use xlink:href="#DejaVuSans-5f" x="388.867188"/>
     <use xlink:href="#DejaVuSans-72" x="438.867188"/>
     <use xlink:href="#DejaVuSans-65" x="477.730469"/>
     <use xlink:href="#DejaVuSans-63" x="539.253906"/>
     <use xlink:href="#DejaVuSans-69" x="594.234375"/>
     <use xlink:href="#DejaVuSans-76" x="622.017578"/>
     <use xlink:href="#DejaVuSans-65" x="681.197266"/>
     <use xlink:href="#DejaVuSans-64" x="742.720703"/>
     <use xlink:href="#DejaVuSans-5f" x="806.197266"/>
     <use xlink:href="#DejaVuSans-70" x="856.197266"/>
     <use xlink:href="#DejaVuSans-61" x="919.673828"/>
     <use xlink:href="#DejaVuSans-63" x="980.953125"/>
     <use xlink:href="#DejaVuSans-6b" x="1035.933594"/>
     <use xlink:href="#DejaVuSans-65" x="1090.21875"/>
     <use xlink:href="#DejaVuSans-74" x="1151.742188"/>
     <use xlink:href="#DejaVuSans-73" x="1190.951172"/>
    </g>
   </g>
   <g id="legend_1">
    <g id="patch_7">
     <path d="M 167.71815 63.15625 
L 408.60565 63.15625 
Q 410.60565 63.15625 410.60565 61.15625 
L 410.60565 32.8 
Q 410.60565 30.8 408.60565 30.8 
L 167.71815 30.8 
Q 165.71815 30.8 165.71815 32.8 
L 165.71815 61.15625 
Q 165.71815 63.15625 167.71815 63.15625 
z
" style="fill: #ffffff; opacity: 0.8; stroke: #cccccc; stroke-linejoin: miter"/>
    </g>
    <g id="line2d_33">
     <path d="M 169.71815 38.898437 
L 179.71815 38.898437 
L 189.71815 38.898437 
" style="fill: none; stroke: #1f77b4; stroke-width: 1.5; stroke-linecap: square"/>
    </g>
    <g id="text_17">
     <!-- Received packets in Network.nodeRx.sink -->
     <g transform="translate(197.71815 42.398437)scale(0.1 -0.1)">
      <defs>
       <path id="DejaVuSans-52" d="M 2841 2188 
Q 3044 2119 3236 1894 
Q 3428 1669 3622 1275 
L 4263 0 
L 3584 0 
L 2988 1197 
Q 2756 1666 2539 1819 
Q 2322 1972 1947 1972 
L 1259 1972 
L 1259 0 
L 628 0 
L 628 4666 
L 2053 4666 
Q 2853 4666 3247 4331 
Q 3641 3997 3641 3322 
Q 3641 2881 3436 2590 
Q 3231 2300 2841 2188 
z
M 1259 4147 
L 1259 2491 
L 2053 2491 
Q 2509 2491 2742 2702 
Q 2975 2913 2975 3322 
Q 2975 3731 2742 3939 
Q 2509 4147 2053 4147 
L 1259 4147 
z
" transform="scale(0.015625)"/>
       <path id="DejaVuSans-20" transform="scale(0.015625)"/>
       <path id="DejaVuSans-4e" d="M 628 4666 
L 1478 4666 
L 3547 763 
L 3547 4666 
L 4159 4666 
L 4159 0 
L 3309 0 
L 1241 3903 
L 1241 0 
L 628 0 
L 628 4666 
z
" transform="scale(0.015625)"/>
       <path id="DejaVuSans-77" d="M 269 3500 
L 844 3500 
L 1563 769 
L 2278 3500 
L 2956 3500 
L 3675 769 
L 4391 3500 
L 4966 3500 
L 4050 0 
L 3372 0 
L 2619 2869 
L 1863 0 
L 1184 0 
L 269 3500 
z
" transform="scale(0.015625)"/>
       <path id="DejaVuSans-6f" d="M 1959 3097 
Q 1497 3097 1228 2736 
Q 959 2375 959 1747 
Q 959 1119 1226 758 
Q 1494 397 1959 397 
Q 2419 397 2687 759 
Q 2956 1122 2956 1747 
Q 2956 2369 2687 2733 
Q 2419 3097 1959 3097 
z
M 1959 3584 
Q 2709 3584 3137 3096 
Q 3566 2609 3566 1747 
Q 3566 888 3137 398 
Q 2709 -91 1959 -91 
Q 1206 -91 779 398 
Q 353 888 353 1747 
Q 353 2609 779 3096 
Q 1206 3584 1959 3584 
z
" transform="scale(0.015625)"/>
       <path id="DejaVuSans-2e" d="M 684 794 
L 1344 794 
L 1344 0 
L 684 0 
L 684 794 
z
" transform="scale(0.015625)"/>
       <path id="DejaVuSans-78" d="M 3513 3500 
L 2247 1797 
L 3578 0 
L 2900 0 
L 1881 1375 
L 863 0 
L 184 0 
L 1544 1831 
L 300 3500 
L 978 3500 
L 1906 2253 
L 2834 3500 
L 3513 3500 
z
" transform="scale(0.015625)"/>
      </defs>
      <use xlink:href="#DejaVuSans-52"/>
      <use xlink:href="#DejaVuSans-65" x="64.982422"/>
      <use xlink:href="#DejaVuSans-63" x="126.505859"/>
      <use xlink:href="#DejaVuSans-65" x="181.486328"/>
      <use xlink:href="#DejaVuSans-69" x="243.009766"/>
      <use xlink:href="#DejaVuSans-76" x="270.792969"/>
      <use xlink:href="#DejaVuSans-65" x="329.972656"/>
      <use xlink:href="#DejaVuSans-64" x="391.496094"/>
      <use xlink:href="#DejaVuSans-20" x="454.972656"/>
      <use xlink:href="#DejaVuSans-70" x="486.759766"/>
      <use xlink:href="#DejaVuSans-61" x="550.236328"/>
      <use xlink:href="#DejaVuSans-63" x="611.515625"/>
      <use xlink:href="#DejaVuSans-6b" x="666.496094"/>
      <use xlink:href="#DejaVuSans-65" x="720.78125"/>
      <use xlink:href="#DejaVuSans-74" x="782.304688"/>
      <use xlink:href="#DejaVuSans-73" x="821.513672"/>
      <use xlink:href="#DejaVuSans-20" x="873.613281"/>
      <use xlink:href="#DejaVuSans-69" x="905.400391"/>
      <use xlink:href="#DejaVuSans-6e" x="933.183594"/>
      <use xlink:href="#DejaVuSans-20" x="996.5625"/>
      <use xlink:href="#DejaVuSans-4e" x="1028.349609"/>
      <use xlink:href="#DejaVuSans-65" x="1103.154297"/>
      <use xlink:href="#DejaVuSans-74" x="1164.677734"/>
      <use xlink:href="#DejaVuSans-77" x="1203.886719"/>
      <use xlink:href="#DejaVuSans-6f" x="1285.673828"/>
      <use xlink:href="#DejaVuSans-72" x="1346.855469"/>
      <use xlink:href="#DejaVuSans-6b" x="1387.96875"/>
      <use xlink:href="#DejaVuSans-2e" x="1445.878906"/>
      <use xlink:href="#DejaVuSans-6e" x="1477.666016"/>
      <use xlink:href="#DejaVuSans-6f" x="1541.044922"/>
      <use xlink:href="#DejaVuSans-64" x="1602.226562"/>
      <use xlink:href="#DejaVuSans-65" x="1665.703125"/>
      <use xlink:href="#DejaVuSans-52" x="1727.226562"/>
      <use xlink:href="#DejaVuSans-78" x="1796.708984"/>
      <use xlink:href="#DejaVuSans-2e" x="1855.888672"/>
      <use xlink:href="#DejaVuSans-73" x="1887.675781"/>
      <use xlink:href="#DejaVuSans-69" x="1939.775391"/>
      <use xlink:href="#DejaVuSans-6e" x="1967.558594"/>
      <use xlink:href="#DejaVuSans-6b" x="2030.9375"/>
     </g>
    </g>
    <g id="line2d_34">
     <path d="M 169.71815 53.576562 
L 179.71815 53.576562 
L 189.71815 53.576562 
" style="fill: none; stroke: #ff7f0e; stroke-width: 1.5; stroke-linecap: square"/>
    </g>
    <g id="text_18">
     <!-- Sent packets in Network.nodeTx.gen -->
     <g transform="translate(197.71815 57.076562)scale(0.1 -0.1)">
      <defs>
       <path id="DejaVuSans-54" d="M -19 4666 
L 3928 4666 
L 3928 4134 
L 2272 4134 
L 2272 0 
L 1638 0 
L 1638 4134 
L -19 4134 
L -19 4666 
z
" transform="scale(0.015625)"/>
       <path id="DejaVuSans-67" d="M 2906 1791 
Q 2906 2416 2648 2759 
Q 2391 3103 1925 3103 
Q 1463 3103 1205 2759 
Q 947 2416 947 1791 
Q 947 1169 1205 825 
Q 1463 481 1925 481 
Q 2391 481 2648 825 
Q 2906 1169 2906 1791 
z
M 3481 434 
Q 3481 -459 3084 -895 
Q 2688 -1331 1869 -1331 
Q 1566 -1331 1297 -1286 
Q 1028 -1241 775 -1147 
L 775 -588 
Q 1028 -725 1275 -790 
Q 1522 -856 1778 -856 
Q 2344 -856 2625 -561 
Q 2906 -266 2906 331 
L 2906 616 
Q 2728 306 2450 153 
Q 2172 0 1784 0 
Q 1141 0 747 490 
Q 353 981 353 1791 
Q 353 2603 747 3093 
Q 1141 3584 1784 3584 
Q 2172 3584 2450 3431 
Q 2728 3278 2906 2969 
L 2906 3500 
L 3481 3500 
L 3481 434 
z
" transform="scale(0.015625)"/>
      </defs>
      <use xlink:href="#DejaVuSans-53"/>
      <use xlink:href="#DejaVuSans-65" x="63.476562"/>
      <use xlink:href="#DejaVuSans-6e" x="125"/>
      <use xlink:href="#DejaVuSans-74" x="188.378906"/>
      <use xlink:href="#DejaVuSans-20" x="227.587891"/>
      <use xlink:href="#DejaVuSans-70" x="259.375"/>
      <use xlink:href="#DejaVuSans-61" x="322.851562"/>
      <use xlink:href="#DejaVuSans-63" x="384.130859"/>
      <use xlink:href="#DejaVuSans-6b" x="439.111328"/>
      <use xlink:href="#DejaVuSans-65" x="493.396484"/>
      <use xlink:href="#DejaVuSans-74" x="554.919922"/>
      <use xlink:href="#DejaVuSans-73" x="594.128906"/>
      <use xlink:href="#DejaVuSans-20" x="646.228516"/>
      <use xlink:href="#DejaVuSans-69" x="678.015625"/>
      <use xlink:href="#DejaVuSans-6e" x="705.798828"/>
      <use xlink:href="#DejaVuSans-20" x="769.177734"/>
      <use xlink:href="#DejaVuSans-4e" x="800.964844"/>
      <use xlink:href="#DejaVuSans-65" x="875.769531"/>
      <use xlink:href="#DejaVuSans-74" x="937.292969"/>
      <use xlink:href="#DejaVuSans-77" x="976.501953"/>
      <use xlink:href="#DejaVuSans-6f" x="1058.289062"/>
      <use xlink:href="#DejaVuSans-72" x="1119.470703"/>
      <use xlink:href="#DejaVuSans-6b" x="1160.583984"/>
      <use xlink:href="#DejaVuSans-2e" x="1218.494141"/>
      <use xlink:href="#DejaVuSans-6e" x="1250.28125"/>
      <use xlink:href="#DejaVuSans-6f" x="1313.660156"/>
      <use xlink:href="#DejaVuSans-64" x="1374.841797"/>
      <use xlink:href="#DejaVuSans-65" x="1438.318359"/>
      <use xlink:href="#DejaVuSans-54" x="1499.841797"/>
      <use xlink:href="#DejaVuSans-78" x="1560.925781"/>
      <use xlink:href="#DejaVuSans-2e" x="1620.105469"/>
      <use xlink:href="#DejaVuSans-67" x="1651.892578"/>
      <use xlink:href="#DejaVuSans-65" x="1715.369141"/>
      <use xlink:href="#DejaVuSans-6e" x="1776.892578"/>
     </g>
    </g>
   </g>
  </g>
 </g>
 <defs>
  <clipPath id="pcb65cb7e1f">
   <rect x="37.01875" y="25.8" width="378.5869" height="234.65"/>
  </clipPath>
 </defs>
</svg>
