<?xml version="1.0" encoding="utf-8" standalone="no"?>
<!DOCTYPE svg PUBLIC "-//W3C//DTD SVG 1.1//EN"
  "http://www.w3.org/Graphics/SVG/1.1/DTD/svg11.dtd">
<svg xmlns:xlink="http://www.w3.org/1999/xlink" width="432pt" height="288pt" viewBox="0 0 432 288" xmlns="http://www.w3.org/2000/svg" version="1.1">
 <metadata>
  <rdf:RDF xmlns:dc="http://purl.org/dc/elements/1.1/" xmlns:cc="http://creativecommons.org/ns#" xmlns:rdf="http://www.w3.org/1999/02/22-rdf-syntax-ns#">
   <cc:Work>
    <dc:type rdf:resource="http://purl.org/dc/dcmitype/StillImage"/>
    <dc:date>2022-05-19T10:29:10.544938</dc:date>
    <dc:format>image/svg+xml</dc:format>
    <dc:creator>
     <cc:Agent>
      <dc:title>omnetpp.scave 6.0.0; Matplotlib 3.5.1 w/ backend GTK3Agg; Pandas 1.4.2; Python 3.8.10; Linux-5.4.0-109-generic-x86_64-with-glibc2.29</dc:title>
     </cc:Agent>
    </dc:creator>
   </cc:Work>
  </rdf:RDF>
 </metadata>
 <defs>
  <style type="text/css">*{stroke-linejoin: round; stroke-linecap: butt}</style>
 </defs>
 <g id="figure_1">
  <g id="patch_1">
   <path d="M 0 288 
L 432 288 
L 432 0 
L 0 0 
z
" style="fill: #ffffff"/>
  </g>
  <g id="axes_1">
   <g id="patch_2">
    <path d="M 45.3625 260.45 
L 416.290178 260.45 
L 416.290178 25.8 
L 45.3625 25.8 
z
" style="fill: #ffffff"/>
   </g>
   <g id="matplotlib.axis_1">
    <g id="xtick_1">
     <g id="line2d_1">
      <path d="M 45.3625 260.45 
L 45.3625 25.8 
" clip-path="url(#p2c1d321a55)" style="fill: none; stroke: #b0b0b0; stroke-width: 0.8; stroke-linecap: square"/>
     </g>
     <g id="line2d_2">
      <defs>
       <path id="m5673bacd4f" d="M 0 0 
L 0 3.5 
" style="stroke: #000000; stroke-width: 0.8"/>
      </defs>
      <g>
       <use xlink:href="#m5673bacd4f" x="45.3625" y="260.45" style="stroke: #000000; stroke-width: 0.8"/>
      </g>
     </g>
     <g id="text_1">
      <!-- 0 -->
      <g transform="translate(42.18125 275.048437)scale(0.1 -0.1)">
       <defs>
        <path id="DejaVuSans-30" d="M 2034 4250 
Q 1547 4250 1301 3770 
Q 1056 3291 1056 2328 
Q 1056 1369 1301 889 
Q 1547 409 2034 409 
Q 2525 409 2770 889 
Q 3016 1369 3016 2328 
Q 3016 3291 2770 3770 
Q 2525 4250 2034 4250 
z
M 2034 4750 
Q 2819 4750 3233 4129 
Q 3647 3509 3647 2328 
Q 3647 1150 3233 529 
Q 2819 -91 2034 -91 
Q 1250 -91 836 529 
Q 422 1150 422 2328 
Q 422 3509 836 4129 
Q 1250 4750 2034 4750 
z
" transform="scale(0.015625)"/>
       </defs>
       <use xlink:href="#DejaVuSans-30"/>
      </g>
     </g>
    </g>
    <g id="xtick_2">
     <g id="line2d_3">
      <path d="M 91.157262 260.45 
L 91.157262 25.8 
" clip-path="url(#p2c1d321a55)" style="fill: none; stroke: #b0b0b0; stroke-width: 0.8; stroke-linecap: square"/>
     </g>
     <g id="line2d_4">
      <g>
       <use xlink:href="#m5673bacd4f" x="91.157262" y="260.45" style="stroke: #000000; stroke-width: 0.8"/>
      </g>
     </g>
     <g id="text_2">
      <!-- 25 -->
      <g transform="translate(84.794762 275.048437)scale(0.1 -0.1)">
       <defs>
        <path id="DejaVuSans-32" d="M 1228 531 
L 3431 531 
L 3431 0 
L 469 0 
L 469 531 
Q 828 903 1448 1529 
Q 2069 2156 2228 2338 
Q 2531 2678 2651 2914 
Q 2772 3150 2772 3378 
Q 2772 3750 2511 3984 
Q 2250 4219 1831 4219 
Q 1534 4219 1204 4116 
Q 875 4013 500 3803 
L 500 4441 
Q 881 4594 1212 4672 
Q 1544 4750 1819 4750 
Q 2544 4750 2975 4387 
Q 3406 4025 3406 3419 
Q 3406 3131 3298 2873 
Q 3191 2616 2906 2266 
Q 2828 2175 2409 1742 
Q 1991 1309 1228 531 
z
" transform="scale(0.015625)"/>
        <path id="DejaVuSans-35" d="M 691 4666 
L 3169 4666 
L 3169 4134 
L 1269 4134 
L 1269 2991 
Q 1406 3038 1543 3061 
Q 1681 3084 1819 3084 
Q 2600 3084 3056 2656 
Q 3513 2228 3513 1497 
Q 3513 744 3044 326 
Q 2575 -91 1722 -91 
Q 1428 -91 1123 -41 
Q 819 9 494 109 
L 494 744 
Q 775 591 1075 516 
Q 1375 441 1709 441 
Q 2250 441 2565 725 
Q 2881 1009 2881 1497 
Q 2881 1984 2565 2268 
Q 2250 2553 1709 2553 
Q 1456 2553 1204 2497 
Q 953 2441 691 2322 
L 691 4666 
z
" transform="scale(0.015625)"/>
       </defs>
       <use xlink:href="#DejaVuSans-32"/>
       <use xlink:href="#DejaVuSans-35" x="63.623047"/>
      </g>
     </g>
    </g>
    <g id="xtick_3">
     <g id="line2d_5">
      <path d="M 136.952025 260.45 
L 136.952025 25.8 
" clip-path="url(#p2c1d321a55)" style="fill: none; stroke: #b0b0b0; stroke-width: 0.8; stroke-linecap: square"/>
     </g>
     <g id="line2d_6">
      <g>
       <use xlink:href="#m5673bacd4f" x="136.952025" y="260.45" style="stroke: #000000; stroke-width: 0.8"/>
      </g>
     </g>
     <g id="text_3">
      <!-- 50 -->
      <g transform="translate(130.589525 275.048437)scale(0.1 -0.1)">
       <use xlink:href="#DejaVuSans-35"/>
       <use xlink:href="#DejaVuSans-30" x="63.623047"/>
      </g>
     </g>
    </g>
    <g id="xtick_4">
     <g id="line2d_7">
      <path d="M 182.746787 260.45 
L 182.746787 25.8 
" clip-path="url(#p2c1d321a55)" style="fill: none; stroke: #b0b0b0; stroke-width: 0.8; stroke-linecap: square"/>
     </g>
     <g id="line2d_8">
      <g>
       <use xlink:href="#m5673bacd4f" x="182.746787" y="260.45" style="stroke: #000000; stroke-width: 0.8"/>
      </g>
     </g>
     <g id="text_4">
      <!-- 75 -->
      <g transform="translate(176.384287 275.048437)scale(0.1 -0.1)">
       <defs>
        <path id="DejaVuSans-37" d="M 525 4666 
L 3525 4666 
L 3525 4397 
L 1831 0 
L 1172 0 
L 2766 4134 
L 525 4134 
L 525 4666 
z
" transform="scale(0.015625)"/>
       </defs>
       <use xlink:href="#DejaVuSans-37"/>
       <use xlink:href="#DejaVuSans-35" x="63.623047"/>
      </g>
     </g>
    </g>
    <g id="xtick_5">
     <g id="line2d_9">
      <path d="M 228.54155 260.45 
L 228.54155 25.8 
" clip-path="url(#p2c1d321a55)" style="fill: none; stroke: #b0b0b0; stroke-width: 0.8; stroke-linecap: square"/>
     </g>
     <g id="line2d_10">
      <g>
       <use xlink:href="#m5673bacd4f" x="228.54155" y="260.45" style="stroke: #000000; stroke-width: 0.8"/>
      </g>
     </g>
     <g id="text_5">
      <!-- 100 -->
      <g transform="translate(218.9978 275.048437)scale(0.1 -0.1)">
       <defs>
        <path id="DejaVuSans-31" d="M 794 531 
L 1825 531 
L 1825 4091 
L 703 3866 
L 703 4441 
L 1819 4666 
L 2450 4666 
L 2450 531 
L 3481 531 
L 3481 0 
L 794 0 
L 794 531 
z
" transform="scale(0.015625)"/>
       </defs>
       <use xlink:href="#DejaVuSans-31"/>
       <use xlink:href="#DejaVuSans-30" x="63.623047"/>
       <use xlink:href="#DejaVuSans-30" x="127.246094"/>
      </g>
     </g>
    </g>
    <g id="xtick_6">
     <g id="line2d_11">
      <path d="M 274.336312 260.45 
L 274.336312 25.8 
" clip-path="url(#p2c1d321a55)" style="fill: none; stroke: #b0b0b0; stroke-width: 0.8; stroke-linecap: square"/>
     </g>
     <g id="line2d_12">
      <g>
       <use xlink:href="#m5673bacd4f" x="274.336312" y="260.45" style="stroke: #000000; stroke-width: 0.8"/>
      </g>
     </g>
     <g id="text_6">
      <!-- 125 -->
      <g transform="translate(264.792562 275.048437)scale(0.1 -0.1)">
       <use xlink:href="#DejaVuSans-31"/>
       <use xlink:href="#DejaVuSans-32" x="63.623047"/>
       <use xlink:href="#DejaVuSans-35" x="127.246094"/>
      </g>
     </g>
    </g>
    <g id="xtick_7">
     <g id="line2d_13">
      <path d="M 320.131075 260.45 
L 320.131075 25.8 
" clip-path="url(#p2c1d321a55)" style="fill: none; stroke: #b0b0b0; stroke-width: 0.8; stroke-linecap: square"/>
     </g>
     <g id="line2d_14">
      <g>
       <use xlink:href="#m5673bacd4f" x="320.131075" y="260.45" style="stroke: #000000; stroke-width: 0.8"/>
      </g>
     </g>
     <g id="text_7">
      <!-- 150 -->
      <g transform="translate(310.587325 275.048437)scale(0.1 -0.1)">
       <use xlink:href="#DejaVuSans-31"/>
       <use xlink:href="#DejaVuSans-35" x="63.623047"/>
       <use xlink:href="#DejaVuSans-30" x="127.246094"/>
      </g>
     </g>
    </g>
    <g id="xtick_8">
     <g id="line2d_15">
      <path d="M 365.925837 260.45 
L 365.925837 25.8 
" clip-path="url(#p2c1d321a55)" style="fill: none; stroke: #b0b0b0; stroke-width: 0.8; stroke-linecap: square"/>
     </g>
     <g id="line2d_16">
      <g>
       <use xlink:href="#m5673bacd4f" x="365.925837" y="260.45" style="stroke: #000000; stroke-width: 0.8"/>
      </g>
     </g>
     <g id="text_8">
      <!-- 175 -->
      <g transform="translate(356.382087 275.048437)scale(0.1 -0.1)">
       <use xlink:href="#DejaVuSans-31"/>
       <use xlink:href="#DejaVuSans-37" x="63.623047"/>
       <use xlink:href="#DejaVuSans-35" x="127.246094"/>
      </g>
     </g>
    </g>
    <g id="xtick_9">
     <g id="line2d_17">
      <path d="M 411.720599 260.45 
L 411.720599 25.8 
" clip-path="url(#p2c1d321a55)" style="fill: none; stroke: #b0b0b0; stroke-width: 0.8; stroke-linecap: square"/>
     </g>
     <g id="line2d_18">
      <g>
       <use xlink:href="#m5673bacd4f" x="411.720599" y="260.45" style="stroke: #000000; stroke-width: 0.8"/>
      </g>
     </g>
     <g id="text_9">
      <!-- 200 -->
      <g transform="translate(402.176849 275.048437)scale(0.1 -0.1)">
       <use xlink:href="#DejaVuSans-32"/>
       <use xlink:href="#DejaVuSans-30" x="63.623047"/>
       <use xlink:href="#DejaVuSans-30" x="127.246094"/>
      </g>
     </g>
    </g>
   </g>
   <g id="matplotlib.axis_2">
    <g id="ytick_1">
     <g id="line2d_19">
      <path d="M 45.3625 260.45 
L 416.290178 260.45 
" clip-path="url(#p2c1d321a55)" style="fill: none; stroke: #b0b0b0; stroke-width: 0.8; stroke-linecap: square"/>
     </g>
     <g id="line2d_20">
      <defs>
       <path id="m436a43c5e0" d="M 0 0 
L -3.5 0 
" style="stroke: #000000; stroke-width: 0.8"/>
      </defs>
      <g>
       <use xlink:href="#m436a43c5e0" x="45.3625" y="260.45" style="stroke: #000000; stroke-width: 0.8"/>
      </g>
     </g>
     <g id="text_10">
      <!-- 0 -->
      <g transform="translate(32 264.249219)scale(0.1 -0.1)">
       <use xlink:href="#DejaVuSans-30"/>
      </g>
     </g>
    </g>
    <g id="ytick_2">
     <g id="line2d_21">
      <path d="M 45.3625 215.980638 
L 416.290178 215.980638 
" clip-path="url(#p2c1d321a55)" style="fill: none; stroke: #b0b0b0; stroke-width: 0.8; stroke-linecap: square"/>
     </g>
     <g id="line2d_22">
      <g>
       <use xlink:href="#m436a43c5e0" x="45.3625" y="215.980638" style="stroke: #000000; stroke-width: 0.8"/>
      </g>
     </g>
     <g id="text_11">
      <!-- 500 -->
      <g transform="translate(19.275 219.779857)scale(0.1 -0.1)">
       <use xlink:href="#DejaVuSans-35"/>
       <use xlink:href="#DejaVuSans-30" x="63.623047"/>
       <use xlink:href="#DejaVuSans-30" x="127.246094"/>
      </g>
     </g>
    </g>
    <g id="ytick_3">
     <g id="line2d_23">
      <path d="M 45.3625 171.511276 
L 416.290178 171.511276 
" clip-path="url(#p2c1d321a55)" style="fill: none; stroke: #b0b0b0; stroke-width: 0.8; stroke-linecap: square"/>
     </g>
     <g id="line2d_24">
      <g>
       <use xlink:href="#m436a43c5e0" x="45.3625" y="171.511276" style="stroke: #000000; stroke-width: 0.8"/>
      </g>
     </g>
     <g id="text_12">
      <!-- 1 000 -->
      <g transform="translate(10.915625 175.310495)scale(0.1 -0.1)">
       <defs>
        <path id="DejaVuSans-2009" transform="scale(0.015625)"/>
       </defs>
       <use xlink:href="#DejaVuSans-31"/>
       <use xlink:href="#DejaVuSans-2009" x="63.623047"/>
       <use xlink:href="#DejaVuSans-30" x="83.59375"/>
       <use xlink:href="#DejaVuSans-30" x="147.216797"/>
       <use xlink:href="#DejaVuSans-30" x="210.839844"/>
      </g>
     </g>
    </g>
    <g id="ytick_4">
     <g id="line2d_25">
      <path d="M 45.3625 127.041914 
L 416.290178 127.041914 
" clip-path="url(#p2c1d321a55)" style="fill: none; stroke: #b0b0b0; stroke-width: 0.8; stroke-linecap: square"/>
     </g>
     <g id="line2d_26">
      <g>
       <use xlink:href="#m436a43c5e0" x="45.3625" y="127.041914" style="stroke: #000000; stroke-width: 0.8"/>
      </g>
     </g>
     <g id="text_13">
      <!-- 1 500 -->
      <g transform="translate(10.915625 130.841133)scale(0.1 -0.1)">
       <use xlink:href="#DejaVuSans-31"/>
       <use xlink:href="#DejaVuSans-2009" x="63.623047"/>
       <use xlink:href="#DejaVuSans-35" x="83.59375"/>
       <use xlink:href="#DejaVuSans-30" x="147.216797"/>
       <use xlink:href="#DejaVuSans-30" x="210.839844"/>
      </g>
     </g>
    </g>
    <g id="ytick_5">
     <g id="line2d_27">
      <path d="M 45.3625 82.572552 
L 416.290178 82.572552 
" clip-path="url(#p2c1d321a55)" style="fill: none; stroke: #b0b0b0; stroke-width: 0.8; stroke-linecap: square"/>
     </g>
     <g id="line2d_28">
      <g>
       <use xlink:href="#m436a43c5e0" x="45.3625" y="82.572552" style="stroke: #000000; stroke-width: 0.8"/>
      </g>
     </g>
     <g id="text_14">
      <!-- 2 000 -->
      <g transform="translate(10.915625 86.371771)scale(0.1 -0.1)">
       <use xlink:href="#DejaVuSans-32"/>
       <use xlink:href="#DejaVuSans-2009" x="63.623047"/>
       <use xlink:href="#DejaVuSans-30" x="83.59375"/>
       <use xlink:href="#DejaVuSans-30" x="147.216797"/>
       <use xlink:href="#DejaVuSans-30" x="210.839844"/>
      </g>
     </g>
    </g>
    <g id="ytick_6">
     <g id="line2d_29">
      <path d="M 45.3625 38.10319 
L 416.290178 38.10319 
" clip-path="url(#p2c1d321a55)" style="fill: none; stroke: #b0b0b0; stroke-width: 0.8; stroke-linecap: square"/>
     </g>
     <g id="line2d_30">
      <g>
       <use xlink:href="#m436a43c5e0" x="45.3625" y="38.10319" style="stroke: #000000; stroke-width: 0.8"/>
      </g>
     </g>
     <g id="text_15">
      <!-- 2 500 -->
      <g transform="translate(10.915625 41.902409)scale(0.1 -0.1)">
       <use xlink:href="#DejaVuSans-32"/>
       <use xlink:href="#DejaVuSans-2009" x="63.623047"/>
       <use xlink:href="#DejaVuSans-35" x="83.59375"/>
       <use xlink:href="#DejaVuSans-30" x="147.216797"/>
       <use xlink:href="#DejaVuSans-30" x="210.839844"/>
      </g>
     </g>
    </g>
   </g>
   <g id="line2d_31">
    <path d="M 46.24137 260.361061 
L 411.500395 171.689154 
L 411.500395 171.689154 
" clip-path="url(#p2c1d321a55)" style="fill: none; stroke: #1f77b4; stroke-width: 1.5; stroke-linecap: square"/>
   </g>
   <g id="line2d_32">
    <path d="M 45.508288 260.361061 
L 45.902945 260.183184 
L 47.258569 259.73849 
L 47.987625 259.204858 
L 49.012846 258.938042 
L 49.278712 258.671226 
L 50.130067 258.315471 
L 50.375217 258.137593 
L 51.182418 257.959716 
L 51.288006 257.6929 
L 51.483099 257.515022 
L 51.567224 257.426083 
L 55.460233 256.26988 
L 56.271862 255.825186 
L 56.441406 255.647309 
L 57.367122 255.380493 
L 57.485732 255.202615 
L 59.005884 253.957473 
L 59.051943 253.868534 
L 59.317205 253.690657 
L 60.480753 253.423841 
L 60.951027 253.068086 
L 61.596268 252.890208 
L 61.626799 252.712331 
L 62.469263 252.534454 
L 62.90099 252.267637 
L 63.050764 252.000821 
L 63.546092 251.734005 
L 64.152785 251.200373 
L 65.553637 251.022495 
L 65.573353 250.933557 
L 65.994692 250.66674 
L 66.026916 250.577802 
L 67.202713 250.399924 
L 67.628971 250.044169 
L 68.084455 249.599476 
L 68.105879 249.510537 
L 68.577161 249.243721 
L 68.604402 249.154782 
L 70.066047 248.62115 
L 70.087261 248.443272 
L 70.822866 248.087517 
L 72.665698 247.731762 
L 72.796228 247.642824 
L 73.495835 247.464946 
L 74.025747 247.109191 
L 74.139841 246.931314 
L 74.200731 246.842375 
L 74.937043 246.664498 
L 75.510065 246.130865 
L 76.455824 245.864049 
L 76.512737 245.686172 
L 77.588187 245.152539 
L 77.723878 245.063601 
L 78.662586 244.796785 
L 80.440054 243.818459 
L 80.839922 243.640581 
L 81.187998 243.284826 
L 81.339141 243.106949 
L 81.372159 243.01801 
L 81.780186 242.840133 
L 81.810053 242.662255 
L 82.695853 242.217562 
L 82.758197 242.128623 
L 83.462163 241.950745 
L 83.514556 241.861807 
L 84.022651 241.594991 
L 84.186887 241.506052 
L 84.943712 241.239236 
L 84.98995 241.150297 
L 86.273307 240.794542 
L 86.382551 240.705603 
L 88.004065 240.171971 
L 88.409192 239.994093 
L 88.707829 239.816216 
L 89.150556 239.638339 
L 89.769903 239.371522 
L 90.602224 239.193645 
L 91.465963 238.748951 
L 92.086487 238.571074 
L 92.816155 238.12638 
L 94.293882 237.059116 
L 94.706588 236.881238 
L 94.809113 236.614422 
L 95.711176 235.991851 
L 96.540681 235.813973 
L 96.76083 235.547157 
L 97.204293 235.36928 
L 97.411827 235.102464 
L 98.577345 234.924586 
L 98.632585 234.835648 
L 99.297158 234.568831 
L 99.425325 234.390954 
L 99.444538 234.302015 
L 99.98558 234.124138 
L 100.331069 233.94626 
L 101.907347 233.768383 
L 101.936998 233.679444 
L 102.745618 233.412628 
L 102.908143 233.23475 
L 103.116693 233.056873 
L 103.140906 232.967934 
L 104.682237 232.434302 
L 104.824956 232.078547 
L 105.785783 231.90067 
L 106.081879 231.633853 
L 107.863399 230.922344 
L 107.865557 230.833405 
L 109.269175 230.299773 
L 109.769751 229.588263 
L 109.804101 229.499324 
L 110.20728 229.321447 
L 110.253717 229.232508 
L 112.117085 228.698876 
L 112.907647 228.165243 
L 112.917114 228.076304 
L 113.344574 227.809488 
L 114.736823 227.631611 
L 114.968141 227.453733 
L 116.340462 226.920101 
L 117.02039 226.742224 
L 117.305159 226.475407 
L 117.47735 226.119653 
L 118.407424 225.852836 
L 118.641146 225.674959 
L 119.332188 225.497081 
L 119.594985 225.319204 
L 119.737298 224.963449 
L 119.928314 224.785572 
L 121.485899 224.340878 
L 121.669982 224.074062 
L 122.285447 223.807246 
L 123.071803 223.362552 
L 123.242903 223.273613 
L 124.899229 222.82892 
L 125.210036 222.651042 
L 125.699953 222.473165 
L 125.778503 222.206349 
L 127.371513 221.583778 
L 127.443425 221.494839 
L 128.085104 221.228023 
L 128.085114 221.139084 
L 128.531079 220.961207 
L 128.69113 220.783329 
L 130.511057 220.160758 
L 130.96129 219.893942 
L 131.548401 219.716064 
L 132.300284 219.36031 
L 132.344233 219.271371 
L 133.056309 219.093493 
L 134.314492 218.026229 
L 134.352292 217.93729 
L 134.816076 217.759413 
L 135.456058 217.492596 
L 135.854689 217.22578 
L 135.915854 217.047903 
L 136.576604 216.692148 
L 137.173185 216.247454 
L 137.353279 215.980638 
L 137.433778 215.891699 
L 139.721708 214.913373 
L 140.27929 214.557618 
L 140.920995 214.379741 
L 141.486766 213.668231 
L 141.97436 213.490354 
L 142.786984 213.223538 
L 143.608887 213.04566 
L 144.030018 212.778844 
L 144.042124 212.689905 
L 144.454574 212.423089 
L 145.816436 212.156273 
L 147.251171 211.533702 
L 148.44122 211.266886 
L 151.240327 210.110682 
L 151.242768 210.021744 
L 151.991273 209.843866 
L 154.667222 209.132356 
L 154.667965 209.043418 
L 154.996584 208.776601 
L 155.937541 207.887214 
L 156.679526 207.709337 
L 156.774977 207.620398 
L 159.712619 206.819949 
L 160.460734 206.10844 
L 160.964238 205.930562 
L 161.046377 205.752685 
L 161.842841 205.574807 
L 161.847519 205.39693 
L 164.206615 203.97391 
L 165.216775 203.618155 
L 165.37313 203.262401 
L 165.666303 202.995584 
L 166.022709 202.639829 
L 166.587966 202.284075 
L 167.730553 201.750442 
L 167.897587 201.572565 
L 168.198749 201.394687 
L 168.20947 201.305749 
L 169.950164 200.416361 
L 169.96343 200.327423 
L 170.127466 200.149545 
L 170.185824 200.060606 
L 170.678479 199.882729 
L 170.744922 199.704852 
L 172.142354 199.171219 
L 173.369171 198.370771 
L 173.991266 198.192893 
L 174.689514 197.7482 
L 175.141733 197.392445 
L 175.170178 197.303506 
L 175.773222 196.947751 
L 175.962025 196.680935 
L 175.991153 196.591996 
L 176.596931 196.414119 
L 176.660269 196.236241 
L 177.24794 196.058364 
L 177.963462 195.702609 
L 178.370859 195.524732 
L 178.483259 195.435793 
L 179.491684 195.080038 
L 179.509657 194.991099 
L 180.255341 194.724283 
L 180.824797 194.368528 
L 181.745484 193.923834 
L 181.79576 193.834896 
L 182.094626 193.657018 
L 182.096424 193.56808 
L 183.202135 193.123386 
L 183.494128 192.945509 
L 184.563723 192.678692 
L 184.694442 192.500815 
L 185.428248 192.322937 
L 185.949461 192.14506 
L 186.734528 191.878244 
L 187.938698 191.700366 
L 188.004956 191.43355 
L 188.463554 191.166734 
L 189.527302 190.899918 
L 190.03012 190.544163 
L 190.631005 190.277347 
L 190.698178 190.188408 
L 191.306577 190.010531 
L 191.845946 189.38796 
L 192.281833 189.210082 
L 192.422599 189.121143 
L 193.11675 188.943266 
L 193.135972 188.854327 
L 193.308069 188.765389 
L 194.232369 188.498572 
L 194.371506 188.231756 
L 194.733258 187.787063 
L 195.074553 187.609185 
L 195.639412 187.164491 
L 195.652326 187.075553 
L 195.84958 186.897675 
L 195.901411 186.719798 
L 196.496134 186.275104 
L 196.498352 186.186166 
L 196.644542 186.008288 
L 197.553322 185.830411 
L 197.604717 185.741472 
L 199.210971 185.474656 
L 199.31589 185.296778 
L 199.416462 185.118901 
L 200.354023 184.763146 
L 200.541181 184.674207 
L 201.458331 184.49633 
L 201.539406 184.318452 
L 202.178304 184.051636 
L 202.242299 183.873759 
L 202.739828 183.606943 
L 202.791566 183.518004 
L 203.176448 183.340126 
L 204.141391 183.07331 
L 204.681031 182.628617 
L 205.566047 182.272862 
L 205.756516 182.094984 
L 206.715409 181.917107 
L 206.798067 181.828168 
L 207.36529 181.650291 
L 207.373917 181.561352 
L 207.66825 181.383474 
L 207.85595 181.205597 
L 208.672262 181.02772 
L 208.726735 180.938781 
L 210.226376 180.671965 
L 210.876263 180.494087 
L 211.357195 180.31621 
L 211.380832 180.227271 
L 212.316179 180.049394 
L 212.559872 179.693639 
L 213.567722 179.426822 
L 213.963466 179.071068 
L 214.659105 178.89319 
L 214.681239 178.804251 
L 215.254956 178.626374 
L 215.670206 178.092742 
L 216.472561 177.736987 
L 216.635519 177.559109 
L 216.875658 177.292293 
L 217.687584 177.025477 
L 217.737311 176.936538 
L 220.507002 175.869274 
L 220.511569 175.780335 
L 221.417579 175.42458 
L 222.592828 175.246702 
L 224.229906 173.912622 
L 225.234239 173.734744 
L 225.248012 173.645805 
L 225.880917 173.467928 
L 226.025923 173.378989 
L 226.797519 173.201112 
L 226.826961 173.112173 
L 227.908157 172.489602 
L 228.647539 172.311725 
L 228.817277 172.133847 
L 229.554161 171.95597 
L 229.611202 171.778092 
L 230.367307 171.511276 
L 230.580509 171.24446 
L 231.129473 171.066582 
L 231.134397 170.977644 
L 231.643073 170.710828 
L 231.716307 170.621889 
L 233.211316 170.266134 
L 233.22046 170.177195 
L 233.698571 169.999318 
L 233.880141 169.82144 
L 234.30344 169.643563 
L 235.506584 168.932053 
L 236.673152 168.665237 
L 236.715158 168.576298 
L 238.126917 167.864788 
L 238.217178 167.686911 
L 238.578178 167.509033 
L 239.055032 167.242217 
L 239.056482 167.153279 
L 239.547491 166.708585 
L 240.097131 166.530708 
L 240.242271 166.35283 
L 240.474259 165.997075 
L 240.551099 165.908136 
L 241.162873 165.730259 
L 241.224377 165.552382 
L 241.903019 165.374504 
L 242.140608 165.196627 
L 242.159789 165.107688 
L 243.179773 164.574056 
L 243.814608 164.396178 
L 243.862288 164.218301 
L 244.332294 163.951485 
L 245.479307 163.684668 
L 246.536306 163.417852 
L 247.978795 162.706342 
L 247.984204 162.617404 
L 248.894372 162.261649 
L 249.00125 162.17271 
L 250.001456 161.994833 
L 250.30683 161.816955 
L 250.625312 161.639078 
L 251.345703 161.194384 
L 251.924367 161.016507 
L 252.888928 160.74969 
L 253.082993 160.482874 
L 253.949089 160.304997 
L 254.631377 160.038181 
L 254.718753 159.949242 
L 255.329964 159.771364 
L 255.966758 159.504548 
L 256.562348 159.237732 
L 257.664712 158.970916 
L 257.909828 158.437284 
L 257.961681 158.348345 
L 258.670008 158.170467 
L 258.735351 158.081529 
L 259.201202 157.903651 
L 259.360157 157.814713 
L 259.925333 157.636835 
L 260.083448 157.458958 
L 260.679555 157.28108 
L 260.740425 157.103203 
L 261.299771 156.747448 
L 261.396471 156.56957 
L 262.607864 156.035938 
L 262.619187 155.946999 
L 263.707223 155.324428 
L 264.16354 155.146551 
L 264.938128 154.701857 
L 265.008926 154.612919 
L 266.144455 154.435041 
L 266.509969 154.168225 
L 266.788841 153.990347 
L 266.789794 153.901409 
L 268.180962 153.634593 
L 268.725952 153.278838 
L 268.778871 153.10096 
L 269.426273 152.923083 
L 269.768757 152.567328 
L 271.665343 151.589002 
L 272.475279 151.411124 
L 272.60035 151.144308 
L 273.930924 150.432798 
L 273.937938 150.34386 
L 276.027812 150.165982 
L 276.21615 149.988105 
L 277.71267 149.454473 
L 278.953674 149.187656 
L 279.794705 149.009779 
L 279.81677 148.92084 
L 280.094455 148.742963 
L 280.867629 147.764637 
L 282.134747 147.408882 
L 282.333661 147.142066 
L 282.354392 147.053127 
L 282.677976 146.87525 
L 284.296483 146.519495 
L 284.306363 146.430556 
L 286.227422 145.985862 
L 286.593221 145.807985 
L 286.666054 145.630107 
L 287.181279 145.363291 
L 287.796686 145.185414 
L 288.161198 145.007536 
L 288.323421 144.74072 
L 288.798584 144.384965 
L 288.851103 144.207088 
L 290.394819 143.940272 
L 290.463796 143.762394 
L 291.081907 143.228762 
L 292.525434 142.961946 
L 292.544725 142.873007 
L 292.908563 142.69513 
L 293.052518 142.517252 
L 293.47126 141.98362 
L 293.699331 141.805742 
L 293.776759 141.716804 
L 294.455332 141.449987 
L 294.823359 141.183171 
L 294.930964 141.005294 
L 295.191609 140.827416 
L 297.267177 139.84909 
L 297.288622 139.760152 
L 297.985827 139.493335 
L 298.598307 138.959703 
L 298.936607 138.781826 
L 298.957909 138.692887 
L 299.896865 138.070316 
L 300.885752 137.892438 
L 300.905725 137.8035 
L 301.485439 137.625622 
L 301.897394 137.447745 
L 301.897615 137.358806 
L 302.037846 137.269867 
L 303.221815 137.003051 
L 303.732558 136.736235 
L 304.65743 136.558358 
L 304.741356 136.38048 
L 306.062771 135.935786 
L 306.72315 135.135338 
L 306.833629 134.690644 
L 306.846166 134.601706 
L 306.990678 134.423828 
L 307.036816 134.334889 
L 307.476645 134.157012 
L 307.669683 133.890196 
L 308.892974 133.534441 
L 309.340336 133.356563 
L 309.683688 133.089747 
L 310.564089 132.378238 
L 311.42081 132.022483 
L 311.50516 131.844605 
L 311.937629 131.666728 
L 312.028946 131.577789 
L 313.206906 131.222034 
L 313.246121 131.133095 
L 314.765827 130.866279 
L 315.521346 130.332647 
L 315.886192 129.887953 
L 317.105798 128.909627 
L 317.324482 128.642811 
L 318.222968 128.464934 
L 318.223676 128.375995 
L 318.764031 128.02024 
L 318.813732 127.842363 
L 319.417437 127.664485 
L 320.339796 127.486608 
L 320.51162 127.397669 
L 321.20605 127.219792 
L 321.698578 126.952975 
L 322.763793 126.59722 
L 322.996932 126.419343 
L 323.559192 126.241466 
L 324.269588 125.885711 
L 324.371512 125.707833 
L 324.441706 125.529956 
L 325.215635 125.352078 
L 325.731025 125.174201 
L 326.115449 124.907385 
L 326.655405 124.55163 
L 328.271172 124.195875 
L 329.248016 124.017997 
L 329.334622 123.929059 
L 330.880005 123.484365 
L 331.134406 123.306488 
L 331.372336 123.039672 
L 332.695693 122.506039 
L 333.549768 121.883468 
L 333.99587 121.705591 
L 334.0233 121.616652 
L 334.800927 121.438774 
L 334.866478 121.349836 
L 335.53266 121.08302 
L 336.897718 120.460449 
L 337.020154 120.193632 
L 337.136709 120.015755 
L 337.675535 119.837877 
L 338.05844 119.482123 
L 338.582891 119.304245 
L 338.853918 119.215306 
L 340.203133 118.94849 
L 340.294709 118.770613 
L 340.836608 118.592735 
L 341.094629 118.414858 
L 341.462615 117.881226 
L 342.039186 117.703348 
L 345.866672 116.013512 
L 345.945326 115.835635 
L 346.373992 115.657757 
L 346.563351 115.213064 
L 347.89854 114.412615 
L 347.93234 114.234738 
L 348.046037 114.05686 
L 348.157072 113.790044 
L 348.23552 113.701105 
L 348.745938 113.523228 
L 348.790373 113.434289 
L 349.317231 113.256412 
L 349.875586 112.989596 
L 349.984046 112.811718 
L 351.539908 112.100208 
L 351.850778 111.922331 
L 351.98116 111.744454 
L 352.447706 111.566576 
L 352.456976 111.477637 
L 354.246819 110.410373 
L 354.671613 110.143557 
L 355.87783 109.787802 
L 356.59651 109.254169 
L 358.283102 108.809476 
L 358.314312 108.720537 
L 360.49032 107.742211 
L 360.596807 107.564334 
L 360.77476 107.475395 
L 361.802022 107.208579 
L 362.338253 106.852824 
L 362.35883 106.763885 
L 362.645486 106.586008 
L 363.41174 106.40813 
L 363.590123 106.052375 
L 364.279012 105.785559 
L 365.306032 105.340865 
L 367.253316 104.184662 
L 368.194926 104.006785 
L 368.203555 103.917846 
L 368.480285 103.739968 
L 368.677781 103.562091 
L 370.301644 102.761642 
L 371.53941 102.494826 
L 371.567359 102.405888 
L 373.028348 102.22801 
L 373.843297 101.427562 
L 374.163694 101.160745 
L 374.274116 101.071807 
L 375.676471 100.627113 
L 375.843578 100.449236 
L 376.76952 100.182419 
L 377.229937 99.648787 
L 378.359057 99.293032 
L 378.382498 99.204093 
L 378.963296 99.026216 
L 379.432316 98.7594 
L 379.487799 98.581522 
L 380.161984 98.403645 
L 380.172711 98.314706 
L 380.298715 98.225768 
L 381.036569 98.04789 
L 381.144628 97.870013 
L 381.901961 97.603196 
L 382.211134 97.33638 
L 382.287899 97.247442 
L 383.369295 97.069564 
L 383.594808 96.891687 
L 384.322112 96.713809 
L 385.977382 95.824422 
L 386.506445 95.557606 
L 386.513648 95.468667 
L 387.641793 95.201851 
L 387.736364 95.023973 
L 388.35342 94.846096 
L 388.437503 94.668219 
L 388.511704 94.57928 
L 388.930012 94.312464 
L 389.307132 94.134586 
L 389.674325 93.956709 
L 389.739187 93.86777 
L 391.244759 93.512015 
L 391.277688 93.423076 
L 391.717439 93.245199 
L 391.745148 93.15626 
L 392.157155 92.978383 
L 392.523456 92.622628 
L 394.146419 91.911118 
L 394.475882 91.733241 
L 395.344274 91.377486 
L 395.414628 91.288547 
L 396.787084 91.021731 
L 397.257016 90.843853 
L 397.514433 90.665976 
L 398.196496 90.132344 
L 399.549319 89.598711 
L 399.572328 89.509773 
L 400.714284 88.887202 
L 400.810517 88.709324 
L 401.545774 88.531447 
L 402.383498 87.997814 
L 403.12767 87.730998 
L 403.163242 87.642059 
L 404.426425 87.375243 
L 404.639501 87.197366 
L 406.493377 87.019488 
L 406.648929 86.841611 
L 407.83875 86.130101 
L 408.307172 85.952224 
L 408.869503 85.685407 
L 411.344596 84.618143 
L 411.442431 84.529204 
L 411.712623 84.440265 
L 411.712623 84.440265 
" clip-path="url(#p2c1d321a55)" style="fill: none; stroke: #ff7f0e; stroke-width: 1.5; stroke-linecap: square"/>
   </g>
   <g id="line2d_33">
    <path d="M 124.096251 260.361061 
L 153.087554 253.423841 
L 156.007004 253.245963 
L 278.046651 223.718307 
L 280.894145 223.54043 
L 286.093284 222.295287 
L 287.604996 222.028471 
L 411.491225 191.967183 
L 411.491225 191.967183 
" clip-path="url(#p2c1d321a55)" style="fill: none; stroke: #2ca02c; stroke-width: 1.5; stroke-linecap: square"/>
   </g>
   <g id="patch_3">
    <path d="M 45.3625 260.45 
L 45.3625 25.8 
" style="fill: none; stroke: #000000; stroke-width: 0.8; stroke-linejoin: miter; stroke-linecap: square"/>
   </g>
   <g id="patch_4">
    <path d="M 416.290178 260.45 
L 416.290178 25.8 
" style="fill: none; stroke: #000000; stroke-width: 0.8; stroke-linejoin: miter; stroke-linecap: square"/>
   </g>
   <g id="patch_5">
    <path d="M 45.3625 260.45 
L 416.290178 260.45 
" style="fill: none; stroke: #000000; stroke-width: 0.8; stroke-linejoin: miter; stroke-linecap: square"/>
   </g>
   <g id="patch_6">
    <path d="M 45.3625 25.8 
L 416.290178 25.8 
" style="fill: none; stroke: #000000; stroke-width: 0.8; stroke-linejoin: miter; stroke-linecap: square"/>
   </g>
   <g id="text_16">
    <!-- Sent_vs_recived_packets -->
    <g transform="translate(156.240714 19.8)scale(0.12 -0.12)">
     <defs>
      <path id="DejaVuSans-53" d="M 3425 4513 
L 3425 3897 
Q 3066 4069 2747 4153 
Q 2428 4238 2131 4238 
Q 1616 4238 1336 4038 
Q 1056 3838 1056 3469 
Q 1056 3159 1242 3001 
Q 1428 2844 1947 2747 
L 2328 2669 
Q 3034 2534 3370 2195 
Q 3706 1856 3706 1288 
Q 3706 609 3251 259 
Q 2797 -91 1919 -91 
Q 1588 -91 1214 -16 
Q 841 59 441 206 
L 441 856 
Q 825 641 1194 531 
Q 1563 422 1919 422 
Q 2459 422 2753 634 
Q 3047 847 3047 1241 
Q 3047 1584 2836 1778 
Q 2625 1972 2144 2069 
L 1759 2144 
Q 1053 2284 737 2584 
Q 422 2884 422 3419 
Q 422 4038 858 4394 
Q 1294 4750 2059 4750 
Q 2388 4750 2728 4690 
Q 3069 4631 3425 4513 
z
" transform="scale(0.015625)"/>
      <path id="DejaVuSans-65" d="M 3597 1894 
L 3597 1613 
L 953 1613 
Q 991 1019 1311 708 
Q 1631 397 2203 397 
Q 2534 397 2845 478 
Q 3156 559 3463 722 
L 3463 178 
Q 3153 47 2828 -22 
Q 2503 -91 2169 -91 
Q 1331 -91 842 396 
Q 353 884 353 1716 
Q 353 2575 817 3079 
Q 1281 3584 2069 3584 
Q 2775 3584 3186 3129 
Q 3597 2675 3597 1894 
z
M 3022 2063 
Q 3016 2534 2758 2815 
Q 2500 3097 2075 3097 
Q 1594 3097 1305 2825 
Q 1016 2553 972 2059 
L 3022 2063 
z
" transform="scale(0.015625)"/>
      <path id="DejaVuSans-6e" d="M 3513 2113 
L 3513 0 
L 2938 0 
L 2938 2094 
Q 2938 2591 2744 2837 
Q 2550 3084 2163 3084 
Q 1697 3084 1428 2787 
Q 1159 2491 1159 1978 
L 1159 0 
L 581 0 
L 581 3500 
L 1159 3500 
L 1159 2956 
Q 1366 3272 1645 3428 
Q 1925 3584 2291 3584 
Q 2894 3584 3203 3211 
Q 3513 2838 3513 2113 
z
" transform="scale(0.015625)"/>
      <path id="DejaVuSans-74" d="M 1172 4494 
L 1172 3500 
L 2356 3500 
L 2356 3053 
L 1172 3053 
L 1172 1153 
Q 1172 725 1289 603 
Q 1406 481 1766 481 
L 2356 481 
L 2356 0 
L 1766 0 
Q 1100 0 847 248 
Q 594 497 594 1153 
L 594 3053 
L 172 3053 
L 172 3500 
L 594 3500 
L 594 4494 
L 1172 4494 
z
" transform="scale(0.015625)"/>
      <path id="DejaVuSans-5f" d="M 3263 -1063 
L 3263 -1509 
L -63 -1509 
L -63 -1063 
L 3263 -1063 
z
" transform="scale(0.015625)"/>
      <path id="DejaVuSans-76" d="M 191 3500 
L 800 3500 
L 1894 563 
L 2988 3500 
L 3597 3500 
L 2284 0 
L 1503 0 
L 191 3500 
z
" transform="scale(0.015625)"/>
      <path id="DejaVuSans-73" d="M 2834 3397 
L 2834 2853 
Q 2591 2978 2328 3040 
Q 2066 3103 1784 3103 
Q 1356 3103 1142 2972 
Q 928 2841 928 2578 
Q 928 2378 1081 2264 
Q 1234 2150 1697 2047 
L 1894 2003 
Q 2506 1872 2764 1633 
Q 3022 1394 3022 966 
Q 3022 478 2636 193 
Q 2250 -91 1575 -91 
Q 1294 -91 989 -36 
Q 684 19 347 128 
L 347 722 
Q 666 556 975 473 
Q 1284 391 1588 391 
Q 1994 391 2212 530 
Q 2431 669 2431 922 
Q 2431 1156 2273 1281 
Q 2116 1406 1581 1522 
L 1381 1569 
Q 847 1681 609 1914 
Q 372 2147 372 2553 
Q 372 3047 722 3315 
Q 1072 3584 1716 3584 
Q 2034 3584 2315 3537 
Q 2597 3491 2834 3397 
z
" transform="scale(0.015625)"/>
      <path id="DejaVuSans-72" d="M 2631 2963 
Q 2534 3019 2420 3045 
Q 2306 3072 2169 3072 
Q 1681 3072 1420 2755 
Q 1159 2438 1159 1844 
L 1159 0 
L 581 0 
L 581 3500 
L 1159 3500 
L 1159 2956 
Q 1341 3275 1631 3429 
Q 1922 3584 2338 3584 
Q 2397 3584 2469 3576 
Q 2541 3569 2628 3553 
L 2631 2963 
z
" transform="scale(0.015625)"/>
      <path id="DejaVuSans-63" d="M 3122 3366 
L 3122 2828 
Q 2878 2963 2633 3030 
Q 2388 3097 2138 3097 
Q 1578 3097 1268 2742 
Q 959 2388 959 1747 
Q 959 1106 1268 751 
Q 1578 397 2138 397 
Q 2388 397 2633 464 
Q 2878 531 3122 666 
L 3122 134 
Q 2881 22 2623 -34 
Q 2366 -91 2075 -91 
Q 1284 -91 818 406 
Q 353 903 353 1747 
Q 353 2603 823 3093 
Q 1294 3584 2113 3584 
Q 2378 3584 2631 3529 
Q 2884 3475 3122 3366 
z
" transform="scale(0.015625)"/>
      <path id="DejaVuSans-69" d="M 603 3500 
L 1178 3500 
L 1178 0 
L 603 0 
L 603 3500 
z
M 603 4863 
L 1178 4863 
L 1178 4134 
L 603 4134 
L 603 4863 
z
" transform="scale(0.015625)"/>
      <path id="DejaVuSans-64" d="M 2906 2969 
L 2906 4863 
L 3481 4863 
L 3481 0 
L 2906 0 
L 2906 525 
Q 2725 213 2448 61 
Q 2172 -91 1784 -91 
Q 1150 -91 751 415 
Q 353 922 353 1747 
Q 353 2572 751 3078 
Q 1150 3584 1784 3584 
Q 2172 3584 2448 3432 
Q 2725 3281 2906 2969 
z
M 947 1747 
Q 947 1113 1208 752 
Q 1469 391 1925 391 
Q 2381 391 2643 752 
Q 2906 1113 2906 1747 
Q 2906 2381 2643 2742 
Q 2381 3103 1925 3103 
Q 1469 3103 1208 2742 
Q 947 2381 947 1747 
z
" transform="scale(0.015625)"/>
      <path id="DejaVuSans-70" d="M 1159 525 
L 1159 -1331 
L 581 -1331 
L 581 3500 
L 1159 3500 
L 1159 2969 
Q 1341 3281 1617 3432 
Q 1894 3584 2278 3584 
Q 2916 3584 3314 3078 
Q 3713 2572 3713 1747 
Q 3713 922 3314 415 
Q 2916 -91 2278 -91 
Q 1894 -91 1617 61 
Q 1341 213 1159 525 
z
M 3116 1747 
Q 3116 2381 2855 2742 
Q 2594 3103 2138 3103 
Q 1681 3103 1420 2742 
Q 1159 2381 1159 1747 
Q 1159 1113 1420 752 
Q 1681 391 2138 391 
Q 2594 391 2855 752 
Q 3116 1113 3116 1747 
z
" transform="scale(0.015625)"/>
      <path id="DejaVuSans-61" d="M 2194 1759 
Q 1497 1759 1228 1600 
Q 959 1441 959 1056 
Q 959 750 1161 570 
Q 1363 391 1709 391 
Q 2188 391 2477 730 
Q 2766 1069 2766 1631 
L 2766 1759 
L 2194 1759 
z
M 3341 1997 
L 3341 0 
L 2766 0 
L 2766 531 
Q 2569 213 2275 61 
Q 1981 -91 1556 -91 
Q 1019 -91 701 211 
Q 384 513 384 1019 
Q 384 1609 779 1909 
Q 1175 2209 1959 2209 
L 2766 2209 
L 2766 2266 
Q 2766 2663 2505 2880 
Q 2244 3097 1772 3097 
Q 1472 3097 1187 3025 
Q 903 2953 641 2809 
L 641 3341 
Q 956 3463 1253 3523 
Q 1550 3584 1831 3584 
Q 2591 3584 2966 3190 
Q 3341 2797 3341 1997 
z
" transform="scale(0.015625)"/>
      <path id="DejaVuSans-6b" d="M 581 4863 
L 1159 4863 
L 1159 1991 
L 2875 3500 
L 3609 3500 
L 1753 1863 
L 3688 0 
L 2938 0 
L 1159 1709 
L 1159 0 
L 581 0 
L 581 4863 
z
" transform="scale(0.015625)"/>
     </defs>
     <use xlink:href="#DejaVuSans-53"/>
     <use xlink:href="#DejaVuSans-65" x="63.476562"/>
     <use xlink:href="#DejaVuSans-6e" x="125"/>
     <use xlink:href="#DejaVuSans-74" x="188.378906"/>
     <use xlink:href="#DejaVuSans-5f" x="227.587891"/>
     <use xlink:href="#DejaVuSans-76" x="277.587891"/>
     <use xlink:href="#DejaVuSans-73" x="336.767578"/>
     <use xlink:href="#DejaVuSans-5f" x="388.867188"/>
     <use xlink:href="#DejaVuSans-72" x="438.867188"/>
     <use xlink:href="#DejaVuSans-65" x="477.730469"/>
     <use xlink:href="#DejaVuSans-63" x="539.253906"/>
     <use xlink:href="#DejaVuSans-69" x="594.234375"/>
     <use xlink:href="#DejaVuSans-76" x="622.017578"/>
     <use xlink:href="#DejaVuSans-65" x="681.197266"/>
     <use xlink:href="#DejaVuSans-64" x="742.720703"/>
     <use xlink:href="#DejaVuSans-5f" x="806.197266"/>
     <use xlink:href="#DejaVuSans-70" x="856.197266"/>
     <use xlink:href="#DejaVuSans-61" x="919.673828"/>
     <use xlink:href="#DejaVuSans-63" x="980.953125"/>
     <use xlink:href="#DejaVuSans-6b" x="1035.933594"/>
     <use xlink:href="#DejaVuSans-65" x="1090.21875"/>
     <use xlink:href="#DejaVuSans-74" x="1151.742188"/>
     <use xlink:href="#DejaVuSans-73" x="1190.951172"/>
    </g>
   </g>
   <g id="legend_1">
    <g id="patch_7">
     <path d="M 168.402678 77.834375 
L 409.290178 77.834375 
Q 411.290178 77.834375 411.290178 75.834375 
L 411.290178 32.8 
Q 411.290178 30.8 409.290178 30.8 
L 168.402678 30.8 
Q 166.402678 30.8 166.402678 32.8 
L 166.402678 75.834375 
Q 166.402678 77.834375 168.402678 77.834375 
z
" style="fill: #ffffff; opacity: 0.8; stroke: #cccccc; stroke-linejoin: miter"/>
    </g>
    <g id="line2d_34">
     <path d="M 170.402678 38.898437 
L 180.402678 38.898437 
L 190.402678 38.898437 
" style="fill: none; stroke: #1f77b4; stroke-width: 1.5; stroke-linecap: square"/>
    </g>
    <g id="text_17">
     <!-- Received packets in Network.nodeRx.sink -->
     <g transform="translate(198.402678 42.398437)scale(0.1 -0.1)">
      <defs>
       <path id="DejaVuSans-52" d="M 2841 2188 
Q 3044 2119 3236 1894 
Q 3428 1669 3622 1275 
L 4263 0 
L 3584 0 
L 2988 1197 
Q 2756 1666 2539 1819 
Q 2322 1972 1947 1972 
L 1259 1972 
L 1259 0 
L 628 0 
L 628 4666 
L 2053 4666 
Q 2853 4666 3247 4331 
Q 3641 3997 3641 3322 
Q 3641 2881 3436 2590 
Q 3231 2300 2841 2188 
z
M 1259 4147 
L 1259 2491 
L 2053 2491 
Q 2509 2491 2742 2702 
Q 2975 2913 2975 3322 
Q 2975 3731 2742 3939 
Q 2509 4147 2053 4147 
L 1259 4147 
z
" transform="scale(0.015625)"/>
       <path id="DejaVuSans-20" transform="scale(0.015625)"/>
       <path id="DejaVuSans-4e" d="M 628 4666 
L 1478 4666 
L 3547 763 
L 3547 4666 
L 4159 4666 
L 4159 0 
L 3309 0 
L 1241 3903 
L 1241 0 
L 628 0 
L 628 4666 
z
" transform="scale(0.015625)"/>
       <path id="DejaVuSans-77" d="M 269 3500 
L 844 3500 
L 1563 769 
L 2278 3500 
L 2956 3500 
L 3675 769 
L 4391 3500 
L 4966 3500 
L 4050 0 
L 3372 0 
L 2619 2869 
L 1863 0 
L 1184 0 
L 269 3500 
z
" transform="scale(0.015625)"/>
       <path id="DejaVuSans-6f" d="M 1959 3097 
Q 1497 3097 1228 2736 
Q 959 2375 959 1747 
Q 959 1119 1226 758 
Q 1494 397 1959 397 
Q 2419 397 2687 759 
Q 2956 1122 2956 1747 
Q 2956 2369 2687 2733 
Q 2419 3097 1959 3097 
z
M 1959 3584 
Q 2709 3584 3137 3096 
Q 3566 2609 3566 1747 
Q 3566 888 3137 398 
Q 2709 -91 1959 -91 
Q 1206 -91 779 398 
Q 353 888 353 1747 
Q 353 2609 779 3096 
Q 1206 3584 1959 3584 
z
" transform="scale(0.015625)"/>
       <path id="DejaVuSans-2e" d="M 684 794 
L 1344 794 
L 1344 0 
L 684 0 
L 684 794 
z
" transform="scale(0.015625)"/>
       <path id="DejaVuSans-78" d="M 3513 3500 
L 2247 1797 
L 3578 0 
L 2900 0 
L 1881 1375 
L 863 0 
L 184 0 
L 1544 1831 
L 300 3500 
L 978 3500 
L 1906 2253 
L 2834 3500 
L 3513 3500 
z
" transform="scale(0.015625)"/>
      </defs>
      <use xlink:href="#DejaVuSans-52"/>
      <use xlink:href="#DejaVuSans-65" x="64.982422"/>
      <use xlink:href="#DejaVuSans-63" x="126.505859"/>
      <use xlink:href="#DejaVuSans-65" x="181.486328"/>
      <use xlink:href="#DejaVuSans-69" x="243.009766"/>
      <use xlink:href="#DejaVuSans-76" x="270.792969"/>
      <use xlink:href="#DejaVuSans-65" x="329.972656"/>
      <use xlink:href="#DejaVuSans-64" x="391.496094"/>
      <use xlink:href="#DejaVuSans-20" x="454.972656"/>
      <use xlink:href="#DejaVuSans-70" x="486.759766"/>
      <use xlink:href="#DejaVuSans-61" x="550.236328"/>
      <use xlink:href="#DejaVuSans-63" x="611.515625"/>
      <use xlink:href="#DejaVuSans-6b" x="666.496094"/>
      <use xlink:href="#DejaVuSans-65" x="720.78125"/>
      <use xlink:href="#DejaVuSans-74" x="782.304688"/>
      <use xlink:href="#DejaVuSans-73" x="821.513672"/>
      <use xlink:href="#DejaVuSans-20" x="873.613281"/>
      <use xlink:href="#DejaVuSans-69" x="905.400391"/>
      <use xlink:href="#DejaVuSans-6e" x="933.183594"/>
      <use xlink:href="#DejaVuSans-20" x="996.5625"/>
      <use xlink:href="#DejaVuSans-4e" x="1028.349609"/>
      <use xlink:href="#DejaVuSans-65" x="1103.154297"/>
      <use xlink:href="#DejaVuSans-74" x="1164.677734"/>
      <use xlink:href="#DejaVuSans-77" x="1203.886719"/>
      <use xlink:href="#DejaVuSans-6f" x="1285.673828"/>
      <use xlink:href="#DejaVuSans-72" x="1346.855469"/>
      <use xlink:href="#DejaVuSans-6b" x="1387.96875"/>
      <use xlink:href="#DejaVuSans-2e" x="1445.878906"/>
      <use xlink:href="#DejaVuSans-6e" x="1477.666016"/>
      <use xlink:href="#DejaVuSans-6f" x="1541.044922"/>
      <use xlink:href="#DejaVuSans-64" x="1602.226562"/>
      <use xlink:href="#DejaVuSans-65" x="1665.703125"/>
      <use xlink:href="#DejaVuSans-52" x="1727.226562"/>
      <use xlink:href="#DejaVuSans-78" x="1796.708984"/>
      <use xlink:href="#DejaVuSans-2e" x="1855.888672"/>
      <use xlink:href="#DejaVuSans-73" x="1887.675781"/>
      <use xlink:href="#DejaVuSans-69" x="1939.775391"/>
      <use xlink:href="#DejaVuSans-6e" x="1967.558594"/>
      <use xlink:href="#DejaVuSans-6b" x="2030.9375"/>
     </g>
    </g>
    <g id="line2d_35">
     <path d="M 170.402678 53.576562 
L 180.402678 53.576562 
L 190.402678 53.576562 
" style="fill: none; stroke: #ff7f0e; stroke-width: 1.5; stroke-linecap: square"/>
    </g>
    <g id="text_18">
     <!-- Sent packets in Network.nodeTx.gen -->
     <g transform="translate(198.402678 57.076562)scale(0.1 -0.1)">
      <defs>
       <path id="DejaVuSans-54" d="M -19 4666 
L 3928 4666 
L 3928 4134 
L 2272 4134 
L 2272 0 
L 1638 0 
L 1638 4134 
L -19 4134 
L -19 4666 
z
" transform="scale(0.015625)"/>
       <path id="DejaVuSans-67" d="M 2906 1791 
Q 2906 2416 2648 2759 
Q 2391 3103 1925 3103 
Q 1463 3103 1205 2759 
Q 947 2416 947 1791 
Q 947 1169 1205 825 
Q 1463 481 1925 481 
Q 2391 481 2648 825 
Q 2906 1169 2906 1791 
z
M 3481 434 
Q 3481 -459 3084 -895 
Q 2688 -1331 1869 -1331 
Q 1566 -1331 1297 -1286 
Q 1028 -1241 775 -1147 
L 775 -588 
Q 1028 -725 1275 -790 
Q 1522 -856 1778 -856 
Q 2344 -856 2625 -561 
Q 2906 -266 2906 331 
L 2906 616 
Q 2728 306 2450 153 
Q 2172 0 1784 0 
Q 1141 0 747 490 
Q 353 981 353 1791 
Q 353 2603 747 3093 
Q 1141 3584 1784 3584 
Q 2172 3584 2450 3431 
Q 2728 3278 2906 2969 
L 2906 3500 
L 3481 3500 
L 3481 434 
z
" transform="scale(0.015625)"/>
      </defs>
      <use xlink:href="#DejaVuSans-53"/>
      <use xlink:href="#DejaVuSans-65" x="63.476562"/>
      <use xlink:href="#DejaVuSans-6e" x="125"/>
      <use xlink:href="#DejaVuSans-74" x="188.378906"/>
      <use xlink:href="#DejaVuSans-20" x="227.587891"/>
      <use xlink:href="#DejaVuSans-70" x="259.375"/>
      <use xlink:href="#DejaVuSans-61" x="322.851562"/>
      <use xlink:href="#DejaVuSans-63" x="384.130859"/>
      <use xlink:href="#DejaVuSans-6b" x="439.111328"/>
      <use xlink:href="#DejaVuSans-65" x="493.396484"/>
      <use xlink:href="#DejaVuSans-74" x="554.919922"/>
      <use xlink:href="#DejaVuSans-73" x="594.128906"/>
      <use xlink:href="#DejaVuSans-20" x="646.228516"/>
      <use xlink:href="#DejaVuSans-69" x="678.015625"/>
      <use xlink:href="#DejaVuSans-6e" x="705.798828"/>
      <use xlink:href="#DejaVuSans-20" x="769.177734"/>
      <use xlink:href="#DejaVuSans-4e" x="800.964844"/>
      <use xlink:href="#DejaVuSans-65" x="875.769531"/>
      <use xlink:href="#DejaVuSans-74" x="937.292969"/>
      <use xlink:href="#DejaVuSans-77" x="976.501953"/>
      <use xlink:href="#DejaVuSans-6f" x="1058.289062"/>
      <use xlink:href="#DejaVuSans-72" x="1119.470703"/>
      <use xlink:href="#DejaVuSans-6b" x="1160.583984"/>
      <use xlink:href="#DejaVuSans-2e" x="1218.494141"/>
      <use xlink:href="#DejaVuSans-6e" x="1250.28125"/>
      <use xlink:href="#DejaVuSans-6f" x="1313.660156"/>
      <use xlink:href="#DejaVuSans-64" x="1374.841797"/>
      <use xlink:href="#DejaVuSans-65" x="1438.318359"/>
      <use xlink:href="#DejaVuSans-54" x="1499.841797"/>
      <use xlink:href="#DejaVuSans-78" x="1560.925781"/>
      <use xlink:href="#DejaVuSans-2e" x="1620.105469"/>
      <use xlink:href="#DejaVuSans-67" x="1651.892578"/>
      <use xlink:href="#DejaVuSans-65" x="1715.369141"/>
      <use xlink:href="#DejaVuSans-6e" x="1776.892578"/>
     </g>
    </g>
    <g id="line2d_36">
     <path d="M 170.402678 68.254687 
L 180.402678 68.254687 
L 190.402678 68.254687 
" style="fill: none; stroke: #2ca02c; stroke-width: 1.5; stroke-linecap: square"/>
    </g>
    <g id="text_19">
     <!-- packet drop in Network.nodeRx.queue -->
     <g transform="translate(198.402678 71.754687)scale(0.1 -0.1)">
      <defs>
       <path id="DejaVuSans-71" d="M 947 1747 
Q 947 1113 1208 752 
Q 1469 391 1925 391 
Q 2381 391 2643 752 
Q 2906 1113 2906 1747 
Q 2906 2381 2643 2742 
Q 2381 3103 1925 3103 
Q 1469 3103 1208 2742 
Q 947 2381 947 1747 
z
M 2906 525 
Q 2725 213 2448 61 
Q 2172 -91 1784 -91 
Q 1150 -91 751 415 
Q 353 922 353 1747 
Q 353 2572 751 3078 
Q 1150 3584 1784 3584 
Q 2172 3584 2448 3432 
Q 2725 3281 2906 2969 
L 2906 3500 
L 3481 3500 
L 3481 -1331 
L 2906 -1331 
L 2906 525 
z
" transform="scale(0.015625)"/>
       <path id="DejaVuSans-75" d="M 544 1381 
L 544 3500 
L 1119 3500 
L 1119 1403 
Q 1119 906 1312 657 
Q 1506 409 1894 409 
Q 2359 409 2629 706 
Q 2900 1003 2900 1516 
L 2900 3500 
L 3475 3500 
L 3475 0 
L 2900 0 
L 2900 538 
Q 2691 219 2414 64 
Q 2138 -91 1772 -91 
Q 1169 -91 856 284 
Q 544 659 544 1381 
z
M 1991 3584 
L 1991 3584 
z
" transform="scale(0.015625)"/>
      </defs>
      <use xlink:href="#DejaVuSans-70"/>
      <use xlink:href="#DejaVuSans-61" x="63.476562"/>
      <use xlink:href="#DejaVuSans-63" x="124.755859"/>
      <use xlink:href="#DejaVuSans-6b" x="179.736328"/>
      <use xlink:href="#DejaVuSans-65" x="234.021484"/>
      <use xlink:href="#DejaVuSans-74" x="295.544922"/>
      <use xlink:href="#DejaVuSans-20" x="334.753906"/>
      <use xlink:href="#DejaVuSans-64" x="366.541016"/>
      <use xlink:href="#DejaVuSans-72" x="430.017578"/>
      <use xlink:href="#DejaVuSans-6f" x="468.880859"/>
      <use xlink:href="#DejaVuSans-70" x="530.0625"/>
      <use xlink:href="#DejaVuSans-20" x="593.539062"/>
      <use xlink:href="#DejaVuSans-69" x="625.326172"/>
      <use xlink:href="#DejaVuSans-6e" x="653.109375"/>
      <use xlink:href="#DejaVuSans-20" x="716.488281"/>
      <use xlink:href="#DejaVuSans-4e" x="748.275391"/>
      <use xlink:href="#DejaVuSans-65" x="823.080078"/>
      <use xlink:href="#DejaVuSans-74" x="884.603516"/>
      <use xlink:href="#DejaVuSans-77" x="923.8125"/>
      <use xlink:href="#DejaVuSans-6f" x="1005.599609"/>
      <use xlink:href="#DejaVuSans-72" x="1066.78125"/>
      <use xlink:href="#DejaVuSans-6b" x="1107.894531"/>
      <use xlink:href="#DejaVuSans-2e" x="1165.804688"/>
      <use xlink:href="#DejaVuSans-6e" x="1197.591797"/>
      <use xlink:href="#DejaVuSans-6f" x="1260.970703"/>
      <use xlink:href="#DejaVuSans-64" x="1322.152344"/>
      <use xlink:href="#DejaVuSans-65" x="1385.628906"/>
      <use xlink:href="#DejaVuSans-52" x="1447.152344"/>
      <use xlink:href="#DejaVuSans-78" x="1516.634766"/>
      <use xlink:href="#DejaVuSans-2e" x="1575.814453"/>
      <use xlink:href="#DejaVuSans-71" x="1607.601562"/>
      <use xlink:href="#DejaVuSans-75" x="1671.078125"/>
      <use xlink:href="#DejaVuSans-65" x="1734.457031"/>
      <use xlink:href="#DejaVuSans-75" x="1795.980469"/>
      <use xlink:href="#DejaVuSans-65" x="1859.359375"/>
     </g>
    </g>
   </g>
  </g>
 </g>
 <defs>
  <clipPath id="p2c1d321a55">
   <rect x="45.3625" y="25.8" width="370.927678" height="234.65"/>
  </clipPath>
 </defs>
</svg>
