<?xml version="1.0" encoding="utf-8" standalone="no"?>
<!DOCTYPE svg PUBLIC "-//W3C//DTD SVG 1.1//EN"
  "http://www.w3.org/Graphics/SVG/1.1/DTD/svg11.dtd">
<svg xmlns:xlink="http://www.w3.org/1999/xlink" width="432pt" height="288pt" viewBox="0 0 432 288" xmlns="http://www.w3.org/2000/svg" version="1.1">
 <metadata>
  <rdf:RDF xmlns:dc="http://purl.org/dc/elements/1.1/" xmlns:cc="http://creativecommons.org/ns#" xmlns:rdf="http://www.w3.org/1999/02/22-rdf-syntax-ns#">
   <cc:Work>
    <dc:type rdf:resource="http://purl.org/dc/dcmitype/StillImage"/>
    <dc:date>2022-05-23T10:01:50.289935</dc:date>
    <dc:format>image/svg+xml</dc:format>
    <dc:creator>
     <cc:Agent>
      <dc:title>omnetpp.scave 6.0.0; Matplotlib 3.5.1 w/ backend GTK3Agg; Pandas 1.4.2; Python 3.8.10; Linux-5.4.0-109-generic-x86_64-with-glibc2.29</dc:title>
     </cc:Agent>
    </dc:creator>
   </cc:Work>
  </rdf:RDF>
 </metadata>
 <defs>
  <style type="text/css">*{stroke-linejoin: round; stroke-linecap: butt}</style>
 </defs>
 <g id="figure_1">
  <g id="patch_1">
   <path d="M 0 288 
L 432 288 
L 432 0 
L 0 0 
z
" style="fill: #ffffff"/>
  </g>
  <g id="axes_1">
   <g id="patch_2">
    <path d="M 50.76875 246.7 
L 415.468839 246.7 
L 415.468839 25.8 
L 50.76875 25.8 
z
" style="fill: #ffffff"/>
   </g>
   <g id="matplotlib.axis_1">
    <g id="xtick_1">
     <g id="line2d_1">
      <path d="M 50.76875 246.7 
L 50.76875 25.8 
" clip-path="url(#p2d3e311ced)" style="fill: none; stroke: #b0b0b0; stroke-width: 0.8; stroke-linecap: square"/>
     </g>
     <g id="line2d_2">
      <defs>
       <path id="meba3a74fb1" d="M 0 0 
L 0 3.5 
" style="stroke: #000000; stroke-width: 0.8"/>
      </defs>
      <g>
       <use xlink:href="#meba3a74fb1" x="50.76875" y="246.7" style="stroke: #000000; stroke-width: 0.8"/>
      </g>
     </g>
     <g id="text_1">
      <!-- 0 -->
      <g transform="translate(47.5875 261.298437)scale(0.1 -0.1)">
       <defs>
        <path id="DejaVuSans-30" d="M 2034 4250 
Q 1547 4250 1301 3770 
Q 1056 3291 1056 2328 
Q 1056 1369 1301 889 
Q 1547 409 2034 409 
Q 2525 409 2770 889 
Q 3016 1369 3016 2328 
Q 3016 3291 2770 3770 
Q 2525 4250 2034 4250 
z
M 2034 4750 
Q 2819 4750 3233 4129 
Q 3647 3509 3647 2328 
Q 3647 1150 3233 529 
Q 2819 -91 2034 -91 
Q 1250 -91 836 529 
Q 422 1150 422 2328 
Q 422 3509 836 4129 
Q 1250 4750 2034 4750 
z
" transform="scale(0.015625)"/>
       </defs>
       <use xlink:href="#DejaVuSans-30"/>
      </g>
     </g>
    </g>
    <g id="xtick_2">
     <g id="line2d_3">
      <path d="M 95.883772 246.7 
L 95.883772 25.8 
" clip-path="url(#p2d3e311ced)" style="fill: none; stroke: #b0b0b0; stroke-width: 0.8; stroke-linecap: square"/>
     </g>
     <g id="line2d_4">
      <g>
       <use xlink:href="#meba3a74fb1" x="95.883772" y="246.7" style="stroke: #000000; stroke-width: 0.8"/>
      </g>
     </g>
     <g id="text_2">
      <!-- 25 -->
      <g transform="translate(89.521272 261.298437)scale(0.1 -0.1)">
       <defs>
        <path id="DejaVuSans-32" d="M 1228 531 
L 3431 531 
L 3431 0 
L 469 0 
L 469 531 
Q 828 903 1448 1529 
Q 2069 2156 2228 2338 
Q 2531 2678 2651 2914 
Q 2772 3150 2772 3378 
Q 2772 3750 2511 3984 
Q 2250 4219 1831 4219 
Q 1534 4219 1204 4116 
Q 875 4013 500 3803 
L 500 4441 
Q 881 4594 1212 4672 
Q 1544 4750 1819 4750 
Q 2544 4750 2975 4387 
Q 3406 4025 3406 3419 
Q 3406 3131 3298 2873 
Q 3191 2616 2906 2266 
Q 2828 2175 2409 1742 
Q 1991 1309 1228 531 
z
" transform="scale(0.015625)"/>
        <path id="DejaVuSans-35" d="M 691 4666 
L 3169 4666 
L 3169 4134 
L 1269 4134 
L 1269 2991 
Q 1406 3038 1543 3061 
Q 1681 3084 1819 3084 
Q 2600 3084 3056 2656 
Q 3513 2228 3513 1497 
Q 3513 744 3044 326 
Q 2575 -91 1722 -91 
Q 1428 -91 1123 -41 
Q 819 9 494 109 
L 494 744 
Q 775 591 1075 516 
Q 1375 441 1709 441 
Q 2250 441 2565 725 
Q 2881 1009 2881 1497 
Q 2881 1984 2565 2268 
Q 2250 2553 1709 2553 
Q 1456 2553 1204 2497 
Q 953 2441 691 2322 
L 691 4666 
z
" transform="scale(0.015625)"/>
       </defs>
       <use xlink:href="#DejaVuSans-32"/>
       <use xlink:href="#DejaVuSans-35" x="63.623047"/>
      </g>
     </g>
    </g>
    <g id="xtick_3">
     <g id="line2d_5">
      <path d="M 140.998794 246.7 
L 140.998794 25.8 
" clip-path="url(#p2d3e311ced)" style="fill: none; stroke: #b0b0b0; stroke-width: 0.8; stroke-linecap: square"/>
     </g>
     <g id="line2d_6">
      <g>
       <use xlink:href="#meba3a74fb1" x="140.998794" y="246.7" style="stroke: #000000; stroke-width: 0.8"/>
      </g>
     </g>
     <g id="text_3">
      <!-- 50 -->
      <g transform="translate(134.636294 261.298437)scale(0.1 -0.1)">
       <use xlink:href="#DejaVuSans-35"/>
       <use xlink:href="#DejaVuSans-30" x="63.623047"/>
      </g>
     </g>
    </g>
    <g id="xtick_4">
     <g id="line2d_7">
      <path d="M 186.113815 246.7 
L 186.113815 25.8 
" clip-path="url(#p2d3e311ced)" style="fill: none; stroke: #b0b0b0; stroke-width: 0.8; stroke-linecap: square"/>
     </g>
     <g id="line2d_8">
      <g>
       <use xlink:href="#meba3a74fb1" x="186.113815" y="246.7" style="stroke: #000000; stroke-width: 0.8"/>
      </g>
     </g>
     <g id="text_4">
      <!-- 75 -->
      <g transform="translate(179.751315 261.298437)scale(0.1 -0.1)">
       <defs>
        <path id="DejaVuSans-37" d="M 525 4666 
L 3525 4666 
L 3525 4397 
L 1831 0 
L 1172 0 
L 2766 4134 
L 525 4134 
L 525 4666 
z
" transform="scale(0.015625)"/>
       </defs>
       <use xlink:href="#DejaVuSans-37"/>
       <use xlink:href="#DejaVuSans-35" x="63.623047"/>
      </g>
     </g>
    </g>
    <g id="xtick_5">
     <g id="line2d_9">
      <path d="M 231.228837 246.7 
L 231.228837 25.8 
" clip-path="url(#p2d3e311ced)" style="fill: none; stroke: #b0b0b0; stroke-width: 0.8; stroke-linecap: square"/>
     </g>
     <g id="line2d_10">
      <g>
       <use xlink:href="#meba3a74fb1" x="231.228837" y="246.7" style="stroke: #000000; stroke-width: 0.8"/>
      </g>
     </g>
     <g id="text_5">
      <!-- 100 -->
      <g transform="translate(221.685087 261.298437)scale(0.1 -0.1)">
       <defs>
        <path id="DejaVuSans-31" d="M 794 531 
L 1825 531 
L 1825 4091 
L 703 3866 
L 703 4441 
L 1819 4666 
L 2450 4666 
L 2450 531 
L 3481 531 
L 3481 0 
L 794 0 
L 794 531 
z
" transform="scale(0.015625)"/>
       </defs>
       <use xlink:href="#DejaVuSans-31"/>
       <use xlink:href="#DejaVuSans-30" x="63.623047"/>
       <use xlink:href="#DejaVuSans-30" x="127.246094"/>
      </g>
     </g>
    </g>
    <g id="xtick_6">
     <g id="line2d_11">
      <path d="M 276.343859 246.7 
L 276.343859 25.8 
" clip-path="url(#p2d3e311ced)" style="fill: none; stroke: #b0b0b0; stroke-width: 0.8; stroke-linecap: square"/>
     </g>
     <g id="line2d_12">
      <g>
       <use xlink:href="#meba3a74fb1" x="276.343859" y="246.7" style="stroke: #000000; stroke-width: 0.8"/>
      </g>
     </g>
     <g id="text_6">
      <!-- 125 -->
      <g transform="translate(266.800109 261.298437)scale(0.1 -0.1)">
       <use xlink:href="#DejaVuSans-31"/>
       <use xlink:href="#DejaVuSans-32" x="63.623047"/>
       <use xlink:href="#DejaVuSans-35" x="127.246094"/>
      </g>
     </g>
    </g>
    <g id="xtick_7">
     <g id="line2d_13">
      <path d="M 321.458881 246.7 
L 321.458881 25.8 
" clip-path="url(#p2d3e311ced)" style="fill: none; stroke: #b0b0b0; stroke-width: 0.8; stroke-linecap: square"/>
     </g>
     <g id="line2d_14">
      <g>
       <use xlink:href="#meba3a74fb1" x="321.458881" y="246.7" style="stroke: #000000; stroke-width: 0.8"/>
      </g>
     </g>
     <g id="text_7">
      <!-- 150 -->
      <g transform="translate(311.915131 261.298437)scale(0.1 -0.1)">
       <use xlink:href="#DejaVuSans-31"/>
       <use xlink:href="#DejaVuSans-35" x="63.623047"/>
       <use xlink:href="#DejaVuSans-30" x="127.246094"/>
      </g>
     </g>
    </g>
    <g id="xtick_8">
     <g id="line2d_15">
      <path d="M 366.573903 246.7 
L 366.573903 25.8 
" clip-path="url(#p2d3e311ced)" style="fill: none; stroke: #b0b0b0; stroke-width: 0.8; stroke-linecap: square"/>
     </g>
     <g id="line2d_16">
      <g>
       <use xlink:href="#meba3a74fb1" x="366.573903" y="246.7" style="stroke: #000000; stroke-width: 0.8"/>
      </g>
     </g>
     <g id="text_8">
      <!-- 175 -->
      <g transform="translate(357.030153 261.298437)scale(0.1 -0.1)">
       <use xlink:href="#DejaVuSans-31"/>
       <use xlink:href="#DejaVuSans-37" x="63.623047"/>
       <use xlink:href="#DejaVuSans-35" x="127.246094"/>
      </g>
     </g>
    </g>
    <g id="xtick_9">
     <g id="line2d_17">
      <path d="M 411.688924 246.7 
L 411.688924 25.8 
" clip-path="url(#p2d3e311ced)" style="fill: none; stroke: #b0b0b0; stroke-width: 0.8; stroke-linecap: square"/>
     </g>
     <g id="line2d_18">
      <g>
       <use xlink:href="#meba3a74fb1" x="411.688924" y="246.7" style="stroke: #000000; stroke-width: 0.8"/>
      </g>
     </g>
     <g id="text_9">
      <!-- 200 -->
      <g transform="translate(402.145174 261.298437)scale(0.1 -0.1)">
       <use xlink:href="#DejaVuSans-32"/>
       <use xlink:href="#DejaVuSans-30" x="63.623047"/>
       <use xlink:href="#DejaVuSans-30" x="127.246094"/>
      </g>
     </g>
    </g>
    <g id="text_10">
     <!-- Tiempo -->
     <g transform="translate(214.651607 274.976562)scale(0.1 -0.1)">
      <defs>
       <path id="DejaVuSans-54" d="M -19 4666 
L 3928 4666 
L 3928 4134 
L 2272 4134 
L 2272 0 
L 1638 0 
L 1638 4134 
L -19 4134 
L -19 4666 
z
" transform="scale(0.015625)"/>
       <path id="DejaVuSans-69" d="M 603 3500 
L 1178 3500 
L 1178 0 
L 603 0 
L 603 3500 
z
M 603 4863 
L 1178 4863 
L 1178 4134 
L 603 4134 
L 603 4863 
z
" transform="scale(0.015625)"/>
       <path id="DejaVuSans-65" d="M 3597 1894 
L 3597 1613 
L 953 1613 
Q 991 1019 1311 708 
Q 1631 397 2203 397 
Q 2534 397 2845 478 
Q 3156 559 3463 722 
L 3463 178 
Q 3153 47 2828 -22 
Q 2503 -91 2169 -91 
Q 1331 -91 842 396 
Q 353 884 353 1716 
Q 353 2575 817 3079 
Q 1281 3584 2069 3584 
Q 2775 3584 3186 3129 
Q 3597 2675 3597 1894 
z
M 3022 2063 
Q 3016 2534 2758 2815 
Q 2500 3097 2075 3097 
Q 1594 3097 1305 2825 
Q 1016 2553 972 2059 
L 3022 2063 
z
" transform="scale(0.015625)"/>
       <path id="DejaVuSans-6d" d="M 3328 2828 
Q 3544 3216 3844 3400 
Q 4144 3584 4550 3584 
Q 5097 3584 5394 3201 
Q 5691 2819 5691 2113 
L 5691 0 
L 5113 0 
L 5113 2094 
Q 5113 2597 4934 2840 
Q 4756 3084 4391 3084 
Q 3944 3084 3684 2787 
Q 3425 2491 3425 1978 
L 3425 0 
L 2847 0 
L 2847 2094 
Q 2847 2600 2669 2842 
Q 2491 3084 2119 3084 
Q 1678 3084 1418 2786 
Q 1159 2488 1159 1978 
L 1159 0 
L 581 0 
L 581 3500 
L 1159 3500 
L 1159 2956 
Q 1356 3278 1631 3431 
Q 1906 3584 2284 3584 
Q 2666 3584 2933 3390 
Q 3200 3197 3328 2828 
z
" transform="scale(0.015625)"/>
       <path id="DejaVuSans-70" d="M 1159 525 
L 1159 -1331 
L 581 -1331 
L 581 3500 
L 1159 3500 
L 1159 2969 
Q 1341 3281 1617 3432 
Q 1894 3584 2278 3584 
Q 2916 3584 3314 3078 
Q 3713 2572 3713 1747 
Q 3713 922 3314 415 
Q 2916 -91 2278 -91 
Q 1894 -91 1617 61 
Q 1341 213 1159 525 
z
M 3116 1747 
Q 3116 2381 2855 2742 
Q 2594 3103 2138 3103 
Q 1681 3103 1420 2742 
Q 1159 2381 1159 1747 
Q 1159 1113 1420 752 
Q 1681 391 2138 391 
Q 2594 391 2855 752 
Q 3116 1113 3116 1747 
z
" transform="scale(0.015625)"/>
       <path id="DejaVuSans-6f" d="M 1959 3097 
Q 1497 3097 1228 2736 
Q 959 2375 959 1747 
Q 959 1119 1226 758 
Q 1494 397 1959 397 
Q 2419 397 2687 759 
Q 2956 1122 2956 1747 
Q 2956 2369 2687 2733 
Q 2419 3097 1959 3097 
z
M 1959 3584 
Q 2709 3584 3137 3096 
Q 3566 2609 3566 1747 
Q 3566 888 3137 398 
Q 2709 -91 1959 -91 
Q 1206 -91 779 398 
Q 353 888 353 1747 
Q 353 2609 779 3096 
Q 1206 3584 1959 3584 
z
" transform="scale(0.015625)"/>
      </defs>
      <use xlink:href="#DejaVuSans-54"/>
      <use xlink:href="#DejaVuSans-69" x="57.958984"/>
      <use xlink:href="#DejaVuSans-65" x="85.742188"/>
      <use xlink:href="#DejaVuSans-6d" x="147.265625"/>
      <use xlink:href="#DejaVuSans-70" x="244.677734"/>
      <use xlink:href="#DejaVuSans-6f" x="308.154297"/>
     </g>
    </g>
   </g>
   <g id="matplotlib.axis_2">
    <g id="ytick_1">
     <g id="line2d_19">
      <path d="M 50.76875 246.7 
L 415.468839 246.7 
" clip-path="url(#p2d3e311ced)" style="fill: none; stroke: #b0b0b0; stroke-width: 0.8; stroke-linecap: square"/>
     </g>
     <g id="line2d_20">
      <defs>
       <path id="m95e66171c0" d="M 0 0 
L -3.5 0 
" style="stroke: #000000; stroke-width: 0.8"/>
      </defs>
      <g>
       <use xlink:href="#m95e66171c0" x="50.76875" y="246.7" style="stroke: #000000; stroke-width: 0.8"/>
      </g>
     </g>
     <g id="text_11">
      <!-- 0 -->
      <g transform="translate(37.40625 250.499219)scale(0.1 -0.1)">
       <use xlink:href="#DejaVuSans-30"/>
      </g>
     </g>
    </g>
    <g id="ytick_2">
     <g id="line2d_21">
      <path d="M 50.76875 205.28125 
L 415.468839 205.28125 
" clip-path="url(#p2d3e311ced)" style="fill: none; stroke: #b0b0b0; stroke-width: 0.8; stroke-linecap: square"/>
     </g>
     <g id="line2d_22">
      <g>
       <use xlink:href="#m95e66171c0" x="50.76875" y="205.28125" style="stroke: #000000; stroke-width: 0.8"/>
      </g>
     </g>
     <g id="text_12">
      <!-- 50 -->
      <g transform="translate(31.04375 209.080469)scale(0.1 -0.1)">
       <use xlink:href="#DejaVuSans-35"/>
       <use xlink:href="#DejaVuSans-30" x="63.623047"/>
      </g>
     </g>
    </g>
    <g id="ytick_3">
     <g id="line2d_23">
      <path d="M 50.76875 163.8625 
L 415.468839 163.8625 
" clip-path="url(#p2d3e311ced)" style="fill: none; stroke: #b0b0b0; stroke-width: 0.8; stroke-linecap: square"/>
     </g>
     <g id="line2d_24">
      <g>
       <use xlink:href="#m95e66171c0" x="50.76875" y="163.8625" style="stroke: #000000; stroke-width: 0.8"/>
      </g>
     </g>
     <g id="text_13">
      <!-- 100 -->
      <g transform="translate(24.68125 167.661719)scale(0.1 -0.1)">
       <use xlink:href="#DejaVuSans-31"/>
       <use xlink:href="#DejaVuSans-30" x="63.623047"/>
       <use xlink:href="#DejaVuSans-30" x="127.246094"/>
      </g>
     </g>
    </g>
    <g id="ytick_4">
     <g id="line2d_25">
      <path d="M 50.76875 122.44375 
L 415.468839 122.44375 
" clip-path="url(#p2d3e311ced)" style="fill: none; stroke: #b0b0b0; stroke-width: 0.8; stroke-linecap: square"/>
     </g>
     <g id="line2d_26">
      <g>
       <use xlink:href="#m95e66171c0" x="50.76875" y="122.44375" style="stroke: #000000; stroke-width: 0.8"/>
      </g>
     </g>
     <g id="text_14">
      <!-- 150 -->
      <g transform="translate(24.68125 126.242969)scale(0.1 -0.1)">
       <use xlink:href="#DejaVuSans-31"/>
       <use xlink:href="#DejaVuSans-35" x="63.623047"/>
       <use xlink:href="#DejaVuSans-30" x="127.246094"/>
      </g>
     </g>
    </g>
    <g id="ytick_5">
     <g id="line2d_27">
      <path d="M 50.76875 81.025 
L 415.468839 81.025 
" clip-path="url(#p2d3e311ced)" style="fill: none; stroke: #b0b0b0; stroke-width: 0.8; stroke-linecap: square"/>
     </g>
     <g id="line2d_28">
      <g>
       <use xlink:href="#m95e66171c0" x="50.76875" y="81.025" style="stroke: #000000; stroke-width: 0.8"/>
      </g>
     </g>
     <g id="text_15">
      <!-- 200 -->
      <g transform="translate(24.68125 84.824219)scale(0.1 -0.1)">
       <use xlink:href="#DejaVuSans-32"/>
       <use xlink:href="#DejaVuSans-30" x="63.623047"/>
       <use xlink:href="#DejaVuSans-30" x="127.246094"/>
      </g>
     </g>
    </g>
    <g id="ytick_6">
     <g id="line2d_29">
      <path d="M 50.76875 39.60625 
L 415.468839 39.60625 
" clip-path="url(#p2d3e311ced)" style="fill: none; stroke: #b0b0b0; stroke-width: 0.8; stroke-linecap: square"/>
     </g>
     <g id="line2d_30">
      <g>
       <use xlink:href="#m95e66171c0" x="50.76875" y="39.60625" style="stroke: #000000; stroke-width: 0.8"/>
      </g>
     </g>
     <g id="text_16">
      <!-- 250 -->
      <g transform="translate(24.68125 43.405469)scale(0.1 -0.1)">
       <use xlink:href="#DejaVuSans-32"/>
       <use xlink:href="#DejaVuSans-35" x="63.623047"/>
       <use xlink:href="#DejaVuSans-30" x="127.246094"/>
      </g>
     </g>
    </g>
    <g id="text_17">
     <!-- Paquetes -->
     <g transform="translate(18.601562 159.164844)rotate(-90)scale(0.1 -0.1)">
      <defs>
       <path id="DejaVuSans-50" d="M 1259 4147 
L 1259 2394 
L 2053 2394 
Q 2494 2394 2734 2622 
Q 2975 2850 2975 3272 
Q 2975 3691 2734 3919 
Q 2494 4147 2053 4147 
L 1259 4147 
z
M 628 4666 
L 2053 4666 
Q 2838 4666 3239 4311 
Q 3641 3956 3641 3272 
Q 3641 2581 3239 2228 
Q 2838 1875 2053 1875 
L 1259 1875 
L 1259 0 
L 628 0 
L 628 4666 
z
" transform="scale(0.015625)"/>
       <path id="DejaVuSans-61" d="M 2194 1759 
Q 1497 1759 1228 1600 
Q 959 1441 959 1056 
Q 959 750 1161 570 
Q 1363 391 1709 391 
Q 2188 391 2477 730 
Q 2766 1069 2766 1631 
L 2766 1759 
L 2194 1759 
z
M 3341 1997 
L 3341 0 
L 2766 0 
L 2766 531 
Q 2569 213 2275 61 
Q 1981 -91 1556 -91 
Q 1019 -91 701 211 
Q 384 513 384 1019 
Q 384 1609 779 1909 
Q 1175 2209 1959 2209 
L 2766 2209 
L 2766 2266 
Q 2766 2663 2505 2880 
Q 2244 3097 1772 3097 
Q 1472 3097 1187 3025 
Q 903 2953 641 2809 
L 641 3341 
Q 956 3463 1253 3523 
Q 1550 3584 1831 3584 
Q 2591 3584 2966 3190 
Q 3341 2797 3341 1997 
z
" transform="scale(0.015625)"/>
       <path id="DejaVuSans-71" d="M 947 1747 
Q 947 1113 1208 752 
Q 1469 391 1925 391 
Q 2381 391 2643 752 
Q 2906 1113 2906 1747 
Q 2906 2381 2643 2742 
Q 2381 3103 1925 3103 
Q 1469 3103 1208 2742 
Q 947 2381 947 1747 
z
M 2906 525 
Q 2725 213 2448 61 
Q 2172 -91 1784 -91 
Q 1150 -91 751 415 
Q 353 922 353 1747 
Q 353 2572 751 3078 
Q 1150 3584 1784 3584 
Q 2172 3584 2448 3432 
Q 2725 3281 2906 2969 
L 2906 3500 
L 3481 3500 
L 3481 -1331 
L 2906 -1331 
L 2906 525 
z
" transform="scale(0.015625)"/>
       <path id="DejaVuSans-75" d="M 544 1381 
L 544 3500 
L 1119 3500 
L 1119 1403 
Q 1119 906 1312 657 
Q 1506 409 1894 409 
Q 2359 409 2629 706 
Q 2900 1003 2900 1516 
L 2900 3500 
L 3475 3500 
L 3475 0 
L 2900 0 
L 2900 538 
Q 2691 219 2414 64 
Q 2138 -91 1772 -91 
Q 1169 -91 856 284 
Q 544 659 544 1381 
z
M 1991 3584 
L 1991 3584 
z
" transform="scale(0.015625)"/>
       <path id="DejaVuSans-74" d="M 1172 4494 
L 1172 3500 
L 2356 3500 
L 2356 3053 
L 1172 3053 
L 1172 1153 
Q 1172 725 1289 603 
Q 1406 481 1766 481 
L 2356 481 
L 2356 0 
L 1766 0 
Q 1100 0 847 248 
Q 594 497 594 1153 
L 594 3053 
L 172 3053 
L 172 3500 
L 594 3500 
L 594 4494 
L 1172 4494 
z
" transform="scale(0.015625)"/>
       <path id="DejaVuSans-73" d="M 2834 3397 
L 2834 2853 
Q 2591 2978 2328 3040 
Q 2066 3103 1784 3103 
Q 1356 3103 1142 2972 
Q 928 2841 928 2578 
Q 928 2378 1081 2264 
Q 1234 2150 1697 2047 
L 1894 2003 
Q 2506 1872 2764 1633 
Q 3022 1394 3022 966 
Q 3022 478 2636 193 
Q 2250 -91 1575 -91 
Q 1294 -91 989 -36 
Q 684 19 347 128 
L 347 722 
Q 666 556 975 473 
Q 1284 391 1588 391 
Q 1994 391 2212 530 
Q 2431 669 2431 922 
Q 2431 1156 2273 1281 
Q 2116 1406 1581 1522 
L 1381 1569 
Q 847 1681 609 1914 
Q 372 2147 372 2553 
Q 372 3047 722 3315 
Q 1072 3584 1716 3584 
Q 2034 3584 2315 3537 
Q 2597 3491 2834 3397 
z
" transform="scale(0.015625)"/>
      </defs>
      <use xlink:href="#DejaVuSans-50"/>
      <use xlink:href="#DejaVuSans-61" x="55.802734"/>
      <use xlink:href="#DejaVuSans-71" x="117.082031"/>
      <use xlink:href="#DejaVuSans-75" x="180.558594"/>
      <use xlink:href="#DejaVuSans-65" x="243.9375"/>
      <use xlink:href="#DejaVuSans-74" x="305.460938"/>
      <use xlink:href="#DejaVuSans-65" x="344.669922"/>
      <use xlink:href="#DejaVuSans-73" x="406.193359"/>
     </g>
    </g>
   </g>
   <g id="line2d_31">
    <path d="M 52.927187 245.871625 
L 54.54873 245.04325 
L 56.815184 244.214875 
L 60.171027 243.3865 
L 61.837076 242.558125 
L 65.358837 241.72975 
L 66.779421 240.901375 
L 70.170201 240.073 
L 71.164623 239.244625 
L 74.801193 237.587875 
L 75.676656 236.7595 
L 76.715238 235.931125 
L 77.35255 235.10275 
L 81.365124 234.274375 
L 81.726044 233.446 
L 87.452578 232.617625 
L 88.027084 231.78925 
L 88.899793 230.960875 
L 90.071784 230.1325 
L 95.920689 228.47575 
L 99.973804 225.990625 
L 100.874069 225.16225 
L 105.562881 224.333875 
L 108.826265 223.5055 
L 109.187186 222.677125 
L 109.701972 221.84875 
L 110.062892 221.020375 
L 111.75159 220.192 
L 112.11251 219.363625 
L 112.61721 218.53525 
L 115.842911 217.706875 
L 121.527711 216.8785 
L 124.24505 216.050125 
L 124.60597 215.22175 
L 131.88291 213.565 
L 138.822001 212.736625 
L 139.98003 211.90825 
L 145.789476 210.2515 
L 146.906397 209.423125 
L 148.232714 208.59475 
L 150.969457 207.766375 
L 153.019373 206.938 
L 153.380293 206.109625 
L 155.547803 205.28125 
L 158.965271 203.6245 
L 159.326192 202.796125 
L 160.635546 201.96775 
L 165.858819 201.139375 
L 168.423815 200.311 
L 169.755299 199.482625 
L 170.116219 198.65425 
L 170.9238 197.825875 
L 172.081802 196.9975 
L 172.636321 196.169125 
L 173.008435 195.34075 
L 178.103807 193.684 
L 179.202958 192.855625 
L 179.643368 192.02725 
L 181.159837 191.198875 
L 182.242597 188.71375 
L 183.898135 187.885375 
L 184.259055 187.057 
L 185.899678 186.228625 
L 186.35343 185.40025 
L 188.085031 184.571875 
L 188.966682 183.7435 
L 194.16017 182.915125 
L 198.362929 182.08675 
L 200.429448 181.258375 
L 201.508141 180.43 
L 202.312124 179.601625 
L 204.025582 178.77325 
L 205.062384 177.944875 
L 209.260519 177.1165 
L 211.419017 176.288125 
L 212.140857 174.631375 
L 218.03629 173.803 
L 223.934346 171.317875 
L 224.698834 169.661125 
L 225.499002 168.83275 
L 225.859922 168.004375 
L 228.254756 167.176 
L 228.938631 166.347625 
L 230.627849 165.51925 
L 232.153124 163.8625 
L 233.676979 163.034125 
L 234.037899 162.20575 
L 234.789529 161.377375 
L 236.604724 160.549 
L 244.643313 159.720625 
L 250.405308 158.89225 
L 250.766228 158.063875 
L 252.5085 157.2355 
L 252.931321 156.407125 
L 254.750394 155.57875 
L 255.111314 154.750375 
L 264.740689 153.922 
L 266.651297 153.093625 
L 268.224757 152.26525 
L 268.751846 151.436875 
L 270.850608 149.780125 
L 272.012376 148.95175 
L 272.518164 148.123375 
L 274.281014 147.295 
L 274.641934 146.466625 
L 275.33784 145.63825 
L 275.69876 144.809875 
L 279.503212 143.153125 
L 280.191768 142.32475 
L 280.552688 141.496375 
L 283.17901 140.668 
L 283.574002 139.839625 
L 288.964687 139.01125 
L 289.794829 138.182875 
L 291.755112 137.3545 
L 294.859624 136.526125 
L 295.581464 134.869375 
L 296.828283 134.041 
L 300.11233 133.212625 
L 302.133148 132.38425 
L 302.494068 131.555875 
L 315.529882 129.899125 
L 319.329146 129.07075 
L 321.756191 127.414 
L 328.544968 126.585625 
L 328.905888 125.75725 
L 330.323953 124.928875 
L 331.406618 124.1005 
L 333.832444 123.272125 
L 334.992883 120.787 
L 335.592751 119.958625 
L 342.615482 119.13025 
L 342.976402 118.301875 
L 344.28411 116.645125 
L 345.46729 115.81675 
L 345.82821 114.988375 
L 347.801112 114.16 
L 348.491735 113.331625 
L 352.325135 112.50325 
L 353.290388 111.674875 
L 357.808949 110.8465 
L 358.530789 109.18975 
L 360.497592 108.361375 
L 363.509365 106.704625 
L 367.124414 105.87625 
L 367.68098 105.047875 
L 370.301273 103.391125 
L 374.786757 102.56275 
L 375.147677 101.734375 
L 379.549017 100.906 
L 381.097176 100.077625 
L 381.458096 99.24925 
L 386.034612 98.420875 
L 387.674815 95.93575 
L 389.317447 95.107375 
L 392.651136 94.279 
L 393.012056 93.450625 
L 394.78618 92.62225 
L 397.059857 91.793875 
L 400.382637 90.9655 
L 401.554133 89.30875 
L 401.919295 88.480375 
L 402.834589 87.652 
L 405.880622 85.99525 
L 406.602463 84.3385 
L 409.42902 83.510125 
L 410.26226 82.68175 
L 410.9841 81.025 
L 410.9841 81.025 
" clip-path="url(#p2d3e311ced)" style="fill: none; stroke: #1f77b4; stroke-width: 1.5; stroke-linecap: square"/>
   </g>
   <g id="line2d_32">
    <path d="M 52.204986 245.871625 
L 53.826529 245.04325 
L 56.092982 244.214875 
L 59.448826 243.3865 
L 61.114875 242.558125 
L 64.636635 241.72975 
L 66.057219 240.901375 
L 69.448 240.073 
L 70.442422 239.244625 
L 74.078992 237.587875 
L 74.954455 236.7595 
L 75.993037 235.931125 
L 76.630348 235.10275 
L 80.642922 234.274375 
L 80.748284 233.446 
L 86.730377 232.617625 
L 87.304883 231.78925 
L 88.177592 230.960875 
L 89.349583 230.1325 
L 95.198488 228.47575 
L 99.251603 225.990625 
L 100.151868 225.16225 
L 104.840679 224.333875 
L 108.104064 223.5055 
L 108.237037 222.677125 
L 108.979771 221.84875 
L 109.14428 221.020375 
L 111.029389 220.192 
L 111.066249 219.363625 
L 111.895008 218.53525 
L 115.12071 217.706875 
L 120.805509 216.8785 
L 123.522849 216.050125 
L 123.79576 215.22175 
L 131.160709 213.565 
L 138.0998 212.736625 
L 139.257829 211.90825 
L 145.067275 210.2515 
L 146.184196 209.423125 
L 147.510513 208.59475 
L 150.247255 207.766375 
L 152.297172 206.938 
L 152.524325 206.109625 
L 154.825602 205.28125 
L 158.24307 203.6245 
L 158.522296 202.796125 
L 159.913344 201.96775 
L 165.136618 201.139375 
L 167.701614 200.311 
L 169.033098 199.482625 
L 169.235116 198.65425 
L 170.201598 197.825875 
L 171.359601 196.9975 
L 171.91412 196.169125 
L 172.286234 195.34075 
L 177.381606 193.684 
L 178.480757 192.855625 
L 178.921167 192.02725 
L 180.437636 191.198875 
L 180.699804 190.3705 
L 180.734035 189.542125 
L 181.441025 188.71375 
L 183.175934 187.885375 
L 183.468526 187.057 
L 185.177477 186.228625 
L 185.631229 185.40025 
L 187.36283 184.571875 
L 188.244481 183.7435 
L 193.437968 182.915125 
L 197.640728 182.08675 
L 199.707246 181.258375 
L 200.785939 180.43 
L 201.589922 179.601625 
L 203.303381 178.77325 
L 204.340183 177.944875 
L 208.538318 177.1165 
L 210.696815 176.288125 
L 210.9976 174.631375 
L 217.314088 173.803 
L 223.212145 171.317875 
L 223.976633 169.661125 
L 224.7768 168.83275 
L 225.025887 168.004375 
L 227.532555 167.176 
L 228.21643 166.347625 
L 229.905647 165.51925 
L 231.430922 163.8625 
L 232.954777 163.034125 
L 233.025487 162.20575 
L 234.067327 161.377375 
L 235.882523 160.549 
L 243.921112 159.720625 
L 249.683106 158.89225 
L 249.877345 158.063875 
L 251.786299 157.2355 
L 252.20912 156.407125 
L 254.028192 155.57875 
L 254.345646 154.750375 
L 264.018488 153.922 
L 265.929096 153.093625 
L 267.502556 152.26525 
L 268.029645 151.436875 
L 270.128407 149.780125 
L 271.290175 148.95175 
L 271.795963 148.123375 
L 273.558812 147.295 
L 273.871238 146.466625 
L 274.615639 145.63825 
L 274.826696 144.809875 
L 278.781011 143.153125 
L 279.469567 142.32475 
L 279.737933 141.496375 
L 282.456809 140.668 
L 282.851801 139.839625 
L 288.242486 139.01125 
L 289.072628 138.182875 
L 291.03291 137.3545 
L 294.137422 136.526125 
L 294.162082 135.69775 
L 294.346412 134.869375 
L 296.106082 134.041 
L 299.390129 133.212625 
L 301.410947 132.38425 
L 301.593274 131.555875 
L 314.80768 129.899125 
L 318.606945 129.07075 
L 321.033989 127.414 
L 327.822767 126.585625 
L 327.926219 125.75725 
L 329.601752 124.928875 
L 330.684417 124.1005 
L 333.110243 123.272125 
L 333.218819 121.615375 
L 334.270682 120.787 
L 334.87055 119.958625 
L 341.893281 119.13025 
L 342.124372 118.301875 
L 342.928176 117.4735 
L 343.561909 116.645125 
L 344.745089 115.81675 
L 344.97317 114.988375 
L 347.078911 114.16 
L 347.769533 113.331625 
L 351.602934 112.50325 
L 352.568186 111.674875 
L 357.086748 110.8465 
L 357.206388 110.018125 
L 357.647424 109.18975 
L 359.775391 108.361375 
L 362.787163 106.704625 
L 366.402213 105.87625 
L 366.958779 105.047875 
L 369.579072 103.391125 
L 374.064556 102.56275 
L 374.24258 101.734375 
L 378.826816 100.906 
L 380.374975 100.077625 
L 380.531561 99.24925 
L 385.312411 98.420875 
L 386.591693 96.764125 
L 386.608658 95.93575 
L 388.595245 95.107375 
L 391.928935 94.279 
L 392.18398 93.450625 
L 394.063978 92.62225 
L 396.337656 91.793875 
L 399.660436 90.9655 
L 400.831932 89.30875 
L 401.197094 88.480375 
L 402.112388 87.652 
L 405.158421 85.99525 
L 405.195077 85.166875 
L 405.52036 84.3385 
L 408.706818 83.510125 
L 409.540058 82.68175 
L 409.548552 81.853375 
L 409.834295 81.025 
L 409.834295 81.025 
" clip-path="url(#p2d3e311ced)" style="fill: none; stroke: #ff7f0e; stroke-width: 1.5; stroke-linecap: square"/>
   </g>
   <g id="line2d_33">
    <path d="M 52.566267 246.7 
L 52.566267 245.871625 
L 52.566267 246.7 
L 54.18781 246.7 
L 54.18781 245.871625 
L 54.18781 246.7 
L 56.454264 246.7 
L 56.454264 245.871625 
L 56.454264 246.7 
L 59.810107 246.7 
L 59.810107 245.871625 
L 59.810107 246.7 
L 61.476156 246.7 
L 61.476156 245.871625 
L 61.476156 246.7 
L 64.997917 246.7 
L 64.997917 245.871625 
L 64.997917 246.7 
L 66.4185 246.7 
L 66.4185 245.871625 
L 66.4185 246.7 
L 69.809281 246.7 
L 69.809281 245.871625 
L 69.809281 246.7 
L 70.803703 246.7 
L 70.803703 245.871625 
L 70.803703 246.7 
L 72.56681 246.7 
L 72.56681 245.871625 
L 72.56681 246.7 
L 74.440273 246.7 
L 74.440273 245.871625 
L 74.440273 246.7 
L 75.315736 246.7 
L 75.315736 245.871625 
L 75.315736 246.7 
L 76.354318 246.7 
L 76.354318 245.871625 
L 76.354318 246.7 
L 76.991629 246.7 
L 76.991629 245.871625 
L 76.991629 246.7 
L 81.004204 246.7 
L 81.004204 245.871625 
L 81.004204 246.7 
L 81.184664 246.7 
L 81.184664 245.871625 
L 81.365124 245.871625 
L 81.365124 246.7 
L 87.091658 246.7 
L 87.091658 245.871625 
L 87.091658 246.7 
L 87.666164 246.7 
L 87.666164 245.871625 
L 87.666164 246.7 
L 88.538873 246.7 
L 88.538873 245.871625 
L 88.538873 246.7 
L 89.710864 246.7 
L 89.710864 245.871625 
L 89.710864 246.7 
L 92.542095 246.7 
L 92.542095 245.871625 
L 92.542095 246.7 
L 95.559769 246.7 
L 95.559769 245.871625 
L 95.559769 246.7 
L 96.918046 246.7 
L 96.918046 245.871625 
L 96.918046 246.7 
L 98.098043 246.7 
L 98.098043 245.871625 
L 98.098043 246.7 
L 99.612884 246.7 
L 99.612884 245.871625 
L 99.612884 246.7 
L 100.513149 246.7 
L 100.513149 245.871625 
L 100.513149 246.7 
L 105.20196 246.7 
L 105.20196 245.871625 
L 105.20196 246.7 
L 108.465345 246.7 
L 108.465345 245.871625 
L 108.465345 246.7 
L 108.645805 246.7 
L 108.645805 245.871625 
L 108.826265 245.871625 
L 108.826265 246.7 
L 109.341052 246.7 
L 109.341052 245.871625 
L 109.341052 246.7 
L 109.521512 246.7 
L 109.521512 245.871625 
L 109.701972 245.871625 
L 109.701972 246.7 
L 111.39067 246.7 
L 111.39067 245.871625 
L 111.39067 246.7 
L 111.57113 246.7 
L 111.57113 245.871625 
L 111.75159 245.871625 
L 111.75159 246.7 
L 112.256289 246.7 
L 112.256289 245.871625 
L 112.256289 246.7 
L 115.481991 246.7 
L 115.481991 245.871625 
L 115.481991 246.7 
L 121.166791 246.7 
L 121.166791 245.871625 
L 121.166791 246.7 
L 123.88413 246.7 
L 123.88413 245.871625 
L 123.88413 246.7 
L 124.157041 246.7 
L 124.157041 245.871625 
L 124.24505 246.7 
L 127.838994 246.7 
L 127.838994 245.871625 
L 127.838994 246.7 
L 131.52199 246.7 
L 131.52199 245.871625 
L 131.52199 246.7 
L 138.461081 246.7 
L 138.461081 245.871625 
L 138.461081 246.7 
L 139.61911 246.7 
L 139.61911 245.871625 
L 139.61911 246.7 
L 142.515927 246.7 
L 142.515927 245.871625 
L 142.515927 246.7 
L 145.428556 246.7 
L 145.428556 245.871625 
L 145.428556 246.7 
L 146.545477 246.7 
L 146.545477 245.871625 
L 146.545477 246.7 
L 147.871794 246.7 
L 147.871794 245.871625 
L 147.871794 246.7 
L 150.608536 246.7 
L 150.608536 245.871625 
L 150.608536 246.7 
L 152.658453 246.7 
L 152.658453 245.871625 
L 152.658453 246.7 
L 152.885606 246.7 
L 152.885606 245.871625 
L 153.019373 245.871625 
L 153.019373 246.7 
L 155.186883 246.7 
L 155.186883 245.871625 
L 155.186883 246.7 
L 157.03016 246.7 
L 157.03016 245.871625 
L 157.03016 246.7 
L 158.604351 246.7 
L 158.604351 245.871625 
L 158.604351 246.7 
L 158.883577 246.7 
L 158.883577 245.871625 
L 158.965271 246.7 
L 160.274626 246.7 
L 160.274626 245.871625 
L 160.274626 246.7 
L 165.497899 246.7 
L 165.497899 245.871625 
L 165.497899 246.7 
L 168.062895 246.7 
L 168.062895 245.871625 
L 168.062895 246.7 
L 169.394379 246.7 
L 169.394379 245.871625 
L 169.394379 246.7 
L 169.596397 246.7 
L 169.596397 245.871625 
L 169.755299 245.871625 
L 169.755299 246.7 
L 170.562879 246.7 
L 170.562879 245.871625 
L 170.562879 246.7 
L 171.720882 246.7 
L 171.720882 245.871625 
L 171.720882 246.7 
L 172.275401 246.7 
L 172.275401 245.871625 
L 172.275401 246.7 
L 172.647515 246.7 
L 172.647515 245.871625 
L 172.647515 246.7 
L 175.333221 246.7 
L 175.333221 245.871625 
L 175.333221 246.7 
L 177.742887 246.7 
L 177.742887 245.871625 
L 177.742887 246.7 
L 178.842038 246.7 
L 178.842038 245.871625 
L 178.842038 246.7 
L 179.282448 246.7 
L 179.282448 245.871625 
L 179.282448 246.7 
L 180.798917 246.7 
L 180.798917 245.871625 
L 180.798917 246.7 
L 181.061085 246.7 
L 181.061085 245.871625 
L 181.159837 246.7 
L 181.241546 246.7 
L 181.241546 245.871625 
L 181.520757 245.871625 
L 181.520757 246.7 
L 181.802306 246.7 
L 181.802306 245.871625 
L 181.881677 246.7 
L 183.537215 246.7 
L 183.537215 245.871625 
L 183.537215 246.7 
L 183.829807 246.7 
L 183.829807 245.871625 
L 183.898135 246.7 
L 185.538758 246.7 
L 185.538758 245.871625 
L 185.538758 246.7 
L 185.99251 246.7 
L 185.99251 245.871625 
L 185.99251 246.7 
L 187.724111 246.7 
L 187.724111 245.871625 
L 187.724111 246.7 
L 188.605762 246.7 
L 188.605762 245.871625 
L 188.605762 246.7 
L 193.79925 246.7 
L 193.79925 245.871625 
L 193.79925 246.7 
L 198.002009 246.7 
L 198.002009 245.871625 
L 198.002009 246.7 
L 200.068527 246.7 
L 200.068527 245.871625 
L 200.068527 246.7 
L 201.147221 246.7 
L 201.147221 245.871625 
L 201.147221 246.7 
L 201.951204 246.7 
L 201.951204 245.871625 
L 201.951204 246.7 
L 203.664662 246.7 
L 203.664662 245.871625 
L 203.664662 246.7 
L 204.701464 246.7 
L 204.701464 245.871625 
L 204.701464 246.7 
L 208.899599 246.7 
L 208.899599 245.871625 
L 208.899599 246.7 
L 211.058096 246.7 
L 211.058096 245.871625 
L 211.058096 246.7 
L 211.246788 246.7 
L 211.246788 245.871625 
L 211.419017 245.871625 
L 211.419017 246.7 
L 211.427248 245.871625 
L 211.779937 245.871625 
L 211.779937 246.7 
L 217.67537 246.7 
L 217.67537 245.871625 
L 217.67537 246.7 
L 219.658468 246.7 
L 219.658468 245.871625 
L 219.658468 246.7 
L 221.569241 246.7 
L 221.569241 245.871625 
L 221.569241 246.7 
L 223.573426 246.7 
L 223.573426 245.871625 
L 223.573426 246.7 
L 223.911655 246.7 
L 223.911655 245.871625 
L 223.934346 246.7 
L 224.337914 246.7 
L 224.337914 245.871625 
L 224.337914 246.7 
L 225.138081 246.7 
L 225.138081 245.871625 
L 225.138081 246.7 
L 225.387168 246.7 
L 225.387168 245.871625 
L 225.499002 245.871625 
L 225.499002 246.7 
L 227.893836 246.7 
L 227.893836 245.871625 
L 227.893836 246.7 
L 228.577711 246.7 
L 228.577711 245.871625 
L 228.577711 246.7 
L 230.266928 246.7 
L 230.266928 245.871625 
L 230.266928 246.7 
L 231.082792 246.7 
L 231.082792 245.871625 
L 231.082792 246.7 
L 231.792203 246.7 
L 231.792203 245.871625 
L 231.792203 246.7 
L 233.316059 246.7 
L 233.316059 245.871625 
L 233.316059 246.7 
L 233.496519 246.7 
L 233.496519 245.871625 
L 233.676979 245.871625 
L 233.676979 246.7 
L 234.428608 246.7 
L 234.428608 245.871625 
L 234.428608 246.7 
L 236.243804 246.7 
L 236.243804 245.871625 
L 236.243804 246.7 
L 244.282393 246.7 
L 244.282393 245.871625 
L 244.282393 246.7 
L 250.044387 246.7 
L 250.044387 245.871625 
L 250.044387 246.7 
L 250.238626 246.7 
L 250.238626 245.871625 
L 250.405308 245.871625 
L 250.405308 246.7 
L 252.14758 246.7 
L 252.14758 245.871625 
L 252.14758 246.7 
L 252.570401 246.7 
L 252.570401 245.871625 
L 252.570401 246.7 
L 254.389473 246.7 
L 254.389473 245.871625 
L 254.389473 246.7 
L 254.706927 246.7 
L 254.706927 245.871625 
L 254.750394 246.7 
L 264.379769 246.7 
L 264.379769 245.871625 
L 264.379769 246.7 
L 266.290377 246.7 
L 266.290377 245.871625 
L 266.290377 246.7 
L 267.863837 246.7 
L 267.863837 245.871625 
L 267.863837 246.7 
L 268.390926 246.7 
L 268.390926 245.871625 
L 268.390926 246.7 
L 269.356504 246.7 
L 269.356504 245.871625 
L 269.356504 246.7 
L 270.489688 246.7 
L 270.489688 245.871625 
L 270.489688 246.7 
L 271.651456 246.7 
L 271.651456 245.871625 
L 271.651456 246.7 
L 272.157244 246.7 
L 272.157244 245.871625 
L 272.157244 246.7 
L 273.920094 246.7 
L 273.920094 245.871625 
L 273.920094 246.7 
L 274.23252 246.7 
L 274.23252 245.871625 
L 274.281014 246.7 
L 274.97692 246.7 
L 274.97692 245.871625 
L 274.97692 246.7 
L 275.187977 246.7 
L 275.187977 245.871625 
L 275.33784 245.871625 
L 275.33784 246.7 
L 277.214848 246.7 
L 277.214848 245.871625 
L 277.214848 246.7 
L 279.142292 246.7 
L 279.142292 245.871625 
L 279.142292 246.7 
L 279.830848 246.7 
L 279.830848 245.871625 
L 279.830848 246.7 
L 280.099214 246.7 
L 280.099214 245.871625 
L 280.191768 246.7 
L 282.81809 246.7 
L 282.81809 245.871625 
L 282.81809 246.7 
L 283.213082 246.7 
L 283.213082 245.871625 
L 283.213082 246.7 
L 288.603767 246.7 
L 288.603767 245.871625 
L 288.603767 246.7 
L 289.433909 246.7 
L 289.433909 245.871625 
L 289.433909 246.7 
L 291.394192 246.7 
L 291.394192 245.871625 
L 291.394192 246.7 
L 294.498704 246.7 
L 294.498704 245.871625 
L 294.498704 246.7 
L 294.679164 246.7 
L 294.679164 245.871625 
L 294.859624 245.871625 
L 294.859624 246.7 
L 294.859624 245.871625 
L 295.220544 245.871625 
L 295.220544 246.7 
L 296.467363 246.7 
L 296.467363 245.871625 
L 296.467363 246.7 
L 299.75141 246.7 
L 299.75141 245.871625 
L 299.75141 246.7 
L 301.772228 246.7 
L 301.772228 245.871625 
L 301.772228 246.7 
L 301.954555 246.7 
L 301.954555 245.871625 
L 302.133148 245.871625 
L 302.133148 246.7 
L 308.403456 246.7 
L 308.403456 245.871625 
L 308.403456 246.7 
L 315.168962 246.7 
L 315.168962 245.871625 
L 315.168962 246.7 
L 318.968226 246.7 
L 318.968226 245.871625 
L 318.968226 246.7 
L 320.109341 246.7 
L 320.109341 245.871625 
L 320.109341 246.7 
L 321.39527 246.7 
L 321.39527 245.871625 
L 321.39527 246.7 
L 328.184048 246.7 
L 328.184048 245.871625 
L 328.184048 246.7 
L 328.364508 246.7 
L 328.364508 245.871625 
L 328.544968 245.871625 
L 328.544968 246.7 
L 329.963033 246.7 
L 329.963033 245.871625 
L 329.963033 246.7 
L 331.045698 246.7 
L 331.045698 245.871625 
L 331.045698 246.7 
L 333.471524 246.7 
L 333.471524 245.871625 
L 333.471524 246.7 
L 333.651984 246.7 
L 333.651984 245.871625 
L 333.832444 245.871625 
L 333.832444 246.7 
L 333.832444 245.871625 
L 334.193364 245.871625 
L 334.193364 246.7 
L 334.631963 246.7 
L 334.631963 245.871625 
L 334.631963 246.7 
L 335.231831 246.7 
L 335.231831 245.871625 
L 335.231831 246.7 
L 342.254562 246.7 
L 342.254562 245.871625 
L 342.254562 246.7 
L 342.485653 246.7 
L 342.485653 245.871625 
L 342.615482 245.871625 
L 342.615482 246.7 
L 343.289457 246.7 
L 343.289457 245.871625 
L 343.289457 246.7 
L 343.92319 246.7 
L 343.92319 245.871625 
L 343.92319 246.7 
L 345.10637 246.7 
L 345.10637 245.871625 
L 345.10637 246.7 
L 345.334451 246.7 
L 345.334451 245.871625 
L 345.46729 245.871625 
L 345.46729 246.7 
L 347.440192 246.7 
L 347.440192 245.871625 
L 347.440192 246.7 
L 348.130814 246.7 
L 348.130814 245.871625 
L 348.130814 246.7 
L 351.964215 246.7 
L 351.964215 245.871625 
L 351.964215 246.7 
L 352.929468 246.7 
L 352.929468 245.871625 
L 352.929468 246.7 
L 357.448029 246.7 
L 357.448029 245.871625 
L 357.448029 246.7 
L 357.628489 246.7 
L 357.628489 245.871625 
L 357.808949 245.871625 
L 357.808949 246.7 
L 358.008706 246.7 
L 358.008706 245.871625 
L 358.169869 245.871625 
L 358.169869 246.7 
L 360.136672 246.7 
L 360.136672 245.871625 
L 360.136672 246.7 
L 361.639622 246.7 
L 361.639622 245.871625 
L 361.639622 246.7 
L 363.148444 246.7 
L 363.148444 245.871625 
L 363.148444 246.7 
L 366.763494 246.7 
L 366.763494 245.871625 
L 366.763494 246.7 
L 367.32006 246.7 
L 367.32006 245.871625 
L 367.32006 246.7 
L 368.603578 246.7 
L 368.603578 245.871625 
L 368.603578 246.7 
L 369.940353 246.7 
L 369.940353 245.871625 
L 369.940353 246.7 
L 374.425837 246.7 
L 374.425837 245.871625 
L 374.425837 246.7 
L 374.606297 246.7 
L 374.606297 245.871625 
L 374.786757 245.871625 
L 374.786757 246.7 
L 379.188097 246.7 
L 379.188097 245.871625 
L 379.188097 246.7 
L 380.736256 246.7 
L 380.736256 245.871625 
L 380.736256 246.7 
L 380.916716 246.7 
L 380.916716 245.871625 
L 381.097176 245.871625 
L 381.097176 246.7 
L 385.673692 246.7 
L 385.673692 245.871625 
L 385.673692 246.7 
L 386.260801 246.7 
L 386.260801 245.871625 
L 386.260801 246.7 
L 386.952974 246.7 
L 386.952974 245.871625 
L 386.952974 246.7 
L 387.133435 246.7 
L 387.133435 245.871625 
L 387.313895 245.871625 
L 387.313895 246.7 
L 388.956527 246.7 
L 388.956527 245.871625 
L 388.956527 246.7 
L 392.290216 246.7 
L 392.290216 245.871625 
L 392.290216 246.7 
L 392.545261 246.7 
L 392.545261 245.871625 
L 392.651136 246.7 
L 394.425259 246.7 
L 394.425259 245.871625 
L 394.425259 246.7 
L 396.698937 246.7 
L 396.698937 245.871625 
L 396.698937 246.7 
L 400.021717 246.7 
L 400.021717 245.871625 
L 400.021717 246.7 
L 400.638266 246.7 
L 400.638266 245.871625 
L 400.638266 246.7 
L 401.193213 246.7 
L 401.193213 245.871625 
L 401.193213 246.7 
L 401.558375 246.7 
L 401.558375 245.871625 
L 401.558375 246.7 
L 402.473669 246.7 
L 402.473669 245.871625 
L 402.473669 246.7 
L 404.067364 246.7 
L 404.067364 245.871625 
L 404.067364 246.7 
L 405.519702 246.7 
L 405.519702 245.871625 
L 405.519702 246.7 
L 405.700162 246.7 
L 405.700162 245.871625 
L 405.880622 245.871625 
L 405.880622 246.7 
L 405.881642 245.871625 
L 406.241543 245.871625 
L 406.241543 246.7 
L 409.068099 246.7 
L 409.068099 245.871625 
L 409.068099 246.7 
L 409.901339 246.7 
L 409.901339 245.871625 
L 409.901339 246.7 
L 410.081799 246.7 
L 410.081799 245.871625 
L 410.26226 245.871625 
L 410.26226 246.7 
L 410.26226 245.871625 
L 410.62318 245.871625 
L 410.62318 246.7 
L 410.9841 246.7 
L 410.9841 246.7 
" clip-path="url(#p2d3e311ced)" style="fill: none; stroke: #2ca02c; stroke-width: 1.5; stroke-linecap: square"/>
   </g>
   <g id="line2d_34">
    <path d="M 52.204986 246.7 
L 52.204986 245.871625 
L 52.204986 246.7 
L 53.826529 246.7 
L 53.826529 245.871625 
L 53.826529 246.7 
L 56.092982 246.7 
L 56.092982 245.871625 
L 56.092982 246.7 
L 59.448826 246.7 
L 59.448826 245.871625 
L 59.448826 246.7 
L 61.114875 246.7 
L 61.114875 245.871625 
L 61.114875 246.7 
L 64.636635 246.7 
L 64.636635 245.871625 
L 64.636635 246.7 
L 66.057219 246.7 
L 66.057219 245.871625 
L 66.057219 246.7 
L 69.448 246.7 
L 69.448 245.871625 
L 69.448 246.7 
L 70.442422 246.7 
L 70.442422 245.871625 
L 70.442422 246.7 
L 72.205529 246.7 
L 72.205529 245.871625 
L 72.205529 246.7 
L 74.078992 246.7 
L 74.078992 245.871625 
L 74.078992 246.7 
L 74.954455 246.7 
L 74.954455 245.871625 
L 74.954455 246.7 
L 75.993037 246.7 
L 75.993037 245.871625 
L 75.993037 246.7 
L 76.630348 246.7 
L 76.630348 245.871625 
L 76.630348 246.7 
L 80.642922 246.7 
L 80.642922 245.871625 
L 80.748284 245.871625 
L 80.823383 245.871625 
L 80.823383 246.7 
L 86.730377 246.7 
L 86.730377 245.871625 
L 86.730377 246.7 
L 87.304883 246.7 
L 87.304883 245.871625 
L 87.304883 246.7 
L 88.177592 246.7 
L 88.177592 245.871625 
L 88.177592 246.7 
L 89.349583 246.7 
L 89.349583 245.871625 
L 89.349583 246.7 
L 92.180814 246.7 
L 92.180814 245.871625 
L 92.180814 246.7 
L 95.198488 246.7 
L 95.198488 245.871625 
L 95.198488 246.7 
L 96.556765 246.7 
L 96.556765 245.871625 
L 96.556765 246.7 
L 97.736762 246.7 
L 97.736762 245.871625 
L 97.736762 246.7 
L 99.251603 246.7 
L 99.251603 245.871625 
L 99.251603 246.7 
L 100.151868 246.7 
L 100.151868 245.871625 
L 100.151868 246.7 
L 104.840679 246.7 
L 104.840679 245.871625 
L 104.840679 246.7 
L 108.104064 246.7 
L 108.104064 245.871625 
L 108.104064 246.7 
L 108.237037 246.7 
L 108.237037 245.871625 
L 108.284524 246.7 
L 108.979771 246.7 
L 108.979771 245.871625 
L 108.979771 246.7 
L 109.14428 246.7 
L 109.14428 245.871625 
L 109.160231 246.7 
L 111.029389 246.7 
L 111.029389 245.871625 
L 111.066249 245.871625 
L 111.209849 245.871625 
L 111.209849 246.7 
L 111.895008 246.7 
L 111.895008 245.871625 
L 111.895008 246.7 
L 115.12071 246.7 
L 115.12071 245.871625 
L 115.12071 246.7 
L 120.805509 246.7 
L 120.805509 245.871625 
L 120.805509 246.7 
L 123.522849 246.7 
L 123.522849 245.871625 
L 123.522849 246.7 
L 123.79576 246.7 
L 123.79576 245.871625 
L 123.79576 246.7 
L 127.477713 246.7 
L 127.477713 245.871625 
L 127.477713 246.7 
L 131.160709 246.7 
L 131.160709 245.871625 
L 131.160709 246.7 
L 138.0998 246.7 
L 138.0998 245.871625 
L 138.0998 246.7 
L 139.257829 246.7 
L 139.257829 245.871625 
L 139.257829 246.7 
L 142.154646 246.7 
L 142.154646 245.871625 
L 142.154646 246.7 
L 145.067275 246.7 
L 145.067275 245.871625 
L 145.067275 246.7 
L 146.184196 246.7 
L 146.184196 245.871625 
L 146.184196 246.7 
L 147.510513 246.7 
L 147.510513 245.871625 
L 147.510513 246.7 
L 150.247255 246.7 
L 150.247255 245.871625 
L 150.247255 246.7 
L 152.297172 246.7 
L 152.297172 245.871625 
L 152.297172 246.7 
L 152.524325 246.7 
L 152.524325 245.871625 
L 152.524325 246.7 
L 154.825602 246.7 
L 154.825602 245.871625 
L 154.825602 246.7 
L 156.668879 246.7 
L 156.668879 245.871625 
L 156.668879 246.7 
L 158.24307 246.7 
L 158.24307 245.871625 
L 158.24307 246.7 
L 158.522296 246.7 
L 158.522296 245.871625 
L 158.522296 246.7 
L 159.913344 246.7 
L 159.913344 245.871625 
L 159.913344 246.7 
L 165.136618 246.7 
L 165.136618 245.871625 
L 165.136618 246.7 
L 167.701614 246.7 
L 167.701614 245.871625 
L 167.701614 246.7 
L 169.033098 246.7 
L 169.033098 245.871625 
L 169.033098 246.7 
L 169.235116 246.7 
L 169.235116 245.871625 
L 169.235116 246.7 
L 170.201598 246.7 
L 170.201598 245.871625 
L 170.201598 246.7 
L 171.359601 246.7 
L 171.359601 245.871625 
L 171.359601 246.7 
L 171.91412 246.7 
L 171.91412 245.871625 
L 171.91412 246.7 
L 172.286234 246.7 
L 172.286234 245.871625 
L 172.286234 246.7 
L 174.97194 246.7 
L 174.97194 245.871625 
L 174.97194 246.7 
L 177.381606 246.7 
L 177.381606 245.871625 
L 177.381606 246.7 
L 178.480757 246.7 
L 178.480757 245.871625 
L 178.480757 246.7 
L 178.921167 246.7 
L 178.921167 245.871625 
L 178.921167 246.7 
L 180.437636 246.7 
L 180.437636 245.871625 
L 180.437636 246.7 
L 180.699804 246.7 
L 180.699804 245.871625 
L 180.734035 245.871625 
L 180.880264 245.871625 
L 180.880264 246.7 
L 181.441025 246.7 
L 181.441025 245.871625 
L 181.441025 246.7 
L 183.175934 246.7 
L 183.175934 245.871625 
L 183.175934 246.7 
L 183.468526 246.7 
L 183.468526 245.871625 
L 183.468526 246.7 
L 185.177477 246.7 
L 185.177477 245.871625 
L 185.177477 246.7 
L 185.631229 246.7 
L 185.631229 245.871625 
L 185.631229 246.7 
L 187.36283 246.7 
L 187.36283 245.871625 
L 187.36283 246.7 
L 188.244481 246.7 
L 188.244481 245.871625 
L 188.244481 246.7 
L 193.437968 246.7 
L 193.437968 245.871625 
L 193.437968 246.7 
L 197.640728 246.7 
L 197.640728 245.871625 
L 197.640728 246.7 
L 199.707246 246.7 
L 199.707246 245.871625 
L 199.707246 246.7 
L 200.785939 246.7 
L 200.785939 245.871625 
L 200.785939 246.7 
L 201.589922 246.7 
L 201.589922 245.871625 
L 201.589922 246.7 
L 203.303381 246.7 
L 203.303381 245.871625 
L 203.303381 246.7 
L 204.340183 246.7 
L 204.340183 245.871625 
L 204.340183 246.7 
L 208.538318 246.7 
L 208.538318 245.871625 
L 208.538318 246.7 
L 210.696815 246.7 
L 210.696815 245.871625 
L 210.696815 246.7 
L 210.885507 246.7 
L 210.885507 245.871625 
L 210.885507 246.7 
L 210.9976 246.7 
L 210.9976 245.871625 
L 211.065967 246.7 
L 217.314088 246.7 
L 217.314088 245.871625 
L 217.314088 246.7 
L 219.297187 246.7 
L 219.297187 245.871625 
L 219.297187 246.7 
L 221.20796 246.7 
L 221.20796 245.871625 
L 221.20796 246.7 
L 223.212145 246.7 
L 223.212145 245.871625 
L 223.212145 246.7 
L 223.550374 246.7 
L 223.550374 245.871625 
L 223.550374 246.7 
L 223.976633 246.7 
L 223.976633 245.871625 
L 223.976633 246.7 
L 224.7768 246.7 
L 224.7768 245.871625 
L 224.7768 246.7 
L 225.025887 246.7 
L 225.025887 245.871625 
L 225.025887 246.7 
L 227.532555 246.7 
L 227.532555 245.871625 
L 227.532555 246.7 
L 228.21643 246.7 
L 228.21643 245.871625 
L 228.21643 246.7 
L 229.905647 246.7 
L 229.905647 245.871625 
L 229.905647 246.7 
L 230.721511 246.7 
L 230.721511 245.871625 
L 230.721511 246.7 
L 231.430922 246.7 
L 231.430922 245.871625 
L 231.430922 246.7 
L 232.954777 246.7 
L 232.954777 245.871625 
L 233.025487 245.871625 
L 233.135238 245.871625 
L 233.135238 246.7 
L 234.067327 246.7 
L 234.067327 245.871625 
L 234.067327 246.7 
L 235.882523 246.7 
L 235.882523 245.871625 
L 235.882523 246.7 
L 243.921112 246.7 
L 243.921112 245.871625 
L 243.921112 246.7 
L 249.683106 246.7 
L 249.683106 245.871625 
L 249.683106 246.7 
L 249.877345 246.7 
L 249.877345 245.871625 
L 249.877345 246.7 
L 251.786299 246.7 
L 251.786299 245.871625 
L 251.786299 246.7 
L 252.20912 246.7 
L 252.20912 245.871625 
L 252.20912 246.7 
L 254.028192 246.7 
L 254.028192 245.871625 
L 254.028192 246.7 
L 254.345646 246.7 
L 254.345646 245.871625 
L 254.345646 246.7 
L 264.018488 246.7 
L 264.018488 245.871625 
L 264.018488 246.7 
L 265.929096 246.7 
L 265.929096 245.871625 
L 265.929096 246.7 
L 267.502556 246.7 
L 267.502556 245.871625 
L 267.502556 246.7 
L 268.029645 246.7 
L 268.029645 245.871625 
L 268.029645 246.7 
L 268.995223 246.7 
L 268.995223 245.871625 
L 268.995223 246.7 
L 270.128407 246.7 
L 270.128407 245.871625 
L 270.128407 246.7 
L 271.290175 246.7 
L 271.290175 245.871625 
L 271.290175 246.7 
L 271.795963 246.7 
L 271.795963 245.871625 
L 271.795963 246.7 
L 273.558812 246.7 
L 273.558812 245.871625 
L 273.558812 246.7 
L 273.871238 246.7 
L 273.871238 245.871625 
L 273.871238 246.7 
L 274.615639 246.7 
L 274.615639 245.871625 
L 274.615639 246.7 
L 274.826696 246.7 
L 274.826696 245.871625 
L 274.826696 246.7 
L 276.853567 246.7 
L 276.853567 245.871625 
L 276.853567 246.7 
L 278.781011 246.7 
L 278.781011 245.871625 
L 278.781011 246.7 
L 279.469567 246.7 
L 279.469567 245.871625 
L 279.469567 246.7 
L 279.737933 246.7 
L 279.737933 245.871625 
L 279.737933 246.7 
L 282.456809 246.7 
L 282.456809 245.871625 
L 282.456809 246.7 
L 282.851801 246.7 
L 282.851801 245.871625 
L 282.851801 246.7 
L 288.242486 246.7 
L 288.242486 245.871625 
L 288.242486 246.7 
L 289.072628 246.7 
L 289.072628 245.871625 
L 289.072628 246.7 
L 291.03291 246.7 
L 291.03291 245.871625 
L 291.03291 246.7 
L 294.137422 246.7 
L 294.137422 245.871625 
L 294.162082 245.871625 
L 294.317883 245.871625 
L 294.317883 246.7 
L 294.346412 245.871625 
L 294.498343 245.871625 
L 294.498343 246.7 
L 296.106082 246.7 
L 296.106082 245.871625 
L 296.106082 246.7 
L 299.390129 246.7 
L 299.390129 245.871625 
L 299.390129 246.7 
L 301.410947 246.7 
L 301.410947 245.871625 
L 301.410947 246.7 
L 301.593274 246.7 
L 301.593274 245.871625 
L 301.593274 246.7 
L 308.042175 246.7 
L 308.042175 245.871625 
L 308.042175 246.7 
L 314.80768 246.7 
L 314.80768 245.871625 
L 314.80768 246.7 
L 318.606945 246.7 
L 318.606945 245.871625 
L 318.606945 246.7 
L 319.74806 246.7 
L 319.74806 245.871625 
L 319.74806 246.7 
L 321.033989 246.7 
L 321.033989 245.871625 
L 321.033989 246.7 
L 327.822767 246.7 
L 327.822767 245.871625 
L 327.926219 245.871625 
L 328.003227 245.871625 
L 328.003227 246.7 
L 329.601752 246.7 
L 329.601752 245.871625 
L 329.601752 246.7 
L 330.684417 246.7 
L 330.684417 245.871625 
L 330.684417 246.7 
L 333.110243 246.7 
L 333.218819 245.04325 
L 333.290703 245.04325 
L 333.290703 245.871625 
L 333.471163 245.871625 
L 333.471163 246.7 
L 334.270682 246.7 
L 334.270682 245.871625 
L 334.270682 246.7 
L 334.87055 246.7 
L 334.87055 245.871625 
L 334.87055 246.7 
L 341.893281 246.7 
L 341.893281 245.871625 
L 341.893281 246.7 
L 342.124372 246.7 
L 342.124372 245.871625 
L 342.124372 246.7 
L 342.928176 246.7 
L 342.928176 245.871625 
L 342.928176 246.7 
L 343.561909 246.7 
L 343.561909 245.871625 
L 343.561909 246.7 
L 344.745089 246.7 
L 344.745089 245.871625 
L 344.745089 246.7 
L 344.97317 246.7 
L 344.97317 245.871625 
L 344.97317 246.7 
L 347.078911 246.7 
L 347.078911 245.871625 
L 347.078911 246.7 
L 347.769533 246.7 
L 347.769533 245.871625 
L 347.769533 246.7 
L 351.602934 246.7 
L 351.602934 245.871625 
L 351.602934 246.7 
L 352.568186 246.7 
L 352.568186 245.871625 
L 352.568186 246.7 
L 357.086748 246.7 
L 357.086748 245.871625 
L 357.086748 246.7 
L 357.206388 246.7 
L 357.206388 245.871625 
L 357.267208 246.7 
L 357.647424 246.7 
L 357.647424 245.871625 
L 357.647424 246.7 
L 359.775391 246.7 
L 359.775391 245.871625 
L 359.775391 246.7 
L 361.278341 246.7 
L 361.278341 245.871625 
L 361.278341 246.7 
L 362.787163 246.7 
L 362.787163 245.871625 
L 362.787163 246.7 
L 366.402213 246.7 
L 366.402213 245.871625 
L 366.402213 246.7 
L 366.958779 246.7 
L 366.958779 245.871625 
L 366.958779 246.7 
L 368.242297 246.7 
L 368.242297 245.871625 
L 368.242297 246.7 
L 369.579072 246.7 
L 369.579072 245.871625 
L 369.579072 246.7 
L 374.064556 246.7 
L 374.064556 245.871625 
L 374.064556 246.7 
L 374.24258 246.7 
L 374.24258 245.871625 
L 374.245016 246.7 
L 378.826816 246.7 
L 378.826816 245.871625 
L 378.826816 246.7 
L 380.374975 246.7 
L 380.374975 245.871625 
L 380.374975 246.7 
L 380.531561 246.7 
L 380.531561 245.871625 
L 380.555435 246.7 
L 385.312411 246.7 
L 385.312411 245.871625 
L 385.312411 246.7 
L 385.89952 246.7 
L 385.89952 245.871625 
L 385.89952 246.7 
L 386.591693 246.7 
L 386.591693 245.871625 
L 386.608658 245.871625 
L 386.772153 245.871625 
L 386.772153 246.7 
L 388.595245 246.7 
L 388.595245 245.871625 
L 388.595245 246.7 
L 391.928935 246.7 
L 391.928935 245.871625 
L 391.928935 246.7 
L 392.18398 246.7 
L 392.18398 245.871625 
L 392.18398 246.7 
L 394.063978 246.7 
L 394.063978 245.871625 
L 394.063978 246.7 
L 396.337656 246.7 
L 396.337656 245.871625 
L 396.337656 246.7 
L 399.660436 246.7 
L 399.660436 245.871625 
L 399.660436 246.7 
L 400.276985 246.7 
L 400.276985 245.871625 
L 400.276985 246.7 
L 400.831932 246.7 
L 400.831932 245.871625 
L 400.831932 246.7 
L 401.197094 246.7 
L 401.197094 245.871625 
L 401.197094 246.7 
L 402.112388 246.7 
L 402.112388 245.871625 
L 402.112388 246.7 
L 403.706083 246.7 
L 403.706083 245.871625 
L 403.706083 246.7 
L 405.158421 246.7 
L 405.158421 245.871625 
L 405.195077 245.871625 
L 405.338881 245.871625 
L 405.338881 246.7 
L 405.52036 246.7 
L 405.52036 245.871625 
L 405.52036 246.7 
L 408.706818 246.7 
L 408.706818 245.871625 
L 408.706818 246.7 
L 409.540058 246.7 
L 409.540058 245.871625 
L 409.548552 245.871625 
L 409.720518 245.871625 
L 409.720518 246.7 
L 409.834295 246.7 
L 409.834295 245.871625 
L 409.900978 246.7 
L 410.081439 246.7 
L 410.081439 246.7 
" clip-path="url(#p2d3e311ced)" style="fill: none; stroke: #d62728; stroke-width: 1.5; stroke-linecap: square"/>
   </g>
   <g id="line2d_35">
    <path d="M 52.385626 246.7 
L 52.385626 245.871625 
L 52.385626 246.7 
L 54.007169 246.7 
L 54.007169 245.871625 
L 54.007169 246.7 
L 56.273623 246.7 
L 56.273623 245.871625 
L 56.273623 246.7 
L 59.629466 246.7 
L 59.629466 245.871625 
L 59.629466 246.7 
L 61.295516 246.7 
L 61.295516 245.871625 
L 61.295516 246.7 
L 64.817276 246.7 
L 64.817276 245.871625 
L 64.817276 246.7 
L 66.23786 246.7 
L 66.23786 245.871625 
L 66.23786 246.7 
L 69.62864 246.7 
L 69.62864 245.871625 
L 69.62864 246.7 
L 70.623063 246.7 
L 70.623063 245.871625 
L 70.623063 246.7 
L 72.386169 246.7 
L 72.386169 245.871625 
L 72.386169 246.7 
L 74.259632 246.7 
L 74.259632 245.871625 
L 74.259632 246.7 
L 75.135095 246.7 
L 75.135095 245.871625 
L 75.135095 246.7 
L 76.173678 246.7 
L 76.173678 245.871625 
L 76.173678 246.7 
L 76.810989 246.7 
L 76.810989 245.871625 
L 76.810989 246.7 
L 80.823563 246.7 
L 80.823563 245.871625 
L 80.823563 246.7 
L 81.004023 246.7 
L 81.004023 245.871625 
L 81.004023 246.7 
L 86.911018 246.7 
L 86.911018 245.871625 
L 86.911018 246.7 
L 87.485523 246.7 
L 87.485523 245.871625 
L 87.485523 246.7 
L 88.358232 246.7 
L 88.358232 245.871625 
L 88.358232 246.7 
L 89.530224 246.7 
L 89.530224 245.871625 
L 89.530224 246.7 
L 92.361455 246.7 
L 92.361455 245.871625 
L 92.361455 246.7 
L 95.379129 246.7 
L 95.379129 245.871625 
L 95.379129 246.7 
L 96.737405 246.7 
L 96.737405 245.871625 
L 96.737405 246.7 
L 97.917402 246.7 
L 97.917402 245.871625 
L 97.917402 246.7 
L 99.432243 246.7 
L 99.432243 245.871625 
L 99.432243 246.7 
L 100.332508 246.7 
L 100.332508 245.871625 
L 100.332508 246.7 
L 105.02132 246.7 
L 105.02132 245.871625 
L 105.02132 246.7 
L 108.284705 246.7 
L 108.284705 245.871625 
L 108.284705 246.7 
L 108.465165 246.7 
L 108.465165 245.871625 
L 108.465165 246.7 
L 109.160411 246.7 
L 109.160411 245.871625 
L 109.160411 246.7 
L 109.340871 246.7 
L 109.340871 245.871625 
L 109.340871 246.7 
L 111.210029 246.7 
L 111.210029 245.871625 
L 111.210029 246.7 
L 111.390489 246.7 
L 111.390489 245.871625 
L 111.390489 246.7 
L 112.075649 246.7 
L 112.075649 245.871625 
L 112.075649 246.7 
L 115.301351 246.7 
L 115.301351 245.871625 
L 115.301351 246.7 
L 120.98615 246.7 
L 120.98615 245.871625 
L 120.98615 246.7 
L 123.70349 246.7 
L 123.70349 245.871625 
L 123.70349 246.7 
L 123.976401 246.7 
L 123.976401 245.871625 
L 123.976401 246.7 
L 127.658354 246.7 
L 127.658354 245.871625 
L 127.658354 246.7 
L 131.34135 246.7 
L 131.34135 245.871625 
L 131.34135 246.7 
L 138.28044 246.7 
L 138.28044 245.871625 
L 138.28044 246.7 
L 139.438469 246.7 
L 139.438469 245.871625 
L 139.438469 246.7 
L 142.335286 246.7 
L 142.335286 245.871625 
L 142.335286 246.7 
L 145.247916 246.7 
L 145.247916 245.871625 
L 145.247916 246.7 
L 146.364836 246.7 
L 146.364836 245.871625 
L 146.364836 246.7 
L 147.691154 246.7 
L 147.691154 245.871625 
L 147.691154 246.7 
L 150.427896 246.7 
L 150.427896 245.871625 
L 150.427896 246.7 
L 152.477812 246.7 
L 152.477812 245.871625 
L 152.477812 246.7 
L 152.704965 246.7 
L 152.704965 245.871625 
L 152.704965 246.7 
L 155.006242 246.7 
L 155.006242 245.871625 
L 155.006242 246.7 
L 156.849519 246.7 
L 156.849519 245.871625 
L 156.849519 246.7 
L 158.423711 246.7 
L 158.423711 245.871625 
L 158.423711 246.7 
L 158.702936 246.7 
L 158.702936 245.871625 
L 158.702936 246.7 
L 160.093985 246.7 
L 160.093985 245.871625 
L 160.093985 246.7 
L 165.317259 246.7 
L 165.317259 245.871625 
L 165.317259 246.7 
L 167.882255 246.7 
L 167.882255 245.871625 
L 167.882255 246.7 
L 169.213738 246.7 
L 169.213738 245.871625 
L 169.213738 246.7 
L 169.415757 246.7 
L 169.415757 245.871625 
L 169.415757 246.7 
L 170.382239 246.7 
L 170.382239 245.871625 
L 170.382239 246.7 
L 171.540242 246.7 
L 171.540242 245.871625 
L 171.540242 246.7 
L 172.09476 246.7 
L 172.09476 245.871625 
L 172.09476 246.7 
L 172.466875 246.7 
L 172.466875 245.871625 
L 172.466875 246.7 
L 175.152581 246.7 
L 175.152581 245.871625 
L 175.152581 246.7 
L 177.562247 246.7 
L 177.562247 245.871625 
L 177.562247 246.7 
L 178.661397 246.7 
L 178.661397 245.871625 
L 178.661397 246.7 
L 179.101807 246.7 
L 179.101807 245.871625 
L 179.101807 246.7 
L 180.618276 246.7 
L 180.618276 245.871625 
L 180.618276 246.7 
L 180.880445 246.7 
L 180.880445 245.871625 
L 180.880445 246.7 
L 181.060905 246.7 
L 181.060905 245.871625 
L 181.060905 246.7 
L 181.621666 246.7 
L 181.621666 245.871625 
L 181.621666 246.7 
L 183.356574 246.7 
L 183.356574 245.871625 
L 183.356574 246.7 
L 183.649166 246.7 
L 183.649166 245.871625 
L 183.649166 246.7 
L 185.358117 246.7 
L 185.358117 245.871625 
L 185.358117 246.7 
L 185.811869 246.7 
L 185.811869 245.871625 
L 185.811869 246.7 
L 187.543471 246.7 
L 187.543471 245.871625 
L 187.543471 246.7 
L 188.425121 246.7 
L 188.425121 245.871625 
L 188.425121 246.7 
L 193.618609 246.7 
L 193.618609 245.871625 
L 193.618609 246.7 
L 197.821368 246.7 
L 197.821368 245.871625 
L 197.821368 246.7 
L 199.887887 246.7 
L 199.887887 245.871625 
L 199.887887 246.7 
L 200.96658 246.7 
L 200.96658 245.871625 
L 200.96658 246.7 
L 201.770563 246.7 
L 201.770563 245.871625 
L 201.770563 246.7 
L 203.484022 246.7 
L 203.484022 245.871625 
L 203.484022 246.7 
L 204.520823 246.7 
L 204.520823 245.871625 
L 204.520823 246.7 
L 208.718959 246.7 
L 208.718959 245.871625 
L 208.718959 246.7 
L 210.877456 246.7 
L 210.877456 245.871625 
L 210.877456 246.7 
L 211.066147 246.7 
L 211.066147 245.871625 
L 211.066147 246.7 
L 211.246607 246.7 
L 211.246607 245.871625 
L 211.246607 246.7 
L 217.494729 246.7 
L 217.494729 245.871625 
L 217.494729 246.7 
L 219.477827 246.7 
L 219.477827 245.871625 
L 219.477827 246.7 
L 221.3886 246.7 
L 221.3886 245.871625 
L 221.3886 246.7 
L 223.392786 246.7 
L 223.392786 245.871625 
L 223.392786 246.7 
L 223.731015 246.7 
L 223.731015 245.871625 
L 223.731015 246.7 
L 224.157274 246.7 
L 224.157274 245.871625 
L 224.157274 246.7 
L 224.957441 246.7 
L 224.957441 245.871625 
L 224.957441 246.7 
L 225.206528 246.7 
L 225.206528 245.871625 
L 225.206528 246.7 
L 227.713195 246.7 
L 227.713195 245.871625 
L 227.713195 246.7 
L 228.39707 246.7 
L 228.39707 245.871625 
L 228.39707 246.7 
L 230.086288 246.7 
L 230.086288 245.871625 
L 230.086288 246.7 
L 230.902152 246.7 
L 230.902152 245.871625 
L 230.902152 246.7 
L 231.611563 246.7 
L 231.611563 245.871625 
L 231.611563 246.7 
L 233.135418 246.7 
L 233.135418 245.871625 
L 233.135418 246.7 
L 233.315878 246.7 
L 233.315878 245.871625 
L 233.315878 246.7 
L 234.247968 246.7 
L 234.247968 245.871625 
L 234.247968 246.7 
L 236.063164 246.7 
L 236.063164 245.871625 
L 236.063164 246.7 
L 244.101753 246.7 
L 244.101753 245.871625 
L 244.101753 246.7 
L 249.863747 246.7 
L 249.863747 245.871625 
L 249.863747 246.7 
L 250.057985 246.7 
L 250.057985 245.871625 
L 250.057985 246.7 
L 251.96694 246.7 
L 251.96694 245.871625 
L 251.96694 246.7 
L 252.38976 246.7 
L 252.38976 245.871625 
L 252.38976 246.7 
L 254.208833 246.7 
L 254.208833 245.871625 
L 254.208833 246.7 
L 254.526287 246.7 
L 254.526287 245.871625 
L 254.526287 246.7 
L 264.199128 246.7 
L 264.199128 245.871625 
L 264.199128 246.7 
L 266.109736 246.7 
L 266.109736 245.871625 
L 266.109736 246.7 
L 267.683196 246.7 
L 267.683196 245.871625 
L 267.683196 246.7 
L 268.210285 246.7 
L 268.210285 245.871625 
L 268.210285 246.7 
L 269.175863 246.7 
L 269.175863 245.871625 
L 269.175863 246.7 
L 270.309047 246.7 
L 270.309047 245.871625 
L 270.309047 246.7 
L 271.470815 246.7 
L 271.470815 245.871625 
L 271.470815 246.7 
L 271.976603 246.7 
L 271.976603 245.871625 
L 271.976603 246.7 
L 273.739453 246.7 
L 273.739453 245.871625 
L 273.739453 246.7 
L 274.051879 246.7 
L 274.051879 245.871625 
L 274.051879 246.7 
L 274.796279 246.7 
L 274.796279 245.871625 
L 274.796279 246.7 
L 275.007337 246.7 
L 275.007337 245.871625 
L 275.007337 246.7 
L 277.034207 246.7 
L 277.034207 245.871625 
L 277.034207 246.7 
L 278.961651 246.7 
L 278.961651 245.871625 
L 278.961651 246.7 
L 279.650207 246.7 
L 279.650207 245.871625 
L 279.650207 246.7 
L 279.918574 246.7 
L 279.918574 245.871625 
L 279.918574 246.7 
L 282.637449 246.7 
L 282.637449 245.871625 
L 282.637449 246.7 
L 283.032441 246.7 
L 283.032441 245.871625 
L 283.032441 246.7 
L 288.423127 246.7 
L 288.423127 245.871625 
L 288.423127 246.7 
L 289.253268 246.7 
L 289.253268 245.871625 
L 289.253268 246.7 
L 291.213551 246.7 
L 291.213551 245.871625 
L 291.213551 246.7 
L 294.318063 246.7 
L 294.318063 245.871625 
L 294.318063 246.7 
L 294.498523 246.7 
L 294.498523 245.871625 
L 294.498523 246.7 
L 294.678983 246.7 
L 294.678983 245.871625 
L 294.678983 246.7 
L 296.286723 246.7 
L 296.286723 245.871625 
L 296.286723 246.7 
L 299.570769 246.7 
L 299.570769 245.871625 
L 299.570769 246.7 
L 301.591587 246.7 
L 301.591587 245.871625 
L 301.591587 246.7 
L 301.773915 246.7 
L 301.773915 245.871625 
L 301.773915 246.7 
L 308.222816 246.7 
L 308.222816 245.871625 
L 308.222816 246.7 
L 314.988321 246.7 
L 314.988321 245.871625 
L 314.988321 246.7 
L 318.787586 246.7 
L 318.787586 245.871625 
L 318.787586 246.7 
L 319.928701 246.7 
L 319.928701 245.871625 
L 319.928701 246.7 
L 321.21463 246.7 
L 321.21463 245.871625 
L 321.21463 246.7 
L 328.003407 246.7 
L 328.003407 245.871625 
L 328.003407 246.7 
L 328.183867 246.7 
L 328.183867 245.871625 
L 328.183867 246.7 
L 329.782392 246.7 
L 329.782392 245.871625 
L 329.782392 246.7 
L 330.865057 246.7 
L 330.865057 245.871625 
L 330.865057 246.7 
L 333.290883 246.7 
L 333.290883 245.871625 
L 333.290883 246.7 
L 333.471343 246.7 
L 333.471343 245.871625 
L 333.471343 246.7 
L 333.651803 246.7 
L 333.651803 245.871625 
L 333.651803 246.7 
L 334.451323 246.7 
L 334.451323 245.871625 
L 334.451323 246.7 
L 335.05119 246.7 
L 335.05119 245.871625 
L 335.05119 246.7 
L 342.073921 246.7 
L 342.073921 245.871625 
L 342.073921 246.7 
L 342.305013 246.7 
L 342.305013 245.871625 
L 342.305013 246.7 
L 343.108817 246.7 
L 343.108817 245.871625 
L 343.108817 246.7 
L 343.74255 246.7 
L 343.74255 245.871625 
L 343.74255 246.7 
L 344.925729 246.7 
L 344.925729 245.871625 
L 344.925729 246.7 
L 345.15381 246.7 
L 345.15381 245.871625 
L 345.15381 246.7 
L 347.259551 246.7 
L 347.259551 245.871625 
L 347.259551 246.7 
L 347.950174 246.7 
L 347.950174 245.871625 
L 347.950174 246.7 
L 351.783574 246.7 
L 351.783574 245.871625 
L 351.783574 246.7 
L 352.748827 246.7 
L 352.748827 245.871625 
L 352.748827 246.7 
L 357.267388 246.7 
L 357.267388 245.871625 
L 357.267388 246.7 
L 357.447848 246.7 
L 357.447848 245.871625 
L 357.447848 246.7 
L 357.828065 246.7 
L 357.828065 245.871625 
L 357.828065 246.7 
L 359.956031 246.7 
L 359.956031 245.871625 
L 359.956031 246.7 
L 361.458982 246.7 
L 361.458982 245.871625 
L 361.458982 246.7 
L 362.967804 246.7 
L 362.967804 245.871625 
L 362.967804 246.7 
L 366.582853 246.7 
L 366.582853 245.871625 
L 366.582853 246.7 
L 367.139419 246.7 
L 367.139419 245.871625 
L 367.139419 246.7 
L 368.422938 246.7 
L 368.422938 245.871625 
L 368.422938 246.7 
L 369.759712 246.7 
L 369.759712 245.871625 
L 369.759712 246.7 
L 374.245196 246.7 
L 374.245196 245.871625 
L 374.245196 246.7 
L 374.425656 246.7 
L 374.425656 245.871625 
L 374.425656 246.7 
L 379.007456 246.7 
L 379.007456 245.871625 
L 379.007456 246.7 
L 380.555616 246.7 
L 380.555616 245.871625 
L 380.555616 246.7 
L 380.736076 246.7 
L 380.736076 245.871625 
L 380.736076 246.7 
L 385.493051 246.7 
L 385.493051 245.871625 
L 385.493051 246.7 
L 386.080161 246.7 
L 386.080161 245.871625 
L 386.080161 246.7 
L 386.772334 246.7 
L 386.772334 245.871625 
L 386.772334 246.7 
L 386.952794 246.7 
L 386.952794 245.871625 
L 386.952794 246.7 
L 388.775886 246.7 
L 388.775886 245.871625 
L 388.775886 246.7 
L 392.109575 246.7 
L 392.109575 245.871625 
L 392.109575 246.7 
L 392.364621 246.7 
L 392.364621 245.871625 
L 392.364621 246.7 
L 394.244619 246.7 
L 394.244619 245.871625 
L 394.244619 246.7 
L 396.518297 246.7 
L 396.518297 245.871625 
L 396.518297 246.7 
L 399.841076 246.7 
L 399.841076 245.871625 
L 399.841076 246.7 
L 400.457626 246.7 
L 400.457626 245.871625 
L 400.457626 246.7 
L 401.012573 246.7 
L 401.012573 245.871625 
L 401.012573 246.7 
L 401.377734 246.7 
L 401.377734 245.871625 
L 401.377734 246.7 
L 402.293028 246.7 
L 402.293028 245.871625 
L 402.293028 246.7 
L 403.886724 246.7 
L 403.886724 245.871625 
L 403.886724 246.7 
L 405.339062 246.7 
L 405.339062 245.871625 
L 405.339062 246.7 
L 405.519522 246.7 
L 405.519522 245.871625 
L 405.519522 246.7 
L 405.701001 246.7 
L 405.701001 245.871625 
L 405.701001 246.7 
L 408.887459 246.7 
L 408.887459 245.871625 
L 408.887459 246.7 
L 409.720699 246.7 
L 409.720699 245.871625 
L 409.720699 246.7 
L 409.901159 246.7 
L 409.901159 245.871625 
L 409.901159 246.7 
L 410.081619 246.7 
L 410.081619 245.871625 
L 410.081619 246.7 
L 410.262079 246.7 
L 410.262079 246.7 
" clip-path="url(#p2d3e311ced)" style="fill: none; stroke: #9467bd; stroke-width: 1.5; stroke-linecap: square"/>
   </g>
   <g id="patch_3">
    <path d="M 50.76875 246.7 
L 50.76875 25.8 
" style="fill: none; stroke: #000000; stroke-width: 0.8; stroke-linejoin: miter; stroke-linecap: square"/>
   </g>
   <g id="patch_4">
    <path d="M 415.468839 246.7 
L 415.468839 25.8 
" style="fill: none; stroke: #000000; stroke-width: 0.8; stroke-linejoin: miter; stroke-linecap: square"/>
   </g>
   <g id="patch_5">
    <path d="M 50.76875 246.7 
L 415.468839 246.7 
" style="fill: none; stroke: #000000; stroke-width: 0.8; stroke-linejoin: miter; stroke-linecap: square"/>
   </g>
   <g id="patch_6">
    <path d="M 50.76875 25.8 
L 415.468839 25.8 
" style="fill: none; stroke: #000000; stroke-width: 0.8; stroke-linejoin: miter; stroke-linecap: square"/>
   </g>
   <g id="text_18">
    <!-- Paquetes enviados y recibidos y en buffers -->
    <g transform="translate(104.396294 19.8)scale(0.12 -0.12)">
     <defs>
      <path id="DejaVuSans-20" transform="scale(0.015625)"/>
      <path id="DejaVuSans-6e" d="M 3513 2113 
L 3513 0 
L 2938 0 
L 2938 2094 
Q 2938 2591 2744 2837 
Q 2550 3084 2163 3084 
Q 1697 3084 1428 2787 
Q 1159 2491 1159 1978 
L 1159 0 
L 581 0 
L 581 3500 
L 1159 3500 
L 1159 2956 
Q 1366 3272 1645 3428 
Q 1925 3584 2291 3584 
Q 2894 3584 3203 3211 
Q 3513 2838 3513 2113 
z
" transform="scale(0.015625)"/>
      <path id="DejaVuSans-76" d="M 191 3500 
L 800 3500 
L 1894 563 
L 2988 3500 
L 3597 3500 
L 2284 0 
L 1503 0 
L 191 3500 
z
" transform="scale(0.015625)"/>
      <path id="DejaVuSans-64" d="M 2906 2969 
L 2906 4863 
L 3481 4863 
L 3481 0 
L 2906 0 
L 2906 525 
Q 2725 213 2448 61 
Q 2172 -91 1784 -91 
Q 1150 -91 751 415 
Q 353 922 353 1747 
Q 353 2572 751 3078 
Q 1150 3584 1784 3584 
Q 2172 3584 2448 3432 
Q 2725 3281 2906 2969 
z
M 947 1747 
Q 947 1113 1208 752 
Q 1469 391 1925 391 
Q 2381 391 2643 752 
Q 2906 1113 2906 1747 
Q 2906 2381 2643 2742 
Q 2381 3103 1925 3103 
Q 1469 3103 1208 2742 
Q 947 2381 947 1747 
z
" transform="scale(0.015625)"/>
      <path id="DejaVuSans-79" d="M 2059 -325 
Q 1816 -950 1584 -1140 
Q 1353 -1331 966 -1331 
L 506 -1331 
L 506 -850 
L 844 -850 
Q 1081 -850 1212 -737 
Q 1344 -625 1503 -206 
L 1606 56 
L 191 3500 
L 800 3500 
L 1894 763 
L 2988 3500 
L 3597 3500 
L 2059 -325 
z
" transform="scale(0.015625)"/>
      <path id="DejaVuSans-72" d="M 2631 2963 
Q 2534 3019 2420 3045 
Q 2306 3072 2169 3072 
Q 1681 3072 1420 2755 
Q 1159 2438 1159 1844 
L 1159 0 
L 581 0 
L 581 3500 
L 1159 3500 
L 1159 2956 
Q 1341 3275 1631 3429 
Q 1922 3584 2338 3584 
Q 2397 3584 2469 3576 
Q 2541 3569 2628 3553 
L 2631 2963 
z
" transform="scale(0.015625)"/>
      <path id="DejaVuSans-63" d="M 3122 3366 
L 3122 2828 
Q 2878 2963 2633 3030 
Q 2388 3097 2138 3097 
Q 1578 3097 1268 2742 
Q 959 2388 959 1747 
Q 959 1106 1268 751 
Q 1578 397 2138 397 
Q 2388 397 2633 464 
Q 2878 531 3122 666 
L 3122 134 
Q 2881 22 2623 -34 
Q 2366 -91 2075 -91 
Q 1284 -91 818 406 
Q 353 903 353 1747 
Q 353 2603 823 3093 
Q 1294 3584 2113 3584 
Q 2378 3584 2631 3529 
Q 2884 3475 3122 3366 
z
" transform="scale(0.015625)"/>
      <path id="DejaVuSans-62" d="M 3116 1747 
Q 3116 2381 2855 2742 
Q 2594 3103 2138 3103 
Q 1681 3103 1420 2742 
Q 1159 2381 1159 1747 
Q 1159 1113 1420 752 
Q 1681 391 2138 391 
Q 2594 391 2855 752 
Q 3116 1113 3116 1747 
z
M 1159 2969 
Q 1341 3281 1617 3432 
Q 1894 3584 2278 3584 
Q 2916 3584 3314 3078 
Q 3713 2572 3713 1747 
Q 3713 922 3314 415 
Q 2916 -91 2278 -91 
Q 1894 -91 1617 61 
Q 1341 213 1159 525 
L 1159 0 
L 581 0 
L 581 4863 
L 1159 4863 
L 1159 2969 
z
" transform="scale(0.015625)"/>
      <path id="DejaVuSans-66" d="M 2375 4863 
L 2375 4384 
L 1825 4384 
Q 1516 4384 1395 4259 
Q 1275 4134 1275 3809 
L 1275 3500 
L 2222 3500 
L 2222 3053 
L 1275 3053 
L 1275 0 
L 697 0 
L 697 3053 
L 147 3053 
L 147 3500 
L 697 3500 
L 697 3744 
Q 697 4328 969 4595 
Q 1241 4863 1831 4863 
L 2375 4863 
z
" transform="scale(0.015625)"/>
     </defs>
     <use xlink:href="#DejaVuSans-50"/>
     <use xlink:href="#DejaVuSans-61" x="55.802734"/>
     <use xlink:href="#DejaVuSans-71" x="117.082031"/>
     <use xlink:href="#DejaVuSans-75" x="180.558594"/>
     <use xlink:href="#DejaVuSans-65" x="243.9375"/>
     <use xlink:href="#DejaVuSans-74" x="305.460938"/>
     <use xlink:href="#DejaVuSans-65" x="344.669922"/>
     <use xlink:href="#DejaVuSans-73" x="406.193359"/>
     <use xlink:href="#DejaVuSans-20" x="458.292969"/>
     <use xlink:href="#DejaVuSans-65" x="490.080078"/>
     <use xlink:href="#DejaVuSans-6e" x="551.603516"/>
     <use xlink:href="#DejaVuSans-76" x="614.982422"/>
     <use xlink:href="#DejaVuSans-69" x="674.162109"/>
     <use xlink:href="#DejaVuSans-61" x="701.945312"/>
     <use xlink:href="#DejaVuSans-64" x="763.224609"/>
     <use xlink:href="#DejaVuSans-6f" x="826.701172"/>
     <use xlink:href="#DejaVuSans-73" x="887.882812"/>
     <use xlink:href="#DejaVuSans-20" x="939.982422"/>
     <use xlink:href="#DejaVuSans-79" x="971.769531"/>
     <use xlink:href="#DejaVuSans-20" x="1030.949219"/>
     <use xlink:href="#DejaVuSans-72" x="1062.736328"/>
     <use xlink:href="#DejaVuSans-65" x="1101.599609"/>
     <use xlink:href="#DejaVuSans-63" x="1163.123047"/>
     <use xlink:href="#DejaVuSans-69" x="1218.103516"/>
     <use xlink:href="#DejaVuSans-62" x="1245.886719"/>
     <use xlink:href="#DejaVuSans-69" x="1309.363281"/>
     <use xlink:href="#DejaVuSans-64" x="1337.146484"/>
     <use xlink:href="#DejaVuSans-6f" x="1400.623047"/>
     <use xlink:href="#DejaVuSans-73" x="1461.804688"/>
     <use xlink:href="#DejaVuSans-20" x="1513.904297"/>
     <use xlink:href="#DejaVuSans-79" x="1545.691406"/>
     <use xlink:href="#DejaVuSans-20" x="1604.871094"/>
     <use xlink:href="#DejaVuSans-65" x="1636.658203"/>
     <use xlink:href="#DejaVuSans-6e" x="1698.181641"/>
     <use xlink:href="#DejaVuSans-20" x="1761.560547"/>
     <use xlink:href="#DejaVuSans-62" x="1793.347656"/>
     <use xlink:href="#DejaVuSans-75" x="1856.824219"/>
     <use xlink:href="#DejaVuSans-66" x="1920.203125"/>
     <use xlink:href="#DejaVuSans-66" x="1955.408203"/>
     <use xlink:href="#DejaVuSans-65" x="1990.613281"/>
     <use xlink:href="#DejaVuSans-72" x="2052.136719"/>
     <use xlink:href="#DejaVuSans-73" x="2093.25"/>
    </g>
   </g>
   <g id="legend_1">
    <g id="patch_7">
     <path d="M 177.014151 107.360937 
L 408.468839 107.360937 
Q 410.468839 107.360937 410.468839 105.360937 
L 410.468839 32.8 
Q 410.468839 30.8 408.468839 30.8 
L 177.014151 30.8 
Q 175.014151 30.8 175.014151 32.8 
L 175.014151 105.360937 
Q 175.014151 107.360937 177.014151 107.360937 
z
" style="fill: #ffffff; opacity: 0.8; stroke: #cccccc; stroke-linejoin: miter"/>
    </g>
    <g id="line2d_36">
     <path d="M 179.014151 38.898437 
L 189.014151 38.898437 
L 199.014151 38.898437 
" style="fill: none; stroke: #1f77b4; stroke-width: 1.5; stroke-linecap: square"/>
    </g>
    <g id="text_19">
     <!-- Paquetes recibidos -->
     <g transform="translate(207.014151 42.398437)scale(0.1 -0.1)">
      <use xlink:href="#DejaVuSans-50"/>
      <use xlink:href="#DejaVuSans-61" x="55.802734"/>
      <use xlink:href="#DejaVuSans-71" x="117.082031"/>
      <use xlink:href="#DejaVuSans-75" x="180.558594"/>
      <use xlink:href="#DejaVuSans-65" x="243.9375"/>
      <use xlink:href="#DejaVuSans-74" x="305.460938"/>
      <use xlink:href="#DejaVuSans-65" x="344.669922"/>
      <use xlink:href="#DejaVuSans-73" x="406.193359"/>
      <use xlink:href="#DejaVuSans-20" x="458.292969"/>
      <use xlink:href="#DejaVuSans-72" x="490.080078"/>
      <use xlink:href="#DejaVuSans-65" x="528.943359"/>
      <use xlink:href="#DejaVuSans-63" x="590.466797"/>
      <use xlink:href="#DejaVuSans-69" x="645.447266"/>
      <use xlink:href="#DejaVuSans-62" x="673.230469"/>
      <use xlink:href="#DejaVuSans-69" x="736.707031"/>
      <use xlink:href="#DejaVuSans-64" x="764.490234"/>
      <use xlink:href="#DejaVuSans-6f" x="827.966797"/>
      <use xlink:href="#DejaVuSans-73" x="889.148438"/>
     </g>
    </g>
    <g id="line2d_37">
     <path d="M 179.014151 53.576562 
L 189.014151 53.576562 
L 199.014151 53.576562 
" style="fill: none; stroke: #ff7f0e; stroke-width: 1.5; stroke-linecap: square"/>
    </g>
    <g id="text_20">
     <!-- Paquetes enviados -->
     <g transform="translate(207.014151 57.076562)scale(0.1 -0.1)">
      <use xlink:href="#DejaVuSans-50"/>
      <use xlink:href="#DejaVuSans-61" x="55.802734"/>
      <use xlink:href="#DejaVuSans-71" x="117.082031"/>
      <use xlink:href="#DejaVuSans-75" x="180.558594"/>
      <use xlink:href="#DejaVuSans-65" x="243.9375"/>
      <use xlink:href="#DejaVuSans-74" x="305.460938"/>
      <use xlink:href="#DejaVuSans-65" x="344.669922"/>
      <use xlink:href="#DejaVuSans-73" x="406.193359"/>
      <use xlink:href="#DejaVuSans-20" x="458.292969"/>
      <use xlink:href="#DejaVuSans-65" x="490.080078"/>
      <use xlink:href="#DejaVuSans-6e" x="551.603516"/>
      <use xlink:href="#DejaVuSans-76" x="614.982422"/>
      <use xlink:href="#DejaVuSans-69" x="674.162109"/>
      <use xlink:href="#DejaVuSans-61" x="701.945312"/>
      <use xlink:href="#DejaVuSans-64" x="763.224609"/>
      <use xlink:href="#DejaVuSans-6f" x="826.701172"/>
      <use xlink:href="#DejaVuSans-73" x="887.882812"/>
     </g>
    </g>
    <g id="line2d_38">
     <path d="M 179.014151 68.425 
L 189.014151 68.425 
L 199.014151 68.425 
" style="fill: none; stroke: #2ca02c; stroke-width: 1.5; stroke-linecap: square"/>
    </g>
    <g id="text_21">
     <!-- Tamao del buffer del receptor -->
     <g transform="translate(207.014151 71.925)scale(0.1 -0.1)">
      <defs>
       <path id="DejaVuSans-f1" d="M 3513 2113 
L 3513 0 
L 2938 0 
L 2938 2094 
Q 2938 2591 2744 2837 
Q 2550 3084 2163 3084 
Q 1697 3084 1428 2787 
Q 1159 2491 1159 1978 
L 1159 0 
L 581 0 
L 581 3500 
L 1159 3500 
L 1159 2956 
Q 1366 3272 1645 3428 
Q 1925 3584 2291 3584 
Q 2894 3584 3203 3211 
Q 3513 2838 3513 2113 
z
M 2060 4281 
L 1881 4453 
Q 1813 4516 1761 4545 
Q 1710 4575 1669 4575 
Q 1550 4575 1494 4461 
Q 1438 4347 1431 4091 
L 1041 4091 
Q 1047 4513 1206 4742 
Q 1366 4972 1650 4972 
Q 1769 4972 1869 4928 
Q 1969 4884 2085 4781 
L 2263 4609 
Q 2331 4547 2383 4517 
Q 2435 4488 2475 4488 
Q 2594 4488 2650 4602 
Q 2706 4716 2713 4972 
L 3103 4972 
Q 3097 4550 2937 4320 
Q 2778 4091 2494 4091 
Q 2375 4091 2275 4134 
Q 2175 4178 2060 4281 
z
" transform="scale(0.015625)"/>
       <path id="DejaVuSans-6c" d="M 603 4863 
L 1178 4863 
L 1178 0 
L 603 0 
L 603 4863 
z
" transform="scale(0.015625)"/>
      </defs>
      <use xlink:href="#DejaVuSans-54"/>
      <use xlink:href="#DejaVuSans-61" x="44.583984"/>
      <use xlink:href="#DejaVuSans-6d" x="105.863281"/>
      <use xlink:href="#DejaVuSans-61" x="203.275391"/>
      <use xlink:href="#DejaVuSans-f1" x="264.554688"/>
      <use xlink:href="#DejaVuSans-6f" x="327.933594"/>
      <use xlink:href="#DejaVuSans-20" x="389.115234"/>
      <use xlink:href="#DejaVuSans-64" x="420.902344"/>
      <use xlink:href="#DejaVuSans-65" x="484.378906"/>
      <use xlink:href="#DejaVuSans-6c" x="545.902344"/>
      <use xlink:href="#DejaVuSans-20" x="573.685547"/>
      <use xlink:href="#DejaVuSans-62" x="605.472656"/>
      <use xlink:href="#DejaVuSans-75" x="668.949219"/>
      <use xlink:href="#DejaVuSans-66" x="732.328125"/>
      <use xlink:href="#DejaVuSans-66" x="767.533203"/>
      <use xlink:href="#DejaVuSans-65" x="802.738281"/>
      <use xlink:href="#DejaVuSans-72" x="864.261719"/>
      <use xlink:href="#DejaVuSans-20" x="905.375"/>
      <use xlink:href="#DejaVuSans-64" x="937.162109"/>
      <use xlink:href="#DejaVuSans-65" x="1000.638672"/>
      <use xlink:href="#DejaVuSans-6c" x="1062.162109"/>
      <use xlink:href="#DejaVuSans-20" x="1089.945312"/>
      <use xlink:href="#DejaVuSans-72" x="1121.732422"/>
      <use xlink:href="#DejaVuSans-65" x="1160.595703"/>
      <use xlink:href="#DejaVuSans-63" x="1222.119141"/>
      <use xlink:href="#DejaVuSans-65" x="1277.099609"/>
      <use xlink:href="#DejaVuSans-70" x="1338.623047"/>
      <use xlink:href="#DejaVuSans-74" x="1402.099609"/>
      <use xlink:href="#DejaVuSans-6f" x="1441.308594"/>
      <use xlink:href="#DejaVuSans-72" x="1502.490234"/>
     </g>
    </g>
    <g id="line2d_39">
     <path d="M 179.014151 83.103125 
L 189.014151 83.103125 
L 199.014151 83.103125 
" style="fill: none; stroke: #d62728; stroke-width: 1.5; stroke-linecap: square"/>
    </g>
    <g id="text_22">
     <!-- Tamao del buffer del emisor -->
     <g transform="translate(207.014151 86.603125)scale(0.1 -0.1)">
      <use xlink:href="#DejaVuSans-54"/>
      <use xlink:href="#DejaVuSans-61" x="44.583984"/>
      <use xlink:href="#DejaVuSans-6d" x="105.863281"/>
      <use xlink:href="#DejaVuSans-61" x="203.275391"/>
      <use xlink:href="#DejaVuSans-f1" x="264.554688"/>
      <use xlink:href="#DejaVuSans-6f" x="327.933594"/>
      <use xlink:href="#DejaVuSans-20" x="389.115234"/>
      <use xlink:href="#DejaVuSans-64" x="420.902344"/>
      <use xlink:href="#DejaVuSans-65" x="484.378906"/>
      <use xlink:href="#DejaVuSans-6c" x="545.902344"/>
      <use xlink:href="#DejaVuSans-20" x="573.685547"/>
      <use xlink:href="#DejaVuSans-62" x="605.472656"/>
      <use xlink:href="#DejaVuSans-75" x="668.949219"/>
      <use xlink:href="#DejaVuSans-66" x="732.328125"/>
      <use xlink:href="#DejaVuSans-66" x="767.533203"/>
      <use xlink:href="#DejaVuSans-65" x="802.738281"/>
      <use xlink:href="#DejaVuSans-72" x="864.261719"/>
      <use xlink:href="#DejaVuSans-20" x="905.375"/>
      <use xlink:href="#DejaVuSans-64" x="937.162109"/>
      <use xlink:href="#DejaVuSans-65" x="1000.638672"/>
      <use xlink:href="#DejaVuSans-6c" x="1062.162109"/>
      <use xlink:href="#DejaVuSans-20" x="1089.945312"/>
      <use xlink:href="#DejaVuSans-65" x="1121.732422"/>
      <use xlink:href="#DejaVuSans-6d" x="1183.255859"/>
      <use xlink:href="#DejaVuSans-69" x="1280.667969"/>
      <use xlink:href="#DejaVuSans-73" x="1308.451172"/>
      <use xlink:href="#DejaVuSans-6f" x="1360.550781"/>
      <use xlink:href="#DejaVuSans-72" x="1421.732422"/>
     </g>
    </g>
    <g id="line2d_40">
     <path d="M 179.014151 97.78125 
L 189.014151 97.78125 
L 199.014151 97.78125 
" style="fill: none; stroke: #9467bd; stroke-width: 1.5; stroke-linecap: square"/>
    </g>
    <g id="text_23">
     <!-- Tamao del buffer de la cola intermedia -->
     <g transform="translate(207.014151 101.28125)scale(0.1 -0.1)">
      <use xlink:href="#DejaVuSans-54"/>
      <use xlink:href="#DejaVuSans-61" x="44.583984"/>
      <use xlink:href="#DejaVuSans-6d" x="105.863281"/>
      <use xlink:href="#DejaVuSans-61" x="203.275391"/>
      <use xlink:href="#DejaVuSans-f1" x="264.554688"/>
      <use xlink:href="#DejaVuSans-6f" x="327.933594"/>
      <use xlink:href="#DejaVuSans-20" x="389.115234"/>
      <use xlink:href="#DejaVuSans-64" x="420.902344"/>
      <use xlink:href="#DejaVuSans-65" x="484.378906"/>
      <use xlink:href="#DejaVuSans-6c" x="545.902344"/>
      <use xlink:href="#DejaVuSans-20" x="573.685547"/>
      <use xlink:href="#DejaVuSans-62" x="605.472656"/>
      <use xlink:href="#DejaVuSans-75" x="668.949219"/>
      <use xlink:href="#DejaVuSans-66" x="732.328125"/>
      <use xlink:href="#DejaVuSans-66" x="767.533203"/>
      <use xlink:href="#DejaVuSans-65" x="802.738281"/>
      <use xlink:href="#DejaVuSans-72" x="864.261719"/>
      <use xlink:href="#DejaVuSans-20" x="905.375"/>
      <use xlink:href="#DejaVuSans-64" x="937.162109"/>
      <use xlink:href="#DejaVuSans-65" x="1000.638672"/>
      <use xlink:href="#DejaVuSans-20" x="1062.162109"/>
      <use xlink:href="#DejaVuSans-6c" x="1093.949219"/>
      <use xlink:href="#DejaVuSans-61" x="1121.732422"/>
      <use xlink:href="#DejaVuSans-20" x="1183.011719"/>
      <use xlink:href="#DejaVuSans-63" x="1214.798828"/>
      <use xlink:href="#DejaVuSans-6f" x="1269.779297"/>
      <use xlink:href="#DejaVuSans-6c" x="1330.960938"/>
      <use xlink:href="#DejaVuSans-61" x="1358.744141"/>
      <use xlink:href="#DejaVuSans-20" x="1420.023438"/>
      <use xlink:href="#DejaVuSans-69" x="1451.810547"/>
      <use xlink:href="#DejaVuSans-6e" x="1479.59375"/>
      <use xlink:href="#DejaVuSans-74" x="1542.972656"/>
      <use xlink:href="#DejaVuSans-65" x="1582.181641"/>
      <use xlink:href="#DejaVuSans-72" x="1643.705078"/>
      <use xlink:href="#DejaVuSans-6d" x="1683.068359"/>
      <use xlink:href="#DejaVuSans-65" x="1780.480469"/>
      <use xlink:href="#DejaVuSans-64" x="1842.003906"/>
      <use xlink:href="#DejaVuSans-69" x="1905.480469"/>
      <use xlink:href="#DejaVuSans-61" x="1933.263672"/>
     </g>
    </g>
   </g>
  </g>
 </g>
 <defs>
  <clipPath id="p2d3e311ced">
   <rect x="50.76875" y="25.8" width="364.700089" height="220.9"/>
  </clipPath>
 </defs>
</svg>
