<?xml version="1.0" encoding="utf-8" standalone="no"?>
<!DOCTYPE svg PUBLIC "-//W3C//DTD SVG 1.1//EN"
  "http://www.w3.org/Graphics/SVG/1.1/DTD/svg11.dtd">
<svg xmlns:xlink="http://www.w3.org/1999/xlink" width="432pt" height="288pt" viewBox="0 0 432 288" xmlns="http://www.w3.org/2000/svg" version="1.1">
 <metadata>
  <rdf:RDF xmlns:dc="http://purl.org/dc/elements/1.1/" xmlns:cc="http://creativecommons.org/ns#" xmlns:rdf="http://www.w3.org/1999/02/22-rdf-syntax-ns#">
   <cc:Work>
    <dc:type rdf:resource="http://purl.org/dc/dcmitype/StillImage"/>
    <dc:date>2022-05-18T14:43:17.245607</dc:date>
    <dc:format>image/svg+xml</dc:format>
    <dc:creator>
     <cc:Agent>
      <dc:title>omnetpp.scave 6.0.0; Matplotlib 3.5.1 w/ backend GTK3Agg; Pandas 1.4.2; Python 3.8.10; Linux-5.4.0-109-generic-x86_64-with-glibc2.29</dc:title>
     </cc:Agent>
    </dc:creator>
   </cc:Work>
  </rdf:RDF>
 </metadata>
 <defs>
  <style type="text/css">*{stroke-linejoin: round; stroke-linecap: butt}</style>
 </defs>
 <g id="figure_1">
  <g id="patch_1">
   <path d="M 0 288 
L 432 288 
L 432 0 
L 0 0 
z
" style="fill: #ffffff"/>
  </g>
  <g id="axes_1">
   <g id="patch_2">
    <path d="M 45.3625 260.45 
L 416.015342 260.45 
L 416.015342 25.8 
L 45.3625 25.8 
z
" style="fill: #ffffff"/>
   </g>
   <g id="matplotlib.axis_1">
    <g id="xtick_1">
     <g id="line2d_1">
      <path d="M 45.3625 260.45 
L 45.3625 25.8 
" clip-path="url(#pbed57a90ee)" style="fill: none; stroke: #b0b0b0; stroke-width: 0.8; stroke-linecap: square"/>
     </g>
     <g id="line2d_2">
      <defs>
       <path id="m686cbdec66" d="M 0 0 
L 0 3.5 
" style="stroke: #000000; stroke-width: 0.8"/>
      </defs>
      <g>
       <use xlink:href="#m686cbdec66" x="45.3625" y="260.45" style="stroke: #000000; stroke-width: 0.8"/>
      </g>
     </g>
     <g id="text_1">
      <!-- 0 -->
      <g transform="translate(42.18125 275.048437)scale(0.1 -0.1)">
       <defs>
        <path id="DejaVuSans-30" d="M 2034 4250 
Q 1547 4250 1301 3770 
Q 1056 3291 1056 2328 
Q 1056 1369 1301 889 
Q 1547 409 2034 409 
Q 2525 409 2770 889 
Q 3016 1369 3016 2328 
Q 3016 3291 2770 3770 
Q 2525 4250 2034 4250 
z
M 2034 4750 
Q 2819 4750 3233 4129 
Q 3647 3509 3647 2328 
Q 3647 1150 3233 529 
Q 2819 -91 2034 -91 
Q 1250 -91 836 529 
Q 422 1150 422 2328 
Q 422 3509 836 4129 
Q 1250 4750 2034 4750 
z
" transform="scale(0.015625)"/>
       </defs>
       <use xlink:href="#DejaVuSans-30"/>
      </g>
     </g>
    </g>
    <g id="xtick_2">
     <g id="line2d_3">
      <path d="M 91.156711 260.45 
L 91.156711 25.8 
" clip-path="url(#pbed57a90ee)" style="fill: none; stroke: #b0b0b0; stroke-width: 0.8; stroke-linecap: square"/>
     </g>
     <g id="line2d_4">
      <g>
       <use xlink:href="#m686cbdec66" x="91.156711" y="260.45" style="stroke: #000000; stroke-width: 0.8"/>
      </g>
     </g>
     <g id="text_2">
      <!-- 25 -->
      <g transform="translate(84.794211 275.048437)scale(0.1 -0.1)">
       <defs>
        <path id="DejaVuSans-32" d="M 1228 531 
L 3431 531 
L 3431 0 
L 469 0 
L 469 531 
Q 828 903 1448 1529 
Q 2069 2156 2228 2338 
Q 2531 2678 2651 2914 
Q 2772 3150 2772 3378 
Q 2772 3750 2511 3984 
Q 2250 4219 1831 4219 
Q 1534 4219 1204 4116 
Q 875 4013 500 3803 
L 500 4441 
Q 881 4594 1212 4672 
Q 1544 4750 1819 4750 
Q 2544 4750 2975 4387 
Q 3406 4025 3406 3419 
Q 3406 3131 3298 2873 
Q 3191 2616 2906 2266 
Q 2828 2175 2409 1742 
Q 1991 1309 1228 531 
z
" transform="scale(0.015625)"/>
        <path id="DejaVuSans-35" d="M 691 4666 
L 3169 4666 
L 3169 4134 
L 1269 4134 
L 1269 2991 
Q 1406 3038 1543 3061 
Q 1681 3084 1819 3084 
Q 2600 3084 3056 2656 
Q 3513 2228 3513 1497 
Q 3513 744 3044 326 
Q 2575 -91 1722 -91 
Q 1428 -91 1123 -41 
Q 819 9 494 109 
L 494 744 
Q 775 591 1075 516 
Q 1375 441 1709 441 
Q 2250 441 2565 725 
Q 2881 1009 2881 1497 
Q 2881 1984 2565 2268 
Q 2250 2553 1709 2553 
Q 1456 2553 1204 2497 
Q 953 2441 691 2322 
L 691 4666 
z
" transform="scale(0.015625)"/>
       </defs>
       <use xlink:href="#DejaVuSans-32"/>
       <use xlink:href="#DejaVuSans-35" x="63.623047"/>
      </g>
     </g>
    </g>
    <g id="xtick_3">
     <g id="line2d_5">
      <path d="M 136.950922 260.45 
L 136.950922 25.8 
" clip-path="url(#pbed57a90ee)" style="fill: none; stroke: #b0b0b0; stroke-width: 0.8; stroke-linecap: square"/>
     </g>
     <g id="line2d_6">
      <g>
       <use xlink:href="#m686cbdec66" x="136.950922" y="260.45" style="stroke: #000000; stroke-width: 0.8"/>
      </g>
     </g>
     <g id="text_3">
      <!-- 50 -->
      <g transform="translate(130.588422 275.048437)scale(0.1 -0.1)">
       <use xlink:href="#DejaVuSans-35"/>
       <use xlink:href="#DejaVuSans-30" x="63.623047"/>
      </g>
     </g>
    </g>
    <g id="xtick_4">
     <g id="line2d_7">
      <path d="M 182.745132 260.45 
L 182.745132 25.8 
" clip-path="url(#pbed57a90ee)" style="fill: none; stroke: #b0b0b0; stroke-width: 0.8; stroke-linecap: square"/>
     </g>
     <g id="line2d_8">
      <g>
       <use xlink:href="#m686cbdec66" x="182.745132" y="260.45" style="stroke: #000000; stroke-width: 0.8"/>
      </g>
     </g>
     <g id="text_4">
      <!-- 75 -->
      <g transform="translate(176.382632 275.048437)scale(0.1 -0.1)">
       <defs>
        <path id="DejaVuSans-37" d="M 525 4666 
L 3525 4666 
L 3525 4397 
L 1831 0 
L 1172 0 
L 2766 4134 
L 525 4134 
L 525 4666 
z
" transform="scale(0.015625)"/>
       </defs>
       <use xlink:href="#DejaVuSans-37"/>
       <use xlink:href="#DejaVuSans-35" x="63.623047"/>
      </g>
     </g>
    </g>
    <g id="xtick_5">
     <g id="line2d_9">
      <path d="M 228.539343 260.45 
L 228.539343 25.8 
" clip-path="url(#pbed57a90ee)" style="fill: none; stroke: #b0b0b0; stroke-width: 0.8; stroke-linecap: square"/>
     </g>
     <g id="line2d_10">
      <g>
       <use xlink:href="#m686cbdec66" x="228.539343" y="260.45" style="stroke: #000000; stroke-width: 0.8"/>
      </g>
     </g>
     <g id="text_5">
      <!-- 100 -->
      <g transform="translate(218.995593 275.048437)scale(0.1 -0.1)">
       <defs>
        <path id="DejaVuSans-31" d="M 794 531 
L 1825 531 
L 1825 4091 
L 703 3866 
L 703 4441 
L 1819 4666 
L 2450 4666 
L 2450 531 
L 3481 531 
L 3481 0 
L 794 0 
L 794 531 
z
" transform="scale(0.015625)"/>
       </defs>
       <use xlink:href="#DejaVuSans-31"/>
       <use xlink:href="#DejaVuSans-30" x="63.623047"/>
       <use xlink:href="#DejaVuSans-30" x="127.246094"/>
      </g>
     </g>
    </g>
    <g id="xtick_6">
     <g id="line2d_11">
      <path d="M 274.333554 260.45 
L 274.333554 25.8 
" clip-path="url(#pbed57a90ee)" style="fill: none; stroke: #b0b0b0; stroke-width: 0.8; stroke-linecap: square"/>
     </g>
     <g id="line2d_12">
      <g>
       <use xlink:href="#m686cbdec66" x="274.333554" y="260.45" style="stroke: #000000; stroke-width: 0.8"/>
      </g>
     </g>
     <g id="text_6">
      <!-- 125 -->
      <g transform="translate(264.789804 275.048437)scale(0.1 -0.1)">
       <use xlink:href="#DejaVuSans-31"/>
       <use xlink:href="#DejaVuSans-32" x="63.623047"/>
       <use xlink:href="#DejaVuSans-35" x="127.246094"/>
      </g>
     </g>
    </g>
    <g id="xtick_7">
     <g id="line2d_13">
      <path d="M 320.127765 260.45 
L 320.127765 25.8 
" clip-path="url(#pbed57a90ee)" style="fill: none; stroke: #b0b0b0; stroke-width: 0.8; stroke-linecap: square"/>
     </g>
     <g id="line2d_14">
      <g>
       <use xlink:href="#m686cbdec66" x="320.127765" y="260.45" style="stroke: #000000; stroke-width: 0.8"/>
      </g>
     </g>
     <g id="text_7">
      <!-- 150 -->
      <g transform="translate(310.584015 275.048437)scale(0.1 -0.1)">
       <use xlink:href="#DejaVuSans-31"/>
       <use xlink:href="#DejaVuSans-35" x="63.623047"/>
       <use xlink:href="#DejaVuSans-30" x="127.246094"/>
      </g>
     </g>
    </g>
    <g id="xtick_8">
     <g id="line2d_15">
      <path d="M 365.921975 260.45 
L 365.921975 25.8 
" clip-path="url(#pbed57a90ee)" style="fill: none; stroke: #b0b0b0; stroke-width: 0.8; stroke-linecap: square"/>
     </g>
     <g id="line2d_16">
      <g>
       <use xlink:href="#m686cbdec66" x="365.921975" y="260.45" style="stroke: #000000; stroke-width: 0.8"/>
      </g>
     </g>
     <g id="text_8">
      <!-- 175 -->
      <g transform="translate(356.378225 275.048437)scale(0.1 -0.1)">
       <use xlink:href="#DejaVuSans-31"/>
       <use xlink:href="#DejaVuSans-37" x="63.623047"/>
       <use xlink:href="#DejaVuSans-35" x="127.246094"/>
      </g>
     </g>
    </g>
    <g id="xtick_9">
     <g id="line2d_17">
      <path d="M 411.716186 260.45 
L 411.716186 25.8 
" clip-path="url(#pbed57a90ee)" style="fill: none; stroke: #b0b0b0; stroke-width: 0.8; stroke-linecap: square"/>
     </g>
     <g id="line2d_18">
      <g>
       <use xlink:href="#m686cbdec66" x="411.716186" y="260.45" style="stroke: #000000; stroke-width: 0.8"/>
      </g>
     </g>
     <g id="text_9">
      <!-- 200 -->
      <g transform="translate(402.172436 275.048437)scale(0.1 -0.1)">
       <use xlink:href="#DejaVuSans-32"/>
       <use xlink:href="#DejaVuSans-30" x="63.623047"/>
       <use xlink:href="#DejaVuSans-30" x="127.246094"/>
      </g>
     </g>
    </g>
   </g>
   <g id="matplotlib.axis_2">
    <g id="ytick_1">
     <g id="line2d_19">
      <path d="M 45.3625 260.45 
L 416.015342 260.45 
" clip-path="url(#pbed57a90ee)" style="fill: none; stroke: #b0b0b0; stroke-width: 0.8; stroke-linecap: square"/>
     </g>
     <g id="line2d_20">
      <defs>
       <path id="mb7fbdc2428" d="M 0 0 
L -3.5 0 
" style="stroke: #000000; stroke-width: 0.8"/>
      </defs>
      <g>
       <use xlink:href="#mb7fbdc2428" x="45.3625" y="260.45" style="stroke: #000000; stroke-width: 0.8"/>
      </g>
     </g>
     <g id="text_10">
      <!-- 0 -->
      <g transform="translate(32 264.249219)scale(0.1 -0.1)">
       <use xlink:href="#DejaVuSans-30"/>
      </g>
     </g>
    </g>
    <g id="ytick_2">
     <g id="line2d_21">
      <path d="M 45.3625 224.852023 
L 416.015342 224.852023 
" clip-path="url(#pbed57a90ee)" style="fill: none; stroke: #b0b0b0; stroke-width: 0.8; stroke-linecap: square"/>
     </g>
     <g id="line2d_22">
      <g>
       <use xlink:href="#mb7fbdc2428" x="45.3625" y="224.852023" style="stroke: #000000; stroke-width: 0.8"/>
      </g>
     </g>
     <g id="text_11">
      <!-- 200 -->
      <g transform="translate(19.275 228.651242)scale(0.1 -0.1)">
       <use xlink:href="#DejaVuSans-32"/>
       <use xlink:href="#DejaVuSans-30" x="63.623047"/>
       <use xlink:href="#DejaVuSans-30" x="127.246094"/>
      </g>
     </g>
    </g>
    <g id="ytick_3">
     <g id="line2d_23">
      <path d="M 45.3625 189.254046 
L 416.015342 189.254046 
" clip-path="url(#pbed57a90ee)" style="fill: none; stroke: #b0b0b0; stroke-width: 0.8; stroke-linecap: square"/>
     </g>
     <g id="line2d_24">
      <g>
       <use xlink:href="#mb7fbdc2428" x="45.3625" y="189.254046" style="stroke: #000000; stroke-width: 0.8"/>
      </g>
     </g>
     <g id="text_12">
      <!-- 400 -->
      <g transform="translate(19.275 193.053264)scale(0.1 -0.1)">
       <defs>
        <path id="DejaVuSans-34" d="M 2419 4116 
L 825 1625 
L 2419 1625 
L 2419 4116 
z
M 2253 4666 
L 3047 4666 
L 3047 1625 
L 3713 1625 
L 3713 1100 
L 3047 1100 
L 3047 0 
L 2419 0 
L 2419 1100 
L 313 1100 
L 313 1709 
L 2253 4666 
z
" transform="scale(0.015625)"/>
       </defs>
       <use xlink:href="#DejaVuSans-34"/>
       <use xlink:href="#DejaVuSans-30" x="63.623047"/>
       <use xlink:href="#DejaVuSans-30" x="127.246094"/>
      </g>
     </g>
    </g>
    <g id="ytick_4">
     <g id="line2d_25">
      <path d="M 45.3625 153.656068 
L 416.015342 153.656068 
" clip-path="url(#pbed57a90ee)" style="fill: none; stroke: #b0b0b0; stroke-width: 0.8; stroke-linecap: square"/>
     </g>
     <g id="line2d_26">
      <g>
       <use xlink:href="#mb7fbdc2428" x="45.3625" y="153.656068" style="stroke: #000000; stroke-width: 0.8"/>
      </g>
     </g>
     <g id="text_13">
      <!-- 600 -->
      <g transform="translate(19.275 157.455287)scale(0.1 -0.1)">
       <defs>
        <path id="DejaVuSans-36" d="M 2113 2584 
Q 1688 2584 1439 2293 
Q 1191 2003 1191 1497 
Q 1191 994 1439 701 
Q 1688 409 2113 409 
Q 2538 409 2786 701 
Q 3034 994 3034 1497 
Q 3034 2003 2786 2293 
Q 2538 2584 2113 2584 
z
M 3366 4563 
L 3366 3988 
Q 3128 4100 2886 4159 
Q 2644 4219 2406 4219 
Q 1781 4219 1451 3797 
Q 1122 3375 1075 2522 
Q 1259 2794 1537 2939 
Q 1816 3084 2150 3084 
Q 2853 3084 3261 2657 
Q 3669 2231 3669 1497 
Q 3669 778 3244 343 
Q 2819 -91 2113 -91 
Q 1303 -91 875 529 
Q 447 1150 447 2328 
Q 447 3434 972 4092 
Q 1497 4750 2381 4750 
Q 2619 4750 2861 4703 
Q 3103 4656 3366 4563 
z
" transform="scale(0.015625)"/>
       </defs>
       <use xlink:href="#DejaVuSans-36"/>
       <use xlink:href="#DejaVuSans-30" x="63.623047"/>
       <use xlink:href="#DejaVuSans-30" x="127.246094"/>
      </g>
     </g>
    </g>
    <g id="ytick_5">
     <g id="line2d_27">
      <path d="M 45.3625 118.058091 
L 416.015342 118.058091 
" clip-path="url(#pbed57a90ee)" style="fill: none; stroke: #b0b0b0; stroke-width: 0.8; stroke-linecap: square"/>
     </g>
     <g id="line2d_28">
      <g>
       <use xlink:href="#mb7fbdc2428" x="45.3625" y="118.058091" style="stroke: #000000; stroke-width: 0.8"/>
      </g>
     </g>
     <g id="text_14">
      <!-- 800 -->
      <g transform="translate(19.275 121.85731)scale(0.1 -0.1)">
       <defs>
        <path id="DejaVuSans-38" d="M 2034 2216 
Q 1584 2216 1326 1975 
Q 1069 1734 1069 1313 
Q 1069 891 1326 650 
Q 1584 409 2034 409 
Q 2484 409 2743 651 
Q 3003 894 3003 1313 
Q 3003 1734 2745 1975 
Q 2488 2216 2034 2216 
z
M 1403 2484 
Q 997 2584 770 2862 
Q 544 3141 544 3541 
Q 544 4100 942 4425 
Q 1341 4750 2034 4750 
Q 2731 4750 3128 4425 
Q 3525 4100 3525 3541 
Q 3525 3141 3298 2862 
Q 3072 2584 2669 2484 
Q 3125 2378 3379 2068 
Q 3634 1759 3634 1313 
Q 3634 634 3220 271 
Q 2806 -91 2034 -91 
Q 1263 -91 848 271 
Q 434 634 434 1313 
Q 434 1759 690 2068 
Q 947 2378 1403 2484 
z
M 1172 3481 
Q 1172 3119 1398 2916 
Q 1625 2713 2034 2713 
Q 2441 2713 2670 2916 
Q 2900 3119 2900 3481 
Q 2900 3844 2670 4047 
Q 2441 4250 2034 4250 
Q 1625 4250 1398 4047 
Q 1172 3844 1172 3481 
z
" transform="scale(0.015625)"/>
       </defs>
       <use xlink:href="#DejaVuSans-38"/>
       <use xlink:href="#DejaVuSans-30" x="63.623047"/>
       <use xlink:href="#DejaVuSans-30" x="127.246094"/>
      </g>
     </g>
    </g>
    <g id="ytick_6">
     <g id="line2d_29">
      <path d="M 45.3625 82.460114 
L 416.015342 82.460114 
" clip-path="url(#pbed57a90ee)" style="fill: none; stroke: #b0b0b0; stroke-width: 0.8; stroke-linecap: square"/>
     </g>
     <g id="line2d_30">
      <g>
       <use xlink:href="#mb7fbdc2428" x="45.3625" y="82.460114" style="stroke: #000000; stroke-width: 0.8"/>
      </g>
     </g>
     <g id="text_15">
      <!-- 1 000 -->
      <g transform="translate(10.915625 86.259333)scale(0.1 -0.1)">
       <defs>
        <path id="DejaVuSans-2009" transform="scale(0.015625)"/>
       </defs>
       <use xlink:href="#DejaVuSans-31"/>
       <use xlink:href="#DejaVuSans-2009" x="63.623047"/>
       <use xlink:href="#DejaVuSans-30" x="83.59375"/>
       <use xlink:href="#DejaVuSans-30" x="147.216797"/>
       <use xlink:href="#DejaVuSans-30" x="210.839844"/>
      </g>
     </g>
    </g>
    <g id="ytick_7">
     <g id="line2d_31">
      <path d="M 45.3625 46.862137 
L 416.015342 46.862137 
" clip-path="url(#pbed57a90ee)" style="fill: none; stroke: #b0b0b0; stroke-width: 0.8; stroke-linecap: square"/>
     </g>
     <g id="line2d_32">
      <g>
       <use xlink:href="#mb7fbdc2428" x="45.3625" y="46.862137" style="stroke: #000000; stroke-width: 0.8"/>
      </g>
     </g>
     <g id="text_16">
      <!-- 1 200 -->
      <g transform="translate(10.915625 50.661355)scale(0.1 -0.1)">
       <use xlink:href="#DejaVuSans-31"/>
       <use xlink:href="#DejaVuSans-2009" x="63.623047"/>
       <use xlink:href="#DejaVuSans-32" x="83.59375"/>
       <use xlink:href="#DejaVuSans-30" x="147.216797"/>
       <use xlink:href="#DejaVuSans-30" x="210.839844"/>
      </g>
     </g>
    </g>
   </g>
   <g id="line2d_33">
    <path d="M 46.387145 260.27201 
L 47.176451 259.91603 
L 48.910906 259.382061 
L 52.818495 257.602162 
L 53.76253 257.246182 
L 57.072766 255.644273 
L 58.101622 255.288293 
L 61.765159 253.508394 
L 62.416019 253.330405 
L 63.824731 253.152415 
L 64.647909 252.796435 
L 65.605558 252.440455 
L 138.708715 217.020468 
L 139.81277 216.664488 
L 173.330528 200.467408 
L 174.571108 199.933439 
L 188.126194 193.347813 
L 189.272652 193.169823 
L 219.102519 178.752642 
L 220.09017 178.396662 
L 260.809646 158.639785 
L 264.065142 158.105815 
L 269.579305 155.435967 
L 273.242842 153.656068 
L 274.420331 153.300088 
L 289.447203 146.002503 
L 411.442981 86.731871 
L 411.442981 86.731871 
" clip-path="url(#pbed57a90ee)" style="fill: none; stroke: #1f77b4; stroke-width: 1.5; stroke-linecap: square"/>
   </g>
   <g id="line2d_34">
    <path d="M 45.654072 260.27201 
L 46.443377 259.91603 
L 48.177832 259.382061 
L 48.466226 259.204071 
L 49.154592 259.026081 
L 49.7144 258.670101 
L 50.272462 258.314121 
L 50.612687 257.958142 
L 51.427283 257.780152 
L 51.448673 257.602162 
L 52.663103 257.424172 
L 52.956903 257.068192 
L 53.19483 256.890202 
L 54.657967 256.356233 
L 55.387812 255.822263 
L 57.002195 255.466283 
L 57.02919 255.288293 
L 57.771798 254.398344 
L 58.426651 254.220354 
L 60.132377 253.864374 
L 60.187781 253.686384 
L 61.682946 253.330405 
L 63.091657 253.152415 
L 63.326749 252.974425 
L 64.732878 252.440455 
L 65.002134 252.262465 
L 65.973878 251.906485 
L 66.019993 251.728496 
L 67.180961 251.194526 
L 67.237647 251.016536 
L 67.520045 250.838546 
L 69.101149 250.482566 
L 69.371454 250.304576 
L 69.412466 250.126587 
L 69.956333 249.592617 
L 70.031876 249.414627 
L 71.066293 249.058647 
L 71.6867 248.524678 
L 71.890399 247.990708 
L 72.242604 247.812718 
L 72.302004 247.634728 
L 72.648939 247.456738 
L 72.741056 247.278748 
L 73.271575 246.922769 
L 75.179116 246.566789 
L 75.817628 246.210809 
L 75.980845 246.032819 
L 76.539178 245.676839 
L 77.829644 245.32086 
L 77.890706 244.96488 
L 79.173023 244.78689 
L 80.370393 244.25292 
L 80.738602 243.540961 
L 81.247483 243.362971 
L 81.386317 243.184981 
L 81.894876 242.829001 
L 82.038894 242.651011 
L 82.348253 242.473021 
L 82.362608 242.295032 
L 82.942618 241.939052 
L 85.744287 241.583072 
L 85.783719 241.405082 
L 86.171258 241.227092 
L 86.257095 241.049102 
L 86.626387 240.871113 
L 86.690833 240.693123 
L 88.654526 240.515133 
L 89.36183 240.159153 
L 89.664857 239.803173 
L 90.654742 238.913224 
L 90.84871 238.557244 
L 91.651479 238.201264 
L 91.845745 237.845284 
L 92.397706 237.667295 
L 92.477894 237.489305 
L 93.572262 237.311315 
L 93.74079 237.133325 
L 94.774005 236.599355 
L 94.811426 236.421365 
L 95.168658 236.243375 
L 96.245603 235.887396 
L 96.282618 235.709406 
L 99.736579 235.175436 
L 100.229295 234.819456 
L 101.607491 234.641466 
L 101.628493 234.463477 
L 102.680907 233.929507 
L 102.702949 233.573527 
L 103.038268 233.217547 
L 104.463959 233.039558 
L 104.510873 232.861568 
L 105.08921 232.149608 
L 106.631082 231.437649 
L 107.548399 231.259659 
L 107.662223 230.903679 
L 109.552529 230.013729 
L 110.084477 229.65775 
L 110.995079 229.47976 
L 111.03122 229.30177 
L 111.96187 229.12378 
L 112.276163 228.94579 
L 112.307952 228.7678 
L 113.278517 228.58981 
L 113.541669 228.055841 
L 116.316489 226.809912 
L 116.689096 226.275942 
L 117.307474 225.919962 
L 117.380951 225.563982 
L 118.027837 225.385992 
L 118.196994 225.208003 
L 118.256727 224.852023 
L 118.980538 224.496043 
L 119.095838 224.318053 
L 120.152993 223.784083 
L 121.352854 223.606094 
L 121.665692 223.250114 
L 122.497102 222.894134 
L 123.010339 222.538154 
L 124.150782 222.182174 
L 124.523971 222.004185 
L 124.616446 221.826195 
L 126.966017 221.292225 
L 127.401613 220.936245 
L 128.087962 220.758255 
L 129.495862 220.580265 
L 129.936306 220.402276 
L 130.110891 220.046296 
L 131.454846 219.512326 
L 131.639862 219.334336 
L 132.052113 219.156346 
L 132.832263 218.978357 
L 132.937557 218.800367 
L 133.394134 218.444387 
L 136.166129 217.732427 
L 137.289202 217.198458 
L 137.568315 217.020468 
L 138.713342 216.842478 
L 138.809348 216.664488 
L 139.37174 216.308508 
L 139.927077 215.952528 
L 140.504637 215.596549 
L 140.511737 215.418559 
L 141.337167 214.884589 
L 141.73258 214.706599 
L 142.159712 214.17263 
L 143.224085 213.63866 
L 143.996156 213.46067 
L 144.254534 212.74871 
L 145.658136 211.858761 
L 145.670667 211.680771 
L 146.058639 211.502781 
L 147.330815 211.324791 
L 147.859456 210.968812 
L 148.157921 210.612832 
L 148.989044 210.434842 
L 149.250176 209.900872 
L 149.459899 209.722882 
L 151.790907 209.366903 
L 151.901387 209.188913 
L 152.784656 208.832933 
L 153.448157 208.476953 
L 153.525272 208.120973 
L 154.44822 207.942984 
L 154.607345 207.764994 
L 155.298313 207.409014 
L 157.776839 207.231024 
L 158.450832 207.053034 
L 158.510134 206.875044 
L 160.113329 206.519064 
L 160.192318 206.163085 
L 160.869495 205.629115 
L 160.917921 205.451125 
L 162.894669 204.917155 
L 163.497951 204.739166 
L 164.247344 204.027206 
L 164.28598 203.671226 
L 165.769657 203.493236 
L 166.378797 203.137257 
L 166.799795 202.781277 
L 167.26885 202.603287 
L 167.287868 202.425297 
L 168.025255 202.247307 
L 168.191913 202.069317 
L 169.551071 201.891327 
L 169.557214 201.713338 
L 170.266686 201.535348 
L 170.367108 201.179368 
L 170.897513 201.001378 
L 171.061 200.823388 
L 172.597454 200.467408 
L 173.105327 200.289418 
L 173.326204 199.933439 
L 173.842247 199.577459 
L 173.862715 199.399469 
L 174.096126 199.043489 
L 174.244149 198.50952 
L 175.050497 198.15354 
L 175.14337 197.97555 
L 175.903931 197.79756 
L 176.05914 197.61957 
L 178.080226 197.26359 
L 179.775377 196.373641 
L 179.841305 196.195651 
L 181.325011 195.127712 
L 184.109475 194.771732 
L 184.223399 194.593742 
L 185.269524 194.059772 
L 186.327755 193.703793 
L 187.316713 193.347813 
L 188.539578 193.169823 
L 188.676553 192.991833 
L 189.158617 192.635853 
L 189.590463 191.745904 
L 190.648887 191.567914 
L 191.918027 190.855954 
L 193.205569 190.677965 
L 193.300093 190.499975 
L 193.718153 190.321985 
L 193.858343 189.966005 
L 193.901519 189.610025 
L 194.492331 189.076056 
L 197.255238 188.364096 
L 197.607465 188.186106 
L 197.679991 188.008116 
L 197.966471 187.830126 
L 197.975625 187.652137 
L 198.682087 187.474147 
L 198.707592 187.296157 
L 199.623282 186.940177 
L 200.497463 186.406207 
L 201.12143 186.050228 
L 204.344472 185.338268 
L 204.434043 185.160278 
L 205.055649 184.804298 
L 205.92351 184.626308 
L 206.089542 184.270329 
L 206.192568 183.914349 
L 209.053411 182.84641 
L 211.814731 181.244501 
L 212.017753 181.066511 
L 213.472482 180.532541 
L 213.88978 180.354551 
L 215.008325 180.176561 
L 215.231451 179.998571 
L 215.89954 179.642592 
L 215.98846 179.464602 
L 216.558017 179.286612 
L 217.636738 179.108622 
L 217.732225 178.930632 
L 219.098067 178.396662 
L 219.32387 178.040683 
L 220.480483 177.862693 
L 220.981808 177.506713 
L 220.991332 177.328723 
L 221.446838 177.150733 
L 221.795694 176.616764 
L 222.447675 176.260784 
L 223.056568 175.904804 
L 223.33994 175.370834 
L 223.663718 175.192845 
L 225.50164 174.658875 
L 225.547446 174.480885 
L 226.225927 174.124905 
L 226.467025 173.590936 
L 227.560625 173.056966 
L 228.093821 172.700986 
L 228.766177 172.522996 
L 229.047703 171.811037 
L 229.292991 171.633047 
L 229.502837 171.277067 
L 229.971925 171.099077 
L 231.005276 170.921087 
L 231.016606 170.743097 
L 232.557072 170.209128 
L 232.59267 170.031138 
L 233.450118 169.853148 
L 233.571859 169.497168 
L 234.854953 168.963198 
L 235.17669 168.785209 
L 235.193794 168.607219 
L 236.39122 168.429229 
L 236.828594 167.717269 
L 237.24291 167.539279 
L 237.311553 167.00531 
L 237.608717 166.82732 
L 238.580492 166.64933 
L 238.583893 166.47134 
L 239.645732 166.11536 
L 240.209121 165.93737 
L 241.731676 165.759381 
L 241.852906 165.581391 
L 242.621726 165.225411 
L 242.719371 164.869431 
L 243.544261 164.335461 
L 245.501701 163.979482 
L 246.609617 163.623502 
L 246.851097 163.267522 
L 248.045015 163.089532 
L 248.364056 162.733552 
L 252.566216 161.665613 
L 253.174842 161.309633 
L 253.626512 161.131643 
L 254.386242 160.953654 
L 254.765854 160.597674 
L 256.140242 160.241694 
L 256.219409 160.063704 
L 257.120486 159.529735 
L 258.461214 159.351745 
L 258.617477 159.173755 
L 259.343865 158.995765 
L 259.402604 158.817775 
L 259.958021 158.639785 
L 262.965715 158.283805 
L 263.204137 158.105815 
L 263.96931 157.749836 
L 263.970796 157.571846 
L 264.344546 157.393856 
L 264.875569 156.681896 
L 265.080363 156.503906 
L 265.712922 156.325917 
L 266.107428 155.791947 
L 266.369753 155.613957 
L 266.509917 155.257977 
L 267.956147 155.079987 
L 267.99387 154.901997 
L 268.184769 154.724008 
L 273.320904 153.478078 
L 273.515057 153.300088 
L 274.059982 153.122099 
L 274.589328 152.410139 
L 274.912547 152.054159 
L 275.459379 151.876169 
L 275.556195 151.69818 
L 276.511122 151.52019 
L 276.727467 150.98622 
L 278.320376 150.63024 
L 278.329732 150.27426 
L 278.609049 150.096271 
L 279.148397 149.918281 
L 279.339697 149.562301 
L 280.125301 149.384311 
L 280.295747 148.850341 
L 281.831046 148.138382 
L 282.238267 147.782402 
L 285.068162 146.714463 
L 285.220819 146.358483 
L 285.380868 146.002503 
L 285.709242 145.824513 
L 285.730112 145.646523 
L 286.343915 145.112554 
L 286.680012 144.756574 
L 287.175559 144.400594 
L 289.06994 143.510645 
L 289.453178 143.154665 
L 290.095658 142.976675 
L 290.168876 142.798685 
L 290.429723 142.620695 
L 290.998943 142.442705 
L 291.05348 142.086726 
L 293.211925 141.196776 
L 294.181334 140.840796 
L 294.561358 140.128837 
L 294.885859 139.950847 
L 294.889426 139.772857 
L 295.00614 139.594867 
L 295.821674 139.416877 
L 296.04392 139.060898 
L 296.124323 138.882908 
L 297.853084 138.348938 
L 297.869803 138.170948 
L 299.166425 137.636979 
L 299.195762 137.458989 
L 299.69601 137.103009 
L 300.481143 136.925019 
L 300.860935 136.569039 
L 301.372758 136.213059 
L 302.546851 136.03507 
L 302.616933 135.85708 
L 303.233196 135.5011 
L 303.246386 135.32311 
L 304.013411 134.96713 
L 304.572571 134.61115 
L 304.636388 134.433161 
L 304.91784 134.255171 
L 304.974729 134.077181 
L 305.777808 133.721201 
L 305.896935 133.543211 
L 306.180802 133.365221 
L 306.375706 133.009241 
L 306.616658 132.653262 
L 307.764382 132.475272 
L 307.954875 131.941302 
L 309.130203 131.585322 
L 309.417731 131.407332 
L 309.453193 131.229343 
L 309.676846 131.051353 
L 311.344282 130.695373 
L 311.376014 130.517383 
L 311.60081 130.339393 
L 313.617636 129.627434 
L 313.653582 129.449444 
L 314.512268 129.271454 
L 314.715835 129.093464 
L 315.820374 128.559494 
L 318.823458 126.779595 
L 318.827054 126.601606 
L 319.410126 126.423616 
L 319.545158 126.245626 
L 320.716851 126.067636 
L 320.813968 125.889646 
L 321.622428 125.355676 
L 323.462641 124.999697 
L 323.985456 124.643717 
L 324.023026 124.465727 
L 325.134522 124.287737 
L 325.804746 123.931757 
L 327.162823 123.575777 
L 327.225667 123.397788 
L 328.10315 123.219798 
L 329.892237 123.041808 
L 330.511461 122.863818 
L 330.643975 122.329848 
L 331.56116 121.795879 
L 332.653546 121.617889 
L 332.677273 121.439899 
L 333.688631 121.261909 
L 334.217687 120.727939 
L 335.896011 120.01598 
L 336.030355 119.83799 
L 337.200401 119.66 
L 337.407996 119.30402 
L 337.966734 118.770051 
L 337.972765 118.592061 
L 339.479155 117.702111 
L 340.867441 117.346131 
L 340.905883 117.168142 
L 341.250073 116.990152 
L 342.314667 116.812162 
L 342.352648 116.634172 
L 343.098652 116.456182 
L 343.13402 116.278192 
L 343.355823 116.100202 
L 343.376922 115.922212 
L 343.554997 115.566233 
L 343.751237 115.210253 
L 344.100417 115.032263 
L 344.770677 114.854273 
L 344.782999 114.676283 
L 345.053705 114.498293 
L 345.059467 114.320303 
L 346.226691 113.430354 
L 346.861595 112.540405 
L 347.401755 112.362415 
L 347.453219 112.184425 
L 347.626126 112.006435 
L 347.630562 111.828445 
L 347.877982 111.650455 
L 347.922939 111.472465 
L 349.387461 111.294475 
L 349.740476 111.116485 
L 349.843267 110.938496 
L 351.183961 110.760506 
L 351.355752 110.582516 
L 353.055735 110.404526 
L 353.072857 110.226536 
L 353.401547 109.870556 
L 353.466712 109.692566 
L 355.094911 109.158597 
L 355.716123 108.802617 
L 357.382235 108.624627 
L 357.575143 108.268647 
L 357.712548 108.090657 
L 358.865683 107.734678 
L 359.118319 107.200708 
L 360.113364 106.666738 
L 360.216839 106.488748 
L 360.986595 106.132769 
L 361.944844 105.954779 
L 362.211688 105.776789 
L 362.916457 105.598799 
L 363.995723 104.70885 
L 365.569406 104.17488 
L 366.146668 103.64091 
L 368.064431 103.28493 
L 368.229744 103.106941 
L 369.178537 102.928951 
L 369.364177 102.750961 
L 369.381432 102.572971 
L 369.873085 102.394981 
L 370.188499 102.039001 
L 370.345485 101.861011 
L 371.978089 101.505032 
L 372.087033 101.327042 
L 373.637814 101.149052 
L 373.813986 100.971062 
L 375.086279 100.793072 
L 375.523885 100.615082 
L 377.219019 100.259102 
L 377.395164 99.903123 
L 379.16455 99.725133 
L 379.753215 98.835183 
L 381.67151 98.479204 
L 381.93131 98.123224 
L 382.538341 97.767244 
L 382.560369 97.589254 
L 383.951632 97.233274 
L 383.995899 97.055284 
L 385.143319 96.699305 
L 385.97381 95.631365 
L 386.89748 95.275386 
L 386.996966 95.097396 
L 387.5785 94.919406 
L 387.647581 94.741416 
L 388.251668 94.207446 
L 388.384683 94.029456 
L 389.849641 93.673477 
L 390.10797 93.317497 
L 390.854906 92.961517 
L 391.151833 92.783527 
L 392.198661 92.605537 
L 392.281107 92.427547 
L 392.940667 92.071568 
L 394.981155 91.537598 
L 395.138288 91.359608 
L 395.647285 91.181618 
L 395.656418 91.003628 
L 396.096979 90.825638 
L 396.156014 90.647649 
L 397.416617 90.469659 
L 397.468417 90.291669 
L 399.368008 90.113679 
L 400.491451 89.579709 
L 400.51838 89.401719 
L 401.400191 88.86775 
L 401.460747 88.68976 
L 401.876094 88.33378 
L 402.312415 88.15579 
L 402.363977 87.9778 
L 402.53812 87.79981 
L 402.877597 87.62182 
L 402.916209 87.443831 
L 403.093003 87.265841 
L 405.101644 86.909861 
L 405.129191 86.731871 
L 406.387844 86.553881 
L 406.394984 86.375891 
L 406.684993 86.197901 
L 408.110442 86.019912 
L 408.28705 85.663932 
L 408.725358 85.307952 
L 409.557241 85.129962 
L 409.837449 84.773982 
L 410.449417 84.418003 
L 410.449417 84.418003 
" clip-path="url(#pbed57a90ee)" style="fill: none; stroke: #ff7f0e; stroke-width: 1.5; stroke-linecap: square"/>
   </g>
   <g id="patch_3">
    <path d="M 45.3625 260.45 
L 45.3625 25.8 
" style="fill: none; stroke: #000000; stroke-width: 0.8; stroke-linejoin: miter; stroke-linecap: square"/>
   </g>
   <g id="patch_4">
    <path d="M 416.015342 260.45 
L 416.015342 25.8 
" style="fill: none; stroke: #000000; stroke-width: 0.8; stroke-linejoin: miter; stroke-linecap: square"/>
   </g>
   <g id="patch_5">
    <path d="M 45.3625 260.45 
L 416.015342 260.45 
" style="fill: none; stroke: #000000; stroke-width: 0.8; stroke-linejoin: miter; stroke-linecap: square"/>
   </g>
   <g id="patch_6">
    <path d="M 45.3625 25.8 
L 416.015342 25.8 
" style="fill: none; stroke: #000000; stroke-width: 0.8; stroke-linejoin: miter; stroke-linecap: square"/>
   </g>
   <g id="text_17">
    <!-- Sent_vs_recived_packets -->
    <g transform="translate(156.103296 19.8)scale(0.12 -0.12)">
     <defs>
      <path id="DejaVuSans-53" d="M 3425 4513 
L 3425 3897 
Q 3066 4069 2747 4153 
Q 2428 4238 2131 4238 
Q 1616 4238 1336 4038 
Q 1056 3838 1056 3469 
Q 1056 3159 1242 3001 
Q 1428 2844 1947 2747 
L 2328 2669 
Q 3034 2534 3370 2195 
Q 3706 1856 3706 1288 
Q 3706 609 3251 259 
Q 2797 -91 1919 -91 
Q 1588 -91 1214 -16 
Q 841 59 441 206 
L 441 856 
Q 825 641 1194 531 
Q 1563 422 1919 422 
Q 2459 422 2753 634 
Q 3047 847 3047 1241 
Q 3047 1584 2836 1778 
Q 2625 1972 2144 2069 
L 1759 2144 
Q 1053 2284 737 2584 
Q 422 2884 422 3419 
Q 422 4038 858 4394 
Q 1294 4750 2059 4750 
Q 2388 4750 2728 4690 
Q 3069 4631 3425 4513 
z
" transform="scale(0.015625)"/>
      <path id="DejaVuSans-65" d="M 3597 1894 
L 3597 1613 
L 953 1613 
Q 991 1019 1311 708 
Q 1631 397 2203 397 
Q 2534 397 2845 478 
Q 3156 559 3463 722 
L 3463 178 
Q 3153 47 2828 -22 
Q 2503 -91 2169 -91 
Q 1331 -91 842 396 
Q 353 884 353 1716 
Q 353 2575 817 3079 
Q 1281 3584 2069 3584 
Q 2775 3584 3186 3129 
Q 3597 2675 3597 1894 
z
M 3022 2063 
Q 3016 2534 2758 2815 
Q 2500 3097 2075 3097 
Q 1594 3097 1305 2825 
Q 1016 2553 972 2059 
L 3022 2063 
z
" transform="scale(0.015625)"/>
      <path id="DejaVuSans-6e" d="M 3513 2113 
L 3513 0 
L 2938 0 
L 2938 2094 
Q 2938 2591 2744 2837 
Q 2550 3084 2163 3084 
Q 1697 3084 1428 2787 
Q 1159 2491 1159 1978 
L 1159 0 
L 581 0 
L 581 3500 
L 1159 3500 
L 1159 2956 
Q 1366 3272 1645 3428 
Q 1925 3584 2291 3584 
Q 2894 3584 3203 3211 
Q 3513 2838 3513 2113 
z
" transform="scale(0.015625)"/>
      <path id="DejaVuSans-74" d="M 1172 4494 
L 1172 3500 
L 2356 3500 
L 2356 3053 
L 1172 3053 
L 1172 1153 
Q 1172 725 1289 603 
Q 1406 481 1766 481 
L 2356 481 
L 2356 0 
L 1766 0 
Q 1100 0 847 248 
Q 594 497 594 1153 
L 594 3053 
L 172 3053 
L 172 3500 
L 594 3500 
L 594 4494 
L 1172 4494 
z
" transform="scale(0.015625)"/>
      <path id="DejaVuSans-5f" d="M 3263 -1063 
L 3263 -1509 
L -63 -1509 
L -63 -1063 
L 3263 -1063 
z
" transform="scale(0.015625)"/>
      <path id="DejaVuSans-76" d="M 191 3500 
L 800 3500 
L 1894 563 
L 2988 3500 
L 3597 3500 
L 2284 0 
L 1503 0 
L 191 3500 
z
" transform="scale(0.015625)"/>
      <path id="DejaVuSans-73" d="M 2834 3397 
L 2834 2853 
Q 2591 2978 2328 3040 
Q 2066 3103 1784 3103 
Q 1356 3103 1142 2972 
Q 928 2841 928 2578 
Q 928 2378 1081 2264 
Q 1234 2150 1697 2047 
L 1894 2003 
Q 2506 1872 2764 1633 
Q 3022 1394 3022 966 
Q 3022 478 2636 193 
Q 2250 -91 1575 -91 
Q 1294 -91 989 -36 
Q 684 19 347 128 
L 347 722 
Q 666 556 975 473 
Q 1284 391 1588 391 
Q 1994 391 2212 530 
Q 2431 669 2431 922 
Q 2431 1156 2273 1281 
Q 2116 1406 1581 1522 
L 1381 1569 
Q 847 1681 609 1914 
Q 372 2147 372 2553 
Q 372 3047 722 3315 
Q 1072 3584 1716 3584 
Q 2034 3584 2315 3537 
Q 2597 3491 2834 3397 
z
" transform="scale(0.015625)"/>
      <path id="DejaVuSans-72" d="M 2631 2963 
Q 2534 3019 2420 3045 
Q 2306 3072 2169 3072 
Q 1681 3072 1420 2755 
Q 1159 2438 1159 1844 
L 1159 0 
L 581 0 
L 581 3500 
L 1159 3500 
L 1159 2956 
Q 1341 3275 1631 3429 
Q 1922 3584 2338 3584 
Q 2397 3584 2469 3576 
Q 2541 3569 2628 3553 
L 2631 2963 
z
" transform="scale(0.015625)"/>
      <path id="DejaVuSans-63" d="M 3122 3366 
L 3122 2828 
Q 2878 2963 2633 3030 
Q 2388 3097 2138 3097 
Q 1578 3097 1268 2742 
Q 959 2388 959 1747 
Q 959 1106 1268 751 
Q 1578 397 2138 397 
Q 2388 397 2633 464 
Q 2878 531 3122 666 
L 3122 134 
Q 2881 22 2623 -34 
Q 2366 -91 2075 -91 
Q 1284 -91 818 406 
Q 353 903 353 1747 
Q 353 2603 823 3093 
Q 1294 3584 2113 3584 
Q 2378 3584 2631 3529 
Q 2884 3475 3122 3366 
z
" transform="scale(0.015625)"/>
      <path id="DejaVuSans-69" d="M 603 3500 
L 1178 3500 
L 1178 0 
L 603 0 
L 603 3500 
z
M 603 4863 
L 1178 4863 
L 1178 4134 
L 603 4134 
L 603 4863 
z
" transform="scale(0.015625)"/>
      <path id="DejaVuSans-64" d="M 2906 2969 
L 2906 4863 
L 3481 4863 
L 3481 0 
L 2906 0 
L 2906 525 
Q 2725 213 2448 61 
Q 2172 -91 1784 -91 
Q 1150 -91 751 415 
Q 353 922 353 1747 
Q 353 2572 751 3078 
Q 1150 3584 1784 3584 
Q 2172 3584 2448 3432 
Q 2725 3281 2906 2969 
z
M 947 1747 
Q 947 1113 1208 752 
Q 1469 391 1925 391 
Q 2381 391 2643 752 
Q 2906 1113 2906 1747 
Q 2906 2381 2643 2742 
Q 2381 3103 1925 3103 
Q 1469 3103 1208 2742 
Q 947 2381 947 1747 
z
" transform="scale(0.015625)"/>
      <path id="DejaVuSans-70" d="M 1159 525 
L 1159 -1331 
L 581 -1331 
L 581 3500 
L 1159 3500 
L 1159 2969 
Q 1341 3281 1617 3432 
Q 1894 3584 2278 3584 
Q 2916 3584 3314 3078 
Q 3713 2572 3713 1747 
Q 3713 922 3314 415 
Q 2916 -91 2278 -91 
Q 1894 -91 1617 61 
Q 1341 213 1159 525 
z
M 3116 1747 
Q 3116 2381 2855 2742 
Q 2594 3103 2138 3103 
Q 1681 3103 1420 2742 
Q 1159 2381 1159 1747 
Q 1159 1113 1420 752 
Q 1681 391 2138 391 
Q 2594 391 2855 752 
Q 3116 1113 3116 1747 
z
" transform="scale(0.015625)"/>
      <path id="DejaVuSans-61" d="M 2194 1759 
Q 1497 1759 1228 1600 
Q 959 1441 959 1056 
Q 959 750 1161 570 
Q 1363 391 1709 391 
Q 2188 391 2477 730 
Q 2766 1069 2766 1631 
L 2766 1759 
L 2194 1759 
z
M 3341 1997 
L 3341 0 
L 2766 0 
L 2766 531 
Q 2569 213 2275 61 
Q 1981 -91 1556 -91 
Q 1019 -91 701 211 
Q 384 513 384 1019 
Q 384 1609 779 1909 
Q 1175 2209 1959 2209 
L 2766 2209 
L 2766 2266 
Q 2766 2663 2505 2880 
Q 2244 3097 1772 3097 
Q 1472 3097 1187 3025 
Q 903 2953 641 2809 
L 641 3341 
Q 956 3463 1253 3523 
Q 1550 3584 1831 3584 
Q 2591 3584 2966 3190 
Q 3341 2797 3341 1997 
z
" transform="scale(0.015625)"/>
      <path id="DejaVuSans-6b" d="M 581 4863 
L 1159 4863 
L 1159 1991 
L 2875 3500 
L 3609 3500 
L 1753 1863 
L 3688 0 
L 2938 0 
L 1159 1709 
L 1159 0 
L 581 0 
L 581 4863 
z
" transform="scale(0.015625)"/>
     </defs>
     <use xlink:href="#DejaVuSans-53"/>
     <use xlink:href="#DejaVuSans-65" x="63.476562"/>
     <use xlink:href="#DejaVuSans-6e" x="125"/>
     <use xlink:href="#DejaVuSans-74" x="188.378906"/>
     <use xlink:href="#DejaVuSans-5f" x="227.587891"/>
     <use xlink:href="#DejaVuSans-76" x="277.587891"/>
     <use xlink:href="#DejaVuSans-73" x="336.767578"/>
     <use xlink:href="#DejaVuSans-5f" x="388.867188"/>
     <use xlink:href="#DejaVuSans-72" x="438.867188"/>
     <use xlink:href="#DejaVuSans-65" x="477.730469"/>
     <use xlink:href="#DejaVuSans-63" x="539.253906"/>
     <use xlink:href="#DejaVuSans-69" x="594.234375"/>
     <use xlink:href="#DejaVuSans-76" x="622.017578"/>
     <use xlink:href="#DejaVuSans-65" x="681.197266"/>
     <use xlink:href="#DejaVuSans-64" x="742.720703"/>
     <use xlink:href="#DejaVuSans-5f" x="806.197266"/>
     <use xlink:href="#DejaVuSans-70" x="856.197266"/>
     <use xlink:href="#DejaVuSans-61" x="919.673828"/>
     <use xlink:href="#DejaVuSans-63" x="980.953125"/>
     <use xlink:href="#DejaVuSans-6b" x="1035.933594"/>
     <use xlink:href="#DejaVuSans-65" x="1090.21875"/>
     <use xlink:href="#DejaVuSans-74" x="1151.742188"/>
     <use xlink:href="#DejaVuSans-73" x="1190.951172"/>
    </g>
   </g>
   <g id="legend_1">
    <g id="patch_7">
     <path d="M 168.127842 63.15625 
L 409.015342 63.15625 
Q 411.015342 63.15625 411.015342 61.15625 
L 411.015342 32.8 
Q 411.015342 30.8 409.015342 30.8 
L 168.127842 30.8 
Q 166.127842 30.8 166.127842 32.8 
L 166.127842 61.15625 
Q 166.127842 63.15625 168.127842 63.15625 
z
" style="fill: #ffffff; opacity: 0.8; stroke: #cccccc; stroke-linejoin: miter"/>
    </g>
    <g id="line2d_35">
     <path d="M 170.127842 38.898437 
L 180.127842 38.898437 
L 190.127842 38.898437 
" style="fill: none; stroke: #1f77b4; stroke-width: 1.5; stroke-linecap: square"/>
    </g>
    <g id="text_18">
     <!-- Received packets in Network.nodeRx.sink -->
     <g transform="translate(198.127842 42.398437)scale(0.1 -0.1)">
      <defs>
       <path id="DejaVuSans-52" d="M 2841 2188 
Q 3044 2119 3236 1894 
Q 3428 1669 3622 1275 
L 4263 0 
L 3584 0 
L 2988 1197 
Q 2756 1666 2539 1819 
Q 2322 1972 1947 1972 
L 1259 1972 
L 1259 0 
L 628 0 
L 628 4666 
L 2053 4666 
Q 2853 4666 3247 4331 
Q 3641 3997 3641 3322 
Q 3641 2881 3436 2590 
Q 3231 2300 2841 2188 
z
M 1259 4147 
L 1259 2491 
L 2053 2491 
Q 2509 2491 2742 2702 
Q 2975 2913 2975 3322 
Q 2975 3731 2742 3939 
Q 2509 4147 2053 4147 
L 1259 4147 
z
" transform="scale(0.015625)"/>
       <path id="DejaVuSans-20" transform="scale(0.015625)"/>
       <path id="DejaVuSans-4e" d="M 628 4666 
L 1478 4666 
L 3547 763 
L 3547 4666 
L 4159 4666 
L 4159 0 
L 3309 0 
L 1241 3903 
L 1241 0 
L 628 0 
L 628 4666 
z
" transform="scale(0.015625)"/>
       <path id="DejaVuSans-77" d="M 269 3500 
L 844 3500 
L 1563 769 
L 2278 3500 
L 2956 3500 
L 3675 769 
L 4391 3500 
L 4966 3500 
L 4050 0 
L 3372 0 
L 2619 2869 
L 1863 0 
L 1184 0 
L 269 3500 
z
" transform="scale(0.015625)"/>
       <path id="DejaVuSans-6f" d="M 1959 3097 
Q 1497 3097 1228 2736 
Q 959 2375 959 1747 
Q 959 1119 1226 758 
Q 1494 397 1959 397 
Q 2419 397 2687 759 
Q 2956 1122 2956 1747 
Q 2956 2369 2687 2733 
Q 2419 3097 1959 3097 
z
M 1959 3584 
Q 2709 3584 3137 3096 
Q 3566 2609 3566 1747 
Q 3566 888 3137 398 
Q 2709 -91 1959 -91 
Q 1206 -91 779 398 
Q 353 888 353 1747 
Q 353 2609 779 3096 
Q 1206 3584 1959 3584 
z
" transform="scale(0.015625)"/>
       <path id="DejaVuSans-2e" d="M 684 794 
L 1344 794 
L 1344 0 
L 684 0 
L 684 794 
z
" transform="scale(0.015625)"/>
       <path id="DejaVuSans-78" d="M 3513 3500 
L 2247 1797 
L 3578 0 
L 2900 0 
L 1881 1375 
L 863 0 
L 184 0 
L 1544 1831 
L 300 3500 
L 978 3500 
L 1906 2253 
L 2834 3500 
L 3513 3500 
z
" transform="scale(0.015625)"/>
      </defs>
      <use xlink:href="#DejaVuSans-52"/>
      <use xlink:href="#DejaVuSans-65" x="64.982422"/>
      <use xlink:href="#DejaVuSans-63" x="126.505859"/>
      <use xlink:href="#DejaVuSans-65" x="181.486328"/>
      <use xlink:href="#DejaVuSans-69" x="243.009766"/>
      <use xlink:href="#DejaVuSans-76" x="270.792969"/>
      <use xlink:href="#DejaVuSans-65" x="329.972656"/>
      <use xlink:href="#DejaVuSans-64" x="391.496094"/>
      <use xlink:href="#DejaVuSans-20" x="454.972656"/>
      <use xlink:href="#DejaVuSans-70" x="486.759766"/>
      <use xlink:href="#DejaVuSans-61" x="550.236328"/>
      <use xlink:href="#DejaVuSans-63" x="611.515625"/>
      <use xlink:href="#DejaVuSans-6b" x="666.496094"/>
      <use xlink:href="#DejaVuSans-65" x="720.78125"/>
      <use xlink:href="#DejaVuSans-74" x="782.304688"/>
      <use xlink:href="#DejaVuSans-73" x="821.513672"/>
      <use xlink:href="#DejaVuSans-20" x="873.613281"/>
      <use xlink:href="#DejaVuSans-69" x="905.400391"/>
      <use xlink:href="#DejaVuSans-6e" x="933.183594"/>
      <use xlink:href="#DejaVuSans-20" x="996.5625"/>
      <use xlink:href="#DejaVuSans-4e" x="1028.349609"/>
      <use xlink:href="#DejaVuSans-65" x="1103.154297"/>
      <use xlink:href="#DejaVuSans-74" x="1164.677734"/>
      <use xlink:href="#DejaVuSans-77" x="1203.886719"/>
      <use xlink:href="#DejaVuSans-6f" x="1285.673828"/>
      <use xlink:href="#DejaVuSans-72" x="1346.855469"/>
      <use xlink:href="#DejaVuSans-6b" x="1387.96875"/>
      <use xlink:href="#DejaVuSans-2e" x="1445.878906"/>
      <use xlink:href="#DejaVuSans-6e" x="1477.666016"/>
      <use xlink:href="#DejaVuSans-6f" x="1541.044922"/>
      <use xlink:href="#DejaVuSans-64" x="1602.226562"/>
      <use xlink:href="#DejaVuSans-65" x="1665.703125"/>
      <use xlink:href="#DejaVuSans-52" x="1727.226562"/>
      <use xlink:href="#DejaVuSans-78" x="1796.708984"/>
      <use xlink:href="#DejaVuSans-2e" x="1855.888672"/>
      <use xlink:href="#DejaVuSans-73" x="1887.675781"/>
      <use xlink:href="#DejaVuSans-69" x="1939.775391"/>
      <use xlink:href="#DejaVuSans-6e" x="1967.558594"/>
      <use xlink:href="#DejaVuSans-6b" x="2030.9375"/>
     </g>
    </g>
    <g id="line2d_36">
     <path d="M 170.127842 53.576562 
L 180.127842 53.576562 
L 190.127842 53.576562 
" style="fill: none; stroke: #ff7f0e; stroke-width: 1.5; stroke-linecap: square"/>
    </g>
    <g id="text_19">
     <!-- Sent packets in Network.nodeTx.gen -->
     <g transform="translate(198.127842 57.076562)scale(0.1 -0.1)">
      <defs>
       <path id="DejaVuSans-54" d="M -19 4666 
L 3928 4666 
L 3928 4134 
L 2272 4134 
L 2272 0 
L 1638 0 
L 1638 4134 
L -19 4134 
L -19 4666 
z
" transform="scale(0.015625)"/>
       <path id="DejaVuSans-67" d="M 2906 1791 
Q 2906 2416 2648 2759 
Q 2391 3103 1925 3103 
Q 1463 3103 1205 2759 
Q 947 2416 947 1791 
Q 947 1169 1205 825 
Q 1463 481 1925 481 
Q 2391 481 2648 825 
Q 2906 1169 2906 1791 
z
M 3481 434 
Q 3481 -459 3084 -895 
Q 2688 -1331 1869 -1331 
Q 1566 -1331 1297 -1286 
Q 1028 -1241 775 -1147 
L 775 -588 
Q 1028 -725 1275 -790 
Q 1522 -856 1778 -856 
Q 2344 -856 2625 -561 
Q 2906 -266 2906 331 
L 2906 616 
Q 2728 306 2450 153 
Q 2172 0 1784 0 
Q 1141 0 747 490 
Q 353 981 353 1791 
Q 353 2603 747 3093 
Q 1141 3584 1784 3584 
Q 2172 3584 2450 3431 
Q 2728 3278 2906 2969 
L 2906 3500 
L 3481 3500 
L 3481 434 
z
" transform="scale(0.015625)"/>
      </defs>
      <use xlink:href="#DejaVuSans-53"/>
      <use xlink:href="#DejaVuSans-65" x="63.476562"/>
      <use xlink:href="#DejaVuSans-6e" x="125"/>
      <use xlink:href="#DejaVuSans-74" x="188.378906"/>
      <use xlink:href="#DejaVuSans-20" x="227.587891"/>
      <use xlink:href="#DejaVuSans-70" x="259.375"/>
      <use xlink:href="#DejaVuSans-61" x="322.851562"/>
      <use xlink:href="#DejaVuSans-63" x="384.130859"/>
      <use xlink:href="#DejaVuSans-6b" x="439.111328"/>
      <use xlink:href="#DejaVuSans-65" x="493.396484"/>
      <use xlink:href="#DejaVuSans-74" x="554.919922"/>
      <use xlink:href="#DejaVuSans-73" x="594.128906"/>
      <use xlink:href="#DejaVuSans-20" x="646.228516"/>
      <use xlink:href="#DejaVuSans-69" x="678.015625"/>
      <use xlink:href="#DejaVuSans-6e" x="705.798828"/>
      <use xlink:href="#DejaVuSans-20" x="769.177734"/>
      <use xlink:href="#DejaVuSans-4e" x="800.964844"/>
      <use xlink:href="#DejaVuSans-65" x="875.769531"/>
      <use xlink:href="#DejaVuSans-74" x="937.292969"/>
      <use xlink:href="#DejaVuSans-77" x="976.501953"/>
      <use xlink:href="#DejaVuSans-6f" x="1058.289062"/>
      <use xlink:href="#DejaVuSans-72" x="1119.470703"/>
      <use xlink:href="#DejaVuSans-6b" x="1160.583984"/>
      <use xlink:href="#DejaVuSans-2e" x="1218.494141"/>
      <use xlink:href="#DejaVuSans-6e" x="1250.28125"/>
      <use xlink:href="#DejaVuSans-6f" x="1313.660156"/>
      <use xlink:href="#DejaVuSans-64" x="1374.841797"/>
      <use xlink:href="#DejaVuSans-65" x="1438.318359"/>
      <use xlink:href="#DejaVuSans-54" x="1499.841797"/>
      <use xlink:href="#DejaVuSans-78" x="1560.925781"/>
      <use xlink:href="#DejaVuSans-2e" x="1620.105469"/>
      <use xlink:href="#DejaVuSans-67" x="1651.892578"/>
      <use xlink:href="#DejaVuSans-65" x="1715.369141"/>
      <use xlink:href="#DejaVuSans-6e" x="1776.892578"/>
     </g>
    </g>
   </g>
  </g>
 </g>
 <defs>
  <clipPath id="pbed57a90ee">
   <rect x="45.3625" y="25.8" width="370.652842" height="234.65"/>
  </clipPath>
 </defs>
</svg>
