<?xml version="1.0" encoding="utf-8" standalone="no"?>
<!DOCTYPE svg PUBLIC "-//W3C//DTD SVG 1.1//EN"
  "http://www.w3.org/Graphics/SVG/1.1/DTD/svg11.dtd">
<!-- Created with matplotlib (https://matplotlib.org/) -->
<svg height="288pt" version="1.1" viewBox="0 0 432 288" width="432pt" xmlns="http://www.w3.org/2000/svg" xmlns:xlink="http://www.w3.org/1999/xlink">
 <defs>
  <style type="text/css">
*{stroke-linecap:butt;stroke-linejoin:round;}
  </style>
 </defs>
 <g id="figure_1">
  <g id="patch_1">
   <path d="M 0 288 
L 432 288 
L 432 0 
L 0 0 
z
" style="fill:#ffffff;"/>
  </g>
  <g id="axes_1">
   <g id="patch_2">
    <path d="M 40.985938 251.682812 
L 417.979969 251.682812 
L 417.979969 23.638594 
L 40.985938 23.638594 
z
" style="fill:#ffffff;"/>
   </g>
   <g id="matplotlib.axis_1">
    <g id="xtick_1">
     <g id="line2d_1">
      <path clip-path="url(#p475444189c)" d="M 40.985938 251.682812 
L 40.985938 23.638594 
" style="fill:none;stroke:#b0b0b0;stroke-linecap:square;stroke-width:0.8;"/>
     </g>
     <g id="line2d_2">
      <defs>
       <path d="M 0 0 
L 0 3.5 
" id="m566556efa3" style="stroke:#000000;stroke-width:0.8;"/>
      </defs>
      <g>
       <use style="stroke:#000000;stroke-width:0.8;" x="40.985938" xlink:href="#m566556efa3" y="251.682812"/>
      </g>
     </g>
     <g id="text_1">
      <!-- 0 -->
      <defs>
       <path d="M 31.78125 66.40625 
Q 24.171875 66.40625 20.328125 58.90625 
Q 16.5 51.421875 16.5 36.375 
Q 16.5 21.390625 20.328125 13.890625 
Q 24.171875 6.390625 31.78125 6.390625 
Q 39.453125 6.390625 43.28125 13.890625 
Q 47.125 21.390625 47.125 36.375 
Q 47.125 51.421875 43.28125 58.90625 
Q 39.453125 66.40625 31.78125 66.40625 
z
M 31.78125 74.21875 
Q 44.046875 74.21875 50.515625 64.515625 
Q 56.984375 54.828125 56.984375 36.375 
Q 56.984375 17.96875 50.515625 8.265625 
Q 44.046875 -1.421875 31.78125 -1.421875 
Q 19.53125 -1.421875 13.0625 8.265625 
Q 6.59375 17.96875 6.59375 36.375 
Q 6.59375 54.828125 13.0625 64.515625 
Q 19.53125 74.21875 31.78125 74.21875 
z
" id="DejaVuSans-48"/>
      </defs>
      <g transform="translate(37.804688 266.28125)scale(0.1 -0.1)">
       <use xlink:href="#DejaVuSans-48"/>
      </g>
     </g>
    </g>
    <g id="xtick_2">
     <g id="line2d_3">
      <path clip-path="url(#p475444189c)" d="M 87.615934 251.682812 
L 87.615934 23.638594 
" style="fill:none;stroke:#b0b0b0;stroke-linecap:square;stroke-width:0.8;"/>
     </g>
     <g id="line2d_4">
      <g>
       <use style="stroke:#000000;stroke-width:0.8;" x="87.615934" xlink:href="#m566556efa3" y="251.682812"/>
      </g>
     </g>
     <g id="text_2">
      <!-- 25 -->
      <defs>
       <path d="M 19.1875 8.296875 
L 53.609375 8.296875 
L 53.609375 0 
L 7.328125 0 
L 7.328125 8.296875 
Q 12.9375 14.109375 22.625 23.890625 
Q 32.328125 33.6875 34.8125 36.53125 
Q 39.546875 41.84375 41.421875 45.53125 
Q 43.3125 49.21875 43.3125 52.78125 
Q 43.3125 58.59375 39.234375 62.25 
Q 35.15625 65.921875 28.609375 65.921875 
Q 23.96875 65.921875 18.8125 64.3125 
Q 13.671875 62.703125 7.8125 59.421875 
L 7.8125 69.390625 
Q 13.765625 71.78125 18.9375 73 
Q 24.125 74.21875 28.421875 74.21875 
Q 39.75 74.21875 46.484375 68.546875 
Q 53.21875 62.890625 53.21875 53.421875 
Q 53.21875 48.921875 51.53125 44.890625 
Q 49.859375 40.875 45.40625 35.40625 
Q 44.1875 33.984375 37.640625 27.21875 
Q 31.109375 20.453125 19.1875 8.296875 
z
" id="DejaVuSans-50"/>
       <path d="M 10.796875 72.90625 
L 49.515625 72.90625 
L 49.515625 64.59375 
L 19.828125 64.59375 
L 19.828125 46.734375 
Q 21.96875 47.46875 24.109375 47.828125 
Q 26.265625 48.1875 28.421875 48.1875 
Q 40.625 48.1875 47.75 41.5 
Q 54.890625 34.8125 54.890625 23.390625 
Q 54.890625 11.625 47.5625 5.09375 
Q 40.234375 -1.421875 26.90625 -1.421875 
Q 22.3125 -1.421875 17.546875 -0.640625 
Q 12.796875 0.140625 7.71875 1.703125 
L 7.71875 11.625 
Q 12.109375 9.234375 16.796875 8.0625 
Q 21.484375 6.890625 26.703125 6.890625 
Q 35.15625 6.890625 40.078125 11.328125 
Q 45.015625 15.765625 45.015625 23.390625 
Q 45.015625 31 40.078125 35.4375 
Q 35.15625 39.890625 26.703125 39.890625 
Q 22.75 39.890625 18.8125 39.015625 
Q 14.890625 38.140625 10.796875 36.28125 
z
" id="DejaVuSans-53"/>
      </defs>
      <g transform="translate(81.253434 266.28125)scale(0.1 -0.1)">
       <use xlink:href="#DejaVuSans-50"/>
       <use x="63.623047" xlink:href="#DejaVuSans-53"/>
      </g>
     </g>
    </g>
    <g id="xtick_3">
     <g id="line2d_5">
      <path clip-path="url(#p475444189c)" d="M 134.245931 251.682812 
L 134.245931 23.638594 
" style="fill:none;stroke:#b0b0b0;stroke-linecap:square;stroke-width:0.8;"/>
     </g>
     <g id="line2d_6">
      <g>
       <use style="stroke:#000000;stroke-width:0.8;" x="134.245931" xlink:href="#m566556efa3" y="251.682812"/>
      </g>
     </g>
     <g id="text_3">
      <!-- 50 -->
      <g transform="translate(127.883431 266.28125)scale(0.1 -0.1)">
       <use xlink:href="#DejaVuSans-53"/>
       <use x="63.623047" xlink:href="#DejaVuSans-48"/>
      </g>
     </g>
    </g>
    <g id="xtick_4">
     <g id="line2d_7">
      <path clip-path="url(#p475444189c)" d="M 180.875928 251.682812 
L 180.875928 23.638594 
" style="fill:none;stroke:#b0b0b0;stroke-linecap:square;stroke-width:0.8;"/>
     </g>
     <g id="line2d_8">
      <g>
       <use style="stroke:#000000;stroke-width:0.8;" x="180.875928" xlink:href="#m566556efa3" y="251.682812"/>
      </g>
     </g>
     <g id="text_4">
      <!-- 75 -->
      <defs>
       <path d="M 8.203125 72.90625 
L 55.078125 72.90625 
L 55.078125 68.703125 
L 28.609375 0 
L 18.3125 0 
L 43.21875 64.59375 
L 8.203125 64.59375 
z
" id="DejaVuSans-55"/>
      </defs>
      <g transform="translate(174.513428 266.28125)scale(0.1 -0.1)">
       <use xlink:href="#DejaVuSans-55"/>
       <use x="63.623047" xlink:href="#DejaVuSans-53"/>
      </g>
     </g>
    </g>
    <g id="xtick_5">
     <g id="line2d_9">
      <path clip-path="url(#p475444189c)" d="M 227.505924 251.682812 
L 227.505924 23.638594 
" style="fill:none;stroke:#b0b0b0;stroke-linecap:square;stroke-width:0.8;"/>
     </g>
     <g id="line2d_10">
      <g>
       <use style="stroke:#000000;stroke-width:0.8;" x="227.505924" xlink:href="#m566556efa3" y="251.682812"/>
      </g>
     </g>
     <g id="text_5">
      <!-- 100 -->
      <defs>
       <path d="M 12.40625 8.296875 
L 28.515625 8.296875 
L 28.515625 63.921875 
L 10.984375 60.40625 
L 10.984375 69.390625 
L 28.421875 72.90625 
L 38.28125 72.90625 
L 38.28125 8.296875 
L 54.390625 8.296875 
L 54.390625 0 
L 12.40625 0 
z
" id="DejaVuSans-49"/>
      </defs>
      <g transform="translate(217.962174 266.28125)scale(0.1 -0.1)">
       <use xlink:href="#DejaVuSans-49"/>
       <use x="63.623047" xlink:href="#DejaVuSans-48"/>
       <use x="127.246094" xlink:href="#DejaVuSans-48"/>
      </g>
     </g>
    </g>
    <g id="xtick_6">
     <g id="line2d_11">
      <path clip-path="url(#p475444189c)" d="M 274.135921 251.682812 
L 274.135921 23.638594 
" style="fill:none;stroke:#b0b0b0;stroke-linecap:square;stroke-width:0.8;"/>
     </g>
     <g id="line2d_12">
      <g>
       <use style="stroke:#000000;stroke-width:0.8;" x="274.135921" xlink:href="#m566556efa3" y="251.682812"/>
      </g>
     </g>
     <g id="text_6">
      <!-- 125 -->
      <g transform="translate(264.592171 266.28125)scale(0.1 -0.1)">
       <use xlink:href="#DejaVuSans-49"/>
       <use x="63.623047" xlink:href="#DejaVuSans-50"/>
       <use x="127.246094" xlink:href="#DejaVuSans-53"/>
      </g>
     </g>
    </g>
    <g id="xtick_7">
     <g id="line2d_13">
      <path clip-path="url(#p475444189c)" d="M 320.765918 251.682812 
L 320.765918 23.638594 
" style="fill:none;stroke:#b0b0b0;stroke-linecap:square;stroke-width:0.8;"/>
     </g>
     <g id="line2d_14">
      <g>
       <use style="stroke:#000000;stroke-width:0.8;" x="320.765918" xlink:href="#m566556efa3" y="251.682812"/>
      </g>
     </g>
     <g id="text_7">
      <!-- 150 -->
      <g transform="translate(311.222168 266.28125)scale(0.1 -0.1)">
       <use xlink:href="#DejaVuSans-49"/>
       <use x="63.623047" xlink:href="#DejaVuSans-53"/>
       <use x="127.246094" xlink:href="#DejaVuSans-48"/>
      </g>
     </g>
    </g>
    <g id="xtick_8">
     <g id="line2d_15">
      <path clip-path="url(#p475444189c)" d="M 367.395914 251.682812 
L 367.395914 23.638594 
" style="fill:none;stroke:#b0b0b0;stroke-linecap:square;stroke-width:0.8;"/>
     </g>
     <g id="line2d_16">
      <g>
       <use style="stroke:#000000;stroke-width:0.8;" x="367.395914" xlink:href="#m566556efa3" y="251.682812"/>
      </g>
     </g>
     <g id="text_8">
      <!-- 175 -->
      <g transform="translate(357.852164 266.28125)scale(0.1 -0.1)">
       <use xlink:href="#DejaVuSans-49"/>
       <use x="63.623047" xlink:href="#DejaVuSans-55"/>
       <use x="127.246094" xlink:href="#DejaVuSans-53"/>
      </g>
     </g>
    </g>
    <g id="xtick_9">
     <g id="line2d_17">
      <path clip-path="url(#p475444189c)" d="M 414.025911 251.682812 
L 414.025911 23.638594 
" style="fill:none;stroke:#b0b0b0;stroke-linecap:square;stroke-width:0.8;"/>
     </g>
     <g id="line2d_18">
      <g>
       <use style="stroke:#000000;stroke-width:0.8;" x="414.025911" xlink:href="#m566556efa3" y="251.682812"/>
      </g>
     </g>
     <g id="text_9">
      <!-- 200 -->
      <g transform="translate(404.482161 266.28125)scale(0.1 -0.1)">
       <use xlink:href="#DejaVuSans-50"/>
       <use x="63.623047" xlink:href="#DejaVuSans-48"/>
       <use x="127.246094" xlink:href="#DejaVuSans-48"/>
      </g>
     </g>
    </g>
    <g id="text_10">
     <!-- Tiampo -->
     <defs>
      <path d="M -0.296875 72.90625 
L 61.375 72.90625 
L 61.375 64.59375 
L 35.5 64.59375 
L 35.5 0 
L 25.59375 0 
L 25.59375 64.59375 
L -0.296875 64.59375 
z
" id="DejaVuSans-84"/>
      <path d="M 9.421875 54.6875 
L 18.40625 54.6875 
L 18.40625 0 
L 9.421875 0 
z
M 9.421875 75.984375 
L 18.40625 75.984375 
L 18.40625 64.59375 
L 9.421875 64.59375 
z
" id="DejaVuSans-105"/>
      <path d="M 34.28125 27.484375 
Q 23.390625 27.484375 19.1875 25 
Q 14.984375 22.515625 14.984375 16.5 
Q 14.984375 11.71875 18.140625 8.90625 
Q 21.296875 6.109375 26.703125 6.109375 
Q 34.1875 6.109375 38.703125 11.40625 
Q 43.21875 16.703125 43.21875 25.484375 
L 43.21875 27.484375 
z
M 52.203125 31.203125 
L 52.203125 0 
L 43.21875 0 
L 43.21875 8.296875 
Q 40.140625 3.328125 35.546875 0.953125 
Q 30.953125 -1.421875 24.3125 -1.421875 
Q 15.921875 -1.421875 10.953125 3.296875 
Q 6 8.015625 6 15.921875 
Q 6 25.140625 12.171875 29.828125 
Q 18.359375 34.515625 30.609375 34.515625 
L 43.21875 34.515625 
L 43.21875 35.40625 
Q 43.21875 41.609375 39.140625 45 
Q 35.0625 48.390625 27.6875 48.390625 
Q 23 48.390625 18.546875 47.265625 
Q 14.109375 46.140625 10.015625 43.890625 
L 10.015625 52.203125 
Q 14.9375 54.109375 19.578125 55.046875 
Q 24.21875 56 28.609375 56 
Q 40.484375 56 46.34375 49.84375 
Q 52.203125 43.703125 52.203125 31.203125 
z
" id="DejaVuSans-97"/>
      <path d="M 52 44.1875 
Q 55.375 50.25 60.0625 53.125 
Q 64.75 56 71.09375 56 
Q 79.640625 56 84.28125 50.015625 
Q 88.921875 44.046875 88.921875 33.015625 
L 88.921875 0 
L 79.890625 0 
L 79.890625 32.71875 
Q 79.890625 40.578125 77.09375 44.375 
Q 74.3125 48.1875 68.609375 48.1875 
Q 61.625 48.1875 57.5625 43.546875 
Q 53.515625 38.921875 53.515625 30.90625 
L 53.515625 0 
L 44.484375 0 
L 44.484375 32.71875 
Q 44.484375 40.625 41.703125 44.40625 
Q 38.921875 48.1875 33.109375 48.1875 
Q 26.21875 48.1875 22.15625 43.53125 
Q 18.109375 38.875 18.109375 30.90625 
L 18.109375 0 
L 9.078125 0 
L 9.078125 54.6875 
L 18.109375 54.6875 
L 18.109375 46.1875 
Q 21.1875 51.21875 25.484375 53.609375 
Q 29.78125 56 35.6875 56 
Q 41.65625 56 45.828125 52.96875 
Q 50 49.953125 52 44.1875 
z
" id="DejaVuSans-109"/>
      <path d="M 18.109375 8.203125 
L 18.109375 -20.796875 
L 9.078125 -20.796875 
L 9.078125 54.6875 
L 18.109375 54.6875 
L 18.109375 46.390625 
Q 20.953125 51.265625 25.265625 53.625 
Q 29.59375 56 35.59375 56 
Q 45.5625 56 51.78125 48.09375 
Q 58.015625 40.1875 58.015625 27.296875 
Q 58.015625 14.40625 51.78125 6.484375 
Q 45.5625 -1.421875 35.59375 -1.421875 
Q 29.59375 -1.421875 25.265625 0.953125 
Q 20.953125 3.328125 18.109375 8.203125 
z
M 48.6875 27.296875 
Q 48.6875 37.203125 44.609375 42.84375 
Q 40.53125 48.484375 33.40625 48.484375 
Q 26.265625 48.484375 22.1875 42.84375 
Q 18.109375 37.203125 18.109375 27.296875 
Q 18.109375 17.390625 22.1875 11.75 
Q 26.265625 6.109375 33.40625 6.109375 
Q 40.53125 6.109375 44.609375 11.75 
Q 48.6875 17.390625 48.6875 27.296875 
z
" id="DejaVuSans-112"/>
      <path d="M 30.609375 48.390625 
Q 23.390625 48.390625 19.1875 42.75 
Q 14.984375 37.109375 14.984375 27.296875 
Q 14.984375 17.484375 19.15625 11.84375 
Q 23.34375 6.203125 30.609375 6.203125 
Q 37.796875 6.203125 41.984375 11.859375 
Q 46.1875 17.53125 46.1875 27.296875 
Q 46.1875 37.015625 41.984375 42.703125 
Q 37.796875 48.390625 30.609375 48.390625 
z
M 30.609375 56 
Q 42.328125 56 49.015625 48.375 
Q 55.71875 40.765625 55.71875 27.296875 
Q 55.71875 13.875 49.015625 6.21875 
Q 42.328125 -1.421875 30.609375 -1.421875 
Q 18.84375 -1.421875 12.171875 6.21875 
Q 5.515625 13.875 5.515625 27.296875 
Q 5.515625 40.765625 12.171875 48.375 
Q 18.84375 56 30.609375 56 
z
" id="DejaVuSans-111"/>
     </defs>
     <g transform="translate(210.87436 279.959375)scale(0.1 -0.1)">
      <use xlink:href="#DejaVuSans-84"/>
      <use x="61.037109" xlink:href="#DejaVuSans-105"/>
      <use x="88.820312" xlink:href="#DejaVuSans-97"/>
      <use x="150.099609" xlink:href="#DejaVuSans-109"/>
      <use x="247.511719" xlink:href="#DejaVuSans-112"/>
      <use x="310.988281" xlink:href="#DejaVuSans-111"/>
     </g>
    </g>
   </g>
   <g id="matplotlib.axis_2">
    <g id="ytick_1">
     <g id="line2d_19">
      <path clip-path="url(#p475444189c)" d="M 40.985938 251.682812 
L 417.979969 251.682812 
" style="fill:none;stroke:#b0b0b0;stroke-linecap:square;stroke-width:0.8;"/>
     </g>
     <g id="line2d_20">
      <defs>
       <path d="M 0 0 
L -3.5 0 
" id="m39863bd554" style="stroke:#000000;stroke-width:0.8;"/>
      </defs>
      <g>
       <use style="stroke:#000000;stroke-width:0.8;" x="40.985938" xlink:href="#m39863bd554" y="251.682812"/>
      </g>
     </g>
     <g id="text_11">
      <!-- 0.0 -->
      <defs>
       <path d="M 10.6875 12.40625 
L 21 12.40625 
L 21 0 
L 10.6875 0 
z
" id="DejaVuSans-46"/>
      </defs>
      <g transform="translate(18.082813 255.482031)scale(0.1 -0.1)">
       <use xlink:href="#DejaVuSans-48"/>
       <use x="63.623047" xlink:href="#DejaVuSans-46"/>
       <use x="95.410156" xlink:href="#DejaVuSans-48"/>
      </g>
     </g>
    </g>
    <g id="ytick_2">
     <g id="line2d_21">
      <path clip-path="url(#p475444189c)" d="M 40.985938 208.924521 
L 417.979969 208.924521 
" style="fill:none;stroke:#b0b0b0;stroke-linecap:square;stroke-width:0.8;"/>
     </g>
     <g id="line2d_22">
      <g>
       <use style="stroke:#000000;stroke-width:0.8;" x="40.985938" xlink:href="#m39863bd554" y="208.924521"/>
      </g>
     </g>
     <g id="text_12">
      <!-- 0.5 -->
      <g transform="translate(18.082813 212.72374)scale(0.1 -0.1)">
       <use xlink:href="#DejaVuSans-48"/>
       <use x="63.623047" xlink:href="#DejaVuSans-46"/>
       <use x="95.410156" xlink:href="#DejaVuSans-53"/>
      </g>
     </g>
    </g>
    <g id="ytick_3">
     <g id="line2d_23">
      <path clip-path="url(#p475444189c)" d="M 40.985938 166.16623 
L 417.979969 166.16623 
" style="fill:none;stroke:#b0b0b0;stroke-linecap:square;stroke-width:0.8;"/>
     </g>
     <g id="line2d_24">
      <g>
       <use style="stroke:#000000;stroke-width:0.8;" x="40.985938" xlink:href="#m39863bd554" y="166.16623"/>
      </g>
     </g>
     <g id="text_13">
      <!-- 1.0 -->
      <g transform="translate(18.082813 169.965449)scale(0.1 -0.1)">
       <use xlink:href="#DejaVuSans-49"/>
       <use x="63.623047" xlink:href="#DejaVuSans-46"/>
       <use x="95.410156" xlink:href="#DejaVuSans-48"/>
      </g>
     </g>
    </g>
    <g id="ytick_4">
     <g id="line2d_25">
      <path clip-path="url(#p475444189c)" d="M 40.985938 123.407939 
L 417.979969 123.407939 
" style="fill:none;stroke:#b0b0b0;stroke-linecap:square;stroke-width:0.8;"/>
     </g>
     <g id="line2d_26">
      <g>
       <use style="stroke:#000000;stroke-width:0.8;" x="40.985938" xlink:href="#m39863bd554" y="123.407939"/>
      </g>
     </g>
     <g id="text_14">
      <!-- 1.5 -->
      <g transform="translate(18.082813 127.207158)scale(0.1 -0.1)">
       <use xlink:href="#DejaVuSans-49"/>
       <use x="63.623047" xlink:href="#DejaVuSans-46"/>
       <use x="95.410156" xlink:href="#DejaVuSans-53"/>
      </g>
     </g>
    </g>
    <g id="ytick_5">
     <g id="line2d_27">
      <path clip-path="url(#p475444189c)" d="M 40.985938 80.649648 
L 417.979969 80.649648 
" style="fill:none;stroke:#b0b0b0;stroke-linecap:square;stroke-width:0.8;"/>
     </g>
     <g id="line2d_28">
      <g>
       <use style="stroke:#000000;stroke-width:0.8;" x="40.985938" xlink:href="#m39863bd554" y="80.649648"/>
      </g>
     </g>
     <g id="text_15">
      <!-- 2.0 -->
      <g transform="translate(18.082813 84.448867)scale(0.1 -0.1)">
       <use xlink:href="#DejaVuSans-50"/>
       <use x="63.623047" xlink:href="#DejaVuSans-46"/>
       <use x="95.410156" xlink:href="#DejaVuSans-48"/>
      </g>
     </g>
    </g>
    <g id="ytick_6">
     <g id="line2d_29">
      <path clip-path="url(#p475444189c)" d="M 40.985938 37.891357 
L 417.979969 37.891357 
" style="fill:none;stroke:#b0b0b0;stroke-linecap:square;stroke-width:0.8;"/>
     </g>
     <g id="line2d_30">
      <g>
       <use style="stroke:#000000;stroke-width:0.8;" x="40.985938" xlink:href="#m39863bd554" y="37.891357"/>
      </g>
     </g>
     <g id="text_16">
      <!-- 2.5 -->
      <g transform="translate(18.082813 41.690576)scale(0.1 -0.1)">
       <use xlink:href="#DejaVuSans-50"/>
       <use x="63.623047" xlink:href="#DejaVuSans-46"/>
       <use x="95.410156" xlink:href="#DejaVuSans-53"/>
      </g>
     </g>
    </g>
    <g id="text_17">
     <!-- Paquetes -->
     <defs>
      <path d="M 19.671875 64.796875 
L 19.671875 37.40625 
L 32.078125 37.40625 
Q 38.96875 37.40625 42.71875 40.96875 
Q 46.484375 44.53125 46.484375 51.125 
Q 46.484375 57.671875 42.71875 61.234375 
Q 38.96875 64.796875 32.078125 64.796875 
z
M 9.8125 72.90625 
L 32.078125 72.90625 
Q 44.34375 72.90625 50.609375 67.359375 
Q 56.890625 61.8125 56.890625 51.125 
Q 56.890625 40.328125 50.609375 34.8125 
Q 44.34375 29.296875 32.078125 29.296875 
L 19.671875 29.296875 
L 19.671875 0 
L 9.8125 0 
z
" id="DejaVuSans-80"/>
      <path d="M 14.796875 27.296875 
Q 14.796875 17.390625 18.875 11.75 
Q 22.953125 6.109375 30.078125 6.109375 
Q 37.203125 6.109375 41.296875 11.75 
Q 45.40625 17.390625 45.40625 27.296875 
Q 45.40625 37.203125 41.296875 42.84375 
Q 37.203125 48.484375 30.078125 48.484375 
Q 22.953125 48.484375 18.875 42.84375 
Q 14.796875 37.203125 14.796875 27.296875 
z
M 45.40625 8.203125 
Q 42.578125 3.328125 38.25 0.953125 
Q 33.9375 -1.421875 27.875 -1.421875 
Q 17.96875 -1.421875 11.734375 6.484375 
Q 5.515625 14.40625 5.515625 27.296875 
Q 5.515625 40.1875 11.734375 48.09375 
Q 17.96875 56 27.875 56 
Q 33.9375 56 38.25 53.625 
Q 42.578125 51.265625 45.40625 46.390625 
L 45.40625 54.6875 
L 54.390625 54.6875 
L 54.390625 -20.796875 
L 45.40625 -20.796875 
z
" id="DejaVuSans-113"/>
      <path d="M 8.5 21.578125 
L 8.5 54.6875 
L 17.484375 54.6875 
L 17.484375 21.921875 
Q 17.484375 14.15625 20.5 10.265625 
Q 23.53125 6.390625 29.59375 6.390625 
Q 36.859375 6.390625 41.078125 11.03125 
Q 45.3125 15.671875 45.3125 23.6875 
L 45.3125 54.6875 
L 54.296875 54.6875 
L 54.296875 0 
L 45.3125 0 
L 45.3125 8.40625 
Q 42.046875 3.421875 37.71875 1 
Q 33.40625 -1.421875 27.6875 -1.421875 
Q 18.265625 -1.421875 13.375 4.4375 
Q 8.5 10.296875 8.5 21.578125 
z
M 31.109375 56 
z
" id="DejaVuSans-117"/>
      <path d="M 56.203125 29.59375 
L 56.203125 25.203125 
L 14.890625 25.203125 
Q 15.484375 15.921875 20.484375 11.0625 
Q 25.484375 6.203125 34.421875 6.203125 
Q 39.59375 6.203125 44.453125 7.46875 
Q 49.3125 8.734375 54.109375 11.28125 
L 54.109375 2.78125 
Q 49.265625 0.734375 44.1875 -0.34375 
Q 39.109375 -1.421875 33.890625 -1.421875 
Q 20.796875 -1.421875 13.15625 6.1875 
Q 5.515625 13.8125 5.515625 26.8125 
Q 5.515625 40.234375 12.765625 48.109375 
Q 20.015625 56 32.328125 56 
Q 43.359375 56 49.78125 48.890625 
Q 56.203125 41.796875 56.203125 29.59375 
z
M 47.21875 32.234375 
Q 47.125 39.59375 43.09375 43.984375 
Q 39.0625 48.390625 32.421875 48.390625 
Q 24.90625 48.390625 20.390625 44.140625 
Q 15.875 39.890625 15.1875 32.171875 
z
" id="DejaVuSans-101"/>
      <path d="M 18.3125 70.21875 
L 18.3125 54.6875 
L 36.8125 54.6875 
L 36.8125 47.703125 
L 18.3125 47.703125 
L 18.3125 18.015625 
Q 18.3125 11.328125 20.140625 9.421875 
Q 21.96875 7.515625 27.59375 7.515625 
L 36.8125 7.515625 
L 36.8125 0 
L 27.59375 0 
Q 17.1875 0 13.234375 3.875 
Q 9.28125 7.765625 9.28125 18.015625 
L 9.28125 47.703125 
L 2.6875 47.703125 
L 2.6875 54.6875 
L 9.28125 54.6875 
L 9.28125 70.21875 
z
" id="DejaVuSans-116"/>
      <path d="M 44.28125 53.078125 
L 44.28125 44.578125 
Q 40.484375 46.53125 36.375 47.5 
Q 32.28125 48.484375 27.875 48.484375 
Q 21.1875 48.484375 17.84375 46.4375 
Q 14.5 44.390625 14.5 40.28125 
Q 14.5 37.15625 16.890625 35.375 
Q 19.28125 33.59375 26.515625 31.984375 
L 29.59375 31.296875 
Q 39.15625 29.25 43.1875 25.515625 
Q 47.21875 21.78125 47.21875 15.09375 
Q 47.21875 7.46875 41.1875 3.015625 
Q 35.15625 -1.421875 24.609375 -1.421875 
Q 20.21875 -1.421875 15.453125 -0.5625 
Q 10.6875 0.296875 5.421875 2 
L 5.421875 11.28125 
Q 10.40625 8.6875 15.234375 7.390625 
Q 20.0625 6.109375 24.8125 6.109375 
Q 31.15625 6.109375 34.5625 8.28125 
Q 37.984375 10.453125 37.984375 14.40625 
Q 37.984375 18.0625 35.515625 20.015625 
Q 33.0625 21.96875 24.703125 23.78125 
L 21.578125 24.515625 
Q 13.234375 26.265625 9.515625 29.90625 
Q 5.8125 33.546875 5.8125 39.890625 
Q 5.8125 47.609375 11.28125 51.796875 
Q 16.75 56 26.8125 56 
Q 31.78125 56 36.171875 55.265625 
Q 40.578125 54.546875 44.28125 53.078125 
z
" id="DejaVuSans-115"/>
     </defs>
     <g transform="translate(12.003125 160.797422)rotate(-90)scale(0.1 -0.1)">
      <use xlink:href="#DejaVuSans-80"/>
      <use x="60.240234" xlink:href="#DejaVuSans-97"/>
      <use x="121.519531" xlink:href="#DejaVuSans-113"/>
      <use x="184.996094" xlink:href="#DejaVuSans-117"/>
      <use x="248.375" xlink:href="#DejaVuSans-101"/>
      <use x="309.898438" xlink:href="#DejaVuSans-116"/>
      <use x="349.107422" xlink:href="#DejaVuSans-101"/>
      <use x="410.630859" xlink:href="#DejaVuSans-115"/>
     </g>
    </g>
   </g>
   <g id="line2d_31">
    <path clip-path="url(#p475444189c)" d="M 42.890446 251.682812 
L 42.890446 166.16623 
L 43.263486 251.682812 
L 44.56644 251.682812 
L 44.56644 166.16623 
L 44.93948 251.682812 
L 46.909002 251.682812 
L 46.909002 166.16623 
L 47.282042 251.682812 
L 50.377536 251.682812 
L 50.377536 166.16623 
L 50.750576 251.682812 
L 52.099531 251.682812 
L 52.099531 166.16623 
L 52.472571 251.682812 
L 55.739553 251.682812 
L 55.739553 166.16623 
L 56.112593 251.682812 
L 57.207841 251.682812 
L 57.207841 166.16623 
L 57.580881 251.682812 
L 60.712484 251.682812 
L 60.712484 166.16623 
L 61.085524 251.682812 
L 61.7403 251.682812 
L 61.7403 166.16623 
L 62.11334 251.682812 
L 63.562612 251.682812 
L 63.562612 166.16623 
L 63.935652 251.682812 
L 65.498987 251.682812 
L 65.498987 166.16623 
L 65.872027 251.682812 
L 66.403848 251.682812 
L 66.403848 166.16623 
L 66.776888 251.682812 
L 67.477306 251.682812 
L 67.477306 166.16623 
L 67.850346 251.682812 
L 68.136019 251.682812 
L 68.136019 166.16623 
L 68.509058 251.682812 
L 72.283336 251.682812 
L 72.283336 166.16623 
L 72.516486 251.682812 
L 72.656376 166.16623 
L 73.029416 251.682812 
L 78.575209 251.682812 
L 78.575209 166.16623 
L 78.948249 251.682812 
L 79.169007 251.682812 
L 79.169007 166.16623 
L 79.542047 251.682812 
L 80.071021 251.682812 
L 80.071021 166.16623 
L 80.444061 251.682812 
L 81.282369 251.682812 
L 81.282369 166.16623 
L 81.655409 251.682812 
L 84.208673 251.682812 
L 84.208673 166.16623 
L 84.581713 251.682812 
L 87.327682 251.682812 
L 87.327682 166.16623 
L 87.700722 251.682812 
L 88.731569 251.682812 
L 88.731569 166.16623 
L 89.104609 251.682812 
L 89.951191 251.682812 
L 89.951191 166.16623 
L 90.324231 251.682812 
L 91.516901 251.682812 
L 91.516901 166.16623 
L 91.889941 251.682812 
L 92.447397 251.682812 
L 92.447397 166.16623 
L 92.820437 251.682812 
L 97.29366 251.682812 
L 97.29366 166.16623 
L 97.6667 251.682812 
L 100.66663 251.682812 
L 100.66663 166.16623 
L 100.89978 251.682812 
L 101.03967 166.16623 
L 101.41271 251.682812 
L 101.571743 251.682812 
L 101.571743 166.16623 
L 101.804893 251.682812 
L 101.944783 166.16623 
L 102.317823 251.682812 
L 103.690188 251.682812 
L 103.690188 166.16623 
L 103.923338 251.682812 
L 104.063228 166.16623 
L 104.436268 251.682812 
L 104.584875 251.682812 
L 104.584875 166.16623 
L 104.957915 251.682812 
L 107.918897 251.682812 
L 107.918897 166.16623 
L 108.291937 251.682812 
L 113.794594 251.682812 
L 113.794594 166.16623 
L 114.167634 251.682812 
L 116.603182 251.682812 
L 116.603182 166.16623 
L 116.885258 251.682812 
L 116.976222 166.16623 
L 117.349262 251.682812 
L 120.690852 251.682812 
L 120.690852 166.16623 
L 121.063892 251.682812 
L 124.497524 251.682812 
L 124.497524 166.16623 
L 124.870564 251.682812 
L 131.669631 251.682812 
L 131.669631 166.16623 
L 132.042671 251.682812 
L 132.866547 251.682812 
L 132.866547 166.16623 
L 133.239587 251.682812 
L 135.86064 251.682812 
L 135.86064 166.16623 
L 136.23368 251.682812 
L 138.871076 251.682812 
L 138.871076 166.16623 
L 139.244116 251.682812 
L 140.025503 251.682812 
L 140.025503 166.16623 
L 140.398543 251.682812 
L 141.396359 251.682812 
L 141.396359 166.16623 
L 141.769399 251.682812 
L 144.225002 251.682812 
L 144.225002 166.16623 
L 144.598041 251.682812 
L 146.343755 251.682812 
L 146.343755 166.16623 
L 146.578536 251.682812 
L 146.716795 166.16623 
L 147.089835 251.682812 
L 148.95709 251.682812 
L 148.95709 166.16623 
L 149.33013 251.682812 
L 150.862265 251.682812 
L 150.862265 166.16623 
L 151.235305 251.682812 
L 152.489318 251.682812 
L 152.489318 166.16623 
L 152.77792 251.682812 
L 152.862358 166.16623 
L 153.235398 251.682812 
L 154.215681 251.682812 
L 154.215681 166.16623 
L 154.588721 251.682812 
L 159.614353 251.682812 
L 159.614353 166.16623 
L 159.987393 251.682812 
L 162.265483 251.682812 
L 162.265483 166.16623 
L 162.638522 251.682812 
L 163.641678 251.682812 
L 163.641678 166.16623 
L 163.874828 251.682812 
L 164.014718 166.16623 
L 164.387758 251.682812 
L 164.849417 251.682812 
L 164.849417 166.16623 
L 165.222457 251.682812 
L 166.046306 251.682812 
L 166.046306 166.16623 
L 166.419346 251.682812 
L 166.619445 251.682812 
L 166.619445 166.16623 
L 167.004055 251.682812 
L 167.004055 166.16623 
L 167.377095 251.682812 
L 169.779948 251.682812 
L 169.779948 166.16623 
L 170.152988 251.682812 
L 172.270531 251.682812 
L 172.270531 166.16623 
L 172.643571 251.682812 
L 173.406592 251.682812 
L 173.406592 166.16623 
L 173.861791 251.682812 
L 173.861791 166.16623 
L 174.234831 251.682812 
L 175.429183 251.682812 
L 175.429183 166.16623 
L 175.700156 251.682812 
L 175.802223 166.16623 
L 175.933306 251.682812 
L 176.175263 166.16623 
L 176.466267 251.682812 
L 176.548303 166.16623 
L 176.921343 251.682812 
L 178.259434 251.682812 
L 178.259434 166.16623 
L 178.561851 251.682812 
L 178.632474 166.16623 
L 179.005514 251.682812 
L 180.328189 251.682812 
L 180.328189 166.16623 
L 180.797179 251.682812 
L 180.797179 166.16623 
L 181.170219 251.682812 
L 182.586928 251.682812 
L 182.586928 166.16623 
L 182.959968 251.682812 
L 183.498184 251.682812 
L 183.498184 166.16623 
L 183.871224 251.682812 
L 188.866071 251.682812 
L 188.866071 166.16623 
L 189.239111 251.682812 
L 193.20996 251.682812 
L 193.20996 166.16623 
L 193.583 251.682812 
L 195.345873 251.682812 
L 195.345873 166.16623 
L 195.718913 251.682812 
L 196.460789 251.682812 
L 196.460789 166.16623 
L 196.833829 251.682812 
L 197.29177 251.682812 
L 197.29177 166.16623 
L 197.66481 251.682812 
L 199.062767 251.682812 
L 199.062767 166.16623 
L 199.435807 251.682812 
L 200.134385 251.682812 
L 200.134385 166.16623 
L 200.507425 251.682812 
L 204.473494 251.682812 
L 204.473494 166.16623 
L 204.846534 251.682812 
L 206.704474 251.682812 
L 206.704474 166.16623 
L 206.937624 251.682812 
L 207.077514 166.16623 
L 207.170774 251.682812 
L 207.450554 166.16623 
L 207.823594 251.682812 
L 213.543958 251.682812 
L 213.543958 166.16623 
L 213.916998 251.682812 
L 215.593649 251.682812 
L 215.593649 166.16623 
L 215.966689 251.682812 
L 217.568586 251.682812 
L 217.568586 166.16623 
L 217.941626 251.682812 
L 219.640072 251.682812 
L 219.640072 166.16623 
L 219.989659 251.682812 
L 220.013112 166.16623 
L 220.430232 251.682812 
L 220.430232 166.16623 
L 220.803272 251.682812 
L 221.257269 251.682812 
L 221.257269 166.16623 
L 221.51472 251.682812 
L 221.630309 166.16623 
L 222.003349 251.682812 
L 224.105563 251.682812 
L 224.105563 166.16623 
L 224.478603 251.682812 
L 224.812402 251.682812 
L 224.812402 166.16623 
L 225.185442 251.682812 
L 226.558344 251.682812 
L 226.558344 166.16623 
L 226.931384 251.682812 
L 227.401605 251.682812 
L 227.401605 166.16623 
L 227.774645 251.682812 
L 228.134839 251.682812 
L 228.134839 166.16623 
L 228.507879 251.682812 
L 229.709865 251.682812 
L 229.709865 166.16623 
L 229.943015 251.682812 
L 230.082905 166.16623 
L 230.455945 251.682812 
L 230.859775 251.682812 
L 230.859775 166.16623 
L 231.232815 251.682812 
L 232.735925 251.682812 
L 232.735925 166.16623 
L 233.108965 251.682812 
L 241.044452 251.682812 
L 241.044452 166.16623 
L 241.417492 251.682812 
L 246.999936 251.682812 
L 246.999936 166.16623 
L 247.233086 251.682812 
L 247.372976 166.16623 
L 247.746016 251.682812 
L 249.173755 251.682812 
L 249.173755 166.16623 
L 249.610774 251.682812 
L 249.610774 166.16623 
L 249.983814 251.682812 
L 251.490931 251.682812 
L 251.490931 166.16623 
L 251.819045 251.682812 
L 251.863971 166.16623 
L 252.237011 251.682812 
L 261.816703 251.682812 
L 261.816703 166.16623 
L 262.189743 251.682812 
L 263.79147 251.682812 
L 263.79147 166.16623 
L 264.16451 251.682812 
L 265.417768 251.682812 
L 265.417768 166.16623 
L 265.790808 251.682812 
L 265.962556 251.682812 
L 265.962556 166.16623 
L 266.335596 251.682812 
L 266.960559 251.682812 
L 266.960559 166.16623 
L 267.333599 251.682812 
L 268.131795 251.682812 
L 268.131795 166.16623 
L 268.504835 251.682812 
L 269.332576 251.682812 
L 269.332576 166.16623 
L 269.705615 251.682812 
L 269.855348 251.682812 
L 269.855348 166.16623 
L 270.228388 251.682812 
L 271.677395 251.682812 
L 271.677395 166.16623 
L 272.000312 251.682812 
L 272.050435 166.16623 
L 272.423475 251.682812 
L 272.769709 251.682812 
L 272.769709 166.16623 
L 273.002859 251.682812 
L 273.142749 166.16623 
L 273.515789 251.682812 
L 275.082788 251.682812 
L 275.082788 166.16623 
L 275.455828 251.682812 
L 277.074956 251.682812 
L 277.074956 166.16623 
L 277.447996 251.682812 
L 277.786634 251.682812 
L 277.786634 166.16623 
L 278.064012 251.682812 
L 278.159674 166.16623 
L 278.532714 251.682812 
L 280.874188 251.682812 
L 280.874188 166.16623 
L 281.282444 251.682812 
L 281.282444 166.16623 
L 281.655484 251.682812 
L 286.85415 251.682812 
L 286.85415 166.16623 
L 287.22719 251.682812 
L 287.712168 251.682812 
L 287.712168 166.16623 
L 288.085208 251.682812 
L 289.738278 251.682812 
L 289.738278 166.16623 
L 290.111318 251.682812 
L 292.94704 251.682812 
L 292.94704 166.16623 
L 293.18019 251.682812 
L 293.32008 166.16623 
L 293.41334 251.682812 
L 293.69312 166.16623 
L 294.06616 251.682812 
L 294.981808 251.682812 
L 294.981808 166.16623 
L 295.354848 251.682812 
L 298.376134 251.682812 
L 298.376134 166.16623 
L 298.749174 251.682812 
L 300.464812 251.682812 
L 300.464812 166.16623 
L 300.697962 251.682812 
L 300.837852 166.16623 
L 301.210892 251.682812 
L 307.318718 251.682812 
L 307.318718 166.16623 
L 307.691758 251.682812 
L 314.311411 251.682812 
L 314.311411 166.16623 
L 314.684451 251.682812 
L 318.238256 251.682812 
L 318.238256 166.16623 
L 318.611296 251.682812 
L 319.41769 251.682812 
L 319.41769 166.16623 
L 319.79073 251.682812 
L 320.746801 251.682812 
L 320.746801 166.16623 
L 321.119841 251.682812 
L 327.763548 251.682812 
L 327.763548 166.16623 
L 327.996698 251.682812 
L 328.136588 166.16623 
L 328.509628 251.682812 
L 329.602272 251.682812 
L 329.602272 166.16623 
L 329.975312 251.682812 
L 330.721293 251.682812 
L 330.721293 166.16623 
L 331.094333 251.682812 
L 333.228579 251.682812 
L 333.228579 166.16623 
L 333.461729 251.682812 
L 333.601619 166.16623 
L 333.694879 251.682812 
L 333.974659 166.16623 
L 334.427986 251.682812 
L 334.427986 166.16623 
L 334.801026 251.682812 
L 335.047997 251.682812 
L 335.047997 166.16623 
L 335.421037 251.682812 
L 342.306553 251.682812 
L 342.306553 166.16623 
L 342.545405 251.682812 
L 342.679593 166.16623 
L 343.052633 251.682812 
L 343.376201 251.682812 
L 343.376201 166.16623 
L 343.749241 251.682812 
L 344.031215 251.682812 
L 344.031215 166.16623 
L 344.404255 251.682812 
L 345.254126 251.682812 
L 345.254126 166.16623 
L 345.489866 251.682812 
L 345.627166 166.16623 
L 346.000206 251.682812 
L 347.666319 251.682812 
L 347.666319 166.16623 
L 348.039359 251.682812 
L 348.380132 251.682812 
L 348.380132 166.16623 
L 348.753172 251.682812 
L 352.342259 251.682812 
L 352.342259 166.16623 
L 352.715299 251.682812 
L 353.339926 251.682812 
L 353.339926 166.16623 
L 353.712965 251.682812 
L 358.010221 251.682812 
L 358.010221 166.16623 
L 358.243371 251.682812 
L 358.383261 166.16623 
L 358.589726 251.682812 
L 358.756301 166.16623 
L 359.129341 251.682812 
L 360.78915 251.682812 
L 360.78915 166.16623 
L 361.16219 251.682812 
L 362.342569 251.682812 
L 362.342569 166.16623 
L 362.715609 251.682812 
L 363.902058 251.682812 
L 363.902058 166.16623 
L 364.275098 251.682812 
L 367.638502 251.682812 
L 367.638502 166.16623 
L 368.011542 251.682812 
L 368.213758 251.682812 
L 368.213758 166.16623 
L 368.586798 251.682812 
L 369.540377 251.682812 
L 369.540377 166.16623 
L 369.913417 251.682812 
L 370.922041 251.682812 
L 370.922041 166.16623 
L 371.295081 251.682812 
L 375.558149 251.682812 
L 375.558149 166.16623 
L 375.791299 251.682812 
L 375.931189 166.16623 
L 376.304229 251.682812 
L 380.480327 251.682812 
L 380.480327 166.16623 
L 380.853367 251.682812 
L 382.080474 251.682812 
L 382.080474 166.16623 
L 382.313624 251.682812 
L 382.453514 166.16623 
L 382.826554 251.682812 
L 387.18371 251.682812 
L 387.18371 166.16623 
L 387.55675 251.682812 
L 387.790535 251.682812 
L 387.790535 166.16623 
L 388.163575 251.682812 
L 388.505951 251.682812 
L 388.505951 166.16623 
L 388.739101 251.682812 
L 388.878991 166.16623 
L 389.252031 251.682812 
L 390.576783 251.682812 
L 390.576783 166.16623 
L 390.949823 251.682812 
L 394.022418 251.682812 
L 394.022418 166.16623 
L 394.286028 251.682812 
L 394.395458 166.16623 
L 394.768498 251.682812 
L 396.229158 251.682812 
L 396.229158 166.16623 
L 396.602198 251.682812 
L 398.579186 251.682812 
L 398.579186 166.16623 
L 398.952226 251.682812 
L 402.013546 251.682812 
L 402.013546 166.16623 
L 402.386586 251.682812 
L 402.650799 251.682812 
L 402.650799 166.16623 
L 403.023839 251.682812 
L 403.224381 251.682812 
L 403.224381 166.16623 
L 403.601805 251.682812 
L 403.601805 166.16623 
L 403.974845 251.682812 
L 404.547835 251.682812 
L 404.547835 166.16623 
L 404.920875 251.682812 
L 406.195047 251.682812 
L 406.195047 166.16623 
L 406.568087 251.682812 
L 407.696155 251.682812 
L 407.696155 166.16623 
L 407.929305 251.682812 
L 408.069195 166.16623 
L 408.162455 251.682812 
L 408.442235 166.16623 
L 408.815275 251.682812 
L 411.363708 251.682812 
L 411.363708 166.16623 
L 411.736748 251.682812 
L 412.224929 251.682812 
L 412.224929 166.16623 
L 412.458079 251.682812 
L 412.597969 166.16623 
L 412.691229 251.682812 
L 412.971009 166.16623 
L 413.344048 251.682812 
L 413.344048 251.682812 
" style="fill:none;stroke:#1f77b4;stroke-linecap:square;stroke-width:1.5;"/>
   </g>
   <g id="line2d_32">
    <path clip-path="url(#p475444189c)" d="M 42.470403 251.682812 
L 42.470403 166.16623 
L 42.656923 251.682812 
L 44.146397 251.682812 
L 44.146397 166.16623 
L 44.332917 251.682812 
L 46.488959 251.682812 
L 46.488959 166.16623 
L 46.675479 251.682812 
L 49.957493 251.682812 
L 49.957493 166.16623 
L 50.144013 251.682812 
L 51.679488 251.682812 
L 51.679488 166.16623 
L 51.866008 251.682812 
L 55.31951 251.682812 
L 55.31951 166.16623 
L 55.50603 251.682812 
L 56.787798 251.682812 
L 56.787798 166.16623 
L 56.974318 251.682812 
L 60.292441 251.682812 
L 60.292441 166.16623 
L 60.478961 251.682812 
L 61.320257 251.682812 
L 61.320257 166.16623 
L 61.506777 251.682812 
L 63.142569 251.682812 
L 63.142569 166.16623 
L 63.329089 251.682812 
L 65.078944 251.682812 
L 65.078944 166.16623 
L 65.265464 251.682812 
L 65.983805 251.682812 
L 65.983805 166.16623 
L 66.170325 251.682812 
L 67.057263 251.682812 
L 67.057263 166.16623 
L 67.243783 251.682812 
L 67.715976 251.682812 
L 67.715976 166.16623 
L 67.902495 251.682812 
L 71.863293 251.682812 
L 71.863293 166.16623 
L 71.972192 251.682812 
L 72.049813 166.16623 
L 72.236333 251.682812 
L 78.155166 251.682812 
L 78.155166 166.16623 
L 78.341686 251.682812 
L 78.748964 251.682812 
L 78.748964 166.16623 
L 78.935484 251.682812 
L 79.650978 251.682812 
L 79.650978 166.16623 
L 79.837498 251.682812 
L 80.862326 251.682812 
L 80.862326 166.16623 
L 81.048846 251.682812 
L 83.78863 251.682812 
L 83.78863 166.16623 
L 83.97515 251.682812 
L 86.907639 251.682812 
L 86.907639 166.16623 
L 87.094159 251.682812 
L 88.311526 251.682812 
L 88.311526 166.16623 
L 88.498046 251.682812 
L 89.531148 251.682812 
L 89.531148 166.16623 
L 89.717668 251.682812 
L 91.096858 251.682812 
L 91.096858 166.16623 
L 91.283378 251.682812 
L 92.027354 251.682812 
L 92.027354 166.16623 
L 92.213874 251.682812 
L 96.873617 251.682812 
L 96.873617 166.16623 
L 97.060137 251.682812 
L 100.246587 251.682812 
L 100.246587 166.16623 
L 100.384025 251.682812 
L 100.433107 166.16623 
L 100.619627 251.682812 
L 101.1517 251.682812 
L 101.1517 166.16623 
L 101.321734 251.682812 
L 101.33822 166.16623 
L 101.52474 251.682812 
L 103.270145 251.682812 
L 103.270145 166.16623 
L 103.308243 251.682812 
L 103.456665 166.16623 
L 103.643185 251.682812 
L 104.164832 251.682812 
L 104.164832 166.16623 
L 104.351352 251.682812 
L 107.498854 251.682812 
L 107.498854 166.16623 
L 107.685374 251.682812 
L 113.374551 251.682812 
L 113.374551 166.16623 
L 113.561071 251.682812 
L 116.183139 251.682812 
L 116.183139 166.16623 
L 116.465215 251.682812 
L 116.465215 166.16623 
L 116.651735 251.682812 
L 120.270809 251.682812 
L 120.270809 166.16623 
L 120.457329 251.682812 
L 124.077481 251.682812 
L 124.077481 166.16623 
L 124.264001 251.682812 
L 131.249588 251.682812 
L 131.249588 166.16623 
L 131.436108 251.682812 
L 132.446504 251.682812 
L 132.446504 166.16623 
L 132.633024 251.682812 
L 135.440597 251.682812 
L 135.440597 166.16623 
L 135.627117 251.682812 
L 138.451033 251.682812 
L 138.451033 166.16623 
L 138.637553 251.682812 
L 139.60546 251.682812 
L 139.60546 166.16623 
L 139.79198 251.682812 
L 140.976316 251.682812 
L 140.976316 166.16623 
L 141.162836 251.682812 
L 143.804959 251.682812 
L 143.804959 166.16623 
L 143.991478 251.682812 
L 145.923712 251.682812 
L 145.923712 166.16623 
L 146.158493 251.682812 
L 146.158493 166.16623 
L 146.345013 251.682812 
L 148.537047 251.682812 
L 148.537047 166.16623 
L 148.723567 251.682812 
L 150.442222 251.682812 
L 150.442222 166.16623 
L 150.628742 251.682812 
L 152.069275 251.682812 
L 152.069275 166.16623 
L 152.357877 251.682812 
L 152.357877 166.16623 
L 152.544397 251.682812 
L 153.795638 251.682812 
L 153.795638 166.16623 
L 153.982158 251.682812 
L 159.19431 251.682812 
L 159.19431 166.16623 
L 159.38083 251.682812 
L 161.84544 251.682812 
L 161.84544 166.16623 
L 162.031959 251.682812 
L 163.221635 251.682812 
L 163.221635 166.16623 
L 163.430437 251.682812 
L 163.430437 166.16623 
L 163.616957 251.682812 
L 164.429374 251.682812 
L 164.429374 166.16623 
L 164.615894 251.682812 
L 165.626263 251.682812 
L 165.626263 166.16623 
L 165.812783 251.682812 
L 166.199402 251.682812 
L 166.199402 166.16623 
L 166.385922 251.682812 
L 166.584012 251.682812 
L 166.584012 166.16623 
L 166.770532 251.682812 
L 169.359905 251.682812 
L 169.359905 166.16623 
L 169.546425 251.682812 
L 171.850488 251.682812 
L 171.850488 166.16623 
L 172.037008 251.682812 
L 172.986549 251.682812 
L 172.986549 166.16623 
L 173.173069 251.682812 
L 173.441748 251.682812 
L 173.441748 166.16623 
L 173.628268 251.682812 
L 175.00914 251.682812 
L 175.00914 166.16623 
L 175.280113 251.682812 
L 175.280113 166.16623 
L 175.315493 251.682812 
L 175.466633 166.16623 
L 175.653153 251.682812 
L 176.046224 251.682812 
L 176.046224 166.16623 
L 176.232744 251.682812 
L 177.839391 251.682812 
L 177.839391 166.16623 
L 178.025911 251.682812 
L 178.141808 251.682812 
L 178.141808 166.16623 
L 178.328328 251.682812 
L 179.908146 251.682812 
L 179.908146 166.16623 
L 180.094666 251.682812 
L 180.377136 251.682812 
L 180.377136 166.16623 
L 180.563656 251.682812 
L 182.166885 251.682812 
L 182.166885 166.16623 
L 182.353405 251.682812 
L 183.078141 251.682812 
L 183.078141 166.16623 
L 183.264661 251.682812 
L 188.446028 251.682812 
L 188.446028 166.16623 
L 188.632548 251.682812 
L 192.789917 251.682812 
L 192.789917 166.16623 
L 192.976437 251.682812 
L 194.92583 251.682812 
L 194.92583 166.16623 
L 195.11235 251.682812 
L 196.040746 251.682812 
L 196.040746 166.16623 
L 196.227266 251.682812 
L 196.871727 251.682812 
L 196.871727 166.16623 
L 197.058247 251.682812 
L 198.642724 251.682812 
L 198.642724 166.16623 
L 198.829244 251.682812 
L 199.714342 251.682812 
L 199.714342 166.16623 
L 199.900862 251.682812 
L 204.053451 251.682812 
L 204.053451 166.16623 
L 204.239971 251.682812 
L 206.284431 251.682812 
L 206.284431 166.16623 
L 206.479459 251.682812 
L 206.479459 166.16623 
L 206.595316 251.682812 
L 206.665979 166.16623 
L 206.852499 251.682812 
L 213.123915 251.682812 
L 213.123915 166.16623 
L 213.310435 251.682812 
L 215.173606 251.682812 
L 215.173606 166.16623 
L 215.360126 251.682812 
L 217.148543 251.682812 
L 217.148543 166.16623 
L 217.335063 251.682812 
L 219.220029 251.682812 
L 219.220029 166.16623 
L 219.406549 251.682812 
L 219.569616 251.682812 
L 219.569616 166.16623 
L 219.756136 251.682812 
L 220.010189 251.682812 
L 220.010189 166.16623 
L 220.196709 251.682812 
L 220.837226 251.682812 
L 220.837226 166.16623 
L 221.094677 251.682812 
L 221.094677 166.16623 
L 221.281197 251.682812 
L 223.68552 251.682812 
L 223.68552 166.16623 
L 223.87204 251.682812 
L 224.392359 251.682812 
L 224.392359 166.16623 
L 224.578879 251.682812 
L 226.138301 251.682812 
L 226.138301 166.16623 
L 226.324821 251.682812 
L 226.981562 251.682812 
L 226.981562 166.16623 
L 227.168082 251.682812 
L 227.714796 251.682812 
L 227.714796 166.16623 
L 227.901316 251.682812 
L 229.289822 251.682812 
L 229.289822 166.16623 
L 229.362907 251.682812 
L 229.476342 166.16623 
L 229.662862 251.682812 
L 230.439732 251.682812 
L 230.439732 166.16623 
L 230.626252 251.682812 
L 232.315882 251.682812 
L 232.315882 166.16623 
L 232.502402 251.682812 
L 240.624409 251.682812 
L 240.624409 166.16623 
L 240.810929 251.682812 
L 246.579893 251.682812 
L 246.579893 166.16623 
L 246.780654 251.682812 
L 246.780654 166.16623 
L 246.967174 251.682812 
L 248.753712 251.682812 
L 248.753712 166.16623 
L 248.940232 251.682812 
L 249.190731 251.682812 
L 249.190731 166.16623 
L 249.377251 251.682812 
L 251.070888 251.682812 
L 251.070888 166.16623 
L 251.257408 251.682812 
L 251.399002 251.682812 
L 251.399002 166.16623 
L 251.585522 251.682812 
L 261.39666 251.682812 
L 261.39666 166.16623 
L 261.58318 251.682812 
L 263.371427 251.682812 
L 263.371427 166.16623 
L 263.557947 251.682812 
L 264.997725 251.682812 
L 264.997725 166.16623 
L 265.184245 251.682812 
L 265.542513 251.682812 
L 265.542513 166.16623 
L 265.729033 251.682812 
L 266.540516 251.682812 
L 266.540516 166.16623 
L 266.727036 251.682812 
L 267.711752 251.682812 
L 267.711752 166.16623 
L 267.898272 251.682812 
L 268.912533 251.682812 
L 268.912533 166.16623 
L 269.099052 251.682812 
L 269.435305 251.682812 
L 269.435305 166.16623 
L 269.621825 251.682812 
L 271.257352 251.682812 
L 271.257352 166.16623 
L 271.443872 251.682812 
L 271.580269 251.682812 
L 271.580269 166.16623 
L 271.766789 251.682812 
L 272.349666 251.682812 
L 272.349666 166.16623 
L 272.567812 251.682812 
L 272.567812 166.16623 
L 272.754332 251.682812 
L 274.662745 251.682812 
L 274.662745 166.16623 
L 274.849265 251.682812 
L 276.654913 251.682812 
L 276.654913 166.16623 
L 276.841433 251.682812 
L 277.366591 251.682812 
L 277.366591 166.16623 
L 277.643969 251.682812 
L 277.643969 166.16623 
L 277.830489 251.682812 
L 280.454145 251.682812 
L 280.454145 166.16623 
L 280.640665 251.682812 
L 280.862401 251.682812 
L 280.862401 166.16623 
L 281.048921 251.682812 
L 286.434107 251.682812 
L 286.434107 166.16623 
L 286.620627 251.682812 
L 287.292125 251.682812 
L 287.292125 166.16623 
L 287.478645 251.682812 
L 289.318235 251.682812 
L 289.318235 166.16623 
L 289.504755 251.682812 
L 292.526997 251.682812 
L 292.526997 166.16623 
L 292.552484 251.682812 
L 292.713517 166.16623 
L 292.743005 251.682812 
L 292.900037 166.16623 
L 293.086557 251.682812 
L 294.561765 251.682812 
L 294.561765 166.16623 
L 294.748285 251.682812 
L 297.956091 251.682812 
L 297.956091 166.16623 
L 298.142611 251.682812 
L 300.044769 251.682812 
L 300.044769 166.16623 
L 300.233219 251.682812 
L 300.233219 166.16623 
L 300.419739 251.682812 
L 306.898675 251.682812 
L 306.898675 166.16623 
L 307.085195 251.682812 
L 313.891368 251.682812 
L 313.891368 166.16623 
L 314.077888 251.682812 
L 317.818213 251.682812 
L 317.818213 166.16623 
L 318.004733 251.682812 
L 318.997647 251.682812 
L 318.997647 166.16623 
L 319.184167 251.682812 
L 320.326758 251.682812 
L 320.326758 166.16623 
L 320.513278 251.682812 
L 327.343505 251.682812 
L 327.343505 166.16623 
L 327.450431 251.682812 
L 327.530025 166.16623 
L 327.716545 251.682812 
L 329.182229 251.682812 
L 329.182229 166.16623 
L 329.368749 251.682812 
L 330.30125 251.682812 
L 330.30125 166.16623 
L 330.48777 251.682812 
L 332.808536 251.682812 
L 332.808536 166.16623 
L 332.846194 251.682812 
L 332.995056 80.649648 
L 333.368096 251.682812 
L 334.007943 251.682812 
L 334.007943 166.16623 
L 334.194463 251.682812 
L 334.627954 251.682812 
L 334.627954 166.16623 
L 334.814474 251.682812 
L 341.88651 251.682812 
L 341.88651 166.16623 
L 342.125362 251.682812 
L 342.125362 166.16623 
L 342.311882 251.682812 
L 342.956158 251.682812 
L 342.956158 166.16623 
L 343.142678 251.682812 
L 343.611172 251.682812 
L 343.611172 166.16623 
L 343.797692 251.682812 
L 344.834083 251.682812 
L 344.834083 166.16623 
L 345.069823 251.682812 
L 345.069823 166.16623 
L 345.256343 251.682812 
L 347.246276 251.682812 
L 347.246276 166.16623 
L 347.432796 251.682812 
L 347.960089 251.682812 
L 347.960089 166.16623 
L 348.146609 251.682812 
L 351.922216 251.682812 
L 351.922216 166.16623 
L 352.108736 251.682812 
L 352.919883 251.682812 
L 352.919883 166.16623 
L 353.106402 251.682812 
L 357.590178 251.682812 
L 357.590178 166.16623 
L 357.713836 251.682812 
L 357.776698 166.16623 
L 357.963218 251.682812 
L 358.169683 251.682812 
L 358.169683 166.16623 
L 358.356203 251.682812 
L 360.369107 251.682812 
L 360.369107 166.16623 
L 360.555627 251.682812 
L 361.922526 251.682812 
L 361.922526 166.16623 
L 362.109046 251.682812 
L 363.482015 251.682812 
L 363.482015 166.16623 
L 363.668535 251.682812 
L 367.218459 251.682812 
L 367.218459 166.16623 
L 367.404979 251.682812 
L 367.793715 251.682812 
L 367.793715 166.16623 
L 367.980235 251.682812 
L 369.120334 251.682812 
L 369.120334 166.16623 
L 369.306854 251.682812 
L 370.501998 251.682812 
L 370.501998 166.16623 
L 370.688518 251.682812 
L 375.138106 251.682812 
L 375.138106 166.16623 
L 375.322108 251.682812 
L 375.324626 166.16623 
L 375.511146 251.682812 
L 380.060284 251.682812 
L 380.060284 166.16623 
L 380.246804 251.682812 
L 381.660431 251.682812 
L 381.660431 166.16623 
L 381.822275 251.682812 
L 381.846951 166.16623 
L 382.033471 251.682812 
L 386.763667 251.682812 
L 386.763667 166.16623 
L 386.950187 251.682812 
L 387.370492 251.682812 
L 387.370492 166.16623 
L 387.557012 251.682812 
L 388.085908 251.682812 
L 388.085908 166.16623 
L 388.103442 251.682812 
L 388.272428 166.16623 
L 388.458948 251.682812 
L 390.15674 251.682812 
L 390.15674 166.16623 
L 390.34326 251.682812 
L 393.602375 251.682812 
L 393.602375 166.16623 
L 393.865985 251.682812 
L 393.865985 166.16623 
L 394.052505 251.682812 
L 395.809115 251.682812 
L 395.809115 166.16623 
L 395.995635 251.682812 
L 398.159143 251.682812 
L 398.159143 166.16623 
L 398.345663 251.682812 
L 401.593503 251.682812 
L 401.593503 166.16623 
L 401.780023 251.682812 
L 402.230756 251.682812 
L 402.230756 166.16623 
L 402.417276 251.682812 
L 402.804338 251.682812 
L 402.804338 166.16623 
L 402.990858 251.682812 
L 403.181762 251.682812 
L 403.181762 166.16623 
L 403.368282 251.682812 
L 404.127792 251.682812 
L 404.127792 166.16623 
L 404.314312 251.682812 
L 405.775004 251.682812 
L 405.775004 166.16623 
L 405.961524 251.682812 
L 407.276112 251.682812 
L 407.276112 166.16623 
L 407.313999 251.682812 
L 407.462632 166.16623 
L 407.650205 251.682812 
L 407.650205 166.16623 
L 407.836725 251.682812 
L 410.943665 251.682812 
L 410.943665 166.16623 
L 411.130185 251.682812 
L 411.804886 251.682812 
L 411.804886 166.16623 
L 411.813664 251.682812 
L 411.991406 166.16623 
L 412.109003 251.682812 
L 412.177926 166.16623 
L 412.364446 251.682812 
L 412.364446 251.682812 
" style="fill:none;stroke:#ff7f0e;stroke-linecap:square;stroke-width:1.5;"/>
   </g>
   <g id="line2d_33">
    <path clip-path="url(#p475444189c)" d="M 42.657109 251.682812 
L 42.657109 166.16623 
L 42.890259 251.682812 
L 44.333104 251.682812 
L 44.333104 166.16623 
L 44.566254 251.682812 
L 46.675666 251.682812 
L 46.675666 166.16623 
L 46.908816 251.682812 
L 50.144199 251.682812 
L 50.144199 166.16623 
L 50.377349 251.682812 
L 51.866195 251.682812 
L 51.866195 166.16623 
L 52.099345 251.682812 
L 55.506217 251.682812 
L 55.506217 166.16623 
L 55.739367 251.682812 
L 56.974504 251.682812 
L 56.974504 166.16623 
L 57.207654 251.682812 
L 60.479148 251.682812 
L 60.479148 166.16623 
L 60.712298 251.682812 
L 61.506963 251.682812 
L 61.506963 166.16623 
L 61.740113 251.682812 
L 63.329276 251.682812 
L 63.329276 166.16623 
L 63.562426 251.682812 
L 65.26565 251.682812 
L 65.26565 166.16623 
L 65.4988 251.682812 
L 66.170511 251.682812 
L 66.170511 166.16623 
L 66.403661 251.682812 
L 67.24397 251.682812 
L 67.24397 166.16623 
L 67.47712 251.682812 
L 67.902682 251.682812 
L 67.902682 166.16623 
L 68.135832 251.682812 
L 72.049999 251.682812 
L 72.049999 166.16623 
L 72.236519 251.682812 
L 72.283149 166.16623 
L 72.516299 251.682812 
L 78.341872 251.682812 
L 78.341872 166.16623 
L 78.575022 251.682812 
L 78.93567 251.682812 
L 78.93567 166.16623 
L 79.16882 251.682812 
L 79.837685 251.682812 
L 79.837685 166.16623 
L 80.070835 251.682812 
L 81.049032 251.682812 
L 81.049032 166.16623 
L 81.282182 251.682812 
L 83.975337 251.682812 
L 83.975337 166.16623 
L 84.208487 251.682812 
L 87.094345 251.682812 
L 87.094345 166.16623 
L 87.327495 251.682812 
L 88.498233 251.682812 
L 88.498233 166.16623 
L 88.731383 251.682812 
L 89.717854 251.682812 
L 89.717854 166.16623 
L 89.951004 251.682812 
L 91.283564 251.682812 
L 91.283564 166.16623 
L 91.516714 251.682812 
L 92.21406 251.682812 
L 92.21406 166.16623 
L 92.44721 251.682812 
L 97.060324 251.682812 
L 97.060324 166.16623 
L 97.293474 251.682812 
L 100.433294 251.682812 
L 100.433294 166.16623 
L 100.619814 251.682812 
L 100.666444 166.16623 
L 100.899594 251.682812 
L 101.338407 251.682812 
L 101.338407 166.16623 
L 101.524927 251.682812 
L 101.571557 166.16623 
L 101.804707 251.682812 
L 103.456852 251.682812 
L 103.456852 166.16623 
L 103.643372 251.682812 
L 103.690002 166.16623 
L 103.923152 251.682812 
L 104.351539 251.682812 
L 104.351539 166.16623 
L 104.584689 251.682812 
L 107.685561 251.682812 
L 107.685561 166.16623 
L 107.918711 251.682812 
L 113.561257 251.682812 
L 113.561257 166.16623 
L 113.794407 251.682812 
L 116.369846 251.682812 
L 116.369846 166.16623 
L 116.651922 251.682812 
L 116.651922 166.16623 
L 116.885072 251.682812 
L 120.457515 251.682812 
L 120.457515 166.16623 
L 120.690665 251.682812 
L 124.264187 251.682812 
L 124.264187 166.16623 
L 124.497337 251.682812 
L 131.436295 251.682812 
L 131.436295 166.16623 
L 131.669445 251.682812 
L 132.633211 251.682812 
L 132.633211 166.16623 
L 132.866361 251.682812 
L 135.627303 251.682812 
L 135.627303 166.16623 
L 135.860453 251.682812 
L 138.63774 251.682812 
L 138.63774 166.16623 
L 138.87089 251.682812 
L 139.792167 251.682812 
L 139.792167 166.16623 
L 140.025317 251.682812 
L 141.163022 251.682812 
L 141.163022 166.16623 
L 141.396172 251.682812 
L 143.991665 251.682812 
L 143.991665 166.16623 
L 144.224815 251.682812 
L 146.110418 251.682812 
L 146.110418 166.16623 
L 146.345199 251.682812 
L 146.345199 166.16623 
L 146.578349 251.682812 
L 148.723754 251.682812 
L 148.723754 166.16623 
L 148.956904 251.682812 
L 150.628928 251.682812 
L 150.628928 166.16623 
L 150.862078 251.682812 
L 152.255982 251.682812 
L 152.255982 166.16623 
L 152.544583 251.682812 
L 152.544583 166.16623 
L 152.777733 251.682812 
L 153.982344 251.682812 
L 153.982344 166.16623 
L 154.215494 251.682812 
L 159.381017 251.682812 
L 159.381017 166.16623 
L 159.614167 251.682812 
L 162.032146 251.682812 
L 162.032146 166.16623 
L 162.265296 251.682812 
L 163.408341 251.682812 
L 163.408341 166.16623 
L 163.617143 251.682812 
L 163.641491 166.16623 
L 163.874641 251.682812 
L 164.61608 251.682812 
L 164.61608 166.16623 
L 164.84923 251.682812 
L 165.812969 251.682812 
L 165.812969 166.16623 
L 166.046119 251.682812 
L 166.386109 251.682812 
L 166.386109 166.16623 
L 166.619259 251.682812 
L 166.770719 251.682812 
L 166.770719 166.16623 
L 167.003869 251.682812 
L 169.546612 251.682812 
L 169.546612 166.16623 
L 169.779762 251.682812 
L 172.037195 251.682812 
L 172.037195 166.16623 
L 172.270345 251.682812 
L 173.173255 251.682812 
L 173.173255 166.16623 
L 173.406405 251.682812 
L 173.628454 251.682812 
L 173.628454 166.16623 
L 173.861604 251.682812 
L 175.195847 251.682812 
L 175.195847 166.16623 
L 175.466819 251.682812 
L 175.466819 166.16623 
L 175.653339 251.682812 
L 175.699969 166.16623 
L 175.933119 251.682812 
L 176.23293 251.682812 
L 176.23293 166.16623 
L 176.46608 251.682812 
L 178.026098 251.682812 
L 178.026098 166.16623 
L 178.328515 251.682812 
L 178.328515 166.16623 
L 178.561665 251.682812 
L 180.094853 251.682812 
L 180.094853 166.16623 
L 180.328003 251.682812 
L 180.563842 251.682812 
L 180.563842 166.16623 
L 180.796992 251.682812 
L 182.353591 251.682812 
L 182.353591 166.16623 
L 182.586741 251.682812 
L 183.264848 251.682812 
L 183.264848 166.16623 
L 183.497998 251.682812 
L 188.632734 251.682812 
L 188.632734 166.16623 
L 188.865884 251.682812 
L 192.976623 251.682812 
L 192.976623 166.16623 
L 193.209773 251.682812 
L 195.112536 251.682812 
L 195.112536 166.16623 
L 195.345686 251.682812 
L 196.227452 251.682812 
L 196.227452 166.16623 
L 196.460602 251.682812 
L 197.058433 251.682812 
L 197.058433 166.16623 
L 197.291583 251.682812 
L 198.82943 251.682812 
L 198.82943 166.16623 
L 199.06258 251.682812 
L 199.901048 251.682812 
L 199.901048 166.16623 
L 200.134198 251.682812 
L 204.240158 251.682812 
L 204.240158 166.16623 
L 204.473308 251.682812 
L 206.471138 251.682812 
L 206.471138 166.16623 
L 206.666166 251.682812 
L 206.704288 166.16623 
L 206.852685 251.682812 
L 206.937438 166.16623 
L 207.170588 251.682812 
L 213.310621 251.682812 
L 213.310621 166.16623 
L 213.543771 251.682812 
L 215.360312 251.682812 
L 215.360312 166.16623 
L 215.593462 251.682812 
L 217.33525 251.682812 
L 217.33525 166.16623 
L 217.5684 251.682812 
L 219.406736 251.682812 
L 219.406736 166.16623 
L 219.639886 251.682812 
L 219.756323 251.682812 
L 219.756323 166.16623 
L 219.989473 251.682812 
L 220.196896 251.682812 
L 220.196896 166.16623 
L 220.430046 251.682812 
L 221.023933 251.682812 
L 221.023933 166.16623 
L 221.281384 251.682812 
L 221.281384 166.16623 
L 221.514534 251.682812 
L 223.872226 251.682812 
L 223.872226 166.16623 
L 224.105376 251.682812 
L 224.579066 251.682812 
L 224.579066 166.16623 
L 224.812216 251.682812 
L 226.325008 251.682812 
L 226.325008 166.16623 
L 226.558158 251.682812 
L 227.168269 251.682812 
L 227.168269 166.16623 
L 227.401419 251.682812 
L 227.901502 251.682812 
L 227.901502 166.16623 
L 228.134652 251.682812 
L 229.476529 251.682812 
L 229.476529 166.16623 
L 229.663049 251.682812 
L 229.709679 166.16623 
L 229.942829 251.682812 
L 230.626438 251.682812 
L 230.626438 166.16623 
L 230.859588 251.682812 
L 232.502589 251.682812 
L 232.502589 166.16623 
L 232.735739 251.682812 
L 240.811116 251.682812 
L 240.811116 166.16623 
L 241.044266 251.682812 
L 246.766599 251.682812 
L 246.766599 166.16623 
L 246.96736 251.682812 
L 246.999749 166.16623 
L 247.232899 251.682812 
L 248.940418 251.682812 
L 248.940418 166.16623 
L 249.173568 251.682812 
L 249.377437 251.682812 
L 249.377437 166.16623 
L 249.610587 251.682812 
L 251.257595 251.682812 
L 251.257595 166.16623 
L 251.585709 251.682812 
L 251.585709 166.16623 
L 251.818858 251.682812 
L 261.583367 251.682812 
L 261.583367 166.16623 
L 261.816517 251.682812 
L 263.558134 251.682812 
L 263.558134 166.16623 
L 263.791284 251.682812 
L 265.184431 251.682812 
L 265.184431 166.16623 
L 265.417581 251.682812 
L 265.72922 251.682812 
L 265.72922 166.16623 
L 265.96237 251.682812 
L 266.727222 251.682812 
L 266.727222 166.16623 
L 266.960372 251.682812 
L 267.898459 251.682812 
L 267.898459 166.16623 
L 268.131609 251.682812 
L 269.099239 251.682812 
L 269.099239 166.16623 
L 269.332389 251.682812 
L 269.622012 251.682812 
L 269.622012 166.16623 
L 269.855162 251.682812 
L 271.444058 251.682812 
L 271.444058 166.16623 
L 271.766976 251.682812 
L 271.766976 166.16623 
L 272.000126 251.682812 
L 272.536373 251.682812 
L 272.536373 166.16623 
L 272.754518 251.682812 
L 272.769523 166.16623 
L 273.002673 251.682812 
L 274.849452 251.682812 
L 274.849452 166.16623 
L 275.082602 251.682812 
L 276.84162 251.682812 
L 276.84162 166.16623 
L 277.07477 251.682812 
L 277.553298 251.682812 
L 277.553298 166.16623 
L 277.830676 251.682812 
L 277.830676 166.16623 
L 278.063826 251.682812 
L 280.640852 251.682812 
L 280.640852 166.16623 
L 280.874002 251.682812 
L 281.049108 251.682812 
L 281.049108 166.16623 
L 281.282258 251.682812 
L 286.620814 251.682812 
L 286.620814 166.16623 
L 286.853964 251.682812 
L 287.478832 251.682812 
L 287.478832 166.16623 
L 287.711982 251.682812 
L 289.504941 251.682812 
L 289.504941 166.16623 
L 289.738091 251.682812 
L 292.713704 251.682812 
L 292.713704 166.16623 
L 292.900224 251.682812 
L 292.946854 166.16623 
L 293.086744 251.682812 
L 293.180004 166.16623 
L 293.413154 251.682812 
L 294.748472 251.682812 
L 294.748472 166.16623 
L 294.981622 251.682812 
L 298.142798 251.682812 
L 298.142798 166.16623 
L 298.375948 251.682812 
L 300.231475 251.682812 
L 300.231475 166.16623 
L 300.419925 251.682812 
L 300.464625 166.16623 
L 300.697775 251.682812 
L 307.085382 251.682812 
L 307.085382 166.16623 
L 307.318532 251.682812 
L 314.078075 251.682812 
L 314.078075 166.16623 
L 314.311225 251.682812 
L 318.00492 251.682812 
L 318.00492 166.16623 
L 318.23807 251.682812 
L 319.184354 251.682812 
L 319.184354 166.16623 
L 319.417504 251.682812 
L 320.513465 251.682812 
L 320.513465 166.16623 
L 320.746615 251.682812 
L 327.530211 251.682812 
L 327.530211 166.16623 
L 327.716731 251.682812 
L 327.763361 166.16623 
L 327.996511 251.682812 
L 329.368935 251.682812 
L 329.368935 166.16623 
L 329.602085 251.682812 
L 330.487956 251.682812 
L 330.487956 166.16623 
L 330.721106 251.682812 
L 332.995242 251.682812 
L 332.995242 166.16623 
L 333.181762 251.682812 
L 333.228392 166.16623 
L 333.368282 251.682812 
L 333.461542 166.16623 
L 333.694692 251.682812 
L 334.194649 251.682812 
L 334.194649 166.16623 
L 334.427799 251.682812 
L 334.814661 251.682812 
L 334.814661 166.16623 
L 335.047811 251.682812 
L 342.073217 251.682812 
L 342.073217 166.16623 
L 342.312068 251.682812 
L 342.312068 166.16623 
L 342.545218 251.682812 
L 343.142865 251.682812 
L 343.142865 166.16623 
L 343.376015 251.682812 
L 343.797878 251.682812 
L 343.797878 166.16623 
L 344.031028 251.682812 
L 345.02079 251.682812 
L 345.02079 166.16623 
L 345.25653 251.682812 
L 345.25653 166.16623 
L 345.48968 251.682812 
L 347.432982 251.682812 
L 347.432982 166.16623 
L 347.666132 251.682812 
L 348.146796 251.682812 
L 348.146796 166.16623 
L 348.379946 251.682812 
L 352.108923 251.682812 
L 352.108923 166.16623 
L 352.342073 251.682812 
L 353.106589 251.682812 
L 353.106589 166.16623 
L 353.339739 251.682812 
L 357.776885 251.682812 
L 357.776885 166.16623 
L 357.963405 251.682812 
L 358.010035 166.16623 
L 358.243185 251.682812 
L 358.356389 251.682812 
L 358.356389 166.16623 
L 358.589539 251.682812 
L 360.555813 251.682812 
L 360.555813 166.16623 
L 360.788963 251.682812 
L 362.109233 251.682812 
L 362.109233 166.16623 
L 362.342383 251.682812 
L 363.668722 251.682812 
L 363.668722 166.16623 
L 363.901872 251.682812 
L 367.405166 251.682812 
L 367.405166 166.16623 
L 367.638316 251.682812 
L 367.980421 251.682812 
L 367.980421 166.16623 
L 368.213571 251.682812 
L 369.307041 251.682812 
L 369.307041 166.16623 
L 369.540191 251.682812 
L 370.688704 251.682812 
L 370.688704 166.16623 
L 370.921854 251.682812 
L 375.324812 251.682812 
L 375.324812 166.16623 
L 375.511332 251.682812 
L 375.557962 166.16623 
L 375.791112 251.682812 
L 380.24699 251.682812 
L 380.24699 166.16623 
L 380.48014 251.682812 
L 381.847137 251.682812 
L 381.847137 166.16623 
L 382.033657 251.682812 
L 382.080287 166.16623 
L 382.313437 251.682812 
L 386.950373 251.682812 
L 386.950373 166.16623 
L 387.183523 251.682812 
L 387.557198 251.682812 
L 387.557198 166.16623 
L 387.790348 251.682812 
L 388.272615 251.682812 
L 388.272615 166.16623 
L 388.459135 251.682812 
L 388.505765 166.16623 
L 388.738915 251.682812 
L 390.343447 251.682812 
L 390.343447 166.16623 
L 390.576597 251.682812 
L 393.789082 251.682812 
L 393.789082 166.16623 
L 394.052692 251.682812 
L 394.052692 166.16623 
L 394.285842 251.682812 
L 395.995821 251.682812 
L 395.995821 166.16623 
L 396.228971 251.682812 
L 398.345849 251.682812 
L 398.345849 166.16623 
L 398.578999 251.682812 
L 401.780209 251.682812 
L 401.780209 166.16623 
L 402.013359 251.682812 
L 402.417463 251.682812 
L 402.417463 166.16623 
L 402.650613 251.682812 
L 402.991045 251.682812 
L 402.991045 166.16623 
L 403.224195 251.682812 
L 403.368469 251.682812 
L 403.368469 166.16623 
L 403.601619 251.682812 
L 404.314498 251.682812 
L 404.314498 166.16623 
L 404.547648 251.682812 
L 405.96171 251.682812 
L 405.96171 166.16623 
L 406.19486 251.682812 
L 407.462818 251.682812 
L 407.462818 166.16623 
L 407.649338 251.682812 
L 407.695968 166.16623 
L 407.836912 251.682812 
L 407.929118 166.16623 
L 408.162268 251.682812 
L 411.130372 251.682812 
L 411.130372 166.16623 
L 411.363522 251.682812 
L 411.991592 251.682812 
L 411.991592 166.16623 
L 412.178112 251.682812 
L 412.224742 166.16623 
L 412.364632 251.682812 
L 412.457892 166.16623 
L 412.691042 251.682812 
L 412.691042 251.682812 
" style="fill:none;stroke:#2ca02c;stroke-linecap:square;stroke-width:1.5;"/>
   </g>
   <g id="patch_3">
    <path d="M 40.985938 251.682812 
L 40.985938 23.638594 
" style="fill:none;stroke:#000000;stroke-linecap:square;stroke-linejoin:miter;stroke-width:0.8;"/>
   </g>
   <g id="patch_4">
    <path d="M 417.979969 251.682812 
L 417.979969 23.638594 
" style="fill:none;stroke:#000000;stroke-linecap:square;stroke-linejoin:miter;stroke-width:0.8;"/>
   </g>
   <g id="patch_5">
    <path d="M 40.985938 251.682812 
L 417.979969 251.682812 
" style="fill:none;stroke:#000000;stroke-linecap:square;stroke-linejoin:miter;stroke-width:0.8;"/>
   </g>
   <g id="patch_6">
    <path d="M 40.985938 23.638594 
L 417.979969 23.638594 
" style="fill:none;stroke:#000000;stroke-linecap:square;stroke-linejoin:miter;stroke-width:0.8;"/>
   </g>
   <g id="text_18">
    <!-- Cantidad de paquetes en los buffers -->
    <defs>
     <path d="M 64.40625 67.28125 
L 64.40625 56.890625 
Q 59.421875 61.53125 53.78125 63.8125 
Q 48.140625 66.109375 41.796875 66.109375 
Q 29.296875 66.109375 22.65625 58.46875 
Q 16.015625 50.828125 16.015625 36.375 
Q 16.015625 21.96875 22.65625 14.328125 
Q 29.296875 6.6875 41.796875 6.6875 
Q 48.140625 6.6875 53.78125 8.984375 
Q 59.421875 11.28125 64.40625 15.921875 
L 64.40625 5.609375 
Q 59.234375 2.09375 53.4375 0.328125 
Q 47.65625 -1.421875 41.21875 -1.421875 
Q 24.65625 -1.421875 15.125 8.703125 
Q 5.609375 18.84375 5.609375 36.375 
Q 5.609375 53.953125 15.125 64.078125 
Q 24.65625 74.21875 41.21875 74.21875 
Q 47.75 74.21875 53.53125 72.484375 
Q 59.328125 70.75 64.40625 67.28125 
z
" id="DejaVuSans-67"/>
     <path d="M 54.890625 33.015625 
L 54.890625 0 
L 45.90625 0 
L 45.90625 32.71875 
Q 45.90625 40.484375 42.875 44.328125 
Q 39.84375 48.1875 33.796875 48.1875 
Q 26.515625 48.1875 22.3125 43.546875 
Q 18.109375 38.921875 18.109375 30.90625 
L 18.109375 0 
L 9.078125 0 
L 9.078125 54.6875 
L 18.109375 54.6875 
L 18.109375 46.1875 
Q 21.34375 51.125 25.703125 53.5625 
Q 30.078125 56 35.796875 56 
Q 45.21875 56 50.046875 50.171875 
Q 54.890625 44.34375 54.890625 33.015625 
z
" id="DejaVuSans-110"/>
     <path d="M 45.40625 46.390625 
L 45.40625 75.984375 
L 54.390625 75.984375 
L 54.390625 0 
L 45.40625 0 
L 45.40625 8.203125 
Q 42.578125 3.328125 38.25 0.953125 
Q 33.9375 -1.421875 27.875 -1.421875 
Q 17.96875 -1.421875 11.734375 6.484375 
Q 5.515625 14.40625 5.515625 27.296875 
Q 5.515625 40.1875 11.734375 48.09375 
Q 17.96875 56 27.875 56 
Q 33.9375 56 38.25 53.625 
Q 42.578125 51.265625 45.40625 46.390625 
z
M 14.796875 27.296875 
Q 14.796875 17.390625 18.875 11.75 
Q 22.953125 6.109375 30.078125 6.109375 
Q 37.203125 6.109375 41.296875 11.75 
Q 45.40625 17.390625 45.40625 27.296875 
Q 45.40625 37.203125 41.296875 42.84375 
Q 37.203125 48.484375 30.078125 48.484375 
Q 22.953125 48.484375 18.875 42.84375 
Q 14.796875 37.203125 14.796875 27.296875 
z
" id="DejaVuSans-100"/>
     <path id="DejaVuSans-32"/>
     <path d="M 9.421875 75.984375 
L 18.40625 75.984375 
L 18.40625 0 
L 9.421875 0 
z
" id="DejaVuSans-108"/>
     <path d="M 48.6875 27.296875 
Q 48.6875 37.203125 44.609375 42.84375 
Q 40.53125 48.484375 33.40625 48.484375 
Q 26.265625 48.484375 22.1875 42.84375 
Q 18.109375 37.203125 18.109375 27.296875 
Q 18.109375 17.390625 22.1875 11.75 
Q 26.265625 6.109375 33.40625 6.109375 
Q 40.53125 6.109375 44.609375 11.75 
Q 48.6875 17.390625 48.6875 27.296875 
z
M 18.109375 46.390625 
Q 20.953125 51.265625 25.265625 53.625 
Q 29.59375 56 35.59375 56 
Q 45.5625 56 51.78125 48.09375 
Q 58.015625 40.1875 58.015625 27.296875 
Q 58.015625 14.40625 51.78125 6.484375 
Q 45.5625 -1.421875 35.59375 -1.421875 
Q 29.59375 -1.421875 25.265625 0.953125 
Q 20.953125 3.328125 18.109375 8.203125 
L 18.109375 0 
L 9.078125 0 
L 9.078125 75.984375 
L 18.109375 75.984375 
z
" id="DejaVuSans-98"/>
     <path d="M 37.109375 75.984375 
L 37.109375 68.5 
L 28.515625 68.5 
Q 23.6875 68.5 21.796875 66.546875 
Q 19.921875 64.59375 19.921875 59.515625 
L 19.921875 54.6875 
L 34.71875 54.6875 
L 34.71875 47.703125 
L 19.921875 47.703125 
L 19.921875 0 
L 10.890625 0 
L 10.890625 47.703125 
L 2.296875 47.703125 
L 2.296875 54.6875 
L 10.890625 54.6875 
L 10.890625 58.5 
Q 10.890625 67.625 15.140625 71.796875 
Q 19.390625 75.984375 28.609375 75.984375 
z
" id="DejaVuSans-102"/>
     <path d="M 41.109375 46.296875 
Q 39.59375 47.171875 37.8125 47.578125 
Q 36.03125 48 33.890625 48 
Q 26.265625 48 22.1875 43.046875 
Q 18.109375 38.09375 18.109375 28.8125 
L 18.109375 0 
L 9.078125 0 
L 9.078125 54.6875 
L 18.109375 54.6875 
L 18.109375 46.1875 
Q 20.953125 51.171875 25.484375 53.578125 
Q 30.03125 56 36.53125 56 
Q 37.453125 56 38.578125 55.875 
Q 39.703125 55.765625 41.0625 55.515625 
z
" id="DejaVuSans-114"/>
    </defs>
    <g transform="translate(120.427328 17.638594)scale(0.12 -0.12)">
     <use xlink:href="#DejaVuSans-67"/>
     <use x="69.824219" xlink:href="#DejaVuSans-97"/>
     <use x="131.103516" xlink:href="#DejaVuSans-110"/>
     <use x="194.482422" xlink:href="#DejaVuSans-116"/>
     <use x="233.691406" xlink:href="#DejaVuSans-105"/>
     <use x="261.474609" xlink:href="#DejaVuSans-100"/>
     <use x="324.951172" xlink:href="#DejaVuSans-97"/>
     <use x="386.230469" xlink:href="#DejaVuSans-100"/>
     <use x="449.707031" xlink:href="#DejaVuSans-32"/>
     <use x="481.494141" xlink:href="#DejaVuSans-100"/>
     <use x="544.970703" xlink:href="#DejaVuSans-101"/>
     <use x="606.494141" xlink:href="#DejaVuSans-32"/>
     <use x="638.28125" xlink:href="#DejaVuSans-112"/>
     <use x="701.757812" xlink:href="#DejaVuSans-97"/>
     <use x="763.037109" xlink:href="#DejaVuSans-113"/>
     <use x="826.513672" xlink:href="#DejaVuSans-117"/>
     <use x="889.892578" xlink:href="#DejaVuSans-101"/>
     <use x="951.416016" xlink:href="#DejaVuSans-116"/>
     <use x="990.625" xlink:href="#DejaVuSans-101"/>
     <use x="1052.148438" xlink:href="#DejaVuSans-115"/>
     <use x="1104.248047" xlink:href="#DejaVuSans-32"/>
     <use x="1136.035156" xlink:href="#DejaVuSans-101"/>
     <use x="1197.558594" xlink:href="#DejaVuSans-110"/>
     <use x="1260.9375" xlink:href="#DejaVuSans-32"/>
     <use x="1292.724609" xlink:href="#DejaVuSans-108"/>
     <use x="1320.507812" xlink:href="#DejaVuSans-111"/>
     <use x="1381.689453" xlink:href="#DejaVuSans-115"/>
     <use x="1433.789062" xlink:href="#DejaVuSans-32"/>
     <use x="1465.576172" xlink:href="#DejaVuSans-98"/>
     <use x="1529.052734" xlink:href="#DejaVuSans-117"/>
     <use x="1592.431641" xlink:href="#DejaVuSans-102"/>
     <use x="1627.636719" xlink:href="#DejaVuSans-102"/>
     <use x="1662.841797" xlink:href="#DejaVuSans-101"/>
     <use x="1724.365234" xlink:href="#DejaVuSans-114"/>
     <use x="1765.478516" xlink:href="#DejaVuSans-115"/>
    </g>
   </g>
   <g id="legend_1">
    <g id="patch_7">
     <path d="M 177.726844 75.843281 
L 410.979969 75.843281 
Q 412.979969 75.843281 412.979969 73.843281 
L 412.979969 30.638594 
Q 412.979969 28.638594 410.979969 28.638594 
L 177.726844 28.638594 
Q 175.726844 28.638594 175.726844 30.638594 
L 175.726844 73.843281 
Q 175.726844 75.843281 177.726844 75.843281 
z
" style="fill:#ffffff;opacity:0.8;stroke:#cccccc;stroke-linejoin:miter;"/>
    </g>
    <g id="line2d_34">
     <path d="M 179.726844 36.907344 
L 199.726844 36.907344 
" style="fill:none;stroke:#1f77b4;stroke-linecap:square;stroke-width:1.5;"/>
    </g>
    <g id="line2d_35"/>
    <g id="text_19">
     <!-- Tamao del buffer del receptor -->
     <defs>
      <path d="M 54.890625 33.015625 
L 54.890625 0 
L 45.90625 0 
L 45.90625 32.71875 
Q 45.90625 40.484375 42.875 44.328125 
Q 39.84375 48.1875 33.796875 48.1875 
Q 26.515625 48.1875 22.3125 43.546875 
Q 18.109375 38.921875 18.109375 30.90625 
L 18.109375 0 
L 9.078125 0 
L 9.078125 54.6875 
L 18.109375 54.6875 
L 18.109375 46.1875 
Q 21.34375 51.125 25.703125 53.5625 
Q 30.078125 56 35.796875 56 
Q 45.21875 56 50.046875 50.171875 
Q 54.890625 44.34375 54.890625 33.015625 
z
M 32.234375 66.890625 
L 29.4375 69.578125 
Q 28.375 70.5625 27.5625 71.015625 
Q 26.765625 71.484375 26.125 71.484375 
Q 24.265625 71.484375 23.390625 69.703125 
Q 22.515625 67.921875 22.40625 63.921875 
L 16.3125 63.921875 
Q 16.40625 70.515625 18.890625 74.09375 
Q 21.390625 77.6875 25.828125 77.6875 
Q 27.6875 77.6875 29.25 77 
Q 30.8125 76.3125 32.625 74.703125 
L 35.40625 72.015625 
Q 36.46875 71.046875 37.28125 70.578125 
Q 38.09375 70.125 38.71875 70.125 
Q 40.578125 70.125 41.453125 71.90625 
Q 42.328125 73.6875 42.4375 77.6875 
L 48.53125 77.6875 
Q 48.4375 71.09375 45.9375 67.5 
Q 43.453125 63.921875 39.015625 63.921875 
Q 37.15625 63.921875 35.59375 64.59375 
Q 34.03125 65.28125 32.234375 66.890625 
z
" id="DejaVuSans-241"/>
      <path d="M 48.78125 52.59375 
L 48.78125 44.1875 
Q 44.96875 46.296875 41.140625 47.34375 
Q 37.3125 48.390625 33.40625 48.390625 
Q 24.65625 48.390625 19.8125 42.84375 
Q 14.984375 37.3125 14.984375 27.296875 
Q 14.984375 17.28125 19.8125 11.734375 
Q 24.65625 6.203125 33.40625 6.203125 
Q 37.3125 6.203125 41.140625 7.25 
Q 44.96875 8.296875 48.78125 10.40625 
L 48.78125 2.09375 
Q 45.015625 0.34375 40.984375 -0.53125 
Q 36.96875 -1.421875 32.421875 -1.421875 
Q 20.0625 -1.421875 12.78125 6.34375 
Q 5.515625 14.109375 5.515625 27.296875 
Q 5.515625 40.671875 12.859375 48.328125 
Q 20.21875 56 33.015625 56 
Q 37.15625 56 41.109375 55.140625 
Q 45.0625 54.296875 48.78125 52.59375 
z
" id="DejaVuSans-99"/>
     </defs>
     <g transform="translate(207.726844 40.407344)scale(0.1 -0.1)">
      <use xlink:href="#DejaVuSans-84"/>
      <use x="60.833984" xlink:href="#DejaVuSans-97"/>
      <use x="122.113281" xlink:href="#DejaVuSans-109"/>
      <use x="219.525391" xlink:href="#DejaVuSans-97"/>
      <use x="280.804688" xlink:href="#DejaVuSans-241"/>
      <use x="344.183594" xlink:href="#DejaVuSans-111"/>
      <use x="405.365234" xlink:href="#DejaVuSans-32"/>
      <use x="437.152344" xlink:href="#DejaVuSans-100"/>
      <use x="500.628906" xlink:href="#DejaVuSans-101"/>
      <use x="562.152344" xlink:href="#DejaVuSans-108"/>
      <use x="589.935547" xlink:href="#DejaVuSans-32"/>
      <use x="621.722656" xlink:href="#DejaVuSans-98"/>
      <use x="685.199219" xlink:href="#DejaVuSans-117"/>
      <use x="748.578125" xlink:href="#DejaVuSans-102"/>
      <use x="783.783203" xlink:href="#DejaVuSans-102"/>
      <use x="818.988281" xlink:href="#DejaVuSans-101"/>
      <use x="880.511719" xlink:href="#DejaVuSans-114"/>
      <use x="921.625" xlink:href="#DejaVuSans-32"/>
      <use x="953.412109" xlink:href="#DejaVuSans-100"/>
      <use x="1016.888672" xlink:href="#DejaVuSans-101"/>
      <use x="1078.412109" xlink:href="#DejaVuSans-108"/>
      <use x="1106.195312" xlink:href="#DejaVuSans-32"/>
      <use x="1137.982422" xlink:href="#DejaVuSans-114"/>
      <use x="1179.064453" xlink:href="#DejaVuSans-101"/>
      <use x="1240.587891" xlink:href="#DejaVuSans-99"/>
      <use x="1295.568359" xlink:href="#DejaVuSans-101"/>
      <use x="1357.091797" xlink:href="#DejaVuSans-112"/>
      <use x="1420.568359" xlink:href="#DejaVuSans-116"/>
      <use x="1459.777344" xlink:href="#DejaVuSans-111"/>
      <use x="1520.958984" xlink:href="#DejaVuSans-114"/>
     </g>
    </g>
    <g id="line2d_36">
     <path d="M 179.726844 51.585469 
L 199.726844 51.585469 
" style="fill:none;stroke:#ff7f0e;stroke-linecap:square;stroke-width:1.5;"/>
    </g>
    <g id="line2d_37"/>
    <g id="text_20">
     <!-- Tamao del buffer del emisor -->
     <g transform="translate(207.726844 55.085469)scale(0.1 -0.1)">
      <use xlink:href="#DejaVuSans-84"/>
      <use x="60.833984" xlink:href="#DejaVuSans-97"/>
      <use x="122.113281" xlink:href="#DejaVuSans-109"/>
      <use x="219.525391" xlink:href="#DejaVuSans-97"/>
      <use x="280.804688" xlink:href="#DejaVuSans-241"/>
      <use x="344.183594" xlink:href="#DejaVuSans-111"/>
      <use x="405.365234" xlink:href="#DejaVuSans-32"/>
      <use x="437.152344" xlink:href="#DejaVuSans-100"/>
      <use x="500.628906" xlink:href="#DejaVuSans-101"/>
      <use x="562.152344" xlink:href="#DejaVuSans-108"/>
      <use x="589.935547" xlink:href="#DejaVuSans-32"/>
      <use x="621.722656" xlink:href="#DejaVuSans-98"/>
      <use x="685.199219" xlink:href="#DejaVuSans-117"/>
      <use x="748.578125" xlink:href="#DejaVuSans-102"/>
      <use x="783.783203" xlink:href="#DejaVuSans-102"/>
      <use x="818.988281" xlink:href="#DejaVuSans-101"/>
      <use x="880.511719" xlink:href="#DejaVuSans-114"/>
      <use x="921.625" xlink:href="#DejaVuSans-32"/>
      <use x="953.412109" xlink:href="#DejaVuSans-100"/>
      <use x="1016.888672" xlink:href="#DejaVuSans-101"/>
      <use x="1078.412109" xlink:href="#DejaVuSans-108"/>
      <use x="1106.195312" xlink:href="#DejaVuSans-32"/>
      <use x="1137.982422" xlink:href="#DejaVuSans-101"/>
      <use x="1199.505859" xlink:href="#DejaVuSans-109"/>
      <use x="1296.917969" xlink:href="#DejaVuSans-105"/>
      <use x="1324.701172" xlink:href="#DejaVuSans-115"/>
      <use x="1376.800781" xlink:href="#DejaVuSans-111"/>
      <use x="1437.982422" xlink:href="#DejaVuSans-114"/>
     </g>
    </g>
    <g id="line2d_38">
     <path d="M 179.726844 66.263594 
L 199.726844 66.263594 
" style="fill:none;stroke:#2ca02c;stroke-linecap:square;stroke-width:1.5;"/>
    </g>
    <g id="line2d_39"/>
    <g id="text_21">
     <!-- Tamao del buffer de la cola intermedia -->
     <g transform="translate(207.726844 69.763594)scale(0.1 -0.1)">
      <use xlink:href="#DejaVuSans-84"/>
      <use x="60.833984" xlink:href="#DejaVuSans-97"/>
      <use x="122.113281" xlink:href="#DejaVuSans-109"/>
      <use x="219.525391" xlink:href="#DejaVuSans-97"/>
      <use x="280.804688" xlink:href="#DejaVuSans-241"/>
      <use x="344.183594" xlink:href="#DejaVuSans-111"/>
      <use x="405.365234" xlink:href="#DejaVuSans-32"/>
      <use x="437.152344" xlink:href="#DejaVuSans-100"/>
      <use x="500.628906" xlink:href="#DejaVuSans-101"/>
      <use x="562.152344" xlink:href="#DejaVuSans-108"/>
      <use x="589.935547" xlink:href="#DejaVuSans-32"/>
      <use x="621.722656" xlink:href="#DejaVuSans-98"/>
      <use x="685.199219" xlink:href="#DejaVuSans-117"/>
      <use x="748.578125" xlink:href="#DejaVuSans-102"/>
      <use x="783.783203" xlink:href="#DejaVuSans-102"/>
      <use x="818.988281" xlink:href="#DejaVuSans-101"/>
      <use x="880.511719" xlink:href="#DejaVuSans-114"/>
      <use x="921.625" xlink:href="#DejaVuSans-32"/>
      <use x="953.412109" xlink:href="#DejaVuSans-100"/>
      <use x="1016.888672" xlink:href="#DejaVuSans-101"/>
      <use x="1078.412109" xlink:href="#DejaVuSans-32"/>
      <use x="1110.199219" xlink:href="#DejaVuSans-108"/>
      <use x="1137.982422" xlink:href="#DejaVuSans-97"/>
      <use x="1199.261719" xlink:href="#DejaVuSans-32"/>
      <use x="1231.048828" xlink:href="#DejaVuSans-99"/>
      <use x="1286.029297" xlink:href="#DejaVuSans-111"/>
      <use x="1347.210938" xlink:href="#DejaVuSans-108"/>
      <use x="1374.994141" xlink:href="#DejaVuSans-97"/>
      <use x="1436.273438" xlink:href="#DejaVuSans-32"/>
      <use x="1468.060547" xlink:href="#DejaVuSans-105"/>
      <use x="1495.84375" xlink:href="#DejaVuSans-110"/>
      <use x="1559.222656" xlink:href="#DejaVuSans-116"/>
      <use x="1598.431641" xlink:href="#DejaVuSans-101"/>
      <use x="1659.955078" xlink:href="#DejaVuSans-114"/>
      <use x="1701.052734" xlink:href="#DejaVuSans-109"/>
      <use x="1798.464844" xlink:href="#DejaVuSans-101"/>
      <use x="1859.988281" xlink:href="#DejaVuSans-100"/>
      <use x="1923.464844" xlink:href="#DejaVuSans-105"/>
      <use x="1951.248047" xlink:href="#DejaVuSans-97"/>
     </g>
    </g>
   </g>
  </g>
 </g>
 <defs>
  <clipPath id="p475444189c">
   <rect height="228.044219" width="376.994032" x="40.985938" y="23.638594"/>
  </clipPath>
 </defs>
</svg>
