<?xml version="1.0" encoding="utf-8" standalone="no"?>
<!DOCTYPE svg PUBLIC "-//W3C//DTD SVG 1.1//EN"
  "http://www.w3.org/Graphics/SVG/1.1/DTD/svg11.dtd">
<svg xmlns:xlink="http://www.w3.org/1999/xlink" width="432pt" height="288pt" viewBox="0 0 432 288" xmlns="http://www.w3.org/2000/svg" version="1.1">
 <metadata>
  <rdf:RDF xmlns:dc="http://purl.org/dc/elements/1.1/" xmlns:cc="http://creativecommons.org/ns#" xmlns:rdf="http://www.w3.org/1999/02/22-rdf-syntax-ns#">
   <cc:Work>
    <dc:type rdf:resource="http://purl.org/dc/dcmitype/StillImage"/>
    <dc:date>2022-05-23T10:05:20.182806</dc:date>
    <dc:format>image/svg+xml</dc:format>
    <dc:creator>
     <cc:Agent>
      <dc:title>omnetpp.scave 6.0.0; Matplotlib 3.5.1 w/ backend GTK3Agg; Pandas 1.4.2; Python 3.8.10; Linux-5.4.0-109-generic-x86_64-with-glibc2.29</dc:title>
     </cc:Agent>
    </dc:creator>
   </cc:Work>
  </rdf:RDF>
 </metadata>
 <defs>
  <style type="text/css">*{stroke-linejoin: round; stroke-linecap: butt}</style>
 </defs>
 <g id="figure_1">
  <g id="patch_1">
   <path d="M 0 288 
L 432 288 
L 432 0 
L 0 0 
z
" style="fill: #ffffff"/>
  </g>
  <g id="axes_1">
   <g id="patch_2">
    <path d="M 47.58125 246.7 
L 415.442418 246.7 
L 415.442418 25.8 
L 47.58125 25.8 
z
" style="fill: #ffffff"/>
   </g>
   <g id="matplotlib.axis_1">
    <g id="xtick_1">
     <g id="line2d_1">
      <path d="M 47.58125 246.7 
L 47.58125 25.8 
" clip-path="url(#p038dd9114b)" style="fill: none; stroke: #b0b0b0; stroke-width: 0.8; stroke-linecap: square"/>
     </g>
     <g id="line2d_2">
      <defs>
       <path id="mcc540eb6e7" d="M 0 0 
L 0 3.5 
" style="stroke: #000000; stroke-width: 0.8"/>
      </defs>
      <g>
       <use xlink:href="#mcc540eb6e7" x="47.58125" y="246.7" style="stroke: #000000; stroke-width: 0.8"/>
      </g>
     </g>
     <g id="text_1">
      <!-- 0 -->
      <g transform="translate(44.4 261.298437)scale(0.1 -0.1)">
       <defs>
        <path id="DejaVuSans-30" d="M 2034 4250 
Q 1547 4250 1301 3770 
Q 1056 3291 1056 2328 
Q 1056 1369 1301 889 
Q 1547 409 2034 409 
Q 2525 409 2770 889 
Q 3016 1369 3016 2328 
Q 3016 3291 2770 3770 
Q 2525 4250 2034 4250 
z
M 2034 4750 
Q 2819 4750 3233 4129 
Q 3647 3509 3647 2328 
Q 3647 1150 3233 529 
Q 2819 -91 2034 -91 
Q 1250 -91 836 529 
Q 422 1150 422 2328 
Q 422 3509 836 4129 
Q 1250 4750 2034 4750 
z
" transform="scale(0.015625)"/>
       </defs>
       <use xlink:href="#DejaVuSans-30"/>
      </g>
     </g>
    </g>
    <g id="xtick_2">
     <g id="line2d_3">
      <path d="M 93.081612 246.7 
L 93.081612 25.8 
" clip-path="url(#p038dd9114b)" style="fill: none; stroke: #b0b0b0; stroke-width: 0.8; stroke-linecap: square"/>
     </g>
     <g id="line2d_4">
      <g>
       <use xlink:href="#mcc540eb6e7" x="93.081612" y="246.7" style="stroke: #000000; stroke-width: 0.8"/>
      </g>
     </g>
     <g id="text_2">
      <!-- 25 -->
      <g transform="translate(86.719112 261.298437)scale(0.1 -0.1)">
       <defs>
        <path id="DejaVuSans-32" d="M 1228 531 
L 3431 531 
L 3431 0 
L 469 0 
L 469 531 
Q 828 903 1448 1529 
Q 2069 2156 2228 2338 
Q 2531 2678 2651 2914 
Q 2772 3150 2772 3378 
Q 2772 3750 2511 3984 
Q 2250 4219 1831 4219 
Q 1534 4219 1204 4116 
Q 875 4013 500 3803 
L 500 4441 
Q 881 4594 1212 4672 
Q 1544 4750 1819 4750 
Q 2544 4750 2975 4387 
Q 3406 4025 3406 3419 
Q 3406 3131 3298 2873 
Q 3191 2616 2906 2266 
Q 2828 2175 2409 1742 
Q 1991 1309 1228 531 
z
" transform="scale(0.015625)"/>
        <path id="DejaVuSans-35" d="M 691 4666 
L 3169 4666 
L 3169 4134 
L 1269 4134 
L 1269 2991 
Q 1406 3038 1543 3061 
Q 1681 3084 1819 3084 
Q 2600 3084 3056 2656 
Q 3513 2228 3513 1497 
Q 3513 744 3044 326 
Q 2575 -91 1722 -91 
Q 1428 -91 1123 -41 
Q 819 9 494 109 
L 494 744 
Q 775 591 1075 516 
Q 1375 441 1709 441 
Q 2250 441 2565 725 
Q 2881 1009 2881 1497 
Q 2881 1984 2565 2268 
Q 2250 2553 1709 2553 
Q 1456 2553 1204 2497 
Q 953 2441 691 2322 
L 691 4666 
z
" transform="scale(0.015625)"/>
       </defs>
       <use xlink:href="#DejaVuSans-32"/>
       <use xlink:href="#DejaVuSans-35" x="63.623047"/>
      </g>
     </g>
    </g>
    <g id="xtick_3">
     <g id="line2d_5">
      <path d="M 138.581975 246.7 
L 138.581975 25.8 
" clip-path="url(#p038dd9114b)" style="fill: none; stroke: #b0b0b0; stroke-width: 0.8; stroke-linecap: square"/>
     </g>
     <g id="line2d_6">
      <g>
       <use xlink:href="#mcc540eb6e7" x="138.581975" y="246.7" style="stroke: #000000; stroke-width: 0.8"/>
      </g>
     </g>
     <g id="text_3">
      <!-- 50 -->
      <g transform="translate(132.219475 261.298437)scale(0.1 -0.1)">
       <use xlink:href="#DejaVuSans-35"/>
       <use xlink:href="#DejaVuSans-30" x="63.623047"/>
      </g>
     </g>
    </g>
    <g id="xtick_4">
     <g id="line2d_7">
      <path d="M 184.082337 246.7 
L 184.082337 25.8 
" clip-path="url(#p038dd9114b)" style="fill: none; stroke: #b0b0b0; stroke-width: 0.8; stroke-linecap: square"/>
     </g>
     <g id="line2d_8">
      <g>
       <use xlink:href="#mcc540eb6e7" x="184.082337" y="246.7" style="stroke: #000000; stroke-width: 0.8"/>
      </g>
     </g>
     <g id="text_4">
      <!-- 75 -->
      <g transform="translate(177.719837 261.298437)scale(0.1 -0.1)">
       <defs>
        <path id="DejaVuSans-37" d="M 525 4666 
L 3525 4666 
L 3525 4397 
L 1831 0 
L 1172 0 
L 2766 4134 
L 525 4134 
L 525 4666 
z
" transform="scale(0.015625)"/>
       </defs>
       <use xlink:href="#DejaVuSans-37"/>
       <use xlink:href="#DejaVuSans-35" x="63.623047"/>
      </g>
     </g>
    </g>
    <g id="xtick_5">
     <g id="line2d_9">
      <path d="M 229.5827 246.7 
L 229.5827 25.8 
" clip-path="url(#p038dd9114b)" style="fill: none; stroke: #b0b0b0; stroke-width: 0.8; stroke-linecap: square"/>
     </g>
     <g id="line2d_10">
      <g>
       <use xlink:href="#mcc540eb6e7" x="229.5827" y="246.7" style="stroke: #000000; stroke-width: 0.8"/>
      </g>
     </g>
     <g id="text_5">
      <!-- 100 -->
      <g transform="translate(220.03895 261.298437)scale(0.1 -0.1)">
       <defs>
        <path id="DejaVuSans-31" d="M 794 531 
L 1825 531 
L 1825 4091 
L 703 3866 
L 703 4441 
L 1819 4666 
L 2450 4666 
L 2450 531 
L 3481 531 
L 3481 0 
L 794 0 
L 794 531 
z
" transform="scale(0.015625)"/>
       </defs>
       <use xlink:href="#DejaVuSans-31"/>
       <use xlink:href="#DejaVuSans-30" x="63.623047"/>
       <use xlink:href="#DejaVuSans-30" x="127.246094"/>
      </g>
     </g>
    </g>
    <g id="xtick_6">
     <g id="line2d_11">
      <path d="M 275.083062 246.7 
L 275.083062 25.8 
" clip-path="url(#p038dd9114b)" style="fill: none; stroke: #b0b0b0; stroke-width: 0.8; stroke-linecap: square"/>
     </g>
     <g id="line2d_12">
      <g>
       <use xlink:href="#mcc540eb6e7" x="275.083062" y="246.7" style="stroke: #000000; stroke-width: 0.8"/>
      </g>
     </g>
     <g id="text_6">
      <!-- 125 -->
      <g transform="translate(265.539312 261.298437)scale(0.1 -0.1)">
       <use xlink:href="#DejaVuSans-31"/>
       <use xlink:href="#DejaVuSans-32" x="63.623047"/>
       <use xlink:href="#DejaVuSans-35" x="127.246094"/>
      </g>
     </g>
    </g>
    <g id="xtick_7">
     <g id="line2d_13">
      <path d="M 320.583424 246.7 
L 320.583424 25.8 
" clip-path="url(#p038dd9114b)" style="fill: none; stroke: #b0b0b0; stroke-width: 0.8; stroke-linecap: square"/>
     </g>
     <g id="line2d_14">
      <g>
       <use xlink:href="#mcc540eb6e7" x="320.583424" y="246.7" style="stroke: #000000; stroke-width: 0.8"/>
      </g>
     </g>
     <g id="text_7">
      <!-- 150 -->
      <g transform="translate(311.039674 261.298437)scale(0.1 -0.1)">
       <use xlink:href="#DejaVuSans-31"/>
       <use xlink:href="#DejaVuSans-35" x="63.623047"/>
       <use xlink:href="#DejaVuSans-30" x="127.246094"/>
      </g>
     </g>
    </g>
    <g id="xtick_8">
     <g id="line2d_15">
      <path d="M 366.083787 246.7 
L 366.083787 25.8 
" clip-path="url(#p038dd9114b)" style="fill: none; stroke: #b0b0b0; stroke-width: 0.8; stroke-linecap: square"/>
     </g>
     <g id="line2d_16">
      <g>
       <use xlink:href="#mcc540eb6e7" x="366.083787" y="246.7" style="stroke: #000000; stroke-width: 0.8"/>
      </g>
     </g>
     <g id="text_8">
      <!-- 175 -->
      <g transform="translate(356.540037 261.298437)scale(0.1 -0.1)">
       <use xlink:href="#DejaVuSans-31"/>
       <use xlink:href="#DejaVuSans-37" x="63.623047"/>
       <use xlink:href="#DejaVuSans-35" x="127.246094"/>
      </g>
     </g>
    </g>
    <g id="xtick_9">
     <g id="line2d_17">
      <path d="M 411.584149 246.7 
L 411.584149 25.8 
" clip-path="url(#p038dd9114b)" style="fill: none; stroke: #b0b0b0; stroke-width: 0.8; stroke-linecap: square"/>
     </g>
     <g id="line2d_18">
      <g>
       <use xlink:href="#mcc540eb6e7" x="411.584149" y="246.7" style="stroke: #000000; stroke-width: 0.8"/>
      </g>
     </g>
     <g id="text_9">
      <!-- 200 -->
      <g transform="translate(402.040399 261.298437)scale(0.1 -0.1)">
       <use xlink:href="#DejaVuSans-32"/>
       <use xlink:href="#DejaVuSans-30" x="63.623047"/>
       <use xlink:href="#DejaVuSans-30" x="127.246094"/>
      </g>
     </g>
    </g>
    <g id="text_10">
     <!-- Tiampo -->
     <g transform="translate(213.057147 274.976562)scale(0.1 -0.1)">
      <defs>
       <path id="DejaVuSans-54" d="M -19 4666 
L 3928 4666 
L 3928 4134 
L 2272 4134 
L 2272 0 
L 1638 0 
L 1638 4134 
L -19 4134 
L -19 4666 
z
" transform="scale(0.015625)"/>
       <path id="DejaVuSans-69" d="M 603 3500 
L 1178 3500 
L 1178 0 
L 603 0 
L 603 3500 
z
M 603 4863 
L 1178 4863 
L 1178 4134 
L 603 4134 
L 603 4863 
z
" transform="scale(0.015625)"/>
       <path id="DejaVuSans-61" d="M 2194 1759 
Q 1497 1759 1228 1600 
Q 959 1441 959 1056 
Q 959 750 1161 570 
Q 1363 391 1709 391 
Q 2188 391 2477 730 
Q 2766 1069 2766 1631 
L 2766 1759 
L 2194 1759 
z
M 3341 1997 
L 3341 0 
L 2766 0 
L 2766 531 
Q 2569 213 2275 61 
Q 1981 -91 1556 -91 
Q 1019 -91 701 211 
Q 384 513 384 1019 
Q 384 1609 779 1909 
Q 1175 2209 1959 2209 
L 2766 2209 
L 2766 2266 
Q 2766 2663 2505 2880 
Q 2244 3097 1772 3097 
Q 1472 3097 1187 3025 
Q 903 2953 641 2809 
L 641 3341 
Q 956 3463 1253 3523 
Q 1550 3584 1831 3584 
Q 2591 3584 2966 3190 
Q 3341 2797 3341 1997 
z
" transform="scale(0.015625)"/>
       <path id="DejaVuSans-6d" d="M 3328 2828 
Q 3544 3216 3844 3400 
Q 4144 3584 4550 3584 
Q 5097 3584 5394 3201 
Q 5691 2819 5691 2113 
L 5691 0 
L 5113 0 
L 5113 2094 
Q 5113 2597 4934 2840 
Q 4756 3084 4391 3084 
Q 3944 3084 3684 2787 
Q 3425 2491 3425 1978 
L 3425 0 
L 2847 0 
L 2847 2094 
Q 2847 2600 2669 2842 
Q 2491 3084 2119 3084 
Q 1678 3084 1418 2786 
Q 1159 2488 1159 1978 
L 1159 0 
L 581 0 
L 581 3500 
L 1159 3500 
L 1159 2956 
Q 1356 3278 1631 3431 
Q 1906 3584 2284 3584 
Q 2666 3584 2933 3390 
Q 3200 3197 3328 2828 
z
" transform="scale(0.015625)"/>
       <path id="DejaVuSans-70" d="M 1159 525 
L 1159 -1331 
L 581 -1331 
L 581 3500 
L 1159 3500 
L 1159 2969 
Q 1341 3281 1617 3432 
Q 1894 3584 2278 3584 
Q 2916 3584 3314 3078 
Q 3713 2572 3713 1747 
Q 3713 922 3314 415 
Q 2916 -91 2278 -91 
Q 1894 -91 1617 61 
Q 1341 213 1159 525 
z
M 3116 1747 
Q 3116 2381 2855 2742 
Q 2594 3103 2138 3103 
Q 1681 3103 1420 2742 
Q 1159 2381 1159 1747 
Q 1159 1113 1420 752 
Q 1681 391 2138 391 
Q 2594 391 2855 752 
Q 3116 1113 3116 1747 
z
" transform="scale(0.015625)"/>
       <path id="DejaVuSans-6f" d="M 1959 3097 
Q 1497 3097 1228 2736 
Q 959 2375 959 1747 
Q 959 1119 1226 758 
Q 1494 397 1959 397 
Q 2419 397 2687 759 
Q 2956 1122 2956 1747 
Q 2956 2369 2687 2733 
Q 2419 3097 1959 3097 
z
M 1959 3584 
Q 2709 3584 3137 3096 
Q 3566 2609 3566 1747 
Q 3566 888 3137 398 
Q 2709 -91 1959 -91 
Q 1206 -91 779 398 
Q 353 888 353 1747 
Q 353 2609 779 3096 
Q 1206 3584 1959 3584 
z
" transform="scale(0.015625)"/>
      </defs>
      <use xlink:href="#DejaVuSans-54"/>
      <use xlink:href="#DejaVuSans-69" x="57.958984"/>
      <use xlink:href="#DejaVuSans-61" x="85.742188"/>
      <use xlink:href="#DejaVuSans-6d" x="147.021484"/>
      <use xlink:href="#DejaVuSans-70" x="244.433594"/>
      <use xlink:href="#DejaVuSans-6f" x="307.910156"/>
     </g>
    </g>
   </g>
   <g id="matplotlib.axis_2">
    <g id="ytick_1">
     <g id="line2d_19">
      <path d="M 47.58125 246.7 
L 415.442418 246.7 
" clip-path="url(#p038dd9114b)" style="fill: none; stroke: #b0b0b0; stroke-width: 0.8; stroke-linecap: square"/>
     </g>
     <g id="line2d_20">
      <defs>
       <path id="m7bef409b0b" d="M 0 0 
L -3.5 0 
" style="stroke: #000000; stroke-width: 0.8"/>
      </defs>
      <g>
       <use xlink:href="#m7bef409b0b" x="47.58125" y="246.7" style="stroke: #000000; stroke-width: 0.8"/>
      </g>
     </g>
     <g id="text_11">
      <!-- 0.0 -->
      <g transform="translate(24.678125 250.499219)scale(0.1 -0.1)">
       <defs>
        <path id="DejaVuSans-2e" d="M 684 794 
L 1344 794 
L 1344 0 
L 684 0 
L 684 794 
z
" transform="scale(0.015625)"/>
       </defs>
       <use xlink:href="#DejaVuSans-30"/>
       <use xlink:href="#DejaVuSans-2e" x="63.623047"/>
       <use xlink:href="#DejaVuSans-30" x="95.410156"/>
      </g>
     </g>
    </g>
    <g id="ytick_2">
     <g id="line2d_21">
      <path d="M 47.58125 205.28125 
L 415.442418 205.28125 
" clip-path="url(#p038dd9114b)" style="fill: none; stroke: #b0b0b0; stroke-width: 0.8; stroke-linecap: square"/>
     </g>
     <g id="line2d_22">
      <g>
       <use xlink:href="#m7bef409b0b" x="47.58125" y="205.28125" style="stroke: #000000; stroke-width: 0.8"/>
      </g>
     </g>
     <g id="text_12">
      <!-- 0.5 -->
      <g transform="translate(24.678125 209.080469)scale(0.1 -0.1)">
       <use xlink:href="#DejaVuSans-30"/>
       <use xlink:href="#DejaVuSans-2e" x="63.623047"/>
       <use xlink:href="#DejaVuSans-35" x="95.410156"/>
      </g>
     </g>
    </g>
    <g id="ytick_3">
     <g id="line2d_23">
      <path d="M 47.58125 163.8625 
L 415.442418 163.8625 
" clip-path="url(#p038dd9114b)" style="fill: none; stroke: #b0b0b0; stroke-width: 0.8; stroke-linecap: square"/>
     </g>
     <g id="line2d_24">
      <g>
       <use xlink:href="#m7bef409b0b" x="47.58125" y="163.8625" style="stroke: #000000; stroke-width: 0.8"/>
      </g>
     </g>
     <g id="text_13">
      <!-- 1.0 -->
      <g transform="translate(24.678125 167.661719)scale(0.1 -0.1)">
       <use xlink:href="#DejaVuSans-31"/>
       <use xlink:href="#DejaVuSans-2e" x="63.623047"/>
       <use xlink:href="#DejaVuSans-30" x="95.410156"/>
      </g>
     </g>
    </g>
    <g id="ytick_4">
     <g id="line2d_25">
      <path d="M 47.58125 122.44375 
L 415.442418 122.44375 
" clip-path="url(#p038dd9114b)" style="fill: none; stroke: #b0b0b0; stroke-width: 0.8; stroke-linecap: square"/>
     </g>
     <g id="line2d_26">
      <g>
       <use xlink:href="#m7bef409b0b" x="47.58125" y="122.44375" style="stroke: #000000; stroke-width: 0.8"/>
      </g>
     </g>
     <g id="text_14">
      <!-- 1.5 -->
      <g transform="translate(24.678125 126.242969)scale(0.1 -0.1)">
       <use xlink:href="#DejaVuSans-31"/>
       <use xlink:href="#DejaVuSans-2e" x="63.623047"/>
       <use xlink:href="#DejaVuSans-35" x="95.410156"/>
      </g>
     </g>
    </g>
    <g id="ytick_5">
     <g id="line2d_27">
      <path d="M 47.58125 81.025 
L 415.442418 81.025 
" clip-path="url(#p038dd9114b)" style="fill: none; stroke: #b0b0b0; stroke-width: 0.8; stroke-linecap: square"/>
     </g>
     <g id="line2d_28">
      <g>
       <use xlink:href="#m7bef409b0b" x="47.58125" y="81.025" style="stroke: #000000; stroke-width: 0.8"/>
      </g>
     </g>
     <g id="text_15">
      <!-- 2.0 -->
      <g transform="translate(24.678125 84.824219)scale(0.1 -0.1)">
       <use xlink:href="#DejaVuSans-32"/>
       <use xlink:href="#DejaVuSans-2e" x="63.623047"/>
       <use xlink:href="#DejaVuSans-30" x="95.410156"/>
      </g>
     </g>
    </g>
    <g id="ytick_6">
     <g id="line2d_29">
      <path d="M 47.58125 39.60625 
L 415.442418 39.60625 
" clip-path="url(#p038dd9114b)" style="fill: none; stroke: #b0b0b0; stroke-width: 0.8; stroke-linecap: square"/>
     </g>
     <g id="line2d_30">
      <g>
       <use xlink:href="#m7bef409b0b" x="47.58125" y="39.60625" style="stroke: #000000; stroke-width: 0.8"/>
      </g>
     </g>
     <g id="text_16">
      <!-- 2.5 -->
      <g transform="translate(24.678125 43.405469)scale(0.1 -0.1)">
       <use xlink:href="#DejaVuSans-32"/>
       <use xlink:href="#DejaVuSans-2e" x="63.623047"/>
       <use xlink:href="#DejaVuSans-35" x="95.410156"/>
      </g>
     </g>
    </g>
    <g id="text_17">
     <!-- Paquetes -->
     <g transform="translate(18.598437 159.164844)rotate(-90)scale(0.1 -0.1)">
      <defs>
       <path id="DejaVuSans-50" d="M 1259 4147 
L 1259 2394 
L 2053 2394 
Q 2494 2394 2734 2622 
Q 2975 2850 2975 3272 
Q 2975 3691 2734 3919 
Q 2494 4147 2053 4147 
L 1259 4147 
z
M 628 4666 
L 2053 4666 
Q 2838 4666 3239 4311 
Q 3641 3956 3641 3272 
Q 3641 2581 3239 2228 
Q 2838 1875 2053 1875 
L 1259 1875 
L 1259 0 
L 628 0 
L 628 4666 
z
" transform="scale(0.015625)"/>
       <path id="DejaVuSans-71" d="M 947 1747 
Q 947 1113 1208 752 
Q 1469 391 1925 391 
Q 2381 391 2643 752 
Q 2906 1113 2906 1747 
Q 2906 2381 2643 2742 
Q 2381 3103 1925 3103 
Q 1469 3103 1208 2742 
Q 947 2381 947 1747 
z
M 2906 525 
Q 2725 213 2448 61 
Q 2172 -91 1784 -91 
Q 1150 -91 751 415 
Q 353 922 353 1747 
Q 353 2572 751 3078 
Q 1150 3584 1784 3584 
Q 2172 3584 2448 3432 
Q 2725 3281 2906 2969 
L 2906 3500 
L 3481 3500 
L 3481 -1331 
L 2906 -1331 
L 2906 525 
z
" transform="scale(0.015625)"/>
       <path id="DejaVuSans-75" d="M 544 1381 
L 544 3500 
L 1119 3500 
L 1119 1403 
Q 1119 906 1312 657 
Q 1506 409 1894 409 
Q 2359 409 2629 706 
Q 2900 1003 2900 1516 
L 2900 3500 
L 3475 3500 
L 3475 0 
L 2900 0 
L 2900 538 
Q 2691 219 2414 64 
Q 2138 -91 1772 -91 
Q 1169 -91 856 284 
Q 544 659 544 1381 
z
M 1991 3584 
L 1991 3584 
z
" transform="scale(0.015625)"/>
       <path id="DejaVuSans-65" d="M 3597 1894 
L 3597 1613 
L 953 1613 
Q 991 1019 1311 708 
Q 1631 397 2203 397 
Q 2534 397 2845 478 
Q 3156 559 3463 722 
L 3463 178 
Q 3153 47 2828 -22 
Q 2503 -91 2169 -91 
Q 1331 -91 842 396 
Q 353 884 353 1716 
Q 353 2575 817 3079 
Q 1281 3584 2069 3584 
Q 2775 3584 3186 3129 
Q 3597 2675 3597 1894 
z
M 3022 2063 
Q 3016 2534 2758 2815 
Q 2500 3097 2075 3097 
Q 1594 3097 1305 2825 
Q 1016 2553 972 2059 
L 3022 2063 
z
" transform="scale(0.015625)"/>
       <path id="DejaVuSans-74" d="M 1172 4494 
L 1172 3500 
L 2356 3500 
L 2356 3053 
L 1172 3053 
L 1172 1153 
Q 1172 725 1289 603 
Q 1406 481 1766 481 
L 2356 481 
L 2356 0 
L 1766 0 
Q 1100 0 847 248 
Q 594 497 594 1153 
L 594 3053 
L 172 3053 
L 172 3500 
L 594 3500 
L 594 4494 
L 1172 4494 
z
" transform="scale(0.015625)"/>
       <path id="DejaVuSans-73" d="M 2834 3397 
L 2834 2853 
Q 2591 2978 2328 3040 
Q 2066 3103 1784 3103 
Q 1356 3103 1142 2972 
Q 928 2841 928 2578 
Q 928 2378 1081 2264 
Q 1234 2150 1697 2047 
L 1894 2003 
Q 2506 1872 2764 1633 
Q 3022 1394 3022 966 
Q 3022 478 2636 193 
Q 2250 -91 1575 -91 
Q 1294 -91 989 -36 
Q 684 19 347 128 
L 347 722 
Q 666 556 975 473 
Q 1284 391 1588 391 
Q 1994 391 2212 530 
Q 2431 669 2431 922 
Q 2431 1156 2273 1281 
Q 2116 1406 1581 1522 
L 1381 1569 
Q 847 1681 609 1914 
Q 372 2147 372 2553 
Q 372 3047 722 3315 
Q 1072 3584 1716 3584 
Q 2034 3584 2315 3537 
Q 2597 3491 2834 3397 
z
" transform="scale(0.015625)"/>
      </defs>
      <use xlink:href="#DejaVuSans-50"/>
      <use xlink:href="#DejaVuSans-61" x="55.802734"/>
      <use xlink:href="#DejaVuSans-71" x="117.082031"/>
      <use xlink:href="#DejaVuSans-75" x="180.558594"/>
      <use xlink:href="#DejaVuSans-65" x="243.9375"/>
      <use xlink:href="#DejaVuSans-74" x="305.460938"/>
      <use xlink:href="#DejaVuSans-65" x="344.669922"/>
      <use xlink:href="#DejaVuSans-73" x="406.193359"/>
     </g>
    </g>
   </g>
   <g id="line2d_31">
    <path d="M 49.43962 246.7 
L 49.43962 163.8625 
L 49.43962 246.7 
L 51.075013 246.7 
L 51.075013 163.8625 
L 51.075013 246.7 
L 53.360826 246.7 
L 53.360826 163.8625 
L 53.360826 246.7 
L 56.745332 246.7 
L 56.745332 163.8625 
L 56.745332 246.7 
L 58.425612 246.7 
L 58.425612 163.8625 
L 58.425612 246.7 
L 61.977452 246.7 
L 61.977452 163.8625 
L 61.977452 246.7 
L 63.41017 246.7 
L 63.41017 163.8625 
L 63.41017 246.7 
L 66.829912 246.7 
L 66.829912 163.8625 
L 66.829912 246.7 
L 67.832828 246.7 
L 67.832828 163.8625 
L 67.832828 246.7 
L 69.610994 246.7 
L 69.610994 163.8625 
L 69.610994 246.7 
L 71.500459 246.7 
L 71.500459 163.8625 
L 71.500459 246.7 
L 72.383399 246.7 
L 72.383399 163.8625 
L 72.383399 246.7 
L 73.430852 246.7 
L 73.430852 163.8625 
L 73.430852 246.7 
L 74.073607 246.7 
L 74.073607 163.8625 
L 74.073607 246.7 
L 78.120454 246.7 
L 78.120454 163.8625 
L 78.120454 246.7 
L 78.347956 246.7 
L 78.347956 163.8625 
L 78.484457 163.8625 
L 78.484457 246.7 
L 84.259903 246.7 
L 84.259903 163.8625 
L 84.259903 246.7 
L 84.839316 246.7 
L 84.839316 163.8625 
L 84.839316 246.7 
L 85.719479 246.7 
L 85.719479 163.8625 
L 85.719479 246.7 
L 86.901481 246.7 
L 86.901481 163.8625 
L 86.901481 246.7 
L 89.756894 246.7 
L 89.756894 163.8625 
L 89.756894 246.7 
L 92.800343 246.7 
L 92.800343 163.8625 
L 92.800343 246.7 
L 94.170221 246.7 
L 94.170221 163.8625 
L 94.170221 246.7 
L 95.360296 246.7 
L 95.360296 163.8625 
L 95.360296 246.7 
L 96.888076 246.7 
L 96.888076 163.8625 
L 96.888076 246.7 
L 97.796031 246.7 
L 97.796031 163.8625 
L 97.796031 246.7 
L 102.524891 246.7 
L 102.524891 163.8625 
L 102.524891 246.7 
L 105.816149 246.7 
L 105.816149 163.8625 
L 105.816149 246.7 
L 106.043651 246.7 
L 106.043651 163.8625 
L 106.180152 163.8625 
L 106.180152 246.7 
L 106.699335 246.7 
L 106.699335 163.8625 
L 106.699335 246.7 
L 106.926837 246.7 
L 106.926837 163.8625 
L 107.063338 163.8625 
L 107.063338 246.7 
L 108.76646 246.7 
L 108.76646 163.8625 
L 108.76646 246.7 
L 108.993961 246.7 
L 108.993961 163.8625 
L 109.130463 163.8625 
L 109.130463 246.7 
L 109.639473 246.7 
L 109.639473 163.8625 
L 109.639473 246.7 
L 112.892726 246.7 
L 112.892726 163.8625 
L 112.892726 246.7 
L 118.626081 246.7 
L 118.626081 163.8625 
L 118.626081 246.7 
L 121.36663 246.7 
L 121.36663 163.8625 
L 121.36663 246.7 
L 121.641873 246.7 
L 121.641873 163.8625 
L 121.730633 246.7 
L 125.355274 246.7 
L 125.355274 163.8625 
L 125.355274 246.7 
L 129.069728 246.7 
L 129.069728 163.8625 
L 129.069728 246.7 
L 136.068087 246.7 
L 136.068087 163.8625 
L 136.068087 246.7 
L 137.236007 246.7 
L 137.236007 163.8625 
L 137.236007 246.7 
L 140.157566 246.7 
L 140.157566 163.8625 
L 140.157566 246.7 
L 143.095074 246.7 
L 143.095074 163.8625 
L 143.095074 246.7 
L 144.221534 246.7 
L 144.221534 163.8625 
L 144.221534 246.7 
L 145.55918 246.7 
L 145.55918 163.8625 
L 145.55918 246.7 
L 148.319298 246.7 
L 148.319298 163.8625 
L 148.319298 246.7 
L 150.386723 246.7 
L 150.386723 163.8625 
L 150.386723 246.7 
L 150.615816 246.7 
L 150.615816 163.8625 
L 150.750726 163.8625 
L 150.750726 246.7 
L 152.936749 246.7 
L 152.936749 163.8625 
L 152.936749 246.7 
L 154.79577 246.7 
L 154.79577 163.8625 
L 154.79577 246.7 
L 156.383407 246.7 
L 156.383407 163.8625 
L 156.383407 246.7 
L 156.665017 246.7 
L 156.665017 163.8625 
L 156.74741 246.7 
L 158.067948 246.7 
L 158.067948 163.8625 
L 158.067948 246.7 
L 163.335835 246.7 
L 163.335835 163.8625 
L 163.335835 246.7 
L 165.922739 246.7 
L 165.922739 163.8625 
L 165.922739 246.7 
L 167.265596 246.7 
L 167.265596 163.8625 
L 167.265596 246.7 
L 167.493097 246.7 
L 167.493097 163.8625 
L 167.629598 163.8625 
L 167.629598 246.7 
L 168.444077 246.7 
L 168.444077 163.8625 
L 168.444077 246.7 
L 169.61197 246.7 
L 169.61197 163.8625 
L 169.61197 246.7 
L 170.171225 246.7 
L 170.171225 163.8625 
L 170.171225 246.7 
L 170.546518 246.7 
L 170.546518 163.8625 
L 170.546518 246.7 
L 173.255163 246.7 
L 173.255163 163.8625 
L 173.255163 246.7 
L 175.685411 246.7 
L 175.685411 163.8625 
L 175.685411 246.7 
L 176.79395 246.7 
L 176.79395 163.8625 
L 176.79395 246.7 
L 177.238121 246.7 
L 177.238121 163.8625 
L 177.238121 246.7 
L 178.767543 246.7 
L 178.767543 163.8625 
L 178.767543 246.7 
L 179.031951 246.7 
L 179.031951 163.8625 
L 179.131546 246.7 
L 179.259453 246.7 
L 179.259453 163.8625 
L 179.495549 163.8625 
L 179.495549 246.7 
L 179.779502 246.7 
L 179.779502 163.8625 
L 179.859551 246.7 
L 181.52923 246.7 
L 181.52923 163.8625 
L 181.52923 246.7 
L 181.82432 246.7 
L 181.82432 163.8625 
L 181.893233 246.7 
L 183.547868 246.7 
L 183.547868 163.8625 
L 183.547868 246.7 
L 184.005496 246.7 
L 184.005496 163.8625 
L 184.005496 246.7 
L 185.751887 246.7 
L 185.751887 163.8625 
L 185.751887 246.7 
L 186.641068 246.7 
L 186.641068 163.8625 
L 186.641068 246.7 
L 191.878915 246.7 
L 191.878915 163.8625 
L 191.878915 246.7 
L 196.117571 246.7 
L 196.117571 163.8625 
L 196.117571 246.7 
L 198.201741 246.7 
L 198.201741 163.8625 
L 198.201741 246.7 
L 199.289647 246.7 
L 199.289647 163.8625 
L 199.289647 246.7 
L 200.100498 246.7 
L 200.100498 163.8625 
L 200.100498 246.7 
L 201.828591 246.7 
L 201.828591 163.8625 
L 201.828591 246.7 
L 202.874249 246.7 
L 202.874249 163.8625 
L 202.874249 246.7 
L 207.108241 246.7 
L 207.108241 163.8625 
L 207.108241 246.7 
L 209.285175 246.7 
L 209.285175 163.8625 
L 209.285175 246.7 
L 209.512677 246.7 
L 209.512677 163.8625 
L 209.649178 163.8625 
L 209.649178 246.7 
L 209.740179 163.8625 
L 210.013181 163.8625 
L 210.013181 246.7 
L 215.958968 246.7 
L 215.958968 163.8625 
L 215.958968 246.7 
L 217.959005 246.7 
L 217.959005 163.8625 
L 217.959005 246.7 
L 219.886098 246.7 
L 219.886098 163.8625 
L 219.886098 246.7 
L 221.907402 246.7 
L 221.907402 163.8625 
L 221.907402 246.7 
L 222.24852 246.7 
L 222.24852 163.8625 
L 222.271405 246.7 
L 222.67842 246.7 
L 222.67842 163.8625 
L 222.67842 246.7 
L 223.485421 246.7 
L 223.485421 163.8625 
L 223.485421 246.7 
L 223.736636 246.7 
L 223.736636 163.8625 
L 223.849424 163.8625 
L 223.849424 246.7 
L 226.264713 246.7 
L 226.264713 163.8625 
L 226.264713 246.7 
L 226.95443 246.7 
L 226.95443 163.8625 
L 226.95443 246.7 
L 228.658075 246.7 
L 228.658075 163.8625 
L 228.658075 246.7 
L 229.480908 246.7 
L 229.480908 163.8625 
L 229.480908 246.7 
L 230.196378 246.7 
L 230.196378 163.8625 
L 230.196378 246.7 
L 231.733249 246.7 
L 231.733249 163.8625 
L 231.733249 246.7 
L 231.960751 246.7 
L 231.960751 163.8625 
L 232.097252 163.8625 
L 232.097252 246.7 
L 232.855301 246.7 
L 232.855301 163.8625 
L 232.855301 246.7 
L 234.686001 246.7 
L 234.686001 163.8625 
L 234.686001 246.7 
L 242.79325 246.7 
L 242.79325 163.8625 
L 242.79325 246.7 
L 248.604459 246.7 
L 248.604459 163.8625 
L 248.604459 246.7 
L 248.831961 246.7 
L 248.831961 163.8625 
L 248.968462 163.8625 
L 248.968462 246.7 
L 250.725616 246.7 
L 250.725616 163.8625 
L 250.725616 246.7 
L 251.152048 246.7 
L 251.152048 163.8625 
L 251.152048 246.7 
L 252.986658 246.7 
L 252.986658 163.8625 
L 252.986658 246.7 
L 253.306823 246.7 
L 253.306823 163.8625 
L 253.350661 246.7 
L 263.062284 246.7 
L 263.062284 163.8625 
L 263.062284 246.7 
L 264.989211 246.7 
L 264.989211 163.8625 
L 264.989211 246.7 
L 266.57611 246.7 
L 266.57611 163.8625 
L 266.57611 246.7 
L 267.107701 246.7 
L 267.107701 163.8625 
L 267.107701 246.7 
L 268.081526 246.7 
L 268.081526 163.8625 
L 268.081526 246.7 
L 269.224389 246.7 
L 269.224389 163.8625 
L 269.224389 246.7 
L 270.39608 246.7 
L 270.39608 163.8625 
L 270.39608 246.7 
L 270.906188 246.7 
L 270.906188 163.8625 
L 270.906188 246.7 
L 272.684095 246.7 
L 272.684095 163.8625 
L 272.684095 246.7 
L 272.999189 246.7 
L 272.999189 163.8625 
L 273.048098 246.7 
L 273.749948 246.7 
L 273.749948 163.8625 
L 273.749948 246.7 
L 273.977449 246.7 
L 273.977449 163.8625 
L 274.113951 163.8625 
L 274.113951 246.7 
L 276.006991 246.7 
L 276.006991 163.8625 
L 276.006991 246.7 
L 277.950898 246.7 
L 277.950898 163.8625 
L 277.950898 246.7 
L 278.645335 246.7 
L 278.645335 163.8625 
L 278.645335 246.7 
L 278.915993 246.7 
L 278.915993 163.8625 
L 279.009338 246.7 
L 281.658091 246.7 
L 281.658091 163.8625 
L 281.658091 246.7 
L 282.056457 246.7 
L 282.056457 163.8625 
L 282.056457 246.7 
L 287.493186 246.7 
L 287.493186 163.8625 
L 287.493186 246.7 
L 288.330418 246.7 
L 288.330418 163.8625 
L 288.330418 246.7 
L 290.307444 246.7 
L 290.307444 163.8625 
L 290.307444 246.7 
L 293.438473 246.7 
L 293.438473 163.8625 
L 293.438473 246.7 
L 293.665975 246.7 
L 293.665975 163.8625 
L 293.802476 163.8625 
L 293.802476 246.7 
L 293.893476 163.8625 
L 294.166479 163.8625 
L 294.166479 246.7 
L 295.423947 246.7 
L 295.423947 163.8625 
L 295.423947 246.7 
L 298.736044 246.7 
L 298.736044 163.8625 
L 298.736044 246.7 
L 300.774123 246.7 
L 300.774123 163.8625 
L 300.774123 246.7 
L 301.001624 246.7 
L 301.001624 163.8625 
L 301.138125 163.8625 
L 301.138125 246.7 
L 307.46199 246.7 
L 307.46199 163.8625 
L 307.46199 246.7 
L 314.285282 246.7 
L 314.285282 163.8625 
L 314.285282 246.7 
L 318.116997 246.7 
L 318.116997 163.8625 
L 318.116997 246.7 
L 319.267859 246.7 
L 319.267859 163.8625 
L 319.267859 246.7 
L 320.564771 246.7 
L 320.564771 163.8625 
L 320.564771 246.7 
L 327.411533 246.7 
L 327.411533 163.8625 
L 327.411533 246.7 
L 327.639035 246.7 
L 327.639035 163.8625 
L 327.775536 163.8625 
L 327.775536 246.7 
L 329.205713 246.7 
L 329.205713 163.8625 
L 329.205713 246.7 
L 330.297625 246.7 
L 330.297625 163.8625 
L 330.297625 246.7 
L 332.744171 246.7 
L 332.744171 163.8625 
L 332.744171 246.7 
L 332.971673 246.7 
L 332.971673 163.8625 
L 333.108174 163.8625 
L 333.108174 246.7 
L 333.199175 163.8625 
L 333.472177 163.8625 
L 333.472177 246.7 
L 333.914522 246.7 
L 333.914522 163.8625 
L 333.914522 246.7 
L 334.519514 246.7 
L 334.519514 163.8625 
L 334.519514 246.7 
L 341.602228 246.7 
L 341.602228 163.8625 
L 341.602228 246.7 
L 341.835293 246.7 
L 341.835293 163.8625 
L 341.966231 163.8625 
L 341.966231 246.7 
L 342.645963 246.7 
L 342.645963 163.8625 
L 342.645963 246.7 
L 343.285108 246.7 
L 343.285108 163.8625 
L 343.285108 246.7 
L 344.478394 246.7 
L 344.478394 163.8625 
L 344.478394 246.7 
L 344.708423 246.7 
L 344.708423 163.8625 
L 344.842397 163.8625 
L 344.842397 246.7 
L 346.83215 246.7 
L 346.83215 163.8625 
L 346.83215 246.7 
L 347.528671 246.7 
L 347.528671 163.8625 
L 347.528671 246.7 
L 351.394814 246.7 
L 351.394814 163.8625 
L 351.394814 246.7 
L 352.368311 246.7 
L 352.368311 163.8625 
L 352.368311 246.7 
L 356.925467 246.7 
L 356.925467 163.8625 
L 356.925467 246.7 
L 357.152969 246.7 
L 357.152969 163.8625 
L 357.28947 163.8625 
L 357.28947 246.7 
L 357.490932 246.7 
L 357.490932 163.8625 
L 357.653473 163.8625 
L 357.653473 246.7 
L 359.637074 246.7 
L 359.637074 163.8625 
L 359.637074 246.7 
L 361.152862 246.7 
L 361.152862 163.8625 
L 361.152862 246.7 
L 362.674571 246.7 
L 362.674571 163.8625 
L 362.674571 246.7 
L 366.320498 246.7 
L 366.320498 163.8625 
L 366.320498 246.7 
L 366.881818 246.7 
L 366.881818 163.8625 
L 366.881818 246.7 
L 368.176299 246.7 
L 368.176299 163.8625 
L 368.176299 246.7 
L 369.524491 246.7 
L 369.524491 163.8625 
L 369.524491 246.7 
L 374.048287 246.7 
L 374.048287 163.8625 
L 374.048287 246.7 
L 374.275789 246.7 
L 374.275789 163.8625 
L 374.41229 163.8625 
L 374.41229 246.7 
L 378.851223 246.7 
L 378.851223 163.8625 
L 378.851223 246.7 
L 380.412606 246.7 
L 380.412606 163.8625 
L 380.412606 246.7 
L 380.640107 246.7 
L 380.640107 163.8625 
L 380.776608 163.8625 
L 380.776608 246.7 
L 385.392213 246.7 
L 385.392213 163.8625 
L 385.392213 246.7 
L 385.984338 246.7 
L 385.984338 163.8625 
L 385.984338 246.7 
L 386.682423 246.7 
L 386.682423 163.8625 
L 386.682423 246.7 
L 386.909925 246.7 
L 386.909925 163.8625 
L 387.046426 163.8625 
L 387.046426 246.7 
L 388.703088 246.7 
L 388.703088 163.8625 
L 388.703088 246.7 
L 392.065251 246.7 
L 392.065251 163.8625 
L 392.065251 246.7 
L 392.322475 246.7 
L 392.322475 163.8625 
L 392.429254 246.7 
L 394.218531 246.7 
L 394.218531 163.8625 
L 394.218531 246.7 
L 396.511628 246.7 
L 396.511628 163.8625 
L 396.511628 246.7 
L 399.862789 246.7 
L 399.862789 163.8625 
L 399.862789 246.7 
L 400.484605 246.7 
L 400.484605 163.8625 
L 400.484605 246.7 
L 401.044292 246.7 
L 401.044292 163.8625 
L 401.044292 246.7 
L 401.412572 246.7 
L 401.412572 163.8625 
L 401.412572 246.7 
L 402.335684 246.7 
L 402.335684 163.8625 
L 402.335684 246.7 
L 403.942991 246.7 
L 403.942991 163.8625 
L 403.942991 246.7 
L 405.407734 246.7 
L 405.407734 163.8625 
L 405.407734 246.7 
L 405.635236 246.7 
L 405.635236 163.8625 
L 405.771737 163.8625 
L 405.771737 246.7 
L 405.862738 163.8625 
L 406.13574 163.8625 
L 406.13574 246.7 
L 408.986439 246.7 
L 408.986439 163.8625 
L 408.986439 246.7 
L 409.826796 246.7 
L 409.826796 163.8625 
L 409.826796 246.7 
L 410.054298 246.7 
L 410.054298 163.8625 
L 410.190799 163.8625 
L 410.190799 246.7 
L 410.2818 163.8625 
L 410.554802 163.8625 
L 410.554802 246.7 
L 410.918805 246.7 
L 410.918805 246.7 
" clip-path="url(#p038dd9114b)" style="fill: none; stroke: #1f77b4; stroke-width: 1.5; stroke-linecap: square"/>
   </g>
   <g id="line2d_32">
    <path d="M 49.029753 246.7 
L 49.029753 163.8625 
L 49.029753 246.7 
L 50.665146 246.7 
L 50.665146 163.8625 
L 50.665146 246.7 
L 52.950958 246.7 
L 52.950958 163.8625 
L 52.950958 246.7 
L 56.335465 246.7 
L 56.335465 163.8625 
L 56.335465 246.7 
L 58.015744 246.7 
L 58.015744 163.8625 
L 58.015744 246.7 
L 61.567585 246.7 
L 61.567585 163.8625 
L 61.567585 246.7 
L 63.000303 246.7 
L 63.000303 163.8625 
L 63.000303 246.7 
L 66.420044 246.7 
L 66.420044 163.8625 
L 66.420044 246.7 
L 67.422961 246.7 
L 67.422961 163.8625 
L 67.422961 246.7 
L 69.201127 246.7 
L 69.201127 163.8625 
L 69.201127 246.7 
L 71.090592 246.7 
L 71.090592 163.8625 
L 71.090592 246.7 
L 71.973532 246.7 
L 71.973532 163.8625 
L 71.973532 246.7 
L 73.020985 246.7 
L 73.020985 163.8625 
L 73.020985 246.7 
L 73.66374 246.7 
L 73.66374 163.8625 
L 73.66374 246.7 
L 77.710587 246.7 
L 77.710587 163.8625 
L 77.816847 163.8625 
L 77.892588 163.8625 
L 77.892588 246.7 
L 83.850036 246.7 
L 83.850036 163.8625 
L 83.850036 246.7 
L 84.429449 246.7 
L 84.429449 163.8625 
L 84.429449 246.7 
L 85.309612 246.7 
L 85.309612 163.8625 
L 85.309612 246.7 
L 86.491613 246.7 
L 86.491613 163.8625 
L 86.491613 246.7 
L 89.347027 246.7 
L 89.347027 163.8625 
L 89.347027 246.7 
L 92.390476 246.7 
L 92.390476 163.8625 
L 92.390476 246.7 
L 93.760353 246.7 
L 93.760353 163.8625 
L 93.760353 246.7 
L 94.950429 246.7 
L 94.950429 163.8625 
L 94.950429 246.7 
L 96.478209 246.7 
L 96.478209 163.8625 
L 96.478209 246.7 
L 97.386163 246.7 
L 97.386163 163.8625 
L 97.386163 246.7 
L 102.115023 246.7 
L 102.115023 163.8625 
L 102.115023 246.7 
L 105.406282 246.7 
L 105.406282 163.8625 
L 105.406282 246.7 
L 105.54039 246.7 
L 105.54039 163.8625 
L 105.588283 246.7 
L 106.289468 246.7 
L 106.289468 163.8625 
L 106.289468 246.7 
L 106.455382 246.7 
L 106.455382 163.8625 
L 106.47147 246.7 
L 108.356592 246.7 
L 108.356592 163.8625 
L 108.393767 163.8625 
L 108.538594 163.8625 
L 108.538594 246.7 
L 109.229606 246.7 
L 109.229606 163.8625 
L 109.229606 246.7 
L 112.482859 246.7 
L 112.482859 163.8625 
L 112.482859 246.7 
L 118.216214 246.7 
L 118.216214 163.8625 
L 118.216214 246.7 
L 120.956763 246.7 
L 120.956763 163.8625 
L 120.956763 246.7 
L 121.232005 246.7 
L 121.232005 163.8625 
L 121.232005 246.7 
L 124.945407 246.7 
L 124.945407 163.8625 
L 124.945407 246.7 
L 128.65986 246.7 
L 128.65986 163.8625 
L 128.65986 246.7 
L 135.65822 246.7 
L 135.65822 163.8625 
L 135.65822 246.7 
L 136.82614 246.7 
L 136.82614 163.8625 
L 136.82614 246.7 
L 139.747699 246.7 
L 139.747699 163.8625 
L 139.747699 246.7 
L 142.685206 246.7 
L 142.685206 163.8625 
L 142.685206 246.7 
L 143.811667 246.7 
L 143.811667 163.8625 
L 143.811667 246.7 
L 145.149313 246.7 
L 145.149313 163.8625 
L 145.149313 246.7 
L 147.90943 246.7 
L 147.90943 163.8625 
L 147.90943 246.7 
L 149.976856 246.7 
L 149.976856 163.8625 
L 149.976856 246.7 
L 150.205949 246.7 
L 150.205949 163.8625 
L 150.205949 246.7 
L 152.526882 246.7 
L 152.526882 163.8625 
L 152.526882 246.7 
L 154.385903 246.7 
L 154.385903 163.8625 
L 154.385903 246.7 
L 155.97354 246.7 
L 155.97354 163.8625 
L 155.97354 246.7 
L 156.25515 246.7 
L 156.25515 163.8625 
L 156.25515 246.7 
L 157.65808 246.7 
L 157.65808 163.8625 
L 157.65808 246.7 
L 162.925968 246.7 
L 162.925968 163.8625 
L 162.925968 246.7 
L 165.512872 246.7 
L 165.512872 163.8625 
L 165.512872 246.7 
L 166.855728 246.7 
L 166.855728 163.8625 
L 166.855728 246.7 
L 167.059472 246.7 
L 167.059472 163.8625 
L 167.059472 246.7 
L 168.034209 246.7 
L 168.034209 163.8625 
L 168.034209 246.7 
L 169.202103 246.7 
L 169.202103 163.8625 
L 169.202103 246.7 
L 169.761358 246.7 
L 169.761358 163.8625 
L 169.761358 246.7 
L 170.136651 246.7 
L 170.136651 163.8625 
L 170.136651 246.7 
L 172.845296 246.7 
L 172.845296 163.8625 
L 172.845296 246.7 
L 175.275543 246.7 
L 175.275543 163.8625 
L 175.275543 246.7 
L 176.384082 246.7 
L 176.384082 163.8625 
L 176.384082 246.7 
L 176.828254 246.7 
L 176.828254 163.8625 
L 176.828254 246.7 
L 178.357675 246.7 
L 178.357675 163.8625 
L 178.357675 246.7 
L 178.622084 246.7 
L 178.622084 163.8625 
L 178.656607 163.8625 
L 178.804085 163.8625 
L 178.804085 246.7 
L 179.369635 246.7 
L 179.369635 163.8625 
L 179.369635 246.7 
L 181.119362 246.7 
L 181.119362 163.8625 
L 181.119362 246.7 
L 181.414453 246.7 
L 181.414453 163.8625 
L 181.414453 246.7 
L 183.138001 246.7 
L 183.138001 163.8625 
L 183.138001 246.7 
L 183.595629 246.7 
L 183.595629 163.8625 
L 183.595629 246.7 
L 185.34202 246.7 
L 185.34202 163.8625 
L 185.34202 246.7 
L 186.231201 246.7 
L 186.231201 163.8625 
L 186.231201 246.7 
L 191.469048 246.7 
L 191.469048 163.8625 
L 191.469048 246.7 
L 195.707704 246.7 
L 195.707704 163.8625 
L 195.707704 246.7 
L 197.791874 246.7 
L 197.791874 163.8625 
L 197.791874 246.7 
L 198.87978 246.7 
L 198.87978 163.8625 
L 198.87978 246.7 
L 199.69063 246.7 
L 199.69063 163.8625 
L 199.69063 246.7 
L 201.418724 246.7 
L 201.418724 163.8625 
L 201.418724 246.7 
L 202.464381 246.7 
L 202.464381 163.8625 
L 202.464381 246.7 
L 206.698374 246.7 
L 206.698374 163.8625 
L 206.698374 246.7 
L 208.875308 246.7 
L 208.875308 163.8625 
L 208.875308 246.7 
L 209.065611 246.7 
L 209.065611 163.8625 
L 209.065611 246.7 
L 209.178661 246.7 
L 209.178661 163.8625 
L 209.247612 246.7 
L 215.549101 246.7 
L 215.549101 163.8625 
L 215.549101 246.7 
L 217.549138 246.7 
L 217.549138 163.8625 
L 217.549138 246.7 
L 219.476231 246.7 
L 219.476231 163.8625 
L 219.476231 246.7 
L 221.497535 246.7 
L 221.497535 163.8625 
L 221.497535 246.7 
L 221.838653 246.7 
L 221.838653 163.8625 
L 221.838653 246.7 
L 222.268552 246.7 
L 222.268552 163.8625 
L 222.268552 246.7 
L 223.075554 246.7 
L 223.075554 163.8625 
L 223.075554 246.7 
L 223.326768 246.7 
L 223.326768 163.8625 
L 223.326768 246.7 
L 225.854846 246.7 
L 225.854846 163.8625 
L 225.854846 246.7 
L 226.544562 246.7 
L 226.544562 163.8625 
L 226.544562 246.7 
L 228.248208 246.7 
L 228.248208 163.8625 
L 228.248208 246.7 
L 229.07104 246.7 
L 229.07104 163.8625 
L 229.07104 246.7 
L 229.786511 246.7 
L 229.786511 163.8625 
L 229.786511 246.7 
L 231.323382 246.7 
L 231.323382 163.8625 
L 231.394696 163.8625 
L 231.505383 163.8625 
L 231.505383 246.7 
L 232.445434 246.7 
L 232.445434 163.8625 
L 232.445434 246.7 
L 234.276134 246.7 
L 234.276134 163.8625 
L 234.276134 246.7 
L 242.383383 246.7 
L 242.383383 163.8625 
L 242.383383 246.7 
L 248.194592 246.7 
L 248.194592 163.8625 
L 248.194592 246.7 
L 248.39049 246.7 
L 248.39049 163.8625 
L 248.39049 246.7 
L 250.315749 246.7 
L 250.315749 163.8625 
L 250.315749 246.7 
L 250.742181 246.7 
L 250.742181 163.8625 
L 250.742181 246.7 
L 252.576791 246.7 
L 252.576791 163.8625 
L 252.576791 246.7 
L 252.896956 246.7 
L 252.896956 163.8625 
L 252.896956 246.7 
L 262.652416 246.7 
L 262.652416 163.8625 
L 262.652416 246.7 
L 264.579343 246.7 
L 264.579343 163.8625 
L 264.579343 246.7 
L 266.166243 246.7 
L 266.166243 163.8625 
L 266.166243 246.7 
L 266.697834 246.7 
L 266.697834 163.8625 
L 266.697834 246.7 
L 267.671659 246.7 
L 267.671659 163.8625 
L 267.671659 246.7 
L 268.814522 246.7 
L 268.814522 163.8625 
L 268.814522 246.7 
L 269.986213 246.7 
L 269.986213 163.8625 
L 269.986213 246.7 
L 270.496321 246.7 
L 270.496321 163.8625 
L 270.496321 246.7 
L 272.274228 246.7 
L 272.274228 163.8625 
L 272.274228 246.7 
L 272.589322 246.7 
L 272.589322 163.8625 
L 272.589322 246.7 
L 273.34008 246.7 
L 273.34008 163.8625 
L 273.34008 246.7 
L 273.552941 246.7 
L 273.552941 163.8625 
L 273.552941 246.7 
L 275.597123 246.7 
L 275.597123 163.8625 
L 275.597123 246.7 
L 277.54103 246.7 
L 277.54103 163.8625 
L 277.54103 246.7 
L 278.235468 246.7 
L 278.235468 163.8625 
L 278.235468 246.7 
L 278.506126 246.7 
L 278.506126 163.8625 
L 278.506126 246.7 
L 281.248224 246.7 
L 281.248224 163.8625 
L 281.248224 246.7 
L 281.64659 246.7 
L 281.64659 163.8625 
L 281.64659 246.7 
L 287.083319 246.7 
L 287.083319 163.8625 
L 287.083319 246.7 
L 287.920551 246.7 
L 287.920551 163.8625 
L 287.920551 246.7 
L 289.897577 246.7 
L 289.897577 163.8625 
L 289.897577 246.7 
L 293.028606 246.7 
L 293.028606 163.8625 
L 293.053475 163.8625 
L 293.210607 163.8625 
L 293.210607 246.7 
L 293.23938 163.8625 
L 293.392608 163.8625 
L 293.392608 246.7 
L 295.01408 246.7 
L 295.01408 163.8625 
L 295.01408 246.7 
L 298.326177 246.7 
L 298.326177 163.8625 
L 298.326177 246.7 
L 300.364255 246.7 
L 300.364255 163.8625 
L 300.364255 246.7 
L 300.54814 246.7 
L 300.54814 163.8625 
L 300.54814 246.7 
L 307.052123 246.7 
L 307.052123 163.8625 
L 307.052123 246.7 
L 313.875414 246.7 
L 313.875414 163.8625 
L 313.875414 246.7 
L 317.70713 246.7 
L 317.70713 163.8625 
L 317.70713 246.7 
L 318.857991 246.7 
L 318.857991 163.8625 
L 318.857991 246.7 
L 320.154904 246.7 
L 320.154904 163.8625 
L 320.154904 246.7 
L 327.001666 246.7 
L 327.001666 163.8625 
L 327.106002 163.8625 
L 327.183667 163.8625 
L 327.183667 246.7 
L 328.795846 246.7 
L 328.795846 163.8625 
L 328.795846 246.7 
L 329.887758 246.7 
L 329.887758 163.8625 
L 329.887758 246.7 
L 332.334304 246.7 
L 332.443808 81.025 
L 332.516306 81.025 
L 332.516306 163.8625 
L 332.698307 163.8625 
L 332.698307 246.7 
L 333.504655 246.7 
L 333.504655 163.8625 
L 333.504655 246.7 
L 334.109646 246.7 
L 334.109646 163.8625 
L 334.109646 246.7 
L 341.19236 246.7 
L 341.19236 163.8625 
L 341.19236 246.7 
L 341.425426 246.7 
L 341.425426 163.8625 
L 341.425426 246.7 
L 342.236096 246.7 
L 342.236096 163.8625 
L 342.236096 246.7 
L 342.875241 246.7 
L 342.875241 163.8625 
L 342.875241 246.7 
L 344.068527 246.7 
L 344.068527 163.8625 
L 344.068527 246.7 
L 344.298556 246.7 
L 344.298556 163.8625 
L 344.298556 246.7 
L 346.422283 246.7 
L 346.422283 163.8625 
L 346.422283 246.7 
L 347.118804 246.7 
L 347.118804 163.8625 
L 347.118804 246.7 
L 350.984946 246.7 
L 350.984946 163.8625 
L 350.984946 246.7 
L 351.958444 246.7 
L 351.958444 163.8625 
L 351.958444 246.7 
L 356.5156 246.7 
L 356.5156 163.8625 
L 356.5156 246.7 
L 356.636262 246.7 
L 356.636262 163.8625 
L 356.697601 246.7 
L 357.081065 246.7 
L 357.081065 163.8625 
L 357.081065 246.7 
L 359.227207 246.7 
L 359.227207 163.8625 
L 359.227207 246.7 
L 360.742994 246.7 
L 360.742994 163.8625 
L 360.742994 246.7 
L 362.264704 246.7 
L 362.264704 163.8625 
L 362.264704 246.7 
L 365.910631 246.7 
L 365.910631 163.8625 
L 365.910631 246.7 
L 366.47195 246.7 
L 366.47195 163.8625 
L 366.47195 246.7 
L 367.766432 246.7 
L 367.766432 163.8625 
L 367.766432 246.7 
L 369.114624 246.7 
L 369.114624 163.8625 
L 369.114624 246.7 
L 373.63842 246.7 
L 373.63842 163.8625 
L 373.63842 246.7 
L 373.817965 246.7 
L 373.817965 163.8625 
L 373.820421 246.7 
L 378.441356 246.7 
L 378.441356 163.8625 
L 378.441356 246.7 
L 380.002738 246.7 
L 380.002738 163.8625 
L 380.002738 246.7 
L 380.160662 246.7 
L 380.160662 163.8625 
L 380.18474 246.7 
L 384.982346 246.7 
L 384.982346 163.8625 
L 384.982346 246.7 
L 385.57447 246.7 
L 385.57447 163.8625 
L 385.57447 246.7 
L 386.272555 246.7 
L 386.272555 163.8625 
L 386.289665 163.8625 
L 386.454557 163.8625 
L 386.454557 246.7 
L 388.29322 246.7 
L 388.29322 163.8625 
L 388.29322 246.7 
L 391.655384 246.7 
L 391.655384 163.8625 
L 391.655384 246.7 
L 391.912608 246.7 
L 391.912608 163.8625 
L 391.912608 246.7 
L 393.808663 246.7 
L 393.808663 163.8625 
L 393.808663 246.7 
L 396.101761 246.7 
L 396.101761 163.8625 
L 396.101761 246.7 
L 399.452922 246.7 
L 399.452922 163.8625 
L 399.452922 246.7 
L 400.074738 246.7 
L 400.074738 163.8625 
L 400.074738 246.7 
L 400.634424 246.7 
L 400.634424 163.8625 
L 400.634424 246.7 
L 401.002705 246.7 
L 401.002705 163.8625 
L 401.002705 246.7 
L 401.925817 246.7 
L 401.925817 163.8625 
L 401.925817 246.7 
L 403.533124 246.7 
L 403.533124 163.8625 
L 403.533124 246.7 
L 404.997867 246.7 
L 404.997867 163.8625 
L 405.034836 163.8625 
L 405.179869 163.8625 
L 405.179869 246.7 
L 405.362898 246.7 
L 405.362898 163.8625 
L 405.362898 246.7 
L 408.576572 246.7 
L 408.576572 163.8625 
L 408.576572 246.7 
L 409.416929 246.7 
L 409.416929 163.8625 
L 409.425495 163.8625 
L 409.598931 163.8625 
L 409.598931 246.7 
L 409.713679 246.7 
L 409.713679 163.8625 
L 409.780932 246.7 
L 409.962933 246.7 
L 409.962933 246.7 
" clip-path="url(#p038dd9114b)" style="fill: none; stroke: #ff7f0e; stroke-width: 1.5; stroke-linecap: square"/>
   </g>
   <g id="line2d_33">
    <path d="M 49.211937 246.7 
L 49.211937 163.8625 
L 49.211937 246.7 
L 50.84733 246.7 
L 50.84733 163.8625 
L 50.84733 246.7 
L 53.133142 246.7 
L 53.133142 163.8625 
L 53.133142 246.7 
L 56.517648 246.7 
L 56.517648 163.8625 
L 56.517648 246.7 
L 58.197928 246.7 
L 58.197928 163.8625 
L 58.197928 246.7 
L 61.749769 246.7 
L 61.749769 163.8625 
L 61.749769 246.7 
L 63.182486 246.7 
L 63.182486 163.8625 
L 63.182486 246.7 
L 66.602228 246.7 
L 66.602228 163.8625 
L 66.602228 246.7 
L 67.605144 246.7 
L 67.605144 163.8625 
L 67.605144 246.7 
L 69.38331 246.7 
L 69.38331 163.8625 
L 69.38331 246.7 
L 71.272775 246.7 
L 71.272775 163.8625 
L 71.272775 246.7 
L 72.155715 246.7 
L 72.155715 163.8625 
L 72.155715 246.7 
L 73.203169 246.7 
L 73.203169 163.8625 
L 73.203169 246.7 
L 73.845923 246.7 
L 73.845923 163.8625 
L 73.845923 246.7 
L 77.89277 246.7 
L 77.89277 163.8625 
L 77.89277 246.7 
L 78.074771 246.7 
L 78.074771 163.8625 
L 78.120272 246.7 
L 84.032219 246.7 
L 84.032219 163.8625 
L 84.032219 246.7 
L 84.611632 246.7 
L 84.611632 163.8625 
L 84.611632 246.7 
L 85.491795 246.7 
L 85.491795 163.8625 
L 85.491795 246.7 
L 86.673797 246.7 
L 86.673797 163.8625 
L 86.673797 246.7 
L 89.52921 246.7 
L 89.52921 163.8625 
L 89.52921 246.7 
L 92.572659 246.7 
L 92.572659 163.8625 
L 92.572659 246.7 
L 93.942537 246.7 
L 93.942537 163.8625 
L 93.942537 246.7 
L 95.132613 246.7 
L 95.132613 163.8625 
L 95.132613 246.7 
L 96.660393 246.7 
L 96.660393 163.8625 
L 96.660393 246.7 
L 97.568347 246.7 
L 97.568347 163.8625 
L 97.568347 246.7 
L 102.297207 246.7 
L 102.297207 163.8625 
L 102.297207 246.7 
L 105.588465 246.7 
L 105.588465 163.8625 
L 105.588465 246.7 
L 105.770467 246.7 
L 105.770467 163.8625 
L 105.815967 246.7 
L 106.471652 246.7 
L 106.471652 163.8625 
L 106.471652 246.7 
L 106.653653 246.7 
L 106.653653 163.8625 
L 106.699153 246.7 
L 108.538776 246.7 
L 108.538776 163.8625 
L 108.538776 246.7 
L 108.720777 246.7 
L 108.720777 163.8625 
L 108.766278 246.7 
L 109.411789 246.7 
L 109.411789 163.8625 
L 109.411789 246.7 
L 112.665042 246.7 
L 112.665042 163.8625 
L 112.665042 246.7 
L 118.398397 246.7 
L 118.398397 163.8625 
L 118.398397 246.7 
L 121.138947 246.7 
L 121.138947 163.8625 
L 121.138947 246.7 
L 121.414189 246.7 
L 121.414189 163.8625 
L 121.414189 246.7 
L 125.12759 246.7 
L 125.12759 163.8625 
L 125.12759 246.7 
L 128.842044 246.7 
L 128.842044 163.8625 
L 128.842044 246.7 
L 135.840403 246.7 
L 135.840403 163.8625 
L 135.840403 246.7 
L 137.008323 246.7 
L 137.008323 163.8625 
L 137.008323 246.7 
L 139.929883 246.7 
L 139.929883 163.8625 
L 139.929883 246.7 
L 142.86739 246.7 
L 142.86739 163.8625 
L 142.86739 246.7 
L 143.99385 246.7 
L 143.99385 163.8625 
L 143.99385 246.7 
L 145.331496 246.7 
L 145.331496 163.8625 
L 145.331496 246.7 
L 148.091614 246.7 
L 148.091614 163.8625 
L 148.091614 246.7 
L 150.159039 246.7 
L 150.159039 163.8625 
L 150.159039 246.7 
L 150.388132 246.7 
L 150.388132 163.8625 
L 150.388132 246.7 
L 152.709065 246.7 
L 152.709065 163.8625 
L 152.709065 246.7 
L 154.568086 246.7 
L 154.568086 163.8625 
L 154.568086 246.7 
L 156.155723 246.7 
L 156.155723 163.8625 
L 156.155723 246.7 
L 156.437334 246.7 
L 156.437334 163.8625 
L 156.437334 246.7 
L 157.840264 246.7 
L 157.840264 163.8625 
L 157.840264 246.7 
L 163.108151 246.7 
L 163.108151 163.8625 
L 163.108151 246.7 
L 165.695055 246.7 
L 165.695055 163.8625 
L 165.695055 246.7 
L 167.037912 246.7 
L 167.037912 163.8625 
L 167.037912 246.7 
L 167.241655 246.7 
L 167.241655 163.8625 
L 167.265414 246.7 
L 168.216393 246.7 
L 168.216393 163.8625 
L 168.216393 246.7 
L 169.384286 246.7 
L 169.384286 163.8625 
L 169.384286 246.7 
L 169.943541 246.7 
L 169.943541 163.8625 
L 169.943541 246.7 
L 170.318834 246.7 
L 170.318834 163.8625 
L 170.318834 246.7 
L 173.027479 246.7 
L 173.027479 163.8625 
L 173.027479 246.7 
L 175.457727 246.7 
L 175.457727 163.8625 
L 175.457727 246.7 
L 176.566266 246.7 
L 176.566266 163.8625 
L 176.566266 246.7 
L 177.010438 246.7 
L 177.010438 163.8625 
L 177.010438 246.7 
L 178.539859 246.7 
L 178.539859 163.8625 
L 178.539859 246.7 
L 178.804267 246.7 
L 178.804267 163.8625 
L 178.804267 246.7 
L 178.986268 246.7 
L 178.986268 163.8625 
L 179.031769 246.7 
L 179.551819 246.7 
L 179.551819 163.8625 
L 179.551819 246.7 
L 181.301546 246.7 
L 181.301546 163.8625 
L 181.301546 246.7 
L 181.596637 246.7 
L 181.596637 163.8625 
L 181.596637 246.7 
L 183.320184 246.7 
L 183.320184 163.8625 
L 183.320184 246.7 
L 183.777812 246.7 
L 183.777812 163.8625 
L 183.777812 246.7 
L 185.524204 246.7 
L 185.524204 163.8625 
L 185.524204 246.7 
L 186.413384 246.7 
L 186.413384 163.8625 
L 186.413384 246.7 
L 191.651231 246.7 
L 191.651231 163.8625 
L 191.651231 246.7 
L 195.889888 246.7 
L 195.889888 163.8625 
L 195.889888 246.7 
L 197.974057 246.7 
L 197.974057 163.8625 
L 197.974057 246.7 
L 199.061964 246.7 
L 199.061964 163.8625 
L 199.061964 246.7 
L 199.872814 246.7 
L 199.872814 163.8625 
L 199.872814 246.7 
L 201.600908 246.7 
L 201.600908 163.8625 
L 201.600908 246.7 
L 202.646565 246.7 
L 202.646565 163.8625 
L 202.646565 246.7 
L 206.880558 246.7 
L 206.880558 163.8625 
L 206.880558 246.7 
L 209.057491 246.7 
L 209.057491 163.8625 
L 209.057491 246.7 
L 209.247794 246.7 
L 209.247794 163.8625 
L 209.284993 246.7 
L 209.429796 246.7 
L 209.429796 163.8625 
L 209.512495 246.7 
L 215.731284 246.7 
L 215.731284 163.8625 
L 215.731284 246.7 
L 217.731321 246.7 
L 217.731321 163.8625 
L 217.731321 246.7 
L 219.658415 246.7 
L 219.658415 163.8625 
L 219.658415 246.7 
L 221.679718 246.7 
L 221.679718 163.8625 
L 221.679718 246.7 
L 222.020836 246.7 
L 222.020836 163.8625 
L 222.020836 246.7 
L 222.450736 246.7 
L 222.450736 163.8625 
L 222.450736 246.7 
L 223.257738 246.7 
L 223.257738 163.8625 
L 223.257738 246.7 
L 223.508952 246.7 
L 223.508952 163.8625 
L 223.508952 246.7 
L 226.03703 246.7 
L 226.03703 163.8625 
L 226.03703 246.7 
L 226.726746 246.7 
L 226.726746 163.8625 
L 226.726746 246.7 
L 228.430391 246.7 
L 228.430391 163.8625 
L 228.430391 246.7 
L 229.253224 246.7 
L 229.253224 163.8625 
L 229.253224 246.7 
L 229.968694 246.7 
L 229.968694 163.8625 
L 229.968694 246.7 
L 231.505565 246.7 
L 231.505565 163.8625 
L 231.505565 246.7 
L 231.687567 246.7 
L 231.687567 163.8625 
L 231.733067 246.7 
L 232.627618 246.7 
L 232.627618 163.8625 
L 232.627618 246.7 
L 234.458317 246.7 
L 234.458317 163.8625 
L 234.458317 246.7 
L 242.565566 246.7 
L 242.565566 163.8625 
L 242.565566 246.7 
L 248.376775 246.7 
L 248.376775 163.8625 
L 248.376775 246.7 
L 248.572673 246.7 
L 248.572673 163.8625 
L 248.604277 246.7 
L 250.497932 246.7 
L 250.497932 163.8625 
L 250.497932 246.7 
L 250.924365 246.7 
L 250.924365 163.8625 
L 250.924365 246.7 
L 252.758974 246.7 
L 252.758974 163.8625 
L 252.758974 246.7 
L 253.079139 246.7 
L 253.079139 163.8625 
L 253.079139 246.7 
L 262.8346 246.7 
L 262.8346 163.8625 
L 262.8346 246.7 
L 264.761527 246.7 
L 264.761527 163.8625 
L 264.761527 246.7 
L 266.348426 246.7 
L 266.348426 163.8625 
L 266.348426 246.7 
L 266.880017 246.7 
L 266.880017 163.8625 
L 266.880017 246.7 
L 267.853843 246.7 
L 267.853843 163.8625 
L 267.853843 246.7 
L 268.996705 246.7 
L 268.996705 163.8625 
L 268.996705 246.7 
L 270.168396 246.7 
L 270.168396 163.8625 
L 270.168396 246.7 
L 270.678504 246.7 
L 270.678504 163.8625 
L 270.678504 246.7 
L 272.456411 246.7 
L 272.456411 163.8625 
L 272.456411 246.7 
L 272.771506 246.7 
L 272.771506 163.8625 
L 272.771506 246.7 
L 273.522264 246.7 
L 273.522264 163.8625 
L 273.522264 246.7 
L 273.735124 246.7 
L 273.735124 163.8625 
L 273.749766 246.7 
L 275.779307 246.7 
L 275.779307 163.8625 
L 275.779307 246.7 
L 277.723214 246.7 
L 277.723214 163.8625 
L 277.723214 246.7 
L 278.417651 246.7 
L 278.417651 163.8625 
L 278.417651 246.7 
L 278.688309 246.7 
L 278.688309 163.8625 
L 278.688309 246.7 
L 281.430408 246.7 
L 281.430408 163.8625 
L 281.430408 246.7 
L 281.828773 246.7 
L 281.828773 163.8625 
L 281.828773 246.7 
L 287.265502 246.7 
L 287.265502 163.8625 
L 287.265502 246.7 
L 288.102734 246.7 
L 288.102734 163.8625 
L 288.102734 246.7 
L 290.07976 246.7 
L 290.07976 163.8625 
L 290.07976 246.7 
L 293.210789 246.7 
L 293.210789 163.8625 
L 293.210789 246.7 
L 293.39279 246.7 
L 293.39279 163.8625 
L 293.438291 246.7 
L 293.574792 246.7 
L 293.574792 163.8625 
L 293.665793 246.7 
L 295.196264 246.7 
L 295.196264 163.8625 
L 295.196264 246.7 
L 298.50836 246.7 
L 298.50836 163.8625 
L 298.50836 246.7 
L 300.546439 246.7 
L 300.546439 163.8625 
L 300.546439 246.7 
L 300.730324 246.7 
L 300.730324 163.8625 
L 300.773941 246.7 
L 307.234306 246.7 
L 307.234306 163.8625 
L 307.234306 246.7 
L 314.057598 246.7 
L 314.057598 163.8625 
L 314.057598 246.7 
L 317.889313 246.7 
L 317.889313 163.8625 
L 317.889313 246.7 
L 319.040175 246.7 
L 319.040175 163.8625 
L 319.040175 246.7 
L 320.337087 246.7 
L 320.337087 163.8625 
L 320.337087 246.7 
L 327.183849 246.7 
L 327.183849 163.8625 
L 327.183849 246.7 
L 327.365851 246.7 
L 327.365851 163.8625 
L 327.411351 246.7 
L 328.97803 246.7 
L 328.97803 163.8625 
L 328.97803 246.7 
L 330.069942 246.7 
L 330.069942 163.8625 
L 330.069942 246.7 
L 332.516488 246.7 
L 332.516488 163.8625 
L 332.516488 246.7 
L 332.698489 246.7 
L 332.698489 163.8625 
L 332.743989 246.7 
L 332.88049 246.7 
L 332.88049 163.8625 
L 332.971491 246.7 
L 333.686838 246.7 
L 333.686838 163.8625 
L 333.686838 246.7 
L 334.29183 246.7 
L 334.29183 163.8625 
L 334.29183 246.7 
L 341.374544 246.7 
L 341.374544 163.8625 
L 341.374544 246.7 
L 341.607609 246.7 
L 341.607609 163.8625 
L 341.607609 246.7 
L 342.418279 246.7 
L 342.418279 163.8625 
L 342.418279 246.7 
L 343.057425 246.7 
L 343.057425 163.8625 
L 343.057425 246.7 
L 344.25071 246.7 
L 344.25071 163.8625 
L 344.25071 246.7 
L 344.480739 246.7 
L 344.480739 163.8625 
L 344.480739 246.7 
L 346.604466 246.7 
L 346.604466 163.8625 
L 346.604466 246.7 
L 347.300987 246.7 
L 347.300987 163.8625 
L 347.300987 246.7 
L 351.16713 246.7 
L 351.16713 163.8625 
L 351.16713 246.7 
L 352.140627 246.7 
L 352.140627 163.8625 
L 352.140627 246.7 
L 356.697783 246.7 
L 356.697783 163.8625 
L 356.697783 246.7 
L 356.879784 246.7 
L 356.879784 163.8625 
L 356.925285 246.7 
L 357.263249 246.7 
L 357.263249 163.8625 
L 357.263249 246.7 
L 359.409391 246.7 
L 359.409391 163.8625 
L 359.409391 246.7 
L 360.925178 246.7 
L 360.925178 163.8625 
L 360.925178 246.7 
L 362.446887 246.7 
L 362.446887 163.8625 
L 362.446887 246.7 
L 366.092814 246.7 
L 366.092814 163.8625 
L 366.092814 246.7 
L 366.654134 246.7 
L 366.654134 163.8625 
L 366.654134 246.7 
L 367.948615 246.7 
L 367.948615 163.8625 
L 367.948615 246.7 
L 369.296807 246.7 
L 369.296807 163.8625 
L 369.296807 246.7 
L 373.820603 246.7 
L 373.820603 163.8625 
L 373.820603 246.7 
L 374.002605 246.7 
L 374.002605 163.8625 
L 374.048105 246.7 
L 378.623539 246.7 
L 378.623539 163.8625 
L 378.623539 246.7 
L 380.184922 246.7 
L 380.184922 163.8625 
L 380.184922 246.7 
L 380.366923 246.7 
L 380.366923 163.8625 
L 380.412424 246.7 
L 385.164529 246.7 
L 385.164529 163.8625 
L 385.164529 246.7 
L 385.756654 246.7 
L 385.756654 163.8625 
L 385.756654 246.7 
L 386.454739 246.7 
L 386.454739 163.8625 
L 386.454739 246.7 
L 386.63674 246.7 
L 386.63674 163.8625 
L 386.682241 246.7 
L 388.475404 246.7 
L 388.475404 163.8625 
L 388.475404 246.7 
L 391.837567 246.7 
L 391.837567 163.8625 
L 391.837567 246.7 
L 392.094791 246.7 
L 392.094791 163.8625 
L 392.094791 246.7 
L 393.990847 246.7 
L 393.990847 163.8625 
L 393.990847 246.7 
L 396.283945 246.7 
L 396.283945 163.8625 
L 396.283945 246.7 
L 399.635105 246.7 
L 399.635105 163.8625 
L 399.635105 246.7 
L 400.256921 246.7 
L 400.256921 163.8625 
L 400.256921 246.7 
L 400.816608 246.7 
L 400.816608 163.8625 
L 400.816608 246.7 
L 401.184888 246.7 
L 401.184888 163.8625 
L 401.184888 246.7 
L 402.108 246.7 
L 402.108 163.8625 
L 402.108 246.7 
L 403.715308 246.7 
L 403.715308 163.8625 
L 403.715308 246.7 
L 405.180051 246.7 
L 405.180051 163.8625 
L 405.180051 246.7 
L 405.362052 246.7 
L 405.362052 163.8625 
L 405.407552 246.7 
L 405.545081 246.7 
L 405.545081 163.8625 
L 405.635054 246.7 
L 408.758756 246.7 
L 408.758756 163.8625 
L 408.758756 246.7 
L 409.599113 246.7 
L 409.599113 163.8625 
L 409.599113 246.7 
L 409.781114 246.7 
L 409.781114 163.8625 
L 409.826614 246.7 
L 409.963115 246.7 
L 409.963115 163.8625 
L 410.054116 246.7 
L 410.281618 246.7 
L 410.281618 246.7 
" clip-path="url(#p038dd9114b)" style="fill: none; stroke: #2ca02c; stroke-width: 1.5; stroke-linecap: square"/>
   </g>
   <g id="patch_3">
    <path d="M 47.58125 246.7 
L 47.58125 25.8 
" style="fill: none; stroke: #000000; stroke-width: 0.8; stroke-linejoin: miter; stroke-linecap: square"/>
   </g>
   <g id="patch_4">
    <path d="M 415.442418 246.7 
L 415.442418 25.8 
" style="fill: none; stroke: #000000; stroke-width: 0.8; stroke-linejoin: miter; stroke-linecap: square"/>
   </g>
   <g id="patch_5">
    <path d="M 47.58125 246.7 
L 415.442418 246.7 
" style="fill: none; stroke: #000000; stroke-width: 0.8; stroke-linejoin: miter; stroke-linecap: square"/>
   </g>
   <g id="patch_6">
    <path d="M 47.58125 25.8 
L 415.442418 25.8 
" style="fill: none; stroke: #000000; stroke-width: 0.8; stroke-linejoin: miter; stroke-linecap: square"/>
   </g>
   <g id="text_18">
    <!-- Cantidad de paquetes en los buffers -->
    <g transform="translate(122.456209 19.8)scale(0.12 -0.12)">
     <defs>
      <path id="DejaVuSans-43" d="M 4122 4306 
L 4122 3641 
Q 3803 3938 3442 4084 
Q 3081 4231 2675 4231 
Q 1875 4231 1450 3742 
Q 1025 3253 1025 2328 
Q 1025 1406 1450 917 
Q 1875 428 2675 428 
Q 3081 428 3442 575 
Q 3803 722 4122 1019 
L 4122 359 
Q 3791 134 3420 21 
Q 3050 -91 2638 -91 
Q 1578 -91 968 557 
Q 359 1206 359 2328 
Q 359 3453 968 4101 
Q 1578 4750 2638 4750 
Q 3056 4750 3426 4639 
Q 3797 4528 4122 4306 
z
" transform="scale(0.015625)"/>
      <path id="DejaVuSans-6e" d="M 3513 2113 
L 3513 0 
L 2938 0 
L 2938 2094 
Q 2938 2591 2744 2837 
Q 2550 3084 2163 3084 
Q 1697 3084 1428 2787 
Q 1159 2491 1159 1978 
L 1159 0 
L 581 0 
L 581 3500 
L 1159 3500 
L 1159 2956 
Q 1366 3272 1645 3428 
Q 1925 3584 2291 3584 
Q 2894 3584 3203 3211 
Q 3513 2838 3513 2113 
z
" transform="scale(0.015625)"/>
      <path id="DejaVuSans-64" d="M 2906 2969 
L 2906 4863 
L 3481 4863 
L 3481 0 
L 2906 0 
L 2906 525 
Q 2725 213 2448 61 
Q 2172 -91 1784 -91 
Q 1150 -91 751 415 
Q 353 922 353 1747 
Q 353 2572 751 3078 
Q 1150 3584 1784 3584 
Q 2172 3584 2448 3432 
Q 2725 3281 2906 2969 
z
M 947 1747 
Q 947 1113 1208 752 
Q 1469 391 1925 391 
Q 2381 391 2643 752 
Q 2906 1113 2906 1747 
Q 2906 2381 2643 2742 
Q 2381 3103 1925 3103 
Q 1469 3103 1208 2742 
Q 947 2381 947 1747 
z
" transform="scale(0.015625)"/>
      <path id="DejaVuSans-20" transform="scale(0.015625)"/>
      <path id="DejaVuSans-6c" d="M 603 4863 
L 1178 4863 
L 1178 0 
L 603 0 
L 603 4863 
z
" transform="scale(0.015625)"/>
      <path id="DejaVuSans-62" d="M 3116 1747 
Q 3116 2381 2855 2742 
Q 2594 3103 2138 3103 
Q 1681 3103 1420 2742 
Q 1159 2381 1159 1747 
Q 1159 1113 1420 752 
Q 1681 391 2138 391 
Q 2594 391 2855 752 
Q 3116 1113 3116 1747 
z
M 1159 2969 
Q 1341 3281 1617 3432 
Q 1894 3584 2278 3584 
Q 2916 3584 3314 3078 
Q 3713 2572 3713 1747 
Q 3713 922 3314 415 
Q 2916 -91 2278 -91 
Q 1894 -91 1617 61 
Q 1341 213 1159 525 
L 1159 0 
L 581 0 
L 581 4863 
L 1159 4863 
L 1159 2969 
z
" transform="scale(0.015625)"/>
      <path id="DejaVuSans-66" d="M 2375 4863 
L 2375 4384 
L 1825 4384 
Q 1516 4384 1395 4259 
Q 1275 4134 1275 3809 
L 1275 3500 
L 2222 3500 
L 2222 3053 
L 1275 3053 
L 1275 0 
L 697 0 
L 697 3053 
L 147 3053 
L 147 3500 
L 697 3500 
L 697 3744 
Q 697 4328 969 4595 
Q 1241 4863 1831 4863 
L 2375 4863 
z
" transform="scale(0.015625)"/>
      <path id="DejaVuSans-72" d="M 2631 2963 
Q 2534 3019 2420 3045 
Q 2306 3072 2169 3072 
Q 1681 3072 1420 2755 
Q 1159 2438 1159 1844 
L 1159 0 
L 581 0 
L 581 3500 
L 1159 3500 
L 1159 2956 
Q 1341 3275 1631 3429 
Q 1922 3584 2338 3584 
Q 2397 3584 2469 3576 
Q 2541 3569 2628 3553 
L 2631 2963 
z
" transform="scale(0.015625)"/>
     </defs>
     <use xlink:href="#DejaVuSans-43"/>
     <use xlink:href="#DejaVuSans-61" x="69.824219"/>
     <use xlink:href="#DejaVuSans-6e" x="131.103516"/>
     <use xlink:href="#DejaVuSans-74" x="194.482422"/>
     <use xlink:href="#DejaVuSans-69" x="233.691406"/>
     <use xlink:href="#DejaVuSans-64" x="261.474609"/>
     <use xlink:href="#DejaVuSans-61" x="324.951172"/>
     <use xlink:href="#DejaVuSans-64" x="386.230469"/>
     <use xlink:href="#DejaVuSans-20" x="449.707031"/>
     <use xlink:href="#DejaVuSans-64" x="481.494141"/>
     <use xlink:href="#DejaVuSans-65" x="544.970703"/>
     <use xlink:href="#DejaVuSans-20" x="606.494141"/>
     <use xlink:href="#DejaVuSans-70" x="638.28125"/>
     <use xlink:href="#DejaVuSans-61" x="701.757812"/>
     <use xlink:href="#DejaVuSans-71" x="763.037109"/>
     <use xlink:href="#DejaVuSans-75" x="826.513672"/>
     <use xlink:href="#DejaVuSans-65" x="889.892578"/>
     <use xlink:href="#DejaVuSans-74" x="951.416016"/>
     <use xlink:href="#DejaVuSans-65" x="990.625"/>
     <use xlink:href="#DejaVuSans-73" x="1052.148438"/>
     <use xlink:href="#DejaVuSans-20" x="1104.248047"/>
     <use xlink:href="#DejaVuSans-65" x="1136.035156"/>
     <use xlink:href="#DejaVuSans-6e" x="1197.558594"/>
     <use xlink:href="#DejaVuSans-20" x="1260.9375"/>
     <use xlink:href="#DejaVuSans-6c" x="1292.724609"/>
     <use xlink:href="#DejaVuSans-6f" x="1320.507812"/>
     <use xlink:href="#DejaVuSans-73" x="1381.689453"/>
     <use xlink:href="#DejaVuSans-20" x="1433.789062"/>
     <use xlink:href="#DejaVuSans-62" x="1465.576172"/>
     <use xlink:href="#DejaVuSans-75" x="1529.052734"/>
     <use xlink:href="#DejaVuSans-66" x="1592.431641"/>
     <use xlink:href="#DejaVuSans-66" x="1627.636719"/>
     <use xlink:href="#DejaVuSans-65" x="1662.841797"/>
     <use xlink:href="#DejaVuSans-72" x="1724.365234"/>
     <use xlink:href="#DejaVuSans-73" x="1765.478516"/>
    </g>
   </g>
   <g id="legend_1">
    <g id="patch_7">
     <path d="M 176.987731 78.004687 
L 408.442418 78.004687 
Q 410.442418 78.004687 410.442418 76.004687 
L 410.442418 32.8 
Q 410.442418 30.8 408.442418 30.8 
L 176.987731 30.8 
Q 174.987731 30.8 174.987731 32.8 
L 174.987731 76.004687 
Q 174.987731 78.004687 176.987731 78.004687 
z
" style="fill: #ffffff; opacity: 0.8; stroke: #cccccc; stroke-linejoin: miter"/>
    </g>
    <g id="line2d_34">
     <path d="M 178.987731 39.06875 
L 188.987731 39.06875 
L 198.987731 39.06875 
" style="fill: none; stroke: #1f77b4; stroke-width: 1.5; stroke-linecap: square"/>
    </g>
    <g id="text_19">
     <!-- Tamao del buffer del receptor -->
     <g transform="translate(206.987731 42.56875)scale(0.1 -0.1)">
      <defs>
       <path id="DejaVuSans-f1" d="M 3513 2113 
L 3513 0 
L 2938 0 
L 2938 2094 
Q 2938 2591 2744 2837 
Q 2550 3084 2163 3084 
Q 1697 3084 1428 2787 
Q 1159 2491 1159 1978 
L 1159 0 
L 581 0 
L 581 3500 
L 1159 3500 
L 1159 2956 
Q 1366 3272 1645 3428 
Q 1925 3584 2291 3584 
Q 2894 3584 3203 3211 
Q 3513 2838 3513 2113 
z
M 2060 4281 
L 1881 4453 
Q 1813 4516 1761 4545 
Q 1710 4575 1669 4575 
Q 1550 4575 1494 4461 
Q 1438 4347 1431 4091 
L 1041 4091 
Q 1047 4513 1206 4742 
Q 1366 4972 1650 4972 
Q 1769 4972 1869 4928 
Q 1969 4884 2085 4781 
L 2263 4609 
Q 2331 4547 2383 4517 
Q 2435 4488 2475 4488 
Q 2594 4488 2650 4602 
Q 2706 4716 2713 4972 
L 3103 4972 
Q 3097 4550 2937 4320 
Q 2778 4091 2494 4091 
Q 2375 4091 2275 4134 
Q 2175 4178 2060 4281 
z
" transform="scale(0.015625)"/>
       <path id="DejaVuSans-63" d="M 3122 3366 
L 3122 2828 
Q 2878 2963 2633 3030 
Q 2388 3097 2138 3097 
Q 1578 3097 1268 2742 
Q 959 2388 959 1747 
Q 959 1106 1268 751 
Q 1578 397 2138 397 
Q 2388 397 2633 464 
Q 2878 531 3122 666 
L 3122 134 
Q 2881 22 2623 -34 
Q 2366 -91 2075 -91 
Q 1284 -91 818 406 
Q 353 903 353 1747 
Q 353 2603 823 3093 
Q 1294 3584 2113 3584 
Q 2378 3584 2631 3529 
Q 2884 3475 3122 3366 
z
" transform="scale(0.015625)"/>
      </defs>
      <use xlink:href="#DejaVuSans-54"/>
      <use xlink:href="#DejaVuSans-61" x="44.583984"/>
      <use xlink:href="#DejaVuSans-6d" x="105.863281"/>
      <use xlink:href="#DejaVuSans-61" x="203.275391"/>
      <use xlink:href="#DejaVuSans-f1" x="264.554688"/>
      <use xlink:href="#DejaVuSans-6f" x="327.933594"/>
      <use xlink:href="#DejaVuSans-20" x="389.115234"/>
      <use xlink:href="#DejaVuSans-64" x="420.902344"/>
      <use xlink:href="#DejaVuSans-65" x="484.378906"/>
      <use xlink:href="#DejaVuSans-6c" x="545.902344"/>
      <use xlink:href="#DejaVuSans-20" x="573.685547"/>
      <use xlink:href="#DejaVuSans-62" x="605.472656"/>
      <use xlink:href="#DejaVuSans-75" x="668.949219"/>
      <use xlink:href="#DejaVuSans-66" x="732.328125"/>
      <use xlink:href="#DejaVuSans-66" x="767.533203"/>
      <use xlink:href="#DejaVuSans-65" x="802.738281"/>
      <use xlink:href="#DejaVuSans-72" x="864.261719"/>
      <use xlink:href="#DejaVuSans-20" x="905.375"/>
      <use xlink:href="#DejaVuSans-64" x="937.162109"/>
      <use xlink:href="#DejaVuSans-65" x="1000.638672"/>
      <use xlink:href="#DejaVuSans-6c" x="1062.162109"/>
      <use xlink:href="#DejaVuSans-20" x="1089.945312"/>
      <use xlink:href="#DejaVuSans-72" x="1121.732422"/>
      <use xlink:href="#DejaVuSans-65" x="1160.595703"/>
      <use xlink:href="#DejaVuSans-63" x="1222.119141"/>
      <use xlink:href="#DejaVuSans-65" x="1277.099609"/>
      <use xlink:href="#DejaVuSans-70" x="1338.623047"/>
      <use xlink:href="#DejaVuSans-74" x="1402.099609"/>
      <use xlink:href="#DejaVuSans-6f" x="1441.308594"/>
      <use xlink:href="#DejaVuSans-72" x="1502.490234"/>
     </g>
    </g>
    <g id="line2d_35">
     <path d="M 178.987731 53.746875 
L 188.987731 53.746875 
L 198.987731 53.746875 
" style="fill: none; stroke: #ff7f0e; stroke-width: 1.5; stroke-linecap: square"/>
    </g>
    <g id="text_20">
     <!-- Tamao del buffer del emisor -->
     <g transform="translate(206.987731 57.246875)scale(0.1 -0.1)">
      <use xlink:href="#DejaVuSans-54"/>
      <use xlink:href="#DejaVuSans-61" x="44.583984"/>
      <use xlink:href="#DejaVuSans-6d" x="105.863281"/>
      <use xlink:href="#DejaVuSans-61" x="203.275391"/>
      <use xlink:href="#DejaVuSans-f1" x="264.554688"/>
      <use xlink:href="#DejaVuSans-6f" x="327.933594"/>
      <use xlink:href="#DejaVuSans-20" x="389.115234"/>
      <use xlink:href="#DejaVuSans-64" x="420.902344"/>
      <use xlink:href="#DejaVuSans-65" x="484.378906"/>
      <use xlink:href="#DejaVuSans-6c" x="545.902344"/>
      <use xlink:href="#DejaVuSans-20" x="573.685547"/>
      <use xlink:href="#DejaVuSans-62" x="605.472656"/>
      <use xlink:href="#DejaVuSans-75" x="668.949219"/>
      <use xlink:href="#DejaVuSans-66" x="732.328125"/>
      <use xlink:href="#DejaVuSans-66" x="767.533203"/>
      <use xlink:href="#DejaVuSans-65" x="802.738281"/>
      <use xlink:href="#DejaVuSans-72" x="864.261719"/>
      <use xlink:href="#DejaVuSans-20" x="905.375"/>
      <use xlink:href="#DejaVuSans-64" x="937.162109"/>
      <use xlink:href="#DejaVuSans-65" x="1000.638672"/>
      <use xlink:href="#DejaVuSans-6c" x="1062.162109"/>
      <use xlink:href="#DejaVuSans-20" x="1089.945312"/>
      <use xlink:href="#DejaVuSans-65" x="1121.732422"/>
      <use xlink:href="#DejaVuSans-6d" x="1183.255859"/>
      <use xlink:href="#DejaVuSans-69" x="1280.667969"/>
      <use xlink:href="#DejaVuSans-73" x="1308.451172"/>
      <use xlink:href="#DejaVuSans-6f" x="1360.550781"/>
      <use xlink:href="#DejaVuSans-72" x="1421.732422"/>
     </g>
    </g>
    <g id="line2d_36">
     <path d="M 178.987731 68.425 
L 188.987731 68.425 
L 198.987731 68.425 
" style="fill: none; stroke: #2ca02c; stroke-width: 1.5; stroke-linecap: square"/>
    </g>
    <g id="text_21">
     <!-- Tamao del buffer de la cola intermedia -->
     <g transform="translate(206.987731 71.925)scale(0.1 -0.1)">
      <use xlink:href="#DejaVuSans-54"/>
      <use xlink:href="#DejaVuSans-61" x="44.583984"/>
      <use xlink:href="#DejaVuSans-6d" x="105.863281"/>
      <use xlink:href="#DejaVuSans-61" x="203.275391"/>
      <use xlink:href="#DejaVuSans-f1" x="264.554688"/>
      <use xlink:href="#DejaVuSans-6f" x="327.933594"/>
      <use xlink:href="#DejaVuSans-20" x="389.115234"/>
      <use xlink:href="#DejaVuSans-64" x="420.902344"/>
      <use xlink:href="#DejaVuSans-65" x="484.378906"/>
      <use xlink:href="#DejaVuSans-6c" x="545.902344"/>
      <use xlink:href="#DejaVuSans-20" x="573.685547"/>
      <use xlink:href="#DejaVuSans-62" x="605.472656"/>
      <use xlink:href="#DejaVuSans-75" x="668.949219"/>
      <use xlink:href="#DejaVuSans-66" x="732.328125"/>
      <use xlink:href="#DejaVuSans-66" x="767.533203"/>
      <use xlink:href="#DejaVuSans-65" x="802.738281"/>
      <use xlink:href="#DejaVuSans-72" x="864.261719"/>
      <use xlink:href="#DejaVuSans-20" x="905.375"/>
      <use xlink:href="#DejaVuSans-64" x="937.162109"/>
      <use xlink:href="#DejaVuSans-65" x="1000.638672"/>
      <use xlink:href="#DejaVuSans-20" x="1062.162109"/>
      <use xlink:href="#DejaVuSans-6c" x="1093.949219"/>
      <use xlink:href="#DejaVuSans-61" x="1121.732422"/>
      <use xlink:href="#DejaVuSans-20" x="1183.011719"/>
      <use xlink:href="#DejaVuSans-63" x="1214.798828"/>
      <use xlink:href="#DejaVuSans-6f" x="1269.779297"/>
      <use xlink:href="#DejaVuSans-6c" x="1330.960938"/>
      <use xlink:href="#DejaVuSans-61" x="1358.744141"/>
      <use xlink:href="#DejaVuSans-20" x="1420.023438"/>
      <use xlink:href="#DejaVuSans-69" x="1451.810547"/>
      <use xlink:href="#DejaVuSans-6e" x="1479.59375"/>
      <use xlink:href="#DejaVuSans-74" x="1542.972656"/>
      <use xlink:href="#DejaVuSans-65" x="1582.181641"/>
      <use xlink:href="#DejaVuSans-72" x="1643.705078"/>
      <use xlink:href="#DejaVuSans-6d" x="1683.068359"/>
      <use xlink:href="#DejaVuSans-65" x="1780.480469"/>
      <use xlink:href="#DejaVuSans-64" x="1842.003906"/>
      <use xlink:href="#DejaVuSans-69" x="1905.480469"/>
      <use xlink:href="#DejaVuSans-61" x="1933.263672"/>
     </g>
    </g>
   </g>
  </g>
 </g>
 <defs>
  <clipPath id="p038dd9114b">
   <rect x="47.58125" y="25.8" width="367.861168" height="220.9"/>
  </clipPath>
 </defs>
</svg>
