<?xml version="1.0" encoding="utf-8" standalone="no"?>
<!DOCTYPE svg PUBLIC "-//W3C//DTD SVG 1.1//EN"
  "http://www.w3.org/Graphics/SVG/1.1/DTD/svg11.dtd">
<!-- Created with matplotlib (https://matplotlib.org/) -->
<svg height="288pt" version="1.1" viewBox="0 0 432 288" width="432pt" xmlns="http://www.w3.org/2000/svg" xmlns:xlink="http://www.w3.org/1999/xlink">
 <defs>
  <style type="text/css">
*{stroke-linecap:butt;stroke-linejoin:round;}
  </style>
 </defs>
 <g id="figure_1">
  <g id="patch_1">
   <path d="M 0 288 
L 432 288 
L 432 0 
L 0 0 
z
" style="fill:#ffffff;"/>
  </g>
  <g id="axes_1">
   <g id="patch_2">
    <path d="M 33.8 260.2 
L 415.318179 260.2 
L 415.318179 26.8 
L 33.8 26.8 
z
" style="fill:#ffffff;"/>
   </g>
   <g id="matplotlib.axis_1">
    <g id="xtick_1">
     <g id="line2d_1">
      <path clip-path="url(#p51d208da4a)" d="M 33.8 260.2 
L 33.8 26.8 
" style="fill:none;stroke:#b0b0b0;stroke-linecap:square;stroke-width:0.8;"/>
     </g>
     <g id="line2d_2">
      <defs>
       <path d="M 0 0 
L 0 3.5 
" id="mdb0abe3517" style="stroke:#000000;stroke-width:0.8;"/>
      </defs>
      <g>
       <use style="stroke:#000000;stroke-width:0.8;" x="33.8" xlink:href="#mdb0abe3517" y="260.2"/>
      </g>
     </g>
     <g id="text_1">
      <!-- 0 -->
      <defs>
       <path d="M 31.78125 66.40625 
Q 24.171875 66.40625 20.328125 58.90625 
Q 16.5 51.421875 16.5 36.375 
Q 16.5 21.390625 20.328125 13.890625 
Q 24.171875 6.390625 31.78125 6.390625 
Q 39.453125 6.390625 43.28125 13.890625 
Q 47.125 21.390625 47.125 36.375 
Q 47.125 51.421875 43.28125 58.90625 
Q 39.453125 66.40625 31.78125 66.40625 
z
M 31.78125 74.21875 
Q 44.046875 74.21875 50.515625 64.515625 
Q 56.984375 54.828125 56.984375 36.375 
Q 56.984375 17.96875 50.515625 8.265625 
Q 44.046875 -1.421875 31.78125 -1.421875 
Q 19.53125 -1.421875 13.0625 8.265625 
Q 6.59375 17.96875 6.59375 36.375 
Q 6.59375 54.828125 13.0625 64.515625 
Q 19.53125 74.21875 31.78125 74.21875 
z
" id="DejaVuSans-48"/>
      </defs>
      <g transform="translate(30.61875 274.798437)scale(0.1 -0.1)">
       <use xlink:href="#DejaVuSans-48"/>
      </g>
     </g>
    </g>
    <g id="xtick_2">
     <g id="line2d_3">
      <path clip-path="url(#p51d208da4a)" d="M 81.039985 260.2 
L 81.039985 26.8 
" style="fill:none;stroke:#b0b0b0;stroke-linecap:square;stroke-width:0.8;"/>
     </g>
     <g id="line2d_4">
      <g>
       <use style="stroke:#000000;stroke-width:0.8;" x="81.039985" xlink:href="#mdb0abe3517" y="260.2"/>
      </g>
     </g>
     <g id="text_2">
      <!-- 25 -->
      <defs>
       <path d="M 19.1875 8.296875 
L 53.609375 8.296875 
L 53.609375 0 
L 7.328125 0 
L 7.328125 8.296875 
Q 12.9375 14.109375 22.625 23.890625 
Q 32.328125 33.6875 34.8125 36.53125 
Q 39.546875 41.84375 41.421875 45.53125 
Q 43.3125 49.21875 43.3125 52.78125 
Q 43.3125 58.59375 39.234375 62.25 
Q 35.15625 65.921875 28.609375 65.921875 
Q 23.96875 65.921875 18.8125 64.3125 
Q 13.671875 62.703125 7.8125 59.421875 
L 7.8125 69.390625 
Q 13.765625 71.78125 18.9375 73 
Q 24.125 74.21875 28.421875 74.21875 
Q 39.75 74.21875 46.484375 68.546875 
Q 53.21875 62.890625 53.21875 53.421875 
Q 53.21875 48.921875 51.53125 44.890625 
Q 49.859375 40.875 45.40625 35.40625 
Q 44.1875 33.984375 37.640625 27.21875 
Q 31.109375 20.453125 19.1875 8.296875 
z
" id="DejaVuSans-50"/>
       <path d="M 10.796875 72.90625 
L 49.515625 72.90625 
L 49.515625 64.59375 
L 19.828125 64.59375 
L 19.828125 46.734375 
Q 21.96875 47.46875 24.109375 47.828125 
Q 26.265625 48.1875 28.421875 48.1875 
Q 40.625 48.1875 47.75 41.5 
Q 54.890625 34.8125 54.890625 23.390625 
Q 54.890625 11.625 47.5625 5.09375 
Q 40.234375 -1.421875 26.90625 -1.421875 
Q 22.3125 -1.421875 17.546875 -0.640625 
Q 12.796875 0.140625 7.71875 1.703125 
L 7.71875 11.625 
Q 12.109375 9.234375 16.796875 8.0625 
Q 21.484375 6.890625 26.703125 6.890625 
Q 35.15625 6.890625 40.078125 11.328125 
Q 45.015625 15.765625 45.015625 23.390625 
Q 45.015625 31 40.078125 35.4375 
Q 35.15625 39.890625 26.703125 39.890625 
Q 22.75 39.890625 18.8125 39.015625 
Q 14.890625 38.140625 10.796875 36.28125 
z
" id="DejaVuSans-53"/>
      </defs>
      <g transform="translate(74.677485 274.798437)scale(0.1 -0.1)">
       <use xlink:href="#DejaVuSans-50"/>
       <use x="63.623047" xlink:href="#DejaVuSans-53"/>
      </g>
     </g>
    </g>
    <g id="xtick_3">
     <g id="line2d_5">
      <path clip-path="url(#p51d208da4a)" d="M 128.279971 260.2 
L 128.279971 26.8 
" style="fill:none;stroke:#b0b0b0;stroke-linecap:square;stroke-width:0.8;"/>
     </g>
     <g id="line2d_6">
      <g>
       <use style="stroke:#000000;stroke-width:0.8;" x="128.279971" xlink:href="#mdb0abe3517" y="260.2"/>
      </g>
     </g>
     <g id="text_3">
      <!-- 50 -->
      <g transform="translate(121.917471 274.798437)scale(0.1 -0.1)">
       <use xlink:href="#DejaVuSans-53"/>
       <use x="63.623047" xlink:href="#DejaVuSans-48"/>
      </g>
     </g>
    </g>
    <g id="xtick_4">
     <g id="line2d_7">
      <path clip-path="url(#p51d208da4a)" d="M 175.519956 260.2 
L 175.519956 26.8 
" style="fill:none;stroke:#b0b0b0;stroke-linecap:square;stroke-width:0.8;"/>
     </g>
     <g id="line2d_8">
      <g>
       <use style="stroke:#000000;stroke-width:0.8;" x="175.519956" xlink:href="#mdb0abe3517" y="260.2"/>
      </g>
     </g>
     <g id="text_4">
      <!-- 75 -->
      <defs>
       <path d="M 8.203125 72.90625 
L 55.078125 72.90625 
L 55.078125 68.703125 
L 28.609375 0 
L 18.3125 0 
L 43.21875 64.59375 
L 8.203125 64.59375 
z
" id="DejaVuSans-55"/>
      </defs>
      <g transform="translate(169.157456 274.798437)scale(0.1 -0.1)">
       <use xlink:href="#DejaVuSans-55"/>
       <use x="63.623047" xlink:href="#DejaVuSans-53"/>
      </g>
     </g>
    </g>
    <g id="xtick_5">
     <g id="line2d_9">
      <path clip-path="url(#p51d208da4a)" d="M 222.759942 260.2 
L 222.759942 26.8 
" style="fill:none;stroke:#b0b0b0;stroke-linecap:square;stroke-width:0.8;"/>
     </g>
     <g id="line2d_10">
      <g>
       <use style="stroke:#000000;stroke-width:0.8;" x="222.759942" xlink:href="#mdb0abe3517" y="260.2"/>
      </g>
     </g>
     <g id="text_5">
      <!-- 100 -->
      <defs>
       <path d="M 12.40625 8.296875 
L 28.515625 8.296875 
L 28.515625 63.921875 
L 10.984375 60.40625 
L 10.984375 69.390625 
L 28.421875 72.90625 
L 38.28125 72.90625 
L 38.28125 8.296875 
L 54.390625 8.296875 
L 54.390625 0 
L 12.40625 0 
z
" id="DejaVuSans-49"/>
      </defs>
      <g transform="translate(213.216192 274.798437)scale(0.1 -0.1)">
       <use xlink:href="#DejaVuSans-49"/>
       <use x="63.623047" xlink:href="#DejaVuSans-48"/>
       <use x="127.246094" xlink:href="#DejaVuSans-48"/>
      </g>
     </g>
    </g>
    <g id="xtick_6">
     <g id="line2d_11">
      <path clip-path="url(#p51d208da4a)" d="M 269.999927 260.2 
L 269.999927 26.8 
" style="fill:none;stroke:#b0b0b0;stroke-linecap:square;stroke-width:0.8;"/>
     </g>
     <g id="line2d_12">
      <g>
       <use style="stroke:#000000;stroke-width:0.8;" x="269.999927" xlink:href="#mdb0abe3517" y="260.2"/>
      </g>
     </g>
     <g id="text_6">
      <!-- 125 -->
      <g transform="translate(260.456177 274.798437)scale(0.1 -0.1)">
       <use xlink:href="#DejaVuSans-49"/>
       <use x="63.623047" xlink:href="#DejaVuSans-50"/>
       <use x="127.246094" xlink:href="#DejaVuSans-53"/>
      </g>
     </g>
    </g>
    <g id="xtick_7">
     <g id="line2d_13">
      <path clip-path="url(#p51d208da4a)" d="M 317.239913 260.2 
L 317.239913 26.8 
" style="fill:none;stroke:#b0b0b0;stroke-linecap:square;stroke-width:0.8;"/>
     </g>
     <g id="line2d_14">
      <g>
       <use style="stroke:#000000;stroke-width:0.8;" x="317.239913" xlink:href="#mdb0abe3517" y="260.2"/>
      </g>
     </g>
     <g id="text_7">
      <!-- 150 -->
      <g transform="translate(307.696163 274.798437)scale(0.1 -0.1)">
       <use xlink:href="#DejaVuSans-49"/>
       <use x="63.623047" xlink:href="#DejaVuSans-53"/>
       <use x="127.246094" xlink:href="#DejaVuSans-48"/>
      </g>
     </g>
    </g>
    <g id="xtick_8">
     <g id="line2d_15">
      <path clip-path="url(#p51d208da4a)" d="M 364.479898 260.2 
L 364.479898 26.8 
" style="fill:none;stroke:#b0b0b0;stroke-linecap:square;stroke-width:0.8;"/>
     </g>
     <g id="line2d_16">
      <g>
       <use style="stroke:#000000;stroke-width:0.8;" x="364.479898" xlink:href="#mdb0abe3517" y="260.2"/>
      </g>
     </g>
     <g id="text_8">
      <!-- 175 -->
      <g transform="translate(354.936148 274.798437)scale(0.1 -0.1)">
       <use xlink:href="#DejaVuSans-49"/>
       <use x="63.623047" xlink:href="#DejaVuSans-55"/>
       <use x="127.246094" xlink:href="#DejaVuSans-53"/>
      </g>
     </g>
    </g>
    <g id="xtick_9">
     <g id="line2d_17">
      <path clip-path="url(#p51d208da4a)" d="M 411.719884 260.2 
L 411.719884 26.8 
" style="fill:none;stroke:#b0b0b0;stroke-linecap:square;stroke-width:0.8;"/>
     </g>
     <g id="line2d_18">
      <g>
       <use style="stroke:#000000;stroke-width:0.8;" x="411.719884" xlink:href="#mdb0abe3517" y="260.2"/>
      </g>
     </g>
     <g id="text_9">
      <!-- 200 -->
      <g transform="translate(402.176134 274.798437)scale(0.1 -0.1)">
       <use xlink:href="#DejaVuSans-50"/>
       <use x="63.623047" xlink:href="#DejaVuSans-48"/>
       <use x="127.246094" xlink:href="#DejaVuSans-48"/>
      </g>
     </g>
    </g>
   </g>
   <g id="matplotlib.axis_2">
    <g id="ytick_1">
     <g id="line2d_19">
      <path clip-path="url(#p51d208da4a)" d="M 33.8 260.2 
L 415.318179 260.2 
" style="fill:none;stroke:#b0b0b0;stroke-linecap:square;stroke-width:0.8;"/>
     </g>
     <g id="line2d_20">
      <defs>
       <path d="M 0 0 
L -3.5 0 
" id="md3f1d1b9f8" style="stroke:#000000;stroke-width:0.8;"/>
      </defs>
      <g>
       <use style="stroke:#000000;stroke-width:0.8;" x="33.8" xlink:href="#md3f1d1b9f8" y="260.2"/>
      </g>
     </g>
     <g id="text_10">
      <!-- 0.0 -->
      <defs>
       <path d="M 10.6875 12.40625 
L 21 12.40625 
L 21 0 
L 10.6875 0 
z
" id="DejaVuSans-46"/>
      </defs>
      <g transform="translate(10.896875 263.999219)scale(0.1 -0.1)">
       <use xlink:href="#DejaVuSans-48"/>
       <use x="63.623047" xlink:href="#DejaVuSans-46"/>
       <use x="95.410156" xlink:href="#DejaVuSans-48"/>
      </g>
     </g>
    </g>
    <g id="ytick_2">
     <g id="line2d_21">
      <path clip-path="url(#p51d208da4a)" d="M 33.8 225.19 
L 415.318179 225.19 
" style="fill:none;stroke:#b0b0b0;stroke-linecap:square;stroke-width:0.8;"/>
     </g>
     <g id="line2d_22">
      <g>
       <use style="stroke:#000000;stroke-width:0.8;" x="33.8" xlink:href="#md3f1d1b9f8" y="225.19"/>
      </g>
     </g>
     <g id="text_11">
      <!-- 0.2 -->
      <g transform="translate(10.896875 228.989219)scale(0.1 -0.1)">
       <use xlink:href="#DejaVuSans-48"/>
       <use x="63.623047" xlink:href="#DejaVuSans-46"/>
       <use x="95.410156" xlink:href="#DejaVuSans-50"/>
      </g>
     </g>
    </g>
    <g id="ytick_3">
     <g id="line2d_23">
      <path clip-path="url(#p51d208da4a)" d="M 33.8 190.18 
L 415.318179 190.18 
" style="fill:none;stroke:#b0b0b0;stroke-linecap:square;stroke-width:0.8;"/>
     </g>
     <g id="line2d_24">
      <g>
       <use style="stroke:#000000;stroke-width:0.8;" x="33.8" xlink:href="#md3f1d1b9f8" y="190.18"/>
      </g>
     </g>
     <g id="text_12">
      <!-- 0.4 -->
      <defs>
       <path d="M 37.796875 64.3125 
L 12.890625 25.390625 
L 37.796875 25.390625 
z
M 35.203125 72.90625 
L 47.609375 72.90625 
L 47.609375 25.390625 
L 58.015625 25.390625 
L 58.015625 17.1875 
L 47.609375 17.1875 
L 47.609375 0 
L 37.796875 0 
L 37.796875 17.1875 
L 4.890625 17.1875 
L 4.890625 26.703125 
z
" id="DejaVuSans-52"/>
      </defs>
      <g transform="translate(10.896875 193.979219)scale(0.1 -0.1)">
       <use xlink:href="#DejaVuSans-48"/>
       <use x="63.623047" xlink:href="#DejaVuSans-46"/>
       <use x="95.410156" xlink:href="#DejaVuSans-52"/>
      </g>
     </g>
    </g>
    <g id="ytick_4">
     <g id="line2d_25">
      <path clip-path="url(#p51d208da4a)" d="M 33.8 155.17 
L 415.318179 155.17 
" style="fill:none;stroke:#b0b0b0;stroke-linecap:square;stroke-width:0.8;"/>
     </g>
     <g id="line2d_26">
      <g>
       <use style="stroke:#000000;stroke-width:0.8;" x="33.8" xlink:href="#md3f1d1b9f8" y="155.17"/>
      </g>
     </g>
     <g id="text_13">
      <!-- 0.6 -->
      <defs>
       <path d="M 33.015625 40.375 
Q 26.375 40.375 22.484375 35.828125 
Q 18.609375 31.296875 18.609375 23.390625 
Q 18.609375 15.53125 22.484375 10.953125 
Q 26.375 6.390625 33.015625 6.390625 
Q 39.65625 6.390625 43.53125 10.953125 
Q 47.40625 15.53125 47.40625 23.390625 
Q 47.40625 31.296875 43.53125 35.828125 
Q 39.65625 40.375 33.015625 40.375 
z
M 52.59375 71.296875 
L 52.59375 62.3125 
Q 48.875 64.0625 45.09375 64.984375 
Q 41.3125 65.921875 37.59375 65.921875 
Q 27.828125 65.921875 22.671875 59.328125 
Q 17.53125 52.734375 16.796875 39.40625 
Q 19.671875 43.65625 24.015625 45.921875 
Q 28.375 48.1875 33.59375 48.1875 
Q 44.578125 48.1875 50.953125 41.515625 
Q 57.328125 34.859375 57.328125 23.390625 
Q 57.328125 12.15625 50.6875 5.359375 
Q 44.046875 -1.421875 33.015625 -1.421875 
Q 20.359375 -1.421875 13.671875 8.265625 
Q 6.984375 17.96875 6.984375 36.375 
Q 6.984375 53.65625 15.1875 63.9375 
Q 23.390625 74.21875 37.203125 74.21875 
Q 40.921875 74.21875 44.703125 73.484375 
Q 48.484375 72.75 52.59375 71.296875 
z
" id="DejaVuSans-54"/>
      </defs>
      <g transform="translate(10.896875 158.969219)scale(0.1 -0.1)">
       <use xlink:href="#DejaVuSans-48"/>
       <use x="63.623047" xlink:href="#DejaVuSans-46"/>
       <use x="95.410156" xlink:href="#DejaVuSans-54"/>
      </g>
     </g>
    </g>
    <g id="ytick_5">
     <g id="line2d_27">
      <path clip-path="url(#p51d208da4a)" d="M 33.8 120.16 
L 415.318179 120.16 
" style="fill:none;stroke:#b0b0b0;stroke-linecap:square;stroke-width:0.8;"/>
     </g>
     <g id="line2d_28">
      <g>
       <use style="stroke:#000000;stroke-width:0.8;" x="33.8" xlink:href="#md3f1d1b9f8" y="120.16"/>
      </g>
     </g>
     <g id="text_14">
      <!-- 0.8 -->
      <defs>
       <path d="M 31.78125 34.625 
Q 24.75 34.625 20.71875 30.859375 
Q 16.703125 27.09375 16.703125 20.515625 
Q 16.703125 13.921875 20.71875 10.15625 
Q 24.75 6.390625 31.78125 6.390625 
Q 38.8125 6.390625 42.859375 10.171875 
Q 46.921875 13.96875 46.921875 20.515625 
Q 46.921875 27.09375 42.890625 30.859375 
Q 38.875 34.625 31.78125 34.625 
z
M 21.921875 38.8125 
Q 15.578125 40.375 12.03125 44.71875 
Q 8.5 49.078125 8.5 55.328125 
Q 8.5 64.0625 14.71875 69.140625 
Q 20.953125 74.21875 31.78125 74.21875 
Q 42.671875 74.21875 48.875 69.140625 
Q 55.078125 64.0625 55.078125 55.328125 
Q 55.078125 49.078125 51.53125 44.71875 
Q 48 40.375 41.703125 38.8125 
Q 48.828125 37.15625 52.796875 32.3125 
Q 56.78125 27.484375 56.78125 20.515625 
Q 56.78125 9.90625 50.3125 4.234375 
Q 43.84375 -1.421875 31.78125 -1.421875 
Q 19.734375 -1.421875 13.25 4.234375 
Q 6.78125 9.90625 6.78125 20.515625 
Q 6.78125 27.484375 10.78125 32.3125 
Q 14.796875 37.15625 21.921875 38.8125 
z
M 18.3125 54.390625 
Q 18.3125 48.734375 21.84375 45.5625 
Q 25.390625 42.390625 31.78125 42.390625 
Q 38.140625 42.390625 41.71875 45.5625 
Q 45.3125 48.734375 45.3125 54.390625 
Q 45.3125 60.0625 41.71875 63.234375 
Q 38.140625 66.40625 31.78125 66.40625 
Q 25.390625 66.40625 21.84375 63.234375 
Q 18.3125 60.0625 18.3125 54.390625 
z
" id="DejaVuSans-56"/>
      </defs>
      <g transform="translate(10.896875 123.959219)scale(0.1 -0.1)">
       <use xlink:href="#DejaVuSans-48"/>
       <use x="63.623047" xlink:href="#DejaVuSans-46"/>
       <use x="95.410156" xlink:href="#DejaVuSans-56"/>
      </g>
     </g>
    </g>
    <g id="ytick_6">
     <g id="line2d_29">
      <path clip-path="url(#p51d208da4a)" d="M 33.8 85.15 
L 415.318179 85.15 
" style="fill:none;stroke:#b0b0b0;stroke-linecap:square;stroke-width:0.8;"/>
     </g>
     <g id="line2d_30">
      <g>
       <use style="stroke:#000000;stroke-width:0.8;" x="33.8" xlink:href="#md3f1d1b9f8" y="85.15"/>
      </g>
     </g>
     <g id="text_15">
      <!-- 1.0 -->
      <g transform="translate(10.896875 88.949219)scale(0.1 -0.1)">
       <use xlink:href="#DejaVuSans-49"/>
       <use x="63.623047" xlink:href="#DejaVuSans-46"/>
       <use x="95.410156" xlink:href="#DejaVuSans-48"/>
      </g>
     </g>
    </g>
    <g id="ytick_7">
     <g id="line2d_31">
      <path clip-path="url(#p51d208da4a)" d="M 33.8 50.14 
L 415.318179 50.14 
" style="fill:none;stroke:#b0b0b0;stroke-linecap:square;stroke-width:0.8;"/>
     </g>
     <g id="line2d_32">
      <g>
       <use style="stroke:#000000;stroke-width:0.8;" x="33.8" xlink:href="#md3f1d1b9f8" y="50.14"/>
      </g>
     </g>
     <g id="text_16">
      <!-- 1.2 -->
      <g transform="translate(10.896875 53.939219)scale(0.1 -0.1)">
       <use xlink:href="#DejaVuSans-49"/>
       <use x="63.623047" xlink:href="#DejaVuSans-46"/>
       <use x="95.410156" xlink:href="#DejaVuSans-50"/>
      </g>
     </g>
    </g>
   </g>
   <g id="line2d_33">
    <path clip-path="url(#p51d208da4a)" d="M 36.115137 260.2 
L 36.115137 85.15 
L 36.115137 260.2 
L 38.004737 260.2 
L 38.004737 85.15 
L 38.004737 260.2 
L 39.894336 260.2 
L 39.894336 85.15 
L 39.894336 260.2 
L 41.783935 260.2 
L 41.783935 85.15 
L 41.783935 260.2 
L 43.673535 260.2 
L 43.673535 85.15 
L 43.673535 260.2 
L 45.563134 260.2 
L 45.563134 85.15 
L 45.563134 260.2 
L 47.452734 260.2 
L 47.452734 85.15 
L 47.452734 260.2 
L 49.342333 260.2 
L 49.342333 85.15 
L 49.342333 260.2 
L 51.231933 260.2 
L 51.231933 85.15 
L 51.231933 260.2 
L 53.121532 260.2 
L 53.121532 85.15 
L 53.121532 260.2 
L 55.011131 260.2 
L 55.011131 85.15 
L 55.011131 260.2 
L 56.900731 260.2 
L 56.900731 85.15 
L 56.900731 260.2 
L 58.79033 260.2 
L 58.79033 85.15 
L 58.79033 260.2 
L 60.67993 260.2 
L 60.67993 85.15 
L 60.67993 260.2 
L 62.569529 260.2 
L 62.569529 85.15 
L 62.569529 260.2 
L 64.459128 260.2 
L 64.459128 85.15 
L 64.459128 260.2 
L 66.348728 260.2 
L 66.348728 85.15 
L 66.348728 260.2 
L 68.238327 260.2 
L 68.238327 85.15 
L 68.238327 260.2 
L 70.127927 260.2 
L 70.127927 85.15 
L 70.127927 260.2 
L 72.017526 260.2 
L 72.017526 85.15 
L 72.017526 260.2 
L 73.907126 260.2 
L 73.907126 85.15 
L 73.907126 260.2 
L 75.796725 260.2 
L 75.796725 85.15 
L 75.796725 260.2 
L 77.686324 260.2 
L 77.686324 85.15 
L 77.686324 260.2 
L 79.575924 260.2 
L 79.575924 85.15 
L 79.575924 260.2 
L 81.465523 260.2 
L 81.465523 85.15 
L 81.465523 260.2 
L 83.355123 260.2 
L 83.355123 85.15 
L 83.355123 260.2 
L 85.244722 260.2 
L 85.244722 85.15 
L 85.244722 260.2 
L 87.134322 260.2 
L 87.134322 85.15 
L 87.134322 260.2 
L 89.023921 260.2 
L 89.023921 85.15 
L 89.023921 260.2 
L 90.91352 260.2 
L 90.91352 85.15 
L 90.91352 260.2 
L 92.80312 260.2 
L 92.80312 85.15 
L 92.80312 260.2 
L 94.692719 260.2 
L 94.692719 85.15 
L 94.692719 260.2 
L 96.582319 260.2 
L 96.582319 85.15 
L 96.582319 260.2 
L 98.471918 260.2 
L 98.471918 85.15 
L 98.471918 260.2 
L 100.361517 260.2 
L 100.361517 85.15 
L 100.361517 260.2 
L 102.251117 260.2 
L 102.251117 85.15 
L 102.251117 260.2 
L 104.140716 260.2 
L 104.140716 85.15 
L 104.140716 260.2 
L 106.030316 260.2 
L 106.030316 85.15 
L 106.030316 260.2 
L 107.919915 260.2 
L 107.919915 85.15 
L 107.919915 260.2 
L 109.809515 260.2 
L 109.809515 85.15 
L 109.809515 260.2 
L 111.699114 260.2 
L 111.699114 85.15 
L 111.699114 260.2 
L 113.588713 260.2 
L 113.588713 85.15 
L 113.588713 260.2 
L 115.478313 260.2 
L 115.478313 85.15 
L 115.478313 260.2 
L 117.367912 260.2 
L 117.367912 85.15 
L 117.367912 260.2 
L 119.257512 260.2 
L 119.257512 85.15 
L 119.257512 260.2 
L 121.147111 260.2 
L 121.147111 85.15 
L 121.147111 260.2 
L 123.03671 260.2 
L 123.03671 85.15 
L 123.03671 260.2 
L 124.92631 260.2 
L 124.92631 85.15 
L 124.92631 260.2 
L 126.815909 260.2 
L 126.815909 85.15 
L 126.815909 260.2 
L 128.705509 260.2 
L 128.705509 85.15 
L 128.705509 260.2 
L 130.595108 260.2 
L 130.595108 85.15 
L 130.595108 260.2 
L 132.484708 260.2 
L 132.484708 85.15 
L 132.484708 260.2 
L 134.374307 260.2 
L 134.374307 85.15 
L 134.374307 260.2 
L 136.263906 260.2 
L 136.263906 85.15 
L 136.263906 260.2 
L 138.153506 260.2 
L 138.153506 85.15 
L 138.153506 260.2 
L 140.043105 260.2 
L 140.043105 85.15 
L 140.043105 260.2 
L 141.932705 260.2 
L 141.932705 85.15 
L 141.932705 260.2 
L 143.822304 260.2 
L 143.822304 85.15 
L 143.822304 260.2 
L 145.711904 260.2 
L 145.711904 85.15 
L 145.711904 260.2 
L 147.601503 260.2 
L 147.601503 85.15 
L 147.601503 260.2 
L 149.491102 260.2 
L 149.491102 85.15 
L 149.491102 260.2 
L 151.380702 260.2 
L 151.380702 85.15 
L 151.380702 260.2 
L 153.270301 260.2 
L 153.270301 85.15 
L 153.270301 260.2 
L 155.159901 260.2 
L 155.159901 85.15 
L 155.159901 260.2 
L 157.0495 260.2 
L 157.0495 85.15 
L 157.0495 260.2 
L 158.939099 260.2 
L 158.939099 85.15 
L 158.939099 260.2 
L 160.828699 260.2 
L 160.828699 85.15 
L 160.828699 260.2 
L 162.718298 260.2 
L 162.718298 85.15 
L 162.718298 260.2 
L 164.607898 260.2 
L 164.607898 85.15 
L 164.607898 260.2 
L 166.497497 260.2 
L 166.497497 85.15 
L 166.497497 260.2 
L 168.387097 260.2 
L 168.387097 85.15 
L 168.387097 260.2 
L 170.276696 260.2 
L 170.276696 85.15 
L 170.276696 260.2 
L 172.166295 260.2 
L 172.166295 85.15 
L 172.166295 260.2 
L 174.055895 260.2 
L 174.055895 85.15 
L 174.055895 260.2 
L 175.945494 260.2 
L 175.945494 85.15 
L 175.945494 260.2 
L 177.835094 260.2 
L 177.835094 85.15 
L 177.835094 260.2 
L 179.724693 260.2 
L 179.724693 85.15 
L 179.724693 260.2 
L 181.614292 260.2 
L 181.614292 85.15 
L 181.614292 260.2 
L 183.503892 260.2 
L 183.503892 85.15 
L 183.503892 260.2 
L 185.393491 260.2 
L 185.393491 85.15 
L 185.393491 260.2 
L 187.283091 260.2 
L 187.283091 85.15 
L 187.283091 260.2 
L 189.17269 260.2 
L 189.17269 85.15 
L 189.17269 260.2 
L 191.06229 260.2 
L 191.06229 85.15 
L 191.06229 260.2 
L 192.951889 260.2 
L 192.951889 85.15 
L 192.951889 260.2 
L 194.841488 260.2 
L 194.841488 85.15 
L 194.841488 260.2 
L 196.731088 260.2 
L 196.731088 85.15 
L 196.731088 260.2 
L 198.620687 260.2 
L 198.620687 85.15 
L 198.620687 260.2 
L 200.510287 260.2 
L 200.510287 85.15 
L 200.510287 260.2 
L 202.399886 260.2 
L 202.399886 85.15 
L 202.399886 260.2 
L 204.289485 260.2 
L 204.289485 85.15 
L 204.289485 260.2 
L 206.179085 260.2 
L 206.179085 85.15 
L 206.179085 260.2 
L 208.068684 260.2 
L 208.068684 85.15 
L 208.068684 260.2 
L 209.958284 260.2 
L 209.958284 85.15 
L 209.958284 260.2 
L 211.847883 260.2 
L 211.847883 85.15 
L 211.847883 260.2 
L 213.737483 260.2 
L 213.737483 85.15 
L 213.737483 260.2 
L 215.627082 260.2 
L 215.627082 85.15 
L 215.627082 260.2 
L 217.516681 260.2 
L 217.516681 85.15 
L 217.516681 260.2 
L 219.406281 260.2 
L 219.406281 85.15 
L 219.406281 260.2 
L 221.29588 260.2 
L 221.29588 85.15 
L 221.29588 260.2 
L 223.18548 260.2 
L 223.18548 85.15 
L 223.18548 260.2 
L 225.075079 260.2 
L 225.075079 85.15 
L 225.075079 260.2 
L 226.964679 260.2 
L 226.964679 85.15 
L 226.964679 260.2 
L 228.854278 260.2 
L 228.854278 85.15 
L 228.854278 260.2 
L 230.743877 260.2 
L 230.743877 85.15 
L 230.743877 260.2 
L 232.633477 260.2 
L 232.633477 85.15 
L 232.633477 260.2 
L 234.523076 260.2 
L 234.523076 85.15 
L 234.523076 260.2 
L 236.412676 260.2 
L 236.412676 85.15 
L 236.412676 260.2 
L 238.302275 260.2 
L 238.302275 85.15 
L 238.302275 260.2 
L 240.191874 260.2 
L 240.191874 85.15 
L 240.191874 260.2 
L 242.081474 260.2 
L 242.081474 85.15 
L 242.081474 260.2 
L 243.971073 260.2 
L 243.971073 85.15 
L 243.971073 260.2 
L 245.860673 260.2 
L 245.860673 85.15 
L 245.860673 260.2 
L 247.750272 260.2 
L 247.750272 85.15 
L 247.750272 260.2 
L 249.639872 260.2 
L 249.639872 85.15 
L 249.639872 260.2 
L 251.529471 260.2 
L 251.529471 85.15 
L 251.529471 260.2 
L 253.41907 260.2 
L 253.41907 85.15 
L 253.41907 260.2 
L 255.30867 260.2 
L 255.30867 85.15 
L 255.30867 260.2 
L 257.198269 260.2 
L 257.198269 85.15 
L 257.198269 260.2 
L 259.087869 260.2 
L 259.087869 85.15 
L 259.087869 260.2 
L 260.977468 260.2 
L 260.977468 85.15 
L 260.977468 260.2 
L 262.867067 260.2 
L 262.867067 85.15 
L 262.867067 260.2 
L 264.756667 260.2 
L 264.756667 85.15 
L 264.756667 260.2 
L 266.646266 260.2 
L 266.646266 85.15 
L 266.646266 260.2 
L 268.535866 260.2 
L 268.535866 85.15 
L 268.535866 260.2 
L 270.425465 260.2 
L 270.425465 85.15 
L 270.425465 260.2 
L 272.315065 260.2 
L 272.315065 85.15 
L 272.315065 260.2 
L 274.204664 260.2 
L 274.204664 85.15 
L 274.204664 260.2 
L 276.094263 260.2 
L 276.094263 85.15 
L 276.094263 260.2 
L 277.983863 260.2 
L 277.983863 85.15 
L 277.983863 260.2 
L 279.873462 260.2 
L 279.873462 85.15 
L 279.873462 260.2 
L 281.763062 260.2 
L 281.763062 85.15 
L 281.763062 260.2 
L 283.652661 260.2 
L 283.652661 85.15 
L 283.652661 260.2 
L 285.542261 260.2 
L 285.542261 85.15 
L 285.542261 260.2 
L 287.43186 260.2 
L 287.43186 85.15 
L 287.43186 260.2 
L 289.321459 260.2 
L 289.321459 85.15 
L 289.321459 260.2 
L 291.211059 260.2 
L 291.211059 85.15 
L 291.211059 260.2 
L 293.100658 260.2 
L 293.100658 85.15 
L 293.100658 260.2 
L 294.990258 260.2 
L 294.990258 85.15 
L 294.990258 260.2 
L 296.879857 260.2 
L 296.879857 85.15 
L 296.879857 260.2 
L 298.769456 260.2 
L 298.769456 85.15 
L 298.769456 260.2 
L 300.659056 260.2 
L 300.659056 85.15 
L 300.659056 260.2 
L 302.548655 260.2 
L 302.548655 85.15 
L 302.548655 260.2 
L 304.438255 260.2 
L 304.438255 85.15 
L 304.438255 260.2 
L 306.327854 260.2 
L 306.327854 85.15 
L 306.327854 260.2 
L 308.217454 260.2 
L 308.217454 85.15 
L 308.217454 260.2 
L 310.107053 260.2 
L 310.107053 85.15 
L 310.107053 260.2 
L 311.996652 260.2 
L 311.996652 85.15 
L 311.996652 260.2 
L 313.886252 260.2 
L 313.886252 85.15 
L 313.886252 260.2 
L 315.775851 260.2 
L 315.775851 85.15 
L 315.775851 260.2 
L 317.665451 260.2 
L 317.665451 85.15 
L 317.665451 260.2 
L 319.55505 260.2 
L 319.55505 85.15 
L 319.55505 260.2 
L 321.444649 260.2 
L 321.444649 85.15 
L 321.444649 260.2 
L 323.334249 260.2 
L 323.334249 85.15 
L 323.334249 260.2 
L 325.223848 260.2 
L 325.223848 85.15 
L 325.223848 260.2 
L 327.113448 260.2 
L 327.113448 85.15 
L 327.113448 260.2 
L 329.003047 260.2 
L 329.003047 85.15 
L 329.003047 260.2 
L 330.892647 260.2 
L 330.892647 85.15 
L 330.892647 260.2 
L 332.782246 260.2 
L 332.782246 85.15 
L 332.782246 260.2 
L 334.671845 260.2 
L 334.671845 85.15 
L 334.671845 260.2 
L 336.561445 260.2 
L 336.561445 85.15 
L 336.561445 260.2 
L 338.451044 260.2 
L 338.451044 85.15 
L 338.451044 260.2 
L 340.340644 260.2 
L 340.340644 85.15 
L 340.340644 260.2 
L 342.230243 260.2 
L 342.230243 85.15 
L 342.230243 260.2 
L 344.119843 260.2 
L 344.119843 85.15 
L 344.119843 260.2 
L 346.009442 260.2 
L 346.009442 85.15 
L 346.009442 260.2 
L 347.899041 260.2 
L 347.899041 85.15 
L 347.899041 260.2 
L 349.788641 260.2 
L 349.788641 85.15 
L 349.788641 260.2 
L 351.67824 260.2 
L 351.67824 85.15 
L 351.67824 260.2 
L 353.56784 260.2 
L 353.56784 85.15 
L 353.56784 260.2 
L 355.457439 260.2 
L 355.457439 85.15 
L 355.457439 260.2 
L 357.347038 260.2 
L 357.347038 85.15 
L 357.347038 260.2 
L 359.236638 260.2 
L 359.236638 85.15 
L 359.236638 260.2 
L 361.126237 260.2 
L 361.126237 85.15 
L 361.126237 260.2 
L 363.015837 260.2 
L 363.015837 85.15 
L 363.015837 260.2 
L 364.905436 260.2 
L 364.905436 85.15 
L 364.905436 260.2 
L 366.795036 260.2 
L 366.795036 85.15 
L 366.795036 260.2 
L 368.684635 260.2 
L 368.684635 85.15 
L 368.684635 260.2 
L 370.574234 260.2 
L 370.574234 85.15 
L 370.574234 260.2 
L 372.463834 260.2 
L 372.463834 85.15 
L 372.463834 260.2 
L 374.353433 260.2 
L 374.353433 85.15 
L 374.353433 260.2 
L 376.243033 260.2 
L 376.243033 85.15 
L 376.243033 260.2 
L 378.132632 260.2 
L 378.132632 85.15 
L 378.132632 260.2 
L 380.022231 260.2 
L 380.022231 85.15 
L 380.022231 260.2 
L 381.911831 260.2 
L 381.911831 85.15 
L 381.911831 260.2 
L 383.80143 260.2 
L 383.80143 85.15 
L 383.80143 260.2 
L 385.69103 260.2 
L 385.69103 85.15 
L 385.69103 260.2 
L 387.580629 260.2 
L 387.580629 85.15 
L 387.580629 260.2 
L 389.470229 260.2 
L 389.470229 85.15 
L 389.470229 260.2 
L 391.359828 260.2 
L 391.359828 85.15 
L 391.359828 260.2 
L 393.249427 260.2 
L 393.249427 85.15 
L 393.249427 260.2 
L 395.139027 260.2 
L 395.139027 85.15 
L 395.139027 260.2 
L 397.028626 260.2 
L 397.028626 85.15 
L 397.028626 260.2 
L 398.918226 260.2 
L 398.918226 85.15 
L 398.918226 260.2 
L 400.807825 260.2 
L 400.807825 85.15 
L 400.807825 260.2 
L 402.697424 260.2 
L 402.697424 85.15 
L 402.697424 260.2 
L 404.587024 260.2 
L 404.587024 85.15 
L 404.587024 260.2 
L 406.476623 260.2 
L 406.476623 85.15 
L 406.476623 260.2 
L 408.366223 260.2 
L 408.366223 85.15 
L 408.366223 260.2 
L 410.255822 260.2 
L 410.255822 85.15 
L 410.255822 260.2 
L 410.633742 260.2 
L 410.633742 260.2 
" style="fill:none;stroke:#1f77b4;stroke-linecap:square;stroke-width:1.5;"/>
   </g>
   <g id="line2d_34">
    <path clip-path="url(#p51d208da4a)" d="M 35.878748 260.2 
L 35.878748 85.15 
L 35.878748 260.2 
L 37.768348 260.2 
L 37.768348 85.15 
L 37.768348 260.2 
L 39.657947 260.2 
L 39.657947 85.15 
L 39.657947 260.2 
L 41.547547 260.2 
L 41.547547 85.15 
L 41.547547 260.2 
L 43.437146 260.2 
L 43.437146 85.15 
L 43.437146 260.2 
L 45.326745 260.2 
L 45.326745 85.15 
L 45.326745 260.2 
L 47.216345 260.2 
L 47.216345 85.15 
L 47.216345 260.2 
L 49.105944 260.2 
L 49.105944 85.15 
L 49.105944 260.2 
L 50.995544 260.2 
L 50.995544 85.15 
L 50.995544 260.2 
L 52.885143 260.2 
L 52.885143 85.15 
L 52.885143 260.2 
L 54.774743 260.2 
L 54.774743 85.15 
L 54.774743 260.2 
L 56.664342 260.2 
L 56.664342 85.15 
L 56.664342 260.2 
L 58.553941 260.2 
L 58.553941 85.15 
L 58.553941 260.2 
L 60.443541 260.2 
L 60.443541 85.15 
L 60.443541 260.2 
L 62.33314 260.2 
L 62.33314 85.15 
L 62.33314 260.2 
L 64.22274 260.2 
L 64.22274 85.15 
L 64.22274 260.2 
L 66.112339 260.2 
L 66.112339 85.15 
L 66.112339 260.2 
L 68.001938 260.2 
L 68.001938 85.15 
L 68.001938 260.2 
L 69.891538 260.2 
L 69.891538 85.15 
L 69.891538 260.2 
L 71.781137 260.2 
L 71.781137 85.15 
L 71.781137 260.2 
L 73.670737 260.2 
L 73.670737 85.15 
L 73.670737 260.2 
L 75.560336 260.2 
L 75.560336 85.15 
L 75.560336 260.2 
L 77.449936 260.2 
L 77.449936 85.15 
L 77.449936 260.2 
L 79.339535 260.2 
L 79.339535 85.15 
L 79.339535 260.2 
L 81.229134 260.2 
L 81.229134 85.15 
L 81.229134 260.2 
L 83.118734 260.2 
L 83.118734 85.15 
L 83.118734 260.2 
L 85.008333 260.2 
L 85.008333 85.15 
L 85.008333 260.2 
L 86.897933 260.2 
L 86.897933 85.15 
L 86.897933 260.2 
L 88.787532 260.2 
L 88.787532 85.15 
L 88.787532 260.2 
L 90.677131 260.2 
L 90.677131 85.15 
L 90.677131 260.2 
L 92.566731 260.2 
L 92.566731 85.15 
L 92.566731 260.2 
L 94.45633 260.2 
L 94.45633 85.15 
L 94.45633 260.2 
L 96.34593 260.2 
L 96.34593 85.15 
L 96.34593 260.2 
L 98.235529 260.2 
L 98.235529 85.15 
L 98.235529 260.2 
L 100.125129 260.2 
L 100.125129 85.15 
L 100.125129 260.2 
L 102.014728 260.2 
L 102.014728 85.15 
L 102.014728 260.2 
L 103.904327 260.2 
L 103.904327 85.15 
L 103.904327 260.2 
L 105.793927 260.2 
L 105.793927 85.15 
L 105.793927 260.2 
L 107.683526 260.2 
L 107.683526 85.15 
L 107.683526 260.2 
L 109.573126 260.2 
L 109.573126 85.15 
L 109.573126 260.2 
L 111.462725 260.2 
L 111.462725 85.15 
L 111.462725 260.2 
L 113.352324 260.2 
L 113.352324 85.15 
L 113.352324 260.2 
L 115.241924 260.2 
L 115.241924 85.15 
L 115.241924 260.2 
L 117.131523 260.2 
L 117.131523 85.15 
L 117.131523 260.2 
L 119.021123 260.2 
L 119.021123 85.15 
L 119.021123 260.2 
L 120.910722 260.2 
L 120.910722 85.15 
L 120.910722 260.2 
L 122.800322 260.2 
L 122.800322 85.15 
L 122.800322 260.2 
L 124.689921 260.2 
L 124.689921 85.15 
L 124.689921 260.2 
L 126.57952 260.2 
L 126.57952 85.15 
L 126.57952 260.2 
L 128.46912 260.2 
L 128.46912 85.15 
L 128.46912 260.2 
L 130.358719 260.2 
L 130.358719 85.15 
L 130.358719 260.2 
L 132.248319 260.2 
L 132.248319 85.15 
L 132.248319 260.2 
L 134.137918 260.2 
L 134.137918 85.15 
L 134.137918 260.2 
L 136.027518 260.2 
L 136.027518 85.15 
L 136.027518 260.2 
L 137.917117 260.2 
L 137.917117 85.15 
L 137.917117 260.2 
L 139.806716 260.2 
L 139.806716 85.15 
L 139.806716 260.2 
L 141.696316 260.2 
L 141.696316 85.15 
L 141.696316 260.2 
L 143.585915 260.2 
L 143.585915 85.15 
L 143.585915 260.2 
L 145.475515 260.2 
L 145.475515 85.15 
L 145.475515 260.2 
L 147.365114 260.2 
L 147.365114 85.15 
L 147.365114 260.2 
L 149.254713 260.2 
L 149.254713 85.15 
L 149.254713 260.2 
L 151.144313 260.2 
L 151.144313 85.15 
L 151.144313 260.2 
L 153.033912 260.2 
L 153.033912 85.15 
L 153.033912 260.2 
L 154.923512 260.2 
L 154.923512 85.15 
L 154.923512 260.2 
L 156.813111 260.2 
L 156.813111 85.15 
L 156.813111 260.2 
L 158.702711 260.2 
L 158.702711 85.15 
L 158.702711 260.2 
L 160.59231 260.2 
L 160.59231 85.15 
L 160.59231 260.2 
L 162.481909 260.2 
L 162.481909 85.15 
L 162.481909 260.2 
L 164.371509 260.2 
L 164.371509 85.15 
L 164.371509 260.2 
L 166.261108 260.2 
L 166.261108 85.15 
L 166.261108 260.2 
L 168.150708 260.2 
L 168.150708 85.15 
L 168.150708 260.2 
L 170.040307 260.2 
L 170.040307 85.15 
L 170.040307 260.2 
L 171.929906 260.2 
L 171.929906 85.15 
L 171.929906 260.2 
L 173.819506 260.2 
L 173.819506 85.15 
L 173.819506 260.2 
L 175.709105 260.2 
L 175.709105 85.15 
L 175.709105 260.2 
L 177.598705 260.2 
L 177.598705 85.15 
L 177.598705 260.2 
L 179.488304 260.2 
L 179.488304 85.15 
L 179.488304 260.2 
L 181.377904 260.2 
L 181.377904 85.15 
L 181.377904 260.2 
L 183.267503 260.2 
L 183.267503 85.15 
L 183.267503 260.2 
L 185.157102 260.2 
L 185.157102 85.15 
L 185.157102 260.2 
L 187.046702 260.2 
L 187.046702 85.15 
L 187.046702 260.2 
L 188.936301 260.2 
L 188.936301 85.15 
L 188.936301 260.2 
L 190.825901 260.2 
L 190.825901 85.15 
L 190.825901 260.2 
L 192.7155 260.2 
L 192.7155 85.15 
L 192.7155 260.2 
L 194.6051 260.2 
L 194.6051 85.15 
L 194.6051 260.2 
L 196.494699 260.2 
L 196.494699 85.15 
L 196.494699 260.2 
L 198.384298 260.2 
L 198.384298 85.15 
L 198.384298 260.2 
L 200.273898 260.2 
L 200.273898 85.15 
L 200.273898 260.2 
L 202.163497 260.2 
L 202.163497 85.15 
L 202.163497 260.2 
L 204.053097 260.2 
L 204.053097 85.15 
L 204.053097 260.2 
L 205.942696 260.2 
L 205.942696 85.15 
L 205.942696 260.2 
L 207.832295 260.2 
L 207.832295 85.15 
L 207.832295 260.2 
L 209.721895 260.2 
L 209.721895 85.15 
L 209.721895 260.2 
L 211.611494 260.2 
L 211.611494 85.15 
L 211.611494 260.2 
L 213.501094 260.2 
L 213.501094 85.15 
L 213.501094 260.2 
L 215.390693 260.2 
L 215.390693 85.15 
L 215.390693 260.2 
L 217.280293 260.2 
L 217.280293 85.15 
L 217.280293 260.2 
L 219.169892 260.2 
L 219.169892 85.15 
L 219.169892 260.2 
L 221.059491 260.2 
L 221.059491 85.15 
L 221.059491 260.2 
L 222.949091 260.2 
L 222.949091 85.15 
L 222.949091 260.2 
L 224.83869 260.2 
L 224.83869 85.15 
L 224.83869 260.2 
L 226.72829 260.2 
L 226.72829 85.15 
L 226.72829 260.2 
L 228.617889 260.2 
L 228.617889 85.15 
L 228.617889 260.2 
L 230.507488 260.2 
L 230.507488 85.15 
L 230.507488 260.2 
L 232.397088 260.2 
L 232.397088 85.15 
L 232.397088 260.2 
L 234.286687 260.2 
L 234.286687 85.15 
L 234.286687 260.2 
L 236.176287 260.2 
L 236.176287 85.15 
L 236.176287 260.2 
L 238.065886 260.2 
L 238.065886 85.15 
L 238.065886 260.2 
L 239.955486 260.2 
L 239.955486 85.15 
L 239.955486 260.2 
L 241.845085 260.2 
L 241.845085 85.15 
L 241.845085 260.2 
L 243.734684 260.2 
L 243.734684 85.15 
L 243.734684 260.2 
L 245.624284 260.2 
L 245.624284 85.15 
L 245.624284 260.2 
L 247.513883 260.2 
L 247.513883 85.15 
L 247.513883 260.2 
L 249.403483 260.2 
L 249.403483 85.15 
L 249.403483 260.2 
L 251.293082 260.2 
L 251.293082 85.15 
L 251.293082 260.2 
L 253.182682 260.2 
L 253.182682 85.15 
L 253.182682 260.2 
L 255.072281 260.2 
L 255.072281 85.15 
L 255.072281 260.2 
L 256.96188 260.2 
L 256.96188 85.15 
L 256.96188 260.2 
L 258.85148 260.2 
L 258.85148 85.15 
L 258.85148 260.2 
L 260.741079 260.2 
L 260.741079 85.15 
L 260.741079 260.2 
L 262.630679 260.2 
L 262.630679 85.15 
L 262.630679 260.2 
L 264.520278 260.2 
L 264.520278 85.15 
L 264.520278 260.2 
L 266.409877 260.2 
L 266.409877 85.15 
L 266.409877 260.2 
L 268.299477 260.2 
L 268.299477 85.15 
L 268.299477 260.2 
L 270.189076 260.2 
L 270.189076 85.15 
L 270.189076 260.2 
L 272.078676 260.2 
L 272.078676 85.15 
L 272.078676 260.2 
L 273.968275 260.2 
L 273.968275 85.15 
L 273.968275 260.2 
L 275.857875 260.2 
L 275.857875 85.15 
L 275.857875 260.2 
L 277.747474 260.2 
L 277.747474 85.15 
L 277.747474 260.2 
L 279.637073 260.2 
L 279.637073 85.15 
L 279.637073 260.2 
L 281.526673 260.2 
L 281.526673 85.15 
L 281.526673 260.2 
L 283.416272 260.2 
L 283.416272 85.15 
L 283.416272 260.2 
L 285.305872 260.2 
L 285.305872 85.15 
L 285.305872 260.2 
L 287.195471 260.2 
L 287.195471 85.15 
L 287.195471 260.2 
L 289.08507 260.2 
L 289.08507 85.15 
L 289.08507 260.2 
L 290.97467 260.2 
L 290.97467 85.15 
L 290.97467 260.2 
L 292.864269 260.2 
L 292.864269 85.15 
L 292.864269 260.2 
L 294.753869 260.2 
L 294.753869 85.15 
L 294.753869 260.2 
L 296.643468 260.2 
L 296.643468 85.15 
L 296.643468 260.2 
L 298.533068 260.2 
L 298.533068 85.15 
L 298.533068 260.2 
L 300.422667 260.2 
L 300.422667 85.15 
L 300.422667 260.2 
L 302.312266 260.2 
L 302.312266 85.15 
L 302.312266 260.2 
L 304.201866 260.2 
L 304.201866 85.15 
L 304.201866 260.2 
L 306.091465 260.2 
L 306.091465 85.15 
L 306.091465 260.2 
L 307.981065 260.2 
L 307.981065 85.15 
L 307.981065 260.2 
L 309.870664 260.2 
L 309.870664 85.15 
L 309.870664 260.2 
L 311.760263 260.2 
L 311.760263 85.15 
L 311.760263 260.2 
L 313.649863 260.2 
L 313.649863 85.15 
L 313.649863 260.2 
L 315.539462 260.2 
L 315.539462 85.15 
L 315.539462 260.2 
L 317.429062 260.2 
L 317.429062 85.15 
L 317.429062 260.2 
L 319.318661 260.2 
L 319.318661 85.15 
L 319.318661 260.2 
L 321.208261 260.2 
L 321.208261 85.15 
L 321.208261 260.2 
L 323.09786 260.2 
L 323.09786 85.15 
L 323.09786 260.2 
L 324.987459 260.2 
L 324.987459 85.15 
L 324.987459 260.2 
L 326.877059 260.2 
L 326.877059 85.15 
L 326.877059 260.2 
L 328.766658 260.2 
L 328.766658 85.15 
L 328.766658 260.2 
L 330.656258 260.2 
L 330.656258 85.15 
L 330.656258 260.2 
L 332.545857 260.2 
L 332.545857 85.15 
L 332.545857 260.2 
L 334.435457 260.2 
L 334.435457 85.15 
L 334.435457 260.2 
L 336.325056 260.2 
L 336.325056 85.15 
L 336.325056 260.2 
L 338.214655 260.2 
L 338.214655 85.15 
L 338.214655 260.2 
L 340.104255 260.2 
L 340.104255 85.15 
L 340.104255 260.2 
L 341.993854 260.2 
L 341.993854 85.15 
L 341.993854 260.2 
L 343.883454 260.2 
L 343.883454 85.15 
L 343.883454 260.2 
L 345.773053 260.2 
L 345.773053 85.15 
L 345.773053 260.2 
L 347.662652 260.2 
L 347.662652 85.15 
L 347.662652 260.2 
L 349.552252 260.2 
L 349.552252 85.15 
L 349.552252 260.2 
L 351.441851 260.2 
L 351.441851 85.15 
L 351.441851 260.2 
L 353.331451 260.2 
L 353.331451 85.15 
L 353.331451 260.2 
L 355.22105 260.2 
L 355.22105 85.15 
L 355.22105 260.2 
L 357.11065 260.2 
L 357.11065 85.15 
L 357.11065 260.2 
L 359.000249 260.2 
L 359.000249 85.15 
L 359.000249 260.2 
L 360.889848 260.2 
L 360.889848 85.15 
L 360.889848 260.2 
L 362.779448 260.2 
L 362.779448 85.15 
L 362.779448 260.2 
L 364.669047 260.2 
L 364.669047 85.15 
L 364.669047 260.2 
L 366.558647 260.2 
L 366.558647 85.15 
L 366.558647 260.2 
L 368.448246 260.2 
L 368.448246 85.15 
L 368.448246 260.2 
L 370.337845 260.2 
L 370.337845 85.15 
L 370.337845 260.2 
L 372.227445 260.2 
L 372.227445 85.15 
L 372.227445 260.2 
L 374.117044 260.2 
L 374.117044 85.15 
L 374.117044 260.2 
L 376.006644 260.2 
L 376.006644 85.15 
L 376.006644 260.2 
L 377.896243 260.2 
L 377.896243 85.15 
L 377.896243 260.2 
L 379.785843 260.2 
L 379.785843 85.15 
L 379.785843 260.2 
L 381.675442 260.2 
L 381.675442 85.15 
L 381.675442 260.2 
L 383.565041 260.2 
L 383.565041 85.15 
L 383.565041 260.2 
L 385.454641 260.2 
L 385.454641 85.15 
L 385.454641 260.2 
L 387.34424 260.2 
L 387.34424 85.15 
L 387.34424 260.2 
L 389.23384 260.2 
L 389.23384 85.15 
L 389.23384 260.2 
L 391.123439 260.2 
L 391.123439 85.15 
L 391.123439 260.2 
L 393.013039 260.2 
L 393.013039 85.15 
L 393.013039 260.2 
L 394.902638 260.2 
L 394.902638 85.15 
L 394.902638 260.2 
L 396.792237 260.2 
L 396.792237 85.15 
L 396.792237 260.2 
L 398.681837 260.2 
L 398.681837 85.15 
L 398.681837 260.2 
L 400.571436 260.2 
L 400.571436 85.15 
L 400.571436 260.2 
L 402.461036 260.2 
L 402.461036 85.15 
L 402.461036 260.2 
L 404.350635 260.2 
L 404.350635 85.15 
L 404.350635 260.2 
L 406.240234 260.2 
L 406.240234 85.15 
L 406.240234 260.2 
L 408.129834 260.2 
L 408.129834 85.15 
L 408.129834 260.2 
L 410.019433 260.2 
L 410.019433 85.15 
L 410.019433 260.2 
L 410.255633 260.2 
L 410.255633 260.2 
" style="fill:none;stroke:#ff7f0e;stroke-linecap:square;stroke-width:1.5;"/>
   </g>
   <g id="patch_3">
    <path d="M 33.8 260.2 
L 33.8 26.8 
" style="fill:none;stroke:#000000;stroke-linecap:square;stroke-linejoin:miter;stroke-width:0.8;"/>
   </g>
   <g id="patch_4">
    <path d="M 415.318179 260.2 
L 415.318179 26.8 
" style="fill:none;stroke:#000000;stroke-linecap:square;stroke-linejoin:miter;stroke-width:0.8;"/>
   </g>
   <g id="patch_5">
    <path d="M 33.8 260.2 
L 415.318179 260.2 
" style="fill:none;stroke:#000000;stroke-linecap:square;stroke-linejoin:miter;stroke-width:0.8;"/>
   </g>
   <g id="patch_6">
    <path d="M 33.8 26.8 
L 415.318179 26.8 
" style="fill:none;stroke:#000000;stroke-linecap:square;stroke-linejoin:miter;stroke-width:0.8;"/>
   </g>
   <g id="text_17">
    <!-- buffer size -->
    <defs>
     <path d="M 48.6875 27.296875 
Q 48.6875 37.203125 44.609375 42.84375 
Q 40.53125 48.484375 33.40625 48.484375 
Q 26.265625 48.484375 22.1875 42.84375 
Q 18.109375 37.203125 18.109375 27.296875 
Q 18.109375 17.390625 22.1875 11.75 
Q 26.265625 6.109375 33.40625 6.109375 
Q 40.53125 6.109375 44.609375 11.75 
Q 48.6875 17.390625 48.6875 27.296875 
z
M 18.109375 46.390625 
Q 20.953125 51.265625 25.265625 53.625 
Q 29.59375 56 35.59375 56 
Q 45.5625 56 51.78125 48.09375 
Q 58.015625 40.1875 58.015625 27.296875 
Q 58.015625 14.40625 51.78125 6.484375 
Q 45.5625 -1.421875 35.59375 -1.421875 
Q 29.59375 -1.421875 25.265625 0.953125 
Q 20.953125 3.328125 18.109375 8.203125 
L 18.109375 0 
L 9.078125 0 
L 9.078125 75.984375 
L 18.109375 75.984375 
z
" id="DejaVuSans-98"/>
     <path d="M 8.5 21.578125 
L 8.5 54.6875 
L 17.484375 54.6875 
L 17.484375 21.921875 
Q 17.484375 14.15625 20.5 10.265625 
Q 23.53125 6.390625 29.59375 6.390625 
Q 36.859375 6.390625 41.078125 11.03125 
Q 45.3125 15.671875 45.3125 23.6875 
L 45.3125 54.6875 
L 54.296875 54.6875 
L 54.296875 0 
L 45.3125 0 
L 45.3125 8.40625 
Q 42.046875 3.421875 37.71875 1 
Q 33.40625 -1.421875 27.6875 -1.421875 
Q 18.265625 -1.421875 13.375 4.4375 
Q 8.5 10.296875 8.5 21.578125 
z
M 31.109375 56 
z
" id="DejaVuSans-117"/>
     <path d="M 37.109375 75.984375 
L 37.109375 68.5 
L 28.515625 68.5 
Q 23.6875 68.5 21.796875 66.546875 
Q 19.921875 64.59375 19.921875 59.515625 
L 19.921875 54.6875 
L 34.71875 54.6875 
L 34.71875 47.703125 
L 19.921875 47.703125 
L 19.921875 0 
L 10.890625 0 
L 10.890625 47.703125 
L 2.296875 47.703125 
L 2.296875 54.6875 
L 10.890625 54.6875 
L 10.890625 58.5 
Q 10.890625 67.625 15.140625 71.796875 
Q 19.390625 75.984375 28.609375 75.984375 
z
" id="DejaVuSans-102"/>
     <path d="M 56.203125 29.59375 
L 56.203125 25.203125 
L 14.890625 25.203125 
Q 15.484375 15.921875 20.484375 11.0625 
Q 25.484375 6.203125 34.421875 6.203125 
Q 39.59375 6.203125 44.453125 7.46875 
Q 49.3125 8.734375 54.109375 11.28125 
L 54.109375 2.78125 
Q 49.265625 0.734375 44.1875 -0.34375 
Q 39.109375 -1.421875 33.890625 -1.421875 
Q 20.796875 -1.421875 13.15625 6.1875 
Q 5.515625 13.8125 5.515625 26.8125 
Q 5.515625 40.234375 12.765625 48.109375 
Q 20.015625 56 32.328125 56 
Q 43.359375 56 49.78125 48.890625 
Q 56.203125 41.796875 56.203125 29.59375 
z
M 47.21875 32.234375 
Q 47.125 39.59375 43.09375 43.984375 
Q 39.0625 48.390625 32.421875 48.390625 
Q 24.90625 48.390625 20.390625 44.140625 
Q 15.875 39.890625 15.1875 32.171875 
z
" id="DejaVuSans-101"/>
     <path d="M 41.109375 46.296875 
Q 39.59375 47.171875 37.8125 47.578125 
Q 36.03125 48 33.890625 48 
Q 26.265625 48 22.1875 43.046875 
Q 18.109375 38.09375 18.109375 28.8125 
L 18.109375 0 
L 9.078125 0 
L 9.078125 54.6875 
L 18.109375 54.6875 
L 18.109375 46.1875 
Q 20.953125 51.171875 25.484375 53.578125 
Q 30.03125 56 36.53125 56 
Q 37.453125 56 38.578125 55.875 
Q 39.703125 55.765625 41.0625 55.515625 
z
" id="DejaVuSans-114"/>
     <path id="DejaVuSans-32"/>
     <path d="M 44.28125 53.078125 
L 44.28125 44.578125 
Q 40.484375 46.53125 36.375 47.5 
Q 32.28125 48.484375 27.875 48.484375 
Q 21.1875 48.484375 17.84375 46.4375 
Q 14.5 44.390625 14.5 40.28125 
Q 14.5 37.15625 16.890625 35.375 
Q 19.28125 33.59375 26.515625 31.984375 
L 29.59375 31.296875 
Q 39.15625 29.25 43.1875 25.515625 
Q 47.21875 21.78125 47.21875 15.09375 
Q 47.21875 7.46875 41.1875 3.015625 
Q 35.15625 -1.421875 24.609375 -1.421875 
Q 20.21875 -1.421875 15.453125 -0.5625 
Q 10.6875 0.296875 5.421875 2 
L 5.421875 11.28125 
Q 10.40625 8.6875 15.234375 7.390625 
Q 20.0625 6.109375 24.8125 6.109375 
Q 31.15625 6.109375 34.5625 8.28125 
Q 37.984375 10.453125 37.984375 14.40625 
Q 37.984375 18.0625 35.515625 20.015625 
Q 33.0625 21.96875 24.703125 23.78125 
L 21.578125 24.515625 
Q 13.234375 26.265625 9.515625 29.90625 
Q 5.8125 33.546875 5.8125 39.890625 
Q 5.8125 47.609375 11.28125 51.796875 
Q 16.75 56 26.8125 56 
Q 31.78125 56 36.171875 55.265625 
Q 40.578125 54.546875 44.28125 53.078125 
z
" id="DejaVuSans-115"/>
     <path d="M 9.421875 54.6875 
L 18.40625 54.6875 
L 18.40625 0 
L 9.421875 0 
z
M 9.421875 75.984375 
L 18.40625 75.984375 
L 18.40625 64.59375 
L 9.421875 64.59375 
z
" id="DejaVuSans-105"/>
     <path d="M 5.515625 54.6875 
L 48.1875 54.6875 
L 48.1875 46.484375 
L 14.40625 7.171875 
L 48.1875 7.171875 
L 48.1875 0 
L 4.296875 0 
L 4.296875 8.203125 
L 38.09375 47.515625 
L 5.515625 47.515625 
z
" id="DejaVuSans-122"/>
    </defs>
    <g transform="translate(193.024402 20.8)scale(0.12 -0.12)">
     <use xlink:href="#DejaVuSans-98"/>
     <use x="63.476562" xlink:href="#DejaVuSans-117"/>
     <use x="126.855469" xlink:href="#DejaVuSans-102"/>
     <use x="162.060547" xlink:href="#DejaVuSans-102"/>
     <use x="197.265625" xlink:href="#DejaVuSans-101"/>
     <use x="258.789062" xlink:href="#DejaVuSans-114"/>
     <use x="299.902344" xlink:href="#DejaVuSans-32"/>
     <use x="331.689453" xlink:href="#DejaVuSans-115"/>
     <use x="383.789062" xlink:href="#DejaVuSans-105"/>
     <use x="411.572266" xlink:href="#DejaVuSans-122"/>
     <use x="464.0625" xlink:href="#DejaVuSans-101"/>
    </g>
   </g>
   <g id="legend_1">
    <g id="patch_7">
     <path d="M 263.357242 64.15625 
L 408.318179 64.15625 
Q 410.318179 64.15625 410.318179 62.15625 
L 410.318179 33.8 
Q 410.318179 31.8 408.318179 31.8 
L 263.357242 31.8 
Q 261.357242 31.8 261.357242 33.8 
L 261.357242 62.15625 
Q 261.357242 64.15625 263.357242 64.15625 
z
" style="fill:#ffffff;opacity:0.8;stroke:#cccccc;stroke-linejoin:miter;"/>
    </g>
    <g id="line2d_35">
     <path d="M 265.357242 39.898438 
L 285.357242 39.898438 
" style="fill:none;stroke:#1f77b4;stroke-linecap:square;stroke-width:1.5;"/>
    </g>
    <g id="line2d_36"/>
    <g id="text_18">
     <!-- Network.nodeRx.traRx -->
     <defs>
      <path d="M 9.8125 72.90625 
L 23.09375 72.90625 
L 55.421875 11.921875 
L 55.421875 72.90625 
L 64.984375 72.90625 
L 64.984375 0 
L 51.703125 0 
L 19.390625 60.984375 
L 19.390625 0 
L 9.8125 0 
z
" id="DejaVuSans-78"/>
      <path d="M 18.3125 70.21875 
L 18.3125 54.6875 
L 36.8125 54.6875 
L 36.8125 47.703125 
L 18.3125 47.703125 
L 18.3125 18.015625 
Q 18.3125 11.328125 20.140625 9.421875 
Q 21.96875 7.515625 27.59375 7.515625 
L 36.8125 7.515625 
L 36.8125 0 
L 27.59375 0 
Q 17.1875 0 13.234375 3.875 
Q 9.28125 7.765625 9.28125 18.015625 
L 9.28125 47.703125 
L 2.6875 47.703125 
L 2.6875 54.6875 
L 9.28125 54.6875 
L 9.28125 70.21875 
z
" id="DejaVuSans-116"/>
      <path d="M 4.203125 54.6875 
L 13.1875 54.6875 
L 24.421875 12.015625 
L 35.59375 54.6875 
L 46.1875 54.6875 
L 57.421875 12.015625 
L 68.609375 54.6875 
L 77.59375 54.6875 
L 63.28125 0 
L 52.6875 0 
L 40.921875 44.828125 
L 29.109375 0 
L 18.5 0 
z
" id="DejaVuSans-119"/>
      <path d="M 30.609375 48.390625 
Q 23.390625 48.390625 19.1875 42.75 
Q 14.984375 37.109375 14.984375 27.296875 
Q 14.984375 17.484375 19.15625 11.84375 
Q 23.34375 6.203125 30.609375 6.203125 
Q 37.796875 6.203125 41.984375 11.859375 
Q 46.1875 17.53125 46.1875 27.296875 
Q 46.1875 37.015625 41.984375 42.703125 
Q 37.796875 48.390625 30.609375 48.390625 
z
M 30.609375 56 
Q 42.328125 56 49.015625 48.375 
Q 55.71875 40.765625 55.71875 27.296875 
Q 55.71875 13.875 49.015625 6.21875 
Q 42.328125 -1.421875 30.609375 -1.421875 
Q 18.84375 -1.421875 12.171875 6.21875 
Q 5.515625 13.875 5.515625 27.296875 
Q 5.515625 40.765625 12.171875 48.375 
Q 18.84375 56 30.609375 56 
z
" id="DejaVuSans-111"/>
      <path d="M 9.078125 75.984375 
L 18.109375 75.984375 
L 18.109375 31.109375 
L 44.921875 54.6875 
L 56.390625 54.6875 
L 27.390625 29.109375 
L 57.625 0 
L 45.90625 0 
L 18.109375 26.703125 
L 18.109375 0 
L 9.078125 0 
z
" id="DejaVuSans-107"/>
      <path d="M 54.890625 33.015625 
L 54.890625 0 
L 45.90625 0 
L 45.90625 32.71875 
Q 45.90625 40.484375 42.875 44.328125 
Q 39.84375 48.1875 33.796875 48.1875 
Q 26.515625 48.1875 22.3125 43.546875 
Q 18.109375 38.921875 18.109375 30.90625 
L 18.109375 0 
L 9.078125 0 
L 9.078125 54.6875 
L 18.109375 54.6875 
L 18.109375 46.1875 
Q 21.34375 51.125 25.703125 53.5625 
Q 30.078125 56 35.796875 56 
Q 45.21875 56 50.046875 50.171875 
Q 54.890625 44.34375 54.890625 33.015625 
z
" id="DejaVuSans-110"/>
      <path d="M 45.40625 46.390625 
L 45.40625 75.984375 
L 54.390625 75.984375 
L 54.390625 0 
L 45.40625 0 
L 45.40625 8.203125 
Q 42.578125 3.328125 38.25 0.953125 
Q 33.9375 -1.421875 27.875 -1.421875 
Q 17.96875 -1.421875 11.734375 6.484375 
Q 5.515625 14.40625 5.515625 27.296875 
Q 5.515625 40.1875 11.734375 48.09375 
Q 17.96875 56 27.875 56 
Q 33.9375 56 38.25 53.625 
Q 42.578125 51.265625 45.40625 46.390625 
z
M 14.796875 27.296875 
Q 14.796875 17.390625 18.875 11.75 
Q 22.953125 6.109375 30.078125 6.109375 
Q 37.203125 6.109375 41.296875 11.75 
Q 45.40625 17.390625 45.40625 27.296875 
Q 45.40625 37.203125 41.296875 42.84375 
Q 37.203125 48.484375 30.078125 48.484375 
Q 22.953125 48.484375 18.875 42.84375 
Q 14.796875 37.203125 14.796875 27.296875 
z
" id="DejaVuSans-100"/>
      <path d="M 44.390625 34.1875 
Q 47.5625 33.109375 50.5625 29.59375 
Q 53.5625 26.078125 56.59375 19.921875 
L 66.609375 0 
L 56 0 
L 46.6875 18.703125 
Q 43.0625 26.03125 39.671875 28.421875 
Q 36.28125 30.8125 30.421875 30.8125 
L 19.671875 30.8125 
L 19.671875 0 
L 9.8125 0 
L 9.8125 72.90625 
L 32.078125 72.90625 
Q 44.578125 72.90625 50.734375 67.671875 
Q 56.890625 62.453125 56.890625 51.90625 
Q 56.890625 45.015625 53.6875 40.46875 
Q 50.484375 35.9375 44.390625 34.1875 
z
M 19.671875 64.796875 
L 19.671875 38.921875 
L 32.078125 38.921875 
Q 39.203125 38.921875 42.84375 42.21875 
Q 46.484375 45.515625 46.484375 51.90625 
Q 46.484375 58.296875 42.84375 61.546875 
Q 39.203125 64.796875 32.078125 64.796875 
z
" id="DejaVuSans-82"/>
      <path d="M 54.890625 54.6875 
L 35.109375 28.078125 
L 55.90625 0 
L 45.3125 0 
L 29.390625 21.484375 
L 13.484375 0 
L 2.875 0 
L 24.125 28.609375 
L 4.6875 54.6875 
L 15.28125 54.6875 
L 29.78125 35.203125 
L 44.28125 54.6875 
z
" id="DejaVuSans-120"/>
      <path d="M 34.28125 27.484375 
Q 23.390625 27.484375 19.1875 25 
Q 14.984375 22.515625 14.984375 16.5 
Q 14.984375 11.71875 18.140625 8.90625 
Q 21.296875 6.109375 26.703125 6.109375 
Q 34.1875 6.109375 38.703125 11.40625 
Q 43.21875 16.703125 43.21875 25.484375 
L 43.21875 27.484375 
z
M 52.203125 31.203125 
L 52.203125 0 
L 43.21875 0 
L 43.21875 8.296875 
Q 40.140625 3.328125 35.546875 0.953125 
Q 30.953125 -1.421875 24.3125 -1.421875 
Q 15.921875 -1.421875 10.953125 3.296875 
Q 6 8.015625 6 15.921875 
Q 6 25.140625 12.171875 29.828125 
Q 18.359375 34.515625 30.609375 34.515625 
L 43.21875 34.515625 
L 43.21875 35.40625 
Q 43.21875 41.609375 39.140625 45 
Q 35.0625 48.390625 27.6875 48.390625 
Q 23 48.390625 18.546875 47.265625 
Q 14.109375 46.140625 10.015625 43.890625 
L 10.015625 52.203125 
Q 14.9375 54.109375 19.578125 55.046875 
Q 24.21875 56 28.609375 56 
Q 40.484375 56 46.34375 49.84375 
Q 52.203125 43.703125 52.203125 31.203125 
z
" id="DejaVuSans-97"/>
     </defs>
     <g transform="translate(293.357242 43.398438)scale(0.1 -0.1)">
      <use xlink:href="#DejaVuSans-78"/>
      <use x="74.804688" xlink:href="#DejaVuSans-101"/>
      <use x="136.328125" xlink:href="#DejaVuSans-116"/>
      <use x="175.537109" xlink:href="#DejaVuSans-119"/>
      <use x="257.324219" xlink:href="#DejaVuSans-111"/>
      <use x="318.505859" xlink:href="#DejaVuSans-114"/>
      <use x="359.619141" xlink:href="#DejaVuSans-107"/>
      <use x="417.529297" xlink:href="#DejaVuSans-46"/>
      <use x="449.316406" xlink:href="#DejaVuSans-110"/>
      <use x="512.695312" xlink:href="#DejaVuSans-111"/>
      <use x="573.876953" xlink:href="#DejaVuSans-100"/>
      <use x="637.353516" xlink:href="#DejaVuSans-101"/>
      <use x="698.876953" xlink:href="#DejaVuSans-82"/>
      <use x="768.359375" xlink:href="#DejaVuSans-120"/>
      <use x="827.539062" xlink:href="#DejaVuSans-46"/>
      <use x="859.326172" xlink:href="#DejaVuSans-116"/>
      <use x="898.535156" xlink:href="#DejaVuSans-114"/>
      <use x="939.648438" xlink:href="#DejaVuSans-97"/>
      <use x="1000.927734" xlink:href="#DejaVuSans-82"/>
      <use x="1070.410156" xlink:href="#DejaVuSans-120"/>
     </g>
    </g>
    <g id="line2d_37">
     <path d="M 265.357242 54.576562 
L 285.357242 54.576562 
" style="fill:none;stroke:#ff7f0e;stroke-linecap:square;stroke-width:1.5;"/>
    </g>
    <g id="line2d_38"/>
    <g id="text_19">
     <!-- Network.queue0 -->
     <defs>
      <path d="M 14.796875 27.296875 
Q 14.796875 17.390625 18.875 11.75 
Q 22.953125 6.109375 30.078125 6.109375 
Q 37.203125 6.109375 41.296875 11.75 
Q 45.40625 17.390625 45.40625 27.296875 
Q 45.40625 37.203125 41.296875 42.84375 
Q 37.203125 48.484375 30.078125 48.484375 
Q 22.953125 48.484375 18.875 42.84375 
Q 14.796875 37.203125 14.796875 27.296875 
z
M 45.40625 8.203125 
Q 42.578125 3.328125 38.25 0.953125 
Q 33.9375 -1.421875 27.875 -1.421875 
Q 17.96875 -1.421875 11.734375 6.484375 
Q 5.515625 14.40625 5.515625 27.296875 
Q 5.515625 40.1875 11.734375 48.09375 
Q 17.96875 56 27.875 56 
Q 33.9375 56 38.25 53.625 
Q 42.578125 51.265625 45.40625 46.390625 
L 45.40625 54.6875 
L 54.390625 54.6875 
L 54.390625 -20.796875 
L 45.40625 -20.796875 
z
" id="DejaVuSans-113"/>
     </defs>
     <g transform="translate(293.357242 58.076562)scale(0.1 -0.1)">
      <use xlink:href="#DejaVuSans-78"/>
      <use x="74.804688" xlink:href="#DejaVuSans-101"/>
      <use x="136.328125" xlink:href="#DejaVuSans-116"/>
      <use x="175.537109" xlink:href="#DejaVuSans-119"/>
      <use x="257.324219" xlink:href="#DejaVuSans-111"/>
      <use x="318.505859" xlink:href="#DejaVuSans-114"/>
      <use x="359.619141" xlink:href="#DejaVuSans-107"/>
      <use x="417.529297" xlink:href="#DejaVuSans-46"/>
      <use x="449.316406" xlink:href="#DejaVuSans-113"/>
      <use x="512.792969" xlink:href="#DejaVuSans-117"/>
      <use x="576.171875" xlink:href="#DejaVuSans-101"/>
      <use x="637.695312" xlink:href="#DejaVuSans-117"/>
      <use x="701.074219" xlink:href="#DejaVuSans-101"/>
      <use x="762.597656" xlink:href="#DejaVuSans-48"/>
     </g>
    </g>
   </g>
  </g>
 </g>
 <defs>
  <clipPath id="p51d208da4a">
   <rect height="233.4" width="381.518179" x="33.8" y="26.8"/>
  </clipPath>
 </defs>
</svg>
