<?xml version="1.0" encoding="utf-8" standalone="no"?>
<!DOCTYPE svg PUBLIC "-//W3C//DTD SVG 1.1//EN"
  "http://www.w3.org/Graphics/SVG/1.1/DTD/svg11.dtd">
<svg xmlns:xlink="http://www.w3.org/1999/xlink" width="432pt" height="288pt" viewBox="0 0 432 288" xmlns="http://www.w3.org/2000/svg" version="1.1">
 <metadata>
  <rdf:RDF xmlns:dc="http://purl.org/dc/elements/1.1/" xmlns:cc="http://creativecommons.org/ns#" xmlns:rdf="http://www.w3.org/1999/02/22-rdf-syntax-ns#">
   <cc:Work>
    <dc:type rdf:resource="http://purl.org/dc/dcmitype/StillImage"/>
    <dc:date>2022-05-22T20:32:13.347635</dc:date>
    <dc:format>image/svg+xml</dc:format>
    <dc:creator>
     <cc:Agent>
      <dc:title>omnetpp.scave 6.0.0; Matplotlib 3.5.1 w/ backend GTK3Agg; Pandas 1.4.2; Python 3.8.10; Linux-5.4.0-109-generic-x86_64-with-glibc2.29</dc:title>
     </cc:Agent>
    </dc:creator>
   </cc:Work>
  </rdf:RDF>
 </metadata>
 <defs>
  <style type="text/css">*{stroke-linejoin: round; stroke-linecap: butt}</style>
 </defs>
 <g id="figure_1">
  <g id="patch_1">
   <path d="M 0 288 
L 432 288 
L 432 0 
L 0 0 
z
" style="fill: #ffffff"/>
  </g>
  <g id="axes_1">
   <g id="patch_2">
    <path d="M 33.83125 260.45 
L 415.586633 260.45 
L 415.586633 25.8 
L 33.83125 25.8 
z
" style="fill: #ffffff"/>
   </g>
   <g id="matplotlib.axis_1">
    <g id="xtick_1">
     <g id="line2d_1">
      <path d="M 33.83125 260.45 
L 33.83125 25.8 
" clip-path="url(#p5fa8cb0bb1)" style="fill: none; stroke: #b0b0b0; stroke-width: 0.8; stroke-linecap: square"/>
     </g>
     <g id="line2d_2">
      <defs>
       <path id="m421d646583" d="M 0 0 
L 0 3.5 
" style="stroke: #000000; stroke-width: 0.8"/>
      </defs>
      <g>
       <use xlink:href="#m421d646583" x="33.83125" y="260.45" style="stroke: #000000; stroke-width: 0.8"/>
      </g>
     </g>
     <g id="text_1">
      <!-- 0 -->
      <g transform="translate(30.65 275.048437)scale(0.1 -0.1)">
       <defs>
        <path id="DejaVuSans-30" d="M 2034 4250 
Q 1547 4250 1301 3770 
Q 1056 3291 1056 2328 
Q 1056 1369 1301 889 
Q 1547 409 2034 409 
Q 2525 409 2770 889 
Q 3016 1369 3016 2328 
Q 3016 3291 2770 3770 
Q 2525 4250 2034 4250 
z
M 2034 4750 
Q 2819 4750 3233 4129 
Q 3647 3509 3647 2328 
Q 3647 1150 3233 529 
Q 2819 -91 2034 -91 
Q 1250 -91 836 529 
Q 422 1150 422 2328 
Q 422 3509 836 4129 
Q 1250 4750 2034 4750 
z
" transform="scale(0.015625)"/>
       </defs>
       <use xlink:href="#DejaVuSans-30"/>
      </g>
     </g>
    </g>
    <g id="xtick_2">
     <g id="line2d_3">
      <path d="M 81.050173 260.45 
L 81.050173 25.8 
" clip-path="url(#p5fa8cb0bb1)" style="fill: none; stroke: #b0b0b0; stroke-width: 0.8; stroke-linecap: square"/>
     </g>
     <g id="line2d_4">
      <g>
       <use xlink:href="#m421d646583" x="81.050173" y="260.45" style="stroke: #000000; stroke-width: 0.8"/>
      </g>
     </g>
     <g id="text_2">
      <!-- 25 -->
      <g transform="translate(74.687673 275.048437)scale(0.1 -0.1)">
       <defs>
        <path id="DejaVuSans-32" d="M 1228 531 
L 3431 531 
L 3431 0 
L 469 0 
L 469 531 
Q 828 903 1448 1529 
Q 2069 2156 2228 2338 
Q 2531 2678 2651 2914 
Q 2772 3150 2772 3378 
Q 2772 3750 2511 3984 
Q 2250 4219 1831 4219 
Q 1534 4219 1204 4116 
Q 875 4013 500 3803 
L 500 4441 
Q 881 4594 1212 4672 
Q 1544 4750 1819 4750 
Q 2544 4750 2975 4387 
Q 3406 4025 3406 3419 
Q 3406 3131 3298 2873 
Q 3191 2616 2906 2266 
Q 2828 2175 2409 1742 
Q 1991 1309 1228 531 
z
" transform="scale(0.015625)"/>
        <path id="DejaVuSans-35" d="M 691 4666 
L 3169 4666 
L 3169 4134 
L 1269 4134 
L 1269 2991 
Q 1406 3038 1543 3061 
Q 1681 3084 1819 3084 
Q 2600 3084 3056 2656 
Q 3513 2228 3513 1497 
Q 3513 744 3044 326 
Q 2575 -91 1722 -91 
Q 1428 -91 1123 -41 
Q 819 9 494 109 
L 494 744 
Q 775 591 1075 516 
Q 1375 441 1709 441 
Q 2250 441 2565 725 
Q 2881 1009 2881 1497 
Q 2881 1984 2565 2268 
Q 2250 2553 1709 2553 
Q 1456 2553 1204 2497 
Q 953 2441 691 2322 
L 691 4666 
z
" transform="scale(0.015625)"/>
       </defs>
       <use xlink:href="#DejaVuSans-32"/>
       <use xlink:href="#DejaVuSans-35" x="63.623047"/>
      </g>
     </g>
    </g>
    <g id="xtick_3">
     <g id="line2d_5">
      <path d="M 128.269097 260.45 
L 128.269097 25.8 
" clip-path="url(#p5fa8cb0bb1)" style="fill: none; stroke: #b0b0b0; stroke-width: 0.8; stroke-linecap: square"/>
     </g>
     <g id="line2d_6">
      <g>
       <use xlink:href="#m421d646583" x="128.269097" y="260.45" style="stroke: #000000; stroke-width: 0.8"/>
      </g>
     </g>
     <g id="text_3">
      <!-- 50 -->
      <g transform="translate(121.906597 275.048437)scale(0.1 -0.1)">
       <use xlink:href="#DejaVuSans-35"/>
       <use xlink:href="#DejaVuSans-30" x="63.623047"/>
      </g>
     </g>
    </g>
    <g id="xtick_4">
     <g id="line2d_7">
      <path d="M 175.48802 260.45 
L 175.48802 25.8 
" clip-path="url(#p5fa8cb0bb1)" style="fill: none; stroke: #b0b0b0; stroke-width: 0.8; stroke-linecap: square"/>
     </g>
     <g id="line2d_8">
      <g>
       <use xlink:href="#m421d646583" x="175.48802" y="260.45" style="stroke: #000000; stroke-width: 0.8"/>
      </g>
     </g>
     <g id="text_4">
      <!-- 75 -->
      <g transform="translate(169.12552 275.048437)scale(0.1 -0.1)">
       <defs>
        <path id="DejaVuSans-37" d="M 525 4666 
L 3525 4666 
L 3525 4397 
L 1831 0 
L 1172 0 
L 2766 4134 
L 525 4134 
L 525 4666 
z
" transform="scale(0.015625)"/>
       </defs>
       <use xlink:href="#DejaVuSans-37"/>
       <use xlink:href="#DejaVuSans-35" x="63.623047"/>
      </g>
     </g>
    </g>
    <g id="xtick_5">
     <g id="line2d_9">
      <path d="M 222.706943 260.45 
L 222.706943 25.8 
" clip-path="url(#p5fa8cb0bb1)" style="fill: none; stroke: #b0b0b0; stroke-width: 0.8; stroke-linecap: square"/>
     </g>
     <g id="line2d_10">
      <g>
       <use xlink:href="#m421d646583" x="222.706943" y="260.45" style="stroke: #000000; stroke-width: 0.8"/>
      </g>
     </g>
     <g id="text_5">
      <!-- 100 -->
      <g transform="translate(213.163193 275.048437)scale(0.1 -0.1)">
       <defs>
        <path id="DejaVuSans-31" d="M 794 531 
L 1825 531 
L 1825 4091 
L 703 3866 
L 703 4441 
L 1819 4666 
L 2450 4666 
L 2450 531 
L 3481 531 
L 3481 0 
L 794 0 
L 794 531 
z
" transform="scale(0.015625)"/>
       </defs>
       <use xlink:href="#DejaVuSans-31"/>
       <use xlink:href="#DejaVuSans-30" x="63.623047"/>
       <use xlink:href="#DejaVuSans-30" x="127.246094"/>
      </g>
     </g>
    </g>
    <g id="xtick_6">
     <g id="line2d_11">
      <path d="M 269.925867 260.45 
L 269.925867 25.8 
" clip-path="url(#p5fa8cb0bb1)" style="fill: none; stroke: #b0b0b0; stroke-width: 0.8; stroke-linecap: square"/>
     </g>
     <g id="line2d_12">
      <g>
       <use xlink:href="#m421d646583" x="269.925867" y="260.45" style="stroke: #000000; stroke-width: 0.8"/>
      </g>
     </g>
     <g id="text_6">
      <!-- 125 -->
      <g transform="translate(260.382117 275.048437)scale(0.1 -0.1)">
       <use xlink:href="#DejaVuSans-31"/>
       <use xlink:href="#DejaVuSans-32" x="63.623047"/>
       <use xlink:href="#DejaVuSans-35" x="127.246094"/>
      </g>
     </g>
    </g>
    <g id="xtick_7">
     <g id="line2d_13">
      <path d="M 317.14479 260.45 
L 317.14479 25.8 
" clip-path="url(#p5fa8cb0bb1)" style="fill: none; stroke: #b0b0b0; stroke-width: 0.8; stroke-linecap: square"/>
     </g>
     <g id="line2d_14">
      <g>
       <use xlink:href="#m421d646583" x="317.14479" y="260.45" style="stroke: #000000; stroke-width: 0.8"/>
      </g>
     </g>
     <g id="text_7">
      <!-- 150 -->
      <g transform="translate(307.60104 275.048437)scale(0.1 -0.1)">
       <use xlink:href="#DejaVuSans-31"/>
       <use xlink:href="#DejaVuSans-35" x="63.623047"/>
       <use xlink:href="#DejaVuSans-30" x="127.246094"/>
      </g>
     </g>
    </g>
    <g id="xtick_8">
     <g id="line2d_15">
      <path d="M 364.363713 260.45 
L 364.363713 25.8 
" clip-path="url(#p5fa8cb0bb1)" style="fill: none; stroke: #b0b0b0; stroke-width: 0.8; stroke-linecap: square"/>
     </g>
     <g id="line2d_16">
      <g>
       <use xlink:href="#m421d646583" x="364.363713" y="260.45" style="stroke: #000000; stroke-width: 0.8"/>
      </g>
     </g>
     <g id="text_8">
      <!-- 175 -->
      <g transform="translate(354.819963 275.048437)scale(0.1 -0.1)">
       <use xlink:href="#DejaVuSans-31"/>
       <use xlink:href="#DejaVuSans-37" x="63.623047"/>
       <use xlink:href="#DejaVuSans-35" x="127.246094"/>
      </g>
     </g>
    </g>
    <g id="xtick_9">
     <g id="line2d_17">
      <path d="M 411.582637 260.45 
L 411.582637 25.8 
" clip-path="url(#p5fa8cb0bb1)" style="fill: none; stroke: #b0b0b0; stroke-width: 0.8; stroke-linecap: square"/>
     </g>
     <g id="line2d_18">
      <g>
       <use xlink:href="#m421d646583" x="411.582637" y="260.45" style="stroke: #000000; stroke-width: 0.8"/>
      </g>
     </g>
     <g id="text_9">
      <!-- 200 -->
      <g transform="translate(402.038887 275.048437)scale(0.1 -0.1)">
       <use xlink:href="#DejaVuSans-32"/>
       <use xlink:href="#DejaVuSans-30" x="63.623047"/>
       <use xlink:href="#DejaVuSans-30" x="127.246094"/>
      </g>
     </g>
    </g>
   </g>
   <g id="matplotlib.axis_2">
    <g id="ytick_1">
     <g id="line2d_19">
      <path d="M 33.83125 260.45 
L 415.586633 260.45 
" clip-path="url(#p5fa8cb0bb1)" style="fill: none; stroke: #b0b0b0; stroke-width: 0.8; stroke-linecap: square"/>
     </g>
     <g id="line2d_20">
      <defs>
       <path id="mf2d7ee71b7" d="M 0 0 
L -3.5 0 
" style="stroke: #000000; stroke-width: 0.8"/>
      </defs>
      <g>
       <use xlink:href="#mf2d7ee71b7" x="33.83125" y="260.45" style="stroke: #000000; stroke-width: 0.8"/>
      </g>
     </g>
     <g id="text_10">
      <!-- 0.0 -->
      <g transform="translate(10.928125 264.249219)scale(0.1 -0.1)">
       <defs>
        <path id="DejaVuSans-2e" d="M 684 794 
L 1344 794 
L 1344 0 
L 684 0 
L 684 794 
z
" transform="scale(0.015625)"/>
       </defs>
       <use xlink:href="#DejaVuSans-30"/>
       <use xlink:href="#DejaVuSans-2e" x="63.623047"/>
       <use xlink:href="#DejaVuSans-30" x="95.410156"/>
      </g>
     </g>
    </g>
    <g id="ytick_2">
     <g id="line2d_21">
      <path d="M 33.83125 216.453125 
L 415.586633 216.453125 
" clip-path="url(#p5fa8cb0bb1)" style="fill: none; stroke: #b0b0b0; stroke-width: 0.8; stroke-linecap: square"/>
     </g>
     <g id="line2d_22">
      <g>
       <use xlink:href="#mf2d7ee71b7" x="33.83125" y="216.453125" style="stroke: #000000; stroke-width: 0.8"/>
      </g>
     </g>
     <g id="text_11">
      <!-- 0.5 -->
      <g transform="translate(10.928125 220.252344)scale(0.1 -0.1)">
       <use xlink:href="#DejaVuSans-30"/>
       <use xlink:href="#DejaVuSans-2e" x="63.623047"/>
       <use xlink:href="#DejaVuSans-35" x="95.410156"/>
      </g>
     </g>
    </g>
    <g id="ytick_3">
     <g id="line2d_23">
      <path d="M 33.83125 172.45625 
L 415.586633 172.45625 
" clip-path="url(#p5fa8cb0bb1)" style="fill: none; stroke: #b0b0b0; stroke-width: 0.8; stroke-linecap: square"/>
     </g>
     <g id="line2d_24">
      <g>
       <use xlink:href="#mf2d7ee71b7" x="33.83125" y="172.45625" style="stroke: #000000; stroke-width: 0.8"/>
      </g>
     </g>
     <g id="text_12">
      <!-- 1.0 -->
      <g transform="translate(10.928125 176.255469)scale(0.1 -0.1)">
       <use xlink:href="#DejaVuSans-31"/>
       <use xlink:href="#DejaVuSans-2e" x="63.623047"/>
       <use xlink:href="#DejaVuSans-30" x="95.410156"/>
      </g>
     </g>
    </g>
    <g id="ytick_4">
     <g id="line2d_25">
      <path d="M 33.83125 128.459375 
L 415.586633 128.459375 
" clip-path="url(#p5fa8cb0bb1)" style="fill: none; stroke: #b0b0b0; stroke-width: 0.8; stroke-linecap: square"/>
     </g>
     <g id="line2d_26">
      <g>
       <use xlink:href="#mf2d7ee71b7" x="33.83125" y="128.459375" style="stroke: #000000; stroke-width: 0.8"/>
      </g>
     </g>
     <g id="text_13">
      <!-- 1.5 -->
      <g transform="translate(10.928125 132.258594)scale(0.1 -0.1)">
       <use xlink:href="#DejaVuSans-31"/>
       <use xlink:href="#DejaVuSans-2e" x="63.623047"/>
       <use xlink:href="#DejaVuSans-35" x="95.410156"/>
      </g>
     </g>
    </g>
    <g id="ytick_5">
     <g id="line2d_27">
      <path d="M 33.83125 84.4625 
L 415.586633 84.4625 
" clip-path="url(#p5fa8cb0bb1)" style="fill: none; stroke: #b0b0b0; stroke-width: 0.8; stroke-linecap: square"/>
     </g>
     <g id="line2d_28">
      <g>
       <use xlink:href="#mf2d7ee71b7" x="33.83125" y="84.4625" style="stroke: #000000; stroke-width: 0.8"/>
      </g>
     </g>
     <g id="text_14">
      <!-- 2.0 -->
      <g transform="translate(10.928125 88.261719)scale(0.1 -0.1)">
       <use xlink:href="#DejaVuSans-32"/>
       <use xlink:href="#DejaVuSans-2e" x="63.623047"/>
       <use xlink:href="#DejaVuSans-30" x="95.410156"/>
      </g>
     </g>
    </g>
    <g id="ytick_6">
     <g id="line2d_29">
      <path d="M 33.83125 40.465625 
L 415.586633 40.465625 
" clip-path="url(#p5fa8cb0bb1)" style="fill: none; stroke: #b0b0b0; stroke-width: 0.8; stroke-linecap: square"/>
     </g>
     <g id="line2d_30">
      <g>
       <use xlink:href="#mf2d7ee71b7" x="33.83125" y="40.465625" style="stroke: #000000; stroke-width: 0.8"/>
      </g>
     </g>
     <g id="text_15">
      <!-- 2.5 -->
      <g transform="translate(10.928125 44.264844)scale(0.1 -0.1)">
       <use xlink:href="#DejaVuSans-32"/>
       <use xlink:href="#DejaVuSans-2e" x="63.623047"/>
       <use xlink:href="#DejaVuSans-35" x="95.410156"/>
      </g>
     </g>
    </g>
   </g>
   <g id="line2d_31">
    <path d="M 35.759812 260.45 
L 35.759812 172.45625 
L 35.759812 260.45 
L 37.456974 260.45 
L 37.456974 172.45625 
L 37.456974 260.45 
L 39.829122 260.45 
L 39.829122 172.45625 
L 39.829122 260.45 
L 43.341462 260.45 
L 43.341462 172.45625 
L 43.341462 260.45 
L 45.085206 260.45 
L 45.085206 172.45625 
L 45.085206 260.45 
L 48.771201 260.45 
L 48.771201 172.45625 
L 48.771201 260.45 
L 50.258032 260.45 
L 50.258032 172.45625 
L 50.258032 260.45 
L 53.806939 260.45 
L 53.806939 172.45625 
L 53.806939 260.45 
L 54.847736 260.45 
L 54.847736 172.45625 
L 54.847736 260.45 
L 56.693063 260.45 
L 56.693063 172.45625 
L 56.693063 260.45 
L 58.653894 260.45 
L 58.653894 172.45625 
L 58.653894 260.45 
L 59.570183 260.45 
L 59.570183 172.45625 
L 59.570183 260.45 
L 60.657199 260.45 
L 60.657199 172.45625 
L 60.657199 260.45 
L 61.324231 260.45 
L 61.324231 172.45625 
L 61.324231 260.45 
L 65.523928 260.45 
L 65.523928 172.45625 
L 65.523928 260.45 
L 65.760022 260.45 
L 65.760022 172.45625 
L 65.901679 172.45625 
L 65.901679 260.45 
L 71.895266 260.45 
L 71.895266 172.45625 
L 71.895266 260.45 
L 72.496563 260.45 
L 72.496563 172.45625 
L 72.496563 260.45 
L 73.40997 260.45 
L 73.40997 172.45625 
L 73.40997 260.45 
L 74.636616 260.45 
L 74.636616 172.45625 
L 74.636616 260.45 
L 77.59988 260.45 
L 77.59988 172.45625 
L 77.59988 260.45 
L 80.75828 260.45 
L 80.75828 172.45625 
L 80.75828 260.45 
L 82.179899 260.45 
L 82.179899 172.45625 
L 82.179899 260.45 
L 83.414924 260.45 
L 83.414924 172.45625 
L 83.414924 260.45 
L 85.000408 260.45 
L 85.000408 172.45625 
L 85.000408 260.45 
L 85.942656 260.45 
L 85.942656 172.45625 
L 85.942656 260.45 
L 90.850127 260.45 
L 90.850127 172.45625 
L 90.850127 260.45 
L 94.265697 260.45 
L 94.265697 172.45625 
L 94.265697 260.45 
L 94.501791 260.45 
L 94.501791 172.45625 
L 94.643448 172.45625 
L 94.643448 260.45 
L 95.182241 260.45 
L 95.182241 172.45625 
L 95.182241 260.45 
L 95.418336 260.45 
L 95.418336 172.45625 
L 95.559993 172.45625 
L 95.559993 260.45 
L 97.327441 260.45 
L 97.327441 172.45625 
L 97.327441 260.45 
L 97.563536 260.45 
L 97.563536 172.45625 
L 97.705193 172.45625 
L 97.705193 260.45 
L 98.233429 260.45 
L 98.233429 172.45625 
L 98.233429 260.45 
L 101.609558 260.45 
L 101.609558 172.45625 
L 101.609558 260.45 
L 107.559464 260.45 
L 107.559464 172.45625 
L 107.559464 260.45 
L 110.403524 260.45 
L 110.403524 172.45625 
L 110.403524 260.45 
L 110.689162 260.45 
L 110.689162 172.45625 
L 110.781275 260.45 
L 114.54282 260.45 
L 114.54282 172.45625 
L 114.54282 260.45 
L 118.397569 260.45 
L 118.397569 172.45625 
L 118.397569 260.45 
L 125.660259 260.45 
L 125.660259 172.45625 
L 125.660259 260.45 
L 126.872292 260.45 
L 126.872292 172.45625 
L 126.872292 260.45 
L 129.904199 260.45 
L 129.904199 172.45625 
L 129.904199 260.45 
L 132.952656 260.45 
L 132.952656 172.45625 
L 132.952656 260.45 
L 134.121664 260.45 
L 134.121664 172.45625 
L 134.121664 260.45 
L 135.509833 260.45 
L 135.509833 172.45625 
L 135.509833 260.45 
L 138.374201 260.45 
L 138.374201 172.45625 
L 138.374201 260.45 
L 140.519713 260.45 
L 140.519713 172.45625 
L 140.519713 260.45 
L 140.757459 260.45 
L 140.757459 172.45625 
L 140.897465 172.45625 
L 140.897465 260.45 
L 143.166055 260.45 
L 143.166055 172.45625 
L 143.166055 260.45 
L 145.095291 260.45 
L 145.095291 172.45625 
L 145.095291 260.45 
L 146.742894 260.45 
L 146.742894 172.45625 
L 146.742894 260.45 
L 147.035141 260.45 
L 147.035141 172.45625 
L 147.120645 260.45 
L 148.49106 260.45 
L 148.49106 172.45625 
L 148.49106 260.45 
L 153.957917 260.45 
L 153.957917 172.45625 
L 153.957917 260.45 
L 156.642529 260.45 
L 156.642529 172.45625 
L 156.642529 260.45 
L 158.036105 260.45 
L 158.036105 172.45625 
L 158.036105 260.45 
L 158.2722 260.45 
L 158.2722 172.45625 
L 158.413857 172.45625 
L 158.413857 260.45 
L 159.259098 260.45 
L 159.259098 172.45625 
L 159.259098 260.45 
L 160.471103 260.45 
L 160.471103 172.45625 
L 160.471103 260.45 
L 161.051481 260.45 
L 161.051481 172.45625 
L 161.051481 260.45 
L 161.440949 260.45 
L 161.440949 172.45625 
L 161.440949 260.45 
L 164.251901 260.45 
L 164.251901 172.45625 
L 164.251901 260.45 
L 166.773939 260.45 
L 166.773939 172.45625 
L 166.773939 260.45 
L 167.924348 260.45 
L 167.924348 172.45625 
L 167.924348 260.45 
L 168.385296 260.45 
L 168.385296 172.45625 
L 168.385296 260.45 
L 169.972484 260.45 
L 169.972484 172.45625 
L 169.972484 260.45 
L 170.246879 260.45 
L 170.246879 172.45625 
L 170.350236 260.45 
L 170.482974 260.45 
L 170.482974 172.45625 
L 170.727987 172.45625 
L 170.727987 260.45 
L 171.022666 260.45 
L 171.022666 172.45625 
L 171.105738 260.45 
L 172.838481 260.45 
L 172.838481 172.45625 
L 172.838481 260.45 
L 173.144717 260.45 
L 173.144717 172.45625 
L 173.216232 260.45 
L 174.933364 260.45 
L 174.933364 172.45625 
L 174.933364 260.45 
L 175.408277 260.45 
L 175.408277 172.45625 
L 175.408277 260.45 
L 177.220629 260.45 
L 177.220629 172.45625 
L 177.220629 260.45 
L 178.143395 260.45 
L 178.143395 172.45625 
L 178.143395 260.45 
L 183.579077 260.45 
L 183.579077 172.45625 
L 183.579077 260.45 
L 187.977828 260.45 
L 187.977828 172.45625 
L 187.977828 260.45 
L 190.140717 260.45 
L 190.140717 172.45625 
L 190.140717 260.45 
L 191.269714 260.45 
L 191.269714 172.45625 
L 191.269714 260.45 
L 192.111191 260.45 
L 192.111191 172.45625 
L 192.111191 260.45 
L 193.904555 260.45 
L 193.904555 172.45625 
L 193.904555 260.45 
L 194.989707 260.45 
L 194.989707 172.45625 
L 194.989707 260.45 
L 199.383619 260.45 
L 199.383619 172.45625 
L 199.383619 260.45 
L 201.642776 260.45 
L 201.642776 172.45625 
L 201.642776 260.45 
L 201.87887 260.45 
L 201.87887 172.45625 
L 202.020527 172.45625 
L 202.020527 260.45 
L 202.114965 172.45625 
L 202.398278 172.45625 
L 202.398278 260.45 
L 208.56864 260.45 
L 208.56864 172.45625 
L 208.56864 260.45 
L 210.644219 260.45 
L 210.644219 172.45625 
L 210.644219 260.45 
L 212.644099 260.45 
L 212.644099 172.45625 
L 212.644099 260.45 
L 214.741747 260.45 
L 214.741747 172.45625 
L 214.741747 260.45 
L 215.09575 260.45 
L 215.09575 172.45625 
L 215.119499 260.45 
L 215.541887 260.45 
L 215.541887 172.45625 
L 215.541887 260.45 
L 216.379369 260.45 
L 216.379369 172.45625 
L 216.379369 260.45 
L 216.640072 260.45 
L 216.640072 172.45625 
L 216.757121 172.45625 
L 216.757121 260.45 
L 219.263636 260.45 
L 219.263636 172.45625 
L 219.263636 260.45 
L 219.979403 260.45 
L 219.979403 172.45625 
L 219.979403 260.45 
L 221.747396 260.45 
L 221.747396 172.45625 
L 221.747396 260.45 
L 222.601307 260.45 
L 222.601307 172.45625 
L 222.601307 260.45 
L 223.343801 260.45 
L 223.343801 172.45625 
L 223.343801 260.45 
L 224.938719 260.45 
L 224.938719 172.45625 
L 224.938719 260.45 
L 225.174814 260.45 
L 225.174814 172.45625 
L 225.316471 172.45625 
L 225.316471 260.45 
L 226.103152 260.45 
L 226.103152 172.45625 
L 226.103152 260.45 
L 228.002998 260.45 
L 228.002998 172.45625 
L 228.002998 260.45 
L 236.41646 260.45 
L 236.41646 172.45625 
L 236.41646 260.45 
L 242.44716 260.45 
L 242.44716 172.45625 
L 242.44716 260.45 
L 242.683255 260.45 
L 242.683255 172.45625 
L 242.824911 172.45625 
L 242.824911 260.45 
L 244.648434 260.45 
L 244.648434 172.45625 
L 244.648434 260.45 
L 245.090972 260.45 
L 245.090972 172.45625 
L 245.090972 260.45 
L 246.994875 260.45 
L 246.994875 172.45625 
L 246.994875 260.45 
L 247.327133 260.45 
L 247.327133 172.45625 
L 247.372627 260.45 
L 257.45106 260.45 
L 257.45106 172.45625 
L 257.45106 260.45 
L 259.450768 260.45 
L 259.450768 172.45625 
L 259.450768 260.45 
L 261.097605 260.45 
L 261.097605 172.45625 
L 261.097605 260.45 
L 261.649274 260.45 
L 261.649274 172.45625 
L 261.649274 260.45 
L 262.659881 260.45 
L 262.659881 172.45625 
L 262.659881 260.45 
L 263.84591 260.45 
L 263.84591 172.45625 
L 263.84591 260.45 
L 265.061856 260.45 
L 265.061856 172.45625 
L 265.061856 260.45 
L 265.591231 260.45 
L 265.591231 172.45625 
L 265.591231 260.45 
L 267.43629 260.45 
L 267.43629 172.45625 
L 267.43629 260.45 
L 267.763286 260.45 
L 267.763286 172.45625 
L 267.814041 260.45 
L 268.5424 260.45 
L 268.5424 172.45625 
L 268.5424 260.45 
L 268.778495 260.45 
L 268.778495 172.45625 
L 268.920152 172.45625 
L 268.920152 260.45 
L 270.884692 260.45 
L 270.884692 172.45625 
L 270.884692 260.45 
L 272.902021 260.45 
L 272.902021 172.45625 
L 272.902021 260.45 
L 273.622687 260.45 
L 273.622687 172.45625 
L 273.622687 260.45 
L 273.903569 260.45 
L 273.903569 172.45625 
L 274.000439 260.45 
L 276.749237 260.45 
L 276.749237 172.45625 
L 276.749237 260.45 
L 277.162649 260.45 
L 277.162649 172.45625 
L 277.162649 260.45 
L 282.804725 260.45 
L 282.804725 172.45625 
L 282.804725 260.45 
L 283.673579 260.45 
L 283.673579 172.45625 
L 283.673579 260.45 
L 285.725278 260.45 
L 285.725278 172.45625 
L 285.725278 260.45 
L 288.974566 260.45 
L 288.974566 172.45625 
L 288.974566 260.45 
L 289.210661 260.45 
L 289.210661 172.45625 
L 289.352318 172.45625 
L 289.352318 260.45 
L 289.446755 172.45625 
L 289.730069 172.45625 
L 289.730069 260.45 
L 291.035033 260.45 
L 291.035033 172.45625 
L 291.035033 260.45 
L 294.472228 260.45 
L 294.472228 172.45625 
L 294.472228 260.45 
L 296.587285 260.45 
L 296.587285 172.45625 
L 296.587285 260.45 
L 296.82338 260.45 
L 296.82338 172.45625 
L 296.965037 172.45625 
L 296.965037 260.45 
L 303.527755 260.45 
L 303.527755 172.45625 
L 303.527755 260.45 
L 310.608765 260.45 
L 310.608765 172.45625 
L 310.608765 260.45 
L 314.585205 260.45 
L 314.585205 172.45625 
L 314.585205 260.45 
L 315.779535 260.45 
L 315.779535 172.45625 
L 315.779535 260.45 
L 317.125432 260.45 
L 317.125432 172.45625 
L 317.125432 260.45 
L 324.230798 260.45 
L 324.230798 172.45625 
L 324.230798 260.45 
L 324.466893 260.45 
L 324.466893 172.45625 
L 324.60855 172.45625 
L 324.60855 260.45 
L 326.092745 260.45 
L 326.092745 172.45625 
L 326.092745 260.45 
L 327.225899 260.45 
L 327.225899 172.45625 
L 327.225899 260.45 
L 329.764852 260.45 
L 329.764852 172.45625 
L 329.764852 260.45 
L 330.000946 260.45 
L 330.000946 172.45625 
L 330.142603 172.45625 
L 330.142603 260.45 
L 330.237041 172.45625 
L 330.520354 172.45625 
L 330.520354 260.45 
L 330.979407 260.45 
L 330.979407 172.45625 
L 330.979407 260.45 
L 331.607249 260.45 
L 331.607249 172.45625 
L 331.607249 260.45 
L 338.957479 260.45 
L 338.957479 172.45625 
L 338.957479 260.45 
L 339.199347 260.45 
L 339.199347 172.45625 
L 339.335231 172.45625 
L 339.335231 260.45 
L 340.040636 260.45 
L 340.040636 172.45625 
L 340.040636 260.45 
L 340.703923 260.45 
L 340.703923 172.45625 
L 340.703923 260.45 
L 341.942279 260.45 
L 341.942279 172.45625 
L 341.942279 260.45 
L 342.180997 260.45 
L 342.180997 172.45625 
L 342.32003 172.45625 
L 342.32003 260.45 
L 344.384937 260.45 
L 344.384937 172.45625 
L 344.384937 260.45 
L 345.107766 260.45 
L 345.107766 172.45625 
L 345.107766 260.45 
L 349.119934 260.45 
L 349.119934 172.45625 
L 349.119934 260.45 
L 350.1302 260.45 
L 350.1302 172.45625 
L 350.1302 260.45 
L 354.859481 260.45 
L 354.859481 172.45625 
L 354.859481 260.45 
L 355.095576 260.45 
L 355.095576 172.45625 
L 355.237232 172.45625 
L 355.237232 260.45 
L 355.446304 260.45 
L 355.446304 172.45625 
L 355.614984 172.45625 
L 355.614984 260.45 
L 357.673507 260.45 
L 357.673507 172.45625 
L 357.673507 260.45 
L 359.246546 260.45 
L 359.246546 172.45625 
L 359.246546 260.45 
L 360.825731 260.45 
L 360.825731 172.45625 
L 360.825731 260.45 
L 364.609365 260.45 
L 364.609365 172.45625 
L 364.609365 260.45 
L 365.191886 260.45 
L 365.191886 172.45625 
L 365.191886 260.45 
L 366.53526 260.45 
L 366.53526 172.45625 
L 366.53526 260.45 
L 367.934374 260.45 
L 367.934374 172.45625 
L 367.934374 260.45 
L 372.629035 260.45 
L 372.629035 172.45625 
L 372.629035 260.45 
L 372.865129 260.45 
L 372.865129 172.45625 
L 373.006786 172.45625 
L 373.006786 260.45 
L 377.613379 260.45 
L 377.613379 172.45625 
L 377.613379 260.45 
L 379.233735 260.45 
L 379.233735 172.45625 
L 379.233735 260.45 
L 379.46983 260.45 
L 379.46983 172.45625 
L 379.611487 172.45625 
L 379.611487 260.45 
L 384.401424 260.45 
L 384.401424 172.45625 
L 384.401424 260.45 
L 385.015913 260.45 
L 385.015913 172.45625 
L 385.015913 260.45 
L 385.740365 260.45 
L 385.740365 172.45625 
L 385.740365 260.45 
L 385.97646 260.45 
L 385.97646 172.45625 
L 386.118117 172.45625 
L 386.118117 260.45 
L 387.837351 260.45 
L 387.837351 172.45625 
L 387.837351 260.45 
L 391.326504 260.45 
L 391.326504 172.45625 
L 391.326504 260.45 
L 391.593444 260.45 
L 391.593444 172.45625 
L 391.704256 260.45 
L 393.561114 260.45 
L 393.561114 172.45625 
L 393.561114 260.45 
L 395.940823 260.45 
L 395.940823 172.45625 
L 395.940823 260.45 
L 399.418558 260.45 
L 399.418558 172.45625 
L 399.418558 260.45 
L 400.063859 260.45 
L 400.063859 172.45625 
L 400.063859 260.45 
L 400.644686 260.45 
L 400.644686 172.45625 
L 400.644686 260.45 
L 401.026876 260.45 
L 401.026876 172.45625 
L 401.026876 260.45 
L 401.984854 260.45 
L 401.984854 172.45625 
L 401.984854 260.45 
L 403.65287 260.45 
L 403.65287 172.45625 
L 403.65287 260.45 
L 405.172937 260.45 
L 405.172937 172.45625 
L 405.172937 260.45 
L 405.409032 260.45 
L 405.409032 172.45625 
L 405.550688 172.45625 
L 405.550688 260.45 
L 405.645126 172.45625 
L 405.92844 172.45625 
L 405.92844 260.45 
L 408.886811 260.45 
L 408.886811 172.45625 
L 408.886811 260.45 
L 409.758908 260.45 
L 409.758908 172.45625 
L 409.758908 260.45 
L 409.995003 260.45 
L 409.995003 172.45625 
L 410.136659 172.45625 
L 410.136659 260.45 
L 410.231097 172.45625 
L 410.514411 172.45625 
L 410.514411 260.45 
L 410.892162 260.45 
L 410.892162 260.45 
" clip-path="url(#p5fa8cb0bb1)" style="fill: none; stroke: #1f77b4; stroke-width: 1.5; stroke-linecap: square"/>
   </g>
   <g id="line2d_32">
    <path d="M 35.334463 260.45 
L 35.334463 172.45625 
L 35.334463 260.45 
L 37.031626 260.45 
L 37.031626 172.45625 
L 37.031626 260.45 
L 39.403774 260.45 
L 39.403774 172.45625 
L 39.403774 260.45 
L 42.916114 260.45 
L 42.916114 172.45625 
L 42.916114 260.45 
L 44.659858 260.45 
L 44.659858 172.45625 
L 44.659858 260.45 
L 48.345853 260.45 
L 48.345853 172.45625 
L 48.345853 260.45 
L 49.832684 260.45 
L 49.832684 172.45625 
L 49.832684 260.45 
L 53.381591 260.45 
L 53.381591 172.45625 
L 53.381591 260.45 
L 54.422387 260.45 
L 54.422387 172.45625 
L 54.422387 260.45 
L 56.267715 260.45 
L 56.267715 172.45625 
L 56.267715 260.45 
L 58.228546 260.45 
L 58.228546 172.45625 
L 58.228546 260.45 
L 59.144835 260.45 
L 59.144835 172.45625 
L 59.144835 260.45 
L 60.231851 260.45 
L 60.231851 172.45625 
L 60.231851 260.45 
L 60.898883 260.45 
L 60.898883 172.45625 
L 60.898883 260.45 
L 65.09858 260.45 
L 65.09858 172.45625 
L 65.208854 172.45625 
L 65.287455 172.45625 
L 65.287455 260.45 
L 71.469918 260.45 
L 71.469918 172.45625 
L 71.469918 260.45 
L 72.071215 260.45 
L 72.071215 172.45625 
L 72.071215 260.45 
L 72.984622 260.45 
L 72.984622 172.45625 
L 72.984622 260.45 
L 74.211268 260.45 
L 74.211268 172.45625 
L 74.211268 260.45 
L 77.174532 260.45 
L 77.174532 172.45625 
L 77.174532 260.45 
L 80.332932 260.45 
L 80.332932 172.45625 
L 80.332932 260.45 
L 81.754551 260.45 
L 81.754551 172.45625 
L 81.754551 260.45 
L 82.989576 260.45 
L 82.989576 172.45625 
L 82.989576 260.45 
L 84.57506 260.45 
L 84.57506 172.45625 
L 84.57506 260.45 
L 85.517308 260.45 
L 85.517308 172.45625 
L 85.517308 260.45 
L 90.424779 260.45 
L 90.424779 172.45625 
L 90.424779 260.45 
L 93.840349 260.45 
L 93.840349 172.45625 
L 93.840349 260.45 
L 93.979522 260.45 
L 93.979522 172.45625 
L 94.029224 260.45 
L 94.756893 260.45 
L 94.756893 172.45625 
L 94.756893 260.45 
L 94.929074 260.45 
L 94.929074 172.45625 
L 94.945769 260.45 
L 96.902093 260.45 
L 96.902093 172.45625 
L 96.940672 172.45625 
L 97.090969 172.45625 
L 97.090969 260.45 
L 97.808081 260.45 
L 97.808081 172.45625 
L 97.808081 260.45 
L 101.18421 260.45 
L 101.18421 172.45625 
L 101.18421 260.45 
L 107.134116 260.45 
L 107.134116 172.45625 
L 107.134116 260.45 
L 109.978176 260.45 
L 109.978176 172.45625 
L 109.978176 260.45 
L 110.263814 260.45 
L 110.263814 172.45625 
L 110.263814 260.45 
L 114.117472 260.45 
L 114.117472 172.45625 
L 114.117472 260.45 
L 117.972221 260.45 
L 117.972221 172.45625 
L 117.972221 260.45 
L 125.234911 260.45 
L 125.234911 172.45625 
L 125.234911 260.45 
L 126.446943 260.45 
L 126.446943 172.45625 
L 126.446943 260.45 
L 129.478851 260.45 
L 129.478851 172.45625 
L 129.478851 260.45 
L 132.527308 260.45 
L 132.527308 172.45625 
L 132.527308 260.45 
L 133.696316 260.45 
L 133.696316 172.45625 
L 133.696316 260.45 
L 135.084485 260.45 
L 135.084485 172.45625 
L 135.084485 260.45 
L 137.948853 260.45 
L 137.948853 172.45625 
L 137.948853 260.45 
L 140.094365 260.45 
L 140.094365 172.45625 
L 140.094365 260.45 
L 140.332111 260.45 
L 140.332111 172.45625 
L 140.332111 260.45 
L 142.740707 260.45 
L 142.740707 172.45625 
L 142.740707 260.45 
L 144.669943 260.45 
L 144.669943 172.45625 
L 144.669943 260.45 
L 146.317546 260.45 
L 146.317546 172.45625 
L 146.317546 260.45 
L 146.609793 260.45 
L 146.609793 172.45625 
L 146.609793 260.45 
L 148.065712 260.45 
L 148.065712 172.45625 
L 148.065712 260.45 
L 153.532569 260.45 
L 153.532569 172.45625 
L 153.532569 260.45 
L 156.217181 260.45 
L 156.217181 172.45625 
L 156.217181 260.45 
L 157.610757 260.45 
L 157.610757 172.45625 
L 157.610757 260.45 
L 157.822197 260.45 
L 157.822197 172.45625 
L 157.822197 260.45 
L 158.83375 260.45 
L 158.83375 172.45625 
L 158.83375 260.45 
L 160.045755 260.45 
L 160.045755 172.45625 
L 160.045755 260.45 
L 160.626133 260.45 
L 160.626133 172.45625 
L 160.626133 260.45 
L 161.015601 260.45 
L 161.015601 172.45625 
L 161.015601 260.45 
L 163.826553 260.45 
L 163.826553 172.45625 
L 163.826553 260.45 
L 166.348591 260.45 
L 166.348591 172.45625 
L 166.348591 260.45 
L 167.499 260.45 
L 167.499 172.45625 
L 167.499 260.45 
L 167.959948 260.45 
L 167.959948 172.45625 
L 167.959948 260.45 
L 169.547136 260.45 
L 169.547136 172.45625 
L 169.547136 260.45 
L 169.821531 260.45 
L 169.821531 172.45625 
L 169.857358 172.45625 
L 170.010407 172.45625 
L 170.010407 260.45 
L 170.597318 260.45 
L 170.597318 172.45625 
L 170.597318 260.45 
L 172.413133 260.45 
L 172.413133 172.45625 
L 172.413133 260.45 
L 172.719369 260.45 
L 172.719369 172.45625 
L 172.719369 260.45 
L 174.508016 260.45 
L 174.508016 172.45625 
L 174.508016 260.45 
L 174.982929 260.45 
L 174.982929 172.45625 
L 174.982929 260.45 
L 176.795281 260.45 
L 176.795281 172.45625 
L 176.795281 260.45 
L 177.718047 260.45 
L 177.718047 172.45625 
L 177.718047 260.45 
L 183.153729 260.45 
L 183.153729 172.45625 
L 183.153729 260.45 
L 187.55248 260.45 
L 187.55248 172.45625 
L 187.55248 260.45 
L 189.715369 260.45 
L 189.715369 172.45625 
L 189.715369 260.45 
L 190.844366 260.45 
L 190.844366 172.45625 
L 190.844366 260.45 
L 191.685842 260.45 
L 191.685842 172.45625 
L 191.685842 260.45 
L 193.479207 260.45 
L 193.479207 172.45625 
L 193.479207 260.45 
L 194.564359 260.45 
L 194.564359 172.45625 
L 194.564359 260.45 
L 198.958271 260.45 
L 198.958271 172.45625 
L 198.958271 260.45 
L 201.217428 260.45 
L 201.217428 172.45625 
L 201.217428 260.45 
L 201.414918 260.45 
L 201.414918 172.45625 
L 201.414918 260.45 
L 201.532239 260.45 
L 201.532239 172.45625 
L 201.603794 260.45 
L 208.143292 260.45 
L 208.143292 172.45625 
L 208.143292 260.45 
L 210.21887 260.45 
L 210.21887 172.45625 
L 210.21887 260.45 
L 212.218751 260.45 
L 212.218751 172.45625 
L 212.218751 260.45 
L 214.316399 260.45 
L 214.316399 172.45625 
L 214.316399 260.45 
L 214.670402 260.45 
L 214.670402 172.45625 
L 214.670402 260.45 
L 215.116539 260.45 
L 215.116539 172.45625 
L 215.116539 260.45 
L 215.954021 260.45 
L 215.954021 172.45625 
L 215.954021 260.45 
L 216.214724 260.45 
L 216.214724 172.45625 
L 216.214724 260.45 
L 218.838288 260.45 
L 218.838288 172.45625 
L 218.838288 260.45 
L 219.554055 260.45 
L 219.554055 172.45625 
L 219.554055 260.45 
L 221.322048 260.45 
L 221.322048 172.45625 
L 221.322048 260.45 
L 222.175959 260.45 
L 222.175959 172.45625 
L 222.175959 260.45 
L 222.918453 260.45 
L 222.918453 172.45625 
L 222.918453 260.45 
L 224.513371 260.45 
L 224.513371 172.45625 
L 224.587379 172.45625 
L 224.702247 172.45625 
L 224.702247 260.45 
L 225.677804 260.45 
L 225.677804 172.45625 
L 225.677804 260.45 
L 227.57765 260.45 
L 227.57765 172.45625 
L 227.57765 260.45 
L 235.991112 260.45 
L 235.991112 172.45625 
L 235.991112 260.45 
L 242.021812 260.45 
L 242.021812 172.45625 
L 242.021812 260.45 
L 242.225108 260.45 
L 242.225108 172.45625 
L 242.225108 260.45 
L 244.223085 260.45 
L 244.223085 172.45625 
L 244.223085 260.45 
L 244.665624 260.45 
L 244.665624 172.45625 
L 244.665624 260.45 
L 246.569527 260.45 
L 246.569527 172.45625 
L 246.569527 260.45 
L 246.901785 260.45 
L 246.901785 172.45625 
L 246.901785 260.45 
L 257.025712 260.45 
L 257.025712 172.45625 
L 257.025712 260.45 
L 259.02542 260.45 
L 259.02542 172.45625 
L 259.02542 260.45 
L 260.672257 260.45 
L 260.672257 172.45625 
L 260.672257 260.45 
L 261.223926 260.45 
L 261.223926 172.45625 
L 261.223926 260.45 
L 262.234533 260.45 
L 262.234533 172.45625 
L 262.234533 260.45 
L 263.420562 260.45 
L 263.420562 172.45625 
L 263.420562 260.45 
L 264.636508 260.45 
L 264.636508 172.45625 
L 264.636508 260.45 
L 265.165883 260.45 
L 265.165883 172.45625 
L 265.165883 260.45 
L 267.010942 260.45 
L 267.010942 172.45625 
L 267.010942 260.45 
L 267.337938 260.45 
L 267.337938 172.45625 
L 267.337938 260.45 
L 268.117052 260.45 
L 268.117052 172.45625 
L 268.117052 260.45 
L 268.337952 260.45 
L 268.337952 172.45625 
L 268.337952 260.45 
L 270.459344 260.45 
L 270.459344 172.45625 
L 270.459344 260.45 
L 272.476673 260.45 
L 272.476673 172.45625 
L 272.476673 260.45 
L 273.197339 260.45 
L 273.197339 172.45625 
L 273.197339 260.45 
L 273.478221 260.45 
L 273.478221 172.45625 
L 273.478221 260.45 
L 276.323889 260.45 
L 276.323889 172.45625 
L 276.323889 260.45 
L 276.737301 260.45 
L 276.737301 172.45625 
L 276.737301 260.45 
L 282.379376 260.45 
L 282.379376 172.45625 
L 282.379376 260.45 
L 283.248231 260.45 
L 283.248231 172.45625 
L 283.248231 260.45 
L 285.29993 260.45 
L 285.29993 172.45625 
L 285.29993 260.45 
L 288.549218 260.45 
L 288.549218 172.45625 
L 288.575027 172.45625 
L 288.738094 172.45625 
L 288.738094 260.45 
L 288.767954 172.45625 
L 288.92697 172.45625 
L 288.92697 260.45 
L 290.609685 260.45 
L 290.609685 172.45625 
L 290.609685 260.45 
L 294.04688 260.45 
L 294.04688 172.45625 
L 294.04688 260.45 
L 296.161937 260.45 
L 296.161937 172.45625 
L 296.161937 260.45 
L 296.352768 260.45 
L 296.352768 172.45625 
L 296.352768 260.45 
L 303.102407 260.45 
L 303.102407 172.45625 
L 303.102407 260.45 
L 310.183417 260.45 
L 310.183417 172.45625 
L 310.183417 260.45 
L 314.159857 260.45 
L 314.159857 172.45625 
L 314.159857 260.45 
L 315.354187 260.45 
L 315.354187 172.45625 
L 315.354187 260.45 
L 316.700084 260.45 
L 316.700084 172.45625 
L 316.700084 260.45 
L 323.80545 260.45 
L 323.80545 172.45625 
L 323.913727 172.45625 
L 323.994326 172.45625 
L 323.994326 260.45 
L 325.667397 260.45 
L 325.667397 172.45625 
L 325.667397 260.45 
L 326.800551 260.45 
L 326.800551 172.45625 
L 326.800551 260.45 
L 329.339504 260.45 
L 329.339504 172.45625 
L 329.377638 172.45625 
L 329.453143 172.45625 
L 329.453143 84.4625 
L 329.528379 172.45625 
L 329.717255 172.45625 
L 329.717255 260.45 
L 330.554059 260.45 
L 330.554059 172.45625 
L 330.554059 260.45 
L 331.181901 260.45 
L 331.181901 172.45625 
L 331.181901 260.45 
L 338.532131 260.45 
L 338.532131 172.45625 
L 338.532131 260.45 
L 338.773999 260.45 
L 338.773999 172.45625 
L 338.773999 260.45 
L 339.615288 260.45 
L 339.615288 172.45625 
L 339.615288 260.45 
L 340.278575 260.45 
L 340.278575 172.45625 
L 340.278575 260.45 
L 341.516931 260.45 
L 341.516931 172.45625 
L 341.516931 260.45 
L 341.755648 260.45 
L 341.755648 172.45625 
L 341.755648 260.45 
L 343.959589 260.45 
L 343.959589 172.45625 
L 343.959589 260.45 
L 344.682418 260.45 
L 344.682418 172.45625 
L 344.682418 260.45 
L 348.694586 260.45 
L 348.694586 172.45625 
L 348.694586 260.45 
L 349.704852 260.45 
L 349.704852 172.45625 
L 349.704852 260.45 
L 354.434133 260.45 
L 354.434133 172.45625 
L 354.434133 260.45 
L 354.559353 260.45 
L 354.559353 172.45625 
L 354.623009 260.45 
L 355.020956 260.45 
L 355.020956 172.45625 
L 355.020956 260.45 
L 357.248159 260.45 
L 357.248159 172.45625 
L 357.248159 260.45 
L 358.821198 260.45 
L 358.821198 172.45625 
L 358.821198 260.45 
L 360.400383 260.45 
L 360.400383 172.45625 
L 360.400383 260.45 
L 364.184017 260.45 
L 364.184017 172.45625 
L 364.184017 260.45 
L 364.766538 260.45 
L 364.766538 172.45625 
L 364.766538 260.45 
L 366.109912 260.45 
L 366.109912 172.45625 
L 366.109912 260.45 
L 367.509026 260.45 
L 367.509026 172.45625 
L 367.509026 260.45 
L 372.203687 260.45 
L 372.203687 172.45625 
L 372.203687 260.45 
L 372.390013 260.45 
L 372.390013 172.45625 
L 372.392562 260.45 
L 377.188031 260.45 
L 377.188031 172.45625 
L 377.188031 260.45 
L 378.808387 260.45 
L 378.808387 172.45625 
L 378.808387 260.45 
L 378.972276 260.45 
L 378.972276 172.45625 
L 378.997263 260.45 
L 383.976076 260.45 
L 383.976076 172.45625 
L 383.976076 260.45 
L 384.590565 260.45 
L 384.590565 172.45625 
L 384.590565 260.45 
L 385.315017 260.45 
L 385.315017 172.45625 
L 385.332773 172.45625 
L 385.503893 172.45625 
L 385.503893 260.45 
L 387.412003 260.45 
L 387.412003 172.45625 
L 387.412003 260.45 
L 390.901156 260.45 
L 390.901156 172.45625 
L 390.901156 260.45 
L 391.168095 260.45 
L 391.168095 172.45625 
L 391.168095 260.45 
L 393.135766 260.45 
L 393.135766 172.45625 
L 393.135766 260.45 
L 395.515475 260.45 
L 395.515475 172.45625 
L 395.515475 260.45 
L 398.99321 260.45 
L 398.99321 172.45625 
L 398.99321 260.45 
L 399.638511 260.45 
L 399.638511 172.45625 
L 399.638511 260.45 
L 400.219338 260.45 
L 400.219338 172.45625 
L 400.219338 260.45 
L 400.601528 260.45 
L 400.601528 172.45625 
L 400.601528 260.45 
L 401.559506 260.45 
L 401.559506 172.45625 
L 401.559506 260.45 
L 403.227522 260.45 
L 403.227522 172.45625 
L 403.227522 260.45 
L 404.747589 260.45 
L 404.747589 172.45625 
L 404.785954 172.45625 
L 404.936465 172.45625 
L 404.936465 260.45 
L 405.126407 260.45 
L 405.126407 172.45625 
L 405.126407 260.45 
L 408.461463 260.45 
L 408.461463 172.45625 
L 408.461463 260.45 
L 409.33356 260.45 
L 409.33356 172.45625 
L 409.34245 172.45625 
L 409.522436 172.45625 
L 409.522436 260.45 
L 409.641518 260.45 
L 409.641518 172.45625 
L 409.711311 260.45 
L 409.900187 260.45 
L 409.900187 260.45 
" clip-path="url(#p5fa8cb0bb1)" style="fill: none; stroke: #ff7f0e; stroke-width: 1.5; stroke-linecap: square"/>
   </g>
   <g id="line2d_33">
    <path d="M 35.523528 260.45 
L 35.523528 172.45625 
L 35.523528 260.45 
L 37.22069 260.45 
L 37.22069 172.45625 
L 37.22069 260.45 
L 39.592838 260.45 
L 39.592838 172.45625 
L 39.592838 260.45 
L 43.105178 260.45 
L 43.105178 172.45625 
L 43.105178 260.45 
L 44.848923 260.45 
L 44.848923 172.45625 
L 44.848923 260.45 
L 48.534917 260.45 
L 48.534917 172.45625 
L 48.534917 260.45 
L 50.021749 260.45 
L 50.021749 172.45625 
L 50.021749 260.45 
L 53.570655 260.45 
L 53.570655 172.45625 
L 53.570655 260.45 
L 54.611452 260.45 
L 54.611452 172.45625 
L 54.611452 260.45 
L 56.45678 260.45 
L 56.45678 172.45625 
L 56.45678 260.45 
L 58.41761 260.45 
L 58.41761 172.45625 
L 58.41761 260.45 
L 59.333899 260.45 
L 59.333899 172.45625 
L 59.333899 260.45 
L 60.420915 260.45 
L 60.420915 172.45625 
L 60.420915 260.45 
L 61.087947 260.45 
L 61.087947 172.45625 
L 61.087947 260.45 
L 65.287644 260.45 
L 65.287644 172.45625 
L 65.287644 260.45 
L 65.47652 260.45 
L 65.47652 172.45625 
L 65.523739 260.45 
L 71.658982 260.45 
L 71.658982 172.45625 
L 71.658982 260.45 
L 72.26028 260.45 
L 72.26028 172.45625 
L 72.26028 260.45 
L 73.173686 260.45 
L 73.173686 172.45625 
L 73.173686 260.45 
L 74.400333 260.45 
L 74.400333 172.45625 
L 74.400333 260.45 
L 77.363596 260.45 
L 77.363596 172.45625 
L 77.363596 260.45 
L 80.521997 260.45 
L 80.521997 172.45625 
L 80.521997 260.45 
L 81.943615 260.45 
L 81.943615 172.45625 
L 81.943615 260.45 
L 83.17864 260.45 
L 83.17864 172.45625 
L 83.17864 260.45 
L 84.764125 260.45 
L 84.764125 172.45625 
L 84.764125 260.45 
L 85.706373 260.45 
L 85.706373 172.45625 
L 85.706373 260.45 
L 90.613843 260.45 
L 90.613843 172.45625 
L 90.613843 260.45 
L 94.029413 260.45 
L 94.029413 172.45625 
L 94.029413 260.45 
L 94.218289 260.45 
L 94.218289 172.45625 
L 94.265508 260.45 
L 94.945958 260.45 
L 94.945958 172.45625 
L 94.945958 260.45 
L 95.134834 260.45 
L 95.134834 172.45625 
L 95.182052 260.45 
L 97.091158 260.45 
L 97.091158 172.45625 
L 97.091158 260.45 
L 97.280034 260.45 
L 97.280034 172.45625 
L 97.327253 260.45 
L 97.997145 260.45 
L 97.997145 172.45625 
L 97.997145 260.45 
L 101.373275 260.45 
L 101.373275 172.45625 
L 101.373275 260.45 
L 107.32318 260.45 
L 107.32318 172.45625 
L 107.32318 260.45 
L 110.167241 260.45 
L 110.167241 172.45625 
L 110.167241 260.45 
L 110.452879 260.45 
L 110.452879 172.45625 
L 110.452879 260.45 
L 114.306537 260.45 
L 114.306537 172.45625 
L 114.306537 260.45 
L 118.161286 260.45 
L 118.161286 172.45625 
L 118.161286 260.45 
L 125.423975 260.45 
L 125.423975 172.45625 
L 125.423975 260.45 
L 126.636008 260.45 
L 126.636008 172.45625 
L 126.636008 260.45 
L 129.667915 260.45 
L 129.667915 172.45625 
L 129.667915 260.45 
L 132.716373 260.45 
L 132.716373 172.45625 
L 132.716373 260.45 
L 133.88538 260.45 
L 133.88538 172.45625 
L 133.88538 260.45 
L 135.273549 260.45 
L 135.273549 172.45625 
L 135.273549 260.45 
L 138.137917 260.45 
L 138.137917 172.45625 
L 138.137917 260.45 
L 140.28343 260.45 
L 140.28343 172.45625 
L 140.28343 260.45 
L 140.521176 260.45 
L 140.521176 172.45625 
L 140.521176 260.45 
L 142.929771 260.45 
L 142.929771 172.45625 
L 142.929771 260.45 
L 144.859008 260.45 
L 144.859008 172.45625 
L 144.859008 260.45 
L 146.50661 260.45 
L 146.50661 172.45625 
L 146.50661 260.45 
L 146.798857 260.45 
L 146.798857 172.45625 
L 146.798857 260.45 
L 148.254776 260.45 
L 148.254776 172.45625 
L 148.254776 260.45 
L 153.721633 260.45 
L 153.721633 172.45625 
L 153.721633 260.45 
L 156.406246 260.45 
L 156.406246 172.45625 
L 156.406246 260.45 
L 157.799822 260.45 
L 157.799822 172.45625 
L 157.799822 260.45 
L 158.011261 260.45 
L 158.011261 172.45625 
L 158.035917 260.45 
L 159.022815 260.45 
L 159.022815 172.45625 
L 159.022815 260.45 
L 160.23482 260.45 
L 160.23482 172.45625 
L 160.23482 260.45 
L 160.815198 260.45 
L 160.815198 172.45625 
L 160.815198 260.45 
L 161.204666 260.45 
L 161.204666 172.45625 
L 161.204666 260.45 
L 164.015617 260.45 
L 164.015617 172.45625 
L 164.015617 260.45 
L 166.537656 260.45 
L 166.537656 172.45625 
L 166.537656 260.45 
L 167.688065 260.45 
L 167.688065 172.45625 
L 167.688065 260.45 
L 168.149013 260.45 
L 168.149013 172.45625 
L 168.149013 260.45 
L 169.736201 260.45 
L 169.736201 172.45625 
L 169.736201 260.45 
L 170.010596 260.45 
L 170.010596 172.45625 
L 170.010596 260.45 
L 170.199471 260.45 
L 170.199471 172.45625 
L 170.24669 260.45 
L 170.786383 260.45 
L 170.786383 172.45625 
L 170.786383 260.45 
L 172.602197 260.45 
L 172.602197 172.45625 
L 172.602197 260.45 
L 172.908434 260.45 
L 172.908434 172.45625 
L 172.908434 260.45 
L 174.69708 260.45 
L 174.69708 172.45625 
L 174.69708 260.45 
L 175.171993 260.45 
L 175.171993 172.45625 
L 175.171993 260.45 
L 176.984346 260.45 
L 176.984346 172.45625 
L 176.984346 260.45 
L 177.907111 260.45 
L 177.907111 172.45625 
L 177.907111 260.45 
L 183.342793 260.45 
L 183.342793 172.45625 
L 183.342793 260.45 
L 187.741545 260.45 
L 187.741545 172.45625 
L 187.741545 260.45 
L 189.904434 260.45 
L 189.904434 172.45625 
L 189.904434 260.45 
L 191.033431 260.45 
L 191.033431 172.45625 
L 191.033431 260.45 
L 191.874907 260.45 
L 191.874907 172.45625 
L 191.874907 260.45 
L 193.668272 260.45 
L 193.668272 172.45625 
L 193.668272 260.45 
L 194.753424 260.45 
L 194.753424 172.45625 
L 194.753424 260.45 
L 199.147335 260.45 
L 199.147335 172.45625 
L 199.147335 260.45 
L 201.406492 260.45 
L 201.406492 172.45625 
L 201.406492 260.45 
L 201.603983 260.45 
L 201.603983 172.45625 
L 201.642587 260.45 
L 201.792859 260.45 
L 201.792859 172.45625 
L 201.878681 260.45 
L 208.332356 260.45 
L 208.332356 172.45625 
L 208.332356 260.45 
L 210.407935 260.45 
L 210.407935 172.45625 
L 210.407935 260.45 
L 212.407815 260.45 
L 212.407815 172.45625 
L 212.407815 260.45 
L 214.505464 260.45 
L 214.505464 172.45625 
L 214.505464 260.45 
L 214.859466 260.45 
L 214.859466 172.45625 
L 214.859466 260.45 
L 215.305603 260.45 
L 215.305603 172.45625 
L 215.305603 260.45 
L 216.143086 260.45 
L 216.143086 172.45625 
L 216.143086 260.45 
L 216.403788 260.45 
L 216.403788 172.45625 
L 216.403788 260.45 
L 219.027352 260.45 
L 219.027352 172.45625 
L 219.027352 260.45 
L 219.743119 260.45 
L 219.743119 172.45625 
L 219.743119 260.45 
L 221.511112 260.45 
L 221.511112 172.45625 
L 221.511112 260.45 
L 222.365023 260.45 
L 222.365023 172.45625 
L 222.365023 260.45 
L 223.107517 260.45 
L 223.107517 172.45625 
L 223.107517 260.45 
L 224.702436 260.45 
L 224.702436 172.45625 
L 224.702436 260.45 
L 224.891312 260.45 
L 224.891312 172.45625 
L 224.938531 260.45 
L 225.866869 260.45 
L 225.866869 172.45625 
L 225.866869 260.45 
L 227.766715 260.45 
L 227.766715 172.45625 
L 227.766715 260.45 
L 236.180176 260.45 
L 236.180176 172.45625 
L 236.180176 260.45 
L 242.210877 260.45 
L 242.210877 172.45625 
L 242.210877 260.45 
L 242.414173 260.45 
L 242.414173 172.45625 
L 242.446971 260.45 
L 244.41215 260.45 
L 244.41215 172.45625 
L 244.41215 260.45 
L 244.854689 260.45 
L 244.854689 172.45625 
L 244.854689 260.45 
L 246.758592 260.45 
L 246.758592 172.45625 
L 246.758592 260.45 
L 247.09085 260.45 
L 247.09085 172.45625 
L 247.09085 260.45 
L 257.214777 260.45 
L 257.214777 172.45625 
L 257.214777 260.45 
L 259.214484 260.45 
L 259.214484 172.45625 
L 259.214484 260.45 
L 260.861321 260.45 
L 260.861321 172.45625 
L 260.861321 260.45 
L 261.412991 260.45 
L 261.412991 172.45625 
L 261.412991 260.45 
L 262.423598 260.45 
L 262.423598 172.45625 
L 262.423598 260.45 
L 263.609627 260.45 
L 263.609627 172.45625 
L 263.609627 260.45 
L 264.825572 260.45 
L 264.825572 172.45625 
L 264.825572 260.45 
L 265.354948 260.45 
L 265.354948 172.45625 
L 265.354948 260.45 
L 267.200006 260.45 
L 267.200006 172.45625 
L 267.200006 260.45 
L 267.527002 260.45 
L 267.527002 172.45625 
L 267.527002 260.45 
L 268.306117 260.45 
L 268.306117 172.45625 
L 268.306117 260.45 
L 268.527017 260.45 
L 268.527017 172.45625 
L 268.542211 260.45 
L 270.648409 260.45 
L 270.648409 172.45625 
L 270.648409 260.45 
L 272.665738 260.45 
L 272.665738 172.45625 
L 272.665738 260.45 
L 273.386404 260.45 
L 273.386404 172.45625 
L 273.386404 260.45 
L 273.667285 260.45 
L 273.667285 172.45625 
L 273.667285 260.45 
L 276.512953 260.45 
L 276.512953 172.45625 
L 276.512953 260.45 
L 276.926365 260.45 
L 276.926365 172.45625 
L 276.926365 260.45 
L 282.568441 260.45 
L 282.568441 172.45625 
L 282.568441 260.45 
L 283.437296 260.45 
L 283.437296 172.45625 
L 283.437296 260.45 
L 285.488994 260.45 
L 285.488994 172.45625 
L 285.488994 260.45 
L 288.738283 260.45 
L 288.738283 172.45625 
L 288.738283 260.45 
L 288.927158 260.45 
L 288.927158 172.45625 
L 288.974377 260.45 
L 289.116034 260.45 
L 289.116034 172.45625 
L 289.210472 260.45 
L 290.798749 260.45 
L 290.798749 172.45625 
L 290.798749 260.45 
L 294.235945 260.45 
L 294.235945 172.45625 
L 294.235945 260.45 
L 296.351002 260.45 
L 296.351002 172.45625 
L 296.351002 260.45 
L 296.541832 260.45 
L 296.541832 172.45625 
L 296.587097 260.45 
L 303.291472 260.45 
L 303.291472 172.45625 
L 303.291472 260.45 
L 310.372481 260.45 
L 310.372481 172.45625 
L 310.372481 260.45 
L 314.348921 260.45 
L 314.348921 172.45625 
L 314.348921 260.45 
L 315.543251 260.45 
L 315.543251 172.45625 
L 315.543251 260.45 
L 316.889149 260.45 
L 316.889149 172.45625 
L 316.889149 260.45 
L 323.994515 260.45 
L 323.994515 172.45625 
L 323.994515 260.45 
L 324.183391 260.45 
L 324.183391 172.45625 
L 324.230609 260.45 
L 325.856462 260.45 
L 325.856462 172.45625 
L 325.856462 260.45 
L 326.989616 260.45 
L 326.989616 172.45625 
L 326.989616 260.45 
L 329.528568 260.45 
L 329.528568 172.45625 
L 329.528568 260.45 
L 329.717444 260.45 
L 329.717444 172.45625 
L 329.764663 260.45 
L 329.90632 260.45 
L 329.90632 172.45625 
L 330.000757 260.45 
L 330.743123 260.45 
L 330.743123 172.45625 
L 330.743123 260.45 
L 331.370966 260.45 
L 331.370966 172.45625 
L 331.370966 260.45 
L 338.721196 260.45 
L 338.721196 172.45625 
L 338.721196 260.45 
L 338.963064 260.45 
L 338.963064 172.45625 
L 338.963064 260.45 
L 339.804353 260.45 
L 339.804353 172.45625 
L 339.804353 260.45 
L 340.467639 260.45 
L 340.467639 172.45625 
L 340.467639 260.45 
L 341.705996 260.45 
L 341.705996 172.45625 
L 341.705996 260.45 
L 341.944713 260.45 
L 341.944713 172.45625 
L 341.944713 260.45 
L 344.148653 260.45 
L 344.148653 172.45625 
L 344.148653 260.45 
L 344.871483 260.45 
L 344.871483 172.45625 
L 344.871483 260.45 
L 348.88365 260.45 
L 348.88365 172.45625 
L 348.88365 260.45 
L 349.893917 260.45 
L 349.893917 172.45625 
L 349.893917 260.45 
L 354.623198 260.45 
L 354.623198 172.45625 
L 354.623198 260.45 
L 354.812073 260.45 
L 354.812073 172.45625 
L 354.859292 260.45 
L 355.210021 260.45 
L 355.210021 172.45625 
L 355.210021 260.45 
L 357.437223 260.45 
L 357.437223 172.45625 
L 357.437223 260.45 
L 359.010262 260.45 
L 359.010262 172.45625 
L 359.010262 260.45 
L 360.589447 260.45 
L 360.589447 172.45625 
L 360.589447 260.45 
L 364.373082 260.45 
L 364.373082 172.45625 
L 364.373082 260.45 
L 364.955602 260.45 
L 364.955602 172.45625 
L 364.955602 260.45 
L 366.298977 260.45 
L 366.298977 172.45625 
L 366.298977 260.45 
L 367.69809 260.45 
L 367.69809 172.45625 
L 367.69809 260.45 
L 372.392751 260.45 
L 372.392751 172.45625 
L 372.392751 260.45 
L 372.581627 260.45 
L 372.581627 172.45625 
L 372.628846 260.45 
L 377.377096 260.45 
L 377.377096 172.45625 
L 377.377096 260.45 
L 378.997452 260.45 
L 378.997452 172.45625 
L 378.997452 260.45 
L 379.186328 260.45 
L 379.186328 172.45625 
L 379.233546 260.45 
L 384.165141 260.45 
L 384.165141 172.45625 
L 384.165141 260.45 
L 384.77963 260.45 
L 384.77963 172.45625 
L 384.77963 260.45 
L 385.504082 260.45 
L 385.504082 172.45625 
L 385.504082 260.45 
L 385.692957 260.45 
L 385.692957 172.45625 
L 385.740176 260.45 
L 387.601068 260.45 
L 387.601068 172.45625 
L 387.601068 260.45 
L 391.090221 260.45 
L 391.090221 172.45625 
L 391.090221 260.45 
L 391.35716 260.45 
L 391.35716 172.45625 
L 391.35716 260.45 
L 393.324831 260.45 
L 393.324831 172.45625 
L 393.324831 260.45 
L 395.704539 260.45 
L 395.704539 172.45625 
L 395.704539 260.45 
L 399.182274 260.45 
L 399.182274 172.45625 
L 399.182274 260.45 
L 399.827576 260.45 
L 399.827576 172.45625 
L 399.827576 260.45 
L 400.408402 260.45 
L 400.408402 172.45625 
L 400.408402 260.45 
L 400.790593 260.45 
L 400.790593 172.45625 
L 400.790593 260.45 
L 401.748571 260.45 
L 401.748571 172.45625 
L 401.748571 260.45 
L 403.416587 260.45 
L 403.416587 172.45625 
L 403.416587 260.45 
L 404.936653 260.45 
L 404.936653 172.45625 
L 404.936653 260.45 
L 405.125529 260.45 
L 405.125529 172.45625 
L 405.172748 260.45 
L 405.315471 260.45 
L 405.315471 172.45625 
L 405.408843 260.45 
L 408.650527 260.45 
L 408.650527 172.45625 
L 408.650527 260.45 
L 409.522625 260.45 
L 409.522625 172.45625 
L 409.522625 260.45 
L 409.7115 260.45 
L 409.7115 172.45625 
L 409.758719 260.45 
L 409.900376 260.45 
L 409.900376 172.45625 
L 409.994814 260.45 
L 410.230908 260.45 
L 410.230908 260.45 
" clip-path="url(#p5fa8cb0bb1)" style="fill: none; stroke: #2ca02c; stroke-width: 1.5; stroke-linecap: square"/>
   </g>
   <g id="patch_3">
    <path d="M 33.83125 260.45 
L 33.83125 25.8 
" style="fill: none; stroke: #000000; stroke-width: 0.8; stroke-linejoin: miter; stroke-linecap: square"/>
   </g>
   <g id="patch_4">
    <path d="M 415.586633 260.45 
L 415.586633 25.8 
" style="fill: none; stroke: #000000; stroke-width: 0.8; stroke-linejoin: miter; stroke-linecap: square"/>
   </g>
   <g id="patch_5">
    <path d="M 33.83125 260.45 
L 415.586633 260.45 
" style="fill: none; stroke: #000000; stroke-width: 0.8; stroke-linejoin: miter; stroke-linecap: square"/>
   </g>
   <g id="patch_6">
    <path d="M 33.83125 25.8 
L 415.586633 25.8 
" style="fill: none; stroke: #000000; stroke-width: 0.8; stroke-linejoin: miter; stroke-linecap: square"/>
   </g>
   <g id="text_16">
    <!-- Buffers_sizes -->
    <g transform="translate(185.522379 19.8)scale(0.12 -0.12)">
     <defs>
      <path id="DejaVuSans-42" d="M 1259 2228 
L 1259 519 
L 2272 519 
Q 2781 519 3026 730 
Q 3272 941 3272 1375 
Q 3272 1813 3026 2020 
Q 2781 2228 2272 2228 
L 1259 2228 
z
M 1259 4147 
L 1259 2741 
L 2194 2741 
Q 2656 2741 2882 2914 
Q 3109 3088 3109 3444 
Q 3109 3797 2882 3972 
Q 2656 4147 2194 4147 
L 1259 4147 
z
M 628 4666 
L 2241 4666 
Q 2963 4666 3353 4366 
Q 3744 4066 3744 3513 
Q 3744 3084 3544 2831 
Q 3344 2578 2956 2516 
Q 3422 2416 3680 2098 
Q 3938 1781 3938 1306 
Q 3938 681 3513 340 
Q 3088 0 2303 0 
L 628 0 
L 628 4666 
z
" transform="scale(0.015625)"/>
      <path id="DejaVuSans-75" d="M 544 1381 
L 544 3500 
L 1119 3500 
L 1119 1403 
Q 1119 906 1312 657 
Q 1506 409 1894 409 
Q 2359 409 2629 706 
Q 2900 1003 2900 1516 
L 2900 3500 
L 3475 3500 
L 3475 0 
L 2900 0 
L 2900 538 
Q 2691 219 2414 64 
Q 2138 -91 1772 -91 
Q 1169 -91 856 284 
Q 544 659 544 1381 
z
M 1991 3584 
L 1991 3584 
z
" transform="scale(0.015625)"/>
      <path id="DejaVuSans-66" d="M 2375 4863 
L 2375 4384 
L 1825 4384 
Q 1516 4384 1395 4259 
Q 1275 4134 1275 3809 
L 1275 3500 
L 2222 3500 
L 2222 3053 
L 1275 3053 
L 1275 0 
L 697 0 
L 697 3053 
L 147 3053 
L 147 3500 
L 697 3500 
L 697 3744 
Q 697 4328 969 4595 
Q 1241 4863 1831 4863 
L 2375 4863 
z
" transform="scale(0.015625)"/>
      <path id="DejaVuSans-65" d="M 3597 1894 
L 3597 1613 
L 953 1613 
Q 991 1019 1311 708 
Q 1631 397 2203 397 
Q 2534 397 2845 478 
Q 3156 559 3463 722 
L 3463 178 
Q 3153 47 2828 -22 
Q 2503 -91 2169 -91 
Q 1331 -91 842 396 
Q 353 884 353 1716 
Q 353 2575 817 3079 
Q 1281 3584 2069 3584 
Q 2775 3584 3186 3129 
Q 3597 2675 3597 1894 
z
M 3022 2063 
Q 3016 2534 2758 2815 
Q 2500 3097 2075 3097 
Q 1594 3097 1305 2825 
Q 1016 2553 972 2059 
L 3022 2063 
z
" transform="scale(0.015625)"/>
      <path id="DejaVuSans-72" d="M 2631 2963 
Q 2534 3019 2420 3045 
Q 2306 3072 2169 3072 
Q 1681 3072 1420 2755 
Q 1159 2438 1159 1844 
L 1159 0 
L 581 0 
L 581 3500 
L 1159 3500 
L 1159 2956 
Q 1341 3275 1631 3429 
Q 1922 3584 2338 3584 
Q 2397 3584 2469 3576 
Q 2541 3569 2628 3553 
L 2631 2963 
z
" transform="scale(0.015625)"/>
      <path id="DejaVuSans-73" d="M 2834 3397 
L 2834 2853 
Q 2591 2978 2328 3040 
Q 2066 3103 1784 3103 
Q 1356 3103 1142 2972 
Q 928 2841 928 2578 
Q 928 2378 1081 2264 
Q 1234 2150 1697 2047 
L 1894 2003 
Q 2506 1872 2764 1633 
Q 3022 1394 3022 966 
Q 3022 478 2636 193 
Q 2250 -91 1575 -91 
Q 1294 -91 989 -36 
Q 684 19 347 128 
L 347 722 
Q 666 556 975 473 
Q 1284 391 1588 391 
Q 1994 391 2212 530 
Q 2431 669 2431 922 
Q 2431 1156 2273 1281 
Q 2116 1406 1581 1522 
L 1381 1569 
Q 847 1681 609 1914 
Q 372 2147 372 2553 
Q 372 3047 722 3315 
Q 1072 3584 1716 3584 
Q 2034 3584 2315 3537 
Q 2597 3491 2834 3397 
z
" transform="scale(0.015625)"/>
      <path id="DejaVuSans-5f" d="M 3263 -1063 
L 3263 -1509 
L -63 -1509 
L -63 -1063 
L 3263 -1063 
z
" transform="scale(0.015625)"/>
      <path id="DejaVuSans-69" d="M 603 3500 
L 1178 3500 
L 1178 0 
L 603 0 
L 603 3500 
z
M 603 4863 
L 1178 4863 
L 1178 4134 
L 603 4134 
L 603 4863 
z
" transform="scale(0.015625)"/>
      <path id="DejaVuSans-7a" d="M 353 3500 
L 3084 3500 
L 3084 2975 
L 922 459 
L 3084 459 
L 3084 0 
L 275 0 
L 275 525 
L 2438 3041 
L 353 3041 
L 353 3500 
z
" transform="scale(0.015625)"/>
     </defs>
     <use xlink:href="#DejaVuSans-42"/>
     <use xlink:href="#DejaVuSans-75" x="68.603516"/>
     <use xlink:href="#DejaVuSans-66" x="131.982422"/>
     <use xlink:href="#DejaVuSans-66" x="167.1875"/>
     <use xlink:href="#DejaVuSans-65" x="202.392578"/>
     <use xlink:href="#DejaVuSans-72" x="263.916016"/>
     <use xlink:href="#DejaVuSans-73" x="305.029297"/>
     <use xlink:href="#DejaVuSans-5f" x="357.128906"/>
     <use xlink:href="#DejaVuSans-73" x="407.128906"/>
     <use xlink:href="#DejaVuSans-69" x="459.228516"/>
     <use xlink:href="#DejaVuSans-7a" x="487.011719"/>
     <use xlink:href="#DejaVuSans-65" x="539.501953"/>
     <use xlink:href="#DejaVuSans-73" x="601.025391"/>
    </g>
   </g>
   <g id="legend_1">
    <g id="patch_7">
     <path d="M 263.625696 77.834375 
L 408.586633 77.834375 
Q 410.586633 77.834375 410.586633 75.834375 
L 410.586633 32.8 
Q 410.586633 30.8 408.586633 30.8 
L 263.625696 30.8 
Q 261.625696 30.8 261.625696 32.8 
L 261.625696 75.834375 
Q 261.625696 77.834375 263.625696 77.834375 
z
" style="fill: #ffffff; opacity: 0.8; stroke: #cccccc; stroke-linejoin: miter"/>
    </g>
    <g id="line2d_34">
     <path d="M 265.625696 38.898437 
L 275.625696 38.898437 
L 285.625696 38.898437 
" style="fill: none; stroke: #1f77b4; stroke-width: 1.5; stroke-linecap: square"/>
    </g>
    <g id="text_17">
     <!-- Network.nodeRx.traRx -->
     <g transform="translate(293.625696 42.398437)scale(0.1 -0.1)">
      <defs>
       <path id="DejaVuSans-4e" d="M 628 4666 
L 1478 4666 
L 3547 763 
L 3547 4666 
L 4159 4666 
L 4159 0 
L 3309 0 
L 1241 3903 
L 1241 0 
L 628 0 
L 628 4666 
z
" transform="scale(0.015625)"/>
       <path id="DejaVuSans-74" d="M 1172 4494 
L 1172 3500 
L 2356 3500 
L 2356 3053 
L 1172 3053 
L 1172 1153 
Q 1172 725 1289 603 
Q 1406 481 1766 481 
L 2356 481 
L 2356 0 
L 1766 0 
Q 1100 0 847 248 
Q 594 497 594 1153 
L 594 3053 
L 172 3053 
L 172 3500 
L 594 3500 
L 594 4494 
L 1172 4494 
z
" transform="scale(0.015625)"/>
       <path id="DejaVuSans-77" d="M 269 3500 
L 844 3500 
L 1563 769 
L 2278 3500 
L 2956 3500 
L 3675 769 
L 4391 3500 
L 4966 3500 
L 4050 0 
L 3372 0 
L 2619 2869 
L 1863 0 
L 1184 0 
L 269 3500 
z
" transform="scale(0.015625)"/>
       <path id="DejaVuSans-6f" d="M 1959 3097 
Q 1497 3097 1228 2736 
Q 959 2375 959 1747 
Q 959 1119 1226 758 
Q 1494 397 1959 397 
Q 2419 397 2687 759 
Q 2956 1122 2956 1747 
Q 2956 2369 2687 2733 
Q 2419 3097 1959 3097 
z
M 1959 3584 
Q 2709 3584 3137 3096 
Q 3566 2609 3566 1747 
Q 3566 888 3137 398 
Q 2709 -91 1959 -91 
Q 1206 -91 779 398 
Q 353 888 353 1747 
Q 353 2609 779 3096 
Q 1206 3584 1959 3584 
z
" transform="scale(0.015625)"/>
       <path id="DejaVuSans-6b" d="M 581 4863 
L 1159 4863 
L 1159 1991 
L 2875 3500 
L 3609 3500 
L 1753 1863 
L 3688 0 
L 2938 0 
L 1159 1709 
L 1159 0 
L 581 0 
L 581 4863 
z
" transform="scale(0.015625)"/>
       <path id="DejaVuSans-6e" d="M 3513 2113 
L 3513 0 
L 2938 0 
L 2938 2094 
Q 2938 2591 2744 2837 
Q 2550 3084 2163 3084 
Q 1697 3084 1428 2787 
Q 1159 2491 1159 1978 
L 1159 0 
L 581 0 
L 581 3500 
L 1159 3500 
L 1159 2956 
Q 1366 3272 1645 3428 
Q 1925 3584 2291 3584 
Q 2894 3584 3203 3211 
Q 3513 2838 3513 2113 
z
" transform="scale(0.015625)"/>
       <path id="DejaVuSans-64" d="M 2906 2969 
L 2906 4863 
L 3481 4863 
L 3481 0 
L 2906 0 
L 2906 525 
Q 2725 213 2448 61 
Q 2172 -91 1784 -91 
Q 1150 -91 751 415 
Q 353 922 353 1747 
Q 353 2572 751 3078 
Q 1150 3584 1784 3584 
Q 2172 3584 2448 3432 
Q 2725 3281 2906 2969 
z
M 947 1747 
Q 947 1113 1208 752 
Q 1469 391 1925 391 
Q 2381 391 2643 752 
Q 2906 1113 2906 1747 
Q 2906 2381 2643 2742 
Q 2381 3103 1925 3103 
Q 1469 3103 1208 2742 
Q 947 2381 947 1747 
z
" transform="scale(0.015625)"/>
       <path id="DejaVuSans-52" d="M 2841 2188 
Q 3044 2119 3236 1894 
Q 3428 1669 3622 1275 
L 4263 0 
L 3584 0 
L 2988 1197 
Q 2756 1666 2539 1819 
Q 2322 1972 1947 1972 
L 1259 1972 
L 1259 0 
L 628 0 
L 628 4666 
L 2053 4666 
Q 2853 4666 3247 4331 
Q 3641 3997 3641 3322 
Q 3641 2881 3436 2590 
Q 3231 2300 2841 2188 
z
M 1259 4147 
L 1259 2491 
L 2053 2491 
Q 2509 2491 2742 2702 
Q 2975 2913 2975 3322 
Q 2975 3731 2742 3939 
Q 2509 4147 2053 4147 
L 1259 4147 
z
" transform="scale(0.015625)"/>
       <path id="DejaVuSans-78" d="M 3513 3500 
L 2247 1797 
L 3578 0 
L 2900 0 
L 1881 1375 
L 863 0 
L 184 0 
L 1544 1831 
L 300 3500 
L 978 3500 
L 1906 2253 
L 2834 3500 
L 3513 3500 
z
" transform="scale(0.015625)"/>
       <path id="DejaVuSans-61" d="M 2194 1759 
Q 1497 1759 1228 1600 
Q 959 1441 959 1056 
Q 959 750 1161 570 
Q 1363 391 1709 391 
Q 2188 391 2477 730 
Q 2766 1069 2766 1631 
L 2766 1759 
L 2194 1759 
z
M 3341 1997 
L 3341 0 
L 2766 0 
L 2766 531 
Q 2569 213 2275 61 
Q 1981 -91 1556 -91 
Q 1019 -91 701 211 
Q 384 513 384 1019 
Q 384 1609 779 1909 
Q 1175 2209 1959 2209 
L 2766 2209 
L 2766 2266 
Q 2766 2663 2505 2880 
Q 2244 3097 1772 3097 
Q 1472 3097 1187 3025 
Q 903 2953 641 2809 
L 641 3341 
Q 956 3463 1253 3523 
Q 1550 3584 1831 3584 
Q 2591 3584 2966 3190 
Q 3341 2797 3341 1997 
z
" transform="scale(0.015625)"/>
      </defs>
      <use xlink:href="#DejaVuSans-4e"/>
      <use xlink:href="#DejaVuSans-65" x="74.804688"/>
      <use xlink:href="#DejaVuSans-74" x="136.328125"/>
      <use xlink:href="#DejaVuSans-77" x="175.537109"/>
      <use xlink:href="#DejaVuSans-6f" x="257.324219"/>
      <use xlink:href="#DejaVuSans-72" x="318.505859"/>
      <use xlink:href="#DejaVuSans-6b" x="359.619141"/>
      <use xlink:href="#DejaVuSans-2e" x="417.529297"/>
      <use xlink:href="#DejaVuSans-6e" x="449.316406"/>
      <use xlink:href="#DejaVuSans-6f" x="512.695312"/>
      <use xlink:href="#DejaVuSans-64" x="573.876953"/>
      <use xlink:href="#DejaVuSans-65" x="637.353516"/>
      <use xlink:href="#DejaVuSans-52" x="698.876953"/>
      <use xlink:href="#DejaVuSans-78" x="768.359375"/>
      <use xlink:href="#DejaVuSans-2e" x="827.539062"/>
      <use xlink:href="#DejaVuSans-74" x="859.326172"/>
      <use xlink:href="#DejaVuSans-72" x="898.535156"/>
      <use xlink:href="#DejaVuSans-61" x="939.648438"/>
      <use xlink:href="#DejaVuSans-52" x="1000.927734"/>
      <use xlink:href="#DejaVuSans-78" x="1070.410156"/>
     </g>
    </g>
    <g id="line2d_35">
     <path d="M 265.625696 53.576562 
L 275.625696 53.576562 
L 285.625696 53.576562 
" style="fill: none; stroke: #ff7f0e; stroke-width: 1.5; stroke-linecap: square"/>
    </g>
    <g id="text_18">
     <!-- Network.nodeTx.traTx -->
     <g transform="translate(293.625696 57.076562)scale(0.1 -0.1)">
      <defs>
       <path id="DejaVuSans-54" d="M -19 4666 
L 3928 4666 
L 3928 4134 
L 2272 4134 
L 2272 0 
L 1638 0 
L 1638 4134 
L -19 4134 
L -19 4666 
z
" transform="scale(0.015625)"/>
      </defs>
      <use xlink:href="#DejaVuSans-4e"/>
      <use xlink:href="#DejaVuSans-65" x="74.804688"/>
      <use xlink:href="#DejaVuSans-74" x="136.328125"/>
      <use xlink:href="#DejaVuSans-77" x="175.537109"/>
      <use xlink:href="#DejaVuSans-6f" x="257.324219"/>
      <use xlink:href="#DejaVuSans-72" x="318.505859"/>
      <use xlink:href="#DejaVuSans-6b" x="359.619141"/>
      <use xlink:href="#DejaVuSans-2e" x="417.529297"/>
      <use xlink:href="#DejaVuSans-6e" x="449.316406"/>
      <use xlink:href="#DejaVuSans-6f" x="512.695312"/>
      <use xlink:href="#DejaVuSans-64" x="573.876953"/>
      <use xlink:href="#DejaVuSans-65" x="637.353516"/>
      <use xlink:href="#DejaVuSans-54" x="698.876953"/>
      <use xlink:href="#DejaVuSans-78" x="759.960938"/>
      <use xlink:href="#DejaVuSans-2e" x="819.140625"/>
      <use xlink:href="#DejaVuSans-74" x="850.927734"/>
      <use xlink:href="#DejaVuSans-72" x="890.136719"/>
      <use xlink:href="#DejaVuSans-61" x="931.25"/>
      <use xlink:href="#DejaVuSans-54" x="992.529297"/>
      <use xlink:href="#DejaVuSans-78" x="1053.613281"/>
     </g>
    </g>
    <g id="line2d_36">
     <path d="M 265.625696 68.254687 
L 275.625696 68.254687 
L 285.625696 68.254687 
" style="fill: none; stroke: #2ca02c; stroke-width: 1.5; stroke-linecap: square"/>
    </g>
    <g id="text_19">
     <!-- Network.queue0 -->
     <g transform="translate(293.625696 71.754687)scale(0.1 -0.1)">
      <defs>
       <path id="DejaVuSans-71" d="M 947 1747 
Q 947 1113 1208 752 
Q 1469 391 1925 391 
Q 2381 391 2643 752 
Q 2906 1113 2906 1747 
Q 2906 2381 2643 2742 
Q 2381 3103 1925 3103 
Q 1469 3103 1208 2742 
Q 947 2381 947 1747 
z
M 2906 525 
Q 2725 213 2448 61 
Q 2172 -91 1784 -91 
Q 1150 -91 751 415 
Q 353 922 353 1747 
Q 353 2572 751 3078 
Q 1150 3584 1784 3584 
Q 2172 3584 2448 3432 
Q 2725 3281 2906 2969 
L 2906 3500 
L 3481 3500 
L 3481 -1331 
L 2906 -1331 
L 2906 525 
z
" transform="scale(0.015625)"/>
      </defs>
      <use xlink:href="#DejaVuSans-4e"/>
      <use xlink:href="#DejaVuSans-65" x="74.804688"/>
      <use xlink:href="#DejaVuSans-74" x="136.328125"/>
      <use xlink:href="#DejaVuSans-77" x="175.537109"/>
      <use xlink:href="#DejaVuSans-6f" x="257.324219"/>
      <use xlink:href="#DejaVuSans-72" x="318.505859"/>
      <use xlink:href="#DejaVuSans-6b" x="359.619141"/>
      <use xlink:href="#DejaVuSans-2e" x="417.529297"/>
      <use xlink:href="#DejaVuSans-71" x="449.316406"/>
      <use xlink:href="#DejaVuSans-75" x="512.792969"/>
      <use xlink:href="#DejaVuSans-65" x="576.171875"/>
      <use xlink:href="#DejaVuSans-75" x="637.695312"/>
      <use xlink:href="#DejaVuSans-65" x="701.074219"/>
      <use xlink:href="#DejaVuSans-30" x="762.597656"/>
     </g>
    </g>
   </g>
  </g>
 </g>
 <defs>
  <clipPath id="p5fa8cb0bb1">
   <rect x="33.83125" y="25.8" width="381.755383" height="234.65"/>
  </clipPath>
 </defs>
</svg>
