<?xml version="1.0" encoding="utf-8" standalone="no"?>
<!DOCTYPE svg PUBLIC "-//W3C//DTD SVG 1.1//EN"
  "http://www.w3.org/Graphics/SVG/1.1/DTD/svg11.dtd">
<!-- Created with matplotlib (https://matplotlib.org/) -->
<svg height="288pt" version="1.1" viewBox="0 0 432 288" width="432pt" xmlns="http://www.w3.org/2000/svg" xmlns:xlink="http://www.w3.org/1999/xlink">
 <defs>
  <style type="text/css">
*{stroke-linecap:butt;stroke-linejoin:round;}
  </style>
 </defs>
 <g id="figure_1">
  <g id="patch_1">
   <path d="M 0 288 
L 432 288 
L 432 0 
L 0 0 
z
" style="fill:#ffffff;"/>
  </g>
  <g id="axes_1">
   <g id="patch_2">
    <path d="M 45.3 260.2 
L 416.341657 260.2 
L 416.341657 26.8 
L 45.3 26.8 
z
" style="fill:#ffffff;"/>
   </g>
   <g id="matplotlib.axis_1">
    <g id="xtick_1">
     <g id="line2d_1">
      <path clip-path="url(#p2cee5e4dac)" d="M 45.3 260.2 
L 45.3 26.8 
" style="fill:none;stroke:#b0b0b0;stroke-linecap:square;stroke-width:0.8;"/>
     </g>
     <g id="line2d_2">
      <defs>
       <path d="M 0 0 
L 0 3.5 
" id="m540c4c2828" style="stroke:#000000;stroke-width:0.8;"/>
      </defs>
      <g>
       <use style="stroke:#000000;stroke-width:0.8;" x="45.3" xlink:href="#m540c4c2828" y="260.2"/>
      </g>
     </g>
     <g id="text_1">
      <!-- 0 -->
      <defs>
       <path d="M 31.78125 66.40625 
Q 24.171875 66.40625 20.328125 58.90625 
Q 16.5 51.421875 16.5 36.375 
Q 16.5 21.390625 20.328125 13.890625 
Q 24.171875 6.390625 31.78125 6.390625 
Q 39.453125 6.390625 43.28125 13.890625 
Q 47.125 21.390625 47.125 36.375 
Q 47.125 51.421875 43.28125 58.90625 
Q 39.453125 66.40625 31.78125 66.40625 
z
M 31.78125 74.21875 
Q 44.046875 74.21875 50.515625 64.515625 
Q 56.984375 54.828125 56.984375 36.375 
Q 56.984375 17.96875 50.515625 8.265625 
Q 44.046875 -1.421875 31.78125 -1.421875 
Q 19.53125 -1.421875 13.0625 8.265625 
Q 6.59375 17.96875 6.59375 36.375 
Q 6.59375 54.828125 13.0625 64.515625 
Q 19.53125 74.21875 31.78125 74.21875 
z
" id="DejaVuSans-48"/>
      </defs>
      <g transform="translate(42.11875 274.798437)scale(0.1 -0.1)">
       <use xlink:href="#DejaVuSans-48"/>
      </g>
     </g>
    </g>
    <g id="xtick_2">
     <g id="line2d_3">
      <path clip-path="url(#p2cee5e4dac)" d="M 91.107895 260.2 
L 91.107895 26.8 
" style="fill:none;stroke:#b0b0b0;stroke-linecap:square;stroke-width:0.8;"/>
     </g>
     <g id="line2d_4">
      <g>
       <use style="stroke:#000000;stroke-width:0.8;" x="91.107895" xlink:href="#m540c4c2828" y="260.2"/>
      </g>
     </g>
     <g id="text_2">
      <!-- 25 -->
      <defs>
       <path d="M 19.1875 8.296875 
L 53.609375 8.296875 
L 53.609375 0 
L 7.328125 0 
L 7.328125 8.296875 
Q 12.9375 14.109375 22.625 23.890625 
Q 32.328125 33.6875 34.8125 36.53125 
Q 39.546875 41.84375 41.421875 45.53125 
Q 43.3125 49.21875 43.3125 52.78125 
Q 43.3125 58.59375 39.234375 62.25 
Q 35.15625 65.921875 28.609375 65.921875 
Q 23.96875 65.921875 18.8125 64.3125 
Q 13.671875 62.703125 7.8125 59.421875 
L 7.8125 69.390625 
Q 13.765625 71.78125 18.9375 73 
Q 24.125 74.21875 28.421875 74.21875 
Q 39.75 74.21875 46.484375 68.546875 
Q 53.21875 62.890625 53.21875 53.421875 
Q 53.21875 48.921875 51.53125 44.890625 
Q 49.859375 40.875 45.40625 35.40625 
Q 44.1875 33.984375 37.640625 27.21875 
Q 31.109375 20.453125 19.1875 8.296875 
z
" id="DejaVuSans-50"/>
       <path d="M 10.796875 72.90625 
L 49.515625 72.90625 
L 49.515625 64.59375 
L 19.828125 64.59375 
L 19.828125 46.734375 
Q 21.96875 47.46875 24.109375 47.828125 
Q 26.265625 48.1875 28.421875 48.1875 
Q 40.625 48.1875 47.75 41.5 
Q 54.890625 34.8125 54.890625 23.390625 
Q 54.890625 11.625 47.5625 5.09375 
Q 40.234375 -1.421875 26.90625 -1.421875 
Q 22.3125 -1.421875 17.546875 -0.640625 
Q 12.796875 0.140625 7.71875 1.703125 
L 7.71875 11.625 
Q 12.109375 9.234375 16.796875 8.0625 
Q 21.484375 6.890625 26.703125 6.890625 
Q 35.15625 6.890625 40.078125 11.328125 
Q 45.015625 15.765625 45.015625 23.390625 
Q 45.015625 31 40.078125 35.4375 
Q 35.15625 39.890625 26.703125 39.890625 
Q 22.75 39.890625 18.8125 39.015625 
Q 14.890625 38.140625 10.796875 36.28125 
z
" id="DejaVuSans-53"/>
      </defs>
      <g transform="translate(84.745395 274.798437)scale(0.1 -0.1)">
       <use xlink:href="#DejaVuSans-50"/>
       <use x="63.623047" xlink:href="#DejaVuSans-53"/>
      </g>
     </g>
    </g>
    <g id="xtick_3">
     <g id="line2d_5">
      <path clip-path="url(#p2cee5e4dac)" d="M 136.91579 260.2 
L 136.91579 26.8 
" style="fill:none;stroke:#b0b0b0;stroke-linecap:square;stroke-width:0.8;"/>
     </g>
     <g id="line2d_6">
      <g>
       <use style="stroke:#000000;stroke-width:0.8;" x="136.91579" xlink:href="#m540c4c2828" y="260.2"/>
      </g>
     </g>
     <g id="text_3">
      <!-- 50 -->
      <g transform="translate(130.55329 274.798437)scale(0.1 -0.1)">
       <use xlink:href="#DejaVuSans-53"/>
       <use x="63.623047" xlink:href="#DejaVuSans-48"/>
      </g>
     </g>
    </g>
    <g id="xtick_4">
     <g id="line2d_7">
      <path clip-path="url(#p2cee5e4dac)" d="M 182.723684 260.2 
L 182.723684 26.8 
" style="fill:none;stroke:#b0b0b0;stroke-linecap:square;stroke-width:0.8;"/>
     </g>
     <g id="line2d_8">
      <g>
       <use style="stroke:#000000;stroke-width:0.8;" x="182.723684" xlink:href="#m540c4c2828" y="260.2"/>
      </g>
     </g>
     <g id="text_4">
      <!-- 75 -->
      <defs>
       <path d="M 8.203125 72.90625 
L 55.078125 72.90625 
L 55.078125 68.703125 
L 28.609375 0 
L 18.3125 0 
L 43.21875 64.59375 
L 8.203125 64.59375 
z
" id="DejaVuSans-55"/>
      </defs>
      <g transform="translate(176.361184 274.798437)scale(0.1 -0.1)">
       <use xlink:href="#DejaVuSans-55"/>
       <use x="63.623047" xlink:href="#DejaVuSans-53"/>
      </g>
     </g>
    </g>
    <g id="xtick_5">
     <g id="line2d_9">
      <path clip-path="url(#p2cee5e4dac)" d="M 228.531579 260.2 
L 228.531579 26.8 
" style="fill:none;stroke:#b0b0b0;stroke-linecap:square;stroke-width:0.8;"/>
     </g>
     <g id="line2d_10">
      <g>
       <use style="stroke:#000000;stroke-width:0.8;" x="228.531579" xlink:href="#m540c4c2828" y="260.2"/>
      </g>
     </g>
     <g id="text_5">
      <!-- 100 -->
      <defs>
       <path d="M 12.40625 8.296875 
L 28.515625 8.296875 
L 28.515625 63.921875 
L 10.984375 60.40625 
L 10.984375 69.390625 
L 28.421875 72.90625 
L 38.28125 72.90625 
L 38.28125 8.296875 
L 54.390625 8.296875 
L 54.390625 0 
L 12.40625 0 
z
" id="DejaVuSans-49"/>
      </defs>
      <g transform="translate(218.987829 274.798437)scale(0.1 -0.1)">
       <use xlink:href="#DejaVuSans-49"/>
       <use x="63.623047" xlink:href="#DejaVuSans-48"/>
       <use x="127.246094" xlink:href="#DejaVuSans-48"/>
      </g>
     </g>
    </g>
    <g id="xtick_6">
     <g id="line2d_11">
      <path clip-path="url(#p2cee5e4dac)" d="M 274.339474 260.2 
L 274.339474 26.8 
" style="fill:none;stroke:#b0b0b0;stroke-linecap:square;stroke-width:0.8;"/>
     </g>
     <g id="line2d_12">
      <g>
       <use style="stroke:#000000;stroke-width:0.8;" x="274.339474" xlink:href="#m540c4c2828" y="260.2"/>
      </g>
     </g>
     <g id="text_6">
      <!-- 125 -->
      <g transform="translate(264.795724 274.798437)scale(0.1 -0.1)">
       <use xlink:href="#DejaVuSans-49"/>
       <use x="63.623047" xlink:href="#DejaVuSans-50"/>
       <use x="127.246094" xlink:href="#DejaVuSans-53"/>
      </g>
     </g>
    </g>
    <g id="xtick_7">
     <g id="line2d_13">
      <path clip-path="url(#p2cee5e4dac)" d="M 320.147369 260.2 
L 320.147369 26.8 
" style="fill:none;stroke:#b0b0b0;stroke-linecap:square;stroke-width:0.8;"/>
     </g>
     <g id="line2d_14">
      <g>
       <use style="stroke:#000000;stroke-width:0.8;" x="320.147369" xlink:href="#m540c4c2828" y="260.2"/>
      </g>
     </g>
     <g id="text_7">
      <!-- 150 -->
      <g transform="translate(310.603619 274.798437)scale(0.1 -0.1)">
       <use xlink:href="#DejaVuSans-49"/>
       <use x="63.623047" xlink:href="#DejaVuSans-53"/>
       <use x="127.246094" xlink:href="#DejaVuSans-48"/>
      </g>
     </g>
    </g>
    <g id="xtick_8">
     <g id="line2d_15">
      <path clip-path="url(#p2cee5e4dac)" d="M 365.955263 260.2 
L 365.955263 26.8 
" style="fill:none;stroke:#b0b0b0;stroke-linecap:square;stroke-width:0.8;"/>
     </g>
     <g id="line2d_16">
      <g>
       <use style="stroke:#000000;stroke-width:0.8;" x="365.955263" xlink:href="#m540c4c2828" y="260.2"/>
      </g>
     </g>
     <g id="text_8">
      <!-- 175 -->
      <g transform="translate(356.411513 274.798437)scale(0.1 -0.1)">
       <use xlink:href="#DejaVuSans-49"/>
       <use x="63.623047" xlink:href="#DejaVuSans-55"/>
       <use x="127.246094" xlink:href="#DejaVuSans-53"/>
      </g>
     </g>
    </g>
    <g id="xtick_9">
     <g id="line2d_17">
      <path clip-path="url(#p2cee5e4dac)" d="M 411.763158 260.2 
L 411.763158 26.8 
" style="fill:none;stroke:#b0b0b0;stroke-linecap:square;stroke-width:0.8;"/>
     </g>
     <g id="line2d_18">
      <g>
       <use style="stroke:#000000;stroke-width:0.8;" x="411.763158" xlink:href="#m540c4c2828" y="260.2"/>
      </g>
     </g>
     <g id="text_9">
      <!-- 200 -->
      <g transform="translate(402.219408 274.798437)scale(0.1 -0.1)">
       <use xlink:href="#DejaVuSans-50"/>
       <use x="63.623047" xlink:href="#DejaVuSans-48"/>
       <use x="127.246094" xlink:href="#DejaVuSans-48"/>
      </g>
     </g>
    </g>
   </g>
   <g id="matplotlib.axis_2">
    <g id="ytick_1">
     <g id="line2d_19">
      <path clip-path="url(#p2cee5e4dac)" d="M 45.3 260.2 
L 416.341657 260.2 
" style="fill:none;stroke:#b0b0b0;stroke-linecap:square;stroke-width:0.8;"/>
     </g>
     <g id="line2d_20">
      <defs>
       <path d="M 0 0 
L -3.5 0 
" id="m19b4dfbcbd" style="stroke:#000000;stroke-width:0.8;"/>
      </defs>
      <g>
       <use style="stroke:#000000;stroke-width:0.8;" x="45.3" xlink:href="#m19b4dfbcbd" y="260.2"/>
      </g>
     </g>
     <g id="text_10">
      <!-- 0 -->
      <g transform="translate(31.9375 263.999219)scale(0.1 -0.1)">
       <use xlink:href="#DejaVuSans-48"/>
      </g>
     </g>
    </g>
    <g id="ytick_2">
     <g id="line2d_21">
      <path clip-path="url(#p2cee5e4dac)" d="M 45.3 216.4375 
L 416.341657 216.4375 
" style="fill:none;stroke:#b0b0b0;stroke-linecap:square;stroke-width:0.8;"/>
     </g>
     <g id="line2d_22">
      <g>
       <use style="stroke:#000000;stroke-width:0.8;" x="45.3" xlink:href="#m19b4dfbcbd" y="216.4375"/>
      </g>
     </g>
     <g id="text_11">
      <!-- 500 -->
      <g transform="translate(19.2125 220.236719)scale(0.1 -0.1)">
       <use xlink:href="#DejaVuSans-53"/>
       <use x="63.623047" xlink:href="#DejaVuSans-48"/>
       <use x="127.246094" xlink:href="#DejaVuSans-48"/>
      </g>
     </g>
    </g>
    <g id="ytick_3">
     <g id="line2d_23">
      <path clip-path="url(#p2cee5e4dac)" d="M 45.3 172.675 
L 416.341657 172.675 
" style="fill:none;stroke:#b0b0b0;stroke-linecap:square;stroke-width:0.8;"/>
     </g>
     <g id="line2d_24">
      <g>
       <use style="stroke:#000000;stroke-width:0.8;" x="45.3" xlink:href="#m19b4dfbcbd" y="172.675"/>
      </g>
     </g>
     <g id="text_12">
      <!-- 1 000 -->
      <defs>
       <path id="DejaVuSans-8201"/>
      </defs>
      <g transform="translate(10.853125 176.474219)scale(0.1 -0.1)">
       <use xlink:href="#DejaVuSans-49"/>
       <use x="63.623047" xlink:href="#DejaVuSans-8201"/>
       <use x="83.59375" xlink:href="#DejaVuSans-48"/>
       <use x="147.216797" xlink:href="#DejaVuSans-48"/>
       <use x="210.839844" xlink:href="#DejaVuSans-48"/>
      </g>
     </g>
    </g>
    <g id="ytick_4">
     <g id="line2d_25">
      <path clip-path="url(#p2cee5e4dac)" d="M 45.3 128.9125 
L 416.341657 128.9125 
" style="fill:none;stroke:#b0b0b0;stroke-linecap:square;stroke-width:0.8;"/>
     </g>
     <g id="line2d_26">
      <g>
       <use style="stroke:#000000;stroke-width:0.8;" x="45.3" xlink:href="#m19b4dfbcbd" y="128.9125"/>
      </g>
     </g>
     <g id="text_13">
      <!-- 1 500 -->
      <g transform="translate(10.853125 132.711719)scale(0.1 -0.1)">
       <use xlink:href="#DejaVuSans-49"/>
       <use x="63.623047" xlink:href="#DejaVuSans-8201"/>
       <use x="83.59375" xlink:href="#DejaVuSans-53"/>
       <use x="147.216797" xlink:href="#DejaVuSans-48"/>
       <use x="210.839844" xlink:href="#DejaVuSans-48"/>
      </g>
     </g>
    </g>
    <g id="ytick_5">
     <g id="line2d_27">
      <path clip-path="url(#p2cee5e4dac)" d="M 45.3 85.15 
L 416.341657 85.15 
" style="fill:none;stroke:#b0b0b0;stroke-linecap:square;stroke-width:0.8;"/>
     </g>
     <g id="line2d_28">
      <g>
       <use style="stroke:#000000;stroke-width:0.8;" x="45.3" xlink:href="#m19b4dfbcbd" y="85.15"/>
      </g>
     </g>
     <g id="text_14">
      <!-- 2 000 -->
      <g transform="translate(10.853125 88.949219)scale(0.1 -0.1)">
       <use xlink:href="#DejaVuSans-50"/>
       <use x="63.623047" xlink:href="#DejaVuSans-8201"/>
       <use x="83.59375" xlink:href="#DejaVuSans-48"/>
       <use x="147.216797" xlink:href="#DejaVuSans-48"/>
       <use x="210.839844" xlink:href="#DejaVuSans-48"/>
      </g>
     </g>
    </g>
    <g id="ytick_6">
     <g id="line2d_29">
      <path clip-path="url(#p2cee5e4dac)" d="M 45.3 41.3875 
L 416.341657 41.3875 
" style="fill:none;stroke:#b0b0b0;stroke-linecap:square;stroke-width:0.8;"/>
     </g>
     <g id="line2d_30">
      <g>
       <use style="stroke:#000000;stroke-width:0.8;" x="45.3" xlink:href="#m19b4dfbcbd" y="41.3875"/>
      </g>
     </g>
     <g id="text_15">
      <!-- 2 500 -->
      <g transform="translate(10.853125 45.186719)scale(0.1 -0.1)">
       <use xlink:href="#DejaVuSans-50"/>
       <use x="63.623047" xlink:href="#DejaVuSans-8201"/>
       <use x="83.59375" xlink:href="#DejaVuSans-53"/>
       <use x="147.216797" xlink:href="#DejaVuSans-48"/>
       <use x="210.839844" xlink:href="#DejaVuSans-48"/>
      </g>
     </g>
    </g>
   </g>
   <g id="line2d_31">
    <path clip-path="url(#p2cee5e4dac)" d="M 46.262332 260.112475 
L 411.626101 172.85005 
L 411.626101 172.85005 
" style="fill:none;stroke:#1f77b4;stroke-linecap:square;stroke-width:1.5;"/>
   </g>
   <g id="line2d_32">
    <path clip-path="url(#p2cee5e4dac)" d="M 45.483232 260.112475 
L 411.763158 85.15 
L 411.763158 85.15 
" style="fill:none;stroke:#ff7f0e;stroke-linecap:square;stroke-width:1.5;"/>
   </g>
   <g id="line2d_33">
    <path clip-path="url(#p2cee5e4dac)" d="M 45.483232 260.2 
L 45.483232 260.112475 
L 45.483232 260.2 
L 120.974642 260.112475 
L 120.974642 260.02495 
L 121.021425 260.112475 
L 121.8908 260.02495 
L 121.8908 259.937425 
L 121.94577 260.02495 
L 122.440495 259.937425 
L 122.440495 259.8499 
L 122.458818 259.937425 
L 123.173421 259.8499 
L 123.173421 259.762375 
L 123.246714 259.8499 
L 123.723116 259.762375 
L 123.723116 259.67485 
L 123.796408 259.762375 
L 124.272811 259.67485 
L 124.272811 259.587325 
L 124.38275 259.67485 
L 124.639274 259.587325 
L 124.639274 259.4998 
L 124.67592 259.587325 
L 125.188968 259.4998 
L 125.188968 259.412275 
L 125.262261 259.4998 
L 125.738663 259.412275 
L 125.738663 259.32475 
L 125.848602 259.412275 
L 126.288358 259.32475 
L 126.288358 259.237225 
L 126.325004 259.32475 
L 129.95299 259.237225 
L 129.95299 259.1497 
L 129.989636 259.237225 
L 130.869147 259.1497 
L 130.869147 259.062175 
L 130.924117 259.1497 
L 131.602074 259.062175 
L 131.602074 258.97465 
L 131.657043 259.062175 
L 132.151768 258.97465 
L 132.151768 258.887125 
L 132.24492 258.97465 
L 132.884695 258.887125 
L 132.884695 258.7996 
L 132.976311 258.887125 
L 133.43439 258.7996 
L 133.43439 258.712075 
L 133.544328 258.7996 
L 133.800853 258.712075 
L 133.800853 258.62455 
L 133.848258 258.712075 
L 134.350547 258.62455 
L 134.350547 258.537025 
L 134.442163 258.62455 
L 134.717011 258.537025 
L 134.717011 258.4495 
L 134.764416 258.537025 
L 135.266705 258.4495 
L 135.266705 258.361975 
L 135.999632 258.27445 
L 135.999632 258.186925 
L 136.054601 258.27445 
L 136.366095 258.186925 
L 136.366095 258.0994 
L 136.402741 258.186925 
L 136.732558 258.0994 
L 136.732558 258.011875 
L 136.825772 258.0994 
L 137.282253 258.011875 
L 137.282253 257.92435 
L 137.28385 257.92435 
L 138.015179 257.836825 
L 138.015179 257.7493 
L 138.564874 257.661775 
L 138.564874 257.57425 
L 138.658087 257.661775 
L 138.931337 257.57425 
L 138.931337 257.486725 
L 138.986306 257.57425 
L 139.2978 257.486725 
L 139.2978 257.3992 
L 139.389416 257.486725 
L 139.664263 257.3992 
L 139.664263 257.311675 
L 140.39719 257.22415 
L 140.39719 257.136625 
L 140.490403 257.136625 
L 140.946884 257.0491 
L 140.946884 256.961575 
L 140.948482 256.961575 
L 141.496579 256.87405 
L 141.496579 256.786525 
L 141.514902 256.87405 
L 141.863042 256.786525 
L 141.863042 256.699 
L 141.972981 256.786525 
L 142.229505 256.699 
L 142.229505 256.611475 
L 142.322719 256.611475 
L 142.7792 256.52395 
L 142.7792 256.436425 
L 142.780798 256.436425 
L 143.328895 256.3489 
L 143.328895 256.261375 
L 143.383864 256.3489 
L 143.695358 256.261375 
L 143.695358 256.17385 
L 143.696956 256.17385 
L 144.245053 256.086325 
L 144.245053 255.9988 
L 144.794747 255.911275 
L 144.794747 255.82375 
L 144.886363 255.911275 
L 145.161211 255.82375 
L 145.161211 255.736225 
L 145.710905 255.6487 
L 145.710905 255.561175 
L 145.758311 255.561175 
L 146.2606 255.47365 
L 146.2606 255.386125 
L 146.810295 255.2986 
L 146.810295 255.211075 
L 146.903508 255.211075 
L 147.35999 255.12355 
L 147.35999 255.036025 
L 147.361587 255.036025 
L 147.909684 254.9485 
L 147.909684 254.860975 
L 148.459379 254.77345 
L 148.459379 254.685925 
L 148.506785 254.685925 
L 149.009074 254.5984 
L 149.009074 254.510875 
L 149.558769 254.42335 
L 149.558769 254.335825 
L 149.651982 254.335825 
L 150.108463 254.2483 
L 150.108463 254.160775 
L 150.110061 254.160775 
L 150.474926 254.07325 
L 150.474926 253.985725 
L 150.56814 254.07325 
L 150.84139 253.985725 
L 150.84139 253.8982 
L 151.391084 253.810675 
L 151.391084 253.72315 
L 151.484298 253.72315 
L 151.757547 253.635625 
L 151.757547 253.5481 
L 151.812517 253.635625 
L 152.124011 253.5481 
L 152.124011 253.460575 
L 152.171416 253.460575 
L 152.673705 253.37305 
L 152.673705 253.285525 
L 153.040169 253.198 
L 153.040169 253.110475 
L 153.150107 253.198 
L 153.406632 253.110475 
L 153.406632 253.02295 
L 153.773095 252.935425 
L 153.773095 252.8479 
L 153.828064 252.935425 
L 154.139558 252.8479 
L 154.139558 252.760375 
L 154.232772 252.760375 
L 154.506021 252.67285 
L 154.506021 252.585325 
L 154.524344 252.67285 
L 154.872484 252.585325 
L 154.872484 252.4978 
L 154.91989 252.4978 
L 155.422179 252.410275 
L 155.422179 252.32275 
L 155.788642 252.235225 
L 155.788642 252.1477 
L 155.836048 252.1477 
L 156.338337 252.060175 
L 156.338337 251.97265 
L 156.888032 251.885125 
L 156.888032 251.7976 
L 156.981245 251.7976 
L 157.254495 251.710075 
L 157.254495 251.62255 
L 157.80419 251.535025 
L 157.80419 251.4475 
L 157.897403 251.4475 
L 158.170653 251.359975 
L 158.170653 251.27245 
L 158.225622 251.359975 
L 158.537116 251.27245 
L 158.537116 251.184925 
L 158.584522 251.184925 
L 158.903579 251.0974 
L 158.903579 251.009875 
L 159.013518 251.0974 
L 159.270042 251.009875 
L 159.270042 250.92235 
L 159.27164 250.92235 
L 159.636505 250.834825 
L 159.636505 250.7473 
L 159.729719 250.7473 
L 160.1862 250.659775 
L 160.1862 250.57225 
L 160.187798 250.57225 
L 160.552663 250.484725 
L 160.552663 250.3972 
L 160.645877 250.484725 
L 160.919126 250.3972 
L 160.919126 250.309675 
L 161.28559 250.22215 
L 161.28559 250.134625 
L 161.332995 250.134625 
L 161.835284 250.0471 
L 161.835284 249.959575 
L 162.201747 249.87205 
L 162.201747 249.784525 
L 162.311686 249.87205 
L 162.568211 249.784525 
L 162.568211 249.697 
L 162.934674 249.609475 
L 162.934674 249.52195 
L 162.936272 249.52195 
L 163.484369 249.434425 
L 163.484369 249.3469 
L 163.850832 249.259375 
L 163.850832 249.17185 
L 163.852429 249.17185 
L 164.400526 249.084325 
L 164.400526 248.9968 
L 164.76699 248.909275 
L 164.76699 248.82175 
L 164.768587 248.82175 
L 165.316684 248.734225 
L 165.316684 248.6467 
L 165.683147 248.559175 
L 165.683147 248.47165 
L 166.232842 248.384125 
L 166.232842 248.2966 
L 166.279442 248.2966 
L 166.599305 248.209075 
L 166.599305 248.12155 
L 167.149 248.034025 
L 167.149 247.9465 
L 167.213923 247.9465 
L 167.515463 247.858975 
L 167.515463 247.77145 
L 168.065158 247.683925 
L 168.065158 247.5964 
L 168.166727 247.5964 
L 168.431621 247.508875 
L 168.431621 247.42135 
L 168.981316 247.333825 
L 168.981316 247.2463 
L 169.347779 247.158775 
L 169.347779 247.07125 
L 169.897474 246.983725 
L 169.897474 246.8962 
L 170.263937 246.808675 
L 170.263937 246.72115 
L 170.6304 246.633625 
L 170.6304 246.5461 
L 170.722016 246.633625 
L 170.996863 246.5461 
L 170.996863 246.458575 
L 171.363326 246.37105 
L 171.363326 246.283525 
L 171.72979 246.196 
L 171.72979 246.108475 
L 171.748113 246.196 
L 172.096253 246.108475 
L 172.096253 246.02095 
L 172.161175 246.02095 
L 172.462716 245.933425 
L 172.462716 245.8459 
L 173.012411 245.758375 
L 173.012411 245.67085 
L 173.378874 245.583325 
L 173.378874 245.4958 
L 173.745337 245.408275 
L 173.745337 245.32075 
L 173.855276 245.408275 
L 174.1118 245.32075 
L 174.1118 245.233225 
L 174.478263 245.1457 
L 174.478263 245.058175 
L 174.844726 244.97065 
L 174.844726 244.883125 
L 174.936342 244.97065 
L 175.21119 244.883125 
L 175.21119 244.7956 
L 175.577653 244.708075 
L 175.577653 244.62055 
L 175.944116 244.533025 
L 175.944116 244.4455 
L 176.035732 244.533025 
L 176.310579 244.4455 
L 176.310579 244.357975 
L 176.677042 244.27045 
L 176.677042 244.182925 
L 177.043505 244.0954 
L 177.043505 244.007875 
L 177.153444 244.0954 
L 177.409969 244.007875 
L 177.409969 243.92035 
L 177.776432 243.832825 
L 177.776432 243.7453 
L 178.142895 243.657775 
L 178.142895 243.57025 
L 178.69259 243.482725 
L 178.69259 243.3952 
L 178.702543 243.3952 
L 179.059053 243.307675 
L 179.059053 243.22015 
L 179.425516 243.132625 
L 179.425516 243.0451 
L 179.443839 243.132625 
L 179.791979 243.0451 
L 179.791979 242.957575 
L 179.856902 242.957575 
L 180.158442 242.87005 
L 180.158442 242.782525 
L 180.524905 242.695 
L 180.524905 242.607475 
L 180.616521 242.695 
L 180.891369 242.607475 
L 180.891369 242.51995 
L 181.257832 242.432425 
L 181.257832 242.3449 
L 181.624295 242.257375 
L 181.624295 242.16985 
L 182.17399 242.082325 
L 182.17399 241.9948 
L 182.220589 241.9948 
L 182.540453 241.907275 
L 182.540453 241.81975 
L 182.906916 241.732225 
L 182.906916 241.6447 
L 183.016855 241.732225 
L 183.273379 241.6447 
L 183.273379 241.557175 
L 183.639842 241.46965 
L 183.639842 241.382125 
L 184.006305 241.2946 
L 184.006305 241.207075 
L 184.556 241.11955 
L 184.556 241.032025 
L 184.657569 241.032025 
L 184.922463 240.9445 
L 184.922463 240.856975 
L 185.288926 240.76945 
L 185.288926 240.681925 
L 185.838621 240.5944 
L 185.838621 240.506875 
L 185.903544 240.506875 
L 186.205084 240.41935 
L 186.205084 240.331825 
L 186.571547 240.2443 
L 186.571547 240.156775 
L 187.121242 240.06925 
L 187.121242 239.981725 
L 187.167842 239.981725 
L 187.487705 239.8942 
L 187.487705 239.806675 
L 187.854169 239.71915 
L 187.854169 239.631625 
L 188.403863 239.5441 
L 188.403863 239.456575 
L 188.450463 239.456575 
L 188.770326 239.36905 
L 188.770326 239.281525 
L 189.13679 239.194 
L 189.13679 239.106475 
L 189.686484 239.01895 
L 189.686484 238.931425 
L 189.751407 238.931425 
L 190.052947 238.8439 
L 190.052947 238.756375 
L 190.419411 238.66885 
L 190.419411 238.581325 
L 190.969105 238.4938 
L 190.969105 238.406275 
L 191.070674 238.406275 
L 191.335569 238.31875 
L 191.335569 238.231225 
L 191.702032 238.1437 
L 191.702032 238.056175 
L 192.251726 237.96865 
L 192.251726 237.881125 
L 192.61819 237.7936 
L 192.61819 237.706075 
L 192.984653 237.61855 
L 192.984653 237.531025 
L 193.534347 237.4435 
L 193.534347 237.355975 
L 193.900811 237.26845 
L 193.900811 237.180925 
L 194.267274 237.0934 
L 194.267274 237.005875 
L 194.633737 236.91835 
L 194.633737 236.830825 
L 194.725353 236.91835 
L 195.0002 236.830825 
L 195.0002 236.7433 
L 195.366663 236.655775 
L 195.366663 236.56825 
L 195.733126 236.480725 
L 195.733126 236.3932 
L 196.09959 236.305675 
L 196.09959 236.21815 
L 196.117913 236.305675 
L 196.466053 236.21815 
L 196.466053 236.130625 
L 196.832516 236.0431 
L 196.832516 235.955575 
L 197.198979 235.86805 
L 197.198979 235.780525 
L 197.748674 235.693 
L 197.748674 235.605475 
L 198.115137 235.51795 
L 198.115137 235.430425 
L 198.4816 235.3429 
L 198.4816 235.255375 
L 198.848063 235.16785 
L 198.848063 235.080325 
L 198.866386 235.16785 
L 199.214526 235.080325 
L 199.214526 234.9928 
L 199.58099 234.905275 
L 199.58099 234.81775 
L 199.947453 234.730225 
L 199.947453 234.6427 
L 200.039069 234.730225 
L 200.313916 234.6427 
L 200.313916 234.555175 
L 200.680379 234.46765 
L 200.680379 234.380125 
L 201.046842 234.2926 
L 201.046842 234.205075 
L 201.083489 234.2926 
L 201.413305 234.205075 
L 201.413305 234.11755 
L 201.779769 234.030025 
L 201.779769 233.9425 
L 202.329463 233.854975 
L 202.329463 233.76745 
L 202.695926 233.679925 
L 202.695926 233.5924 
L 202.805865 233.679925 
L 203.06239 233.5924 
L 203.06239 233.504875 
L 203.428853 233.41735 
L 203.428853 233.329825 
L 203.520469 233.41735 
L 203.795316 233.329825 
L 203.795316 233.2423 
L 204.345011 233.154775 
L 204.345011 233.06725 
L 204.894705 232.979725 
L 204.894705 232.8922 
L 205.4444 232.804675 
L 205.4444 232.71715 
L 206.177326 232.629625 
L 206.177326 232.5421 
L 206.213973 232.629625 
L 218.087379 232.5421 
L 218.087379 232.454575 
L 218.124025 232.5421 
L 219.003537 232.454575 
L 219.003537 232.36705 
L 219.02186 232.454575 
L 219.919695 232.36705 
L 219.919695 232.279525 
L 219.992988 232.36705 
L 220.46939 232.279525 
L 220.46939 232.192 
L 220.506036 232.279525 
L 221.019084 232.192 
L 221.019084 232.104475 
L 221.065684 232.192 
L 221.568779 232.104475 
L 221.568779 232.01695 
L 221.587102 232.104475 
L 222.118474 232.01695 
L 222.118474 231.929425 
L 222.210881 232.01695 
L 222.668169 231.929425 
L 222.668169 231.8419 
L 222.778108 231.929425 
L 223.034632 231.8419 
L 223.034632 231.754375 
L 223.127039 231.8419 
L 223.584326 231.754375 
L 223.584326 231.66685 
L 223.585118 231.66685 
L 224.317253 231.579325 
L 224.317253 231.4918 
L 224.390545 231.579325 
L 224.683716 231.4918 
L 224.683716 231.404275 
L 224.738685 231.4918 
L 225.050179 231.404275 
L 225.050179 231.31675 
L 225.086825 231.404275 
L 225.416642 231.31675 
L 225.416642 231.229225 
L 225.434965 231.31675 
L 225.783105 231.229225 
L 225.783105 231.1417 
L 225.875513 231.229225 
L 226.149569 231.1417 
L 226.149569 231.054175 
L 226.167892 231.1417 
L 226.516032 231.054175 
L 226.516032 230.96665 
L 226.562631 231.054175 
L 226.882495 230.96665 
L 226.882495 230.879125 
L 226.937464 230.96665 
L 227.248958 230.879125 
L 227.248958 230.7916 
L 227.322251 230.879125 
L 227.615421 230.7916 
L 227.615421 230.704075 
L 227.72536 230.7916 
L 227.981884 230.704075 
L 227.981884 230.61655 
L 228.531579 230.529025 
L 228.531579 230.4415 
L 228.623986 230.529025 
L 228.898042 230.4415 
L 228.898042 230.353975 
L 228.971335 230.4415 
L 229.264505 230.353975 
L 229.264505 230.26645 
L 229.8142 230.178925 
L 229.8142 230.0914 
L 229.850846 230.178925 
L 230.180663 230.0914 
L 230.180663 230.003875 
L 230.263909 230.003875 
L 230.730358 229.91635 
L 230.730358 229.828825 
L 230.767004 229.91635 
L 231.096821 229.828825 
L 231.096821 229.7413 
L 231.180067 229.7413 
L 231.646516 229.653775 
L 231.646516 229.56625 
L 231.701485 229.653775 
L 232.012979 229.56625 
L 232.012979 229.478725 
L 232.114548 229.478725 
L 232.562674 229.3912 
L 232.562674 229.303675 
L 232.672613 229.3912 
L 232.929137 229.303675 
L 232.929137 229.21615 
L 233.478832 229.128625 
L 233.478832 229.0411 
L 233.580401 229.0411 
L 234.028526 228.953575 
L 234.028526 228.86605 
L 234.093449 228.86605 
L 234.578221 228.778525 
L 234.578221 228.691 
L 234.606498 228.691 
L 235.127916 228.603475 
L 235.127916 228.51595 
L 235.137869 228.51595 
L 235.677611 228.428425 
L 235.677611 228.3409 
L 236.227305 228.253375 
L 236.227305 228.16585 
L 236.777 228.078325 
L 236.777 227.9908 
L 237.326695 227.903275 
L 237.326695 227.81575 
L 237.336648 227.81575 
L 237.87639 227.728225 
L 237.87639 227.6407 
L 237.904666 227.6407 
L 238.426084 227.553175 
L 238.426084 227.46565 
L 238.491007 227.46565 
L 238.975779 227.378125 
L 238.975779 227.2906 
L 239.077348 227.2906 
L 239.525474 227.203075 
L 239.525474 227.11555 
L 240.075169 227.028025 
L 240.075169 226.9405 
L 240.441632 226.852975 
L 240.441632 226.76545 
L 240.496601 226.852975 
L 240.808095 226.76545 
L 240.808095 226.677925 
L 240.909664 226.677925 
L 241.35779 226.5904 
L 241.35779 226.502875 
L 241.724253 226.41535 
L 241.724253 226.327825 
L 241.760899 226.41535 
L 242.090716 226.327825 
L 242.090716 226.2403 
L 242.173962 226.2403 
L 242.640411 226.152775 
L 242.640411 226.06525 
L 243.006874 225.977725 
L 243.006874 225.8902 
L 243.061843 225.977725 
L 243.373337 225.8902 
L 243.373337 225.802675 
L 243.474906 225.802675 
L 243.923032 225.71515 
L 243.923032 225.627625 
L 244.289495 225.5401 
L 244.289495 225.452575 
L 244.399434 225.5401 
L 244.655958 225.452575 
L 244.655958 225.36505 
L 245.022421 225.277525 
L 245.022421 225.19 
L 245.077391 225.277525 
L 245.388884 225.19 
L 245.388884 225.102475 
L 245.490453 225.102475 
L 245.755348 225.01495 
L 245.755348 224.927425 
L 245.773671 225.01495 
L 246.121811 224.927425 
L 246.121811 224.8399 
L 246.186733 224.8399 
L 246.671505 224.752375 
L 246.671505 224.66485 
L 247.037969 224.577325 
L 247.037969 224.4898 
L 247.587663 224.402275 
L 247.587663 224.31475 
L 247.597616 224.31475 
L 248.137358 224.227225 
L 248.137358 224.1397 
L 248.503821 224.052175 
L 248.503821 223.96465 
L 249.053516 223.877125 
L 249.053516 223.7896 
L 249.603211 223.702075 
L 249.603211 223.61455 
L 249.969674 223.527025 
L 249.969674 223.4395 
L 250.519369 223.351975 
L 250.519369 223.26445 
L 251.069063 223.176925 
L 251.069063 223.0894 
L 251.435526 223.001875 
L 251.435526 222.91435 
L 251.985221 222.826825 
L 251.985221 222.7393 
L 252.534916 222.651775 
L 252.534916 222.56425 
L 253.084611 222.476725 
L 253.084611 222.3892 
L 253.634305 222.301675 
L 253.634305 222.21415 
L 254.367232 222.126625 
L 254.367232 222.0391 
L 254.440524 222.126625 
L 258.581558 222.0391 
L 258.581558 221.951575 
L 258.599881 222.0391 
L 260.047411 221.951575 
L 260.047411 221.86405 
L 260.14898 221.951575 
L 260.963569 221.86405 
L 260.963569 221.776525 
L 261.065138 221.86405 
L 261.696495 221.776525 
L 261.696495 221.689 
L 261.752256 221.776525 
L 262.24619 221.689 
L 262.24619 221.601475 
L 262.282836 221.689 
L 262.795884 221.601475 
L 262.795884 221.51395 
L 262.897453 221.601475 
L 263.345579 221.51395 
L 263.345579 221.426425 
L 263.400549 221.51395 
L 263.895274 221.426425 
L 263.895274 221.3389 
L 263.98689 221.426425 
L 264.261737 221.3389 
L 264.261737 221.251375 
L 264.298383 221.3389 
L 264.811432 221.251375 
L 264.811432 221.16385 
L 264.921371 221.251375 
L 265.177895 221.16385 
L 265.177895 221.076325 
L 265.251188 221.16385 
L 265.544358 221.076325 
L 265.544358 220.9888 
L 265.645927 221.076325 
L 266.094053 220.9888 
L 266.094053 220.901275 
L 266.104006 220.901275 
L 266.826979 220.81375 
L 266.826979 220.726225 
L 267.559905 220.6387 
L 267.559905 220.551175 
L 268.292832 220.46365 
L 268.292832 220.376125 
L 269.025758 220.2886 
L 269.025758 220.201075 
L 269.575453 220.11355 
L 269.575453 220.026025 
L 269.622052 220.11355 
L 269.941916 220.026025 
L 269.941916 219.9385 
L 270.025162 220.026025 
L 270.308379 219.9385 
L 270.308379 219.850975 
L 270.418318 219.9385 
L 270.674842 219.850975 
L 270.674842 219.76345 
L 271.224537 219.675925 
L 271.224537 219.5884 
L 271.261183 219.675925 
L 271.591 219.5884 
L 271.591 219.500875 
L 271.700939 219.5884 
L 271.957463 219.500875 
L 271.957463 219.41335 
L 272.507158 219.325825 
L 272.507158 219.2383 
L 272.580451 219.325825 
L 272.873621 219.2383 
L 272.873621 219.150775 
L 273.423316 219.06325 
L 273.423316 218.975725 
L 273.496609 219.06325 
L 273.789779 218.975725 
L 273.789779 218.8882 
L 274.339474 218.800675 
L 274.339474 218.71315 
L 274.43109 218.800675 
L 274.705937 218.71315 
L 274.705937 218.625625 
L 275.255632 218.5381 
L 275.255632 218.450575 
L 275.320554 218.450575 
L 275.805327 218.36305 
L 275.805327 218.275525 
L 275.896942 218.36305 
L 276.17179 218.275525 
L 276.17179 218.188 
L 276.721484 218.100475 
L 276.721484 218.01295 
L 276.823053 218.01295 
L 277.271179 217.925425 
L 277.271179 217.8379 
L 277.336102 217.8379 
L 277.820874 217.750375 
L 277.820874 217.66285 
L 277.867473 217.66285 
L 278.370569 217.575325 
L 278.370569 217.4878 
L 278.398845 217.4878 
L 278.920263 217.400275 
L 278.920263 217.31275 
L 278.94854 217.31275 
L 279.469958 217.225225 
L 279.469958 217.1377 
L 279.498234 217.1377 
L 280.019653 217.050175 
L 280.019653 216.96265 
L 280.066252 216.96265 
L 280.569348 216.875125 
L 280.569348 216.7876 
L 280.63427 216.7876 
L 281.119042 216.700075 
L 281.119042 216.61255 
L 281.220611 216.61255 
L 281.668737 216.525025 
L 281.668737 216.4375 
L 282.218432 216.349975 
L 282.218432 216.26245 
L 282.584895 216.174925 
L 282.584895 216.0874 
L 282.603218 216.174925 
L 282.951358 216.0874 
L 282.951358 215.999875 
L 283.016281 215.999875 
L 283.501053 215.91235 
L 283.501053 215.824825 
L 284.050748 215.7373 
L 284.050748 215.649775 
L 284.417211 215.56225 
L 284.417211 215.474725 
L 284.490503 215.56225 
L 284.783674 215.474725 
L 284.783674 215.3872 
L 285.333369 215.299675 
L 285.333369 215.21215 
L 285.699832 215.124625 
L 285.699832 215.0371 
L 285.791448 215.124625 
L 286.066295 215.0371 
L 286.066295 214.949575 
L 286.432758 214.86205 
L 286.432758 214.774525 
L 286.451081 214.86205 
L 286.799221 214.774525 
L 286.799221 214.687 
L 287.348916 214.599475 
L 287.348916 214.51195 
L 287.715379 214.424425 
L 287.715379 214.3369 
L 287.806995 214.424425 
L 288.081842 214.3369 
L 288.081842 214.249375 
L 288.448305 214.16185 
L 288.448305 214.074325 
L 288.484952 214.16185 
L 288.814769 214.074325 
L 288.814769 213.9868 
L 289.364463 213.899275 
L 289.364463 213.81175 
L 289.914158 213.724225 
L 289.914158 213.6367 
L 290.463853 213.549175 
L 290.463853 213.46165 
L 290.482176 213.549175 
L 291.013548 213.46165 
L 291.013548 213.374125 
L 291.105163 213.46165 
L 294.678179 213.374125 
L 294.678179 213.2866 
L 294.73394 213.374125 
L 296.144032 213.2866 
L 296.144032 213.199075 
L 296.180678 213.2866 
L 296.876958 213.199075 
L 296.876958 213.11155 
L 296.895281 213.199075 
L 297.609884 213.11155 
L 297.609884 213.024025 
L 297.711453 213.11155 
L 298.342811 213.024025 
L 298.342811 212.9365 
L 298.434427 213.024025 
L 298.892505 212.9365 
L 298.892505 212.848975 
L 298.984121 212.9365 
L 299.258969 212.848975 
L 299.258969 212.76145 
L 299.31473 212.848975 
L 299.808663 212.76145 
L 299.808663 212.673925 
L 299.863633 212.76145 
L 300.358358 212.673925 
L 300.358358 212.5864 
L 300.459927 212.5864 
L 301.091284 212.498875 
L 301.091284 212.41135 
L 301.147045 212.498875 
L 301.640979 212.41135 
L 301.640979 212.323825 
L 302.373905 212.2363 
L 302.373905 212.148775 
L 302.483844 212.2363 
L 302.740369 212.148775 
L 302.740369 212.06125 
L 302.831984 212.148775 
L 303.106832 212.06125 
L 303.106832 211.973725 
L 303.198448 212.06125 
L 303.473295 211.973725 
L 303.473295 211.8862 
L 303.564911 211.973725 
L 303.839758 211.8862 
L 303.839758 211.798675 
L 303.931374 211.8862 
L 304.206221 211.798675 
L 304.206221 211.71115 
L 304.31616 211.798675 
L 304.572684 211.71115 
L 304.572684 211.623625 
L 305.305611 211.5361 
L 305.305611 211.448575 
L 305.855305 211.36105 
L 305.855305 211.273525 
L 305.901905 211.36105 
L 306.221769 211.273525 
L 306.221769 211.186 
L 306.305014 211.273525 
L 306.588232 211.186 
L 306.588232 211.098475 
L 307.321158 211.01095 
L 307.321158 210.923425 
L 307.870853 210.8359 
L 307.870853 210.748375 
L 308.420548 210.66085 
L 308.420548 210.573325 
L 308.457194 210.66085 
L 308.787011 210.573325 
L 308.787011 210.4858 
L 308.870257 210.4858 
L 309.336705 210.398275 
L 309.336705 210.31075 
L 309.373352 210.398275 
L 309.703169 210.31075 
L 309.703169 210.223225 
L 309.786414 210.223225 
L 310.252863 210.1357 
L 310.252863 210.048175 
L 310.307833 210.1357 
L 310.619327 210.048175 
L 310.619327 209.96065 
L 310.720895 209.96065 
L 311.169021 209.873125 
L 311.169021 209.7856 
L 311.27896 209.873125 
L 311.535484 209.7856 
L 311.535484 209.698075 
L 312.085179 209.61055 
L 312.085179 209.523025 
L 312.186748 209.523025 
L 312.634874 209.4355 
L 312.634874 209.347975 
L 312.699797 209.347975 
L 313.184569 209.26045 
L 313.184569 209.172925 
L 313.212845 209.172925 
L 313.734263 209.0854 
L 313.734263 208.997875 
L 313.744217 208.997875 
L 314.283958 208.91035 
L 314.283958 208.822825 
L 314.833653 208.7353 
L 314.833653 208.647775 
L 315.383348 208.56025 
L 315.383348 208.472725 
L 315.933042 208.3852 
L 315.933042 208.297675 
L 315.942995 208.297675 
L 316.482737 208.21015 
L 316.482737 208.122625 
L 316.511013 208.122625 
L 317.032432 208.0351 
L 317.032432 207.947575 
L 317.097354 207.947575 
L 317.582127 207.86005 
L 317.582127 207.772525 
L 317.683695 207.772525 
L 318.131821 207.685 
L 318.131821 207.597475 
L 318.681516 207.50995 
L 318.681516 207.422425 
L 319.047979 207.3349 
L 319.047979 207.247375 
L 319.102949 207.3349 
L 319.414442 207.247375 
L 319.414442 207.15985 
L 319.516011 207.15985 
L 319.964137 207.072325 
L 319.964137 206.9848 
L 320.3306 206.897275 
L 320.3306 206.80975 
L 320.367247 206.897275 
L 320.697063 206.80975 
L 320.697063 206.722225 
L 320.780309 206.722225 
L 321.246758 206.6347 
L 321.246758 206.547175 
L 321.613221 206.45965 
L 321.613221 206.372125 
L 321.668191 206.45965 
L 321.979684 206.372125 
L 321.979684 206.2846 
L 322.529379 206.197075 
L 322.529379 206.10955 
L 322.895842 206.022025 
L 322.895842 205.9345 
L 322.987458 206.022025 
L 323.262305 205.9345 
L 323.262305 205.846975 
L 323.812 205.75945 
L 323.812 205.671925 
L 324.361695 205.5844 
L 324.361695 205.496875 
L 324.91139 205.40935 
L 324.91139 205.321825 
L 324.966359 205.40935 
L 325.277853 205.321825 
L 325.277853 205.2343 
L 325.296176 205.321825 
L 328.39279 205.2343 
L 328.39279 205.146775 
L 328.411113 205.2343 
L 329.858642 205.146775 
L 329.858642 205.05925 
L 329.895289 205.146775 
L 330.591569 205.05925 
L 330.591569 204.971725 
L 330.609892 205.05925 
L 331.324495 204.971725 
L 331.324495 204.8842 
L 331.361141 204.971725 
L 332.057421 204.8842 
L 332.057421 204.796675 
L 332.149037 204.8842 
L 332.607116 204.796675 
L 332.607116 204.70915 
L 332.698732 204.796675 
L 332.973579 204.70915 
L 332.973579 204.621625 
L 332.991902 204.70915 
L 333.523274 204.621625 
L 333.523274 204.5341 
L 333.578243 204.621625 
L 334.072969 204.5341 
L 334.072969 204.446575 
L 334.805895 204.35905 
L 334.805895 204.271525 
L 334.842541 204.35905 
L 335.35559 204.271525 
L 335.35559 204.184 
L 336.088516 204.096475 
L 336.088516 204.00895 
L 336.180132 204.096475 
L 336.454979 204.00895 
L 336.454979 203.921425 
L 336.528272 204.00895 
L 336.821442 203.921425 
L 336.821442 203.8339 
L 336.876412 203.921425 
L 337.187906 203.8339 
L 337.187906 203.746375 
L 337.289474 203.8339 
L 337.554369 203.746375 
L 337.554369 203.65885 
L 337.655938 203.746375 
L 337.920832 203.65885 
L 337.920832 203.571325 
L 338.022401 203.65885 
L 338.287295 203.571325 
L 338.287295 203.4838 
L 338.388864 203.571325 
L 338.653758 203.4838 
L 338.653758 203.396275 
L 338.745374 203.4838 
L 339.020221 203.396275 
L 339.020221 203.30875 
L 339.13016 203.396275 
L 339.386684 203.30875 
L 339.386684 203.221225 
L 340.119611 203.1337 
L 340.119611 203.046175 
L 340.669306 202.95865 
L 340.669306 202.871125 
L 340.760921 202.95865 
L 341.035769 202.871125 
L 341.035769 202.7836 
L 341.585463 202.696075 
L 341.585463 202.60855 
L 341.62211 202.696075 
L 341.951927 202.60855 
L 341.951927 202.521025 
L 342.061866 202.60855 
L 342.31839 202.521025 
L 342.31839 202.4335 
L 342.868084 202.345975 
L 342.868084 202.25845 
L 342.9597 202.345975 
L 343.234548 202.25845 
L 343.234548 202.170925 
L 343.784242 202.0834 
L 343.784242 201.995875 
L 343.875858 202.0834 
L 344.150706 201.995875 
L 344.150706 201.90835 
L 344.7004 201.820825 
L 344.7004 201.7333 
L 344.765323 201.7333 
L 345.250095 201.645775 
L 345.250095 201.55825 
L 345.323388 201.645775 
L 345.616558 201.55825 
L 345.616558 201.470725 
L 346.166253 201.3832 
L 346.166253 201.295675 
L 346.231175 201.295675 
L 346.715948 201.20815 
L 346.715948 201.120625 
L 346.744224 201.120625 
L 347.265642 201.0331 
L 347.265642 200.945575 
L 347.375581 201.0331 
L 347.632106 200.945575 
L 347.632106 200.85805 
L 348.1818 200.770525 
L 348.1818 200.683 
L 348.731495 200.595475 
L 348.731495 200.50795 
L 349.28119 200.420425 
L 349.28119 200.3329 
L 349.830884 200.245375 
L 349.830884 200.15785 
L 350.380579 200.070325 
L 350.380579 199.9828 
L 350.930274 199.895275 
L 350.930274 199.80775 
L 351.296737 199.720225 
L 351.296737 199.6327 
L 351.31506 199.720225 
L 351.6632 199.6327 
L 351.6632 199.545175 
L 351.728123 199.545175 
L 352.212895 199.45765 
L 352.212895 199.370125 
L 352.76259 199.2826 
L 352.76259 199.195075 
L 353.129053 199.10755 
L 353.129053 199.020025 
L 353.147376 199.10755 
L 353.495516 199.020025 
L 353.495516 198.9325 
L 353.560439 198.9325 
L 354.045211 198.844975 
L 354.045211 198.75745 
L 354.594906 198.669925 
L 354.594906 198.5824 
L 354.961369 198.494875 
L 354.961369 198.40735 
L 355.052984 198.494875 
L 355.327832 198.40735 
L 355.327832 198.319825 
L 355.877527 198.2323 
L 355.877527 198.144775 
L 356.24399 198.05725 
L 356.24399 197.969725 
L 356.298959 198.05725 
L 356.610453 197.969725 
L 356.610453 197.8822 
L 357.160148 197.794675 
L 357.160148 197.70715 
L 357.251763 197.794675 
L 357.526611 197.70715 
L 357.526611 197.619625 
L 357.63655 197.70715 
L 357.893074 197.619625 
L 357.893074 197.5321 
L 357.966367 197.619625 
L 358.442769 197.5321 
L 358.442769 197.444575 
L 358.479415 197.5321 
L 361.740937 197.444575 
L 361.740937 197.35705 
L 361.75926 197.444575 
L 362.657095 197.35705 
L 362.657095 197.269525 
L 362.675418 197.35705 
L 363.390021 197.269525 
L 363.390021 197.182 
L 363.473267 197.269525 
L 364.122948 197.182 
L 364.122948 197.094475 
L 364.177917 197.182 
L 364.672642 197.094475 
L 364.672642 197.00695 
L 364.727612 197.094475 
L 365.222337 197.00695 
L 365.222337 196.919425 
L 365.305583 197.00695 
L 365.772032 196.919425 
L 365.772032 196.8319 
L 365.881971 196.919425 
L 366.138495 196.8319 
L 366.138495 196.744375 
L 366.221741 196.8319 
L 366.68819 196.744375 
L 366.68819 196.65685 
L 367.421116 196.569325 
L 367.421116 196.4818 
L 367.476086 196.569325 
L 367.787579 196.4818 
L 367.787579 196.394275 
L 367.889148 196.4818 
L 368.337274 196.394275 
L 368.337274 196.30675 
L 369.0702 196.219225 
L 369.0702 196.1317 
L 369.180139 196.219225 
L 369.436663 196.1317 
L 369.436663 196.044175 
L 369.546602 196.1317 
L 369.803127 196.044175 
L 369.803127 195.95665 
L 369.913066 196.044175 
L 370.16959 195.95665 
L 370.16959 195.869125 
L 370.279529 195.95665 
L 370.536053 195.869125 
L 370.536053 195.7816 
L 371.268979 195.694075 
L 371.268979 195.60655 
L 371.818674 195.519025 
L 371.818674 195.4315 
L 371.84695 195.519025 
L 372.185137 195.4315 
L 372.185137 195.343975 
L 372.25006 195.4315 
L 372.5516 195.343975 
L 372.5516 195.25645 
L 372.653169 195.343975 
L 372.918063 195.25645 
L 372.918063 195.168925 
L 373.467758 195.0814 
L 373.467758 194.993875 
L 373.486081 195.0814 
L 373.834221 194.993875 
L 373.834221 194.90635 
L 373.925837 194.993875 
L 374.200684 194.90635 
L 374.200684 194.818825 
L 374.750379 194.7313 
L 374.750379 194.643775 
L 374.805349 194.7313 
L 375.116842 194.643775 
L 375.116842 194.55625 
L 375.218411 194.55625 
L 375.666537 194.468725 
L 375.666537 194.3812 
L 375.721507 194.468725 
L 376.033 194.3812 
L 376.033 194.293675 
L 376.134569 194.293675 
L 376.582695 194.20615 
L 376.582695 194.118625 
L 376.655988 194.20615 
L 376.949158 194.118625 
L 376.949158 194.0311 
L 377.498853 193.943575 
L 377.498853 193.85605 
L 377.545452 193.85605 
L 378.048548 193.768525 
L 378.048548 193.681 
L 378.12184 193.768525 
L 378.415011 193.681 
L 378.415011 193.593475 
L 378.964706 193.50595 
L 378.964706 193.418425 
L 379.047951 193.418425 
L 379.5144 193.3309 
L 379.5144 193.243375 
L 379.561 193.243375 
L 380.064095 193.15585 
L 380.064095 193.068325 
L 380.092371 193.068325 
L 380.61379 192.9808 
L 380.61379 192.893275 
L 380.623743 192.893275 
L 381.163484 192.80575 
L 381.163484 192.718225 
L 381.173438 192.718225 
L 381.713179 192.6307 
L 381.713179 192.543175 
L 381.723132 192.543175 
L 382.262874 192.45565 
L 382.262874 192.368125 
L 382.29115 192.368125 
L 382.812569 192.2806 
L 382.812569 192.193075 
L 382.859168 192.193075 
L 383.362263 192.10555 
L 383.362263 192.018025 
L 383.445509 192.018025 
L 383.911958 191.9305 
L 383.911958 191.842975 
L 384.461653 191.75545 
L 384.461653 191.667925 
L 385.011348 191.5804 
L 385.011348 191.492875 
L 385.377811 191.40535 
L 385.377811 191.317825 
L 385.451103 191.40535 
L 385.744274 191.317825 
L 385.744274 191.2303 
L 386.293969 191.142775 
L 386.293969 191.05525 
L 386.660432 190.967725 
L 386.660432 190.8802 
L 386.715401 190.967725 
L 387.026895 190.8802 
L 387.026895 190.792675 
L 387.57659 190.70515 
L 387.57659 190.617625 
L 387.943053 190.5301 
L 387.943053 190.442575 
L 387.998022 190.5301 
L 388.309516 190.442575 
L 388.309516 190.35505 
L 388.859211 190.267525 
L 388.859211 190.18 
L 389.408906 190.092475 
L 389.408906 190.00495 
L 390.141832 189.917425 
L 390.141832 189.8299 
L 390.251771 189.917425 
L 390.508295 189.8299 
L 390.508295 189.742375 
L 390.526618 189.8299 
L 393.989695 189.742375 
L 393.989695 189.65485 
L 394.026341 189.742375 
L 394.905853 189.65485 
L 394.905853 189.567325 
L 394.942499 189.65485 
L 395.638779 189.567325 
L 395.638779 189.4798 
L 395.74951 189.567325 
L 396.371706 189.4798 
L 396.371706 189.392275 
L 396.444998 189.4798 
L 396.9214 189.392275 
L 396.9214 189.30475 
L 396.994693 189.392275 
L 397.471095 189.30475 
L 397.471095 189.217225 
L 397.581826 189.30475 
L 397.837558 189.217225 
L 397.837558 189.1297 
L 397.855881 189.217225 
L 398.387253 189.1297 
L 398.387253 189.042175 
L 398.497983 189.1297 
L 398.753716 189.042175 
L 398.753716 188.95465 
L 398.772039 189.042175 
L 399.303411 188.95465 
L 399.303411 188.867125 
L 399.41335 188.95465 
L 399.669874 188.867125 
L 399.669874 188.7796 
L 399.743167 188.867125 
L 400.036337 188.7796 
L 400.036337 188.692075 
L 400.072983 188.7796 
L 400.586032 188.692075 
L 400.586032 188.60455 
L 401.318958 188.517025 
L 401.318958 188.4295 
L 402.051885 188.341975 
L 402.051885 188.25445 
L 402.784811 188.166925 
L 402.784811 188.0794 
L 403.517737 187.991875 
L 403.517737 187.90435 
L 404.067432 187.816825 
L 404.067432 187.7293 
L 404.114031 187.816825 
L 404.433895 187.7293 
L 404.433895 187.641775 
L 404.517141 187.7293 
L 404.800358 187.641775 
L 404.800358 187.55425 
L 404.910297 187.641775 
L 405.166821 187.55425 
L 405.166821 187.466725 
L 405.716516 187.3792 
L 405.716516 187.291675 
L 405.753162 187.3792 
L 406.082979 187.291675 
L 406.082979 187.20415 
L 406.192918 187.291675 
L 406.449442 187.20415 
L 406.449442 187.116625 
L 406.999137 187.0291 
L 406.999137 186.941575 
L 407.07243 187.0291 
L 407.3656 186.941575 
L 407.3656 186.85405 
L 407.915295 186.766525 
L 407.915295 186.679 
L 407.988588 186.766525 
L 408.281758 186.679 
L 408.281758 186.591475 
L 408.831453 186.50395 
L 408.831453 186.416425 
L 408.923069 186.50395 
L 409.197916 186.416425 
L 409.197916 186.3289 
L 409.747611 186.241375 
L 409.747611 186.15385 
L 409.812533 186.15385 
L 410.297306 186.066325 
L 410.297306 185.9788 
L 410.388921 186.066325 
L 410.663769 185.9788 
L 410.663769 185.891275 
L 411.213463 185.80375 
L 411.213463 185.716225 
L 411.315032 185.716225 
L 411.763158 185.6287 
L 411.763158 185.541175 
L 411.763158 185.541175 
" style="fill:none;stroke:#2ca02c;stroke-linecap:square;stroke-width:1.5;"/>
   </g>
   <g id="patch_3">
    <path d="M 45.3 260.2 
L 45.3 26.8 
" style="fill:none;stroke:#000000;stroke-linecap:square;stroke-linejoin:miter;stroke-width:0.8;"/>
   </g>
   <g id="patch_4">
    <path d="M 416.341657 260.2 
L 416.341657 26.8 
" style="fill:none;stroke:#000000;stroke-linecap:square;stroke-linejoin:miter;stroke-width:0.8;"/>
   </g>
   <g id="patch_5">
    <path d="M 45.3 260.2 
L 416.341657 260.2 
" style="fill:none;stroke:#000000;stroke-linecap:square;stroke-linejoin:miter;stroke-width:0.8;"/>
   </g>
   <g id="patch_6">
    <path d="M 45.3 26.8 
L 416.341657 26.8 
" style="fill:none;stroke:#000000;stroke-linecap:square;stroke-linejoin:miter;stroke-width:0.8;"/>
   </g>
   <g id="text_16">
    <!-- experiment=General -->
    <defs>
     <path d="M 56.203125 29.59375 
L 56.203125 25.203125 
L 14.890625 25.203125 
Q 15.484375 15.921875 20.484375 11.0625 
Q 25.484375 6.203125 34.421875 6.203125 
Q 39.59375 6.203125 44.453125 7.46875 
Q 49.3125 8.734375 54.109375 11.28125 
L 54.109375 2.78125 
Q 49.265625 0.734375 44.1875 -0.34375 
Q 39.109375 -1.421875 33.890625 -1.421875 
Q 20.796875 -1.421875 13.15625 6.1875 
Q 5.515625 13.8125 5.515625 26.8125 
Q 5.515625 40.234375 12.765625 48.109375 
Q 20.015625 56 32.328125 56 
Q 43.359375 56 49.78125 48.890625 
Q 56.203125 41.796875 56.203125 29.59375 
z
M 47.21875 32.234375 
Q 47.125 39.59375 43.09375 43.984375 
Q 39.0625 48.390625 32.421875 48.390625 
Q 24.90625 48.390625 20.390625 44.140625 
Q 15.875 39.890625 15.1875 32.171875 
z
" id="DejaVuSans-101"/>
     <path d="M 54.890625 54.6875 
L 35.109375 28.078125 
L 55.90625 0 
L 45.3125 0 
L 29.390625 21.484375 
L 13.484375 0 
L 2.875 0 
L 24.125 28.609375 
L 4.6875 54.6875 
L 15.28125 54.6875 
L 29.78125 35.203125 
L 44.28125 54.6875 
z
" id="DejaVuSans-120"/>
     <path d="M 18.109375 8.203125 
L 18.109375 -20.796875 
L 9.078125 -20.796875 
L 9.078125 54.6875 
L 18.109375 54.6875 
L 18.109375 46.390625 
Q 20.953125 51.265625 25.265625 53.625 
Q 29.59375 56 35.59375 56 
Q 45.5625 56 51.78125 48.09375 
Q 58.015625 40.1875 58.015625 27.296875 
Q 58.015625 14.40625 51.78125 6.484375 
Q 45.5625 -1.421875 35.59375 -1.421875 
Q 29.59375 -1.421875 25.265625 0.953125 
Q 20.953125 3.328125 18.109375 8.203125 
z
M 48.6875 27.296875 
Q 48.6875 37.203125 44.609375 42.84375 
Q 40.53125 48.484375 33.40625 48.484375 
Q 26.265625 48.484375 22.1875 42.84375 
Q 18.109375 37.203125 18.109375 27.296875 
Q 18.109375 17.390625 22.1875 11.75 
Q 26.265625 6.109375 33.40625 6.109375 
Q 40.53125 6.109375 44.609375 11.75 
Q 48.6875 17.390625 48.6875 27.296875 
z
" id="DejaVuSans-112"/>
     <path d="M 41.109375 46.296875 
Q 39.59375 47.171875 37.8125 47.578125 
Q 36.03125 48 33.890625 48 
Q 26.265625 48 22.1875 43.046875 
Q 18.109375 38.09375 18.109375 28.8125 
L 18.109375 0 
L 9.078125 0 
L 9.078125 54.6875 
L 18.109375 54.6875 
L 18.109375 46.1875 
Q 20.953125 51.171875 25.484375 53.578125 
Q 30.03125 56 36.53125 56 
Q 37.453125 56 38.578125 55.875 
Q 39.703125 55.765625 41.0625 55.515625 
z
" id="DejaVuSans-114"/>
     <path d="M 9.421875 54.6875 
L 18.40625 54.6875 
L 18.40625 0 
L 9.421875 0 
z
M 9.421875 75.984375 
L 18.40625 75.984375 
L 18.40625 64.59375 
L 9.421875 64.59375 
z
" id="DejaVuSans-105"/>
     <path d="M 52 44.1875 
Q 55.375 50.25 60.0625 53.125 
Q 64.75 56 71.09375 56 
Q 79.640625 56 84.28125 50.015625 
Q 88.921875 44.046875 88.921875 33.015625 
L 88.921875 0 
L 79.890625 0 
L 79.890625 32.71875 
Q 79.890625 40.578125 77.09375 44.375 
Q 74.3125 48.1875 68.609375 48.1875 
Q 61.625 48.1875 57.5625 43.546875 
Q 53.515625 38.921875 53.515625 30.90625 
L 53.515625 0 
L 44.484375 0 
L 44.484375 32.71875 
Q 44.484375 40.625 41.703125 44.40625 
Q 38.921875 48.1875 33.109375 48.1875 
Q 26.21875 48.1875 22.15625 43.53125 
Q 18.109375 38.875 18.109375 30.90625 
L 18.109375 0 
L 9.078125 0 
L 9.078125 54.6875 
L 18.109375 54.6875 
L 18.109375 46.1875 
Q 21.1875 51.21875 25.484375 53.609375 
Q 29.78125 56 35.6875 56 
Q 41.65625 56 45.828125 52.96875 
Q 50 49.953125 52 44.1875 
z
" id="DejaVuSans-109"/>
     <path d="M 54.890625 33.015625 
L 54.890625 0 
L 45.90625 0 
L 45.90625 32.71875 
Q 45.90625 40.484375 42.875 44.328125 
Q 39.84375 48.1875 33.796875 48.1875 
Q 26.515625 48.1875 22.3125 43.546875 
Q 18.109375 38.921875 18.109375 30.90625 
L 18.109375 0 
L 9.078125 0 
L 9.078125 54.6875 
L 18.109375 54.6875 
L 18.109375 46.1875 
Q 21.34375 51.125 25.703125 53.5625 
Q 30.078125 56 35.796875 56 
Q 45.21875 56 50.046875 50.171875 
Q 54.890625 44.34375 54.890625 33.015625 
z
" id="DejaVuSans-110"/>
     <path d="M 18.3125 70.21875 
L 18.3125 54.6875 
L 36.8125 54.6875 
L 36.8125 47.703125 
L 18.3125 47.703125 
L 18.3125 18.015625 
Q 18.3125 11.328125 20.140625 9.421875 
Q 21.96875 7.515625 27.59375 7.515625 
L 36.8125 7.515625 
L 36.8125 0 
L 27.59375 0 
Q 17.1875 0 13.234375 3.875 
Q 9.28125 7.765625 9.28125 18.015625 
L 9.28125 47.703125 
L 2.6875 47.703125 
L 2.6875 54.6875 
L 9.28125 54.6875 
L 9.28125 70.21875 
z
" id="DejaVuSans-116"/>
     <path d="M 10.59375 45.40625 
L 73.1875 45.40625 
L 73.1875 37.203125 
L 10.59375 37.203125 
z
M 10.59375 25.484375 
L 73.1875 25.484375 
L 73.1875 17.1875 
L 10.59375 17.1875 
z
" id="DejaVuSans-61"/>
     <path d="M 59.515625 10.40625 
L 59.515625 29.984375 
L 43.40625 29.984375 
L 43.40625 38.09375 
L 69.28125 38.09375 
L 69.28125 6.78125 
Q 63.578125 2.734375 56.6875 0.65625 
Q 49.8125 -1.421875 42 -1.421875 
Q 24.90625 -1.421875 15.25 8.5625 
Q 5.609375 18.5625 5.609375 36.375 
Q 5.609375 54.25 15.25 64.234375 
Q 24.90625 74.21875 42 74.21875 
Q 49.125 74.21875 55.546875 72.453125 
Q 61.96875 70.703125 67.390625 67.28125 
L 67.390625 56.78125 
Q 61.921875 61.421875 55.765625 63.765625 
Q 49.609375 66.109375 42.828125 66.109375 
Q 29.4375 66.109375 22.71875 58.640625 
Q 16.015625 51.171875 16.015625 36.375 
Q 16.015625 21.625 22.71875 14.15625 
Q 29.4375 6.6875 42.828125 6.6875 
Q 48.046875 6.6875 52.140625 7.59375 
Q 56.25 8.5 59.515625 10.40625 
z
" id="DejaVuSans-71"/>
     <path d="M 34.28125 27.484375 
Q 23.390625 27.484375 19.1875 25 
Q 14.984375 22.515625 14.984375 16.5 
Q 14.984375 11.71875 18.140625 8.90625 
Q 21.296875 6.109375 26.703125 6.109375 
Q 34.1875 6.109375 38.703125 11.40625 
Q 43.21875 16.703125 43.21875 25.484375 
L 43.21875 27.484375 
z
M 52.203125 31.203125 
L 52.203125 0 
L 43.21875 0 
L 43.21875 8.296875 
Q 40.140625 3.328125 35.546875 0.953125 
Q 30.953125 -1.421875 24.3125 -1.421875 
Q 15.921875 -1.421875 10.953125 3.296875 
Q 6 8.015625 6 15.921875 
Q 6 25.140625 12.171875 29.828125 
Q 18.359375 34.515625 30.609375 34.515625 
L 43.21875 34.515625 
L 43.21875 35.40625 
Q 43.21875 41.609375 39.140625 45 
Q 35.0625 48.390625 27.6875 48.390625 
Q 23 48.390625 18.546875 47.265625 
Q 14.109375 46.140625 10.015625 43.890625 
L 10.015625 52.203125 
Q 14.9375 54.109375 19.578125 55.046875 
Q 24.21875 56 28.609375 56 
Q 40.484375 56 46.34375 49.84375 
Q 52.203125 43.703125 52.203125 31.203125 
z
" id="DejaVuSans-97"/>
     <path d="M 9.421875 75.984375 
L 18.40625 75.984375 
L 18.40625 0 
L 9.421875 0 
z
" id="DejaVuSans-108"/>
    </defs>
    <g transform="translate(167.579891 20.8)scale(0.12 -0.12)">
     <use xlink:href="#DejaVuSans-101"/>
     <use x="61.507812" xlink:href="#DejaVuSans-120"/>
     <use x="120.6875" xlink:href="#DejaVuSans-112"/>
     <use x="184.164062" xlink:href="#DejaVuSans-101"/>
     <use x="245.6875" xlink:href="#DejaVuSans-114"/>
     <use x="286.800781" xlink:href="#DejaVuSans-105"/>
     <use x="314.583984" xlink:href="#DejaVuSans-109"/>
     <use x="411.996094" xlink:href="#DejaVuSans-101"/>
     <use x="473.519531" xlink:href="#DejaVuSans-110"/>
     <use x="536.898438" xlink:href="#DejaVuSans-116"/>
     <use x="576.107422" xlink:href="#DejaVuSans-61"/>
     <use x="659.896484" xlink:href="#DejaVuSans-71"/>
     <use x="737.386719" xlink:href="#DejaVuSans-101"/>
     <use x="798.910156" xlink:href="#DejaVuSans-110"/>
     <use x="862.289062" xlink:href="#DejaVuSans-101"/>
     <use x="923.8125" xlink:href="#DejaVuSans-114"/>
     <use x="964.925781" xlink:href="#DejaVuSans-97"/>
     <use x="1026.205078" xlink:href="#DejaVuSans-108"/>
    </g>
   </g>
   <g id="legend_1">
    <g id="patch_7">
     <path d="M 167.652595 78.834375 
L 409.341657 78.834375 
Q 411.341657 78.834375 411.341657 76.834375 
L 411.341657 33.8 
Q 411.341657 31.8 409.341657 31.8 
L 167.652595 31.8 
Q 165.652595 31.8 165.652595 33.8 
L 165.652595 76.834375 
Q 165.652595 78.834375 167.652595 78.834375 
z
" style="fill:#ffffff;opacity:0.8;stroke:#cccccc;stroke-linejoin:miter;"/>
    </g>
    <g id="line2d_34">
     <path d="M 169.652595 39.898438 
L 189.652595 39.898438 
" style="fill:none;stroke:#1f77b4;stroke-linecap:square;stroke-width:1.5;"/>
    </g>
    <g id="line2d_35"/>
    <g id="text_17">
     <!-- Received packets in Network.nodeRx.sink -->
     <defs>
      <path d="M 44.390625 34.1875 
Q 47.5625 33.109375 50.5625 29.59375 
Q 53.5625 26.078125 56.59375 19.921875 
L 66.609375 0 
L 56 0 
L 46.6875 18.703125 
Q 43.0625 26.03125 39.671875 28.421875 
Q 36.28125 30.8125 30.421875 30.8125 
L 19.671875 30.8125 
L 19.671875 0 
L 9.8125 0 
L 9.8125 72.90625 
L 32.078125 72.90625 
Q 44.578125 72.90625 50.734375 67.671875 
Q 56.890625 62.453125 56.890625 51.90625 
Q 56.890625 45.015625 53.6875 40.46875 
Q 50.484375 35.9375 44.390625 34.1875 
z
M 19.671875 64.796875 
L 19.671875 38.921875 
L 32.078125 38.921875 
Q 39.203125 38.921875 42.84375 42.21875 
Q 46.484375 45.515625 46.484375 51.90625 
Q 46.484375 58.296875 42.84375 61.546875 
Q 39.203125 64.796875 32.078125 64.796875 
z
" id="DejaVuSans-82"/>
      <path d="M 48.78125 52.59375 
L 48.78125 44.1875 
Q 44.96875 46.296875 41.140625 47.34375 
Q 37.3125 48.390625 33.40625 48.390625 
Q 24.65625 48.390625 19.8125 42.84375 
Q 14.984375 37.3125 14.984375 27.296875 
Q 14.984375 17.28125 19.8125 11.734375 
Q 24.65625 6.203125 33.40625 6.203125 
Q 37.3125 6.203125 41.140625 7.25 
Q 44.96875 8.296875 48.78125 10.40625 
L 48.78125 2.09375 
Q 45.015625 0.34375 40.984375 -0.53125 
Q 36.96875 -1.421875 32.421875 -1.421875 
Q 20.0625 -1.421875 12.78125 6.34375 
Q 5.515625 14.109375 5.515625 27.296875 
Q 5.515625 40.671875 12.859375 48.328125 
Q 20.21875 56 33.015625 56 
Q 37.15625 56 41.109375 55.140625 
Q 45.0625 54.296875 48.78125 52.59375 
z
" id="DejaVuSans-99"/>
      <path d="M 2.984375 54.6875 
L 12.5 54.6875 
L 29.59375 8.796875 
L 46.6875 54.6875 
L 56.203125 54.6875 
L 35.6875 0 
L 23.484375 0 
z
" id="DejaVuSans-118"/>
      <path d="M 45.40625 46.390625 
L 45.40625 75.984375 
L 54.390625 75.984375 
L 54.390625 0 
L 45.40625 0 
L 45.40625 8.203125 
Q 42.578125 3.328125 38.25 0.953125 
Q 33.9375 -1.421875 27.875 -1.421875 
Q 17.96875 -1.421875 11.734375 6.484375 
Q 5.515625 14.40625 5.515625 27.296875 
Q 5.515625 40.1875 11.734375 48.09375 
Q 17.96875 56 27.875 56 
Q 33.9375 56 38.25 53.625 
Q 42.578125 51.265625 45.40625 46.390625 
z
M 14.796875 27.296875 
Q 14.796875 17.390625 18.875 11.75 
Q 22.953125 6.109375 30.078125 6.109375 
Q 37.203125 6.109375 41.296875 11.75 
Q 45.40625 17.390625 45.40625 27.296875 
Q 45.40625 37.203125 41.296875 42.84375 
Q 37.203125 48.484375 30.078125 48.484375 
Q 22.953125 48.484375 18.875 42.84375 
Q 14.796875 37.203125 14.796875 27.296875 
z
" id="DejaVuSans-100"/>
      <path id="DejaVuSans-32"/>
      <path d="M 9.078125 75.984375 
L 18.109375 75.984375 
L 18.109375 31.109375 
L 44.921875 54.6875 
L 56.390625 54.6875 
L 27.390625 29.109375 
L 57.625 0 
L 45.90625 0 
L 18.109375 26.703125 
L 18.109375 0 
L 9.078125 0 
z
" id="DejaVuSans-107"/>
      <path d="M 44.28125 53.078125 
L 44.28125 44.578125 
Q 40.484375 46.53125 36.375 47.5 
Q 32.28125 48.484375 27.875 48.484375 
Q 21.1875 48.484375 17.84375 46.4375 
Q 14.5 44.390625 14.5 40.28125 
Q 14.5 37.15625 16.890625 35.375 
Q 19.28125 33.59375 26.515625 31.984375 
L 29.59375 31.296875 
Q 39.15625 29.25 43.1875 25.515625 
Q 47.21875 21.78125 47.21875 15.09375 
Q 47.21875 7.46875 41.1875 3.015625 
Q 35.15625 -1.421875 24.609375 -1.421875 
Q 20.21875 -1.421875 15.453125 -0.5625 
Q 10.6875 0.296875 5.421875 2 
L 5.421875 11.28125 
Q 10.40625 8.6875 15.234375 7.390625 
Q 20.0625 6.109375 24.8125 6.109375 
Q 31.15625 6.109375 34.5625 8.28125 
Q 37.984375 10.453125 37.984375 14.40625 
Q 37.984375 18.0625 35.515625 20.015625 
Q 33.0625 21.96875 24.703125 23.78125 
L 21.578125 24.515625 
Q 13.234375 26.265625 9.515625 29.90625 
Q 5.8125 33.546875 5.8125 39.890625 
Q 5.8125 47.609375 11.28125 51.796875 
Q 16.75 56 26.8125 56 
Q 31.78125 56 36.171875 55.265625 
Q 40.578125 54.546875 44.28125 53.078125 
z
" id="DejaVuSans-115"/>
      <path d="M 9.8125 72.90625 
L 23.09375 72.90625 
L 55.421875 11.921875 
L 55.421875 72.90625 
L 64.984375 72.90625 
L 64.984375 0 
L 51.703125 0 
L 19.390625 60.984375 
L 19.390625 0 
L 9.8125 0 
z
" id="DejaVuSans-78"/>
      <path d="M 4.203125 54.6875 
L 13.1875 54.6875 
L 24.421875 12.015625 
L 35.59375 54.6875 
L 46.1875 54.6875 
L 57.421875 12.015625 
L 68.609375 54.6875 
L 77.59375 54.6875 
L 63.28125 0 
L 52.6875 0 
L 40.921875 44.828125 
L 29.109375 0 
L 18.5 0 
z
" id="DejaVuSans-119"/>
      <path d="M 30.609375 48.390625 
Q 23.390625 48.390625 19.1875 42.75 
Q 14.984375 37.109375 14.984375 27.296875 
Q 14.984375 17.484375 19.15625 11.84375 
Q 23.34375 6.203125 30.609375 6.203125 
Q 37.796875 6.203125 41.984375 11.859375 
Q 46.1875 17.53125 46.1875 27.296875 
Q 46.1875 37.015625 41.984375 42.703125 
Q 37.796875 48.390625 30.609375 48.390625 
z
M 30.609375 56 
Q 42.328125 56 49.015625 48.375 
Q 55.71875 40.765625 55.71875 27.296875 
Q 55.71875 13.875 49.015625 6.21875 
Q 42.328125 -1.421875 30.609375 -1.421875 
Q 18.84375 -1.421875 12.171875 6.21875 
Q 5.515625 13.875 5.515625 27.296875 
Q 5.515625 40.765625 12.171875 48.375 
Q 18.84375 56 30.609375 56 
z
" id="DejaVuSans-111"/>
      <path d="M 10.6875 12.40625 
L 21 12.40625 
L 21 0 
L 10.6875 0 
z
" id="DejaVuSans-46"/>
     </defs>
     <g transform="translate(197.652595 43.398438)scale(0.1 -0.1)">
      <use xlink:href="#DejaVuSans-82"/>
      <use x="69.419922" xlink:href="#DejaVuSans-101"/>
      <use x="130.943359" xlink:href="#DejaVuSans-99"/>
      <use x="185.923828" xlink:href="#DejaVuSans-101"/>
      <use x="247.447266" xlink:href="#DejaVuSans-105"/>
      <use x="275.230469" xlink:href="#DejaVuSans-118"/>
      <use x="334.410156" xlink:href="#DejaVuSans-101"/>
      <use x="395.933594" xlink:href="#DejaVuSans-100"/>
      <use x="459.410156" xlink:href="#DejaVuSans-32"/>
      <use x="491.197266" xlink:href="#DejaVuSans-112"/>
      <use x="554.673828" xlink:href="#DejaVuSans-97"/>
      <use x="615.953125" xlink:href="#DejaVuSans-99"/>
      <use x="670.933594" xlink:href="#DejaVuSans-107"/>
      <use x="728.796875" xlink:href="#DejaVuSans-101"/>
      <use x="790.320312" xlink:href="#DejaVuSans-116"/>
      <use x="829.529297" xlink:href="#DejaVuSans-115"/>
      <use x="881.628906" xlink:href="#DejaVuSans-32"/>
      <use x="913.416016" xlink:href="#DejaVuSans-105"/>
      <use x="941.199219" xlink:href="#DejaVuSans-110"/>
      <use x="1004.578125" xlink:href="#DejaVuSans-32"/>
      <use x="1036.365234" xlink:href="#DejaVuSans-78"/>
      <use x="1111.169922" xlink:href="#DejaVuSans-101"/>
      <use x="1172.693359" xlink:href="#DejaVuSans-116"/>
      <use x="1211.902344" xlink:href="#DejaVuSans-119"/>
      <use x="1293.689453" xlink:href="#DejaVuSans-111"/>
      <use x="1354.871094" xlink:href="#DejaVuSans-114"/>
      <use x="1395.984375" xlink:href="#DejaVuSans-107"/>
      <use x="1453.894531" xlink:href="#DejaVuSans-46"/>
      <use x="1485.681641" xlink:href="#DejaVuSans-110"/>
      <use x="1549.060547" xlink:href="#DejaVuSans-111"/>
      <use x="1610.242188" xlink:href="#DejaVuSans-100"/>
      <use x="1673.71875" xlink:href="#DejaVuSans-101"/>
      <use x="1735.242188" xlink:href="#DejaVuSans-82"/>
      <use x="1804.724609" xlink:href="#DejaVuSans-120"/>
      <use x="1863.904297" xlink:href="#DejaVuSans-46"/>
      <use x="1895.691406" xlink:href="#DejaVuSans-115"/>
      <use x="1947.791016" xlink:href="#DejaVuSans-105"/>
      <use x="1975.574219" xlink:href="#DejaVuSans-110"/>
      <use x="2038.953125" xlink:href="#DejaVuSans-107"/>
     </g>
    </g>
    <g id="line2d_36">
     <path d="M 169.652595 54.576563 
L 189.652595 54.576563 
" style="fill:none;stroke:#ff7f0e;stroke-linecap:square;stroke-width:1.5;"/>
    </g>
    <g id="line2d_37"/>
    <g id="text_18">
     <!-- Sent packets in Network.nodeTx.gen -->
     <defs>
      <path d="M 53.515625 70.515625 
L 53.515625 60.890625 
Q 47.90625 63.578125 42.921875 64.890625 
Q 37.9375 66.21875 33.296875 66.21875 
Q 25.25 66.21875 20.875 63.09375 
Q 16.5 59.96875 16.5 54.203125 
Q 16.5 49.359375 19.40625 46.890625 
Q 22.3125 44.4375 30.421875 42.921875 
L 36.375 41.703125 
Q 47.40625 39.59375 52.65625 34.296875 
Q 57.90625 29 57.90625 20.125 
Q 57.90625 9.515625 50.796875 4.046875 
Q 43.703125 -1.421875 29.984375 -1.421875 
Q 24.8125 -1.421875 18.96875 -0.25 
Q 13.140625 0.921875 6.890625 3.21875 
L 6.890625 13.375 
Q 12.890625 10.015625 18.65625 8.296875 
Q 24.421875 6.59375 29.984375 6.59375 
Q 38.421875 6.59375 43.015625 9.90625 
Q 47.609375 13.234375 47.609375 19.390625 
Q 47.609375 24.75 44.3125 27.78125 
Q 41.015625 30.8125 33.5 32.328125 
L 27.484375 33.5 
Q 16.453125 35.6875 11.515625 40.375 
Q 6.59375 45.0625 6.59375 53.421875 
Q 6.59375 63.09375 13.40625 68.65625 
Q 20.21875 74.21875 32.171875 74.21875 
Q 37.3125 74.21875 42.625 73.28125 
Q 47.953125 72.359375 53.515625 70.515625 
z
" id="DejaVuSans-83"/>
      <path d="M -0.296875 72.90625 
L 61.375 72.90625 
L 61.375 64.59375 
L 35.5 64.59375 
L 35.5 0 
L 25.59375 0 
L 25.59375 64.59375 
L -0.296875 64.59375 
z
" id="DejaVuSans-84"/>
      <path d="M 45.40625 27.984375 
Q 45.40625 37.75 41.375 43.109375 
Q 37.359375 48.484375 30.078125 48.484375 
Q 22.859375 48.484375 18.828125 43.109375 
Q 14.796875 37.75 14.796875 27.984375 
Q 14.796875 18.265625 18.828125 12.890625 
Q 22.859375 7.515625 30.078125 7.515625 
Q 37.359375 7.515625 41.375 12.890625 
Q 45.40625 18.265625 45.40625 27.984375 
z
M 54.390625 6.78125 
Q 54.390625 -7.171875 48.1875 -13.984375 
Q 42 -20.796875 29.203125 -20.796875 
Q 24.46875 -20.796875 20.265625 -20.09375 
Q 16.0625 -19.390625 12.109375 -17.921875 
L 12.109375 -9.1875 
Q 16.0625 -11.328125 19.921875 -12.34375 
Q 23.78125 -13.375 27.78125 -13.375 
Q 36.625 -13.375 41.015625 -8.765625 
Q 45.40625 -4.15625 45.40625 5.171875 
L 45.40625 9.625 
Q 42.625 4.78125 38.28125 2.390625 
Q 33.9375 0 27.875 0 
Q 17.828125 0 11.671875 7.65625 
Q 5.515625 15.328125 5.515625 27.984375 
Q 5.515625 40.671875 11.671875 48.328125 
Q 17.828125 56 27.875 56 
Q 33.9375 56 38.28125 53.609375 
Q 42.625 51.21875 45.40625 46.390625 
L 45.40625 54.6875 
L 54.390625 54.6875 
z
" id="DejaVuSans-103"/>
     </defs>
     <g transform="translate(197.652595 58.076563)scale(0.1 -0.1)">
      <use xlink:href="#DejaVuSans-83"/>
      <use x="63.476562" xlink:href="#DejaVuSans-101"/>
      <use x="125" xlink:href="#DejaVuSans-110"/>
      <use x="188.378906" xlink:href="#DejaVuSans-116"/>
      <use x="227.587891" xlink:href="#DejaVuSans-32"/>
      <use x="259.375" xlink:href="#DejaVuSans-112"/>
      <use x="322.851562" xlink:href="#DejaVuSans-97"/>
      <use x="384.130859" xlink:href="#DejaVuSans-99"/>
      <use x="439.111328" xlink:href="#DejaVuSans-107"/>
      <use x="496.974609" xlink:href="#DejaVuSans-101"/>
      <use x="558.498047" xlink:href="#DejaVuSans-116"/>
      <use x="597.707031" xlink:href="#DejaVuSans-115"/>
      <use x="649.806641" xlink:href="#DejaVuSans-32"/>
      <use x="681.59375" xlink:href="#DejaVuSans-105"/>
      <use x="709.376953" xlink:href="#DejaVuSans-110"/>
      <use x="772.755859" xlink:href="#DejaVuSans-32"/>
      <use x="804.542969" xlink:href="#DejaVuSans-78"/>
      <use x="879.347656" xlink:href="#DejaVuSans-101"/>
      <use x="940.871094" xlink:href="#DejaVuSans-116"/>
      <use x="980.080078" xlink:href="#DejaVuSans-119"/>
      <use x="1061.867188" xlink:href="#DejaVuSans-111"/>
      <use x="1123.048828" xlink:href="#DejaVuSans-114"/>
      <use x="1164.162109" xlink:href="#DejaVuSans-107"/>
      <use x="1222.072266" xlink:href="#DejaVuSans-46"/>
      <use x="1253.859375" xlink:href="#DejaVuSans-110"/>
      <use x="1317.238281" xlink:href="#DejaVuSans-111"/>
      <use x="1378.419922" xlink:href="#DejaVuSans-100"/>
      <use x="1441.896484" xlink:href="#DejaVuSans-101"/>
      <use x="1503.419922" xlink:href="#DejaVuSans-84"/>
      <use x="1564.503906" xlink:href="#DejaVuSans-120"/>
      <use x="1623.683594" xlink:href="#DejaVuSans-46"/>
      <use x="1655.470703" xlink:href="#DejaVuSans-103"/>
      <use x="1718.947266" xlink:href="#DejaVuSans-101"/>
      <use x="1780.470703" xlink:href="#DejaVuSans-110"/>
     </g>
    </g>
    <g id="line2d_38">
     <path d="M 169.652595 69.254688 
L 189.652595 69.254688 
" style="fill:none;stroke:#2ca02c;stroke-linecap:square;stroke-width:1.5;"/>
    </g>
    <g id="line2d_39"/>
    <g id="text_19">
     <!-- buffer size in Network.nodeTx.traTx -->
     <defs>
      <path d="M 48.6875 27.296875 
Q 48.6875 37.203125 44.609375 42.84375 
Q 40.53125 48.484375 33.40625 48.484375 
Q 26.265625 48.484375 22.1875 42.84375 
Q 18.109375 37.203125 18.109375 27.296875 
Q 18.109375 17.390625 22.1875 11.75 
Q 26.265625 6.109375 33.40625 6.109375 
Q 40.53125 6.109375 44.609375 11.75 
Q 48.6875 17.390625 48.6875 27.296875 
z
M 18.109375 46.390625 
Q 20.953125 51.265625 25.265625 53.625 
Q 29.59375 56 35.59375 56 
Q 45.5625 56 51.78125 48.09375 
Q 58.015625 40.1875 58.015625 27.296875 
Q 58.015625 14.40625 51.78125 6.484375 
Q 45.5625 -1.421875 35.59375 -1.421875 
Q 29.59375 -1.421875 25.265625 0.953125 
Q 20.953125 3.328125 18.109375 8.203125 
L 18.109375 0 
L 9.078125 0 
L 9.078125 75.984375 
L 18.109375 75.984375 
z
" id="DejaVuSans-98"/>
      <path d="M 8.5 21.578125 
L 8.5 54.6875 
L 17.484375 54.6875 
L 17.484375 21.921875 
Q 17.484375 14.15625 20.5 10.265625 
Q 23.53125 6.390625 29.59375 6.390625 
Q 36.859375 6.390625 41.078125 11.03125 
Q 45.3125 15.671875 45.3125 23.6875 
L 45.3125 54.6875 
L 54.296875 54.6875 
L 54.296875 0 
L 45.3125 0 
L 45.3125 8.40625 
Q 42.046875 3.421875 37.71875 1 
Q 33.40625 -1.421875 27.6875 -1.421875 
Q 18.265625 -1.421875 13.375 4.4375 
Q 8.5 10.296875 8.5 21.578125 
z
M 31.109375 56 
z
" id="DejaVuSans-117"/>
      <path d="M 37.109375 75.984375 
L 37.109375 68.5 
L 28.515625 68.5 
Q 23.6875 68.5 21.796875 66.546875 
Q 19.921875 64.59375 19.921875 59.515625 
L 19.921875 54.6875 
L 34.71875 54.6875 
L 34.71875 47.703125 
L 19.921875 47.703125 
L 19.921875 0 
L 10.890625 0 
L 10.890625 47.703125 
L 2.296875 47.703125 
L 2.296875 54.6875 
L 10.890625 54.6875 
L 10.890625 58.5 
Q 10.890625 67.625 15.140625 71.796875 
Q 19.390625 75.984375 28.609375 75.984375 
z
" id="DejaVuSans-102"/>
      <path d="M 5.515625 54.6875 
L 48.1875 54.6875 
L 48.1875 46.484375 
L 14.40625 7.171875 
L 48.1875 7.171875 
L 48.1875 0 
L 4.296875 0 
L 4.296875 8.203125 
L 38.09375 47.515625 
L 5.515625 47.515625 
z
" id="DejaVuSans-122"/>
     </defs>
     <g transform="translate(197.652595 72.754688)scale(0.1 -0.1)">
      <use xlink:href="#DejaVuSans-98"/>
      <use x="63.476562" xlink:href="#DejaVuSans-117"/>
      <use x="126.855469" xlink:href="#DejaVuSans-102"/>
      <use x="162.060547" xlink:href="#DejaVuSans-102"/>
      <use x="197.265625" xlink:href="#DejaVuSans-101"/>
      <use x="258.789062" xlink:href="#DejaVuSans-114"/>
      <use x="299.902344" xlink:href="#DejaVuSans-32"/>
      <use x="331.689453" xlink:href="#DejaVuSans-115"/>
      <use x="383.789062" xlink:href="#DejaVuSans-105"/>
      <use x="411.572266" xlink:href="#DejaVuSans-122"/>
      <use x="464.0625" xlink:href="#DejaVuSans-101"/>
      <use x="525.585938" xlink:href="#DejaVuSans-32"/>
      <use x="557.373047" xlink:href="#DejaVuSans-105"/>
      <use x="585.15625" xlink:href="#DejaVuSans-110"/>
      <use x="648.535156" xlink:href="#DejaVuSans-32"/>
      <use x="680.322266" xlink:href="#DejaVuSans-78"/>
      <use x="755.126953" xlink:href="#DejaVuSans-101"/>
      <use x="816.650391" xlink:href="#DejaVuSans-116"/>
      <use x="855.859375" xlink:href="#DejaVuSans-119"/>
      <use x="937.646484" xlink:href="#DejaVuSans-111"/>
      <use x="998.828125" xlink:href="#DejaVuSans-114"/>
      <use x="1039.941406" xlink:href="#DejaVuSans-107"/>
      <use x="1097.851562" xlink:href="#DejaVuSans-46"/>
      <use x="1129.638672" xlink:href="#DejaVuSans-110"/>
      <use x="1193.017578" xlink:href="#DejaVuSans-111"/>
      <use x="1254.199219" xlink:href="#DejaVuSans-100"/>
      <use x="1317.675781" xlink:href="#DejaVuSans-101"/>
      <use x="1379.199219" xlink:href="#DejaVuSans-84"/>
      <use x="1440.283203" xlink:href="#DejaVuSans-120"/>
      <use x="1499.462891" xlink:href="#DejaVuSans-46"/>
      <use x="1531.25" xlink:href="#DejaVuSans-116"/>
      <use x="1570.458984" xlink:href="#DejaVuSans-114"/>
      <use x="1611.572266" xlink:href="#DejaVuSans-97"/>
      <use x="1672.851562" xlink:href="#DejaVuSans-84"/>
      <use x="1733.935547" xlink:href="#DejaVuSans-120"/>
     </g>
    </g>
   </g>
  </g>
 </g>
 <defs>
  <clipPath id="p2cee5e4dac">
   <rect height="233.4" width="371.041657" x="45.3" y="26.8"/>
  </clipPath>
 </defs>
</svg>
