<?xml version="1.0" encoding="utf-8" standalone="no"?>
<!DOCTYPE svg PUBLIC "-//W3C//DTD SVG 1.1//EN"
  "http://www.w3.org/Graphics/SVG/1.1/DTD/svg11.dtd">
<!-- Created with matplotlib (https://matplotlib.org/) -->
<svg height="288pt" version="1.1" viewBox="0 0 432 288" width="432pt" xmlns="http://www.w3.org/2000/svg" xmlns:xlink="http://www.w3.org/1999/xlink">
 <defs>
  <style type="text/css">
*{stroke-linecap:butt;stroke-linejoin:round;}
  </style>
 </defs>
 <g id="figure_1">
  <g id="patch_1">
   <path d="M 0 288 
L 432 288 
L 432 0 
L 0 0 
z
" style="fill:#ffffff;"/>
  </g>
  <g id="axes_1">
   <g id="patch_2">
    <path d="M 43.374219 251.682812 
L 418.517331 251.682812 
L 418.517331 23.638594 
L 43.374219 23.638594 
z
" style="fill:#ffffff;"/>
   </g>
   <g id="matplotlib.axis_1">
    <g id="xtick_1">
     <g id="line2d_1">
      <path clip-path="url(#pb9f3613284)" d="M 43.374219 251.682812 
L 43.374219 23.638594 
" style="fill:none;stroke:#b0b0b0;stroke-linecap:square;stroke-width:0.8;"/>
     </g>
     <g id="line2d_2">
      <defs>
       <path d="M 0 0 
L 0 3.5 
" id="mbb63b9d0b6" style="stroke:#000000;stroke-width:0.8;"/>
      </defs>
      <g>
       <use style="stroke:#000000;stroke-width:0.8;" x="43.374219" xlink:href="#mbb63b9d0b6" y="251.682812"/>
      </g>
     </g>
     <g id="text_1">
      <!-- 0 -->
      <defs>
       <path d="M 31.78125 66.40625 
Q 24.171875 66.40625 20.328125 58.90625 
Q 16.5 51.421875 16.5 36.375 
Q 16.5 21.390625 20.328125 13.890625 
Q 24.171875 6.390625 31.78125 6.390625 
Q 39.453125 6.390625 43.28125 13.890625 
Q 47.125 21.390625 47.125 36.375 
Q 47.125 51.421875 43.28125 58.90625 
Q 39.453125 66.40625 31.78125 66.40625 
z
M 31.78125 74.21875 
Q 44.046875 74.21875 50.515625 64.515625 
Q 56.984375 54.828125 56.984375 36.375 
Q 56.984375 17.96875 50.515625 8.265625 
Q 44.046875 -1.421875 31.78125 -1.421875 
Q 19.53125 -1.421875 13.0625 8.265625 
Q 6.59375 17.96875 6.59375 36.375 
Q 6.59375 54.828125 13.0625 64.515625 
Q 19.53125 74.21875 31.78125 74.21875 
z
" id="DejaVuSans-48"/>
      </defs>
      <g transform="translate(40.192969 266.28125)scale(0.1 -0.1)">
       <use xlink:href="#DejaVuSans-48"/>
      </g>
     </g>
    </g>
    <g id="xtick_2">
     <g id="line2d_3">
      <path clip-path="url(#pb9f3613284)" d="M 89.711687 251.682812 
L 89.711687 23.638594 
" style="fill:none;stroke:#b0b0b0;stroke-linecap:square;stroke-width:0.8;"/>
     </g>
     <g id="line2d_4">
      <g>
       <use style="stroke:#000000;stroke-width:0.8;" x="89.711687" xlink:href="#mbb63b9d0b6" y="251.682812"/>
      </g>
     </g>
     <g id="text_2">
      <!-- 25 -->
      <defs>
       <path d="M 19.1875 8.296875 
L 53.609375 8.296875 
L 53.609375 0 
L 7.328125 0 
L 7.328125 8.296875 
Q 12.9375 14.109375 22.625 23.890625 
Q 32.328125 33.6875 34.8125 36.53125 
Q 39.546875 41.84375 41.421875 45.53125 
Q 43.3125 49.21875 43.3125 52.78125 
Q 43.3125 58.59375 39.234375 62.25 
Q 35.15625 65.921875 28.609375 65.921875 
Q 23.96875 65.921875 18.8125 64.3125 
Q 13.671875 62.703125 7.8125 59.421875 
L 7.8125 69.390625 
Q 13.765625 71.78125 18.9375 73 
Q 24.125 74.21875 28.421875 74.21875 
Q 39.75 74.21875 46.484375 68.546875 
Q 53.21875 62.890625 53.21875 53.421875 
Q 53.21875 48.921875 51.53125 44.890625 
Q 49.859375 40.875 45.40625 35.40625 
Q 44.1875 33.984375 37.640625 27.21875 
Q 31.109375 20.453125 19.1875 8.296875 
z
" id="DejaVuSans-50"/>
       <path d="M 10.796875 72.90625 
L 49.515625 72.90625 
L 49.515625 64.59375 
L 19.828125 64.59375 
L 19.828125 46.734375 
Q 21.96875 47.46875 24.109375 47.828125 
Q 26.265625 48.1875 28.421875 48.1875 
Q 40.625 48.1875 47.75 41.5 
Q 54.890625 34.8125 54.890625 23.390625 
Q 54.890625 11.625 47.5625 5.09375 
Q 40.234375 -1.421875 26.90625 -1.421875 
Q 22.3125 -1.421875 17.546875 -0.640625 
Q 12.796875 0.140625 7.71875 1.703125 
L 7.71875 11.625 
Q 12.109375 9.234375 16.796875 8.0625 
Q 21.484375 6.890625 26.703125 6.890625 
Q 35.15625 6.890625 40.078125 11.328125 
Q 45.015625 15.765625 45.015625 23.390625 
Q 45.015625 31 40.078125 35.4375 
Q 35.15625 39.890625 26.703125 39.890625 
Q 22.75 39.890625 18.8125 39.015625 
Q 14.890625 38.140625 10.796875 36.28125 
z
" id="DejaVuSans-53"/>
      </defs>
      <g transform="translate(83.349187 266.28125)scale(0.1 -0.1)">
       <use xlink:href="#DejaVuSans-50"/>
       <use x="63.623047" xlink:href="#DejaVuSans-53"/>
      </g>
     </g>
    </g>
    <g id="xtick_3">
     <g id="line2d_5">
      <path clip-path="url(#pb9f3613284)" d="M 136.049155 251.682812 
L 136.049155 23.638594 
" style="fill:none;stroke:#b0b0b0;stroke-linecap:square;stroke-width:0.8;"/>
     </g>
     <g id="line2d_6">
      <g>
       <use style="stroke:#000000;stroke-width:0.8;" x="136.049155" xlink:href="#mbb63b9d0b6" y="251.682812"/>
      </g>
     </g>
     <g id="text_3">
      <!-- 50 -->
      <g transform="translate(129.686655 266.28125)scale(0.1 -0.1)">
       <use xlink:href="#DejaVuSans-53"/>
       <use x="63.623047" xlink:href="#DejaVuSans-48"/>
      </g>
     </g>
    </g>
    <g id="xtick_4">
     <g id="line2d_7">
      <path clip-path="url(#pb9f3613284)" d="M 182.386623 251.682812 
L 182.386623 23.638594 
" style="fill:none;stroke:#b0b0b0;stroke-linecap:square;stroke-width:0.8;"/>
     </g>
     <g id="line2d_8">
      <g>
       <use style="stroke:#000000;stroke-width:0.8;" x="182.386623" xlink:href="#mbb63b9d0b6" y="251.682812"/>
      </g>
     </g>
     <g id="text_4">
      <!-- 75 -->
      <defs>
       <path d="M 8.203125 72.90625 
L 55.078125 72.90625 
L 55.078125 68.703125 
L 28.609375 0 
L 18.3125 0 
L 43.21875 64.59375 
L 8.203125 64.59375 
z
" id="DejaVuSans-55"/>
      </defs>
      <g transform="translate(176.024123 266.28125)scale(0.1 -0.1)">
       <use xlink:href="#DejaVuSans-55"/>
       <use x="63.623047" xlink:href="#DejaVuSans-53"/>
      </g>
     </g>
    </g>
    <g id="xtick_5">
     <g id="line2d_9">
      <path clip-path="url(#pb9f3613284)" d="M 228.724091 251.682812 
L 228.724091 23.638594 
" style="fill:none;stroke:#b0b0b0;stroke-linecap:square;stroke-width:0.8;"/>
     </g>
     <g id="line2d_10">
      <g>
       <use style="stroke:#000000;stroke-width:0.8;" x="228.724091" xlink:href="#mbb63b9d0b6" y="251.682812"/>
      </g>
     </g>
     <g id="text_5">
      <!-- 100 -->
      <defs>
       <path d="M 12.40625 8.296875 
L 28.515625 8.296875 
L 28.515625 63.921875 
L 10.984375 60.40625 
L 10.984375 69.390625 
L 28.421875 72.90625 
L 38.28125 72.90625 
L 38.28125 8.296875 
L 54.390625 8.296875 
L 54.390625 0 
L 12.40625 0 
z
" id="DejaVuSans-49"/>
      </defs>
      <g transform="translate(219.180341 266.28125)scale(0.1 -0.1)">
       <use xlink:href="#DejaVuSans-49"/>
       <use x="63.623047" xlink:href="#DejaVuSans-48"/>
       <use x="127.246094" xlink:href="#DejaVuSans-48"/>
      </g>
     </g>
    </g>
    <g id="xtick_6">
     <g id="line2d_11">
      <path clip-path="url(#pb9f3613284)" d="M 275.061558 251.682812 
L 275.061558 23.638594 
" style="fill:none;stroke:#b0b0b0;stroke-linecap:square;stroke-width:0.8;"/>
     </g>
     <g id="line2d_12">
      <g>
       <use style="stroke:#000000;stroke-width:0.8;" x="275.061558" xlink:href="#mbb63b9d0b6" y="251.682812"/>
      </g>
     </g>
     <g id="text_6">
      <!-- 125 -->
      <g transform="translate(265.517808 266.28125)scale(0.1 -0.1)">
       <use xlink:href="#DejaVuSans-49"/>
       <use x="63.623047" xlink:href="#DejaVuSans-50"/>
       <use x="127.246094" xlink:href="#DejaVuSans-53"/>
      </g>
     </g>
    </g>
    <g id="xtick_7">
     <g id="line2d_13">
      <path clip-path="url(#pb9f3613284)" d="M 321.399026 251.682812 
L 321.399026 23.638594 
" style="fill:none;stroke:#b0b0b0;stroke-linecap:square;stroke-width:0.8;"/>
     </g>
     <g id="line2d_14">
      <g>
       <use style="stroke:#000000;stroke-width:0.8;" x="321.399026" xlink:href="#mbb63b9d0b6" y="251.682812"/>
      </g>
     </g>
     <g id="text_7">
      <!-- 150 -->
      <g transform="translate(311.855276 266.28125)scale(0.1 -0.1)">
       <use xlink:href="#DejaVuSans-49"/>
       <use x="63.623047" xlink:href="#DejaVuSans-53"/>
       <use x="127.246094" xlink:href="#DejaVuSans-48"/>
      </g>
     </g>
    </g>
    <g id="xtick_8">
     <g id="line2d_15">
      <path clip-path="url(#pb9f3613284)" d="M 367.736494 251.682812 
L 367.736494 23.638594 
" style="fill:none;stroke:#b0b0b0;stroke-linecap:square;stroke-width:0.8;"/>
     </g>
     <g id="line2d_16">
      <g>
       <use style="stroke:#000000;stroke-width:0.8;" x="367.736494" xlink:href="#mbb63b9d0b6" y="251.682812"/>
      </g>
     </g>
     <g id="text_8">
      <!-- 175 -->
      <g transform="translate(358.192744 266.28125)scale(0.1 -0.1)">
       <use xlink:href="#DejaVuSans-49"/>
       <use x="63.623047" xlink:href="#DejaVuSans-55"/>
       <use x="127.246094" xlink:href="#DejaVuSans-53"/>
      </g>
     </g>
    </g>
    <g id="xtick_9">
     <g id="line2d_17">
      <path clip-path="url(#pb9f3613284)" d="M 414.073962 251.682812 
L 414.073962 23.638594 
" style="fill:none;stroke:#b0b0b0;stroke-linecap:square;stroke-width:0.8;"/>
     </g>
     <g id="line2d_18">
      <g>
       <use style="stroke:#000000;stroke-width:0.8;" x="414.073962" xlink:href="#mbb63b9d0b6" y="251.682812"/>
      </g>
     </g>
     <g id="text_9">
      <!-- 200 -->
      <g transform="translate(404.530212 266.28125)scale(0.1 -0.1)">
       <use xlink:href="#DejaVuSans-50"/>
       <use x="63.623047" xlink:href="#DejaVuSans-48"/>
       <use x="127.246094" xlink:href="#DejaVuSans-48"/>
      </g>
     </g>
    </g>
    <g id="text_10">
     <!-- Tiempo -->
     <defs>
      <path d="M -0.296875 72.90625 
L 61.375 72.90625 
L 61.375 64.59375 
L 35.5 64.59375 
L 35.5 0 
L 25.59375 0 
L 25.59375 64.59375 
L -0.296875 64.59375 
z
" id="DejaVuSans-84"/>
      <path d="M 9.421875 54.6875 
L 18.40625 54.6875 
L 18.40625 0 
L 9.421875 0 
z
M 9.421875 75.984375 
L 18.40625 75.984375 
L 18.40625 64.59375 
L 9.421875 64.59375 
z
" id="DejaVuSans-105"/>
      <path d="M 56.203125 29.59375 
L 56.203125 25.203125 
L 14.890625 25.203125 
Q 15.484375 15.921875 20.484375 11.0625 
Q 25.484375 6.203125 34.421875 6.203125 
Q 39.59375 6.203125 44.453125 7.46875 
Q 49.3125 8.734375 54.109375 11.28125 
L 54.109375 2.78125 
Q 49.265625 0.734375 44.1875 -0.34375 
Q 39.109375 -1.421875 33.890625 -1.421875 
Q 20.796875 -1.421875 13.15625 6.1875 
Q 5.515625 13.8125 5.515625 26.8125 
Q 5.515625 40.234375 12.765625 48.109375 
Q 20.015625 56 32.328125 56 
Q 43.359375 56 49.78125 48.890625 
Q 56.203125 41.796875 56.203125 29.59375 
z
M 47.21875 32.234375 
Q 47.125 39.59375 43.09375 43.984375 
Q 39.0625 48.390625 32.421875 48.390625 
Q 24.90625 48.390625 20.390625 44.140625 
Q 15.875 39.890625 15.1875 32.171875 
z
" id="DejaVuSans-101"/>
      <path d="M 52 44.1875 
Q 55.375 50.25 60.0625 53.125 
Q 64.75 56 71.09375 56 
Q 79.640625 56 84.28125 50.015625 
Q 88.921875 44.046875 88.921875 33.015625 
L 88.921875 0 
L 79.890625 0 
L 79.890625 32.71875 
Q 79.890625 40.578125 77.09375 44.375 
Q 74.3125 48.1875 68.609375 48.1875 
Q 61.625 48.1875 57.5625 43.546875 
Q 53.515625 38.921875 53.515625 30.90625 
L 53.515625 0 
L 44.484375 0 
L 44.484375 32.71875 
Q 44.484375 40.625 41.703125 44.40625 
Q 38.921875 48.1875 33.109375 48.1875 
Q 26.21875 48.1875 22.15625 43.53125 
Q 18.109375 38.875 18.109375 30.90625 
L 18.109375 0 
L 9.078125 0 
L 9.078125 54.6875 
L 18.109375 54.6875 
L 18.109375 46.1875 
Q 21.1875 51.21875 25.484375 53.609375 
Q 29.78125 56 35.6875 56 
Q 41.65625 56 45.828125 52.96875 
Q 50 49.953125 52 44.1875 
z
" id="DejaVuSans-109"/>
      <path d="M 18.109375 8.203125 
L 18.109375 -20.796875 
L 9.078125 -20.796875 
L 9.078125 54.6875 
L 18.109375 54.6875 
L 18.109375 46.390625 
Q 20.953125 51.265625 25.265625 53.625 
Q 29.59375 56 35.59375 56 
Q 45.5625 56 51.78125 48.09375 
Q 58.015625 40.1875 58.015625 27.296875 
Q 58.015625 14.40625 51.78125 6.484375 
Q 45.5625 -1.421875 35.59375 -1.421875 
Q 29.59375 -1.421875 25.265625 0.953125 
Q 20.953125 3.328125 18.109375 8.203125 
z
M 48.6875 27.296875 
Q 48.6875 37.203125 44.609375 42.84375 
Q 40.53125 48.484375 33.40625 48.484375 
Q 26.265625 48.484375 22.1875 42.84375 
Q 18.109375 37.203125 18.109375 27.296875 
Q 18.109375 17.390625 22.1875 11.75 
Q 26.265625 6.109375 33.40625 6.109375 
Q 40.53125 6.109375 44.609375 11.75 
Q 48.6875 17.390625 48.6875 27.296875 
z
" id="DejaVuSans-112"/>
      <path d="M 30.609375 48.390625 
Q 23.390625 48.390625 19.1875 42.75 
Q 14.984375 37.109375 14.984375 27.296875 
Q 14.984375 17.484375 19.15625 11.84375 
Q 23.34375 6.203125 30.609375 6.203125 
Q 37.796875 6.203125 41.984375 11.859375 
Q 46.1875 17.53125 46.1875 27.296875 
Q 46.1875 37.015625 41.984375 42.703125 
Q 37.796875 48.390625 30.609375 48.390625 
z
M 30.609375 56 
Q 42.328125 56 49.015625 48.375 
Q 55.71875 40.765625 55.71875 27.296875 
Q 55.71875 13.875 49.015625 6.21875 
Q 42.328125 -1.421875 30.609375 -1.421875 
Q 18.84375 -1.421875 12.171875 6.21875 
Q 5.515625 13.875 5.515625 27.296875 
Q 5.515625 40.765625 12.171875 48.375 
Q 18.84375 56 30.609375 56 
z
" id="DejaVuSans-111"/>
     </defs>
     <g transform="translate(212.324681 279.959375)scale(0.1 -0.1)">
      <use xlink:href="#DejaVuSans-84"/>
      <use x="61.037109" xlink:href="#DejaVuSans-105"/>
      <use x="88.820312" xlink:href="#DejaVuSans-101"/>
      <use x="150.34375" xlink:href="#DejaVuSans-109"/>
      <use x="247.755859" xlink:href="#DejaVuSans-112"/>
      <use x="311.232422" xlink:href="#DejaVuSans-111"/>
     </g>
    </g>
   </g>
   <g id="matplotlib.axis_2">
    <g id="ytick_1">
     <g id="line2d_19">
      <path clip-path="url(#pb9f3613284)" d="M 43.374219 251.682812 
L 418.517331 251.682812 
" style="fill:none;stroke:#b0b0b0;stroke-linecap:square;stroke-width:0.8;"/>
     </g>
     <g id="line2d_20">
      <defs>
       <path d="M 0 0 
L -3.5 0 
" id="m8f5208f53b" style="stroke:#000000;stroke-width:0.8;"/>
      </defs>
      <g>
       <use style="stroke:#000000;stroke-width:0.8;" x="43.374219" xlink:href="#m8f5208f53b" y="251.682812"/>
      </g>
     </g>
     <g id="text_11">
      <!-- 0 -->
      <g transform="translate(30.011719 255.482031)scale(0.1 -0.1)">
       <use xlink:href="#DejaVuSans-48"/>
      </g>
     </g>
    </g>
    <g id="ytick_2">
     <g id="line2d_21">
      <path clip-path="url(#pb9f3613284)" d="M 43.374219 217.135735 
L 418.517331 217.135735 
" style="fill:none;stroke:#b0b0b0;stroke-linecap:square;stroke-width:0.8;"/>
     </g>
     <g id="line2d_22">
      <g>
       <use style="stroke:#000000;stroke-width:0.8;" x="43.374219" xlink:href="#m8f5208f53b" y="217.135735"/>
      </g>
     </g>
     <g id="text_12">
      <!-- 20 -->
      <g transform="translate(23.649219 220.934954)scale(0.1 -0.1)">
       <use xlink:href="#DejaVuSans-50"/>
       <use x="63.623047" xlink:href="#DejaVuSans-48"/>
      </g>
     </g>
    </g>
    <g id="ytick_3">
     <g id="line2d_23">
      <path clip-path="url(#pb9f3613284)" d="M 43.374219 182.588658 
L 418.517331 182.588658 
" style="fill:none;stroke:#b0b0b0;stroke-linecap:square;stroke-width:0.8;"/>
     </g>
     <g id="line2d_24">
      <g>
       <use style="stroke:#000000;stroke-width:0.8;" x="43.374219" xlink:href="#m8f5208f53b" y="182.588658"/>
      </g>
     </g>
     <g id="text_13">
      <!-- 40 -->
      <defs>
       <path d="M 37.796875 64.3125 
L 12.890625 25.390625 
L 37.796875 25.390625 
z
M 35.203125 72.90625 
L 47.609375 72.90625 
L 47.609375 25.390625 
L 58.015625 25.390625 
L 58.015625 17.1875 
L 47.609375 17.1875 
L 47.609375 0 
L 37.796875 0 
L 37.796875 17.1875 
L 4.890625 17.1875 
L 4.890625 26.703125 
z
" id="DejaVuSans-52"/>
      </defs>
      <g transform="translate(23.649219 186.387877)scale(0.1 -0.1)">
       <use xlink:href="#DejaVuSans-52"/>
       <use x="63.623047" xlink:href="#DejaVuSans-48"/>
      </g>
     </g>
    </g>
    <g id="ytick_4">
     <g id="line2d_25">
      <path clip-path="url(#pb9f3613284)" d="M 43.374219 148.041581 
L 418.517331 148.041581 
" style="fill:none;stroke:#b0b0b0;stroke-linecap:square;stroke-width:0.8;"/>
     </g>
     <g id="line2d_26">
      <g>
       <use style="stroke:#000000;stroke-width:0.8;" x="43.374219" xlink:href="#m8f5208f53b" y="148.041581"/>
      </g>
     </g>
     <g id="text_14">
      <!-- 60 -->
      <defs>
       <path d="M 33.015625 40.375 
Q 26.375 40.375 22.484375 35.828125 
Q 18.609375 31.296875 18.609375 23.390625 
Q 18.609375 15.53125 22.484375 10.953125 
Q 26.375 6.390625 33.015625 6.390625 
Q 39.65625 6.390625 43.53125 10.953125 
Q 47.40625 15.53125 47.40625 23.390625 
Q 47.40625 31.296875 43.53125 35.828125 
Q 39.65625 40.375 33.015625 40.375 
z
M 52.59375 71.296875 
L 52.59375 62.3125 
Q 48.875 64.0625 45.09375 64.984375 
Q 41.3125 65.921875 37.59375 65.921875 
Q 27.828125 65.921875 22.671875 59.328125 
Q 17.53125 52.734375 16.796875 39.40625 
Q 19.671875 43.65625 24.015625 45.921875 
Q 28.375 48.1875 33.59375 48.1875 
Q 44.578125 48.1875 50.953125 41.515625 
Q 57.328125 34.859375 57.328125 23.390625 
Q 57.328125 12.15625 50.6875 5.359375 
Q 44.046875 -1.421875 33.015625 -1.421875 
Q 20.359375 -1.421875 13.671875 8.265625 
Q 6.984375 17.96875 6.984375 36.375 
Q 6.984375 53.65625 15.1875 63.9375 
Q 23.390625 74.21875 37.203125 74.21875 
Q 40.921875 74.21875 44.703125 73.484375 
Q 48.484375 72.75 52.59375 71.296875 
z
" id="DejaVuSans-54"/>
      </defs>
      <g transform="translate(23.649219 151.8408)scale(0.1 -0.1)">
       <use xlink:href="#DejaVuSans-54"/>
       <use x="63.623047" xlink:href="#DejaVuSans-48"/>
      </g>
     </g>
    </g>
    <g id="ytick_5">
     <g id="line2d_27">
      <path clip-path="url(#pb9f3613284)" d="M 43.374219 113.494504 
L 418.517331 113.494504 
" style="fill:none;stroke:#b0b0b0;stroke-linecap:square;stroke-width:0.8;"/>
     </g>
     <g id="line2d_28">
      <g>
       <use style="stroke:#000000;stroke-width:0.8;" x="43.374219" xlink:href="#m8f5208f53b" y="113.494504"/>
      </g>
     </g>
     <g id="text_15">
      <!-- 80 -->
      <defs>
       <path d="M 31.78125 34.625 
Q 24.75 34.625 20.71875 30.859375 
Q 16.703125 27.09375 16.703125 20.515625 
Q 16.703125 13.921875 20.71875 10.15625 
Q 24.75 6.390625 31.78125 6.390625 
Q 38.8125 6.390625 42.859375 10.171875 
Q 46.921875 13.96875 46.921875 20.515625 
Q 46.921875 27.09375 42.890625 30.859375 
Q 38.875 34.625 31.78125 34.625 
z
M 21.921875 38.8125 
Q 15.578125 40.375 12.03125 44.71875 
Q 8.5 49.078125 8.5 55.328125 
Q 8.5 64.0625 14.71875 69.140625 
Q 20.953125 74.21875 31.78125 74.21875 
Q 42.671875 74.21875 48.875 69.140625 
Q 55.078125 64.0625 55.078125 55.328125 
Q 55.078125 49.078125 51.53125 44.71875 
Q 48 40.375 41.703125 38.8125 
Q 48.828125 37.15625 52.796875 32.3125 
Q 56.78125 27.484375 56.78125 20.515625 
Q 56.78125 9.90625 50.3125 4.234375 
Q 43.84375 -1.421875 31.78125 -1.421875 
Q 19.734375 -1.421875 13.25 4.234375 
Q 6.78125 9.90625 6.78125 20.515625 
Q 6.78125 27.484375 10.78125 32.3125 
Q 14.796875 37.15625 21.921875 38.8125 
z
M 18.3125 54.390625 
Q 18.3125 48.734375 21.84375 45.5625 
Q 25.390625 42.390625 31.78125 42.390625 
Q 38.140625 42.390625 41.71875 45.5625 
Q 45.3125 48.734375 45.3125 54.390625 
Q 45.3125 60.0625 41.71875 63.234375 
Q 38.140625 66.40625 31.78125 66.40625 
Q 25.390625 66.40625 21.84375 63.234375 
Q 18.3125 60.0625 18.3125 54.390625 
z
" id="DejaVuSans-56"/>
      </defs>
      <g transform="translate(23.649219 117.293722)scale(0.1 -0.1)">
       <use xlink:href="#DejaVuSans-56"/>
       <use x="63.623047" xlink:href="#DejaVuSans-48"/>
      </g>
     </g>
    </g>
    <g id="ytick_6">
     <g id="line2d_29">
      <path clip-path="url(#pb9f3613284)" d="M 43.374219 78.947426 
L 418.517331 78.947426 
" style="fill:none;stroke:#b0b0b0;stroke-linecap:square;stroke-width:0.8;"/>
     </g>
     <g id="line2d_30">
      <g>
       <use style="stroke:#000000;stroke-width:0.8;" x="43.374219" xlink:href="#m8f5208f53b" y="78.947426"/>
      </g>
     </g>
     <g id="text_16">
      <!-- 100 -->
      <g transform="translate(17.286719 82.746645)scale(0.1 -0.1)">
       <use xlink:href="#DejaVuSans-49"/>
       <use x="63.623047" xlink:href="#DejaVuSans-48"/>
       <use x="127.246094" xlink:href="#DejaVuSans-48"/>
      </g>
     </g>
    </g>
    <g id="ytick_7">
     <g id="line2d_31">
      <path clip-path="url(#pb9f3613284)" d="M 43.374219 44.400349 
L 418.517331 44.400349 
" style="fill:none;stroke:#b0b0b0;stroke-linecap:square;stroke-width:0.8;"/>
     </g>
     <g id="line2d_32">
      <g>
       <use style="stroke:#000000;stroke-width:0.8;" x="43.374219" xlink:href="#m8f5208f53b" y="44.400349"/>
      </g>
     </g>
     <g id="text_17">
      <!-- 120 -->
      <g transform="translate(17.286719 48.199568)scale(0.1 -0.1)">
       <use xlink:href="#DejaVuSans-49"/>
       <use x="63.623047" xlink:href="#DejaVuSans-50"/>
       <use x="127.246094" xlink:href="#DejaVuSans-48"/>
      </g>
     </g>
    </g>
    <g id="text_18">
     <!-- Tiempo -->
     <g transform="translate(11.207031 156.281797)rotate(-90)scale(0.1 -0.1)">
      <use xlink:href="#DejaVuSans-84"/>
      <use x="61.037109" xlink:href="#DejaVuSans-105"/>
      <use x="88.820312" xlink:href="#DejaVuSans-101"/>
      <use x="150.34375" xlink:href="#DejaVuSans-109"/>
      <use x="247.755859" xlink:href="#DejaVuSans-112"/>
      <use x="311.232422" xlink:href="#DejaVuSans-111"/>
     </g>
    </g>
   </g>
   <g id="line2d_33">
    <path clip-path="url(#pb9f3613284)" d="M 44.309842 250.948342 
L 45.051241 250.629557 
L 45.421941 250.605306 
L 45.792641 250.419308 
L 46.16334 250.410938 
L 46.53404 250.201445 
L 46.90474 250.180538 
L 47.646139 249.753545 
L 48.387539 249.32573 
L 49.128938 248.795204 
L 49.499638 248.833814 
L 49.870338 248.498429 
L 50.241038 248.72556 
L 51.353137 247.939857 
L 52.094536 247.808769 
L 53.577335 246.901021 
L 53.948035 247.004361 
L 54.318735 246.971259 
L 55.430834 246.034416 
L 55.801534 245.869387 
L 56.542933 245.261302 
L 56.913633 245.224593 
L 57.284333 245.423268 
L 57.655032 245.3379 
L 58.025732 245.018552 
L 58.767132 245.032579 
L 59.137831 245.351314 
L 59.508531 245.116689 
L 60.249931 244.981825 
L 60.99133 244.524749 
L 61.73273 244.291983 
L 62.103429 243.968256 
L 63.215529 243.479238 
L 63.956928 242.948175 
L 64.327628 243.102673 
L 64.698328 243.002722 
L 65.439727 242.458566 
L 67.293226 241.280338 
L 67.663925 241.165519 
L 69.146724 240.101252 
L 69.888124 239.48126 
L 70.258824 239.301853 
L 71.000223 238.802498 
L 71.741623 238.320738 
L 72.112322 238.059658 
L 72.853722 238.26812 
L 73.595121 237.878236 
L 74.707221 237.182034 
L 75.07792 237.238407 
L 75.44862 237.099546 
L 76.19002 236.437395 
L 76.560719 236.696535 
L 77.672819 236.224682 
L 79.155618 235.016409 
L 79.526317 234.910875 
L 81.009116 233.902142 
L 81.379816 233.702533 
L 82.121215 233.118084 
L 82.491915 232.946363 
L 82.862615 233.370342 
L 83.233315 233.576406 
L 83.604014 233.249527 
L 83.974714 233.086781 
L 85.086813 232.295348 
L 85.457513 232.875756 
L 86.198913 232.518307 
L 87.311012 231.73324 
L 89.164511 230.435401 
L 89.53521 230.110133 
L 90.27661 229.797696 
L 91.018009 229.198351 
L 91.388709 229.113129 
L 91.759409 228.805467 
L 92.130109 228.97599 
L 92.871508 228.552146 
L 93.242208 228.503837 
L 93.983607 227.8329 
L 94.354307 227.655864 
L 94.725007 227.62474 
L 95.095707 227.472701 
L 95.466406 227.144683 
L 96.207806 227.718617 
L 96.578505 227.736809 
L 97.319905 227.278183 
L 97.690605 227.58253 
L 98.061304 227.246962 
L 99.173404 226.706761 
L 100.285503 225.781426 
L 100.656203 225.493374 
L 101.026902 225.820115 
L 102.139002 224.943423 
L 103.621801 223.964291 
L 103.9925 223.985751 
L 104.3632 223.732674 
L 104.7339 223.819718 
L 105.475299 223.182444 
L 106.216699 222.839051 
L 106.587399 222.638004 
L 106.958098 222.638564 
L 107.699498 222.123754 
L 108.070198 221.906239 
L 108.440897 221.990116 
L 108.811597 221.661686 
L 109.182297 221.755015 
L 109.552997 221.557734 
L 109.923696 221.227251 
L 110.294396 221.339401 
L 111.777195 220.271749 
L 112.147895 220.245377 
L 112.518594 219.924319 
L 113.259994 219.630965 
L 113.630694 219.603549 
L 115.484192 218.263442 
L 115.854892 218.056988 
L 116.596292 217.400691 
L 116.966991 217.360226 
L 119.19119 215.790963 
L 119.932589 215.539679 
L 120.303289 215.252998 
L 120.673989 215.47326 
L 121.786088 214.828085 
L 122.898187 214.181939 
L 123.268887 214.227495 
L 124.380986 213.557333 
L 124.751686 213.595595 
L 125.122386 213.777362 
L 125.863785 213.385638 
L 126.234485 213.143183 
L 126.605185 213.121325 
L 126.975884 213.439677 
L 127.346584 213.301876 
L 128.087984 212.693251 
L 128.829383 212.544308 
L 129.941482 211.881181 
L 130.312182 211.90355 
L 131.424281 211.132059 
L 131.794981 211.155349 
L 132.165681 211.391024 
L 133.64848 210.775566 
L 134.389879 210.336415 
L 134.760579 210.530824 
L 135.501979 210.063549 
L 136.614078 209.375745 
L 137.355477 208.957122 
L 138.096877 208.379237 
L 138.467576 208.095765 
L 139.208976 207.808742 
L 140.691775 206.794487 
L 141.062475 206.687906 
L 141.433174 206.43916 
L 141.803874 206.45772 
L 143.657373 204.997961 
L 144.398772 204.536888 
L 145.881571 203.63 
L 146.252271 203.884359 
L 146.993671 203.442671 
L 147.73507 202.892456 
L 148.10577 202.938859 
L 149.588569 201.778983 
L 149.959269 202.148259 
L 150.329968 202.18711 
L 150.700668 201.89373 
L 151.071368 201.8317 
L 152.554167 200.913919 
L 152.924866 200.586566 
L 153.295566 200.676264 
L 153.666266 200.40582 
L 154.407665 200.04067 
L 154.778365 200.863821 
L 155.149065 200.836137 
L 155.519765 200.518627 
L 156.261164 200.583591 
L 157.373263 199.707049 
L 157.743963 199.526708 
L 158.485363 198.89013 
L 159.226762 198.78541 
L 159.968162 198.724729 
L 161.82166 197.356549 
L 162.19236 197.023459 
L 162.56306 197.37754 
L 162.93376 197.238564 
L 164.045859 196.481366 
L 164.416559 196.357054 
L 164.787258 196.020551 
L 165.157958 196.022757 
L 165.528658 195.755866 
L 165.899358 196.051236 
L 166.270057 195.708662 
L 166.640757 195.697706 
L 167.382156 195.054114 
L 167.752856 194.958728 
L 168.123556 194.690341 
L 168.494256 194.843145 
L 169.235655 194.617827 
L 170.347754 193.812714 
L 171.089154 193.247581 
L 172.201253 192.355394 
L 172.942653 191.700073 
L 173.313352 191.62725 
L 174.054752 191.087642 
L 174.425452 191.100775 
L 174.796151 190.828485 
L 175.537551 191.090484 
L 177.39105 190.162392 
L 178.132449 189.622275 
L 178.503149 189.444614 
L 179.244548 188.911312 
L 179.615248 188.773291 
L 179.985948 188.474747 
L 180.356648 188.972075 
L 180.727347 189.096678 
L 181.468747 188.623866 
L 183.692945 187.845121 
L 184.063645 188.07623 
L 187.029243 185.807955 
L 187.399943 185.96153 
L 188.882742 185.178045 
L 189.253441 185.439649 
L 189.624141 185.138746 
L 189.994841 184.99039 
L 192.589739 182.937119 
L 192.960439 182.959345 
L 193.331139 182.81975 
L 193.701838 183.121466 
L 195.555337 181.815723 
L 195.926037 181.803348 
L 196.296736 181.469902 
L 197.038136 181.210708 
L 198.520935 180.373855 
L 198.891635 180.189729 
L 199.262334 180.23634 
L 199.633034 180.107514 
L 200.003734 180.563476 
L 201.486533 179.626414 
L 201.857233 179.690139 
L 203.710731 178.334996 
L 204.081431 178.358067 
L 204.452131 178.079218 
L 204.822831 178.139303 
L 205.56423 177.711176 
L 208.900528 175.903899 
L 209.271228 175.654153 
L 210.012627 175.613643 
L 210.383327 175.303644 
L 210.754026 175.154928 
L 211.124726 175.336851 
L 212.607525 174.4171 
L 212.978225 174.340175 
L 213.348925 174.50332 
L 213.719624 174.202871 
L 214.090324 174.084117 
L 214.461024 174.105319 
L 215.573123 173.225976 
L 215.943823 173.425847 
L 216.685222 172.97128 
L 217.055922 172.6303 
L 217.426622 172.4996 
L 218.538721 171.627673 
L 218.909421 171.508653 
L 221.504319 169.744678 
L 222.616418 169.574844 
L 222.987118 169.25097 
L 223.728518 168.879932 
L 225.211316 167.829686 
L 225.582016 167.69478 
L 226.694115 166.996876 
L 227.064815 166.96842 
L 229.659713 164.897459 
L 230.030413 164.773163 
L 230.401113 164.914916 
L 230.771813 164.574787 
L 231.883912 164.264703 
L 232.254612 163.936017 
L 232.625311 163.994832 
L 233.366711 163.361291 
L 234.47881 162.929856 
L 234.84951 162.736084 
L 235.22021 162.398678 
L 235.590909 162.617792 
L 237.073708 161.442131 
L 237.444408 161.29201 
L 238.927207 160.082604 
L 239.297907 160.195324 
L 239.668606 159.851457 
L 240.410006 159.661171 
L 240.780706 159.581338 
L 241.151405 159.953751 
L 241.522105 159.66544 
L 242.263505 159.336996 
L 243.375604 158.47069 
L 244.117003 158.044616 
L 244.487703 158.354507 
L 245.599802 158.108045 
L 246.341202 157.530961 
L 246.711902 157.748422 
L 247.453301 157.207908 
L 247.824001 157.227062 
L 248.194701 157.396723 
L 248.5654 157.168333 
L 248.9361 157.31285 
L 251.530998 156.366274 
L 251.901698 156.080699 
L 252.643098 156.03778 
L 253.384497 155.55034 
L 253.755197 155.46125 
L 254.125896 155.118081 
L 254.496596 155.404763 
L 254.867296 155.13297 
L 255.237996 155.12999 
L 255.608695 154.812215 
L 255.979395 154.728623 
L 256.720795 155.455806 
L 257.462194 155.119226 
L 258.944993 154.087337 
L 260.427792 152.998152 
L 260.798492 152.950932 
L 263.02269 151.25389 
L 263.39339 151.590315 
L 264.13479 151.007169 
L 264.505489 151.004041 
L 264.876189 150.804037 
L 265.246889 151.081958 
L 265.617589 150.809207 
L 265.988288 151.023393 
L 266.358988 150.946576 
L 266.729688 151.010555 
L 267.100387 150.756628 
L 267.471087 150.668089 
L 270.436685 148.609785 
L 270.807385 148.714562 
L 271.919484 147.780156 
L 272.290184 147.962367 
L 272.660884 147.840269 
L 273.772983 146.939966 
L 274.143683 146.848797 
L 274.885082 146.248054 
L 275.255782 146.272994 
L 276.367881 145.316947 
L 277.85068 144.658956 
L 278.59208 144.160018 
L 280.816278 143.421486 
L 282.299077 142.187044 
L 282.669777 141.996401 
L 283.411176 141.42709 
L 285.264675 140.14103 
L 286.747474 139.392437 
L 287.118174 139.377727 
L 288.230273 138.579602 
L 288.600973 138.537059 
L 289.342372 138.003629 
L 289.713072 137.926545 
L 290.454471 137.261318 
L 291.195871 136.962993 
L 291.566571 136.657497 
L 293.04937 136.317802 
L 295.644268 134.288402 
L 296.014967 134.327455 
L 297.868466 133.110101 
L 298.239166 133.212438 
L 298.609866 132.87485 
L 299.721965 132.449794 
L 300.463364 131.882187 
L 300.834064 131.66308 
L 301.204764 131.687798 
L 302.316863 130.979298 
L 302.687563 130.726311 
L 303.058263 130.934424 
L 303.428962 130.621997 
L 304.170362 130.221623 
L 304.541062 129.882371 
L 304.911761 129.801332 
L 307.50666 128.131091 
L 307.877359 127.966697 
L 310.101558 126.289389 
L 310.472257 126.485069 
L 311.584357 125.538474 
L 311.955056 125.597764 
L 312.696456 125.191797 
L 313.437855 124.623027 
L 314.179255 124.71828 
L 314.920654 124.148292 
L 316.032754 123.974853 
L 316.774153 123.388818 
L 317.144853 123.448216 
L 318.256952 122.820823 
L 318.998352 122.487562 
L 319.369051 122.210681 
L 320.110451 121.981535 
L 320.481151 121.640804 
L 321.96395 120.95959 
L 322.705349 120.300572 
L 323.076049 120.230019 
L 323.446749 119.948216 
L 323.817448 120.155197 
L 324.929547 119.391337 
L 325.300247 119.200292 
L 325.670947 119.38565 
L 326.041647 119.37701 
L 326.783046 118.932575 
L 327.153746 118.604818 
L 327.524446 118.783417 
L 328.265845 118.408485 
L 329.007245 118.357875 
L 329.377944 118.042035 
L 329.748644 118.110297 
L 330.119344 118.608379 
L 330.490044 118.554872 
L 331.602143 117.58094 
L 332.714242 116.976979 
L 333.084942 117.146567 
L 333.455642 116.812284 
L 333.826341 116.943667 
L 335.30914 116.035934 
L 336.05054 115.905769 
L 336.791939 115.284021 
L 337.162639 115.490226 
L 338.274738 114.65305 
L 340.128237 113.257114 
L 340.498937 113.234078 
L 341.240336 112.764478 
L 341.611036 112.876616 
L 341.981736 112.728111 
L 342.723135 112.217581 
L 343.093835 112.374065 
L 343.464535 112.046502 
L 343.835234 112.052771 
L 345.688733 110.540584 
L 346.800832 109.761337 
L 347.171532 109.731892 
L 348.283631 108.831645 
L 350.13713 107.654635 
L 351.990629 106.226638 
L 352.361329 106.135852 
L 354.214827 104.654236 
L 354.585527 104.999286 
L 355.326926 104.523256 
L 355.697626 104.809921 
L 356.068326 104.54545 
L 356.439026 105.00152 
L 357.551125 104.128157 
L 357.921825 103.813412 
L 358.292524 103.775572 
L 359.775323 103.146653 
L 360.146023 103.586752 
L 361.628822 102.624713 
L 361.999522 102.558843 
L 363.482321 101.494837 
L 364.22372 101.074298 
L 364.96512 100.605733 
L 365.33582 100.449613 
L 365.706519 100.555956 
L 366.077219 100.336302 
L 366.447919 100.323129 
L 368.301417 99.104648 
L 369.042817 98.924183 
L 369.413517 98.810225 
L 370.525616 98.045992 
L 370.896316 98.300024 
L 371.267015 98.259274 
L 371.637715 97.991748 
L 372.008415 98.093632 
L 374.232613 96.571022 
L 374.603313 96.70388 
L 374.974013 96.649852 
L 375.344713 96.355748 
L 375.715412 96.741469 
L 376.086112 96.479063 
L 376.456812 96.733477 
L 376.827512 96.594337 
L 377.568911 96.702649 
L 378.310311 96.09476 
L 378.68101 96.583553 
L 380.534509 95.133754 
L 380.905209 95.309075 
L 381.275909 95.347286 
L 382.017308 94.77884 
L 382.758707 94.374113 
L 383.129407 94.039029 
L 383.500107 94.122914 
L 383.870807 94.004066 
L 384.241506 93.679467 
L 384.612206 93.702735 
L 385.353606 93.239002 
L 386.465705 92.390493 
L 387.207104 91.848284 
L 387.948504 91.592852 
L 388.319204 91.294289 
L 388.689903 91.223011 
L 389.431303 90.685736 
L 390.543402 89.875771 
L 391.284802 89.875556 
L 392.396901 89.192566 
L 393.1383 88.762184 
L 393.509 88.910292 
L 394.2504 88.431842 
L 394.621099 88.223734 
L 394.991799 88.227117 
L 395.362499 88.008301 
L 395.733199 88.14941 
L 396.103898 87.878028 
L 396.474598 87.772548 
L 396.845298 87.431383 
L 397.215997 87.293637 
L 397.586697 86.976001 
L 397.957397 87.224903 
L 398.328097 86.903856 
L 398.698796 87.45404 
L 399.810896 86.94733 
L 400.181595 86.614557 
L 401.293695 85.993917 
L 402.405794 85.181893 
L 402.776494 85.042147 
L 403.517893 84.457625 
L 403.888593 84.272217 
L 404.629992 83.682839 
L 405.000692 83.894495 
L 405.371392 83.93897 
L 405.742092 83.606488 
L 406.112791 83.854471 
L 406.854191 83.303634 
L 407.224891 83.630261 
L 408.70769 82.538311 
L 409.078389 82.585072 
L 409.819789 82.026248 
L 410.561188 81.623849 
L 410.931888 81.920851 
L 412.043987 81.099253 
L 412.414687 81.359922 
L 413.526786 80.466031 
L 413.897486 80.498789 
L 413.897486 80.498789 
" style="fill:none;stroke:#1f77b4;stroke-linecap:square;stroke-width:1.5;"/>
   </g>
   <g id="patch_3">
    <path d="M 43.374219 251.682812 
L 43.374219 23.638594 
" style="fill:none;stroke:#000000;stroke-linecap:square;stroke-linejoin:miter;stroke-width:0.8;"/>
   </g>
   <g id="patch_4">
    <path d="M 418.517331 251.682812 
L 418.517331 23.638594 
" style="fill:none;stroke:#000000;stroke-linecap:square;stroke-linejoin:miter;stroke-width:0.8;"/>
   </g>
   <g id="patch_5">
    <path d="M 43.374219 251.682812 
L 418.517331 251.682812 
" style="fill:none;stroke:#000000;stroke-linecap:square;stroke-linejoin:miter;stroke-width:0.8;"/>
   </g>
   <g id="patch_6">
    <path d="M 43.374219 23.638594 
L 418.517331 23.638594 
" style="fill:none;stroke:#000000;stroke-linecap:square;stroke-linejoin:miter;stroke-width:0.8;"/>
   </g>
   <g id="text_19">
    <!-- Retraso en paquetes recibidos -->
    <defs>
     <path d="M 44.390625 34.1875 
Q 47.5625 33.109375 50.5625 29.59375 
Q 53.5625 26.078125 56.59375 19.921875 
L 66.609375 0 
L 56 0 
L 46.6875 18.703125 
Q 43.0625 26.03125 39.671875 28.421875 
Q 36.28125 30.8125 30.421875 30.8125 
L 19.671875 30.8125 
L 19.671875 0 
L 9.8125 0 
L 9.8125 72.90625 
L 32.078125 72.90625 
Q 44.578125 72.90625 50.734375 67.671875 
Q 56.890625 62.453125 56.890625 51.90625 
Q 56.890625 45.015625 53.6875 40.46875 
Q 50.484375 35.9375 44.390625 34.1875 
z
M 19.671875 64.796875 
L 19.671875 38.921875 
L 32.078125 38.921875 
Q 39.203125 38.921875 42.84375 42.21875 
Q 46.484375 45.515625 46.484375 51.90625 
Q 46.484375 58.296875 42.84375 61.546875 
Q 39.203125 64.796875 32.078125 64.796875 
z
" id="DejaVuSans-82"/>
     <path d="M 18.3125 70.21875 
L 18.3125 54.6875 
L 36.8125 54.6875 
L 36.8125 47.703125 
L 18.3125 47.703125 
L 18.3125 18.015625 
Q 18.3125 11.328125 20.140625 9.421875 
Q 21.96875 7.515625 27.59375 7.515625 
L 36.8125 7.515625 
L 36.8125 0 
L 27.59375 0 
Q 17.1875 0 13.234375 3.875 
Q 9.28125 7.765625 9.28125 18.015625 
L 9.28125 47.703125 
L 2.6875 47.703125 
L 2.6875 54.6875 
L 9.28125 54.6875 
L 9.28125 70.21875 
z
" id="DejaVuSans-116"/>
     <path d="M 41.109375 46.296875 
Q 39.59375 47.171875 37.8125 47.578125 
Q 36.03125 48 33.890625 48 
Q 26.265625 48 22.1875 43.046875 
Q 18.109375 38.09375 18.109375 28.8125 
L 18.109375 0 
L 9.078125 0 
L 9.078125 54.6875 
L 18.109375 54.6875 
L 18.109375 46.1875 
Q 20.953125 51.171875 25.484375 53.578125 
Q 30.03125 56 36.53125 56 
Q 37.453125 56 38.578125 55.875 
Q 39.703125 55.765625 41.0625 55.515625 
z
" id="DejaVuSans-114"/>
     <path d="M 34.28125 27.484375 
Q 23.390625 27.484375 19.1875 25 
Q 14.984375 22.515625 14.984375 16.5 
Q 14.984375 11.71875 18.140625 8.90625 
Q 21.296875 6.109375 26.703125 6.109375 
Q 34.1875 6.109375 38.703125 11.40625 
Q 43.21875 16.703125 43.21875 25.484375 
L 43.21875 27.484375 
z
M 52.203125 31.203125 
L 52.203125 0 
L 43.21875 0 
L 43.21875 8.296875 
Q 40.140625 3.328125 35.546875 0.953125 
Q 30.953125 -1.421875 24.3125 -1.421875 
Q 15.921875 -1.421875 10.953125 3.296875 
Q 6 8.015625 6 15.921875 
Q 6 25.140625 12.171875 29.828125 
Q 18.359375 34.515625 30.609375 34.515625 
L 43.21875 34.515625 
L 43.21875 35.40625 
Q 43.21875 41.609375 39.140625 45 
Q 35.0625 48.390625 27.6875 48.390625 
Q 23 48.390625 18.546875 47.265625 
Q 14.109375 46.140625 10.015625 43.890625 
L 10.015625 52.203125 
Q 14.9375 54.109375 19.578125 55.046875 
Q 24.21875 56 28.609375 56 
Q 40.484375 56 46.34375 49.84375 
Q 52.203125 43.703125 52.203125 31.203125 
z
" id="DejaVuSans-97"/>
     <path d="M 44.28125 53.078125 
L 44.28125 44.578125 
Q 40.484375 46.53125 36.375 47.5 
Q 32.28125 48.484375 27.875 48.484375 
Q 21.1875 48.484375 17.84375 46.4375 
Q 14.5 44.390625 14.5 40.28125 
Q 14.5 37.15625 16.890625 35.375 
Q 19.28125 33.59375 26.515625 31.984375 
L 29.59375 31.296875 
Q 39.15625 29.25 43.1875 25.515625 
Q 47.21875 21.78125 47.21875 15.09375 
Q 47.21875 7.46875 41.1875 3.015625 
Q 35.15625 -1.421875 24.609375 -1.421875 
Q 20.21875 -1.421875 15.453125 -0.5625 
Q 10.6875 0.296875 5.421875 2 
L 5.421875 11.28125 
Q 10.40625 8.6875 15.234375 7.390625 
Q 20.0625 6.109375 24.8125 6.109375 
Q 31.15625 6.109375 34.5625 8.28125 
Q 37.984375 10.453125 37.984375 14.40625 
Q 37.984375 18.0625 35.515625 20.015625 
Q 33.0625 21.96875 24.703125 23.78125 
L 21.578125 24.515625 
Q 13.234375 26.265625 9.515625 29.90625 
Q 5.8125 33.546875 5.8125 39.890625 
Q 5.8125 47.609375 11.28125 51.796875 
Q 16.75 56 26.8125 56 
Q 31.78125 56 36.171875 55.265625 
Q 40.578125 54.546875 44.28125 53.078125 
z
" id="DejaVuSans-115"/>
     <path id="DejaVuSans-32"/>
     <path d="M 54.890625 33.015625 
L 54.890625 0 
L 45.90625 0 
L 45.90625 32.71875 
Q 45.90625 40.484375 42.875 44.328125 
Q 39.84375 48.1875 33.796875 48.1875 
Q 26.515625 48.1875 22.3125 43.546875 
Q 18.109375 38.921875 18.109375 30.90625 
L 18.109375 0 
L 9.078125 0 
L 9.078125 54.6875 
L 18.109375 54.6875 
L 18.109375 46.1875 
Q 21.34375 51.125 25.703125 53.5625 
Q 30.078125 56 35.796875 56 
Q 45.21875 56 50.046875 50.171875 
Q 54.890625 44.34375 54.890625 33.015625 
z
" id="DejaVuSans-110"/>
     <path d="M 14.796875 27.296875 
Q 14.796875 17.390625 18.875 11.75 
Q 22.953125 6.109375 30.078125 6.109375 
Q 37.203125 6.109375 41.296875 11.75 
Q 45.40625 17.390625 45.40625 27.296875 
Q 45.40625 37.203125 41.296875 42.84375 
Q 37.203125 48.484375 30.078125 48.484375 
Q 22.953125 48.484375 18.875 42.84375 
Q 14.796875 37.203125 14.796875 27.296875 
z
M 45.40625 8.203125 
Q 42.578125 3.328125 38.25 0.953125 
Q 33.9375 -1.421875 27.875 -1.421875 
Q 17.96875 -1.421875 11.734375 6.484375 
Q 5.515625 14.40625 5.515625 27.296875 
Q 5.515625 40.1875 11.734375 48.09375 
Q 17.96875 56 27.875 56 
Q 33.9375 56 38.25 53.625 
Q 42.578125 51.265625 45.40625 46.390625 
L 45.40625 54.6875 
L 54.390625 54.6875 
L 54.390625 -20.796875 
L 45.40625 -20.796875 
z
" id="DejaVuSans-113"/>
     <path d="M 8.5 21.578125 
L 8.5 54.6875 
L 17.484375 54.6875 
L 17.484375 21.921875 
Q 17.484375 14.15625 20.5 10.265625 
Q 23.53125 6.390625 29.59375 6.390625 
Q 36.859375 6.390625 41.078125 11.03125 
Q 45.3125 15.671875 45.3125 23.6875 
L 45.3125 54.6875 
L 54.296875 54.6875 
L 54.296875 0 
L 45.3125 0 
L 45.3125 8.40625 
Q 42.046875 3.421875 37.71875 1 
Q 33.40625 -1.421875 27.6875 -1.421875 
Q 18.265625 -1.421875 13.375 4.4375 
Q 8.5 10.296875 8.5 21.578125 
z
M 31.109375 56 
z
" id="DejaVuSans-117"/>
     <path d="M 48.78125 52.59375 
L 48.78125 44.1875 
Q 44.96875 46.296875 41.140625 47.34375 
Q 37.3125 48.390625 33.40625 48.390625 
Q 24.65625 48.390625 19.8125 42.84375 
Q 14.984375 37.3125 14.984375 27.296875 
Q 14.984375 17.28125 19.8125 11.734375 
Q 24.65625 6.203125 33.40625 6.203125 
Q 37.3125 6.203125 41.140625 7.25 
Q 44.96875 8.296875 48.78125 10.40625 
L 48.78125 2.09375 
Q 45.015625 0.34375 40.984375 -0.53125 
Q 36.96875 -1.421875 32.421875 -1.421875 
Q 20.0625 -1.421875 12.78125 6.34375 
Q 5.515625 14.109375 5.515625 27.296875 
Q 5.515625 40.671875 12.859375 48.328125 
Q 20.21875 56 33.015625 56 
Q 37.15625 56 41.109375 55.140625 
Q 45.0625 54.296875 48.78125 52.59375 
z
" id="DejaVuSans-99"/>
     <path d="M 48.6875 27.296875 
Q 48.6875 37.203125 44.609375 42.84375 
Q 40.53125 48.484375 33.40625 48.484375 
Q 26.265625 48.484375 22.1875 42.84375 
Q 18.109375 37.203125 18.109375 27.296875 
Q 18.109375 17.390625 22.1875 11.75 
Q 26.265625 6.109375 33.40625 6.109375 
Q 40.53125 6.109375 44.609375 11.75 
Q 48.6875 17.390625 48.6875 27.296875 
z
M 18.109375 46.390625 
Q 20.953125 51.265625 25.265625 53.625 
Q 29.59375 56 35.59375 56 
Q 45.5625 56 51.78125 48.09375 
Q 58.015625 40.1875 58.015625 27.296875 
Q 58.015625 14.40625 51.78125 6.484375 
Q 45.5625 -1.421875 35.59375 -1.421875 
Q 29.59375 -1.421875 25.265625 0.953125 
Q 20.953125 3.328125 18.109375 8.203125 
L 18.109375 0 
L 9.078125 0 
L 9.078125 75.984375 
L 18.109375 75.984375 
z
" id="DejaVuSans-98"/>
     <path d="M 45.40625 46.390625 
L 45.40625 75.984375 
L 54.390625 75.984375 
L 54.390625 0 
L 45.40625 0 
L 45.40625 8.203125 
Q 42.578125 3.328125 38.25 0.953125 
Q 33.9375 -1.421875 27.875 -1.421875 
Q 17.96875 -1.421875 11.734375 6.484375 
Q 5.515625 14.40625 5.515625 27.296875 
Q 5.515625 40.1875 11.734375 48.09375 
Q 17.96875 56 27.875 56 
Q 33.9375 56 38.25 53.625 
Q 42.578125 51.265625 45.40625 46.390625 
z
M 14.796875 27.296875 
Q 14.796875 17.390625 18.875 11.75 
Q 22.953125 6.109375 30.078125 6.109375 
Q 37.203125 6.109375 41.296875 11.75 
Q 45.40625 17.390625 45.40625 27.296875 
Q 45.40625 37.203125 41.296875 42.84375 
Q 37.203125 48.484375 30.078125 48.484375 
Q 22.953125 48.484375 18.875 42.84375 
Q 14.796875 37.203125 14.796875 27.296875 
z
" id="DejaVuSans-100"/>
    </defs>
    <g transform="translate(139.41765 17.638594)scale(0.12 -0.12)">
     <use xlink:href="#DejaVuSans-82"/>
     <use x="69.419922" xlink:href="#DejaVuSans-101"/>
     <use x="130.943359" xlink:href="#DejaVuSans-116"/>
     <use x="170.152344" xlink:href="#DejaVuSans-114"/>
     <use x="211.265625" xlink:href="#DejaVuSans-97"/>
     <use x="272.544922" xlink:href="#DejaVuSans-115"/>
     <use x="324.644531" xlink:href="#DejaVuSans-111"/>
     <use x="385.826172" xlink:href="#DejaVuSans-32"/>
     <use x="417.613281" xlink:href="#DejaVuSans-101"/>
     <use x="479.136719" xlink:href="#DejaVuSans-110"/>
     <use x="542.515625" xlink:href="#DejaVuSans-32"/>
     <use x="574.302734" xlink:href="#DejaVuSans-112"/>
     <use x="637.779297" xlink:href="#DejaVuSans-97"/>
     <use x="699.058594" xlink:href="#DejaVuSans-113"/>
     <use x="762.535156" xlink:href="#DejaVuSans-117"/>
     <use x="825.914062" xlink:href="#DejaVuSans-101"/>
     <use x="887.4375" xlink:href="#DejaVuSans-116"/>
     <use x="926.646484" xlink:href="#DejaVuSans-101"/>
     <use x="988.169922" xlink:href="#DejaVuSans-115"/>
     <use x="1040.269531" xlink:href="#DejaVuSans-32"/>
     <use x="1072.056641" xlink:href="#DejaVuSans-114"/>
     <use x="1113.138672" xlink:href="#DejaVuSans-101"/>
     <use x="1174.662109" xlink:href="#DejaVuSans-99"/>
     <use x="1229.642578" xlink:href="#DejaVuSans-105"/>
     <use x="1257.425781" xlink:href="#DejaVuSans-98"/>
     <use x="1320.902344" xlink:href="#DejaVuSans-105"/>
     <use x="1348.685547" xlink:href="#DejaVuSans-100"/>
     <use x="1412.162109" xlink:href="#DejaVuSans-111"/>
     <use x="1473.34375" xlink:href="#DejaVuSans-115"/>
    </g>
   </g>
  </g>
 </g>
 <defs>
  <clipPath id="pb9f3613284">
   <rect height="228.044219" width="375.143113" x="43.374219" y="23.638594"/>
  </clipPath>
 </defs>
</svg>
