<?xml version="1.0" encoding="utf-8" standalone="no"?>
<!DOCTYPE svg PUBLIC "-//W3C//DTD SVG 1.1//EN"
  "http://www.w3.org/Graphics/SVG/1.1/DTD/svg11.dtd">
<!-- Created with matplotlib (https://matplotlib.org/) -->
<svg height="288pt" version="1.1" viewBox="0 0 432 288" width="432pt" xmlns="http://www.w3.org/2000/svg" xmlns:xlink="http://www.w3.org/1999/xlink">
 <defs>
  <style type="text/css">
*{stroke-linecap:butt;stroke-linejoin:round;}
  </style>
 </defs>
 <g id="figure_1">
  <g id="patch_1">
   <path d="M 0 288 
L 432 288 
L 432 0 
L 0 0 
z
" style="fill:#ffffff;"/>
  </g>
  <g id="axes_1">
   <g id="patch_2">
    <path d="M 33.830469 251.682812 
L 418.573074 251.682812 
L 418.573074 23.638594 
L 33.830469 23.638594 
z
" style="fill:#ffffff;"/>
   </g>
   <g id="matplotlib.axis_1">
    <g id="xtick_1">
     <g id="line2d_1">
      <path clip-path="url(#p2c1b87c783)" d="M 33.830469 251.682812 
L 33.830469 23.638594 
" style="fill:none;stroke:#b0b0b0;stroke-linecap:square;stroke-width:0.8;"/>
     </g>
     <g id="line2d_2">
      <defs>
       <path d="M 0 0 
L 0 3.5 
" id="m7ca33876de" style="stroke:#000000;stroke-width:0.8;"/>
      </defs>
      <g>
       <use style="stroke:#000000;stroke-width:0.8;" x="33.830469" xlink:href="#m7ca33876de" y="251.682812"/>
      </g>
     </g>
     <g id="text_1">
      <!-- 0 -->
      <defs>
       <path d="M 31.78125 66.40625 
Q 24.171875 66.40625 20.328125 58.90625 
Q 16.5 51.421875 16.5 36.375 
Q 16.5 21.390625 20.328125 13.890625 
Q 24.171875 6.390625 31.78125 6.390625 
Q 39.453125 6.390625 43.28125 13.890625 
Q 47.125 21.390625 47.125 36.375 
Q 47.125 51.421875 43.28125 58.90625 
Q 39.453125 66.40625 31.78125 66.40625 
z
M 31.78125 74.21875 
Q 44.046875 74.21875 50.515625 64.515625 
Q 56.984375 54.828125 56.984375 36.375 
Q 56.984375 17.96875 50.515625 8.265625 
Q 44.046875 -1.421875 31.78125 -1.421875 
Q 19.53125 -1.421875 13.0625 8.265625 
Q 6.59375 17.96875 6.59375 36.375 
Q 6.59375 54.828125 13.0625 64.515625 
Q 19.53125 74.21875 31.78125 74.21875 
z
" id="DejaVuSans-48"/>
      </defs>
      <g transform="translate(30.649219 266.28125)scale(0.1 -0.1)">
       <use xlink:href="#DejaVuSans-48"/>
      </g>
     </g>
    </g>
    <g id="xtick_2">
     <g id="line2d_3">
      <path clip-path="url(#p2c1b87c783)" d="M 81.360774 251.682812 
L 81.360774 23.638594 
" style="fill:none;stroke:#b0b0b0;stroke-linecap:square;stroke-width:0.8;"/>
     </g>
     <g id="line2d_4">
      <g>
       <use style="stroke:#000000;stroke-width:0.8;" x="81.360774" xlink:href="#m7ca33876de" y="251.682812"/>
      </g>
     </g>
     <g id="text_2">
      <!-- 25 -->
      <defs>
       <path d="M 19.1875 8.296875 
L 53.609375 8.296875 
L 53.609375 0 
L 7.328125 0 
L 7.328125 8.296875 
Q 12.9375 14.109375 22.625 23.890625 
Q 32.328125 33.6875 34.8125 36.53125 
Q 39.546875 41.84375 41.421875 45.53125 
Q 43.3125 49.21875 43.3125 52.78125 
Q 43.3125 58.59375 39.234375 62.25 
Q 35.15625 65.921875 28.609375 65.921875 
Q 23.96875 65.921875 18.8125 64.3125 
Q 13.671875 62.703125 7.8125 59.421875 
L 7.8125 69.390625 
Q 13.765625 71.78125 18.9375 73 
Q 24.125 74.21875 28.421875 74.21875 
Q 39.75 74.21875 46.484375 68.546875 
Q 53.21875 62.890625 53.21875 53.421875 
Q 53.21875 48.921875 51.53125 44.890625 
Q 49.859375 40.875 45.40625 35.40625 
Q 44.1875 33.984375 37.640625 27.21875 
Q 31.109375 20.453125 19.1875 8.296875 
z
" id="DejaVuSans-50"/>
       <path d="M 10.796875 72.90625 
L 49.515625 72.90625 
L 49.515625 64.59375 
L 19.828125 64.59375 
L 19.828125 46.734375 
Q 21.96875 47.46875 24.109375 47.828125 
Q 26.265625 48.1875 28.421875 48.1875 
Q 40.625 48.1875 47.75 41.5 
Q 54.890625 34.8125 54.890625 23.390625 
Q 54.890625 11.625 47.5625 5.09375 
Q 40.234375 -1.421875 26.90625 -1.421875 
Q 22.3125 -1.421875 17.546875 -0.640625 
Q 12.796875 0.140625 7.71875 1.703125 
L 7.71875 11.625 
Q 12.109375 9.234375 16.796875 8.0625 
Q 21.484375 6.890625 26.703125 6.890625 
Q 35.15625 6.890625 40.078125 11.328125 
Q 45.015625 15.765625 45.015625 23.390625 
Q 45.015625 31 40.078125 35.4375 
Q 35.15625 39.890625 26.703125 39.890625 
Q 22.75 39.890625 18.8125 39.015625 
Q 14.890625 38.140625 10.796875 36.28125 
z
" id="DejaVuSans-53"/>
      </defs>
      <g transform="translate(74.998274 266.28125)scale(0.1 -0.1)">
       <use xlink:href="#DejaVuSans-50"/>
       <use x="63.623047" xlink:href="#DejaVuSans-53"/>
      </g>
     </g>
    </g>
    <g id="xtick_3">
     <g id="line2d_5">
      <path clip-path="url(#p2c1b87c783)" d="M 128.89108 251.682812 
L 128.89108 23.638594 
" style="fill:none;stroke:#b0b0b0;stroke-linecap:square;stroke-width:0.8;"/>
     </g>
     <g id="line2d_6">
      <g>
       <use style="stroke:#000000;stroke-width:0.8;" x="128.89108" xlink:href="#m7ca33876de" y="251.682812"/>
      </g>
     </g>
     <g id="text_3">
      <!-- 50 -->
      <g transform="translate(122.52858 266.28125)scale(0.1 -0.1)">
       <use xlink:href="#DejaVuSans-53"/>
       <use x="63.623047" xlink:href="#DejaVuSans-48"/>
      </g>
     </g>
    </g>
    <g id="xtick_4">
     <g id="line2d_7">
      <path clip-path="url(#p2c1b87c783)" d="M 176.421386 251.682812 
L 176.421386 23.638594 
" style="fill:none;stroke:#b0b0b0;stroke-linecap:square;stroke-width:0.8;"/>
     </g>
     <g id="line2d_8">
      <g>
       <use style="stroke:#000000;stroke-width:0.8;" x="176.421386" xlink:href="#m7ca33876de" y="251.682812"/>
      </g>
     </g>
     <g id="text_4">
      <!-- 75 -->
      <defs>
       <path d="M 8.203125 72.90625 
L 55.078125 72.90625 
L 55.078125 68.703125 
L 28.609375 0 
L 18.3125 0 
L 43.21875 64.59375 
L 8.203125 64.59375 
z
" id="DejaVuSans-55"/>
      </defs>
      <g transform="translate(170.058886 266.28125)scale(0.1 -0.1)">
       <use xlink:href="#DejaVuSans-55"/>
       <use x="63.623047" xlink:href="#DejaVuSans-53"/>
      </g>
     </g>
    </g>
    <g id="xtick_5">
     <g id="line2d_9">
      <path clip-path="url(#p2c1b87c783)" d="M 223.951691 251.682812 
L 223.951691 23.638594 
" style="fill:none;stroke:#b0b0b0;stroke-linecap:square;stroke-width:0.8;"/>
     </g>
     <g id="line2d_10">
      <g>
       <use style="stroke:#000000;stroke-width:0.8;" x="223.951691" xlink:href="#m7ca33876de" y="251.682812"/>
      </g>
     </g>
     <g id="text_5">
      <!-- 100 -->
      <defs>
       <path d="M 12.40625 8.296875 
L 28.515625 8.296875 
L 28.515625 63.921875 
L 10.984375 60.40625 
L 10.984375 69.390625 
L 28.421875 72.90625 
L 38.28125 72.90625 
L 38.28125 8.296875 
L 54.390625 8.296875 
L 54.390625 0 
L 12.40625 0 
z
" id="DejaVuSans-49"/>
      </defs>
      <g transform="translate(214.407941 266.28125)scale(0.1 -0.1)">
       <use xlink:href="#DejaVuSans-49"/>
       <use x="63.623047" xlink:href="#DejaVuSans-48"/>
       <use x="127.246094" xlink:href="#DejaVuSans-48"/>
      </g>
     </g>
    </g>
    <g id="xtick_6">
     <g id="line2d_11">
      <path clip-path="url(#p2c1b87c783)" d="M 271.481997 251.682812 
L 271.481997 23.638594 
" style="fill:none;stroke:#b0b0b0;stroke-linecap:square;stroke-width:0.8;"/>
     </g>
     <g id="line2d_12">
      <g>
       <use style="stroke:#000000;stroke-width:0.8;" x="271.481997" xlink:href="#m7ca33876de" y="251.682812"/>
      </g>
     </g>
     <g id="text_6">
      <!-- 125 -->
      <g transform="translate(261.938247 266.28125)scale(0.1 -0.1)">
       <use xlink:href="#DejaVuSans-49"/>
       <use x="63.623047" xlink:href="#DejaVuSans-50"/>
       <use x="127.246094" xlink:href="#DejaVuSans-53"/>
      </g>
     </g>
    </g>
    <g id="xtick_7">
     <g id="line2d_13">
      <path clip-path="url(#p2c1b87c783)" d="M 319.012302 251.682812 
L 319.012302 23.638594 
" style="fill:none;stroke:#b0b0b0;stroke-linecap:square;stroke-width:0.8;"/>
     </g>
     <g id="line2d_14">
      <g>
       <use style="stroke:#000000;stroke-width:0.8;" x="319.012302" xlink:href="#m7ca33876de" y="251.682812"/>
      </g>
     </g>
     <g id="text_7">
      <!-- 150 -->
      <g transform="translate(309.468552 266.28125)scale(0.1 -0.1)">
       <use xlink:href="#DejaVuSans-49"/>
       <use x="63.623047" xlink:href="#DejaVuSans-53"/>
       <use x="127.246094" xlink:href="#DejaVuSans-48"/>
      </g>
     </g>
    </g>
    <g id="xtick_8">
     <g id="line2d_15">
      <path clip-path="url(#p2c1b87c783)" d="M 366.542608 251.682812 
L 366.542608 23.638594 
" style="fill:none;stroke:#b0b0b0;stroke-linecap:square;stroke-width:0.8;"/>
     </g>
     <g id="line2d_16">
      <g>
       <use style="stroke:#000000;stroke-width:0.8;" x="366.542608" xlink:href="#m7ca33876de" y="251.682812"/>
      </g>
     </g>
     <g id="text_8">
      <!-- 175 -->
      <g transform="translate(356.998858 266.28125)scale(0.1 -0.1)">
       <use xlink:href="#DejaVuSans-49"/>
       <use x="63.623047" xlink:href="#DejaVuSans-55"/>
       <use x="127.246094" xlink:href="#DejaVuSans-53"/>
      </g>
     </g>
    </g>
    <g id="xtick_9">
     <g id="line2d_17">
      <path clip-path="url(#p2c1b87c783)" d="M 414.072913 251.682812 
L 414.072913 23.638594 
" style="fill:none;stroke:#b0b0b0;stroke-linecap:square;stroke-width:0.8;"/>
     </g>
     <g id="line2d_18">
      <g>
       <use style="stroke:#000000;stroke-width:0.8;" x="414.072913" xlink:href="#m7ca33876de" y="251.682812"/>
      </g>
     </g>
     <g id="text_9">
      <!-- 200 -->
      <g transform="translate(404.529163 266.28125)scale(0.1 -0.1)">
       <use xlink:href="#DejaVuSans-50"/>
       <use x="63.623047" xlink:href="#DejaVuSans-48"/>
       <use x="127.246094" xlink:href="#DejaVuSans-48"/>
      </g>
     </g>
    </g>
    <g id="text_10">
     <!-- Tiempo -->
     <defs>
      <path d="M -0.296875 72.90625 
L 61.375 72.90625 
L 61.375 64.59375 
L 35.5 64.59375 
L 35.5 0 
L 25.59375 0 
L 25.59375 64.59375 
L -0.296875 64.59375 
z
" id="DejaVuSans-84"/>
      <path d="M 9.421875 54.6875 
L 18.40625 54.6875 
L 18.40625 0 
L 9.421875 0 
z
M 9.421875 75.984375 
L 18.40625 75.984375 
L 18.40625 64.59375 
L 9.421875 64.59375 
z
" id="DejaVuSans-105"/>
      <path d="M 56.203125 29.59375 
L 56.203125 25.203125 
L 14.890625 25.203125 
Q 15.484375 15.921875 20.484375 11.0625 
Q 25.484375 6.203125 34.421875 6.203125 
Q 39.59375 6.203125 44.453125 7.46875 
Q 49.3125 8.734375 54.109375 11.28125 
L 54.109375 2.78125 
Q 49.265625 0.734375 44.1875 -0.34375 
Q 39.109375 -1.421875 33.890625 -1.421875 
Q 20.796875 -1.421875 13.15625 6.1875 
Q 5.515625 13.8125 5.515625 26.8125 
Q 5.515625 40.234375 12.765625 48.109375 
Q 20.015625 56 32.328125 56 
Q 43.359375 56 49.78125 48.890625 
Q 56.203125 41.796875 56.203125 29.59375 
z
M 47.21875 32.234375 
Q 47.125 39.59375 43.09375 43.984375 
Q 39.0625 48.390625 32.421875 48.390625 
Q 24.90625 48.390625 20.390625 44.140625 
Q 15.875 39.890625 15.1875 32.171875 
z
" id="DejaVuSans-101"/>
      <path d="M 52 44.1875 
Q 55.375 50.25 60.0625 53.125 
Q 64.75 56 71.09375 56 
Q 79.640625 56 84.28125 50.015625 
Q 88.921875 44.046875 88.921875 33.015625 
L 88.921875 0 
L 79.890625 0 
L 79.890625 32.71875 
Q 79.890625 40.578125 77.09375 44.375 
Q 74.3125 48.1875 68.609375 48.1875 
Q 61.625 48.1875 57.5625 43.546875 
Q 53.515625 38.921875 53.515625 30.90625 
L 53.515625 0 
L 44.484375 0 
L 44.484375 32.71875 
Q 44.484375 40.625 41.703125 44.40625 
Q 38.921875 48.1875 33.109375 48.1875 
Q 26.21875 48.1875 22.15625 43.53125 
Q 18.109375 38.875 18.109375 30.90625 
L 18.109375 0 
L 9.078125 0 
L 9.078125 54.6875 
L 18.109375 54.6875 
L 18.109375 46.1875 
Q 21.1875 51.21875 25.484375 53.609375 
Q 29.78125 56 35.6875 56 
Q 41.65625 56 45.828125 52.96875 
Q 50 49.953125 52 44.1875 
z
" id="DejaVuSans-109"/>
      <path d="M 18.109375 8.203125 
L 18.109375 -20.796875 
L 9.078125 -20.796875 
L 9.078125 54.6875 
L 18.109375 54.6875 
L 18.109375 46.390625 
Q 20.953125 51.265625 25.265625 53.625 
Q 29.59375 56 35.59375 56 
Q 45.5625 56 51.78125 48.09375 
Q 58.015625 40.1875 58.015625 27.296875 
Q 58.015625 14.40625 51.78125 6.484375 
Q 45.5625 -1.421875 35.59375 -1.421875 
Q 29.59375 -1.421875 25.265625 0.953125 
Q 20.953125 3.328125 18.109375 8.203125 
z
M 48.6875 27.296875 
Q 48.6875 37.203125 44.609375 42.84375 
Q 40.53125 48.484375 33.40625 48.484375 
Q 26.265625 48.484375 22.1875 42.84375 
Q 18.109375 37.203125 18.109375 27.296875 
Q 18.109375 17.390625 22.1875 11.75 
Q 26.265625 6.109375 33.40625 6.109375 
Q 40.53125 6.109375 44.609375 11.75 
Q 48.6875 17.390625 48.6875 27.296875 
z
" id="DejaVuSans-112"/>
      <path d="M 30.609375 48.390625 
Q 23.390625 48.390625 19.1875 42.75 
Q 14.984375 37.109375 14.984375 27.296875 
Q 14.984375 17.484375 19.15625 11.84375 
Q 23.34375 6.203125 30.609375 6.203125 
Q 37.796875 6.203125 41.984375 11.859375 
Q 46.1875 17.53125 46.1875 27.296875 
Q 46.1875 37.015625 41.984375 42.703125 
Q 37.796875 48.390625 30.609375 48.390625 
z
M 30.609375 56 
Q 42.328125 56 49.015625 48.375 
Q 55.71875 40.765625 55.71875 27.296875 
Q 55.71875 13.875 49.015625 6.21875 
Q 42.328125 -1.421875 30.609375 -1.421875 
Q 18.84375 -1.421875 12.171875 6.21875 
Q 5.515625 13.875 5.515625 27.296875 
Q 5.515625 40.765625 12.171875 48.375 
Q 18.84375 56 30.609375 56 
z
" id="DejaVuSans-111"/>
     </defs>
     <g transform="translate(207.580677 279.959375)scale(0.1 -0.1)">
      <use xlink:href="#DejaVuSans-84"/>
      <use x="61.037109" xlink:href="#DejaVuSans-105"/>
      <use x="88.820312" xlink:href="#DejaVuSans-101"/>
      <use x="150.34375" xlink:href="#DejaVuSans-109"/>
      <use x="247.755859" xlink:href="#DejaVuSans-112"/>
      <use x="311.232422" xlink:href="#DejaVuSans-111"/>
     </g>
    </g>
   </g>
   <g id="matplotlib.axis_2">
    <g id="ytick_1">
     <g id="line2d_19">
      <path clip-path="url(#p2c1b87c783)" d="M 33.830469 251.682812 
L 418.573074 251.682812 
" style="fill:none;stroke:#b0b0b0;stroke-linecap:square;stroke-width:0.8;"/>
     </g>
     <g id="line2d_20">
      <defs>
       <path d="M 0 0 
L -3.5 0 
" id="m9190958417" style="stroke:#000000;stroke-width:0.8;"/>
      </defs>
      <g>
       <use style="stroke:#000000;stroke-width:0.8;" x="33.830469" xlink:href="#m9190958417" y="251.682812"/>
      </g>
     </g>
     <g id="text_11">
      <!-- 0 -->
      <g transform="translate(20.467969 255.482031)scale(0.1 -0.1)">
       <use xlink:href="#DejaVuSans-48"/>
      </g>
     </g>
    </g>
    <g id="ytick_2">
     <g id="line2d_21">
      <path clip-path="url(#p2c1b87c783)" d="M 33.830469 201.346336 
L 418.573074 201.346336 
" style="fill:none;stroke:#b0b0b0;stroke-linecap:square;stroke-width:0.8;"/>
     </g>
     <g id="line2d_22">
      <g>
       <use style="stroke:#000000;stroke-width:0.8;" x="33.830469" xlink:href="#m9190958417" y="201.346336"/>
      </g>
     </g>
     <g id="text_12">
      <!-- 2 -->
      <g transform="translate(20.467969 205.145555)scale(0.1 -0.1)">
       <use xlink:href="#DejaVuSans-50"/>
      </g>
     </g>
    </g>
    <g id="ytick_3">
     <g id="line2d_23">
      <path clip-path="url(#p2c1b87c783)" d="M 33.830469 151.00986 
L 418.573074 151.00986 
" style="fill:none;stroke:#b0b0b0;stroke-linecap:square;stroke-width:0.8;"/>
     </g>
     <g id="line2d_24">
      <g>
       <use style="stroke:#000000;stroke-width:0.8;" x="33.830469" xlink:href="#m9190958417" y="151.00986"/>
      </g>
     </g>
     <g id="text_13">
      <!-- 4 -->
      <defs>
       <path d="M 37.796875 64.3125 
L 12.890625 25.390625 
L 37.796875 25.390625 
z
M 35.203125 72.90625 
L 47.609375 72.90625 
L 47.609375 25.390625 
L 58.015625 25.390625 
L 58.015625 17.1875 
L 47.609375 17.1875 
L 47.609375 0 
L 37.796875 0 
L 37.796875 17.1875 
L 4.890625 17.1875 
L 4.890625 26.703125 
z
" id="DejaVuSans-52"/>
      </defs>
      <g transform="translate(20.467969 154.809079)scale(0.1 -0.1)">
       <use xlink:href="#DejaVuSans-52"/>
      </g>
     </g>
    </g>
    <g id="ytick_4">
     <g id="line2d_25">
      <path clip-path="url(#p2c1b87c783)" d="M 33.830469 100.673384 
L 418.573074 100.673384 
" style="fill:none;stroke:#b0b0b0;stroke-linecap:square;stroke-width:0.8;"/>
     </g>
     <g id="line2d_26">
      <g>
       <use style="stroke:#000000;stroke-width:0.8;" x="33.830469" xlink:href="#m9190958417" y="100.673384"/>
      </g>
     </g>
     <g id="text_14">
      <!-- 6 -->
      <defs>
       <path d="M 33.015625 40.375 
Q 26.375 40.375 22.484375 35.828125 
Q 18.609375 31.296875 18.609375 23.390625 
Q 18.609375 15.53125 22.484375 10.953125 
Q 26.375 6.390625 33.015625 6.390625 
Q 39.65625 6.390625 43.53125 10.953125 
Q 47.40625 15.53125 47.40625 23.390625 
Q 47.40625 31.296875 43.53125 35.828125 
Q 39.65625 40.375 33.015625 40.375 
z
M 52.59375 71.296875 
L 52.59375 62.3125 
Q 48.875 64.0625 45.09375 64.984375 
Q 41.3125 65.921875 37.59375 65.921875 
Q 27.828125 65.921875 22.671875 59.328125 
Q 17.53125 52.734375 16.796875 39.40625 
Q 19.671875 43.65625 24.015625 45.921875 
Q 28.375 48.1875 33.59375 48.1875 
Q 44.578125 48.1875 50.953125 41.515625 
Q 57.328125 34.859375 57.328125 23.390625 
Q 57.328125 12.15625 50.6875 5.359375 
Q 44.046875 -1.421875 33.015625 -1.421875 
Q 20.359375 -1.421875 13.671875 8.265625 
Q 6.984375 17.96875 6.984375 36.375 
Q 6.984375 53.65625 15.1875 63.9375 
Q 23.390625 74.21875 37.203125 74.21875 
Q 40.921875 74.21875 44.703125 73.484375 
Q 48.484375 72.75 52.59375 71.296875 
z
" id="DejaVuSans-54"/>
      </defs>
      <g transform="translate(20.467969 104.472602)scale(0.1 -0.1)">
       <use xlink:href="#DejaVuSans-54"/>
      </g>
     </g>
    </g>
    <g id="ytick_5">
     <g id="line2d_27">
      <path clip-path="url(#p2c1b87c783)" d="M 33.830469 50.336907 
L 418.573074 50.336907 
" style="fill:none;stroke:#b0b0b0;stroke-linecap:square;stroke-width:0.8;"/>
     </g>
     <g id="line2d_28">
      <g>
       <use style="stroke:#000000;stroke-width:0.8;" x="33.830469" xlink:href="#m9190958417" y="50.336907"/>
      </g>
     </g>
     <g id="text_15">
      <!-- 8 -->
      <defs>
       <path d="M 31.78125 34.625 
Q 24.75 34.625 20.71875 30.859375 
Q 16.703125 27.09375 16.703125 20.515625 
Q 16.703125 13.921875 20.71875 10.15625 
Q 24.75 6.390625 31.78125 6.390625 
Q 38.8125 6.390625 42.859375 10.171875 
Q 46.921875 13.96875 46.921875 20.515625 
Q 46.921875 27.09375 42.890625 30.859375 
Q 38.875 34.625 31.78125 34.625 
z
M 21.921875 38.8125 
Q 15.578125 40.375 12.03125 44.71875 
Q 8.5 49.078125 8.5 55.328125 
Q 8.5 64.0625 14.71875 69.140625 
Q 20.953125 74.21875 31.78125 74.21875 
Q 42.671875 74.21875 48.875 69.140625 
Q 55.078125 64.0625 55.078125 55.328125 
Q 55.078125 49.078125 51.53125 44.71875 
Q 48 40.375 41.703125 38.8125 
Q 48.828125 37.15625 52.796875 32.3125 
Q 56.78125 27.484375 56.78125 20.515625 
Q 56.78125 9.90625 50.3125 4.234375 
Q 43.84375 -1.421875 31.78125 -1.421875 
Q 19.734375 -1.421875 13.25 4.234375 
Q 6.78125 9.90625 6.78125 20.515625 
Q 6.78125 27.484375 10.78125 32.3125 
Q 14.796875 37.15625 21.921875 38.8125 
z
M 18.3125 54.390625 
Q 18.3125 48.734375 21.84375 45.5625 
Q 25.390625 42.390625 31.78125 42.390625 
Q 38.140625 42.390625 41.71875 45.5625 
Q 45.3125 48.734375 45.3125 54.390625 
Q 45.3125 60.0625 41.71875 63.234375 
Q 38.140625 66.40625 31.78125 66.40625 
Q 25.390625 66.40625 21.84375 63.234375 
Q 18.3125 60.0625 18.3125 54.390625 
z
" id="DejaVuSans-56"/>
      </defs>
      <g transform="translate(20.467969 54.136126)scale(0.1 -0.1)">
       <use xlink:href="#DejaVuSans-56"/>
      </g>
     </g>
    </g>
    <g id="text_16">
     <!-- Tiempo -->
     <g transform="translate(14.388281 156.281797)rotate(-90)scale(0.1 -0.1)">
      <use xlink:href="#DejaVuSans-84"/>
      <use x="61.037109" xlink:href="#DejaVuSans-105"/>
      <use x="88.820312" xlink:href="#DejaVuSans-101"/>
      <use x="150.34375" xlink:href="#DejaVuSans-109"/>
      <use x="247.755859" xlink:href="#DejaVuSans-112"/>
      <use x="311.232422" xlink:href="#DejaVuSans-111"/>
     </g>
    </g>
   </g>
   <g id="line2d_29">
    <path clip-path="url(#p2c1b87c783)" d="M 34.941489 240.981278 
L 35.321732 240.470666 
L 35.760718 240.981278 
L 36.467819 240.981278 
L 36.848061 240.59481 
L 37.560928 240.981278 
L 37.94117 239.910123 
L 38.574717 240.981278 
L 38.954959 238.721414 
L 39.335202 238.605672 
L 39.715444 238.797753 
L 40.856172 230.813414 
L 41.236414 236.972205 
L 41.616657 232.232445 
L 42.216239 240.981278 
L 42.976724 234.950758 
L 43.356966 233.186194 
L 44.117451 239.433491 
L 44.497694 238.18854 
L 44.877936 236.446306 
L 45.258178 235.638068 
L 45.638421 233.115566 
L 46.03221 240.981278 
L 46.719829 240.981278 
L 47.100072 236.318536 
L 47.480314 233.356627 
L 47.860557 228.781852 
L 48.240799 229.006416 
L 48.621041 224.075583 
L 49.001284 221.353629 
L 49.381526 225.317564 
L 49.761769 236.140762 
L 50.142011 238.686702 
L 50.522254 234.414297 
L 50.902496 239.650872 
L 51.578031 240.981278 
L 53.040147 240.981278 
L 53.42039 239.177768 
L 53.894533 240.981278 
L 54.508245 240.981278 
L 54.888487 239.063103 
L 55.26873 237.729007 
L 55.648972 240.329067 
L 56.031636 240.981278 
L 56.411879 236.581237 
L 56.792121 237.966637 
L 57.172364 238.074517 
L 57.552606 237.431827 
L 57.932849 233.177034 
L 58.313091 232.023497 
L 58.737 240.981278 
L 59.277464 240.981278 
L 59.657706 239.661593 
L 60.037949 235.191443 
L 61.178676 227.563155 
L 61.558918 223.567462 
L 61.939161 226.025165 
L 62.319403 227.712897 
L 62.699646 225.745156 
L 63.079888 221.939962 
L 63.460131 221.136264 
L 64.600858 208.834116 
L 64.9811 208.639722 
L 65.361343 204.422212 
L 65.741585 204.155412 
L 66.121828 200.387434 
L 66.50207 200.183813 
L 66.882313 197.60939 
L 67.642797 213.751434 
L 68.02304 214.482012 
L 68.403282 212.457208 
L 68.783525 209.666143 
L 69.163767 209.411917 
L 69.54401 207.270263 
L 69.924252 213.946646 
L 70.304495 214.933784 
L 71.064979 205.70548 
L 71.445222 218.290674 
L 71.825464 218.788565 
L 72.205707 219.084715 
L 72.585949 219.641424 
L 73.346434 211.706547 
L 73.726677 208.904839 
L 74.106919 204.565979 
L 74.487161 206.524282 
L 74.867404 203.398196 
L 75.247646 203.076352 
L 76.008131 197.26357 
L 76.388374 196.480474 
L 76.768616 191.64406 
L 77.148859 189.51646 
L 77.529101 189.546013 
L 77.909343 206.934732 
L 78.289586 217.973253 
L 78.669828 213.481403 
L 79.050071 213.77248 
L 79.430313 209.918224 
L 79.810556 209.95859 
L 80.190798 205.810429 
L 80.571041 227.757638 
L 80.951283 228.053328 
L 81.331525 227.408598 
L 81.711768 223.845181 
L 82.472253 219.632049 
L 82.852495 217.838968 
L 83.232738 214.216136 
L 83.61298 214.099678 
L 84.753707 202.535296 
L 85.13395 203.155282 
L 85.514192 203.497933 
L 85.894435 200.384903 
L 86.274677 196.099821 
L 86.65492 198.650045 
L 87.035162 194.718165 
L 87.415405 204.720978 
L 87.795647 202.002879 
L 88.175889 202.437129 
L 88.556132 206.063024 
L 89.316617 196.578673 
L 89.696859 196.453345 
L 90.077102 200.580025 
L 90.457344 201.183128 
L 90.837587 196.658054 
L 91.598071 223.450246 
L 91.978314 229.014044 
L 92.738799 225.716603 
L 93.119041 239.619172 
L 93.499284 234.874088 
L 93.879526 234.514074 
L 94.259769 232.500348 
L 94.640011 234.233157 
L 95.400496 224.468718 
L 95.780738 222.369075 
L 96.160981 219.008664 
L 96.541223 233.563809 
L 96.921466 229.174754 
L 98.062193 221.383884 
L 98.442435 216.986433 
L 98.822678 217.826415 
L 99.20292 214.719149 
L 99.583163 220.378163 
L 99.963405 218.036935 
L 100.343648 225.607097 
L 101.104133 217.10372 
L 101.484375 218.005697 
L 102.24486 216.339263 
L 102.625102 221.389222 
L 103.005345 217.908026 
L 103.76583 215.149622 
L 104.146072 222.62752 
L 104.526315 218.090443 
L 104.906557 225.843793 
L 105.286799 225.12849 
L 105.667042 220.531615 
L 106.047284 228.833388 
L 106.807769 222.334449 
L 107.188012 217.348121 
L 107.568254 217.855744 
L 107.948497 222.120893 
L 108.328739 217.798654 
L 108.708981 218.008963 
L 109.089224 219.317378 
L 109.469466 223.552098 
L 110.990436 210.256837 
L 111.370679 209.66855 
L 111.750921 208.685969 
L 112.511406 199.628246 
L 112.891648 203.482717 
L 113.271891 200.77326 
L 114.032376 191.526691 
L 114.412618 192.194324 
L 114.792861 191.40446 
L 115.173103 187.95501 
L 115.553345 189.044838 
L 115.933588 190.699689 
L 116.31383 187.379227 
L 116.694073 198.831496 
L 117.074315 196.656478 
L 117.454558 193.062559 
L 117.8348 195.131511 
L 118.215043 194.418711 
L 118.595285 191.923753 
L 118.975527 191.403228 
L 119.35577 197.764417 
L 119.736012 197.005448 
L 120.116255 197.099369 
L 120.496497 193.336315 
L 120.87674 199.48495 
L 121.256982 209.815413 
L 121.637225 210.51815 
L 122.397709 206.435879 
L 122.777952 210.832569 
L 123.158194 225.143262 
L 123.538437 226.16126 
L 124.298922 218.492733 
L 124.679164 220.792197 
L 125.059407 224.219719 
L 125.819891 219.36598 
L 126.200134 219.996606 
L 126.580376 225.682108 
L 126.960619 222.095183 
L 127.340861 221.443506 
L 127.721104 218.301195 
L 128.101346 224.013532 
L 128.481589 235.91494 
L 128.861831 236.81789 
L 129.242073 236.253424 
L 129.622316 237.722792 
L 130.002558 238.114586 
L 130.763043 235.384674 
L 131.528711 240.981278 
L 131.908953 237.266734 
L 132.289196 237.431822 
L 133.049681 232.668516 
L 133.429923 232.489588 
L 133.810165 232.149328 
L 134.190408 230.357876 
L 134.57065 225.421779 
L 134.950893 223.585141 
L 135.331135 220.358206 
L 135.711378 221.66214 
L 136.09162 222.06141 
L 137.232347 212.829197 
L 137.61259 212.639807 
L 137.992832 214.567589 
L 138.373075 212.352588 
L 138.753317 217.927089 
L 140.274287 201.342569 
L 140.654529 200.556758 
L 141.034772 197.722956 
L 141.415014 197.188026 
L 142.175499 195.459631 
L 142.555742 190.598151 
L 142.935984 190.895183 
L 143.316227 203.341056 
L 143.696469 203.622183 
L 144.837196 194.570789 
L 145.217439 200.956645 
L 145.597681 196.68959 
L 145.977924 193.962224 
L 146.358166 189.443622 
L 146.738409 187.291544 
L 147.118651 203.086173 
L 147.498893 209.251961 
L 147.879136 205.73629 
L 148.259378 208.962343 
L 148.639621 207.804991 
L 149.019863 208.89739 
L 149.400106 206.854099 
L 150.160591 197.846359 
L 150.540833 205.49389 
L 150.921075 202.646585 
L 151.301318 203.918123 
L 151.68156 202.073103 
L 152.061803 231.094047 
L 152.442045 235.320966 
L 152.822288 231.102115 
L 153.20253 237.898432 
L 153.739988 240.981278 
L 154.500473 231.99928 
L 154.880715 230.539109 
L 155.260958 230.317459 
L 156.021443 221.834365 
L 156.401685 224.400637 
L 157.542412 237.149026 
L 157.922655 234.783226 
L 158.302897 233.987311 
L 158.68314 229.712692 
L 159.063382 227.310988 
L 159.823867 217.774552 
L 160.20411 233.126406 
L 160.584352 234.110175 
L 161.344837 229.436794 
L 161.725079 227.145765 
L 162.105322 228.556869 
L 162.485564 223.784531 
L 162.865807 228.882472 
L 163.246049 226.13869 
L 163.626292 239.779677 
L 164.006534 234.830432 
L 164.386777 239.544832 
L 164.767019 235.831658 
L 165.147261 230.857323 
L 165.527504 233.11136 
L 165.907746 230.323992 
L 166.287989 239.810463 
L 166.697396 240.981278 
L 167.224523 240.981278 
L 167.985008 233.948806 
L 168.745493 230.971865 
L 169.125735 226.219448 
L 169.505978 223.269624 
L 170.266462 215.321337 
L 171.026947 206.292052 
L 171.40719 209.203578 
L 171.787432 207.303866 
L 172.167675 203.546277 
L 172.547917 208.962638 
L 172.92816 206.061531 
L 173.688644 223.763678 
L 174.068887 223.447256 
L 174.449129 224.548602 
L 174.829372 224.085325 
L 175.209614 219.21455 
L 175.589857 221.886568 
L 175.970099 217.758762 
L 176.350342 216.214438 
L 176.730584 216.070889 
L 177.110826 211.297395 
L 177.491069 210.597334 
L 177.871311 211.60895 
L 178.251554 207.942784 
L 178.631796 227.468972 
L 179.012039 236.133633 
L 179.392281 232.665287 
L 179.772524 232.422815 
L 180.152766 233.110394 
L 180.533008 231.937955 
L 180.913251 236.957367 
L 181.293493 236.410605 
L 182.053978 239.931452 
L 183.243899 240.981278 
L 183.624141 237.829643 
L 184.004383 236.863082 
L 184.384626 234.385849 
L 186.285838 215.15111 
L 186.666081 224.660051 
L 187.046323 223.869661 
L 187.426565 225.608019 
L 188.18705 221.963273 
L 188.567293 234.620273 
L 188.947535 230.88537 
L 189.327778 231.595809 
L 190.088263 223.454699 
L 190.848747 213.980636 
L 191.989475 206.997361 
L 192.369717 212.678689 
L 192.74996 213.644435 
L 193.130202 227.470328 
L 193.510445 224.824725 
L 193.890687 224.630625 
L 194.270929 220.593477 
L 194.651172 219.49602 
L 195.031414 214.588155 
L 195.411657 219.261192 
L 195.791899 214.577976 
L 196.172142 216.399812 
L 196.552384 217.092133 
L 197.312869 213.346152 
L 197.693111 214.002316 
L 198.073354 212.840147 
L 198.453596 212.50823 
L 198.833839 218.900157 
L 199.214081 220.179727 
L 199.594324 238.500455 
L 199.974566 236.657788 
L 200.354809 232.854822 
L 200.735051 230.885824 
L 201.115294 231.328304 
L 201.495536 238.218956 
L 202.256021 230.432914 
L 203.016506 221.781175 
L 203.396748 223.897237 
L 203.776991 229.603195 
L 204.157233 226.510963 
L 204.537476 233.295534 
L 204.917718 230.696352 
L 205.29796 230.886875 
L 205.678203 230.3206 
L 206.058445 227.263026 
L 206.438688 231.179926 
L 206.81893 229.837793 
L 207.199173 229.795028 
L 207.579415 224.761659 
L 207.959658 230.10146 
L 209.100385 221.280036 
L 209.480627 224.298813 
L 209.86087 230.166856 
L 210.241112 226.166857 
L 210.621355 226.866824 
L 211.001597 237.201832 
L 211.38184 235.233901 
L 211.762082 236.054955 
L 212.142324 234.346048 
L 212.522567 230.534159 
L 212.902809 233.326137 
L 213.444155 240.981278 
L 213.824398 237.259601 
L 214.20464 238.832656 
L 214.849491 240.981278 
L 215.990219 230.457452 
L 216.395709 240.981278 
L 216.775952 239.623339 
L 217.156194 237.802108 
L 217.536437 232.899324 
L 217.916679 234.124266 
L 218.677164 226.067408 
L 219.057406 223.816553 
L 219.437649 225.381879 
L 219.817891 222.707383 
L 220.198134 222.904731 
L 220.578376 221.006186 
L 221.719103 209.798738 
L 222.099346 209.213756 
L 222.479588 212.475943 
L 222.859831 217.479586 
L 223.240073 219.365593 
L 223.620316 214.961315 
L 224.000558 215.582772 
L 224.380801 214.216257 
L 225.141285 206.493842 
L 225.521528 202.42797 
L 226.282013 204.848209 
L 227.042498 200.450396 
L 227.42274 199.61168 
L 227.802983 203.816102 
L 229.323952 187.549634 
L 229.704195 185.886218 
L 230.084437 181.52376 
L 230.46468 178.702176 
L 230.844922 180.113733 
L 231.225165 189.278173 
L 231.605407 184.400197 
L 232.365892 188.547408 
L 232.746134 190.465042 
L 233.126377 185.920503 
L 233.506619 192.668067 
L 234.267104 184.273486 
L 234.647347 186.202966 
L 235.027589 185.21331 
L 235.407831 186.802061 
L 235.788074 186.189039 
L 236.168316 181.390401 
L 236.548559 192.809212 
L 237.689286 182.33082 
L 238.069529 178.684083 
L 238.449771 179.34308 
L 239.590498 165.185272 
L 239.970741 164.234623 
L 240.350983 172.55302 
L 240.731226 167.5661 
L 241.111468 168.111796 
L 241.491711 172.088326 
L 241.871953 174.795566 
L 242.252195 190.681612 
L 242.632438 187.313649 
L 243.01268 188.399358 
L 243.392923 187.80982 
L 244.153408 179.084164 
L 244.913893 175.978677 
L 245.294135 175.317083 
L 245.674377 189.381214 
L 246.05462 192.144745 
L 246.434862 197.639257 
L 246.815105 197.300048 
L 247.57559 190.55066 
L 247.955832 201.921272 
L 248.336075 199.944455 
L 248.716317 196.237561 
L 249.096559 201.829384 
L 249.476802 211.807084 
L 249.857044 210.185253 
L 250.237287 219.430252 
L 250.617529 220.725093 
L 250.997772 223.772759 
L 251.378014 222.090728 
L 251.758257 222.067893 
L 252.138499 223.240131 
L 252.518741 228.645068 
L 252.898984 227.081791 
L 253.279226 223.793577 
L 254.039711 232.610179 
L 254.419954 228.664284 
L 254.800196 228.473065 
L 255.180439 230.910571 
L 255.560681 225.943998 
L 255.940923 239.331776 
L 256.321166 236.445159 
L 256.732432 240.981278 
L 257.112675 236.754695 
L 257.492917 239.352405 
L 258.893864 240.981278 
L 260.49159 240.981278 
L 260.871832 239.223515 
L 261.271647 240.981278 
L 261.651889 239.410495 
L 262.032132 234.397266 
L 262.412374 234.49888 
L 263.172859 228.326567 
L 263.553101 225.953037 
L 263.933344 221.660469 
L 264.313586 219.440669 
L 264.693829 223.098285 
L 265.834556 213.417798 
L 266.214798 211.98847 
L 266.975283 203.847006 
L 267.355526 218.684354 
L 267.735768 214.169012 
L 268.116011 211.758292 
L 268.496253 216.700782 
L 268.876496 215.906152 
L 269.256738 229.038641 
L 269.63698 226.124126 
L 270.017223 237.39931 
L 270.397465 240.194466 
L 271.239352 240.981278 
L 271.619594 238.61527 
L 272.006449 240.981278 
L 273.147177 232.727722 
L 273.527419 228.119817 
L 274.287904 222.493516 
L 274.668146 224.973253 
L 275.048389 221.269849 
L 275.428631 229.356766 
L 276.569359 217.22837 
L 276.949601 227.57181 
L 277.329844 229.047413 
L 278.090328 219.108676 
L 278.470571 217.9128 
L 278.850813 220.28971 
L 279.231056 217.084495 
L 279.611298 212.850861 
L 279.991541 218.611295 
L 281.132268 205.852254 
L 281.892753 207.091871 
L 282.272995 210.429007 
L 282.653238 206.812452 
L 283.413723 202.34032 
L 283.793965 204.327951 
L 284.174208 203.396819 
L 284.934692 212.153742 
L 285.314935 209.518519 
L 285.695177 211.02079 
L 286.455662 203.050986 
L 287.216147 195.182739 
L 287.59639 194.660897 
L 287.976632 189.913998 
L 288.356874 188.138 
L 288.737117 184.911237 
L 289.117359 183.246625 
L 289.497602 179.743063 
L 290.258087 175.82942 
L 290.638329 174.538708 
L 291.018572 175.292453 
L 291.398814 173.195555 
L 291.779056 174.149412 
L 292.159299 178.754406 
L 292.539541 175.398993 
L 293.300026 170.597339 
L 293.680269 174.391273 
L 294.060511 170.363627 
L 294.440754 168.913978 
L 294.820996 171.701337 
L 295.581481 162.383377 
L 295.961723 162.780667 
L 296.341966 163.757262 
L 296.722208 159.888506 
L 297.102451 162.446682 
L 297.482693 166.871855 
L 297.862936 169.400824 
L 298.243178 170.124112 
L 299.764148 155.210987 
L 300.14439 154.635946 
L 300.524633 149.651303 
L 300.904875 146.221294 
L 301.285118 152.392969 
L 301.66536 149.691864 
L 302.425845 141.450379 
L 302.806087 144.019863 
L 303.18633 142.086536 
L 303.566572 150.102361 
L 303.946815 145.298439 
L 304.327057 146.586517 
L 304.7073 149.649078 
L 305.087542 148.012896 
L 305.467784 143.382337 
L 306.228269 140.188374 
L 306.608512 145.942335 
L 306.988754 142.753274 
L 307.368997 141.093338 
L 307.749239 140.39702 
L 308.129482 138.05841 
L 308.509724 149.15664 
L 308.889966 145.08591 
L 309.270209 145.273388 
L 309.650451 143.485983 
L 310.030694 138.633561 
L 310.410936 141.305665 
L 310.791179 139.105081 
L 311.171421 138.163277 
L 311.551664 136.720555 
L 311.931906 132.563744 
L 312.312148 131.397213 
L 312.692391 127.145218 
L 313.072633 127.869034 
L 313.452876 128.112104 
L 313.833118 124.715252 
L 314.213361 123.581888 
L 314.593603 119.242648 
L 315.73433 109.435904 
L 316.114573 120.171816 
L 317.2553 107.688223 
L 317.635543 114.449619 
L 318.015785 113.769765 
L 318.396028 112.686711 
L 318.77627 108.140307 
L 319.156512 106.179615 
L 319.916997 119.022656 
L 320.29724 114.425007 
L 320.677482 112.480027 
L 321.057725 115.557257 
L 321.437967 117.006756 
L 321.81821 122.526837 
L 322.198452 120.056335 
L 322.578694 115.516586 
L 322.958937 122.281153 
L 323.339179 120.044496 
L 323.719422 120.906577 
L 324.099664 119.099365 
L 324.479907 120.119754 
L 324.860149 119.455162 
L 325.240392 116.42028 
L 325.620634 117.727222 
L 326.000876 119.810061 
L 326.381119 114.914548 
L 326.761361 114.968756 
L 327.141604 116.551949 
L 327.521846 112.899854 
L 327.902089 115.198017 
L 328.662574 106.060988 
L 329.042816 109.038673 
L 329.423058 105.860342 
L 329.803301 116.925583 
L 330.183543 113.226321 
L 330.944028 109.767053 
L 331.324271 109.233493 
L 331.704513 119.668623 
L 332.084756 124.450472 
L 332.464998 123.524374 
L 332.84524 121.566575 
L 333.225483 117.049138 
L 333.605725 127.287288 
L 333.985968 127.146401 
L 334.36621 126.428779 
L 335.126695 135.02126 
L 335.506938 130.851077 
L 335.88718 137.873921 
L 336.267422 157.422086 
L 336.647665 160.896486 
L 337.788392 147.616266 
L 338.548877 147.592762 
L 338.92912 145.117312 
L 339.309362 155.092893 
L 339.689604 150.385253 
L 340.069847 159.247515 
L 340.830332 154.942665 
L 341.210574 151.415731 
L 341.590817 152.930041 
L 341.971059 157.413657 
L 342.351302 159.204219 
L 342.731544 154.34107 
L 343.111786 151.153287 
L 343.492029 162.195912 
L 343.872271 157.804424 
L 345.012999 150.087846 
L 345.393241 147.556974 
L 345.773484 142.606197 
L 346.153726 141.392911 
L 346.533968 137.390417 
L 346.914211 141.75278 
L 347.294453 139.301026 
L 347.674696 138.135548 
L 348.054938 146.436981 
L 348.435181 147.143095 
L 348.815423 142.637642 
L 349.195666 142.333116 
L 349.575908 151.926844 
L 349.95615 147.415039 
L 350.336393 152.631379 
L 350.716635 148.083686 
L 351.096878 146.097579 
L 351.47712 141.353833 
L 351.857363 138.311324 
L 352.617848 130.0332 
L 352.99809 126.362284 
L 353.378332 126.126319 
L 353.758575 130.301942 
L 354.138817 125.437596 
L 354.51906 124.123411 
L 354.899302 119.168938 
L 355.279545 117.757729 
L 355.659787 115.542967 
L 356.04003 115.791338 
L 356.420272 111.112572 
L 356.800514 110.038186 
L 357.180757 106.465672 
L 357.941242 97.822672 
L 358.321484 97.157535 
L 358.701727 93.593441 
L 359.081969 95.981515 
L 359.462212 91.654973 
L 359.842454 88.997046 
L 360.222696 84.024352 
L 360.602939 82.390208 
L 360.983181 77.974265 
L 361.363424 93.062943 
L 361.743666 92.879681 
L 362.123909 89.258354 
L 362.504151 102.645653 
L 362.884394 99.97239 
L 363.264636 118.296277 
L 363.644878 113.497876 
L 364.025121 111.112082 
L 364.405363 107.946732 
L 364.785606 103.808453 
L 365.165848 107.739403 
L 365.546091 107.831104 
L 365.926333 111.07873 
L 366.306576 109.437476 
L 366.686818 109.546799 
L 367.06706 127.405294 
L 367.447303 124.682231 
L 367.827545 119.988526 
L 368.207788 116.842808 
L 368.968273 122.619422 
L 369.348515 119.298409 
L 370.109 110.989653 
L 370.489242 111.748035 
L 370.869485 112.181952 
L 371.249727 109.560493 
L 371.62997 105.948582 
L 372.010212 105.973415 
L 372.390455 106.457614 
L 372.770697 114.590181 
L 373.15094 113.22293 
L 373.531182 117.872704 
L 373.911424 115.616634 
L 374.291667 114.048723 
L 374.671909 113.087194 
L 375.052152 110.863966 
L 375.432394 107.533434 
L 375.812637 111.203565 
L 376.192879 112.341835 
L 376.573122 114.054664 
L 377.713849 106.885221 
L 378.094091 119.321577 
L 378.474334 123.167724 
L 378.854576 120.405453 
L 379.234819 128.408078 
L 379.615061 125.925097 
L 379.995304 121.12853 
L 380.375546 122.850137 
L 380.755789 119.14931 
L 381.136031 117.116582 
L 381.516273 114.23989 
L 381.896516 123.14514 
L 382.276758 126.604355 
L 382.657001 123.067581 
L 383.037243 139.341443 
L 383.417486 136.728367 
L 383.797728 149.175851 
L 384.177971 150.154845 
L 384.938455 163.378448 
L 385.318698 160.115474 
L 385.69894 155.731361 
L 386.079183 175.008823 
L 387.600153 159.577867 
L 387.980395 157.928758 
L 388.360637 168.071398 
L 388.74088 174.21856 
L 389.501365 167.720881 
L 389.881607 168.578794 
L 390.26185 165.994113 
L 390.642092 161.26313 
L 391.022335 168.741273 
L 391.402577 170.311586 
L 391.782819 165.886161 
L 392.163062 171.597853 
L 392.543304 171.584256 
L 394.064274 158.526315 
L 394.824759 152.793189 
L 395.205001 154.71332 
L 395.585244 155.417 
L 395.965486 151.750269 
L 396.345729 154.706818 
L 396.725971 150.622339 
L 397.106214 149.117507 
L 397.486456 147.086682 
L 398.246941 140.615425 
L 398.627183 146.510963 
L 399.007426 150.676439 
L 399.767911 144.158544 
L 400.148153 145.874523 
L 400.528396 144.354047 
L 400.908638 143.400137 
L 401.288881 152.749761 
L 401.669123 148.848898 
L 402.049365 148.874649 
L 402.429608 147.843869 
L 402.80985 152.976098 
L 403.190093 151.633249 
L 403.570335 160.778942 
L 403.950578 157.904286 
L 404.33082 159.864179 
L 404.711063 154.956011 
L 405.091305 155.975613 
L 405.471547 151.7531 
L 405.85179 164.039953 
L 406.232032 159.718028 
L 406.612275 180.784495 
L 406.992517 181.945852 
L 407.37276 179.938205 
L 407.753002 181.119501 
L 408.133245 176.455859 
L 408.513487 176.184554 
L 408.893729 172.89473 
L 409.273972 173.470872 
L 409.654214 169.269251 
L 410.414699 164.90877 
L 410.794942 165.870103 
L 411.175184 161.544917 
L 411.555427 158.903962 
L 411.935669 158.534686 
L 412.315911 154.031566 
L 412.696154 151.427031 
L 413.076396 162.628488 
L 413.456639 168.958184 
L 413.836881 164.303025 
L 413.836881 164.303025 
" style="fill:none;stroke:#1f77b4;stroke-linecap:square;stroke-width:1.5;"/>
   </g>
   <g id="patch_3">
    <path d="M 33.830469 251.682812 
L 33.830469 23.638594 
" style="fill:none;stroke:#000000;stroke-linecap:square;stroke-linejoin:miter;stroke-width:0.8;"/>
   </g>
   <g id="patch_4">
    <path d="M 418.573074 251.682812 
L 418.573074 23.638594 
" style="fill:none;stroke:#000000;stroke-linecap:square;stroke-linejoin:miter;stroke-width:0.8;"/>
   </g>
   <g id="patch_5">
    <path d="M 33.830469 251.682812 
L 418.573074 251.682812 
" style="fill:none;stroke:#000000;stroke-linecap:square;stroke-linejoin:miter;stroke-width:0.8;"/>
   </g>
   <g id="patch_6">
    <path d="M 33.830469 23.638594 
L 418.573074 23.638594 
" style="fill:none;stroke:#000000;stroke-linecap:square;stroke-linejoin:miter;stroke-width:0.8;"/>
   </g>
   <g id="text_17">
    <!-- Retraso en paquetes recibidos -->
    <defs>
     <path d="M 44.390625 34.1875 
Q 47.5625 33.109375 50.5625 29.59375 
Q 53.5625 26.078125 56.59375 19.921875 
L 66.609375 0 
L 56 0 
L 46.6875 18.703125 
Q 43.0625 26.03125 39.671875 28.421875 
Q 36.28125 30.8125 30.421875 30.8125 
L 19.671875 30.8125 
L 19.671875 0 
L 9.8125 0 
L 9.8125 72.90625 
L 32.078125 72.90625 
Q 44.578125 72.90625 50.734375 67.671875 
Q 56.890625 62.453125 56.890625 51.90625 
Q 56.890625 45.015625 53.6875 40.46875 
Q 50.484375 35.9375 44.390625 34.1875 
z
M 19.671875 64.796875 
L 19.671875 38.921875 
L 32.078125 38.921875 
Q 39.203125 38.921875 42.84375 42.21875 
Q 46.484375 45.515625 46.484375 51.90625 
Q 46.484375 58.296875 42.84375 61.546875 
Q 39.203125 64.796875 32.078125 64.796875 
z
" id="DejaVuSans-82"/>
     <path d="M 18.3125 70.21875 
L 18.3125 54.6875 
L 36.8125 54.6875 
L 36.8125 47.703125 
L 18.3125 47.703125 
L 18.3125 18.015625 
Q 18.3125 11.328125 20.140625 9.421875 
Q 21.96875 7.515625 27.59375 7.515625 
L 36.8125 7.515625 
L 36.8125 0 
L 27.59375 0 
Q 17.1875 0 13.234375 3.875 
Q 9.28125 7.765625 9.28125 18.015625 
L 9.28125 47.703125 
L 2.6875 47.703125 
L 2.6875 54.6875 
L 9.28125 54.6875 
L 9.28125 70.21875 
z
" id="DejaVuSans-116"/>
     <path d="M 41.109375 46.296875 
Q 39.59375 47.171875 37.8125 47.578125 
Q 36.03125 48 33.890625 48 
Q 26.265625 48 22.1875 43.046875 
Q 18.109375 38.09375 18.109375 28.8125 
L 18.109375 0 
L 9.078125 0 
L 9.078125 54.6875 
L 18.109375 54.6875 
L 18.109375 46.1875 
Q 20.953125 51.171875 25.484375 53.578125 
Q 30.03125 56 36.53125 56 
Q 37.453125 56 38.578125 55.875 
Q 39.703125 55.765625 41.0625 55.515625 
z
" id="DejaVuSans-114"/>
     <path d="M 34.28125 27.484375 
Q 23.390625 27.484375 19.1875 25 
Q 14.984375 22.515625 14.984375 16.5 
Q 14.984375 11.71875 18.140625 8.90625 
Q 21.296875 6.109375 26.703125 6.109375 
Q 34.1875 6.109375 38.703125 11.40625 
Q 43.21875 16.703125 43.21875 25.484375 
L 43.21875 27.484375 
z
M 52.203125 31.203125 
L 52.203125 0 
L 43.21875 0 
L 43.21875 8.296875 
Q 40.140625 3.328125 35.546875 0.953125 
Q 30.953125 -1.421875 24.3125 -1.421875 
Q 15.921875 -1.421875 10.953125 3.296875 
Q 6 8.015625 6 15.921875 
Q 6 25.140625 12.171875 29.828125 
Q 18.359375 34.515625 30.609375 34.515625 
L 43.21875 34.515625 
L 43.21875 35.40625 
Q 43.21875 41.609375 39.140625 45 
Q 35.0625 48.390625 27.6875 48.390625 
Q 23 48.390625 18.546875 47.265625 
Q 14.109375 46.140625 10.015625 43.890625 
L 10.015625 52.203125 
Q 14.9375 54.109375 19.578125 55.046875 
Q 24.21875 56 28.609375 56 
Q 40.484375 56 46.34375 49.84375 
Q 52.203125 43.703125 52.203125 31.203125 
z
" id="DejaVuSans-97"/>
     <path d="M 44.28125 53.078125 
L 44.28125 44.578125 
Q 40.484375 46.53125 36.375 47.5 
Q 32.28125 48.484375 27.875 48.484375 
Q 21.1875 48.484375 17.84375 46.4375 
Q 14.5 44.390625 14.5 40.28125 
Q 14.5 37.15625 16.890625 35.375 
Q 19.28125 33.59375 26.515625 31.984375 
L 29.59375 31.296875 
Q 39.15625 29.25 43.1875 25.515625 
Q 47.21875 21.78125 47.21875 15.09375 
Q 47.21875 7.46875 41.1875 3.015625 
Q 35.15625 -1.421875 24.609375 -1.421875 
Q 20.21875 -1.421875 15.453125 -0.5625 
Q 10.6875 0.296875 5.421875 2 
L 5.421875 11.28125 
Q 10.40625 8.6875 15.234375 7.390625 
Q 20.0625 6.109375 24.8125 6.109375 
Q 31.15625 6.109375 34.5625 8.28125 
Q 37.984375 10.453125 37.984375 14.40625 
Q 37.984375 18.0625 35.515625 20.015625 
Q 33.0625 21.96875 24.703125 23.78125 
L 21.578125 24.515625 
Q 13.234375 26.265625 9.515625 29.90625 
Q 5.8125 33.546875 5.8125 39.890625 
Q 5.8125 47.609375 11.28125 51.796875 
Q 16.75 56 26.8125 56 
Q 31.78125 56 36.171875 55.265625 
Q 40.578125 54.546875 44.28125 53.078125 
z
" id="DejaVuSans-115"/>
     <path id="DejaVuSans-32"/>
     <path d="M 54.890625 33.015625 
L 54.890625 0 
L 45.90625 0 
L 45.90625 32.71875 
Q 45.90625 40.484375 42.875 44.328125 
Q 39.84375 48.1875 33.796875 48.1875 
Q 26.515625 48.1875 22.3125 43.546875 
Q 18.109375 38.921875 18.109375 30.90625 
L 18.109375 0 
L 9.078125 0 
L 9.078125 54.6875 
L 18.109375 54.6875 
L 18.109375 46.1875 
Q 21.34375 51.125 25.703125 53.5625 
Q 30.078125 56 35.796875 56 
Q 45.21875 56 50.046875 50.171875 
Q 54.890625 44.34375 54.890625 33.015625 
z
" id="DejaVuSans-110"/>
     <path d="M 14.796875 27.296875 
Q 14.796875 17.390625 18.875 11.75 
Q 22.953125 6.109375 30.078125 6.109375 
Q 37.203125 6.109375 41.296875 11.75 
Q 45.40625 17.390625 45.40625 27.296875 
Q 45.40625 37.203125 41.296875 42.84375 
Q 37.203125 48.484375 30.078125 48.484375 
Q 22.953125 48.484375 18.875 42.84375 
Q 14.796875 37.203125 14.796875 27.296875 
z
M 45.40625 8.203125 
Q 42.578125 3.328125 38.25 0.953125 
Q 33.9375 -1.421875 27.875 -1.421875 
Q 17.96875 -1.421875 11.734375 6.484375 
Q 5.515625 14.40625 5.515625 27.296875 
Q 5.515625 40.1875 11.734375 48.09375 
Q 17.96875 56 27.875 56 
Q 33.9375 56 38.25 53.625 
Q 42.578125 51.265625 45.40625 46.390625 
L 45.40625 54.6875 
L 54.390625 54.6875 
L 54.390625 -20.796875 
L 45.40625 -20.796875 
z
" id="DejaVuSans-113"/>
     <path d="M 8.5 21.578125 
L 8.5 54.6875 
L 17.484375 54.6875 
L 17.484375 21.921875 
Q 17.484375 14.15625 20.5 10.265625 
Q 23.53125 6.390625 29.59375 6.390625 
Q 36.859375 6.390625 41.078125 11.03125 
Q 45.3125 15.671875 45.3125 23.6875 
L 45.3125 54.6875 
L 54.296875 54.6875 
L 54.296875 0 
L 45.3125 0 
L 45.3125 8.40625 
Q 42.046875 3.421875 37.71875 1 
Q 33.40625 -1.421875 27.6875 -1.421875 
Q 18.265625 -1.421875 13.375 4.4375 
Q 8.5 10.296875 8.5 21.578125 
z
M 31.109375 56 
z
" id="DejaVuSans-117"/>
     <path d="M 48.78125 52.59375 
L 48.78125 44.1875 
Q 44.96875 46.296875 41.140625 47.34375 
Q 37.3125 48.390625 33.40625 48.390625 
Q 24.65625 48.390625 19.8125 42.84375 
Q 14.984375 37.3125 14.984375 27.296875 
Q 14.984375 17.28125 19.8125 11.734375 
Q 24.65625 6.203125 33.40625 6.203125 
Q 37.3125 6.203125 41.140625 7.25 
Q 44.96875 8.296875 48.78125 10.40625 
L 48.78125 2.09375 
Q 45.015625 0.34375 40.984375 -0.53125 
Q 36.96875 -1.421875 32.421875 -1.421875 
Q 20.0625 -1.421875 12.78125 6.34375 
Q 5.515625 14.109375 5.515625 27.296875 
Q 5.515625 40.671875 12.859375 48.328125 
Q 20.21875 56 33.015625 56 
Q 37.15625 56 41.109375 55.140625 
Q 45.0625 54.296875 48.78125 52.59375 
z
" id="DejaVuSans-99"/>
     <path d="M 48.6875 27.296875 
Q 48.6875 37.203125 44.609375 42.84375 
Q 40.53125 48.484375 33.40625 48.484375 
Q 26.265625 48.484375 22.1875 42.84375 
Q 18.109375 37.203125 18.109375 27.296875 
Q 18.109375 17.390625 22.1875 11.75 
Q 26.265625 6.109375 33.40625 6.109375 
Q 40.53125 6.109375 44.609375 11.75 
Q 48.6875 17.390625 48.6875 27.296875 
z
M 18.109375 46.390625 
Q 20.953125 51.265625 25.265625 53.625 
Q 29.59375 56 35.59375 56 
Q 45.5625 56 51.78125 48.09375 
Q 58.015625 40.1875 58.015625 27.296875 
Q 58.015625 14.40625 51.78125 6.484375 
Q 45.5625 -1.421875 35.59375 -1.421875 
Q 29.59375 -1.421875 25.265625 0.953125 
Q 20.953125 3.328125 18.109375 8.203125 
L 18.109375 0 
L 9.078125 0 
L 9.078125 75.984375 
L 18.109375 75.984375 
z
" id="DejaVuSans-98"/>
     <path d="M 45.40625 46.390625 
L 45.40625 75.984375 
L 54.390625 75.984375 
L 54.390625 0 
L 45.40625 0 
L 45.40625 8.203125 
Q 42.578125 3.328125 38.25 0.953125 
Q 33.9375 -1.421875 27.875 -1.421875 
Q 17.96875 -1.421875 11.734375 6.484375 
Q 5.515625 14.40625 5.515625 27.296875 
Q 5.515625 40.1875 11.734375 48.09375 
Q 17.96875 56 27.875 56 
Q 33.9375 56 38.25 53.625 
Q 42.578125 51.265625 45.40625 46.390625 
z
M 14.796875 27.296875 
Q 14.796875 17.390625 18.875 11.75 
Q 22.953125 6.109375 30.078125 6.109375 
Q 37.203125 6.109375 41.296875 11.75 
Q 45.40625 17.390625 45.40625 27.296875 
Q 45.40625 37.203125 41.296875 42.84375 
Q 37.203125 48.484375 30.078125 48.484375 
Q 22.953125 48.484375 18.875 42.84375 
Q 14.796875 37.203125 14.796875 27.296875 
z
" id="DejaVuSans-100"/>
    </defs>
    <g transform="translate(134.673646 17.638594)scale(0.12 -0.12)">
     <use xlink:href="#DejaVuSans-82"/>
     <use x="69.419922" xlink:href="#DejaVuSans-101"/>
     <use x="130.943359" xlink:href="#DejaVuSans-116"/>
     <use x="170.152344" xlink:href="#DejaVuSans-114"/>
     <use x="211.265625" xlink:href="#DejaVuSans-97"/>
     <use x="272.544922" xlink:href="#DejaVuSans-115"/>
     <use x="324.644531" xlink:href="#DejaVuSans-111"/>
     <use x="385.826172" xlink:href="#DejaVuSans-32"/>
     <use x="417.613281" xlink:href="#DejaVuSans-101"/>
     <use x="479.136719" xlink:href="#DejaVuSans-110"/>
     <use x="542.515625" xlink:href="#DejaVuSans-32"/>
     <use x="574.302734" xlink:href="#DejaVuSans-112"/>
     <use x="637.779297" xlink:href="#DejaVuSans-97"/>
     <use x="699.058594" xlink:href="#DejaVuSans-113"/>
     <use x="762.535156" xlink:href="#DejaVuSans-117"/>
     <use x="825.914062" xlink:href="#DejaVuSans-101"/>
     <use x="887.4375" xlink:href="#DejaVuSans-116"/>
     <use x="926.646484" xlink:href="#DejaVuSans-101"/>
     <use x="988.169922" xlink:href="#DejaVuSans-115"/>
     <use x="1040.269531" xlink:href="#DejaVuSans-32"/>
     <use x="1072.056641" xlink:href="#DejaVuSans-114"/>
     <use x="1113.138672" xlink:href="#DejaVuSans-101"/>
     <use x="1174.662109" xlink:href="#DejaVuSans-99"/>
     <use x="1229.642578" xlink:href="#DejaVuSans-105"/>
     <use x="1257.425781" xlink:href="#DejaVuSans-98"/>
     <use x="1320.902344" xlink:href="#DejaVuSans-105"/>
     <use x="1348.685547" xlink:href="#DejaVuSans-100"/>
     <use x="1412.162109" xlink:href="#DejaVuSans-111"/>
     <use x="1473.34375" xlink:href="#DejaVuSans-115"/>
    </g>
   </g>
  </g>
 </g>
 <defs>
  <clipPath id="p2c1b87c783">
   <rect height="228.044219" width="384.742605" x="33.830469" y="23.638594"/>
  </clipPath>
 </defs>
</svg>
