<?xml version="1.0" encoding="utf-8" standalone="no"?>
<!DOCTYPE svg PUBLIC "-//W3C//DTD SVG 1.1//EN"
  "http://www.w3.org/Graphics/SVG/1.1/DTD/svg11.dtd">
<svg xmlns:xlink="http://www.w3.org/1999/xlink" width="432pt" height="288pt" viewBox="0 0 432 288" xmlns="http://www.w3.org/2000/svg" version="1.1">
 <metadata>
  <rdf:RDF xmlns:dc="http://purl.org/dc/elements/1.1/" xmlns:cc="http://creativecommons.org/ns#" xmlns:rdf="http://www.w3.org/1999/02/22-rdf-syntax-ns#">
   <cc:Work>
    <dc:type rdf:resource="http://purl.org/dc/dcmitype/StillImage"/>
    <dc:date>2022-05-23T10:05:11.917558</dc:date>
    <dc:format>image/svg+xml</dc:format>
    <dc:creator>
     <cc:Agent>
      <dc:title>omnetpp.scave 6.0.0; Matplotlib 3.5.1 w/ backend GTK3Agg; Pandas 1.4.2; Python 3.8.10; Linux-5.4.0-109-generic-x86_64-with-glibc2.29</dc:title>
     </cc:Agent>
    </dc:creator>
   </cc:Work>
  </rdf:RDF>
 </metadata>
 <defs>
  <style type="text/css">*{stroke-linejoin: round; stroke-linecap: butt}</style>
 </defs>
 <g id="figure_1">
  <g id="patch_1">
   <path d="M 0 288 
L 432 288 
L 432 0 
L 0 0 
z
" style="fill: #ffffff"/>
  </g>
  <g id="axes_1">
   <g id="patch_2">
    <path d="M 50.76875 246.7 
L 415.979295 246.7 
L 415.979295 25.8 
L 50.76875 25.8 
z
" style="fill: #ffffff"/>
   </g>
   <g id="matplotlib.axis_1">
    <g id="xtick_1">
     <g id="line2d_1">
      <path d="M 50.76875 246.7 
L 50.76875 25.8 
" clip-path="url(#pe405eb8b73)" style="fill: none; stroke: #b0b0b0; stroke-width: 0.8; stroke-linecap: square"/>
     </g>
     <g id="line2d_2">
      <defs>
       <path id="m5fefed0cba" d="M 0 0 
L 0 3.5 
" style="stroke: #000000; stroke-width: 0.8"/>
      </defs>
      <g>
       <use xlink:href="#m5fefed0cba" x="50.76875" y="246.7" style="stroke: #000000; stroke-width: 0.8"/>
      </g>
     </g>
     <g id="text_1">
      <!-- 0 -->
      <g transform="translate(47.5875 261.298437)scale(0.1 -0.1)">
       <defs>
        <path id="DejaVuSans-30" d="M 2034 4250 
Q 1547 4250 1301 3770 
Q 1056 3291 1056 2328 
Q 1056 1369 1301 889 
Q 1547 409 2034 409 
Q 2525 409 2770 889 
Q 3016 1369 3016 2328 
Q 3016 3291 2770 3770 
Q 2525 4250 2034 4250 
z
M 2034 4750 
Q 2819 4750 3233 4129 
Q 3647 3509 3647 2328 
Q 3647 1150 3233 529 
Q 2819 -91 2034 -91 
Q 1250 -91 836 529 
Q 422 1150 422 2328 
Q 422 3509 836 4129 
Q 1250 4750 2034 4750 
z
" transform="scale(0.015625)"/>
       </defs>
       <use xlink:href="#DejaVuSans-30"/>
      </g>
     </g>
    </g>
    <g id="xtick_2">
     <g id="line2d_3">
      <path d="M 95.879353 246.7 
L 95.879353 25.8 
" clip-path="url(#pe405eb8b73)" style="fill: none; stroke: #b0b0b0; stroke-width: 0.8; stroke-linecap: square"/>
     </g>
     <g id="line2d_4">
      <g>
       <use xlink:href="#m5fefed0cba" x="95.879353" y="246.7" style="stroke: #000000; stroke-width: 0.8"/>
      </g>
     </g>
     <g id="text_2">
      <!-- 25 -->
      <g transform="translate(89.516853 261.298437)scale(0.1 -0.1)">
       <defs>
        <path id="DejaVuSans-32" d="M 1228 531 
L 3431 531 
L 3431 0 
L 469 0 
L 469 531 
Q 828 903 1448 1529 
Q 2069 2156 2228 2338 
Q 2531 2678 2651 2914 
Q 2772 3150 2772 3378 
Q 2772 3750 2511 3984 
Q 2250 4219 1831 4219 
Q 1534 4219 1204 4116 
Q 875 4013 500 3803 
L 500 4441 
Q 881 4594 1212 4672 
Q 1544 4750 1819 4750 
Q 2544 4750 2975 4387 
Q 3406 4025 3406 3419 
Q 3406 3131 3298 2873 
Q 3191 2616 2906 2266 
Q 2828 2175 2409 1742 
Q 1991 1309 1228 531 
z
" transform="scale(0.015625)"/>
        <path id="DejaVuSans-35" d="M 691 4666 
L 3169 4666 
L 3169 4134 
L 1269 4134 
L 1269 2991 
Q 1406 3038 1543 3061 
Q 1681 3084 1819 3084 
Q 2600 3084 3056 2656 
Q 3513 2228 3513 1497 
Q 3513 744 3044 326 
Q 2575 -91 1722 -91 
Q 1428 -91 1123 -41 
Q 819 9 494 109 
L 494 744 
Q 775 591 1075 516 
Q 1375 441 1709 441 
Q 2250 441 2565 725 
Q 2881 1009 2881 1497 
Q 2881 1984 2565 2268 
Q 2250 2553 1709 2553 
Q 1456 2553 1204 2497 
Q 953 2441 691 2322 
L 691 4666 
z
" transform="scale(0.015625)"/>
       </defs>
       <use xlink:href="#DejaVuSans-32"/>
       <use xlink:href="#DejaVuSans-35" x="63.623047"/>
      </g>
     </g>
    </g>
    <g id="xtick_3">
     <g id="line2d_5">
      <path d="M 140.989955 246.7 
L 140.989955 25.8 
" clip-path="url(#pe405eb8b73)" style="fill: none; stroke: #b0b0b0; stroke-width: 0.8; stroke-linecap: square"/>
     </g>
     <g id="line2d_6">
      <g>
       <use xlink:href="#m5fefed0cba" x="140.989955" y="246.7" style="stroke: #000000; stroke-width: 0.8"/>
      </g>
     </g>
     <g id="text_3">
      <!-- 50 -->
      <g transform="translate(134.627455 261.298437)scale(0.1 -0.1)">
       <use xlink:href="#DejaVuSans-35"/>
       <use xlink:href="#DejaVuSans-30" x="63.623047"/>
      </g>
     </g>
    </g>
    <g id="xtick_4">
     <g id="line2d_7">
      <path d="M 186.100558 246.7 
L 186.100558 25.8 
" clip-path="url(#pe405eb8b73)" style="fill: none; stroke: #b0b0b0; stroke-width: 0.8; stroke-linecap: square"/>
     </g>
     <g id="line2d_8">
      <g>
       <use xlink:href="#m5fefed0cba" x="186.100558" y="246.7" style="stroke: #000000; stroke-width: 0.8"/>
      </g>
     </g>
     <g id="text_4">
      <!-- 75 -->
      <g transform="translate(179.738058 261.298437)scale(0.1 -0.1)">
       <defs>
        <path id="DejaVuSans-37" d="M 525 4666 
L 3525 4666 
L 3525 4397 
L 1831 0 
L 1172 0 
L 2766 4134 
L 525 4134 
L 525 4666 
z
" transform="scale(0.015625)"/>
       </defs>
       <use xlink:href="#DejaVuSans-37"/>
       <use xlink:href="#DejaVuSans-35" x="63.623047"/>
      </g>
     </g>
    </g>
    <g id="xtick_5">
     <g id="line2d_9">
      <path d="M 231.211161 246.7 
L 231.211161 25.8 
" clip-path="url(#pe405eb8b73)" style="fill: none; stroke: #b0b0b0; stroke-width: 0.8; stroke-linecap: square"/>
     </g>
     <g id="line2d_10">
      <g>
       <use xlink:href="#m5fefed0cba" x="231.211161" y="246.7" style="stroke: #000000; stroke-width: 0.8"/>
      </g>
     </g>
     <g id="text_5">
      <!-- 100 -->
      <g transform="translate(221.667411 261.298437)scale(0.1 -0.1)">
       <defs>
        <path id="DejaVuSans-31" d="M 794 531 
L 1825 531 
L 1825 4091 
L 703 3866 
L 703 4441 
L 1819 4666 
L 2450 4666 
L 2450 531 
L 3481 531 
L 3481 0 
L 794 0 
L 794 531 
z
" transform="scale(0.015625)"/>
       </defs>
       <use xlink:href="#DejaVuSans-31"/>
       <use xlink:href="#DejaVuSans-30" x="63.623047"/>
       <use xlink:href="#DejaVuSans-30" x="127.246094"/>
      </g>
     </g>
    </g>
    <g id="xtick_6">
     <g id="line2d_11">
      <path d="M 276.321764 246.7 
L 276.321764 25.8 
" clip-path="url(#pe405eb8b73)" style="fill: none; stroke: #b0b0b0; stroke-width: 0.8; stroke-linecap: square"/>
     </g>
     <g id="line2d_12">
      <g>
       <use xlink:href="#m5fefed0cba" x="276.321764" y="246.7" style="stroke: #000000; stroke-width: 0.8"/>
      </g>
     </g>
     <g id="text_6">
      <!-- 125 -->
      <g transform="translate(266.778014 261.298437)scale(0.1 -0.1)">
       <use xlink:href="#DejaVuSans-31"/>
       <use xlink:href="#DejaVuSans-32" x="63.623047"/>
       <use xlink:href="#DejaVuSans-35" x="127.246094"/>
      </g>
     </g>
    </g>
    <g id="xtick_7">
     <g id="line2d_13">
      <path d="M 321.432366 246.7 
L 321.432366 25.8 
" clip-path="url(#pe405eb8b73)" style="fill: none; stroke: #b0b0b0; stroke-width: 0.8; stroke-linecap: square"/>
     </g>
     <g id="line2d_14">
      <g>
       <use xlink:href="#m5fefed0cba" x="321.432366" y="246.7" style="stroke: #000000; stroke-width: 0.8"/>
      </g>
     </g>
     <g id="text_7">
      <!-- 150 -->
      <g transform="translate(311.888616 261.298437)scale(0.1 -0.1)">
       <use xlink:href="#DejaVuSans-31"/>
       <use xlink:href="#DejaVuSans-35" x="63.623047"/>
       <use xlink:href="#DejaVuSans-30" x="127.246094"/>
      </g>
     </g>
    </g>
    <g id="xtick_8">
     <g id="line2d_15">
      <path d="M 366.542969 246.7 
L 366.542969 25.8 
" clip-path="url(#pe405eb8b73)" style="fill: none; stroke: #b0b0b0; stroke-width: 0.8; stroke-linecap: square"/>
     </g>
     <g id="line2d_16">
      <g>
       <use xlink:href="#m5fefed0cba" x="366.542969" y="246.7" style="stroke: #000000; stroke-width: 0.8"/>
      </g>
     </g>
     <g id="text_8">
      <!-- 175 -->
      <g transform="translate(356.999219 261.298437)scale(0.1 -0.1)">
       <use xlink:href="#DejaVuSans-31"/>
       <use xlink:href="#DejaVuSans-37" x="63.623047"/>
       <use xlink:href="#DejaVuSans-35" x="127.246094"/>
      </g>
     </g>
    </g>
    <g id="xtick_9">
     <g id="line2d_17">
      <path d="M 411.653572 246.7 
L 411.653572 25.8 
" clip-path="url(#pe405eb8b73)" style="fill: none; stroke: #b0b0b0; stroke-width: 0.8; stroke-linecap: square"/>
     </g>
     <g id="line2d_18">
      <g>
       <use xlink:href="#m5fefed0cba" x="411.653572" y="246.7" style="stroke: #000000; stroke-width: 0.8"/>
      </g>
     </g>
     <g id="text_9">
      <!-- 200 -->
      <g transform="translate(402.109822 261.298437)scale(0.1 -0.1)">
       <use xlink:href="#DejaVuSans-32"/>
       <use xlink:href="#DejaVuSans-30" x="63.623047"/>
       <use xlink:href="#DejaVuSans-30" x="127.246094"/>
      </g>
     </g>
    </g>
    <g id="text_10">
     <!-- Tiempo -->
     <g transform="translate(214.906835 274.976562)scale(0.1 -0.1)">
      <defs>
       <path id="DejaVuSans-54" d="M -19 4666 
L 3928 4666 
L 3928 4134 
L 2272 4134 
L 2272 0 
L 1638 0 
L 1638 4134 
L -19 4134 
L -19 4666 
z
" transform="scale(0.015625)"/>
       <path id="DejaVuSans-69" d="M 603 3500 
L 1178 3500 
L 1178 0 
L 603 0 
L 603 3500 
z
M 603 4863 
L 1178 4863 
L 1178 4134 
L 603 4134 
L 603 4863 
z
" transform="scale(0.015625)"/>
       <path id="DejaVuSans-65" d="M 3597 1894 
L 3597 1613 
L 953 1613 
Q 991 1019 1311 708 
Q 1631 397 2203 397 
Q 2534 397 2845 478 
Q 3156 559 3463 722 
L 3463 178 
Q 3153 47 2828 -22 
Q 2503 -91 2169 -91 
Q 1331 -91 842 396 
Q 353 884 353 1716 
Q 353 2575 817 3079 
Q 1281 3584 2069 3584 
Q 2775 3584 3186 3129 
Q 3597 2675 3597 1894 
z
M 3022 2063 
Q 3016 2534 2758 2815 
Q 2500 3097 2075 3097 
Q 1594 3097 1305 2825 
Q 1016 2553 972 2059 
L 3022 2063 
z
" transform="scale(0.015625)"/>
       <path id="DejaVuSans-6d" d="M 3328 2828 
Q 3544 3216 3844 3400 
Q 4144 3584 4550 3584 
Q 5097 3584 5394 3201 
Q 5691 2819 5691 2113 
L 5691 0 
L 5113 0 
L 5113 2094 
Q 5113 2597 4934 2840 
Q 4756 3084 4391 3084 
Q 3944 3084 3684 2787 
Q 3425 2491 3425 1978 
L 3425 0 
L 2847 0 
L 2847 2094 
Q 2847 2600 2669 2842 
Q 2491 3084 2119 3084 
Q 1678 3084 1418 2786 
Q 1159 2488 1159 1978 
L 1159 0 
L 581 0 
L 581 3500 
L 1159 3500 
L 1159 2956 
Q 1356 3278 1631 3431 
Q 1906 3584 2284 3584 
Q 2666 3584 2933 3390 
Q 3200 3197 3328 2828 
z
" transform="scale(0.015625)"/>
       <path id="DejaVuSans-70" d="M 1159 525 
L 1159 -1331 
L 581 -1331 
L 581 3500 
L 1159 3500 
L 1159 2969 
Q 1341 3281 1617 3432 
Q 1894 3584 2278 3584 
Q 2916 3584 3314 3078 
Q 3713 2572 3713 1747 
Q 3713 922 3314 415 
Q 2916 -91 2278 -91 
Q 1894 -91 1617 61 
Q 1341 213 1159 525 
z
M 3116 1747 
Q 3116 2381 2855 2742 
Q 2594 3103 2138 3103 
Q 1681 3103 1420 2742 
Q 1159 2381 1159 1747 
Q 1159 1113 1420 752 
Q 1681 391 2138 391 
Q 2594 391 2855 752 
Q 3116 1113 3116 1747 
z
" transform="scale(0.015625)"/>
       <path id="DejaVuSans-6f" d="M 1959 3097 
Q 1497 3097 1228 2736 
Q 959 2375 959 1747 
Q 959 1119 1226 758 
Q 1494 397 1959 397 
Q 2419 397 2687 759 
Q 2956 1122 2956 1747 
Q 2956 2369 2687 2733 
Q 2419 3097 1959 3097 
z
M 1959 3584 
Q 2709 3584 3137 3096 
Q 3566 2609 3566 1747 
Q 3566 888 3137 398 
Q 2709 -91 1959 -91 
Q 1206 -91 779 398 
Q 353 888 353 1747 
Q 353 2609 779 3096 
Q 1206 3584 1959 3584 
z
" transform="scale(0.015625)"/>
      </defs>
      <use xlink:href="#DejaVuSans-54"/>
      <use xlink:href="#DejaVuSans-69" x="57.958984"/>
      <use xlink:href="#DejaVuSans-65" x="85.742188"/>
      <use xlink:href="#DejaVuSans-6d" x="147.265625"/>
      <use xlink:href="#DejaVuSans-70" x="244.677734"/>
      <use xlink:href="#DejaVuSans-6f" x="308.154297"/>
     </g>
    </g>
   </g>
   <g id="matplotlib.axis_2">
    <g id="ytick_1">
     <g id="line2d_19">
      <path d="M 50.76875 246.7 
L 415.979295 246.7 
" clip-path="url(#pe405eb8b73)" style="fill: none; stroke: #b0b0b0; stroke-width: 0.8; stroke-linecap: square"/>
     </g>
     <g id="line2d_20">
      <defs>
       <path id="m05e2fa7d41" d="M 0 0 
L -3.5 0 
" style="stroke: #000000; stroke-width: 0.8"/>
      </defs>
      <g>
       <use xlink:href="#m05e2fa7d41" x="50.76875" y="246.7" style="stroke: #000000; stroke-width: 0.8"/>
      </g>
     </g>
     <g id="text_11">
      <!-- 0 -->
      <g transform="translate(37.40625 250.499219)scale(0.1 -0.1)">
       <use xlink:href="#DejaVuSans-30"/>
      </g>
     </g>
    </g>
    <g id="ytick_2">
     <g id="line2d_21">
      <path d="M 50.76875 213.235221 
L 415.979295 213.235221 
" clip-path="url(#pe405eb8b73)" style="fill: none; stroke: #b0b0b0; stroke-width: 0.8; stroke-linecap: square"/>
     </g>
     <g id="line2d_22">
      <g>
       <use xlink:href="#m05e2fa7d41" x="50.76875" y="213.235221" style="stroke: #000000; stroke-width: 0.8"/>
      </g>
     </g>
     <g id="text_12">
      <!-- 20 -->
      <g transform="translate(31.04375 217.03444)scale(0.1 -0.1)">
       <use xlink:href="#DejaVuSans-32"/>
       <use xlink:href="#DejaVuSans-30" x="63.623047"/>
      </g>
     </g>
    </g>
    <g id="ytick_3">
     <g id="line2d_23">
      <path d="M 50.76875 179.770442 
L 415.979295 179.770442 
" clip-path="url(#pe405eb8b73)" style="fill: none; stroke: #b0b0b0; stroke-width: 0.8; stroke-linecap: square"/>
     </g>
     <g id="line2d_24">
      <g>
       <use xlink:href="#m05e2fa7d41" x="50.76875" y="179.770442" style="stroke: #000000; stroke-width: 0.8"/>
      </g>
     </g>
     <g id="text_13">
      <!-- 40 -->
      <g transform="translate(31.04375 183.569661)scale(0.1 -0.1)">
       <defs>
        <path id="DejaVuSans-34" d="M 2419 4116 
L 825 1625 
L 2419 1625 
L 2419 4116 
z
M 2253 4666 
L 3047 4666 
L 3047 1625 
L 3713 1625 
L 3713 1100 
L 3047 1100 
L 3047 0 
L 2419 0 
L 2419 1100 
L 313 1100 
L 313 1709 
L 2253 4666 
z
" transform="scale(0.015625)"/>
       </defs>
       <use xlink:href="#DejaVuSans-34"/>
       <use xlink:href="#DejaVuSans-30" x="63.623047"/>
      </g>
     </g>
    </g>
    <g id="ytick_4">
     <g id="line2d_25">
      <path d="M 50.76875 146.305663 
L 415.979295 146.305663 
" clip-path="url(#pe405eb8b73)" style="fill: none; stroke: #b0b0b0; stroke-width: 0.8; stroke-linecap: square"/>
     </g>
     <g id="line2d_26">
      <g>
       <use xlink:href="#m05e2fa7d41" x="50.76875" y="146.305663" style="stroke: #000000; stroke-width: 0.8"/>
      </g>
     </g>
     <g id="text_14">
      <!-- 60 -->
      <g transform="translate(31.04375 150.104882)scale(0.1 -0.1)">
       <defs>
        <path id="DejaVuSans-36" d="M 2113 2584 
Q 1688 2584 1439 2293 
Q 1191 2003 1191 1497 
Q 1191 994 1439 701 
Q 1688 409 2113 409 
Q 2538 409 2786 701 
Q 3034 994 3034 1497 
Q 3034 2003 2786 2293 
Q 2538 2584 2113 2584 
z
M 3366 4563 
L 3366 3988 
Q 3128 4100 2886 4159 
Q 2644 4219 2406 4219 
Q 1781 4219 1451 3797 
Q 1122 3375 1075 2522 
Q 1259 2794 1537 2939 
Q 1816 3084 2150 3084 
Q 2853 3084 3261 2657 
Q 3669 2231 3669 1497 
Q 3669 778 3244 343 
Q 2819 -91 2113 -91 
Q 1303 -91 875 529 
Q 447 1150 447 2328 
Q 447 3434 972 4092 
Q 1497 4750 2381 4750 
Q 2619 4750 2861 4703 
Q 3103 4656 3366 4563 
z
" transform="scale(0.015625)"/>
       </defs>
       <use xlink:href="#DejaVuSans-36"/>
       <use xlink:href="#DejaVuSans-30" x="63.623047"/>
      </g>
     </g>
    </g>
    <g id="ytick_5">
     <g id="line2d_27">
      <path d="M 50.76875 112.840884 
L 415.979295 112.840884 
" clip-path="url(#pe405eb8b73)" style="fill: none; stroke: #b0b0b0; stroke-width: 0.8; stroke-linecap: square"/>
     </g>
     <g id="line2d_28">
      <g>
       <use xlink:href="#m05e2fa7d41" x="50.76875" y="112.840884" style="stroke: #000000; stroke-width: 0.8"/>
      </g>
     </g>
     <g id="text_15">
      <!-- 80 -->
      <g transform="translate(31.04375 116.640103)scale(0.1 -0.1)">
       <defs>
        <path id="DejaVuSans-38" d="M 2034 2216 
Q 1584 2216 1326 1975 
Q 1069 1734 1069 1313 
Q 1069 891 1326 650 
Q 1584 409 2034 409 
Q 2484 409 2743 651 
Q 3003 894 3003 1313 
Q 3003 1734 2745 1975 
Q 2488 2216 2034 2216 
z
M 1403 2484 
Q 997 2584 770 2862 
Q 544 3141 544 3541 
Q 544 4100 942 4425 
Q 1341 4750 2034 4750 
Q 2731 4750 3128 4425 
Q 3525 4100 3525 3541 
Q 3525 3141 3298 2862 
Q 3072 2584 2669 2484 
Q 3125 2378 3379 2068 
Q 3634 1759 3634 1313 
Q 3634 634 3220 271 
Q 2806 -91 2034 -91 
Q 1263 -91 848 271 
Q 434 634 434 1313 
Q 434 1759 690 2068 
Q 947 2378 1403 2484 
z
M 1172 3481 
Q 1172 3119 1398 2916 
Q 1625 2713 2034 2713 
Q 2441 2713 2670 2916 
Q 2900 3119 2900 3481 
Q 2900 3844 2670 4047 
Q 2441 4250 2034 4250 
Q 1625 4250 1398 4047 
Q 1172 3844 1172 3481 
z
" transform="scale(0.015625)"/>
       </defs>
       <use xlink:href="#DejaVuSans-38"/>
       <use xlink:href="#DejaVuSans-30" x="63.623047"/>
      </g>
     </g>
    </g>
    <g id="ytick_6">
     <g id="line2d_29">
      <path d="M 50.76875 79.376106 
L 415.979295 79.376106 
" clip-path="url(#pe405eb8b73)" style="fill: none; stroke: #b0b0b0; stroke-width: 0.8; stroke-linecap: square"/>
     </g>
     <g id="line2d_30">
      <g>
       <use xlink:href="#m05e2fa7d41" x="50.76875" y="79.376106" style="stroke: #000000; stroke-width: 0.8"/>
      </g>
     </g>
     <g id="text_16">
      <!-- 100 -->
      <g transform="translate(24.68125 83.175324)scale(0.1 -0.1)">
       <use xlink:href="#DejaVuSans-31"/>
       <use xlink:href="#DejaVuSans-30" x="63.623047"/>
       <use xlink:href="#DejaVuSans-30" x="127.246094"/>
      </g>
     </g>
    </g>
    <g id="ytick_7">
     <g id="line2d_31">
      <path d="M 50.76875 45.911327 
L 415.979295 45.911327 
" clip-path="url(#pe405eb8b73)" style="fill: none; stroke: #b0b0b0; stroke-width: 0.8; stroke-linecap: square"/>
     </g>
     <g id="line2d_32">
      <g>
       <use xlink:href="#m05e2fa7d41" x="50.76875" y="45.911327" style="stroke: #000000; stroke-width: 0.8"/>
      </g>
     </g>
     <g id="text_17">
      <!-- 120 -->
      <g transform="translate(24.68125 49.710545)scale(0.1 -0.1)">
       <use xlink:href="#DejaVuSans-31"/>
       <use xlink:href="#DejaVuSans-32" x="63.623047"/>
       <use xlink:href="#DejaVuSans-30" x="127.246094"/>
      </g>
     </g>
    </g>
    <g id="text_18">
     <!-- Tiempo -->
     <g transform="translate(18.601562 154.717187)rotate(-90)scale(0.1 -0.1)">
      <use xlink:href="#DejaVuSans-54"/>
      <use xlink:href="#DejaVuSans-69" x="57.958984"/>
      <use xlink:href="#DejaVuSans-65" x="85.742188"/>
      <use xlink:href="#DejaVuSans-6d" x="147.265625"/>
      <use xlink:href="#DejaVuSans-70" x="244.677734"/>
      <use xlink:href="#DejaVuSans-6f" x="308.154297"/>
     </g>
    </g>
   </g>
   <g id="line2d_33">
    <path d="M 51.679601 245.988539 
L 52.40137 245.679741 
L 52.762255 245.65625 
L 53.12314 245.476079 
L 53.484025 245.467971 
L 53.84491 245.265041 
L 54.205794 245.244789 
L 54.927564 244.831173 
L 55.649334 244.41676 
L 56.371103 243.902855 
L 56.731988 243.940256 
L 57.092873 243.615377 
L 57.453758 243.835393 
L 58.536412 243.074305 
L 59.258182 242.947324 
L 60.701721 242.068014 
L 61.062606 242.168116 
L 61.423491 242.136051 
L 62.506145 241.228558 
L 62.86703 241.068698 
L 63.5888 240.479664 
L 63.949685 240.444105 
L 64.310569 240.636556 
L 64.671454 240.553862 
L 65.032339 240.244519 
L 65.754109 240.258107 
L 66.114994 240.566856 
L 66.475878 240.339582 
L 67.197648 240.208942 
L 67.919418 239.766186 
L 68.641187 239.540712 
L 69.002072 239.227126 
L 70.084727 238.753429 
L 70.806496 238.239003 
L 71.167381 238.388661 
L 71.889151 238.080649 
L 72.61092 237.519698 
L 76.219769 235.149795 
L 77.302423 234.399396 
L 78.385077 233.756535 
L 78.745962 233.503635 
L 79.467732 233.705566 
L 80.189502 233.327897 
L 81.272156 232.653505 
L 81.633041 232.708112 
L 81.993926 232.573601 
L 82.715695 231.932195 
L 83.07658 232.183216 
L 84.159235 231.726145 
L 85.602774 230.555725 
L 85.963659 230.453498 
L 87.407198 229.476366 
L 87.768083 229.283011 
L 88.489852 228.716872 
L 88.850737 228.55053 
L 89.211622 228.961226 
L 89.572507 229.160835 
L 89.933392 228.844197 
L 90.294277 228.686549 
L 91.376931 227.91991 
L 91.737816 228.482135 
L 92.459586 228.135885 
L 93.54224 227.375412 
L 95.346664 226.118232 
L 95.707549 225.803154 
L 96.429319 225.500505 
L 97.151088 224.919936 
L 97.511973 224.837385 
L 97.872858 224.539361 
L 98.233743 224.704541 
L 98.955512 224.293976 
L 99.316397 224.247181 
L 100.038167 223.597263 
L 100.399052 223.425773 
L 100.759936 223.395624 
L 101.120821 223.248348 
L 101.481706 222.930606 
L 102.203476 223.48656 
L 102.564361 223.504182 
L 103.28613 223.059924 
L 103.647015 223.354737 
L 104.368785 222.85039 
L 106.534094 221.33103 
L 106.894978 221.647535 
L 107.977633 220.798308 
L 109.421172 219.849851 
L 109.782057 219.870638 
L 110.142942 219.62549 
L 110.503827 219.709806 
L 111.225596 219.092497 
L 112.669136 218.565656 
L 113.75179 217.856273 
L 114.112675 217.937523 
L 114.47356 217.619382 
L 114.834444 217.709787 
L 115.195329 217.518686 
L 115.556214 217.198557 
L 115.917099 217.307193 
L 117.360638 216.272989 
L 117.721523 216.247443 
L 118.082408 215.936443 
L 118.804178 215.652279 
L 119.165062 215.625722 
L 120.969486 214.327599 
L 121.330371 214.127613 
L 122.052141 213.491876 
L 122.413026 213.452679 
L 124.578335 211.932578 
L 125.300104 211.689166 
L 125.660989 211.411467 
L 126.021874 211.624829 
L 127.104528 210.999865 
L 128.187183 210.373962 
L 128.548068 210.418091 
L 129.630722 209.768924 
L 129.991607 209.805987 
L 130.352492 209.982059 
L 131.074261 209.602607 
L 131.435146 209.367748 
L 131.796031 209.346575 
L 132.156916 209.654954 
L 132.517801 209.521469 
L 133.23957 208.931912 
L 133.96134 208.787635 
L 135.043994 208.145282 
L 135.404879 208.166951 
L 136.487534 207.41963 
L 136.848419 207.44219 
L 137.209303 207.670482 
L 138.652843 207.074305 
L 139.374612 206.648912 
L 139.735497 206.83723 
L 140.457267 206.384594 
L 141.539921 205.718337 
L 142.261691 205.312829 
L 142.983461 204.753048 
L 143.344345 204.478457 
L 144.066115 204.200426 
L 145.509654 203.217946 
L 145.870539 203.114704 
L 146.231424 202.873751 
L 146.592309 202.891729 
L 148.396733 201.477701 
L 149.118503 201.031073 
L 150.562042 200.152597 
L 150.922927 200.398987 
L 151.644696 199.971136 
L 152.366466 199.438158 
L 152.727351 199.483107 
L 154.17089 198.359569 
L 154.531775 198.717276 
L 154.89266 198.754909 
L 155.253545 198.470721 
L 155.614429 198.410634 
L 157.057969 197.521606 
L 157.418853 197.204507 
L 157.779738 197.291396 
L 158.501508 196.904368 
L 158.862393 196.675713 
L 159.223278 197.473077 
L 159.584162 197.44626 
L 159.945047 197.138697 
L 160.666817 197.201626 
L 161.749471 196.352545 
L 162.110356 196.177853 
L 162.832126 195.561218 
L 163.553895 195.459778 
L 164.275665 195.400998 
L 166.080089 194.075681 
L 166.440974 193.753027 
L 166.801859 194.096015 
L 167.162744 193.961393 
L 168.245398 193.227916 
L 168.606283 193.107499 
L 168.967168 192.781538 
L 169.328053 192.783675 
L 169.688937 192.525145 
L 170.049822 192.811262 
L 170.410707 192.47942 
L 170.771592 192.468808 
L 171.493362 191.845378 
L 171.854246 191.75298 
L 172.215131 191.493001 
L 172.576016 191.641018 
L 173.297786 191.422759 
L 174.38044 190.642869 
L 175.10221 190.09544 
L 176.545749 188.899684 
L 176.906634 188.596413 
L 177.267519 188.525871 
L 177.989288 188.003168 
L 178.350173 188.01589 
L 178.711058 187.75213 
L 179.432828 188.005921 
L 181.237252 187.106904 
L 181.959021 186.583709 
L 182.319906 186.411613 
L 183.041676 185.895019 
L 183.402561 185.761322 
L 183.763445 185.472131 
L 184.12433 185.953878 
L 184.485215 186.074577 
L 185.206985 185.616578 
L 187.372294 184.86223 
L 187.733178 185.086098 
L 190.620257 182.888884 
L 190.981142 183.037648 
L 192.424681 182.278708 
L 192.785566 182.532117 
L 193.146451 182.240641 
L 193.507336 182.096933 
L 196.033529 180.107986 
L 196.394414 180.129516 
L 196.755299 179.994294 
L 197.116184 180.286558 
L 198.920608 179.021721 
L 199.281493 179.009734 
L 199.642378 178.686735 
L 200.364147 178.435661 
L 201.807687 177.625025 
L 202.168571 177.446667 
L 202.529456 177.491818 
L 202.890341 177.367028 
L 203.251226 177.808705 
L 204.694765 176.901 
L 205.05565 176.962729 
L 206.860074 175.65004 
L 207.220959 175.672388 
L 207.581844 175.402275 
L 207.942729 175.460478 
L 208.664498 175.045763 
L 211.912462 173.295104 
L 212.273346 173.053183 
L 212.995116 173.013942 
L 213.356001 172.713654 
L 213.716886 172.569598 
L 214.07777 172.745821 
L 215.52131 171.854885 
L 215.882195 171.780369 
L 216.243079 171.938403 
L 216.603964 171.647367 
L 216.964849 171.532333 
L 217.325734 171.552871 
L 218.408388 170.701076 
L 218.769273 170.894686 
L 219.491043 170.454359 
L 219.851928 170.124062 
L 220.212812 169.997456 
L 221.295467 169.152845 
L 221.656352 169.037554 
L 224.182546 167.328841 
L 225.2652 167.164327 
L 225.626085 166.8506 
L 226.347854 166.491186 
L 227.791394 165.473843 
L 228.152279 165.343163 
L 229.234933 164.667123 
L 229.595818 164.639559 
L 232.122012 162.633477 
L 232.482896 162.513075 
L 232.843781 162.650387 
L 233.204666 162.320914 
L 234.287321 162.020544 
L 234.648205 161.702155 
L 235.00909 161.759127 
L 235.73086 161.145435 
L 236.813514 160.727516 
L 237.174399 160.539814 
L 237.535284 160.212978 
L 237.896169 160.425228 
L 239.339708 159.286398 
L 239.700593 159.14098 
L 241.144132 157.969463 
L 241.505017 158.078651 
L 241.865902 157.745557 
L 242.587671 157.561233 
L 242.948556 157.483901 
L 243.309441 157.844646 
L 243.670326 157.565367 
L 244.392096 157.247213 
L 245.835635 156.184637 
L 246.19652 155.995321 
L 246.557404 156.295504 
L 247.640059 156.056763 
L 248.361829 155.497758 
L 248.722713 155.708406 
L 249.444483 155.184826 
L 249.805368 155.20338 
L 250.166253 155.367726 
L 250.527137 155.14649 
L 250.888022 155.28648 
L 253.414216 154.369558 
L 253.775101 154.092931 
L 254.496871 154.051356 
L 255.21864 153.579186 
L 255.579525 153.492888 
L 255.94041 153.16047 
L 256.301295 153.43817 
L 256.662179 153.174892 
L 257.023064 153.172005 
L 257.383949 152.864185 
L 257.744834 152.783212 
L 258.466604 153.487614 
L 259.188373 153.161578 
L 260.631913 152.162016 
L 262.075452 151.106954 
L 262.436337 151.061213 
L 264.601646 149.417337 
L 264.96253 149.743222 
L 265.6843 149.178345 
L 266.045185 149.175314 
L 266.40607 148.981576 
L 266.766954 149.250791 
L 267.127839 148.986585 
L 267.488724 149.19406 
L 267.849609 149.119651 
L 268.210494 149.181625 
L 268.571379 148.935653 
L 268.932263 148.849887 
L 271.819342 146.856067 
L 272.180227 146.957561 
L 273.262881 146.052428 
L 273.623766 146.228932 
L 273.984651 146.110658 
L 275.067305 145.23856 
L 275.42819 145.150247 
L 276.14996 144.568324 
L 276.510845 144.592483 
L 277.593499 143.666387 
L 279.037038 143.02901 
L 279.758808 142.545703 
L 281.924117 141.830308 
L 283.367656 140.634539 
L 283.728541 140.449868 
L 284.811196 139.623807 
L 287.698274 137.927481 
L 288.059159 137.913232 
L 289.141813 137.140111 
L 289.502698 137.098902 
L 290.224468 136.582183 
L 290.585353 136.507514 
L 291.307122 135.863127 
L 292.028892 135.574148 
L 292.389777 135.278223 
L 293.833316 134.94917 
L 296.35951 132.983347 
L 296.720395 133.021176 
L 298.524819 131.84196 
L 298.885704 131.941091 
L 299.246588 131.614079 
L 300.329243 131.202339 
L 301.051013 130.652514 
L 301.411897 130.440272 
L 301.772782 130.464216 
L 302.855437 129.777912 
L 303.216321 129.53285 
L 303.577206 129.734443 
L 304.298976 129.270712 
L 310.073133 125.54297 
L 310.434018 125.234929 
L 310.794903 125.424478 
L 311.877557 124.507539 
L 312.238442 124.564971 
L 312.960212 124.171722 
L 313.681981 123.620771 
L 314.403751 123.71304 
L 315.125521 123.160908 
L 316.208175 122.992903 
L 316.929945 122.425227 
L 317.29083 122.482765 
L 318.373484 121.875027 
L 319.095254 121.552206 
L 319.456138 121.284 
L 320.177908 121.062032 
L 320.538793 120.731976 
L 321.982332 120.072103 
L 322.704102 119.433731 
L 323.064987 119.365388 
L 323.425872 119.092413 
L 323.786756 119.29291 
L 324.869411 118.552981 
L 325.230296 118.367921 
L 325.59118 118.547472 
L 325.952065 118.539102 
L 326.673835 118.10859 
L 327.03472 117.791102 
L 327.395605 117.964105 
L 328.117374 117.60092 
L 328.839144 117.551895 
L 329.200029 117.24595 
L 329.560913 117.312073 
L 329.921798 117.794551 
L 330.282683 117.74272 
L 331.365338 116.7993 
L 332.447992 116.21426 
L 332.808877 116.378535 
L 333.169762 116.054724 
L 333.530647 116.181992 
L 334.974186 115.302696 
L 335.695955 115.176609 
L 336.417725 114.57434 
L 336.77861 114.774084 
L 337.861264 113.963136 
L 339.665688 112.610932 
L 340.026573 112.588618 
L 340.748343 112.133729 
L 341.109228 112.242354 
L 341.470113 112.098502 
L 342.191882 111.603965 
L 342.552767 111.755547 
L 342.913652 111.438246 
L 343.274537 111.444319 
L 345.078961 109.979505 
L 346.161615 109.224671 
L 346.5225 109.196149 
L 347.605155 108.324104 
L 349.409579 107.183969 
L 351.214003 105.800708 
L 351.574888 105.712767 
L 353.379312 104.277567 
L 353.740197 104.611807 
L 354.461966 104.15069 
L 354.822851 104.428375 
L 355.183736 104.172189 
L 355.544621 104.613971 
L 356.627275 103.767969 
L 356.98816 103.463084 
L 357.349045 103.426429 
L 358.792584 102.817213 
L 359.153469 103.243525 
L 360.597008 102.311625 
L 360.957893 102.247818 
L 362.401432 101.217146 
L 363.123202 100.809782 
L 363.844972 100.355896 
L 364.205856 100.204667 
L 364.566741 100.307679 
L 364.927626 100.094906 
L 365.288511 100.082145 
L 367.092935 98.901837 
L 367.814705 98.727026 
L 368.175589 98.616638 
L 369.258244 97.876347 
L 369.619129 98.122421 
L 369.980014 98.082947 
L 370.340898 97.823802 
L 370.701783 97.922494 
L 372.867092 96.447585 
L 373.227977 96.576281 
L 373.588862 96.523945 
L 373.949747 96.239055 
L 374.310631 96.612692 
L 374.671516 96.358507 
L 375.032401 96.604951 
L 375.393286 96.47017 
L 376.115056 96.575089 
L 376.836825 95.986243 
L 377.19771 96.459723 
L 379.002134 95.055344 
L 379.363019 95.225172 
L 379.723904 95.262187 
L 380.445673 94.711549 
L 381.167443 94.319502 
L 381.528328 93.994915 
L 381.889213 94.076173 
L 382.250097 93.961047 
L 382.610982 93.646618 
L 382.971867 93.669157 
L 383.693637 93.219951 
L 384.776291 92.398025 
L 385.498061 91.872802 
L 386.219831 91.625373 
L 386.580715 91.336163 
L 386.9416 91.267118 
L 387.66337 90.746675 
L 388.746024 89.962085 
L 389.467794 89.961876 
L 390.550448 89.300284 
L 391.272218 88.883384 
L 391.633103 89.026852 
L 392.354872 88.563391 
L 392.715757 88.361803 
L 393.076642 88.36508 
L 393.437527 88.153119 
L 393.798412 88.289807 
L 394.159297 88.026927 
L 394.520181 87.924752 
L 394.881066 87.594275 
L 395.241951 87.460844 
L 395.602836 87.153159 
L 395.963721 87.394264 
L 396.324606 87.083274 
L 396.68549 87.616223 
L 397.768145 87.125387 
L 398.489914 86.626696 
L 399.933454 85.659483 
L 402.459648 83.963166 
L 402.820532 84.168191 
L 403.181417 84.211273 
L 403.542302 83.889207 
L 403.903187 84.129421 
L 404.624956 83.595841 
L 404.985841 83.912236 
L 406.429381 82.854494 
L 406.790265 82.89979 
L 407.512035 82.358473 
L 408.233805 81.96868 
L 408.594689 82.256378 
L 409.677344 81.46052 
L 410.038229 81.713022 
L 411.120883 80.847135 
L 411.481768 80.878867 
L 411.481768 80.878867 
" clip-path="url(#pe405eb8b73)" style="fill: none; stroke: #1f77b4; stroke-width: 1.5; stroke-linecap: square"/>
   </g>
   <g id="patch_3">
    <path d="M 50.76875 246.7 
L 50.76875 25.8 
" style="fill: none; stroke: #000000; stroke-width: 0.8; stroke-linejoin: miter; stroke-linecap: square"/>
   </g>
   <g id="patch_4">
    <path d="M 415.979295 246.7 
L 415.979295 25.8 
" style="fill: none; stroke: #000000; stroke-width: 0.8; stroke-linejoin: miter; stroke-linecap: square"/>
   </g>
   <g id="patch_5">
    <path d="M 50.76875 246.7 
L 415.979295 246.7 
" style="fill: none; stroke: #000000; stroke-width: 0.8; stroke-linejoin: miter; stroke-linecap: square"/>
   </g>
   <g id="patch_6">
    <path d="M 50.76875 25.8 
L 415.979295 25.8 
" style="fill: none; stroke: #000000; stroke-width: 0.8; stroke-linejoin: miter; stroke-linecap: square"/>
   </g>
   <g id="text_19">
    <!-- Retraso en paquetes recibidos -->
    <g transform="translate(142.245273 19.8)scale(0.12 -0.12)">
     <defs>
      <path id="DejaVuSans-52" d="M 2841 2188 
Q 3044 2119 3236 1894 
Q 3428 1669 3622 1275 
L 4263 0 
L 3584 0 
L 2988 1197 
Q 2756 1666 2539 1819 
Q 2322 1972 1947 1972 
L 1259 1972 
L 1259 0 
L 628 0 
L 628 4666 
L 2053 4666 
Q 2853 4666 3247 4331 
Q 3641 3997 3641 3322 
Q 3641 2881 3436 2590 
Q 3231 2300 2841 2188 
z
M 1259 4147 
L 1259 2491 
L 2053 2491 
Q 2509 2491 2742 2702 
Q 2975 2913 2975 3322 
Q 2975 3731 2742 3939 
Q 2509 4147 2053 4147 
L 1259 4147 
z
" transform="scale(0.015625)"/>
      <path id="DejaVuSans-74" d="M 1172 4494 
L 1172 3500 
L 2356 3500 
L 2356 3053 
L 1172 3053 
L 1172 1153 
Q 1172 725 1289 603 
Q 1406 481 1766 481 
L 2356 481 
L 2356 0 
L 1766 0 
Q 1100 0 847 248 
Q 594 497 594 1153 
L 594 3053 
L 172 3053 
L 172 3500 
L 594 3500 
L 594 4494 
L 1172 4494 
z
" transform="scale(0.015625)"/>
      <path id="DejaVuSans-72" d="M 2631 2963 
Q 2534 3019 2420 3045 
Q 2306 3072 2169 3072 
Q 1681 3072 1420 2755 
Q 1159 2438 1159 1844 
L 1159 0 
L 581 0 
L 581 3500 
L 1159 3500 
L 1159 2956 
Q 1341 3275 1631 3429 
Q 1922 3584 2338 3584 
Q 2397 3584 2469 3576 
Q 2541 3569 2628 3553 
L 2631 2963 
z
" transform="scale(0.015625)"/>
      <path id="DejaVuSans-61" d="M 2194 1759 
Q 1497 1759 1228 1600 
Q 959 1441 959 1056 
Q 959 750 1161 570 
Q 1363 391 1709 391 
Q 2188 391 2477 730 
Q 2766 1069 2766 1631 
L 2766 1759 
L 2194 1759 
z
M 3341 1997 
L 3341 0 
L 2766 0 
L 2766 531 
Q 2569 213 2275 61 
Q 1981 -91 1556 -91 
Q 1019 -91 701 211 
Q 384 513 384 1019 
Q 384 1609 779 1909 
Q 1175 2209 1959 2209 
L 2766 2209 
L 2766 2266 
Q 2766 2663 2505 2880 
Q 2244 3097 1772 3097 
Q 1472 3097 1187 3025 
Q 903 2953 641 2809 
L 641 3341 
Q 956 3463 1253 3523 
Q 1550 3584 1831 3584 
Q 2591 3584 2966 3190 
Q 3341 2797 3341 1997 
z
" transform="scale(0.015625)"/>
      <path id="DejaVuSans-73" d="M 2834 3397 
L 2834 2853 
Q 2591 2978 2328 3040 
Q 2066 3103 1784 3103 
Q 1356 3103 1142 2972 
Q 928 2841 928 2578 
Q 928 2378 1081 2264 
Q 1234 2150 1697 2047 
L 1894 2003 
Q 2506 1872 2764 1633 
Q 3022 1394 3022 966 
Q 3022 478 2636 193 
Q 2250 -91 1575 -91 
Q 1294 -91 989 -36 
Q 684 19 347 128 
L 347 722 
Q 666 556 975 473 
Q 1284 391 1588 391 
Q 1994 391 2212 530 
Q 2431 669 2431 922 
Q 2431 1156 2273 1281 
Q 2116 1406 1581 1522 
L 1381 1569 
Q 847 1681 609 1914 
Q 372 2147 372 2553 
Q 372 3047 722 3315 
Q 1072 3584 1716 3584 
Q 2034 3584 2315 3537 
Q 2597 3491 2834 3397 
z
" transform="scale(0.015625)"/>
      <path id="DejaVuSans-20" transform="scale(0.015625)"/>
      <path id="DejaVuSans-6e" d="M 3513 2113 
L 3513 0 
L 2938 0 
L 2938 2094 
Q 2938 2591 2744 2837 
Q 2550 3084 2163 3084 
Q 1697 3084 1428 2787 
Q 1159 2491 1159 1978 
L 1159 0 
L 581 0 
L 581 3500 
L 1159 3500 
L 1159 2956 
Q 1366 3272 1645 3428 
Q 1925 3584 2291 3584 
Q 2894 3584 3203 3211 
Q 3513 2838 3513 2113 
z
" transform="scale(0.015625)"/>
      <path id="DejaVuSans-71" d="M 947 1747 
Q 947 1113 1208 752 
Q 1469 391 1925 391 
Q 2381 391 2643 752 
Q 2906 1113 2906 1747 
Q 2906 2381 2643 2742 
Q 2381 3103 1925 3103 
Q 1469 3103 1208 2742 
Q 947 2381 947 1747 
z
M 2906 525 
Q 2725 213 2448 61 
Q 2172 -91 1784 -91 
Q 1150 -91 751 415 
Q 353 922 353 1747 
Q 353 2572 751 3078 
Q 1150 3584 1784 3584 
Q 2172 3584 2448 3432 
Q 2725 3281 2906 2969 
L 2906 3500 
L 3481 3500 
L 3481 -1331 
L 2906 -1331 
L 2906 525 
z
" transform="scale(0.015625)"/>
      <path id="DejaVuSans-75" d="M 544 1381 
L 544 3500 
L 1119 3500 
L 1119 1403 
Q 1119 906 1312 657 
Q 1506 409 1894 409 
Q 2359 409 2629 706 
Q 2900 1003 2900 1516 
L 2900 3500 
L 3475 3500 
L 3475 0 
L 2900 0 
L 2900 538 
Q 2691 219 2414 64 
Q 2138 -91 1772 -91 
Q 1169 -91 856 284 
Q 544 659 544 1381 
z
M 1991 3584 
L 1991 3584 
z
" transform="scale(0.015625)"/>
      <path id="DejaVuSans-63" d="M 3122 3366 
L 3122 2828 
Q 2878 2963 2633 3030 
Q 2388 3097 2138 3097 
Q 1578 3097 1268 2742 
Q 959 2388 959 1747 
Q 959 1106 1268 751 
Q 1578 397 2138 397 
Q 2388 397 2633 464 
Q 2878 531 3122 666 
L 3122 134 
Q 2881 22 2623 -34 
Q 2366 -91 2075 -91 
Q 1284 -91 818 406 
Q 353 903 353 1747 
Q 353 2603 823 3093 
Q 1294 3584 2113 3584 
Q 2378 3584 2631 3529 
Q 2884 3475 3122 3366 
z
" transform="scale(0.015625)"/>
      <path id="DejaVuSans-62" d="M 3116 1747 
Q 3116 2381 2855 2742 
Q 2594 3103 2138 3103 
Q 1681 3103 1420 2742 
Q 1159 2381 1159 1747 
Q 1159 1113 1420 752 
Q 1681 391 2138 391 
Q 2594 391 2855 752 
Q 3116 1113 3116 1747 
z
M 1159 2969 
Q 1341 3281 1617 3432 
Q 1894 3584 2278 3584 
Q 2916 3584 3314 3078 
Q 3713 2572 3713 1747 
Q 3713 922 3314 415 
Q 2916 -91 2278 -91 
Q 1894 -91 1617 61 
Q 1341 213 1159 525 
L 1159 0 
L 581 0 
L 581 4863 
L 1159 4863 
L 1159 2969 
z
" transform="scale(0.015625)"/>
      <path id="DejaVuSans-64" d="M 2906 2969 
L 2906 4863 
L 3481 4863 
L 3481 0 
L 2906 0 
L 2906 525 
Q 2725 213 2448 61 
Q 2172 -91 1784 -91 
Q 1150 -91 751 415 
Q 353 922 353 1747 
Q 353 2572 751 3078 
Q 1150 3584 1784 3584 
Q 2172 3584 2448 3432 
Q 2725 3281 2906 2969 
z
M 947 1747 
Q 947 1113 1208 752 
Q 1469 391 1925 391 
Q 2381 391 2643 752 
Q 2906 1113 2906 1747 
Q 2906 2381 2643 2742 
Q 2381 3103 1925 3103 
Q 1469 3103 1208 2742 
Q 947 2381 947 1747 
z
" transform="scale(0.015625)"/>
     </defs>
     <use xlink:href="#DejaVuSans-52"/>
     <use xlink:href="#DejaVuSans-65" x="64.982422"/>
     <use xlink:href="#DejaVuSans-74" x="126.505859"/>
     <use xlink:href="#DejaVuSans-72" x="165.714844"/>
     <use xlink:href="#DejaVuSans-61" x="206.828125"/>
     <use xlink:href="#DejaVuSans-73" x="268.107422"/>
     <use xlink:href="#DejaVuSans-6f" x="320.207031"/>
     <use xlink:href="#DejaVuSans-20" x="381.388672"/>
     <use xlink:href="#DejaVuSans-65" x="413.175781"/>
     <use xlink:href="#DejaVuSans-6e" x="474.699219"/>
     <use xlink:href="#DejaVuSans-20" x="538.078125"/>
     <use xlink:href="#DejaVuSans-70" x="569.865234"/>
     <use xlink:href="#DejaVuSans-61" x="633.341797"/>
     <use xlink:href="#DejaVuSans-71" x="694.621094"/>
     <use xlink:href="#DejaVuSans-75" x="758.097656"/>
     <use xlink:href="#DejaVuSans-65" x="821.476562"/>
     <use xlink:href="#DejaVuSans-74" x="883"/>
     <use xlink:href="#DejaVuSans-65" x="922.208984"/>
     <use xlink:href="#DejaVuSans-73" x="983.732422"/>
     <use xlink:href="#DejaVuSans-20" x="1035.832031"/>
     <use xlink:href="#DejaVuSans-72" x="1067.619141"/>
     <use xlink:href="#DejaVuSans-65" x="1106.482422"/>
     <use xlink:href="#DejaVuSans-63" x="1168.005859"/>
     <use xlink:href="#DejaVuSans-69" x="1222.986328"/>
     <use xlink:href="#DejaVuSans-62" x="1250.769531"/>
     <use xlink:href="#DejaVuSans-69" x="1314.246094"/>
     <use xlink:href="#DejaVuSans-64" x="1342.029297"/>
     <use xlink:href="#DejaVuSans-6f" x="1405.505859"/>
     <use xlink:href="#DejaVuSans-73" x="1466.6875"/>
    </g>
   </g>
  </g>
 </g>
 <defs>
  <clipPath id="pe405eb8b73">
   <rect x="50.76875" y="25.8" width="365.210545" height="220.9"/>
  </clipPath>
 </defs>
</svg>
