<?xml version="1.0" encoding="utf-8" standalone="no"?>
<!DOCTYPE svg PUBLIC "-//W3C//DTD SVG 1.1//EN"
  "http://www.w3.org/Graphics/SVG/1.1/DTD/svg11.dtd">
<svg xmlns:xlink="http://www.w3.org/1999/xlink" width="432pt" height="288pt" viewBox="0 0 432 288" xmlns="http://www.w3.org/2000/svg" version="1.1">
 <metadata>
  <rdf:RDF xmlns:dc="http://purl.org/dc/elements/1.1/" xmlns:cc="http://creativecommons.org/ns#" xmlns:rdf="http://www.w3.org/1999/02/22-rdf-syntax-ns#">
   <cc:Work>
    <dc:type rdf:resource="http://purl.org/dc/dcmitype/StillImage"/>
    <dc:date>2022-05-22T20:32:11.013675</dc:date>
    <dc:format>image/svg+xml</dc:format>
    <dc:creator>
     <cc:Agent>
      <dc:title>omnetpp.scave 6.0.0; Matplotlib 3.5.1 w/ backend GTK3Agg; Pandas 1.4.2; Python 3.8.10; Linux-5.4.0-109-generic-x86_64-with-glibc2.29</dc:title>
     </cc:Agent>
    </dc:creator>
   </cc:Work>
  </rdf:RDF>
 </metadata>
 <defs>
  <style type="text/css">*{stroke-linejoin: round; stroke-linecap: butt}</style>
 </defs>
 <g id="figure_1">
  <g id="patch_1">
   <path d="M 0 288 
L 432 288 
L 432 0 
L 0 0 
z
" style="fill: #ffffff"/>
  </g>
  <g id="axes_1">
   <g id="patch_2">
    <path d="M 40.20625 260.45 
L 416.195674 260.45 
L 416.195674 25.8 
L 40.20625 25.8 
z
" style="fill: #ffffff"/>
   </g>
   <g id="matplotlib.axis_1">
    <g id="xtick_1">
     <g id="line2d_1">
      <path d="M 40.20625 260.45 
L 40.20625 25.8 
" clip-path="url(#p519e3e6540)" style="fill: none; stroke: #b0b0b0; stroke-width: 0.8; stroke-linecap: square"/>
     </g>
     <g id="line2d_2">
      <defs>
       <path id="m48ed4cc9a6" d="M 0 0 
L 0 3.5 
" style="stroke: #000000; stroke-width: 0.8"/>
      </defs>
      <g>
       <use xlink:href="#m48ed4cc9a6" x="40.20625" y="260.45" style="stroke: #000000; stroke-width: 0.8"/>
      </g>
     </g>
     <g id="text_1">
      <!-- 0 -->
      <g transform="translate(37.025 275.048437)scale(0.1 -0.1)">
       <defs>
        <path id="DejaVuSans-30" d="M 2034 4250 
Q 1547 4250 1301 3770 
Q 1056 3291 1056 2328 
Q 1056 1369 1301 889 
Q 1547 409 2034 409 
Q 2525 409 2770 889 
Q 3016 1369 3016 2328 
Q 3016 3291 2770 3770 
Q 2525 4250 2034 4250 
z
M 2034 4750 
Q 2819 4750 3233 4129 
Q 3647 3509 3647 2328 
Q 3647 1150 3233 529 
Q 2819 -91 2034 -91 
Q 1250 -91 836 529 
Q 422 1150 422 2328 
Q 422 3509 836 4129 
Q 1250 4750 2034 4750 
z
" transform="scale(0.015625)"/>
       </defs>
       <use xlink:href="#DejaVuSans-30"/>
      </g>
     </g>
    </g>
    <g id="xtick_2">
     <g id="line2d_3">
      <path d="M 86.646207 260.45 
L 86.646207 25.8 
" clip-path="url(#p519e3e6540)" style="fill: none; stroke: #b0b0b0; stroke-width: 0.8; stroke-linecap: square"/>
     </g>
     <g id="line2d_4">
      <g>
       <use xlink:href="#m48ed4cc9a6" x="86.646207" y="260.45" style="stroke: #000000; stroke-width: 0.8"/>
      </g>
     </g>
     <g id="text_2">
      <!-- 25 -->
      <g transform="translate(80.283707 275.048437)scale(0.1 -0.1)">
       <defs>
        <path id="DejaVuSans-32" d="M 1228 531 
L 3431 531 
L 3431 0 
L 469 0 
L 469 531 
Q 828 903 1448 1529 
Q 2069 2156 2228 2338 
Q 2531 2678 2651 2914 
Q 2772 3150 2772 3378 
Q 2772 3750 2511 3984 
Q 2250 4219 1831 4219 
Q 1534 4219 1204 4116 
Q 875 4013 500 3803 
L 500 4441 
Q 881 4594 1212 4672 
Q 1544 4750 1819 4750 
Q 2544 4750 2975 4387 
Q 3406 4025 3406 3419 
Q 3406 3131 3298 2873 
Q 3191 2616 2906 2266 
Q 2828 2175 2409 1742 
Q 1991 1309 1228 531 
z
" transform="scale(0.015625)"/>
        <path id="DejaVuSans-35" d="M 691 4666 
L 3169 4666 
L 3169 4134 
L 1269 4134 
L 1269 2991 
Q 1406 3038 1543 3061 
Q 1681 3084 1819 3084 
Q 2600 3084 3056 2656 
Q 3513 2228 3513 1497 
Q 3513 744 3044 326 
Q 2575 -91 1722 -91 
Q 1428 -91 1123 -41 
Q 819 9 494 109 
L 494 744 
Q 775 591 1075 516 
Q 1375 441 1709 441 
Q 2250 441 2565 725 
Q 2881 1009 2881 1497 
Q 2881 1984 2565 2268 
Q 2250 2553 1709 2553 
Q 1456 2553 1204 2497 
Q 953 2441 691 2322 
L 691 4666 
z
" transform="scale(0.015625)"/>
       </defs>
       <use xlink:href="#DejaVuSans-32"/>
       <use xlink:href="#DejaVuSans-35" x="63.623047"/>
      </g>
     </g>
    </g>
    <g id="xtick_3">
     <g id="line2d_5">
      <path d="M 133.086163 260.45 
L 133.086163 25.8 
" clip-path="url(#p519e3e6540)" style="fill: none; stroke: #b0b0b0; stroke-width: 0.8; stroke-linecap: square"/>
     </g>
     <g id="line2d_6">
      <g>
       <use xlink:href="#m48ed4cc9a6" x="133.086163" y="260.45" style="stroke: #000000; stroke-width: 0.8"/>
      </g>
     </g>
     <g id="text_3">
      <!-- 50 -->
      <g transform="translate(126.723663 275.048437)scale(0.1 -0.1)">
       <use xlink:href="#DejaVuSans-35"/>
       <use xlink:href="#DejaVuSans-30" x="63.623047"/>
      </g>
     </g>
    </g>
    <g id="xtick_4">
     <g id="line2d_7">
      <path d="M 179.52612 260.45 
L 179.52612 25.8 
" clip-path="url(#p519e3e6540)" style="fill: none; stroke: #b0b0b0; stroke-width: 0.8; stroke-linecap: square"/>
     </g>
     <g id="line2d_8">
      <g>
       <use xlink:href="#m48ed4cc9a6" x="179.52612" y="260.45" style="stroke: #000000; stroke-width: 0.8"/>
      </g>
     </g>
     <g id="text_4">
      <!-- 75 -->
      <g transform="translate(173.16362 275.048437)scale(0.1 -0.1)">
       <defs>
        <path id="DejaVuSans-37" d="M 525 4666 
L 3525 4666 
L 3525 4397 
L 1831 0 
L 1172 0 
L 2766 4134 
L 525 4134 
L 525 4666 
z
" transform="scale(0.015625)"/>
       </defs>
       <use xlink:href="#DejaVuSans-37"/>
       <use xlink:href="#DejaVuSans-35" x="63.623047"/>
      </g>
     </g>
    </g>
    <g id="xtick_5">
     <g id="line2d_9">
      <path d="M 225.966076 260.45 
L 225.966076 25.8 
" clip-path="url(#p519e3e6540)" style="fill: none; stroke: #b0b0b0; stroke-width: 0.8; stroke-linecap: square"/>
     </g>
     <g id="line2d_10">
      <g>
       <use xlink:href="#m48ed4cc9a6" x="225.966076" y="260.45" style="stroke: #000000; stroke-width: 0.8"/>
      </g>
     </g>
     <g id="text_5">
      <!-- 100 -->
      <g transform="translate(216.422326 275.048437)scale(0.1 -0.1)">
       <defs>
        <path id="DejaVuSans-31" d="M 794 531 
L 1825 531 
L 1825 4091 
L 703 3866 
L 703 4441 
L 1819 4666 
L 2450 4666 
L 2450 531 
L 3481 531 
L 3481 0 
L 794 0 
L 794 531 
z
" transform="scale(0.015625)"/>
       </defs>
       <use xlink:href="#DejaVuSans-31"/>
       <use xlink:href="#DejaVuSans-30" x="63.623047"/>
       <use xlink:href="#DejaVuSans-30" x="127.246094"/>
      </g>
     </g>
    </g>
    <g id="xtick_6">
     <g id="line2d_11">
      <path d="M 272.406033 260.45 
L 272.406033 25.8 
" clip-path="url(#p519e3e6540)" style="fill: none; stroke: #b0b0b0; stroke-width: 0.8; stroke-linecap: square"/>
     </g>
     <g id="line2d_12">
      <g>
       <use xlink:href="#m48ed4cc9a6" x="272.406033" y="260.45" style="stroke: #000000; stroke-width: 0.8"/>
      </g>
     </g>
     <g id="text_6">
      <!-- 125 -->
      <g transform="translate(262.862283 275.048437)scale(0.1 -0.1)">
       <use xlink:href="#DejaVuSans-31"/>
       <use xlink:href="#DejaVuSans-32" x="63.623047"/>
       <use xlink:href="#DejaVuSans-35" x="127.246094"/>
      </g>
     </g>
    </g>
    <g id="xtick_7">
     <g id="line2d_13">
      <path d="M 318.84599 260.45 
L 318.84599 25.8 
" clip-path="url(#p519e3e6540)" style="fill: none; stroke: #b0b0b0; stroke-width: 0.8; stroke-linecap: square"/>
     </g>
     <g id="line2d_14">
      <g>
       <use xlink:href="#m48ed4cc9a6" x="318.84599" y="260.45" style="stroke: #000000; stroke-width: 0.8"/>
      </g>
     </g>
     <g id="text_7">
      <!-- 150 -->
      <g transform="translate(309.30224 275.048437)scale(0.1 -0.1)">
       <use xlink:href="#DejaVuSans-31"/>
       <use xlink:href="#DejaVuSans-35" x="63.623047"/>
       <use xlink:href="#DejaVuSans-30" x="127.246094"/>
      </g>
     </g>
    </g>
    <g id="xtick_8">
     <g id="line2d_15">
      <path d="M 365.285946 260.45 
L 365.285946 25.8 
" clip-path="url(#p519e3e6540)" style="fill: none; stroke: #b0b0b0; stroke-width: 0.8; stroke-linecap: square"/>
     </g>
     <g id="line2d_16">
      <g>
       <use xlink:href="#m48ed4cc9a6" x="365.285946" y="260.45" style="stroke: #000000; stroke-width: 0.8"/>
      </g>
     </g>
     <g id="text_8">
      <!-- 175 -->
      <g transform="translate(355.742196 275.048437)scale(0.1 -0.1)">
       <use xlink:href="#DejaVuSans-31"/>
       <use xlink:href="#DejaVuSans-37" x="63.623047"/>
       <use xlink:href="#DejaVuSans-35" x="127.246094"/>
      </g>
     </g>
    </g>
    <g id="xtick_9">
     <g id="line2d_17">
      <path d="M 411.725903 260.45 
L 411.725903 25.8 
" clip-path="url(#p519e3e6540)" style="fill: none; stroke: #b0b0b0; stroke-width: 0.8; stroke-linecap: square"/>
     </g>
     <g id="line2d_18">
      <g>
       <use xlink:href="#m48ed4cc9a6" x="411.725903" y="260.45" style="stroke: #000000; stroke-width: 0.8"/>
      </g>
     </g>
     <g id="text_9">
      <!-- 200 -->
      <g transform="translate(402.182153 275.048437)scale(0.1 -0.1)">
       <use xlink:href="#DejaVuSans-32"/>
       <use xlink:href="#DejaVuSans-30" x="63.623047"/>
       <use xlink:href="#DejaVuSans-30" x="127.246094"/>
      </g>
     </g>
    </g>
   </g>
   <g id="matplotlib.axis_2">
    <g id="ytick_1">
     <g id="line2d_19">
      <path d="M 40.20625 260.45 
L 416.195674 260.45 
" clip-path="url(#p519e3e6540)" style="fill: none; stroke: #b0b0b0; stroke-width: 0.8; stroke-linecap: square"/>
     </g>
     <g id="line2d_20">
      <defs>
       <path id="mffa36d2830" d="M 0 0 
L -3.5 0 
" style="stroke: #000000; stroke-width: 0.8"/>
      </defs>
      <g>
       <use xlink:href="#mffa36d2830" x="40.20625" y="260.45" style="stroke: #000000; stroke-width: 0.8"/>
      </g>
     </g>
     <g id="text_10">
      <!-- 0.00 -->
      <g transform="translate(10.940625 264.249219)scale(0.1 -0.1)">
       <defs>
        <path id="DejaVuSans-2e" d="M 684 794 
L 1344 794 
L 1344 0 
L 684 0 
L 684 794 
z
" transform="scale(0.015625)"/>
       </defs>
       <use xlink:href="#DejaVuSans-30"/>
       <use xlink:href="#DejaVuSans-2e" x="63.623047"/>
       <use xlink:href="#DejaVuSans-30" x="95.410156"/>
       <use xlink:href="#DejaVuSans-30" x="159.033203"/>
      </g>
     </g>
    </g>
    <g id="ytick_2">
     <g id="line2d_21">
      <path d="M 40.20625 228.714022 
L 416.195674 228.714022 
" clip-path="url(#p519e3e6540)" style="fill: none; stroke: #b0b0b0; stroke-width: 0.8; stroke-linecap: square"/>
     </g>
     <g id="line2d_22">
      <g>
       <use xlink:href="#mffa36d2830" x="40.20625" y="228.714022" style="stroke: #000000; stroke-width: 0.8"/>
      </g>
     </g>
     <g id="text_11">
      <!-- 0.25 -->
      <g transform="translate(10.940625 232.513241)scale(0.1 -0.1)">
       <use xlink:href="#DejaVuSans-30"/>
       <use xlink:href="#DejaVuSans-2e" x="63.623047"/>
       <use xlink:href="#DejaVuSans-32" x="95.410156"/>
       <use xlink:href="#DejaVuSans-35" x="159.033203"/>
      </g>
     </g>
    </g>
    <g id="ytick_3">
     <g id="line2d_23">
      <path d="M 40.20625 196.978045 
L 416.195674 196.978045 
" clip-path="url(#p519e3e6540)" style="fill: none; stroke: #b0b0b0; stroke-width: 0.8; stroke-linecap: square"/>
     </g>
     <g id="line2d_24">
      <g>
       <use xlink:href="#mffa36d2830" x="40.20625" y="196.978045" style="stroke: #000000; stroke-width: 0.8"/>
      </g>
     </g>
     <g id="text_12">
      <!-- 0.50 -->
      <g transform="translate(10.940625 200.777264)scale(0.1 -0.1)">
       <use xlink:href="#DejaVuSans-30"/>
       <use xlink:href="#DejaVuSans-2e" x="63.623047"/>
       <use xlink:href="#DejaVuSans-35" x="95.410156"/>
       <use xlink:href="#DejaVuSans-30" x="159.033203"/>
      </g>
     </g>
    </g>
    <g id="ytick_4">
     <g id="line2d_25">
      <path d="M 40.20625 165.242067 
L 416.195674 165.242067 
" clip-path="url(#p519e3e6540)" style="fill: none; stroke: #b0b0b0; stroke-width: 0.8; stroke-linecap: square"/>
     </g>
     <g id="line2d_26">
      <g>
       <use xlink:href="#mffa36d2830" x="40.20625" y="165.242067" style="stroke: #000000; stroke-width: 0.8"/>
      </g>
     </g>
     <g id="text_13">
      <!-- 0.75 -->
      <g transform="translate(10.940625 169.041286)scale(0.1 -0.1)">
       <use xlink:href="#DejaVuSans-30"/>
       <use xlink:href="#DejaVuSans-2e" x="63.623047"/>
       <use xlink:href="#DejaVuSans-37" x="95.410156"/>
       <use xlink:href="#DejaVuSans-35" x="159.033203"/>
      </g>
     </g>
    </g>
    <g id="ytick_5">
     <g id="line2d_27">
      <path d="M 40.20625 133.50609 
L 416.195674 133.50609 
" clip-path="url(#p519e3e6540)" style="fill: none; stroke: #b0b0b0; stroke-width: 0.8; stroke-linecap: square"/>
     </g>
     <g id="line2d_28">
      <g>
       <use xlink:href="#mffa36d2830" x="40.20625" y="133.50609" style="stroke: #000000; stroke-width: 0.8"/>
      </g>
     </g>
     <g id="text_14">
      <!-- 1.00 -->
      <g transform="translate(10.940625 137.305308)scale(0.1 -0.1)">
       <use xlink:href="#DejaVuSans-31"/>
       <use xlink:href="#DejaVuSans-2e" x="63.623047"/>
       <use xlink:href="#DejaVuSans-30" x="95.410156"/>
       <use xlink:href="#DejaVuSans-30" x="159.033203"/>
      </g>
     </g>
    </g>
    <g id="ytick_6">
     <g id="line2d_29">
      <path d="M 40.20625 101.770112 
L 416.195674 101.770112 
" clip-path="url(#p519e3e6540)" style="fill: none; stroke: #b0b0b0; stroke-width: 0.8; stroke-linecap: square"/>
     </g>
     <g id="line2d_30">
      <g>
       <use xlink:href="#mffa36d2830" x="40.20625" y="101.770112" style="stroke: #000000; stroke-width: 0.8"/>
      </g>
     </g>
     <g id="text_15">
      <!-- 1.25 -->
      <g transform="translate(10.940625 105.569331)scale(0.1 -0.1)">
       <use xlink:href="#DejaVuSans-31"/>
       <use xlink:href="#DejaVuSans-2e" x="63.623047"/>
       <use xlink:href="#DejaVuSans-32" x="95.410156"/>
       <use xlink:href="#DejaVuSans-35" x="159.033203"/>
      </g>
     </g>
    </g>
    <g id="ytick_7">
     <g id="line2d_31">
      <path d="M 40.20625 70.034135 
L 416.195674 70.034135 
" clip-path="url(#p519e3e6540)" style="fill: none; stroke: #b0b0b0; stroke-width: 0.8; stroke-linecap: square"/>
     </g>
     <g id="line2d_32">
      <g>
       <use xlink:href="#mffa36d2830" x="40.20625" y="70.034135" style="stroke: #000000; stroke-width: 0.8"/>
      </g>
     </g>
     <g id="text_16">
      <!-- 1.50 -->
      <g transform="translate(10.940625 73.833353)scale(0.1 -0.1)">
       <use xlink:href="#DejaVuSans-31"/>
       <use xlink:href="#DejaVuSans-2e" x="63.623047"/>
       <use xlink:href="#DejaVuSans-35" x="95.410156"/>
       <use xlink:href="#DejaVuSans-30" x="159.033203"/>
      </g>
     </g>
    </g>
    <g id="ytick_8">
     <g id="line2d_33">
      <path d="M 40.20625 38.298157 
L 416.195674 38.298157 
" clip-path="url(#p519e3e6540)" style="fill: none; stroke: #b0b0b0; stroke-width: 0.8; stroke-linecap: square"/>
     </g>
     <g id="line2d_34">
      <g>
       <use xlink:href="#mffa36d2830" x="40.20625" y="38.298157" style="stroke: #000000; stroke-width: 0.8"/>
      </g>
     </g>
     <g id="text_17">
      <!-- 1.75 -->
      <g transform="translate(10.940625 42.097376)scale(0.1 -0.1)">
       <use xlink:href="#DejaVuSans-31"/>
       <use xlink:href="#DejaVuSans-2e" x="63.623047"/>
       <use xlink:href="#DejaVuSans-37" x="95.410156"/>
       <use xlink:href="#DejaVuSans-35" x="159.033203"/>
      </g>
     </g>
    </g>
   </g>
   <g id="line2d_35">
    <path d="M 41.439625 206.473449 
L 46.764447 206.473449 
L 47.135967 202.070342 
L 47.616001 206.473449 
L 48.194545 206.473449 
L 48.566065 199.559887 
L 48.937585 196.088702 
L 49.309104 184.149341 
L 50.221555 206.473449 
L 50.593075 183.308141 
L 52.101424 206.473449 
L 52.472944 193.208679 
L 52.844464 186.237 
L 53.215983 185.581196 
L 53.784576 206.473449 
L 55.135915 206.473449 
L 55.507435 205.98659 
L 55.968109 206.473449 
L 56.339629 200.083296 
L 57.694074 206.473449 
L 58.701841 206.473449 
L 59.07336 183.890839 
L 59.44488 174.176253 
L 59.8164 152.259173 
L 60.187919 166.652549 
L 60.559439 142.041639 
L 60.930959 134.142483 
L 61.302478 176.826903 
L 62.624179 206.473449 
L 63.463322 206.473449 
L 63.834841 186.844018 
L 64.684625 206.473449 
L 67.964835 206.473449 
L 68.336355 205.522989 
L 69.217014 206.473449 
L 70.116464 206.473449 
L 70.487984 204.655465 
L 70.870961 206.473449 
L 72.349131 206.473449 
L 72.720651 185.878364 
L 73.129937 206.473449 
L 74.185286 206.473449 
L 74.556806 186.977265 
L 76.314085 206.473449 
L 77.517359 206.473449 
L 77.888879 185.347932 
L 78.260398 180.355192 
L 78.631918 179.404181 
L 79.374957 148.181703 
L 80.117996 204.933692 
L 80.489516 202.740701 
L 80.861036 186.64606 
L 81.232555 193.25989 
L 82.347114 138.268451 
L 82.718634 149.492106 
L 83.090154 130.277996 
L 83.461673 140.953852 
L 83.833193 125.140776 
L 84.204713 136.294626 
L 84.576232 129.511647 
L 85.053836 206.473449 
L 86.989854 206.473449 
L 87.361374 203.848735 
L 87.732894 195.426711 
L 88.104413 206.197695 
L 88.475933 202.68893 
L 89.716981 206.473449 
L 90.383547 206.473449 
L 91.126587 162.043456 
L 92.42703 206.473449 
L 94.248411 206.473449 
L 94.99145 171.829165 
L 95.36297 163.326616 
L 95.73449 143.194404 
L 96.106009 170.704775 
L 96.477529 159.748067 
L 96.849049 170.00748 
L 97.592088 151.41837 
L 97.963607 158.188078 
L 98.335127 134.291515 
L 98.706647 130.889074 
L 99.078166 143.807052 
L 100.643555 206.473449 
L 102.422919 206.473449 
L 102.794438 185.183754 
L 103.165958 200.080358 
L 103.537477 183.614521 
L 103.908997 196.614311 
L 104.280517 177.924875 
L 106.849833 206.473449 
L 107.92575 206.473449 
L 108.297269 192.208021 
L 108.668789 187.196199 
L 109.040308 185.721425 
L 109.411828 184.849867 
L 109.783348 170.134922 
L 110.154867 181.948224 
L 110.526387 163.152685 
L 110.897907 153.473258 
L 111.269426 132.538509 
L 112.012466 165.210337 
L 112.383985 154.352412 
L 112.755505 134.627065 
L 113.127025 166.615737 
L 113.498544 149.562622 
L 114.330455 206.473449 
L 114.701975 198.603458 
L 115.192167 206.473449 
L 116.150873 206.473449 
L 116.893912 160.106277 
L 117.265432 171.852471 
L 117.772963 206.473449 
L 118.397013 206.473449 
L 118.768532 184.932392 
L 120.444805 206.473449 
L 123.707315 206.473449 
L 124.078835 205.166051 
L 124.456812 206.473449 
L 126.553257 206.473449 
L 126.924776 183.267859 
L 127.296296 193.238484 
L 127.667816 190.697583 
L 128.186084 206.473449 
L 128.929123 157.987214 
L 129.300643 154.79629 
L 129.672163 142.066745 
L 130.898377 206.473449 
L 131.269897 185.961475 
L 131.641417 177.53568 
L 132.012936 165.520797 
L 132.384456 165.101106 
L 132.755976 144.525605 
L 133.127495 163.575069 
L 133.499015 152.760753 
L 133.896819 206.473449 
L 134.268339 201.454762 
L 135.590278 206.473449 
L 136.333317 167.528055 
L 136.704837 187.046552 
L 137.447876 199.827558 
L 138.46699 206.473449 
L 138.83851 192.830083 
L 139.210029 194.527879 
L 140.833201 206.473449 
L 141.204721 184.841584 
L 142.303836 206.473449 
L 142.781924 206.473449 
L 143.153444 184.389163 
L 144.306655 206.473449 
L 145.049695 182.693071 
L 145.421214 157.662299 
L 145.792734 174.197222 
L 146.349907 206.473449 
L 146.721426 186.466989 
L 147.092946 200.75252 
L 147.711366 206.473449 
L 148.737475 206.473449 
L 149.480514 180.418411 
L 149.852033 162.735775 
L 150.223553 156.662783 
L 150.595073 164.906358 
L 150.966592 170.166814 
L 151.709632 127.027391 
L 152.081151 168.883632 
L 152.452671 161.079027 
L 153.19571 116.51085 
L 153.56723 134.25637 
L 153.93875 140.974865 
L 154.310269 127.571682 
L 155.053309 173.725944 
L 155.424828 161.298646 
L 156.588945 206.473449 
L 156.960465 202.712259 
L 157.331985 188.216064 
L 157.851155 206.473449 
L 158.32952 206.473449 
L 158.70104 200.29168 
L 159.110232 206.473449 
L 161.412696 206.473449 
L 161.784215 190.697622 
L 162.791364 206.473449 
L 165.127418 206.473449 
L 165.870458 200.976908 
L 166.834066 206.473449 
L 169.645678 206.473449 
L 170.017197 185.788954 
L 170.388717 173.844299 
L 170.760237 203.93579 
L 171.659846 206.473449 
L 172.402885 195.140198 
L 172.86414 206.473449 
L 174.050866 206.473449 
L 174.422386 192.03017 
L 174.793906 199.794155 
L 175.165425 188.7147 
L 176.095255 206.473449 
L 182.996879 206.473449 
L 183.368399 191.064639 
L 183.739919 205.008044 
L 184.482958 194.358978 
L 184.854478 205.699648 
L 185.362763 206.473449 
L 185.734283 205.614218 
L 186.105803 180.96348 
L 186.477322 179.762377 
L 186.848842 168.042682 
L 187.220362 190.602272 
L 187.591881 206.317428 
L 188.334921 181.522655 
L 188.70644 174.552255 
L 189.07796 185.813769 
L 189.546348 206.473449 
L 189.917868 202.409762 
L 191.03284 206.473449 
L 191.77588 165.373622 
L 192.147399 153.474819 
L 192.518919 131.777163 
L 192.890439 138.526332 
L 193.261958 129.780963 
L 193.633478 138.42822 
L 194.004998 143.603164 
L 194.376517 150.740449 
L 194.748037 126.654241 
L 195.119557 141.595897 
L 196.105362 206.473449 
L 196.693765 206.473449 
L 197.065285 195.82781 
L 197.436804 191.941187 
L 197.808324 176.076302 
L 198.627779 206.473449 
L 198.999299 186.884492 
L 199.370818 178.944387 
L 199.742338 157.452299 
L 200.113858 153.864669 
L 201.649938 206.473449 
L 202.889838 206.473449 
L 203.261357 192.569254 
L 203.972333 206.473449 
L 205.079701 206.473449 
L 205.45122 203.708871 
L 206.19426 160.947605 
L 206.932014 206.473449 
L 207.303534 197.625928 
L 207.872118 206.473449 
L 208.243638 205.208934 
L 211.995347 206.473449 
L 213.020593 206.473449 
L 213.392112 187.249194 
L 214.420505 206.473449 
L 215.549503 206.473449 
L 216.292542 163.906941 
L 216.664062 165.554086 
L 217.035581 176.571539 
L 217.778621 137.779599 
L 218.664677 206.473449 
L 220.698026 206.473449 
L 221.069545 201.268859 
L 221.462548 206.473449 
L 221.834068 186.827267 
L 222.205588 181.351035 
L 222.948627 134.589805 
L 224.153634 206.473449 
L 224.819828 206.473449 
L 225.191347 198.879889 
L 225.562867 196.504733 
L 225.934387 191.86584 
L 226.434134 206.473449 
L 226.805654 183.061662 
L 227.584741 206.473449 
L 227.956261 198.409154 
L 229.905739 206.473449 
L 230.277258 181.723237 
L 230.994298 206.473449 
L 231.365818 191.075 
L 231.737337 166.134961 
L 232.108857 195.882771 
L 232.480377 187.488712 
L 233.810104 206.473449 
L 235.3123 206.473449 
L 235.68382 188.255537 
L 236.05534 178.656517 
L 236.426859 181.301943 
L 236.798379 181.522591 
L 237.169899 158.261518 
L 237.541418 148.638367 
L 238.284458 113.892627 
L 239.027497 70.968362 
L 239.399017 105.690545 
L 239.770536 104.012246 
L 240.142056 88.277765 
L 240.513576 141.950833 
L 240.885095 132.696258 
L 241.412995 206.473449 
L 244.587325 206.473449 
L 244.958844 182.316917 
L 245.458457 206.473449 
L 245.829977 187.938014 
L 246.201496 188.948479 
L 246.573016 200.55682 
L 246.944536 177.136287 
L 247.316055 184.534209 
L 247.687575 204.882209 
L 248.059095 189.839409 
L 250.534726 206.473449 
L 252.051277 206.473449 
L 252.422797 192.927308 
L 252.794317 203.787221 
L 253.38841 206.473449 
L 258.790135 206.473449 
L 259.161655 195.323451 
L 259.533175 200.705114 
L 259.904694 194.657447 
L 261.762293 112.604739 
L 262.133812 197.241122 
L 262.505332 203.955647 
L 263.218223 206.473449 
L 263.589743 203.998512 
L 263.961262 204.287103 
L 265.887816 206.473449 
L 266.259335 190.910612 
L 266.667534 206.473449 
L 267.039053 192.26237 
L 268.153612 123.979531 
L 268.525132 120.294256 
L 268.896652 120.387448 
L 269.268171 109.229197 
L 269.639691 164.906927 
L 270.011211 184.907883 
L 271.783593 206.473449 
L 272.155113 199.151945 
L 272.583766 206.473449 
L 272.955286 188.623907 
L 273.326805 193.015241 
L 273.698325 168.578095 
L 274.218429 206.473449 
L 274.589949 183.735929 
L 275.016202 206.473449 
L 275.650129 206.473449 
L 276.021649 205.8856 
L 276.393169 203.521189 
L 276.979891 206.473449 
L 282.478499 206.473449 
L 282.850019 205.226734 
L 283.221538 189.148946 
L 283.593058 186.946453 
L 283.964578 202.988524 
L 285.233731 206.473449 
L 285.605251 192.723072 
L 286.71981 132.887349 
L 287.62355 206.473449 
L 287.99507 195.772879 
L 289.146891 206.473449 
L 289.518411 199.503152 
L 289.994785 206.473449 
L 290.489372 206.473449 
L 290.860891 196.035094 
L 291.699067 206.473449 
L 292.660303 206.473449 
L 293.031823 181.086775 
L 293.808787 206.473449 
L 294.551827 182.100394 
L 294.923346 177.816196 
L 295.395489 206.473449 
L 296.602425 206.473449 
L 296.973945 188.904962 
L 297.351635 206.473449 
L 299.053112 206.473449 
L 299.424631 204.279019 
L 300.040699 206.473449 
L 300.412219 206.23872 
L 300.783738 190.093429 
L 301.410428 206.473449 
L 303.051326 206.473449 
L 303.422846 191.01067 
L 303.928009 206.473449 
L 305.110972 206.473449 
L 306.225531 164.936297 
L 307.377093 206.473449 
L 307.784034 206.473449 
L 308.155554 205.388914 
L 308.527074 180.990209 
L 308.898593 202.95217 
L 309.641633 167.385012 
L 310.013152 163.050069 
L 310.384672 187.587275 
L 310.756192 180.04718 
L 311.127711 194.234646 
L 311.499231 192.565181 
L 312.61379 145.855927 
L 312.985309 154.124507 
L 313.356829 191.499695 
L 314.248952 206.473449 
L 315.015033 206.473449 
L 315.386553 185.846305 
L 315.758072 203.242464 
L 316.129592 205.598181 
L 316.501112 192.55593 
L 317.244151 154.49447 
L 317.98719 198.194099 
L 318.35871 192.009897 
L 318.730229 190.310255 
L 319.101749 196.65916 
L 319.980889 206.473449 
L 321.466968 134.183456 
L 321.838487 134.292904 
L 322.210007 113.982156 
L 322.581527 105.32923 
L 322.953046 128.70307 
L 323.386898 206.473449 
L 323.758417 182.262439 
L 324.211939 206.473449 
L 325.747415 206.473449 
L 326.118935 184.785121 
L 327.105873 206.473449 
L 327.477392 190.422589 
L 327.848912 168.351178 
L 328.220432 195.643476 
L 328.591951 200.850402 
L 329.24284 206.473449 
L 329.732251 206.473449 
L 330.10377 182.862685 
L 331.579735 206.473449 
L 332.322774 177.790807 
L 333.065813 150.384225 
L 333.437333 168.064407 
L 334.551892 99.033558 
L 334.923412 104.5356 
L 335.294931 180.164663 
L 335.666451 155.129408 
L 336.037971 171.952386 
L 336.530341 206.473449 
L 339.703379 206.473449 
L 340.074898 193.686766 
L 340.565267 206.473449 
L 341.057278 206.473449 
L 341.800318 165.846354 
L 342.171837 167.810676 
L 342.543357 167.739883 
L 342.914877 175.42884 
L 344.574926 206.473449 
L 347.123465 206.473449 
L 347.494985 196.80273 
L 347.866504 180.798245 
L 349.306923 206.473449 
L 349.678443 204.21179 
L 350.049963 188.86086 
L 350.968589 206.473449 
L 359.337099 206.473449 
L 359.708619 194.290133 
L 360.567675 206.473449 
L 361.62099 206.473449 
L 361.99251 189.314297 
L 362.36403 200.561982 
L 363.104664 206.473449 
L 363.476183 181.592135 
L 365.151542 206.473449 
L 365.523061 197.328504 
L 366.494186 206.473449 
L 366.865706 187.190698 
L 367.428411 206.473449 
L 372.00357 206.473449 
L 372.375089 205.869095 
L 373.146813 206.473449 
L 373.53019 206.473449 
L 373.90171 181.239145 
L 374.273229 194.702324 
L 374.644749 181.271579 
L 375.016269 173.393109 
L 375.387788 168.130036 
L 375.759308 148.34805 
L 376.130828 144.248054 
L 376.502347 184.61495 
L 376.873867 172.692247 
L 377.245387 155.321241 
L 377.616906 149.458259 
L 377.988426 151.338755 
L 378.731465 115.131494 
L 379.594773 206.473449 
L 379.966293 185.006029 
L 380.337813 179.461582 
L 381.047009 206.473449 
L 383.527503 206.473449 
L 383.899023 197.117428 
L 385.567679 206.473449 
L 387.755381 206.473449 
L 388.1269 201.267286 
L 388.879631 206.473449 
L 389.99419 182.112522 
L 390.36571 159.944795 
L 390.73723 148.239065 
L 391.108749 142.76655 
L 391.480269 174.221937 
L 391.851789 158.897413 
L 392.608187 206.473449 
L 392.979707 186.497258 
L 393.351226 176.094296 
L 393.722746 152.796561 
L 394.639691 206.473449 
L 395.360336 206.473449 
L 396.103375 156.668523 
L 396.474895 160.315255 
L 396.846414 190.992678 
L 397.217934 179.437312 
L 397.589454 160.10121 
L 398.1059 206.473449 
L 398.47742 184.240326 
L 398.84894 169.839023 
L 399.220459 148.025282 
L 400.543709 206.473449 
L 400.915229 191.805995 
L 401.658268 183.359868 
L 402.097374 206.473449 
L 404.635612 206.473449 
L 405.007132 199.230484 
L 405.624741 206.473449 
L 405.996261 184.951407 
L 406.7393 157.445019 
L 407.11082 137.424742 
L 407.482339 146.17102 
L 407.853859 122.951704 
L 408.225379 122.209388 
L 408.596898 110.490992 
L 408.968418 110.591387 
L 409.339938 96.778807 
L 410.082977 92.558057 
L 410.454497 95.487282 
L 410.826016 113.8843 
L 411.197536 110.714147 
L 411.569056 130.625156 
L 411.569056 130.625156 
" clip-path="url(#p519e3e6540)" style="fill: none; stroke: #1f77b4; stroke-width: 1.5; stroke-linecap: square"/>
   </g>
   <g id="patch_3">
    <path d="M 40.20625 260.45 
L 40.20625 25.8 
" style="fill: none; stroke: #000000; stroke-width: 0.8; stroke-linejoin: miter; stroke-linecap: square"/>
   </g>
   <g id="patch_4">
    <path d="M 416.195674 260.45 
L 416.195674 25.8 
" style="fill: none; stroke: #000000; stroke-width: 0.8; stroke-linejoin: miter; stroke-linecap: square"/>
   </g>
   <g id="patch_5">
    <path d="M 40.20625 260.45 
L 416.195674 260.45 
" style="fill: none; stroke: #000000; stroke-width: 0.8; stroke-linejoin: miter; stroke-linecap: square"/>
   </g>
   <g id="patch_6">
    <path d="M 40.20625 25.8 
L 416.195674 25.8 
" style="fill: none; stroke: #000000; stroke-width: 0.8; stroke-linejoin: miter; stroke-linecap: square"/>
   </g>
   <g id="text_18">
    <!-- Resived_packet_delay -->
    <g transform="translate(162.283462 19.8)scale(0.12 -0.12)">
     <defs>
      <path id="DejaVuSans-52" d="M 2841 2188 
Q 3044 2119 3236 1894 
Q 3428 1669 3622 1275 
L 4263 0 
L 3584 0 
L 2988 1197 
Q 2756 1666 2539 1819 
Q 2322 1972 1947 1972 
L 1259 1972 
L 1259 0 
L 628 0 
L 628 4666 
L 2053 4666 
Q 2853 4666 3247 4331 
Q 3641 3997 3641 3322 
Q 3641 2881 3436 2590 
Q 3231 2300 2841 2188 
z
M 1259 4147 
L 1259 2491 
L 2053 2491 
Q 2509 2491 2742 2702 
Q 2975 2913 2975 3322 
Q 2975 3731 2742 3939 
Q 2509 4147 2053 4147 
L 1259 4147 
z
" transform="scale(0.015625)"/>
      <path id="DejaVuSans-65" d="M 3597 1894 
L 3597 1613 
L 953 1613 
Q 991 1019 1311 708 
Q 1631 397 2203 397 
Q 2534 397 2845 478 
Q 3156 559 3463 722 
L 3463 178 
Q 3153 47 2828 -22 
Q 2503 -91 2169 -91 
Q 1331 -91 842 396 
Q 353 884 353 1716 
Q 353 2575 817 3079 
Q 1281 3584 2069 3584 
Q 2775 3584 3186 3129 
Q 3597 2675 3597 1894 
z
M 3022 2063 
Q 3016 2534 2758 2815 
Q 2500 3097 2075 3097 
Q 1594 3097 1305 2825 
Q 1016 2553 972 2059 
L 3022 2063 
z
" transform="scale(0.015625)"/>
      <path id="DejaVuSans-73" d="M 2834 3397 
L 2834 2853 
Q 2591 2978 2328 3040 
Q 2066 3103 1784 3103 
Q 1356 3103 1142 2972 
Q 928 2841 928 2578 
Q 928 2378 1081 2264 
Q 1234 2150 1697 2047 
L 1894 2003 
Q 2506 1872 2764 1633 
Q 3022 1394 3022 966 
Q 3022 478 2636 193 
Q 2250 -91 1575 -91 
Q 1294 -91 989 -36 
Q 684 19 347 128 
L 347 722 
Q 666 556 975 473 
Q 1284 391 1588 391 
Q 1994 391 2212 530 
Q 2431 669 2431 922 
Q 2431 1156 2273 1281 
Q 2116 1406 1581 1522 
L 1381 1569 
Q 847 1681 609 1914 
Q 372 2147 372 2553 
Q 372 3047 722 3315 
Q 1072 3584 1716 3584 
Q 2034 3584 2315 3537 
Q 2597 3491 2834 3397 
z
" transform="scale(0.015625)"/>
      <path id="DejaVuSans-69" d="M 603 3500 
L 1178 3500 
L 1178 0 
L 603 0 
L 603 3500 
z
M 603 4863 
L 1178 4863 
L 1178 4134 
L 603 4134 
L 603 4863 
z
" transform="scale(0.015625)"/>
      <path id="DejaVuSans-76" d="M 191 3500 
L 800 3500 
L 1894 563 
L 2988 3500 
L 3597 3500 
L 2284 0 
L 1503 0 
L 191 3500 
z
" transform="scale(0.015625)"/>
      <path id="DejaVuSans-64" d="M 2906 2969 
L 2906 4863 
L 3481 4863 
L 3481 0 
L 2906 0 
L 2906 525 
Q 2725 213 2448 61 
Q 2172 -91 1784 -91 
Q 1150 -91 751 415 
Q 353 922 353 1747 
Q 353 2572 751 3078 
Q 1150 3584 1784 3584 
Q 2172 3584 2448 3432 
Q 2725 3281 2906 2969 
z
M 947 1747 
Q 947 1113 1208 752 
Q 1469 391 1925 391 
Q 2381 391 2643 752 
Q 2906 1113 2906 1747 
Q 2906 2381 2643 2742 
Q 2381 3103 1925 3103 
Q 1469 3103 1208 2742 
Q 947 2381 947 1747 
z
" transform="scale(0.015625)"/>
      <path id="DejaVuSans-5f" d="M 3263 -1063 
L 3263 -1509 
L -63 -1509 
L -63 -1063 
L 3263 -1063 
z
" transform="scale(0.015625)"/>
      <path id="DejaVuSans-70" d="M 1159 525 
L 1159 -1331 
L 581 -1331 
L 581 3500 
L 1159 3500 
L 1159 2969 
Q 1341 3281 1617 3432 
Q 1894 3584 2278 3584 
Q 2916 3584 3314 3078 
Q 3713 2572 3713 1747 
Q 3713 922 3314 415 
Q 2916 -91 2278 -91 
Q 1894 -91 1617 61 
Q 1341 213 1159 525 
z
M 3116 1747 
Q 3116 2381 2855 2742 
Q 2594 3103 2138 3103 
Q 1681 3103 1420 2742 
Q 1159 2381 1159 1747 
Q 1159 1113 1420 752 
Q 1681 391 2138 391 
Q 2594 391 2855 752 
Q 3116 1113 3116 1747 
z
" transform="scale(0.015625)"/>
      <path id="DejaVuSans-61" d="M 2194 1759 
Q 1497 1759 1228 1600 
Q 959 1441 959 1056 
Q 959 750 1161 570 
Q 1363 391 1709 391 
Q 2188 391 2477 730 
Q 2766 1069 2766 1631 
L 2766 1759 
L 2194 1759 
z
M 3341 1997 
L 3341 0 
L 2766 0 
L 2766 531 
Q 2569 213 2275 61 
Q 1981 -91 1556 -91 
Q 1019 -91 701 211 
Q 384 513 384 1019 
Q 384 1609 779 1909 
Q 1175 2209 1959 2209 
L 2766 2209 
L 2766 2266 
Q 2766 2663 2505 2880 
Q 2244 3097 1772 3097 
Q 1472 3097 1187 3025 
Q 903 2953 641 2809 
L 641 3341 
Q 956 3463 1253 3523 
Q 1550 3584 1831 3584 
Q 2591 3584 2966 3190 
Q 3341 2797 3341 1997 
z
" transform="scale(0.015625)"/>
      <path id="DejaVuSans-63" d="M 3122 3366 
L 3122 2828 
Q 2878 2963 2633 3030 
Q 2388 3097 2138 3097 
Q 1578 3097 1268 2742 
Q 959 2388 959 1747 
Q 959 1106 1268 751 
Q 1578 397 2138 397 
Q 2388 397 2633 464 
Q 2878 531 3122 666 
L 3122 134 
Q 2881 22 2623 -34 
Q 2366 -91 2075 -91 
Q 1284 -91 818 406 
Q 353 903 353 1747 
Q 353 2603 823 3093 
Q 1294 3584 2113 3584 
Q 2378 3584 2631 3529 
Q 2884 3475 3122 3366 
z
" transform="scale(0.015625)"/>
      <path id="DejaVuSans-6b" d="M 581 4863 
L 1159 4863 
L 1159 1991 
L 2875 3500 
L 3609 3500 
L 1753 1863 
L 3688 0 
L 2938 0 
L 1159 1709 
L 1159 0 
L 581 0 
L 581 4863 
z
" transform="scale(0.015625)"/>
      <path id="DejaVuSans-74" d="M 1172 4494 
L 1172 3500 
L 2356 3500 
L 2356 3053 
L 1172 3053 
L 1172 1153 
Q 1172 725 1289 603 
Q 1406 481 1766 481 
L 2356 481 
L 2356 0 
L 1766 0 
Q 1100 0 847 248 
Q 594 497 594 1153 
L 594 3053 
L 172 3053 
L 172 3500 
L 594 3500 
L 594 4494 
L 1172 4494 
z
" transform="scale(0.015625)"/>
      <path id="DejaVuSans-6c" d="M 603 4863 
L 1178 4863 
L 1178 0 
L 603 0 
L 603 4863 
z
" transform="scale(0.015625)"/>
      <path id="DejaVuSans-79" d="M 2059 -325 
Q 1816 -950 1584 -1140 
Q 1353 -1331 966 -1331 
L 506 -1331 
L 506 -850 
L 844 -850 
Q 1081 -850 1212 -737 
Q 1344 -625 1503 -206 
L 1606 56 
L 191 3500 
L 800 3500 
L 1894 763 
L 2988 3500 
L 3597 3500 
L 2059 -325 
z
" transform="scale(0.015625)"/>
     </defs>
     <use xlink:href="#DejaVuSans-52"/>
     <use xlink:href="#DejaVuSans-65" x="64.982422"/>
     <use xlink:href="#DejaVuSans-73" x="126.505859"/>
     <use xlink:href="#DejaVuSans-69" x="178.605469"/>
     <use xlink:href="#DejaVuSans-76" x="206.388672"/>
     <use xlink:href="#DejaVuSans-65" x="265.568359"/>
     <use xlink:href="#DejaVuSans-64" x="327.091797"/>
     <use xlink:href="#DejaVuSans-5f" x="390.568359"/>
     <use xlink:href="#DejaVuSans-70" x="440.568359"/>
     <use xlink:href="#DejaVuSans-61" x="504.044922"/>
     <use xlink:href="#DejaVuSans-63" x="565.324219"/>
     <use xlink:href="#DejaVuSans-6b" x="620.304688"/>
     <use xlink:href="#DejaVuSans-65" x="674.589844"/>
     <use xlink:href="#DejaVuSans-74" x="736.113281"/>
     <use xlink:href="#DejaVuSans-5f" x="775.322266"/>
     <use xlink:href="#DejaVuSans-64" x="825.322266"/>
     <use xlink:href="#DejaVuSans-65" x="888.798828"/>
     <use xlink:href="#DejaVuSans-6c" x="950.322266"/>
     <use xlink:href="#DejaVuSans-61" x="978.105469"/>
     <use xlink:href="#DejaVuSans-79" x="1039.384766"/>
    </g>
   </g>
   <g id="legend_1">
    <g id="patch_7">
     <path d="M 226.995674 48.478125 
L 409.195674 48.478125 
Q 411.195674 48.478125 411.195674 46.478125 
L 411.195674 32.8 
Q 411.195674 30.8 409.195674 30.8 
L 226.995674 30.8 
Q 224.995674 30.8 224.995674 32.8 
L 224.995674 46.478125 
Q 224.995674 48.478125 226.995674 48.478125 
z
" style="fill: #ffffff; opacity: 0.8; stroke: #cccccc; stroke-linejoin: miter"/>
    </g>
    <g id="line2d_36">
     <path d="M 228.995674 38.898437 
L 238.995674 38.898437 
L 248.995674 38.898437 
" style="fill: none; stroke: #1f77b4; stroke-width: 1.5; stroke-linecap: square"/>
    </g>
    <g id="text_19">
     <!-- Delay in Network.nodeRx.sink -->
     <g transform="translate(256.995674 42.398437)scale(0.1 -0.1)">
      <defs>
       <path id="DejaVuSans-44" d="M 1259 4147 
L 1259 519 
L 2022 519 
Q 2988 519 3436 956 
Q 3884 1394 3884 2338 
Q 3884 3275 3436 3711 
Q 2988 4147 2022 4147 
L 1259 4147 
z
M 628 4666 
L 1925 4666 
Q 3281 4666 3915 4102 
Q 4550 3538 4550 2338 
Q 4550 1131 3912 565 
Q 3275 0 1925 0 
L 628 0 
L 628 4666 
z
" transform="scale(0.015625)"/>
       <path id="DejaVuSans-20" transform="scale(0.015625)"/>
       <path id="DejaVuSans-6e" d="M 3513 2113 
L 3513 0 
L 2938 0 
L 2938 2094 
Q 2938 2591 2744 2837 
Q 2550 3084 2163 3084 
Q 1697 3084 1428 2787 
Q 1159 2491 1159 1978 
L 1159 0 
L 581 0 
L 581 3500 
L 1159 3500 
L 1159 2956 
Q 1366 3272 1645 3428 
Q 1925 3584 2291 3584 
Q 2894 3584 3203 3211 
Q 3513 2838 3513 2113 
z
" transform="scale(0.015625)"/>
       <path id="DejaVuSans-4e" d="M 628 4666 
L 1478 4666 
L 3547 763 
L 3547 4666 
L 4159 4666 
L 4159 0 
L 3309 0 
L 1241 3903 
L 1241 0 
L 628 0 
L 628 4666 
z
" transform="scale(0.015625)"/>
       <path id="DejaVuSans-77" d="M 269 3500 
L 844 3500 
L 1563 769 
L 2278 3500 
L 2956 3500 
L 3675 769 
L 4391 3500 
L 4966 3500 
L 4050 0 
L 3372 0 
L 2619 2869 
L 1863 0 
L 1184 0 
L 269 3500 
z
" transform="scale(0.015625)"/>
       <path id="DejaVuSans-6f" d="M 1959 3097 
Q 1497 3097 1228 2736 
Q 959 2375 959 1747 
Q 959 1119 1226 758 
Q 1494 397 1959 397 
Q 2419 397 2687 759 
Q 2956 1122 2956 1747 
Q 2956 2369 2687 2733 
Q 2419 3097 1959 3097 
z
M 1959 3584 
Q 2709 3584 3137 3096 
Q 3566 2609 3566 1747 
Q 3566 888 3137 398 
Q 2709 -91 1959 -91 
Q 1206 -91 779 398 
Q 353 888 353 1747 
Q 353 2609 779 3096 
Q 1206 3584 1959 3584 
z
" transform="scale(0.015625)"/>
       <path id="DejaVuSans-72" d="M 2631 2963 
Q 2534 3019 2420 3045 
Q 2306 3072 2169 3072 
Q 1681 3072 1420 2755 
Q 1159 2438 1159 1844 
L 1159 0 
L 581 0 
L 581 3500 
L 1159 3500 
L 1159 2956 
Q 1341 3275 1631 3429 
Q 1922 3584 2338 3584 
Q 2397 3584 2469 3576 
Q 2541 3569 2628 3553 
L 2631 2963 
z
" transform="scale(0.015625)"/>
       <path id="DejaVuSans-78" d="M 3513 3500 
L 2247 1797 
L 3578 0 
L 2900 0 
L 1881 1375 
L 863 0 
L 184 0 
L 1544 1831 
L 300 3500 
L 978 3500 
L 1906 2253 
L 2834 3500 
L 3513 3500 
z
" transform="scale(0.015625)"/>
      </defs>
      <use xlink:href="#DejaVuSans-44"/>
      <use xlink:href="#DejaVuSans-65" x="77.001953"/>
      <use xlink:href="#DejaVuSans-6c" x="138.525391"/>
      <use xlink:href="#DejaVuSans-61" x="166.308594"/>
      <use xlink:href="#DejaVuSans-79" x="227.587891"/>
      <use xlink:href="#DejaVuSans-20" x="286.767578"/>
      <use xlink:href="#DejaVuSans-69" x="318.554688"/>
      <use xlink:href="#DejaVuSans-6e" x="346.337891"/>
      <use xlink:href="#DejaVuSans-20" x="409.716797"/>
      <use xlink:href="#DejaVuSans-4e" x="441.503906"/>
      <use xlink:href="#DejaVuSans-65" x="516.308594"/>
      <use xlink:href="#DejaVuSans-74" x="577.832031"/>
      <use xlink:href="#DejaVuSans-77" x="617.041016"/>
      <use xlink:href="#DejaVuSans-6f" x="698.828125"/>
      <use xlink:href="#DejaVuSans-72" x="760.009766"/>
      <use xlink:href="#DejaVuSans-6b" x="801.123047"/>
      <use xlink:href="#DejaVuSans-2e" x="859.033203"/>
      <use xlink:href="#DejaVuSans-6e" x="890.820312"/>
      <use xlink:href="#DejaVuSans-6f" x="954.199219"/>
      <use xlink:href="#DejaVuSans-64" x="1015.380859"/>
      <use xlink:href="#DejaVuSans-65" x="1078.857422"/>
      <use xlink:href="#DejaVuSans-52" x="1140.380859"/>
      <use xlink:href="#DejaVuSans-78" x="1209.863281"/>
      <use xlink:href="#DejaVuSans-2e" x="1269.042969"/>
      <use xlink:href="#DejaVuSans-73" x="1300.830078"/>
      <use xlink:href="#DejaVuSans-69" x="1352.929688"/>
      <use xlink:href="#DejaVuSans-6e" x="1380.712891"/>
      <use xlink:href="#DejaVuSans-6b" x="1444.091797"/>
     </g>
    </g>
   </g>
  </g>
 </g>
 <defs>
  <clipPath id="p519e3e6540">
   <rect x="40.20625" y="25.8" width="375.989424" height="234.65"/>
  </clipPath>
 </defs>
</svg>
