<?xml version="1.0" encoding="utf-8" standalone="no"?>
<!DOCTYPE svg PUBLIC "-//W3C//DTD SVG 1.1//EN"
  "http://www.w3.org/Graphics/SVG/1.1/DTD/svg11.dtd">
<svg xmlns:xlink="http://www.w3.org/1999/xlink" width="432pt" height="288pt" viewBox="0 0 432 288" xmlns="http://www.w3.org/2000/svg" version="1.1">
 <metadata>
  <rdf:RDF xmlns:dc="http://purl.org/dc/elements/1.1/" xmlns:cc="http://creativecommons.org/ns#" xmlns:rdf="http://www.w3.org/1999/02/22-rdf-syntax-ns#">
   <cc:Work>
    <dc:type rdf:resource="http://purl.org/dc/dcmitype/StillImage"/>
    <dc:date>2022-05-23T10:05:17.239078</dc:date>
    <dc:format>image/svg+xml</dc:format>
    <dc:creator>
     <cc:Agent>
      <dc:title>omnetpp.scave 6.0.0; Matplotlib 3.5.1 w/ backend GTK3Agg; Pandas 1.4.2; Python 3.8.10; Linux-5.4.0-109-generic-x86_64-with-glibc2.29</dc:title>
     </cc:Agent>
    </dc:creator>
   </cc:Work>
  </rdf:RDF>
 </metadata>
 <defs>
  <style type="text/css">*{stroke-linejoin: round; stroke-linecap: butt}</style>
 </defs>
 <g id="figure_1">
  <g id="patch_1">
   <path d="M 0 288 
L 432 288 
L 432 0 
L 0 0 
z
" style="fill: #ffffff"/>
  </g>
  <g id="axes_1">
   <g id="patch_2">
    <path d="M 53.95625 246.7 
L 416.032213 246.7 
L 416.032213 25.8 
L 53.95625 25.8 
z
" style="fill: #ffffff"/>
   </g>
   <g id="matplotlib.axis_1">
    <g id="xtick_1">
     <g id="line2d_1">
      <path d="M 53.95625 246.7 
L 53.95625 25.8 
" clip-path="url(#p1b0226edc2)" style="fill: none; stroke: #b0b0b0; stroke-width: 0.8; stroke-linecap: square"/>
     </g>
     <g id="line2d_2">
      <defs>
       <path id="m59bf79e059" d="M 0 0 
L 0 3.5 
" style="stroke: #000000; stroke-width: 0.8"/>
      </defs>
      <g>
       <use xlink:href="#m59bf79e059" x="53.95625" y="246.7" style="stroke: #000000; stroke-width: 0.8"/>
      </g>
     </g>
     <g id="text_1">
      <!-- 0 -->
      <g transform="translate(50.775 261.298437)scale(0.1 -0.1)">
       <defs>
        <path id="DejaVuSans-30" d="M 2034 4250 
Q 1547 4250 1301 3770 
Q 1056 3291 1056 2328 
Q 1056 1369 1301 889 
Q 1547 409 2034 409 
Q 2525 409 2770 889 
Q 3016 1369 3016 2328 
Q 3016 3291 2770 3770 
Q 2525 4250 2034 4250 
z
M 2034 4750 
Q 2819 4750 3233 4129 
Q 3647 3509 3647 2328 
Q 3647 1150 3233 529 
Q 2819 -91 2034 -91 
Q 1250 -91 836 529 
Q 422 1150 422 2328 
Q 422 3509 836 4129 
Q 1250 4750 2034 4750 
z
" transform="scale(0.015625)"/>
       </defs>
       <use xlink:href="#DejaVuSans-30"/>
      </g>
     </g>
    </g>
    <g id="xtick_2">
     <g id="line2d_3">
      <path d="M 98.677699 246.7 
L 98.677699 25.8 
" clip-path="url(#p1b0226edc2)" style="fill: none; stroke: #b0b0b0; stroke-width: 0.8; stroke-linecap: square"/>
     </g>
     <g id="line2d_4">
      <g>
       <use xlink:href="#m59bf79e059" x="98.677699" y="246.7" style="stroke: #000000; stroke-width: 0.8"/>
      </g>
     </g>
     <g id="text_2">
      <!-- 25 -->
      <g transform="translate(92.315199 261.298437)scale(0.1 -0.1)">
       <defs>
        <path id="DejaVuSans-32" d="M 1228 531 
L 3431 531 
L 3431 0 
L 469 0 
L 469 531 
Q 828 903 1448 1529 
Q 2069 2156 2228 2338 
Q 2531 2678 2651 2914 
Q 2772 3150 2772 3378 
Q 2772 3750 2511 3984 
Q 2250 4219 1831 4219 
Q 1534 4219 1204 4116 
Q 875 4013 500 3803 
L 500 4441 
Q 881 4594 1212 4672 
Q 1544 4750 1819 4750 
Q 2544 4750 2975 4387 
Q 3406 4025 3406 3419 
Q 3406 3131 3298 2873 
Q 3191 2616 2906 2266 
Q 2828 2175 2409 1742 
Q 1991 1309 1228 531 
z
" transform="scale(0.015625)"/>
        <path id="DejaVuSans-35" d="M 691 4666 
L 3169 4666 
L 3169 4134 
L 1269 4134 
L 1269 2991 
Q 1406 3038 1543 3061 
Q 1681 3084 1819 3084 
Q 2600 3084 3056 2656 
Q 3513 2228 3513 1497 
Q 3513 744 3044 326 
Q 2575 -91 1722 -91 
Q 1428 -91 1123 -41 
Q 819 9 494 109 
L 494 744 
Q 775 591 1075 516 
Q 1375 441 1709 441 
Q 2250 441 2565 725 
Q 2881 1009 2881 1497 
Q 2881 1984 2565 2268 
Q 2250 2553 1709 2553 
Q 1456 2553 1204 2497 
Q 953 2441 691 2322 
L 691 4666 
z
" transform="scale(0.015625)"/>
       </defs>
       <use xlink:href="#DejaVuSans-32"/>
       <use xlink:href="#DejaVuSans-35" x="63.623047"/>
      </g>
     </g>
    </g>
    <g id="xtick_3">
     <g id="line2d_5">
      <path d="M 143.399149 246.7 
L 143.399149 25.8 
" clip-path="url(#p1b0226edc2)" style="fill: none; stroke: #b0b0b0; stroke-width: 0.8; stroke-linecap: square"/>
     </g>
     <g id="line2d_6">
      <g>
       <use xlink:href="#m59bf79e059" x="143.399149" y="246.7" style="stroke: #000000; stroke-width: 0.8"/>
      </g>
     </g>
     <g id="text_3">
      <!-- 50 -->
      <g transform="translate(137.036649 261.298437)scale(0.1 -0.1)">
       <use xlink:href="#DejaVuSans-35"/>
       <use xlink:href="#DejaVuSans-30" x="63.623047"/>
      </g>
     </g>
    </g>
    <g id="xtick_4">
     <g id="line2d_7">
      <path d="M 188.120598 246.7 
L 188.120598 25.8 
" clip-path="url(#p1b0226edc2)" style="fill: none; stroke: #b0b0b0; stroke-width: 0.8; stroke-linecap: square"/>
     </g>
     <g id="line2d_8">
      <g>
       <use xlink:href="#m59bf79e059" x="188.120598" y="246.7" style="stroke: #000000; stroke-width: 0.8"/>
      </g>
     </g>
     <g id="text_4">
      <!-- 75 -->
      <g transform="translate(181.758098 261.298437)scale(0.1 -0.1)">
       <defs>
        <path id="DejaVuSans-37" d="M 525 4666 
L 3525 4666 
L 3525 4397 
L 1831 0 
L 1172 0 
L 2766 4134 
L 525 4134 
L 525 4666 
z
" transform="scale(0.015625)"/>
       </defs>
       <use xlink:href="#DejaVuSans-37"/>
       <use xlink:href="#DejaVuSans-35" x="63.623047"/>
      </g>
     </g>
    </g>
    <g id="xtick_5">
     <g id="line2d_9">
      <path d="M 232.842048 246.7 
L 232.842048 25.8 
" clip-path="url(#p1b0226edc2)" style="fill: none; stroke: #b0b0b0; stroke-width: 0.8; stroke-linecap: square"/>
     </g>
     <g id="line2d_10">
      <g>
       <use xlink:href="#m59bf79e059" x="232.842048" y="246.7" style="stroke: #000000; stroke-width: 0.8"/>
      </g>
     </g>
     <g id="text_5">
      <!-- 100 -->
      <g transform="translate(223.298298 261.298437)scale(0.1 -0.1)">
       <defs>
        <path id="DejaVuSans-31" d="M 794 531 
L 1825 531 
L 1825 4091 
L 703 3866 
L 703 4441 
L 1819 4666 
L 2450 4666 
L 2450 531 
L 3481 531 
L 3481 0 
L 794 0 
L 794 531 
z
" transform="scale(0.015625)"/>
       </defs>
       <use xlink:href="#DejaVuSans-31"/>
       <use xlink:href="#DejaVuSans-30" x="63.623047"/>
       <use xlink:href="#DejaVuSans-30" x="127.246094"/>
      </g>
     </g>
    </g>
    <g id="xtick_6">
     <g id="line2d_11">
      <path d="M 277.563497 246.7 
L 277.563497 25.8 
" clip-path="url(#p1b0226edc2)" style="fill: none; stroke: #b0b0b0; stroke-width: 0.8; stroke-linecap: square"/>
     </g>
     <g id="line2d_12">
      <g>
       <use xlink:href="#m59bf79e059" x="277.563497" y="246.7" style="stroke: #000000; stroke-width: 0.8"/>
      </g>
     </g>
     <g id="text_6">
      <!-- 125 -->
      <g transform="translate(268.019747 261.298437)scale(0.1 -0.1)">
       <use xlink:href="#DejaVuSans-31"/>
       <use xlink:href="#DejaVuSans-32" x="63.623047"/>
       <use xlink:href="#DejaVuSans-35" x="127.246094"/>
      </g>
     </g>
    </g>
    <g id="xtick_7">
     <g id="line2d_13">
      <path d="M 322.284947 246.7 
L 322.284947 25.8 
" clip-path="url(#p1b0226edc2)" style="fill: none; stroke: #b0b0b0; stroke-width: 0.8; stroke-linecap: square"/>
     </g>
     <g id="line2d_14">
      <g>
       <use xlink:href="#m59bf79e059" x="322.284947" y="246.7" style="stroke: #000000; stroke-width: 0.8"/>
      </g>
     </g>
     <g id="text_7">
      <!-- 150 -->
      <g transform="translate(312.741197 261.298437)scale(0.1 -0.1)">
       <use xlink:href="#DejaVuSans-31"/>
       <use xlink:href="#DejaVuSans-35" x="63.623047"/>
       <use xlink:href="#DejaVuSans-30" x="127.246094"/>
      </g>
     </g>
    </g>
    <g id="xtick_8">
     <g id="line2d_15">
      <path d="M 367.006396 246.7 
L 367.006396 25.8 
" clip-path="url(#p1b0226edc2)" style="fill: none; stroke: #b0b0b0; stroke-width: 0.8; stroke-linecap: square"/>
     </g>
     <g id="line2d_16">
      <g>
       <use xlink:href="#m59bf79e059" x="367.006396" y="246.7" style="stroke: #000000; stroke-width: 0.8"/>
      </g>
     </g>
     <g id="text_8">
      <!-- 175 -->
      <g transform="translate(357.462646 261.298437)scale(0.1 -0.1)">
       <use xlink:href="#DejaVuSans-31"/>
       <use xlink:href="#DejaVuSans-37" x="63.623047"/>
       <use xlink:href="#DejaVuSans-35" x="127.246094"/>
      </g>
     </g>
    </g>
    <g id="xtick_9">
     <g id="line2d_17">
      <path d="M 411.727846 246.7 
L 411.727846 25.8 
" clip-path="url(#p1b0226edc2)" style="fill: none; stroke: #b0b0b0; stroke-width: 0.8; stroke-linecap: square"/>
     </g>
     <g id="line2d_18">
      <g>
       <use xlink:href="#m59bf79e059" x="411.727846" y="246.7" style="stroke: #000000; stroke-width: 0.8"/>
      </g>
     </g>
     <g id="text_9">
      <!-- 200 -->
      <g transform="translate(402.184096 261.298437)scale(0.1 -0.1)">
       <use xlink:href="#DejaVuSans-32"/>
       <use xlink:href="#DejaVuSans-30" x="63.623047"/>
       <use xlink:href="#DejaVuSans-30" x="127.246094"/>
      </g>
     </g>
    </g>
    <g id="text_10">
     <!-- Tiempo -->
     <g transform="translate(216.527044 274.976562)scale(0.1 -0.1)">
      <defs>
       <path id="DejaVuSans-54" d="M -19 4666 
L 3928 4666 
L 3928 4134 
L 2272 4134 
L 2272 0 
L 1638 0 
L 1638 4134 
L -19 4134 
L -19 4666 
z
" transform="scale(0.015625)"/>
       <path id="DejaVuSans-69" d="M 603 3500 
L 1178 3500 
L 1178 0 
L 603 0 
L 603 3500 
z
M 603 4863 
L 1178 4863 
L 1178 4134 
L 603 4134 
L 603 4863 
z
" transform="scale(0.015625)"/>
       <path id="DejaVuSans-65" d="M 3597 1894 
L 3597 1613 
L 953 1613 
Q 991 1019 1311 708 
Q 1631 397 2203 397 
Q 2534 397 2845 478 
Q 3156 559 3463 722 
L 3463 178 
Q 3153 47 2828 -22 
Q 2503 -91 2169 -91 
Q 1331 -91 842 396 
Q 353 884 353 1716 
Q 353 2575 817 3079 
Q 1281 3584 2069 3584 
Q 2775 3584 3186 3129 
Q 3597 2675 3597 1894 
z
M 3022 2063 
Q 3016 2534 2758 2815 
Q 2500 3097 2075 3097 
Q 1594 3097 1305 2825 
Q 1016 2553 972 2059 
L 3022 2063 
z
" transform="scale(0.015625)"/>
       <path id="DejaVuSans-6d" d="M 3328 2828 
Q 3544 3216 3844 3400 
Q 4144 3584 4550 3584 
Q 5097 3584 5394 3201 
Q 5691 2819 5691 2113 
L 5691 0 
L 5113 0 
L 5113 2094 
Q 5113 2597 4934 2840 
Q 4756 3084 4391 3084 
Q 3944 3084 3684 2787 
Q 3425 2491 3425 1978 
L 3425 0 
L 2847 0 
L 2847 2094 
Q 2847 2600 2669 2842 
Q 2491 3084 2119 3084 
Q 1678 3084 1418 2786 
Q 1159 2488 1159 1978 
L 1159 0 
L 581 0 
L 581 3500 
L 1159 3500 
L 1159 2956 
Q 1356 3278 1631 3431 
Q 1906 3584 2284 3584 
Q 2666 3584 2933 3390 
Q 3200 3197 3328 2828 
z
" transform="scale(0.015625)"/>
       <path id="DejaVuSans-70" d="M 1159 525 
L 1159 -1331 
L 581 -1331 
L 581 3500 
L 1159 3500 
L 1159 2969 
Q 1341 3281 1617 3432 
Q 1894 3584 2278 3584 
Q 2916 3584 3314 3078 
Q 3713 2572 3713 1747 
Q 3713 922 3314 415 
Q 2916 -91 2278 -91 
Q 1894 -91 1617 61 
Q 1341 213 1159 525 
z
M 3116 1747 
Q 3116 2381 2855 2742 
Q 2594 3103 2138 3103 
Q 1681 3103 1420 2742 
Q 1159 2381 1159 1747 
Q 1159 1113 1420 752 
Q 1681 391 2138 391 
Q 2594 391 2855 752 
Q 3116 1113 3116 1747 
z
" transform="scale(0.015625)"/>
       <path id="DejaVuSans-6f" d="M 1959 3097 
Q 1497 3097 1228 2736 
Q 959 2375 959 1747 
Q 959 1119 1226 758 
Q 1494 397 1959 397 
Q 2419 397 2687 759 
Q 2956 1122 2956 1747 
Q 2956 2369 2687 2733 
Q 2419 3097 1959 3097 
z
M 1959 3584 
Q 2709 3584 3137 3096 
Q 3566 2609 3566 1747 
Q 3566 888 3137 398 
Q 2709 -91 1959 -91 
Q 1206 -91 779 398 
Q 353 888 353 1747 
Q 353 2609 779 3096 
Q 1206 3584 1959 3584 
z
" transform="scale(0.015625)"/>
      </defs>
      <use xlink:href="#DejaVuSans-54"/>
      <use xlink:href="#DejaVuSans-69" x="57.958984"/>
      <use xlink:href="#DejaVuSans-65" x="85.742188"/>
      <use xlink:href="#DejaVuSans-6d" x="147.265625"/>
      <use xlink:href="#DejaVuSans-70" x="244.677734"/>
      <use xlink:href="#DejaVuSans-6f" x="308.154297"/>
     </g>
    </g>
   </g>
   <g id="matplotlib.axis_2">
    <g id="ytick_1">
     <g id="line2d_19">
      <path d="M 53.95625 246.7 
L 416.032213 246.7 
" clip-path="url(#p1b0226edc2)" style="fill: none; stroke: #b0b0b0; stroke-width: 0.8; stroke-linecap: square"/>
     </g>
     <g id="line2d_20">
      <defs>
       <path id="mbfbe10a15d" d="M 0 0 
L -3.5 0 
" style="stroke: #000000; stroke-width: 0.8"/>
      </defs>
      <g>
       <use xlink:href="#mbfbe10a15d" x="53.95625" y="246.7" style="stroke: #000000; stroke-width: 0.8"/>
      </g>
     </g>
     <g id="text_11">
      <!-- 0.00 -->
      <g transform="translate(24.690625 250.499219)scale(0.1 -0.1)">
       <defs>
        <path id="DejaVuSans-2e" d="M 684 794 
L 1344 794 
L 1344 0 
L 684 0 
L 684 794 
z
" transform="scale(0.015625)"/>
       </defs>
       <use xlink:href="#DejaVuSans-30"/>
       <use xlink:href="#DejaVuSans-2e" x="63.623047"/>
       <use xlink:href="#DejaVuSans-30" x="95.410156"/>
       <use xlink:href="#DejaVuSans-30" x="159.033203"/>
      </g>
     </g>
    </g>
    <g id="ytick_2">
     <g id="line2d_21">
      <path d="M 53.95625 216.823684 
L 416.032213 216.823684 
" clip-path="url(#p1b0226edc2)" style="fill: none; stroke: #b0b0b0; stroke-width: 0.8; stroke-linecap: square"/>
     </g>
     <g id="line2d_22">
      <g>
       <use xlink:href="#mbfbe10a15d" x="53.95625" y="216.823684" style="stroke: #000000; stroke-width: 0.8"/>
      </g>
     </g>
     <g id="text_12">
      <!-- 0.25 -->
      <g transform="translate(24.690625 220.622903)scale(0.1 -0.1)">
       <use xlink:href="#DejaVuSans-30"/>
       <use xlink:href="#DejaVuSans-2e" x="63.623047"/>
       <use xlink:href="#DejaVuSans-32" x="95.410156"/>
       <use xlink:href="#DejaVuSans-35" x="159.033203"/>
      </g>
     </g>
    </g>
    <g id="ytick_3">
     <g id="line2d_23">
      <path d="M 53.95625 186.947369 
L 416.032213 186.947369 
" clip-path="url(#p1b0226edc2)" style="fill: none; stroke: #b0b0b0; stroke-width: 0.8; stroke-linecap: square"/>
     </g>
     <g id="line2d_24">
      <g>
       <use xlink:href="#mbfbe10a15d" x="53.95625" y="186.947369" style="stroke: #000000; stroke-width: 0.8"/>
      </g>
     </g>
     <g id="text_13">
      <!-- 0.50 -->
      <g transform="translate(24.690625 190.746588)scale(0.1 -0.1)">
       <use xlink:href="#DejaVuSans-30"/>
       <use xlink:href="#DejaVuSans-2e" x="63.623047"/>
       <use xlink:href="#DejaVuSans-35" x="95.410156"/>
       <use xlink:href="#DejaVuSans-30" x="159.033203"/>
      </g>
     </g>
    </g>
    <g id="ytick_4">
     <g id="line2d_25">
      <path d="M 53.95625 157.071053 
L 416.032213 157.071053 
" clip-path="url(#p1b0226edc2)" style="fill: none; stroke: #b0b0b0; stroke-width: 0.8; stroke-linecap: square"/>
     </g>
     <g id="line2d_26">
      <g>
       <use xlink:href="#mbfbe10a15d" x="53.95625" y="157.071053" style="stroke: #000000; stroke-width: 0.8"/>
      </g>
     </g>
     <g id="text_14">
      <!-- 0.75 -->
      <g transform="translate(24.690625 160.870272)scale(0.1 -0.1)">
       <use xlink:href="#DejaVuSans-30"/>
       <use xlink:href="#DejaVuSans-2e" x="63.623047"/>
       <use xlink:href="#DejaVuSans-37" x="95.410156"/>
       <use xlink:href="#DejaVuSans-35" x="159.033203"/>
      </g>
     </g>
    </g>
    <g id="ytick_5">
     <g id="line2d_27">
      <path d="M 53.95625 127.194738 
L 416.032213 127.194738 
" clip-path="url(#p1b0226edc2)" style="fill: none; stroke: #b0b0b0; stroke-width: 0.8; stroke-linecap: square"/>
     </g>
     <g id="line2d_28">
      <g>
       <use xlink:href="#mbfbe10a15d" x="53.95625" y="127.194738" style="stroke: #000000; stroke-width: 0.8"/>
      </g>
     </g>
     <g id="text_15">
      <!-- 1.00 -->
      <g transform="translate(24.690625 130.993957)scale(0.1 -0.1)">
       <use xlink:href="#DejaVuSans-31"/>
       <use xlink:href="#DejaVuSans-2e" x="63.623047"/>
       <use xlink:href="#DejaVuSans-30" x="95.410156"/>
       <use xlink:href="#DejaVuSans-30" x="159.033203"/>
      </g>
     </g>
    </g>
    <g id="ytick_6">
     <g id="line2d_29">
      <path d="M 53.95625 97.318422 
L 416.032213 97.318422 
" clip-path="url(#p1b0226edc2)" style="fill: none; stroke: #b0b0b0; stroke-width: 0.8; stroke-linecap: square"/>
     </g>
     <g id="line2d_30">
      <g>
       <use xlink:href="#mbfbe10a15d" x="53.95625" y="97.318422" style="stroke: #000000; stroke-width: 0.8"/>
      </g>
     </g>
     <g id="text_16">
      <!-- 1.25 -->
      <g transform="translate(24.690625 101.117641)scale(0.1 -0.1)">
       <use xlink:href="#DejaVuSans-31"/>
       <use xlink:href="#DejaVuSans-2e" x="63.623047"/>
       <use xlink:href="#DejaVuSans-32" x="95.410156"/>
       <use xlink:href="#DejaVuSans-35" x="159.033203"/>
      </g>
     </g>
    </g>
    <g id="ytick_7">
     <g id="line2d_31">
      <path d="M 53.95625 67.442107 
L 416.032213 67.442107 
" clip-path="url(#p1b0226edc2)" style="fill: none; stroke: #b0b0b0; stroke-width: 0.8; stroke-linecap: square"/>
     </g>
     <g id="line2d_32">
      <g>
       <use xlink:href="#mbfbe10a15d" x="53.95625" y="67.442107" style="stroke: #000000; stroke-width: 0.8"/>
      </g>
     </g>
     <g id="text_17">
      <!-- 1.50 -->
      <g transform="translate(24.690625 71.241325)scale(0.1 -0.1)">
       <use xlink:href="#DejaVuSans-31"/>
       <use xlink:href="#DejaVuSans-2e" x="63.623047"/>
       <use xlink:href="#DejaVuSans-35" x="95.410156"/>
       <use xlink:href="#DejaVuSans-30" x="159.033203"/>
      </g>
     </g>
    </g>
    <g id="ytick_8">
     <g id="line2d_33">
      <path d="M 53.95625 37.565791 
L 416.032213 37.565791 
" clip-path="url(#p1b0226edc2)" style="fill: none; stroke: #b0b0b0; stroke-width: 0.8; stroke-linecap: square"/>
     </g>
     <g id="line2d_34">
      <g>
       <use xlink:href="#mbfbe10a15d" x="53.95625" y="37.565791" style="stroke: #000000; stroke-width: 0.8"/>
      </g>
     </g>
     <g id="text_18">
      <!-- 1.75 -->
      <g transform="translate(24.690625 41.36501)scale(0.1 -0.1)">
       <use xlink:href="#DejaVuSans-31"/>
       <use xlink:href="#DejaVuSans-2e" x="63.623047"/>
       <use xlink:href="#DejaVuSans-37" x="95.410156"/>
       <use xlink:href="#DejaVuSans-35" x="159.033203"/>
      </g>
     </g>
    </g>
    <g id="text_19">
     <!-- Tiempo -->
     <g transform="translate(18.610938 154.717187)rotate(-90)scale(0.1 -0.1)">
      <use xlink:href="#DejaVuSans-54"/>
      <use xlink:href="#DejaVuSans-69" x="57.958984"/>
      <use xlink:href="#DejaVuSans-65" x="85.742188"/>
      <use xlink:href="#DejaVuSans-6d" x="147.265625"/>
      <use xlink:href="#DejaVuSans-70" x="244.677734"/>
      <use xlink:href="#DejaVuSans-6f" x="308.154297"/>
     </g>
    </g>
   </g>
   <g id="line2d_35">
    <path d="M 55.143984 195.886363 
L 60.271761 195.886363 
L 60.629533 191.741268 
L 61.091803 195.886363 
L 61.648939 195.886363 
L 62.006711 189.377921 
L 62.364482 186.11014 
L 62.722254 174.8704 
L 63.60094 195.886363 
L 63.958711 174.078493 
L 65.411244 195.886363 
L 65.769016 183.39888 
L 66.126788 176.835727 
L 66.484559 176.218351 
L 67.032111 195.886363 
L 68.333444 195.886363 
L 68.691215 195.428032 
L 69.134843 195.886363 
L 69.492614 189.870659 
L 70.796938 195.886363 
L 71.767413 195.886363 
L 72.125184 174.627046 
L 72.482956 165.481715 
L 72.840728 144.848929 
L 73.198499 158.398884 
L 73.556271 135.230121 
L 73.914042 127.79384 
L 74.271814 167.977042 
L 75.544605 195.886363 
L 76.352695 195.886363 
L 76.710467 177.407175 
L 77.528804 195.886363 
L 80.687631 195.886363 
L 81.045403 194.991597 
L 81.893473 195.886363 
L 82.759639 195.886363 
L 83.11741 194.174908 
L 83.486216 195.886363 
L 84.909686 195.886363 
L 85.267458 176.498106 
L 85.661598 195.886363 
L 86.677895 195.886363 
L 87.035666 177.532613 
L 88.727918 195.886363 
L 89.886664 195.886363 
L 90.244436 175.998757 
L 90.602207 171.298581 
L 90.959979 170.403296 
L 91.675522 141.01039 
L 92.391065 194.436832 
L 92.748837 192.372346 
L 93.106608 177.220817 
L 93.46438 183.44709 
L 94.537695 131.678035 
L 94.895466 142.244007 
L 95.253238 124.155803 
L 95.61101 134.206077 
L 95.968781 119.319614 
L 96.326553 129.819872 
L 96.684324 123.434361 
L 97.144255 195.886363 
L 99.008631 195.886363 
L 99.366402 193.415451 
L 99.724174 185.486939 
L 100.081945 195.626767 
L 100.439717 192.323608 
L 101.63484 195.886363 
L 102.27674 195.886363 
L 102.992283 154.059874 
L 104.244604 195.886363 
L 105.998585 195.886363 
L 106.714128 163.272161 
L 107.0719 155.267843 
L 107.429671 136.315337 
L 107.787443 162.213658 
L 108.145214 151.89899 
L 108.502986 161.557222 
L 109.218529 144.057396 
L 109.576301 150.430413 
L 109.934072 127.934138 
L 110.291844 124.731074 
L 110.649616 136.892085 
L 112.157077 195.886363 
L 113.870595 195.886363 
L 114.228367 175.844199 
L 114.586139 189.867893 
L 114.94391 174.36692 
L 115.301682 186.604949 
L 115.659453 169.010675 
L 118.133692 195.886363 
L 119.169795 195.886363 
L 119.527566 182.456858 
L 119.885338 177.738719 
L 120.243109 176.350364 
L 120.600881 175.529877 
L 120.958653 161.677197 
L 121.316424 172.798264 
L 121.674196 155.104104 
L 122.031967 145.991872 
L 122.389739 126.283856 
L 123.105282 157.041182 
L 123.463054 146.819509 
L 123.820825 128.250026 
L 124.178597 158.364229 
L 124.536368 142.310391 
L 125.337495 195.886363 
L 125.695266 188.477537 
L 126.167319 195.886363 
L 127.090548 195.886363 
L 127.806091 152.23621 
L 128.163862 163.294101 
L 128.652613 195.886363 
L 129.253569 195.886363 
L 129.611341 175.607566 
L 131.225583 195.886363 
L 134.367365 195.886363 
L 134.725136 194.655575 
L 135.089126 195.886363 
L 137.107992 195.886363 
L 137.465764 174.040571 
L 137.823535 183.426938 
L 138.181307 181.034929 
L 138.680397 195.886363 
L 139.39594 150.241319 
L 139.753712 147.237377 
L 140.111483 135.253756 
L 141.292322 195.886363 
L 141.650094 176.576347 
L 142.007865 168.644286 
L 142.365637 157.33345 
L 142.723408 156.938352 
L 143.08118 137.568532 
L 143.438952 155.501738 
L 143.796723 145.321118 
L 144.179807 195.886363 
L 144.537578 191.161759 
L 145.810599 195.886363 
L 146.526142 159.223087 
L 146.883914 177.59784 
L 147.599457 189.629907 
L 148.580859 195.886363 
L 148.93863 183.042469 
L 149.296402 184.640778 
L 150.859508 195.886363 
L 151.21728 175.522079 
L 152.275723 195.886363 
L 152.736119 195.886363 
L 153.093891 175.096169 
L 154.204428 195.886363 
L 154.919971 173.499464 
L 155.277743 149.935444 
L 155.635514 165.501455 
L 156.172069 195.886363 
L 156.52984 177.052239 
L 156.887612 190.500668 
L 157.483147 195.886363 
L 158.471285 195.886363 
L 159.186828 171.358095 
L 159.5446 154.711625 
L 159.902371 148.994498 
L 160.260143 156.755016 
L 160.617914 161.70722 
L 161.333457 121.095677 
L 161.691229 160.499229 
L 162.049001 153.151959 
L 162.764544 111.195384 
L 163.122315 127.901053 
L 163.480087 134.225858 
L 163.837859 121.608074 
L 164.553402 165.057793 
L 164.911173 153.358708 
L 166.032213 195.886363 
L 166.389984 192.34557 
L 166.747756 178.698821 
L 167.247715 195.886363 
L 167.708377 195.886363 
L 168.066149 190.066832 
L 168.460199 195.886363 
L 170.67746 195.886363 
L 171.035232 181.034965 
L 172.005111 195.886363 
L 174.25472 195.886363 
L 174.970263 190.711907 
L 175.898213 195.886363 
L 178.605782 195.886363 
L 178.963553 176.413935 
L 179.321325 165.169212 
L 179.679096 193.497405 
L 180.545416 195.886363 
L 181.260959 185.217216 
L 181.705145 195.886363 
L 182.847956 195.886363 
L 183.205728 182.289429 
L 183.5635 189.598461 
L 183.921271 179.168239 
L 184.816692 195.886363 
L 191.462923 195.886363 
L 191.820695 181.380476 
L 192.178466 194.506827 
L 192.894009 184.481774 
L 193.251781 195.157904 
L 193.741258 195.886363 
L 194.099029 195.077481 
L 194.456801 171.871224 
L 194.814572 170.740503 
L 195.172344 159.707558 
L 195.887887 195.739484 
L 196.60343 172.397633 
L 196.961202 165.835683 
L 197.318974 176.437296 
L 197.770029 195.886363 
L 198.127801 192.060798 
L 199.201514 195.886363 
L 199.917057 157.194899 
L 200.274829 145.993341 
L 200.6326 125.567123 
L 200.990372 131.920804 
L 201.348143 123.687896 
L 201.705915 131.828442 
L 202.063687 136.700145 
L 202.421458 143.419199 
L 202.77923 120.744394 
L 203.137001 134.810499 
L 204.086327 195.886363 
L 204.652956 195.886363 
L 205.010728 185.864535 
L 205.3685 182.20566 
L 205.726271 167.270424 
L 206.515402 195.886363 
L 206.873174 177.445277 
L 207.230945 169.970446 
L 207.588717 149.737749 
L 207.946489 146.360347 
L 209.425727 195.886363 
L 210.619744 195.886363 
L 210.977515 182.796924 
L 211.662181 195.886363 
L 212.728571 195.886363 
L 213.086343 193.283783 
L 213.801886 153.028237 
L 214.51234 195.886363 
L 214.870111 187.557288 
L 215.417656 195.886363 
L 215.775427 194.695945 
L 219.388305 195.886363 
L 220.375611 195.886363 
L 220.733383 177.788608 
L 221.72372 195.886363 
L 222.810939 195.886363 
L 223.526482 155.814162 
L 223.884254 157.364788 
L 224.242025 167.736641 
L 224.957568 131.217828 
L 225.810836 195.886363 
L 227.768941 195.886363 
L 228.126713 190.98675 
L 228.505173 195.886363 
L 228.862944 177.391406 
L 229.220716 172.236069 
L 229.936259 128.21495 
L 231.096675 195.886363 
L 231.738216 195.886363 
L 232.095988 188.737769 
L 232.453759 186.501793 
L 232.811531 182.134728 
L 233.292785 195.886363 
L 233.650557 173.846457 
L 234.400814 195.886363 
L 234.758586 188.294618 
L 236.635924 195.886363 
L 236.993695 172.586461 
L 237.684201 195.886363 
L 238.041972 181.39023 
L 238.399744 157.911625 
L 238.757515 185.916276 
L 239.115287 178.014092 
L 240.395808 195.886363 
L 241.842416 195.886363 
L 242.200187 178.735982 
L 242.557959 169.699444 
L 242.915731 172.189854 
L 243.273502 172.397572 
L 243.631274 150.499549 
L 243.989045 141.440295 
L 244.704588 108.730583 
L 245.420132 68.321591 
L 245.777903 101.009126 
L 246.135675 99.429171 
L 246.493446 84.616699 
L 246.851218 135.144637 
L 247.20899 126.43236 
L 247.717354 195.886363 
L 250.774218 195.886363 
L 251.13199 173.145353 
L 251.613115 195.886363 
L 251.970886 178.437065 
L 252.328658 179.388318 
L 252.686429 190.316435 
L 253.044201 168.268296 
L 253.401973 175.232715 
L 253.759744 194.388366 
L 254.117516 180.227043 
L 256.501536 195.886363 
L 257.961968 195.886363 
L 258.31974 183.133997 
L 258.677511 193.357542 
L 259.249621 195.886363 
L 264.451455 195.886363 
L 264.809227 185.389731 
L 265.166998 190.456039 
L 265.52477 184.762753 
L 267.313628 107.518162 
L 267.6714 187.195031 
L 268.029171 193.516098 
L 268.715682 195.886363 
L 269.073453 193.556452 
L 269.431225 193.828131 
L 271.286486 195.886363 
L 271.644258 181.235475 
L 272.037351 195.886363 
L 272.395123 182.508023 
L 273.468437 118.226415 
L 273.826209 114.75709 
L 274.183981 114.844821 
L 274.541752 104.340421 
L 274.899524 156.755551 
L 275.257295 175.584494 
L 276.964091 195.886363 
L 277.321862 188.993883 
L 277.734653 195.886363 
L 278.092425 179.082766 
L 278.450197 183.216778 
L 278.807968 160.211597 
L 279.308826 195.886363 
L 279.666598 174.481213 
L 280.077078 195.886363 
L 280.687546 195.886363 
L 281.045318 195.33296 
L 281.403089 193.107099 
L 281.968101 195.886363 
L 287.263233 195.886363 
L 287.621004 194.712702 
L 287.978776 179.577039 
L 288.336547 177.503607 
L 288.694319 192.605646 
L 289.916508 195.886363 
L 290.274279 182.941728 
L 291.347594 126.612254 
L 292.217891 195.886363 
L 292.575663 185.812823 
L 293.684861 195.886363 
L 294.042633 189.32451 
L 294.501379 195.886363 
L 294.977664 195.886363 
L 295.335435 186.059673 
L 296.142595 195.886363 
L 297.06826 195.886363 
L 297.426032 171.987295 
L 298.174245 195.886363 
L 298.889788 172.941518 
L 299.247559 168.908364 
L 299.702231 195.886363 
L 300.864504 195.886363 
L 301.222275 179.347352 
L 301.585989 195.886363 
L 303.224503 195.886363 
L 303.582275 193.820521 
L 304.175545 195.886363 
L 304.533316 195.665388 
L 304.891088 180.466177 
L 305.494587 195.886363 
L 307.074764 195.886363 
L 307.432535 181.32967 
L 307.919005 195.886363 
L 309.058193 195.886363 
L 310.131508 156.783201 
L 311.240457 195.886363 
L 311.632339 195.886363 
L 311.99011 194.865379 
L 312.347882 171.896387 
L 312.705653 192.571423 
L 313.421197 159.088426 
L 313.778968 155.007502 
L 314.13674 178.106878 
L 314.494511 171.008618 
L 314.852283 184.364728 
L 315.210055 182.793089 
L 316.283369 138.820901 
L 316.641141 146.604959 
L 316.998913 181.790039 
L 317.858022 195.886363 
L 318.595755 195.886363 
L 318.953526 176.467926 
L 319.311298 192.844706 
L 319.669069 195.062383 
L 320.026841 182.784381 
L 320.742384 146.953243 
L 321.457927 188.092165 
L 321.815699 182.270344 
L 322.173471 180.670297 
L 322.531242 186.64717 
L 323.37785 195.886363 
L 324.808936 127.832412 
L 325.166708 127.935446 
L 325.524479 108.814866 
L 325.882251 100.668983 
L 326.240022 122.673165 
L 326.657819 195.886363 
L 327.015591 173.094066 
L 327.45233 195.886363 
L 328.930986 195.886363 
L 329.288757 175.468925 
L 330.239174 195.886363 
L 330.596945 180.776049 
L 330.954717 159.997977 
L 331.312489 185.691003 
L 331.67026 190.592814 
L 332.297062 195.886363 
L 332.768363 195.886363 
L 333.126135 173.659139 
L 334.547481 195.886363 
L 335.263024 168.884463 
L 335.978567 143.08385 
L 336.336339 159.72801 
L 337.409654 94.742224 
L 337.767425 99.921858 
L 338.125197 171.119216 
L 338.482969 147.550975 
L 338.84074 163.388162 
L 339.31489 195.886363 
L 342.37051 195.886363 
L 342.728282 183.848952 
L 343.200504 195.886363 
L 343.674309 195.886363 
L 344.389852 157.63993 
L 344.747624 159.489147 
L 345.105395 159.422502 
L 345.463167 166.660902 
L 347.061786 195.886363 
L 349.516017 195.886363 
L 349.873788 186.782327 
L 350.23156 171.715671 
L 351.618676 195.886363 
L 351.976448 193.757231 
L 352.334219 179.305834 
L 353.218852 195.886363 
L 361.277686 195.886363 
L 361.635458 184.416963 
L 362.462725 195.886363 
L 363.477062 195.886363 
L 363.834834 179.732701 
L 364.192605 190.321294 
L 364.905832 195.886363 
L 365.263604 172.463041 
L 366.876965 195.886363 
L 367.234737 187.277292 
L 368.169926 195.886363 
L 368.527698 177.73354 
L 369.06958 195.886363 
L 373.475435 195.886363 
L 373.833206 195.317422 
L 374.576373 195.886363 
L 374.945563 195.886363 
L 375.303334 172.130736 
L 375.661106 184.805001 
L 376.018878 172.161269 
L 376.376649 164.744461 
L 376.734421 159.789793 
L 377.092192 141.16699 
L 377.449964 137.307245 
L 377.807736 175.308725 
L 378.165507 164.084668 
L 378.523279 147.731567 
L 378.88105 142.212144 
L 379.238822 143.982446 
L 379.954365 109.896855 
L 380.785727 195.886363 
L 381.143498 175.676888 
L 381.50127 170.457334 
L 382.184222 195.886363 
L 384.572926 195.886363 
L 384.930697 187.078584 
L 386.537605 195.886363 
L 388.644351 195.886363 
L 389.002123 190.985269 
L 389.726999 195.886363 
L 390.800314 172.952934 
L 391.158086 152.08419 
L 391.515857 141.064391 
L 391.873629 135.912555 
L 392.2314 165.524722 
L 392.589172 151.098183 
L 393.31758 195.886363 
L 393.675351 177.080734 
L 394.033123 167.287364 
L 394.390895 145.354828 
L 395.273908 195.886363 
L 395.967885 195.886363 
L 396.683429 148.999901 
L 397.0412 152.432942 
L 397.398972 181.312732 
L 397.756743 170.434487 
L 398.114515 152.23144 
L 398.611851 195.886363 
L 398.969622 174.956053 
L 399.327394 161.398637 
L 399.685166 140.863135 
L 400.959449 195.886363 
L 401.31722 182.078391 
L 402.032763 174.127189 
L 402.45562 195.886363 
L 404.899931 195.886363 
L 405.257703 189.067819 
L 405.852457 195.886363 
L 406.210229 175.625467 
L 406.925772 149.730896 
L 407.283544 130.883765 
L 407.641315 139.11753 
L 407.999087 117.258817 
L 408.356859 116.56 
L 408.71463 105.528277 
L 409.072402 105.622789 
L 409.430173 92.619597 
L 410.145717 88.646174 
L 410.503488 91.403753 
L 410.86126 108.722744 
L 411.219031 105.738355 
L 411.576803 124.482621 
L 411.576803 124.482621 
" clip-path="url(#p1b0226edc2)" style="fill: none; stroke: #1f77b4; stroke-width: 1.5; stroke-linecap: square"/>
   </g>
   <g id="patch_3">
    <path d="M 53.95625 246.7 
L 53.95625 25.8 
" style="fill: none; stroke: #000000; stroke-width: 0.8; stroke-linejoin: miter; stroke-linecap: square"/>
   </g>
   <g id="patch_4">
    <path d="M 416.032213 246.7 
L 416.032213 25.8 
" style="fill: none; stroke: #000000; stroke-width: 0.8; stroke-linejoin: miter; stroke-linecap: square"/>
   </g>
   <g id="patch_5">
    <path d="M 53.95625 246.7 
L 416.032213 246.7 
" style="fill: none; stroke: #000000; stroke-width: 0.8; stroke-linejoin: miter; stroke-linecap: square"/>
   </g>
   <g id="patch_6">
    <path d="M 53.95625 25.8 
L 416.032213 25.8 
" style="fill: none; stroke: #000000; stroke-width: 0.8; stroke-linejoin: miter; stroke-linecap: square"/>
   </g>
   <g id="text_20">
    <!-- Retraso en paquetes recibidos -->
    <g transform="translate(143.865482 19.8)scale(0.12 -0.12)">
     <defs>
      <path id="DejaVuSans-52" d="M 2841 2188 
Q 3044 2119 3236 1894 
Q 3428 1669 3622 1275 
L 4263 0 
L 3584 0 
L 2988 1197 
Q 2756 1666 2539 1819 
Q 2322 1972 1947 1972 
L 1259 1972 
L 1259 0 
L 628 0 
L 628 4666 
L 2053 4666 
Q 2853 4666 3247 4331 
Q 3641 3997 3641 3322 
Q 3641 2881 3436 2590 
Q 3231 2300 2841 2188 
z
M 1259 4147 
L 1259 2491 
L 2053 2491 
Q 2509 2491 2742 2702 
Q 2975 2913 2975 3322 
Q 2975 3731 2742 3939 
Q 2509 4147 2053 4147 
L 1259 4147 
z
" transform="scale(0.015625)"/>
      <path id="DejaVuSans-74" d="M 1172 4494 
L 1172 3500 
L 2356 3500 
L 2356 3053 
L 1172 3053 
L 1172 1153 
Q 1172 725 1289 603 
Q 1406 481 1766 481 
L 2356 481 
L 2356 0 
L 1766 0 
Q 1100 0 847 248 
Q 594 497 594 1153 
L 594 3053 
L 172 3053 
L 172 3500 
L 594 3500 
L 594 4494 
L 1172 4494 
z
" transform="scale(0.015625)"/>
      <path id="DejaVuSans-72" d="M 2631 2963 
Q 2534 3019 2420 3045 
Q 2306 3072 2169 3072 
Q 1681 3072 1420 2755 
Q 1159 2438 1159 1844 
L 1159 0 
L 581 0 
L 581 3500 
L 1159 3500 
L 1159 2956 
Q 1341 3275 1631 3429 
Q 1922 3584 2338 3584 
Q 2397 3584 2469 3576 
Q 2541 3569 2628 3553 
L 2631 2963 
z
" transform="scale(0.015625)"/>
      <path id="DejaVuSans-61" d="M 2194 1759 
Q 1497 1759 1228 1600 
Q 959 1441 959 1056 
Q 959 750 1161 570 
Q 1363 391 1709 391 
Q 2188 391 2477 730 
Q 2766 1069 2766 1631 
L 2766 1759 
L 2194 1759 
z
M 3341 1997 
L 3341 0 
L 2766 0 
L 2766 531 
Q 2569 213 2275 61 
Q 1981 -91 1556 -91 
Q 1019 -91 701 211 
Q 384 513 384 1019 
Q 384 1609 779 1909 
Q 1175 2209 1959 2209 
L 2766 2209 
L 2766 2266 
Q 2766 2663 2505 2880 
Q 2244 3097 1772 3097 
Q 1472 3097 1187 3025 
Q 903 2953 641 2809 
L 641 3341 
Q 956 3463 1253 3523 
Q 1550 3584 1831 3584 
Q 2591 3584 2966 3190 
Q 3341 2797 3341 1997 
z
" transform="scale(0.015625)"/>
      <path id="DejaVuSans-73" d="M 2834 3397 
L 2834 2853 
Q 2591 2978 2328 3040 
Q 2066 3103 1784 3103 
Q 1356 3103 1142 2972 
Q 928 2841 928 2578 
Q 928 2378 1081 2264 
Q 1234 2150 1697 2047 
L 1894 2003 
Q 2506 1872 2764 1633 
Q 3022 1394 3022 966 
Q 3022 478 2636 193 
Q 2250 -91 1575 -91 
Q 1294 -91 989 -36 
Q 684 19 347 128 
L 347 722 
Q 666 556 975 473 
Q 1284 391 1588 391 
Q 1994 391 2212 530 
Q 2431 669 2431 922 
Q 2431 1156 2273 1281 
Q 2116 1406 1581 1522 
L 1381 1569 
Q 847 1681 609 1914 
Q 372 2147 372 2553 
Q 372 3047 722 3315 
Q 1072 3584 1716 3584 
Q 2034 3584 2315 3537 
Q 2597 3491 2834 3397 
z
" transform="scale(0.015625)"/>
      <path id="DejaVuSans-20" transform="scale(0.015625)"/>
      <path id="DejaVuSans-6e" d="M 3513 2113 
L 3513 0 
L 2938 0 
L 2938 2094 
Q 2938 2591 2744 2837 
Q 2550 3084 2163 3084 
Q 1697 3084 1428 2787 
Q 1159 2491 1159 1978 
L 1159 0 
L 581 0 
L 581 3500 
L 1159 3500 
L 1159 2956 
Q 1366 3272 1645 3428 
Q 1925 3584 2291 3584 
Q 2894 3584 3203 3211 
Q 3513 2838 3513 2113 
z
" transform="scale(0.015625)"/>
      <path id="DejaVuSans-71" d="M 947 1747 
Q 947 1113 1208 752 
Q 1469 391 1925 391 
Q 2381 391 2643 752 
Q 2906 1113 2906 1747 
Q 2906 2381 2643 2742 
Q 2381 3103 1925 3103 
Q 1469 3103 1208 2742 
Q 947 2381 947 1747 
z
M 2906 525 
Q 2725 213 2448 61 
Q 2172 -91 1784 -91 
Q 1150 -91 751 415 
Q 353 922 353 1747 
Q 353 2572 751 3078 
Q 1150 3584 1784 3584 
Q 2172 3584 2448 3432 
Q 2725 3281 2906 2969 
L 2906 3500 
L 3481 3500 
L 3481 -1331 
L 2906 -1331 
L 2906 525 
z
" transform="scale(0.015625)"/>
      <path id="DejaVuSans-75" d="M 544 1381 
L 544 3500 
L 1119 3500 
L 1119 1403 
Q 1119 906 1312 657 
Q 1506 409 1894 409 
Q 2359 409 2629 706 
Q 2900 1003 2900 1516 
L 2900 3500 
L 3475 3500 
L 3475 0 
L 2900 0 
L 2900 538 
Q 2691 219 2414 64 
Q 2138 -91 1772 -91 
Q 1169 -91 856 284 
Q 544 659 544 1381 
z
M 1991 3584 
L 1991 3584 
z
" transform="scale(0.015625)"/>
      <path id="DejaVuSans-63" d="M 3122 3366 
L 3122 2828 
Q 2878 2963 2633 3030 
Q 2388 3097 2138 3097 
Q 1578 3097 1268 2742 
Q 959 2388 959 1747 
Q 959 1106 1268 751 
Q 1578 397 2138 397 
Q 2388 397 2633 464 
Q 2878 531 3122 666 
L 3122 134 
Q 2881 22 2623 -34 
Q 2366 -91 2075 -91 
Q 1284 -91 818 406 
Q 353 903 353 1747 
Q 353 2603 823 3093 
Q 1294 3584 2113 3584 
Q 2378 3584 2631 3529 
Q 2884 3475 3122 3366 
z
" transform="scale(0.015625)"/>
      <path id="DejaVuSans-62" d="M 3116 1747 
Q 3116 2381 2855 2742 
Q 2594 3103 2138 3103 
Q 1681 3103 1420 2742 
Q 1159 2381 1159 1747 
Q 1159 1113 1420 752 
Q 1681 391 2138 391 
Q 2594 391 2855 752 
Q 3116 1113 3116 1747 
z
M 1159 2969 
Q 1341 3281 1617 3432 
Q 1894 3584 2278 3584 
Q 2916 3584 3314 3078 
Q 3713 2572 3713 1747 
Q 3713 922 3314 415 
Q 2916 -91 2278 -91 
Q 1894 -91 1617 61 
Q 1341 213 1159 525 
L 1159 0 
L 581 0 
L 581 4863 
L 1159 4863 
L 1159 2969 
z
" transform="scale(0.015625)"/>
      <path id="DejaVuSans-64" d="M 2906 2969 
L 2906 4863 
L 3481 4863 
L 3481 0 
L 2906 0 
L 2906 525 
Q 2725 213 2448 61 
Q 2172 -91 1784 -91 
Q 1150 -91 751 415 
Q 353 922 353 1747 
Q 353 2572 751 3078 
Q 1150 3584 1784 3584 
Q 2172 3584 2448 3432 
Q 2725 3281 2906 2969 
z
M 947 1747 
Q 947 1113 1208 752 
Q 1469 391 1925 391 
Q 2381 391 2643 752 
Q 2906 1113 2906 1747 
Q 2906 2381 2643 2742 
Q 2381 3103 1925 3103 
Q 1469 3103 1208 2742 
Q 947 2381 947 1747 
z
" transform="scale(0.015625)"/>
     </defs>
     <use xlink:href="#DejaVuSans-52"/>
     <use xlink:href="#DejaVuSans-65" x="64.982422"/>
     <use xlink:href="#DejaVuSans-74" x="126.505859"/>
     <use xlink:href="#DejaVuSans-72" x="165.714844"/>
     <use xlink:href="#DejaVuSans-61" x="206.828125"/>
     <use xlink:href="#DejaVuSans-73" x="268.107422"/>
     <use xlink:href="#DejaVuSans-6f" x="320.207031"/>
     <use xlink:href="#DejaVuSans-20" x="381.388672"/>
     <use xlink:href="#DejaVuSans-65" x="413.175781"/>
     <use xlink:href="#DejaVuSans-6e" x="474.699219"/>
     <use xlink:href="#DejaVuSans-20" x="538.078125"/>
     <use xlink:href="#DejaVuSans-70" x="569.865234"/>
     <use xlink:href="#DejaVuSans-61" x="633.341797"/>
     <use xlink:href="#DejaVuSans-71" x="694.621094"/>
     <use xlink:href="#DejaVuSans-75" x="758.097656"/>
     <use xlink:href="#DejaVuSans-65" x="821.476562"/>
     <use xlink:href="#DejaVuSans-74" x="883"/>
     <use xlink:href="#DejaVuSans-65" x="922.208984"/>
     <use xlink:href="#DejaVuSans-73" x="983.732422"/>
     <use xlink:href="#DejaVuSans-20" x="1035.832031"/>
     <use xlink:href="#DejaVuSans-72" x="1067.619141"/>
     <use xlink:href="#DejaVuSans-65" x="1106.482422"/>
     <use xlink:href="#DejaVuSans-63" x="1168.005859"/>
     <use xlink:href="#DejaVuSans-69" x="1222.986328"/>
     <use xlink:href="#DejaVuSans-62" x="1250.769531"/>
     <use xlink:href="#DejaVuSans-69" x="1314.246094"/>
     <use xlink:href="#DejaVuSans-64" x="1342.029297"/>
     <use xlink:href="#DejaVuSans-6f" x="1405.505859"/>
     <use xlink:href="#DejaVuSans-73" x="1466.6875"/>
    </g>
   </g>
  </g>
 </g>
 <defs>
  <clipPath id="p1b0226edc2">
   <rect x="53.95625" y="25.8" width="362.075963" height="220.9"/>
  </clipPath>
 </defs>
</svg>
