<?xml version="1.0" encoding="utf-8" standalone="no"?>
<!DOCTYPE svg PUBLIC "-//W3C//DTD SVG 1.1//EN"
  "http://www.w3.org/Graphics/SVG/1.1/DTD/svg11.dtd">
<svg xmlns:xlink="http://www.w3.org/1999/xlink" width="432pt" height="288pt" viewBox="0 0 432 288" xmlns="http://www.w3.org/2000/svg" version="1.1">
 <metadata>
  <rdf:RDF xmlns:dc="http://purl.org/dc/elements/1.1/" xmlns:cc="http://creativecommons.org/ns#" xmlns:rdf="http://www.w3.org/1999/02/22-rdf-syntax-ns#">
   <cc:Work>
    <dc:type rdf:resource="http://purl.org/dc/dcmitype/StillImage"/>
    <dc:date>2022-05-23T10:05:14.548705</dc:date>
    <dc:format>image/svg+xml</dc:format>
    <dc:creator>
     <cc:Agent>
      <dc:title>omnetpp.scave 6.0.0; Matplotlib 3.5.1 w/ backend GTK3Agg; Pandas 1.4.2; Python 3.8.10; Linux-5.4.0-109-generic-x86_64-with-glibc2.29</dc:title>
     </cc:Agent>
    </dc:creator>
   </cc:Work>
  </rdf:RDF>
 </metadata>
 <defs>
  <style type="text/css">*{stroke-linejoin: round; stroke-linecap: butt}</style>
 </defs>
 <g id="figure_1">
  <g id="patch_1">
   <path d="M 0 288 
L 432 288 
L 432 0 
L 0 0 
z
" style="fill: #ffffff"/>
  </g>
  <g id="axes_1">
   <g id="patch_2">
    <path d="M 38.01875 246.7 
L 416.072523 246.7 
L 416.072523 25.8 
L 38.01875 25.8 
z
" style="fill: #ffffff"/>
   </g>
   <g id="matplotlib.axis_1">
    <g id="xtick_1">
     <g id="line2d_1">
      <path d="M 38.01875 246.7 
L 38.01875 25.8 
" clip-path="url(#pd9d0afdd80)" style="fill: none; stroke: #b0b0b0; stroke-width: 0.8; stroke-linecap: square"/>
     </g>
     <g id="line2d_2">
      <defs>
       <path id="m80d1db7886" d="M 0 0 
L 0 3.5 
" style="stroke: #000000; stroke-width: 0.8"/>
      </defs>
      <g>
       <use xlink:href="#m80d1db7886" x="38.01875" y="246.7" style="stroke: #000000; stroke-width: 0.8"/>
      </g>
     </g>
     <g id="text_1">
      <!-- 0 -->
      <g transform="translate(34.8375 261.298437)scale(0.1 -0.1)">
       <defs>
        <path id="DejaVuSans-30" d="M 2034 4250 
Q 1547 4250 1301 3770 
Q 1056 3291 1056 2328 
Q 1056 1369 1301 889 
Q 1547 409 2034 409 
Q 2525 409 2770 889 
Q 3016 1369 3016 2328 
Q 3016 3291 2770 3770 
Q 2525 4250 2034 4250 
z
M 2034 4750 
Q 2819 4750 3233 4129 
Q 3647 3509 3647 2328 
Q 3647 1150 3233 529 
Q 2819 -91 2034 -91 
Q 1250 -91 836 529 
Q 422 1150 422 2328 
Q 422 3509 836 4129 
Q 1250 4750 2034 4750 
z
" transform="scale(0.015625)"/>
       </defs>
       <use xlink:href="#DejaVuSans-30"/>
      </g>
     </g>
    </g>
    <g id="xtick_2">
     <g id="line2d_3">
      <path d="M 84.722731 246.7 
L 84.722731 25.8 
" clip-path="url(#pd9d0afdd80)" style="fill: none; stroke: #b0b0b0; stroke-width: 0.8; stroke-linecap: square"/>
     </g>
     <g id="line2d_4">
      <g>
       <use xlink:href="#m80d1db7886" x="84.722731" y="246.7" style="stroke: #000000; stroke-width: 0.8"/>
      </g>
     </g>
     <g id="text_2">
      <!-- 25 -->
      <g transform="translate(78.360231 261.298437)scale(0.1 -0.1)">
       <defs>
        <path id="DejaVuSans-32" d="M 1228 531 
L 3431 531 
L 3431 0 
L 469 0 
L 469 531 
Q 828 903 1448 1529 
Q 2069 2156 2228 2338 
Q 2531 2678 2651 2914 
Q 2772 3150 2772 3378 
Q 2772 3750 2511 3984 
Q 2250 4219 1831 4219 
Q 1534 4219 1204 4116 
Q 875 4013 500 3803 
L 500 4441 
Q 881 4594 1212 4672 
Q 1544 4750 1819 4750 
Q 2544 4750 2975 4387 
Q 3406 4025 3406 3419 
Q 3406 3131 3298 2873 
Q 3191 2616 2906 2266 
Q 2828 2175 2409 1742 
Q 1991 1309 1228 531 
z
" transform="scale(0.015625)"/>
        <path id="DejaVuSans-35" d="M 691 4666 
L 3169 4666 
L 3169 4134 
L 1269 4134 
L 1269 2991 
Q 1406 3038 1543 3061 
Q 1681 3084 1819 3084 
Q 2600 3084 3056 2656 
Q 3513 2228 3513 1497 
Q 3513 744 3044 326 
Q 2575 -91 1722 -91 
Q 1428 -91 1123 -41 
Q 819 9 494 109 
L 494 744 
Q 775 591 1075 516 
Q 1375 441 1709 441 
Q 2250 441 2565 725 
Q 2881 1009 2881 1497 
Q 2881 1984 2565 2268 
Q 2250 2553 1709 2553 
Q 1456 2553 1204 2497 
Q 953 2441 691 2322 
L 691 4666 
z
" transform="scale(0.015625)"/>
       </defs>
       <use xlink:href="#DejaVuSans-32"/>
       <use xlink:href="#DejaVuSans-35" x="63.623047"/>
      </g>
     </g>
    </g>
    <g id="xtick_3">
     <g id="line2d_5">
      <path d="M 131.426712 246.7 
L 131.426712 25.8 
" clip-path="url(#pd9d0afdd80)" style="fill: none; stroke: #b0b0b0; stroke-width: 0.8; stroke-linecap: square"/>
     </g>
     <g id="line2d_6">
      <g>
       <use xlink:href="#m80d1db7886" x="131.426712" y="246.7" style="stroke: #000000; stroke-width: 0.8"/>
      </g>
     </g>
     <g id="text_3">
      <!-- 50 -->
      <g transform="translate(125.064212 261.298437)scale(0.1 -0.1)">
       <use xlink:href="#DejaVuSans-35"/>
       <use xlink:href="#DejaVuSans-30" x="63.623047"/>
      </g>
     </g>
    </g>
    <g id="xtick_4">
     <g id="line2d_7">
      <path d="M 178.130693 246.7 
L 178.130693 25.8 
" clip-path="url(#pd9d0afdd80)" style="fill: none; stroke: #b0b0b0; stroke-width: 0.8; stroke-linecap: square"/>
     </g>
     <g id="line2d_8">
      <g>
       <use xlink:href="#m80d1db7886" x="178.130693" y="246.7" style="stroke: #000000; stroke-width: 0.8"/>
      </g>
     </g>
     <g id="text_4">
      <!-- 75 -->
      <g transform="translate(171.768193 261.298437)scale(0.1 -0.1)">
       <defs>
        <path id="DejaVuSans-37" d="M 525 4666 
L 3525 4666 
L 3525 4397 
L 1831 0 
L 1172 0 
L 2766 4134 
L 525 4134 
L 525 4666 
z
" transform="scale(0.015625)"/>
       </defs>
       <use xlink:href="#DejaVuSans-37"/>
       <use xlink:href="#DejaVuSans-35" x="63.623047"/>
      </g>
     </g>
    </g>
    <g id="xtick_5">
     <g id="line2d_9">
      <path d="M 224.834674 246.7 
L 224.834674 25.8 
" clip-path="url(#pd9d0afdd80)" style="fill: none; stroke: #b0b0b0; stroke-width: 0.8; stroke-linecap: square"/>
     </g>
     <g id="line2d_10">
      <g>
       <use xlink:href="#m80d1db7886" x="224.834674" y="246.7" style="stroke: #000000; stroke-width: 0.8"/>
      </g>
     </g>
     <g id="text_5">
      <!-- 100 -->
      <g transform="translate(215.290924 261.298437)scale(0.1 -0.1)">
       <defs>
        <path id="DejaVuSans-31" d="M 794 531 
L 1825 531 
L 1825 4091 
L 703 3866 
L 703 4441 
L 1819 4666 
L 2450 4666 
L 2450 531 
L 3481 531 
L 3481 0 
L 794 0 
L 794 531 
z
" transform="scale(0.015625)"/>
       </defs>
       <use xlink:href="#DejaVuSans-31"/>
       <use xlink:href="#DejaVuSans-30" x="63.623047"/>
       <use xlink:href="#DejaVuSans-30" x="127.246094"/>
      </g>
     </g>
    </g>
    <g id="xtick_6">
     <g id="line2d_11">
      <path d="M 271.538655 246.7 
L 271.538655 25.8 
" clip-path="url(#pd9d0afdd80)" style="fill: none; stroke: #b0b0b0; stroke-width: 0.8; stroke-linecap: square"/>
     </g>
     <g id="line2d_12">
      <g>
       <use xlink:href="#m80d1db7886" x="271.538655" y="246.7" style="stroke: #000000; stroke-width: 0.8"/>
      </g>
     </g>
     <g id="text_6">
      <!-- 125 -->
      <g transform="translate(261.994905 261.298437)scale(0.1 -0.1)">
       <use xlink:href="#DejaVuSans-31"/>
       <use xlink:href="#DejaVuSans-32" x="63.623047"/>
       <use xlink:href="#DejaVuSans-35" x="127.246094"/>
      </g>
     </g>
    </g>
    <g id="xtick_7">
     <g id="line2d_13">
      <path d="M 318.242637 246.7 
L 318.242637 25.8 
" clip-path="url(#pd9d0afdd80)" style="fill: none; stroke: #b0b0b0; stroke-width: 0.8; stroke-linecap: square"/>
     </g>
     <g id="line2d_14">
      <g>
       <use xlink:href="#m80d1db7886" x="318.242637" y="246.7" style="stroke: #000000; stroke-width: 0.8"/>
      </g>
     </g>
     <g id="text_7">
      <!-- 150 -->
      <g transform="translate(308.698887 261.298437)scale(0.1 -0.1)">
       <use xlink:href="#DejaVuSans-31"/>
       <use xlink:href="#DejaVuSans-35" x="63.623047"/>
       <use xlink:href="#DejaVuSans-30" x="127.246094"/>
      </g>
     </g>
    </g>
    <g id="xtick_8">
     <g id="line2d_15">
      <path d="M 364.946618 246.7 
L 364.946618 25.8 
" clip-path="url(#pd9d0afdd80)" style="fill: none; stroke: #b0b0b0; stroke-width: 0.8; stroke-linecap: square"/>
     </g>
     <g id="line2d_16">
      <g>
       <use xlink:href="#m80d1db7886" x="364.946618" y="246.7" style="stroke: #000000; stroke-width: 0.8"/>
      </g>
     </g>
     <g id="text_8">
      <!-- 175 -->
      <g transform="translate(355.402868 261.298437)scale(0.1 -0.1)">
       <use xlink:href="#DejaVuSans-31"/>
       <use xlink:href="#DejaVuSans-37" x="63.623047"/>
       <use xlink:href="#DejaVuSans-35" x="127.246094"/>
      </g>
     </g>
    </g>
    <g id="xtick_9">
     <g id="line2d_17">
      <path d="M 411.650599 246.7 
L 411.650599 25.8 
" clip-path="url(#pd9d0afdd80)" style="fill: none; stroke: #b0b0b0; stroke-width: 0.8; stroke-linecap: square"/>
     </g>
     <g id="line2d_18">
      <g>
       <use xlink:href="#m80d1db7886" x="411.650599" y="246.7" style="stroke: #000000; stroke-width: 0.8"/>
      </g>
     </g>
     <g id="text_9">
      <!-- 200 -->
      <g transform="translate(402.106849 261.298437)scale(0.1 -0.1)">
       <use xlink:href="#DejaVuSans-32"/>
       <use xlink:href="#DejaVuSans-30" x="63.623047"/>
       <use xlink:href="#DejaVuSans-30" x="127.246094"/>
      </g>
     </g>
    </g>
    <g id="text_10">
     <!-- Tiempo -->
     <g transform="translate(208.578449 274.976562)scale(0.1 -0.1)">
      <defs>
       <path id="DejaVuSans-54" d="M -19 4666 
L 3928 4666 
L 3928 4134 
L 2272 4134 
L 2272 0 
L 1638 0 
L 1638 4134 
L -19 4134 
L -19 4666 
z
" transform="scale(0.015625)"/>
       <path id="DejaVuSans-69" d="M 603 3500 
L 1178 3500 
L 1178 0 
L 603 0 
L 603 3500 
z
M 603 4863 
L 1178 4863 
L 1178 4134 
L 603 4134 
L 603 4863 
z
" transform="scale(0.015625)"/>
       <path id="DejaVuSans-65" d="M 3597 1894 
L 3597 1613 
L 953 1613 
Q 991 1019 1311 708 
Q 1631 397 2203 397 
Q 2534 397 2845 478 
Q 3156 559 3463 722 
L 3463 178 
Q 3153 47 2828 -22 
Q 2503 -91 2169 -91 
Q 1331 -91 842 396 
Q 353 884 353 1716 
Q 353 2575 817 3079 
Q 1281 3584 2069 3584 
Q 2775 3584 3186 3129 
Q 3597 2675 3597 1894 
z
M 3022 2063 
Q 3016 2534 2758 2815 
Q 2500 3097 2075 3097 
Q 1594 3097 1305 2825 
Q 1016 2553 972 2059 
L 3022 2063 
z
" transform="scale(0.015625)"/>
       <path id="DejaVuSans-6d" d="M 3328 2828 
Q 3544 3216 3844 3400 
Q 4144 3584 4550 3584 
Q 5097 3584 5394 3201 
Q 5691 2819 5691 2113 
L 5691 0 
L 5113 0 
L 5113 2094 
Q 5113 2597 4934 2840 
Q 4756 3084 4391 3084 
Q 3944 3084 3684 2787 
Q 3425 2491 3425 1978 
L 3425 0 
L 2847 0 
L 2847 2094 
Q 2847 2600 2669 2842 
Q 2491 3084 2119 3084 
Q 1678 3084 1418 2786 
Q 1159 2488 1159 1978 
L 1159 0 
L 581 0 
L 581 3500 
L 1159 3500 
L 1159 2956 
Q 1356 3278 1631 3431 
Q 1906 3584 2284 3584 
Q 2666 3584 2933 3390 
Q 3200 3197 3328 2828 
z
" transform="scale(0.015625)"/>
       <path id="DejaVuSans-70" d="M 1159 525 
L 1159 -1331 
L 581 -1331 
L 581 3500 
L 1159 3500 
L 1159 2969 
Q 1341 3281 1617 3432 
Q 1894 3584 2278 3584 
Q 2916 3584 3314 3078 
Q 3713 2572 3713 1747 
Q 3713 922 3314 415 
Q 2916 -91 2278 -91 
Q 1894 -91 1617 61 
Q 1341 213 1159 525 
z
M 3116 1747 
Q 3116 2381 2855 2742 
Q 2594 3103 2138 3103 
Q 1681 3103 1420 2742 
Q 1159 2381 1159 1747 
Q 1159 1113 1420 752 
Q 1681 391 2138 391 
Q 2594 391 2855 752 
Q 3116 1113 3116 1747 
z
" transform="scale(0.015625)"/>
       <path id="DejaVuSans-6f" d="M 1959 3097 
Q 1497 3097 1228 2736 
Q 959 2375 959 1747 
Q 959 1119 1226 758 
Q 1494 397 1959 397 
Q 2419 397 2687 759 
Q 2956 1122 2956 1747 
Q 2956 2369 2687 2733 
Q 2419 3097 1959 3097 
z
M 1959 3584 
Q 2709 3584 3137 3096 
Q 3566 2609 3566 1747 
Q 3566 888 3137 398 
Q 2709 -91 1959 -91 
Q 1206 -91 779 398 
Q 353 888 353 1747 
Q 353 2609 779 3096 
Q 1206 3584 1959 3584 
z
" transform="scale(0.015625)"/>
      </defs>
      <use xlink:href="#DejaVuSans-54"/>
      <use xlink:href="#DejaVuSans-69" x="57.958984"/>
      <use xlink:href="#DejaVuSans-65" x="85.742188"/>
      <use xlink:href="#DejaVuSans-6d" x="147.265625"/>
      <use xlink:href="#DejaVuSans-70" x="244.677734"/>
      <use xlink:href="#DejaVuSans-6f" x="308.154297"/>
     </g>
    </g>
   </g>
   <g id="matplotlib.axis_2">
    <g id="ytick_1">
     <g id="line2d_19">
      <path d="M 38.01875 246.7 
L 416.072523 246.7 
" clip-path="url(#pd9d0afdd80)" style="fill: none; stroke: #b0b0b0; stroke-width: 0.8; stroke-linecap: square"/>
     </g>
     <g id="line2d_20">
      <defs>
       <path id="m29067bb3b2" d="M 0 0 
L -3.5 0 
" style="stroke: #000000; stroke-width: 0.8"/>
      </defs>
      <g>
       <use xlink:href="#m29067bb3b2" x="38.01875" y="246.7" style="stroke: #000000; stroke-width: 0.8"/>
      </g>
     </g>
     <g id="text_11">
      <!-- 0 -->
      <g transform="translate(24.65625 250.499219)scale(0.1 -0.1)">
       <use xlink:href="#DejaVuSans-30"/>
      </g>
     </g>
    </g>
    <g id="ytick_2">
     <g id="line2d_21">
      <path d="M 38.01875 197.940476 
L 416.072523 197.940476 
" clip-path="url(#pd9d0afdd80)" style="fill: none; stroke: #b0b0b0; stroke-width: 0.8; stroke-linecap: square"/>
     </g>
     <g id="line2d_22">
      <g>
       <use xlink:href="#m29067bb3b2" x="38.01875" y="197.940476" style="stroke: #000000; stroke-width: 0.8"/>
      </g>
     </g>
     <g id="text_12">
      <!-- 2 -->
      <g transform="translate(24.65625 201.739695)scale(0.1 -0.1)">
       <use xlink:href="#DejaVuSans-32"/>
      </g>
     </g>
    </g>
    <g id="ytick_3">
     <g id="line2d_23">
      <path d="M 38.01875 149.180952 
L 416.072523 149.180952 
" clip-path="url(#pd9d0afdd80)" style="fill: none; stroke: #b0b0b0; stroke-width: 0.8; stroke-linecap: square"/>
     </g>
     <g id="line2d_24">
      <g>
       <use xlink:href="#m29067bb3b2" x="38.01875" y="149.180952" style="stroke: #000000; stroke-width: 0.8"/>
      </g>
     </g>
     <g id="text_13">
      <!-- 4 -->
      <g transform="translate(24.65625 152.98017)scale(0.1 -0.1)">
       <defs>
        <path id="DejaVuSans-34" d="M 2419 4116 
L 825 1625 
L 2419 1625 
L 2419 4116 
z
M 2253 4666 
L 3047 4666 
L 3047 1625 
L 3713 1625 
L 3713 1100 
L 3047 1100 
L 3047 0 
L 2419 0 
L 2419 1100 
L 313 1100 
L 313 1709 
L 2253 4666 
z
" transform="scale(0.015625)"/>
       </defs>
       <use xlink:href="#DejaVuSans-34"/>
      </g>
     </g>
    </g>
    <g id="ytick_4">
     <g id="line2d_25">
      <path d="M 38.01875 100.421427 
L 416.072523 100.421427 
" clip-path="url(#pd9d0afdd80)" style="fill: none; stroke: #b0b0b0; stroke-width: 0.8; stroke-linecap: square"/>
     </g>
     <g id="line2d_26">
      <g>
       <use xlink:href="#m29067bb3b2" x="38.01875" y="100.421427" style="stroke: #000000; stroke-width: 0.8"/>
      </g>
     </g>
     <g id="text_14">
      <!-- 6 -->
      <g transform="translate(24.65625 104.220646)scale(0.1 -0.1)">
       <defs>
        <path id="DejaVuSans-36" d="M 2113 2584 
Q 1688 2584 1439 2293 
Q 1191 2003 1191 1497 
Q 1191 994 1439 701 
Q 1688 409 2113 409 
Q 2538 409 2786 701 
Q 3034 994 3034 1497 
Q 3034 2003 2786 2293 
Q 2538 2584 2113 2584 
z
M 3366 4563 
L 3366 3988 
Q 3128 4100 2886 4159 
Q 2644 4219 2406 4219 
Q 1781 4219 1451 3797 
Q 1122 3375 1075 2522 
Q 1259 2794 1537 2939 
Q 1816 3084 2150 3084 
Q 2853 3084 3261 2657 
Q 3669 2231 3669 1497 
Q 3669 778 3244 343 
Q 2819 -91 2113 -91 
Q 1303 -91 875 529 
Q 447 1150 447 2328 
Q 447 3434 972 4092 
Q 1497 4750 2381 4750 
Q 2619 4750 2861 4703 
Q 3103 4656 3366 4563 
z
" transform="scale(0.015625)"/>
       </defs>
       <use xlink:href="#DejaVuSans-36"/>
      </g>
     </g>
    </g>
    <g id="ytick_5">
     <g id="line2d_27">
      <path d="M 38.01875 51.661903 
L 416.072523 51.661903 
" clip-path="url(#pd9d0afdd80)" style="fill: none; stroke: #b0b0b0; stroke-width: 0.8; stroke-linecap: square"/>
     </g>
     <g id="line2d_28">
      <g>
       <use xlink:href="#m29067bb3b2" x="38.01875" y="51.661903" style="stroke: #000000; stroke-width: 0.8"/>
      </g>
     </g>
     <g id="text_15">
      <!-- 8 -->
      <g transform="translate(24.65625 55.461122)scale(0.1 -0.1)">
       <defs>
        <path id="DejaVuSans-38" d="M 2034 2216 
Q 1584 2216 1326 1975 
Q 1069 1734 1069 1313 
Q 1069 891 1326 650 
Q 1584 409 2034 409 
Q 2484 409 2743 651 
Q 3003 894 3003 1313 
Q 3003 1734 2745 1975 
Q 2488 2216 2034 2216 
z
M 1403 2484 
Q 997 2584 770 2862 
Q 544 3141 544 3541 
Q 544 4100 942 4425 
Q 1341 4750 2034 4750 
Q 2731 4750 3128 4425 
Q 3525 4100 3525 3541 
Q 3525 3141 3298 2862 
Q 3072 2584 2669 2484 
Q 3125 2378 3379 2068 
Q 3634 1759 3634 1313 
Q 3634 634 3220 271 
Q 2806 -91 2034 -91 
Q 1263 -91 848 271 
Q 434 634 434 1313 
Q 434 1759 690 2068 
Q 947 2378 1403 2484 
z
M 1172 3481 
Q 1172 3119 1398 2916 
Q 1625 2713 2034 2713 
Q 2441 2713 2670 2916 
Q 2900 3119 2900 3481 
Q 2900 3844 2670 4047 
Q 2441 4250 2034 4250 
Q 1625 4250 1398 4047 
Q 1172 3844 1172 3481 
z
" transform="scale(0.015625)"/>
       </defs>
       <use xlink:href="#DejaVuSans-38"/>
      </g>
     </g>
    </g>
    <g id="text_16">
     <!-- Tiempo -->
     <g transform="translate(18.576563 154.717187)rotate(-90)scale(0.1 -0.1)">
      <use xlink:href="#DejaVuSans-54"/>
      <use xlink:href="#DejaVuSans-69" x="57.958984"/>
      <use xlink:href="#DejaVuSans-65" x="85.742188"/>
      <use xlink:href="#DejaVuSans-6d" x="147.265625"/>
      <use xlink:href="#DejaVuSans-70" x="244.677734"/>
      <use xlink:href="#DejaVuSans-6f" x="308.154297"/>
     </g>
    </g>
   </g>
   <g id="line2d_29">
    <path d="M 39.110455 236.333725 
L 39.484087 235.83911 
L 39.915442 236.333725 
L 40.610249 236.333725 
L 40.983881 235.959365 
L 41.684354 236.333725 
L 42.057986 235.296128 
L 42.680519 236.333725 
L 43.05415 234.144659 
L 43.427782 234.032543 
L 43.801414 234.218606 
L 44.92231 226.484402 
L 45.295941 232.450249 
L 45.669573 227.858978 
L 46.258732 236.333725 
L 47.005995 230.492131 
L 47.379627 228.782848 
L 48.126891 234.834428 
L 48.500523 233.628479 
L 48.874155 231.940826 
L 49.247787 231.157909 
L 49.621418 228.714432 
L 50.008362 236.333725 
L 50.684026 236.333725 
L 51.057658 231.817059 
L 51.43129 228.947941 
L 51.804922 224.516486 
L 52.178554 224.734014 
L 52.552185 219.957656 
L 52.925817 217.320976 
L 53.299449 221.160728 
L 53.673081 231.644854 
L 54.046713 234.111034 
L 54.420345 229.972476 
L 54.793977 235.044999 
L 55.457767 236.333725 
L 56.894464 236.333725 
L 57.268096 234.586716 
L 57.733996 236.333725 
L 58.337039 236.333725 
L 58.71067 234.475643 
L 59.084302 233.183342 
L 59.457934 235.701947 
L 59.833946 236.333725 
L 60.207577 232.07153 
L 60.581209 233.413528 
L 60.954841 233.518028 
L 61.328473 232.895473 
L 61.702105 228.773975 
L 62.075737 227.656575 
L 62.492276 236.333725 
L 63.023343 236.333725 
L 63.396975 235.055384 
L 63.770607 230.725275 
L 64.891503 223.335968 
L 65.265135 219.465453 
L 65.638766 221.84616 
L 66.012398 223.481019 
L 66.38603 221.574924 
L 66.759662 217.88894 
L 67.133294 217.11042 
L 68.254189 205.193677 
L 68.627821 205.005372 
L 69.001453 200.91999 
L 69.375085 200.661548 
L 69.748717 197.011615 
L 70.122349 196.814372 
L 70.49598 194.320601 
L 71.243244 209.956944 
L 71.616876 210.664634 
L 71.990508 208.703263 
L 72.36414 205.999638 
L 72.737772 205.753376 
L 73.111403 203.678816 
L 73.485035 210.146041 
L 73.858667 211.102253 
L 74.605931 202.163055 
L 74.979563 214.353978 
L 75.353195 214.83627 
L 75.726826 215.123143 
L 76.100458 215.662411 
L 76.847722 207.976119 
L 77.221354 205.262184 
L 77.594986 201.059253 
L 77.968617 202.956206 
L 78.342249 199.928054 
L 78.715881 199.616294 
L 79.463145 193.985615 
L 79.836777 193.227052 
L 80.210409 188.542155 
L 80.58404 186.481208 
L 80.957672 186.509835 
L 81.331304 203.353797 
L 81.704936 214.046501 
L 82.078568 209.695372 
L 82.4522 209.977331 
L 82.825831 206.243822 
L 83.199463 206.282923 
L 83.573095 202.264717 
L 83.946727 223.524359 
L 84.320359 223.810785 
L 84.693991 223.186253 
L 85.067623 219.734472 
L 85.814886 215.65333 
L 86.188518 213.916423 
L 86.56215 210.407088 
L 86.935782 210.294278 
L 88.056677 199.092188 
L 88.430309 199.69275 
L 88.803941 200.024667 
L 89.177573 197.009163 
L 89.551205 192.858324 
L 89.924837 195.328654 
L 90.298468 191.519953 
L 90.6721 201.209396 
L 91.045732 198.57645 
L 91.419364 198.997096 
L 91.792996 202.509399 
L 92.54026 193.322175 
L 92.913891 193.200773 
L 93.287523 197.198171 
L 93.661155 197.782381 
L 94.034787 193.399069 
L 94.782051 219.35191 
L 95.155682 224.741404 
L 95.902946 221.547266 
L 96.276578 235.014292 
L 96.65021 230.417863 
L 97.023842 230.069128 
L 97.397474 228.118488 
L 97.771105 229.797011 
L 98.518369 220.338475 
L 98.892001 218.30461 
L 99.265633 215.049474 
L 99.639265 229.148632 
L 100.012897 224.897079 
L 101.133792 217.350283 
L 101.507424 213.090596 
L 101.881056 213.904263 
L 102.254688 210.894342 
L 102.628319 216.37607 
L 103.001951 214.108188 
L 103.375583 221.44119 
L 104.122847 213.204209 
L 104.496479 214.077929 
L 105.243742 212.463701 
L 105.617374 217.355454 
L 105.991006 213.983318 
L 106.73827 211.311329 
L 107.111902 218.554958 
L 107.485533 214.16002 
L 107.859165 221.670471 
L 108.232797 220.977577 
L 108.606429 216.524714 
L 108.980061 224.566407 
L 109.727325 218.271068 
L 110.100956 213.440953 
L 110.474588 213.932673 
L 110.84822 218.064202 
L 111.221852 213.877372 
L 111.595484 214.081092 
L 111.969116 215.348517 
L 112.342748 219.45057 
L 113.837275 206.571827 
L 114.210907 206.00197 
L 114.584539 205.050171 
L 115.331802 196.27621 
L 115.705434 200.009927 
L 116.079066 197.385353 
L 116.82633 188.428462 
L 117.199962 189.07518 
L 117.573593 188.31006 
L 117.947225 184.968676 
L 118.320857 186.024362 
L 118.694489 187.627369 
L 119.068121 184.410931 
L 119.441753 195.504421 
L 119.815385 193.397543 
L 120.189016 189.916215 
L 120.562648 191.92035 
L 120.93628 191.229881 
L 121.309912 188.813085 
L 121.683544 188.308867 
L 122.057176 194.470772 
L 122.430807 193.73558 
L 122.804439 193.826559 
L 123.178071 190.181394 
L 123.551703 196.137404 
L 123.925335 206.144232 
L 124.298967 206.824953 
L 125.04623 202.870573 
L 125.419862 207.129521 
L 125.793494 220.991886 
L 126.167126 221.977992 
L 126.91439 214.549706 
L 127.288021 216.777132 
L 127.661653 220.097276 
L 128.408917 215.395596 
L 128.782549 216.006466 
L 129.156181 221.513851 
L 129.529813 218.039298 
L 129.903444 217.408037 
L 130.277076 214.364169 
L 130.650708 219.897549 
L 131.02434 231.426107 
L 131.397972 232.300769 
L 131.771604 231.753987 
L 132.145236 233.177323 
L 132.518867 233.556842 
L 133.266131 230.912453 
L 134.018487 236.333725 
L 134.392119 232.735551 
L 134.765751 232.895468 
L 135.513015 228.281387 
L 135.886647 228.108065 
L 136.260278 227.778464 
L 136.63391 226.043136 
L 137.007542 221.261678 
L 137.381174 219.482578 
L 137.754806 216.356738 
L 138.128438 217.619822 
L 138.502069 218.006583 
L 139.622965 209.063599 
L 139.996597 208.880142 
L 140.370229 210.74753 
L 140.743861 208.601921 
L 141.117492 214.001783 
L 142.61202 197.936826 
L 142.985652 197.175634 
L 143.359283 194.430609 
L 143.732915 193.912438 
L 144.480179 192.23819 
L 144.853811 187.529012 
L 145.227443 187.816739 
L 145.601075 199.872704 
L 145.974706 200.145024 
L 147.095602 191.377194 
L 147.469234 197.562993 
L 147.842866 193.429617 
L 148.216498 190.787694 
L 148.590129 186.410652 
L 148.963761 184.325995 
L 149.337393 199.625806 
L 149.711025 205.598432 
L 150.084657 202.1929 
L 150.458289 205.317886 
L 150.83192 204.196792 
L 151.205552 205.254969 
L 151.579184 203.275691 
L 152.326448 194.550147 
L 152.70008 201.958094 
L 153.073712 199.199991 
L 153.447343 200.431693 
L 153.820975 198.644474 
L 154.194607 226.756244 
L 154.568239 230.850741 
L 154.941871 226.764059 
L 155.315503 233.34746 
L 155.843617 236.333725 
L 156.59088 227.633117 
L 156.964512 226.218691 
L 157.338144 226.003985 
L 158.085408 217.786651 
L 158.45904 220.272526 
L 159.579935 232.621531 
L 159.953567 230.329848 
L 160.327199 229.558867 
L 160.700831 225.418164 
L 161.074463 223.091701 
L 161.821726 213.854025 
L 162.195358 228.724933 
L 162.56899 229.677882 
L 163.316254 225.15091 
L 163.689886 222.931655 
L 164.063517 224.298551 
L 164.437149 219.675722 
L 164.810781 224.613953 
L 165.184413 221.956129 
L 165.558045 235.169768 
L 165.931677 230.375575 
L 166.305309 234.942281 
L 166.67894 231.345433 
L 167.052572 226.526936 
L 167.426204 228.710358 
L 167.799836 226.010313 
L 168.173468 235.199591 
L 168.575757 236.333725 
L 169.09372 236.333725 
L 169.840984 229.521569 
L 170.588247 226.63789 
L 170.961879 222.034357 
L 171.335511 219.176946 
L 172.456407 206.69287 
L 172.830039 202.731251 
L 173.20367 205.551564 
L 173.577302 203.711367 
L 173.950934 200.071496 
L 174.324566 205.318173 
L 174.698198 202.507952 
L 175.445462 219.655522 
L 175.819093 219.349013 
L 176.192725 220.415856 
L 176.566357 219.967093 
L 176.939989 215.248911 
L 177.313621 217.837219 
L 177.687253 213.83873 
L 178.060884 212.342786 
L 178.434516 212.203735 
L 178.808148 207.579786 
L 179.18178 206.901656 
L 179.555412 207.88158 
L 179.929044 204.330269 
L 180.302676 223.244736 
L 180.676307 231.637948 
L 181.049939 228.27826 
L 181.423571 228.043384 
L 181.797203 228.709422 
L 182.170835 227.573713 
L 182.544467 232.435876 
L 182.918098 231.906244 
L 183.665362 235.316789 
L 184.834596 236.333725 
L 185.208227 233.280825 
L 185.581859 232.344545 
L 185.955491 229.944919 
L 187.82365 211.312771 
L 188.197282 220.523813 
L 188.570914 219.758185 
L 188.944546 221.442083 
L 189.69181 217.911521 
L 190.065441 230.171999 
L 190.439073 226.554105 
L 190.812705 227.242286 
L 191.559969 219.356223 
L 192.307233 210.178965 
L 193.428128 203.414464 
L 193.80176 208.917806 
L 194.175392 209.853297 
L 194.549024 223.246049 
L 194.922655 220.683328 
L 195.296287 220.495309 
L 195.669919 216.584638 
L 196.043551 215.521562 
L 196.417183 210.767452 
L 196.790815 215.294092 
L 197.164447 210.757592 
L 197.538078 212.522353 
L 197.91171 213.192985 
L 198.658974 209.564359 
L 199.032606 210.199967 
L 199.406238 209.074206 
L 199.779869 208.752687 
L 200.153501 214.944366 
L 200.527133 216.18385 
L 200.900765 233.930622 
L 201.274397 232.145682 
L 201.648029 228.461856 
L 202.021661 226.554544 
L 202.395292 226.983162 
L 202.768924 233.657942 
L 203.516188 226.115823 
L 204.263452 217.735127 
L 204.637084 219.784897 
L 205.010715 225.312098 
L 205.384347 222.31674 
L 205.757979 228.888762 
L 206.131611 226.371007 
L 206.505243 226.555563 
L 206.878875 226.007027 
L 207.252506 223.045242 
L 207.626138 226.839432 
L 207.99977 225.539346 
L 208.373402 225.497921 
L 208.747034 220.622238 
L 209.120666 225.794752 
L 210.241561 217.249689 
L 210.615193 220.173892 
L 210.988825 225.8581 
L 211.362457 221.983414 
L 211.736089 222.661452 
L 212.10972 232.672683 
L 212.483352 230.766403 
L 212.856984 231.561736 
L 213.230616 229.906365 
L 213.604248 226.213896 
L 213.97788 228.918406 
L 214.509814 236.333725 
L 214.883446 232.728642 
L 215.257078 234.252416 
L 215.890718 236.333725 
L 217.011614 226.139593 
L 217.410055 236.333725 
L 217.783687 235.018328 
L 218.157319 233.254153 
L 218.53095 228.504964 
L 218.904582 229.691531 
L 219.651846 221.88708 
L 220.025478 219.706741 
L 220.39911 221.223028 
L 220.772741 218.632319 
L 221.146373 218.823484 
L 221.520005 216.984418 
L 222.640901 206.128079 
L 223.014533 205.561423 
L 223.388164 208.721412 
L 223.761796 213.5683 
L 224.135428 215.395221 
L 224.50906 211.128922 
L 224.882692 211.730909 
L 225.256324 210.407205 
L 226.003587 202.926719 
L 226.377219 198.988224 
L 227.124483 201.332641 
L 227.871747 197.072603 
L 228.245378 196.260164 
L 228.61901 200.332868 
L 230.113538 184.576 
L 230.48717 182.964695 
L 230.860801 178.738905 
L 231.234433 176.005716 
L 231.608065 177.373052 
L 231.981697 186.250386 
L 232.355329 181.525229 
L 233.102592 185.542516 
L 233.476224 187.400074 
L 233.849856 182.997906 
L 234.223488 189.534081 
L 234.970752 181.402488 
L 235.344384 183.271521 
L 235.718015 182.312868 
L 236.091647 183.851847 
L 236.465279 183.258029 
L 236.838911 178.609724 
L 237.212543 189.670805 
L 238.333438 179.520682 
L 238.70707 175.98819 
L 239.080702 176.626543 
L 240.201598 162.912274 
L 240.575229 161.991406 
L 240.948861 170.049203 
L 241.322493 165.218514 
L 241.696125 165.747115 
L 242.069757 169.599067 
L 242.443389 172.221494 
L 242.817021 187.609859 
L 243.190652 184.347407 
L 243.564284 185.399104 
L 243.937916 184.828035 
L 244.68518 176.375738 
L 245.432443 173.36754 
L 245.806075 172.726673 
L 246.179707 186.3502 
L 246.553339 189.027154 
L 246.926971 194.349532 
L 247.300603 194.020951 
L 248.047866 187.483009 
L 248.421498 198.4974 
L 248.79513 196.582513 
L 249.168762 192.99175 
L 249.542394 198.408391 
L 249.916026 208.073507 
L 250.289658 206.502485 
L 250.663289 215.457855 
L 251.036921 216.71213 
L 251.410553 219.664318 
L 251.784185 218.034982 
L 252.157817 218.012863 
L 252.531449 219.148377 
L 252.90508 224.383987 
L 253.278712 222.869685 
L 253.652344 219.684485 
L 254.399608 228.224878 
L 254.77324 224.402601 
L 255.146872 224.217372 
L 255.520503 226.578516 
L 255.894135 221.767537 
L 256.267767 234.735899 
L 256.641399 231.939715 
L 257.045515 236.333725 
L 257.419147 232.239554 
L 257.792779 234.755882 
L 259.16937 236.333725 
L 260.739319 236.333725 
L 261.112951 234.63103 
L 261.505815 236.333725 
L 261.879446 234.812152 
L 262.253078 229.955978 
L 262.62671 230.05441 
L 263.373974 224.075464 
L 263.747606 221.776293 
L 264.121238 217.618203 
L 264.494869 215.467945 
L 264.868501 219.010975 
L 265.989397 209.63376 
L 266.363029 208.249211 
L 267.110292 200.362804 
L 267.483924 214.735324 
L 267.857556 210.36144 
L 268.231188 208.026243 
L 268.60482 212.813894 
L 268.978452 212.044158 
L 269.352083 224.76523 
L 269.725715 221.942021 
L 270.099347 232.863974 
L 270.472979 235.571563 
L 271.300229 236.333725 
L 271.673861 234.04184 
L 272.05399 236.333725 
L 273.174886 228.338738 
L 273.548518 223.875192 
L 274.295781 218.425152 
L 274.669413 220.827203 
L 275.043045 217.239821 
L 275.416677 225.073389 
L 276.537573 213.324953 
L 276.911204 223.344352 
L 277.284836 224.773727 
L 278.0321 215.146353 
L 278.405732 213.987942 
L 278.779364 216.290387 
L 279.152996 213.185587 
L 279.526627 209.084585 
L 279.900259 214.664554 
L 281.021155 202.305231 
L 281.768418 203.506013 
L 282.14205 206.738603 
L 282.515682 203.235348 
L 283.262946 198.903319 
L 283.636578 200.828682 
L 284.01021 199.92672 
L 284.757473 208.409305 
L 285.131105 205.856639 
L 285.504737 207.311846 
L 286.252001 199.591722 
L 286.999264 191.969973 
L 287.372896 191.464479 
L 287.746528 186.866293 
L 288.12016 185.145933 
L 288.493792 182.020259 
L 288.867424 180.407796 
L 289.241055 177.013994 
L 289.988319 173.222959 
L 290.361951 171.972682 
L 290.735583 172.702814 
L 291.109215 170.671608 
L 291.482847 171.595583 
L 291.856478 176.05631 
L 292.23011 172.806017 
L 292.977374 168.15479 
L 293.351006 171.829866 
L 293.724638 167.9284 
L 294.098269 166.524165 
L 294.471901 169.224202 
L 295.219165 160.198156 
L 295.592797 160.583 
L 295.966429 161.529 
L 296.340061 157.781445 
L 296.713692 160.259479 
L 297.087324 164.546018 
L 297.460956 166.995759 
L 297.834588 167.696388 
L 299.329115 153.250465 
L 299.702747 152.693439 
L 300.076379 147.864956 
L 300.450011 144.542403 
L 300.823643 150.52073 
L 301.197275 147.904246 
L 301.944538 139.920952 
L 302.31817 142.409939 
L 302.691802 140.537179 
L 303.065434 148.301883 
L 303.439066 143.648459 
L 303.812698 144.896184 
L 304.186329 147.8628 
L 304.559961 146.277877 
L 304.933593 141.792385 
L 305.680857 138.698483 
L 306.054489 144.272183 
L 306.42812 141.18303 
L 306.801752 139.575096 
L 307.175384 138.900593 
L 307.549016 136.635247 
L 307.922648 147.38579 
L 308.29628 143.442588 
L 308.669912 143.624193 
L 309.043543 141.892784 
L 309.417175 137.19238 
L 309.790807 139.780771 
L 310.164439 137.649128 
L 310.538071 136.736829 
L 310.911703 135.339305 
L 311.285335 131.312719 
L 311.658966 130.182734 
L 312.032598 126.063947 
L 312.40623 126.765086 
L 312.779862 127.000541 
L 313.153494 123.710107 
L 313.527126 122.612249 
L 314.274389 115.454403 
L 314.648021 113.010051 
L 315.021653 108.909434 
L 315.395285 119.309009 
L 316.51618 107.216504 
L 316.889812 113.766078 
L 317.263444 113.107523 
L 317.637076 112.058398 
L 318.010708 107.654426 
L 318.38434 105.755158 
L 319.131603 118.195849 
L 319.505235 113.742237 
L 319.878867 111.85819 
L 320.252499 114.839015 
L 320.626131 116.243104 
L 320.999763 121.590251 
L 321.373394 119.197145 
L 321.747026 114.799619 
L 322.120658 121.352263 
L 322.49429 119.185677 
L 322.867922 120.020751 
L 323.241554 118.270155 
L 323.615186 119.258578 
L 323.988817 118.614806 
L 324.362449 115.675001 
L 324.736081 116.940999 
L 325.109713 118.958587 
L 325.483345 114.216441 
L 325.856977 114.268951 
L 326.230608 115.802546 
L 326.60424 112.264864 
L 326.977872 114.49103 
L 327.725136 105.640248 
L 328.098768 108.524647 
L 328.4724 105.445888 
L 328.846031 116.164474 
L 329.219663 112.581103 
L 329.966927 109.230208 
L 330.340559 108.713364 
L 330.714191 118.82158 
L 331.087822 123.453622 
L 331.461454 122.556537 
L 331.835086 120.660072 
L 332.208718 116.284158 
L 332.58235 126.201565 
L 332.955982 126.065092 
L 333.329614 125.369952 
L 334.076877 133.693246 
L 334.450509 129.653707 
L 334.824141 136.456538 
L 335.197773 155.392294 
L 335.571405 158.757847 
L 336.6923 145.893673 
L 337.439564 145.870905 
L 337.813196 143.473007 
L 338.186828 153.13607 
L 338.560459 148.575912 
L 338.934091 157.160536 
L 339.681355 152.990549 
L 340.054987 149.574107 
L 340.428619 151.040976 
L 340.802251 155.384129 
L 341.175882 157.118596 
L 341.549514 152.407801 
L 341.923146 149.319886 
L 342.296778 160.016564 
L 342.67041 155.762654 
L 343.791305 148.287822 
L 344.164937 145.836239 
L 344.538569 141.04056 
L 344.912201 139.865284 
L 345.285833 135.988182 
L 345.659465 140.213879 
L 346.033096 137.838934 
L 346.406728 136.709969 
L 346.78036 144.751333 
L 347.153992 145.435326 
L 347.527624 141.07102 
L 347.901256 140.776035 
L 348.274888 150.069208 
L 348.648519 145.69875 
L 349.022151 150.751671 
L 349.395783 146.346449 
L 349.769415 144.422563 
L 350.143047 139.827431 
L 350.516679 136.880238 
L 351.263942 128.861453 
L 351.637574 125.30554 
L 352.011206 125.076968 
L 352.384838 129.121776 
L 352.75847 124.409821 
L 353.132102 123.136807 
L 353.505733 118.337549 
L 353.879365 116.970551 
L 354.252997 114.825173 
L 354.626629 115.065763 
L 355.000261 110.533575 
L 355.373893 109.492847 
L 355.747525 106.032254 
L 356.494788 97.660023 
L 356.86842 97.015724 
L 357.242052 93.563287 
L 357.615684 95.876547 
L 357.989316 91.685547 
L 358.362947 89.110889 
L 358.736579 84.293981 
L 359.110211 82.711031 
L 359.483843 78.433431 
L 359.857475 93.049408 
L 360.231107 92.871888 
L 360.604739 89.36401 
L 360.97837 102.331909 
L 361.352002 99.742394 
L 361.725634 117.492226 
L 362.099266 112.844151 
L 362.472898 110.5331 
L 362.84653 107.466914 
L 363.220161 103.458281 
L 363.593793 107.266081 
L 363.967425 107.354909 
L 364.341057 110.500793 
L 364.714689 108.910956 
L 365.088321 109.016854 
L 365.461953 126.315874 
L 365.835584 123.67812 
L 366.209216 119.131461 
L 366.582848 116.084293 
L 367.330112 121.679936 
L 367.703744 118.462964 
L 368.451007 110.414506 
L 368.824639 111.14913 
L 369.198271 111.569453 
L 369.571903 109.030119 
L 369.945535 105.531363 
L 370.319167 105.555418 
L 370.692798 106.024448 
L 371.06643 113.902236 
L 371.440062 112.577818 
L 371.813694 117.081924 
L 372.187326 114.896532 
L 372.560958 113.377741 
L 372.93459 112.446335 
L 373.308221 110.292757 
L 373.681853 107.066564 
L 374.055485 110.621717 
L 374.429117 111.724327 
L 374.802749 113.383496 
L 375.923644 106.438658 
L 376.297276 118.485406 
L 376.670908 122.21106 
L 377.04454 119.535327 
L 377.418172 127.287243 
L 377.791804 124.882049 
L 378.165435 120.23575 
L 378.539067 121.903422 
L 378.912699 118.318536 
L 379.286331 116.349489 
L 379.659963 113.562919 
L 380.033595 122.189184 
L 380.407227 125.540027 
L 380.780858 122.114054 
L 381.15449 137.878085 
L 381.528122 135.346872 
L 381.901754 147.404399 
L 382.275386 148.352723 
L 383.022649 161.162054 
L 383.396281 158.001303 
L 383.769913 153.754536 
L 384.143545 172.42807 
L 385.638072 157.480538 
L 386.011704 155.883093 
L 386.385336 165.707982 
L 386.758968 171.662565 
L 387.506232 165.368446 
L 387.879864 166.199482 
L 388.253495 163.695774 
L 388.627127 159.113005 
L 389.000759 166.356871 
L 389.374391 167.877989 
L 389.748023 163.591204 
L 390.121655 169.123959 
L 390.495286 169.110789 
L 391.989814 156.461929 
L 392.737078 150.908412 
L 393.110709 152.768388 
L 393.484341 153.450024 
L 393.857973 149.898165 
L 394.231605 152.762091 
L 394.605237 148.805571 
L 394.978869 147.347883 
L 395.3525 145.38068 
L 396.099764 139.112156 
L 396.847028 148.857976 
L 397.594292 142.544275 
L 397.967923 144.206496 
L 398.341555 142.733654 
L 398.715187 141.809627 
L 399.088819 150.866345 
L 399.462451 147.087689 
L 399.836083 147.112633 
L 400.209715 146.114146 
L 400.583346 151.085591 
L 400.956978 149.784811 
L 401.33061 158.643986 
L 401.704242 155.859387 
L 402.077874 157.757881 
L 402.451506 153.003476 
L 402.825137 153.991136 
L 403.198769 149.900908 
L 403.572401 161.802835 
L 403.946033 157.616308 
L 404.319665 178.0228 
L 404.693297 179.147774 
L 405.066929 177.203023 
L 405.44056 178.347311 
L 405.814192 173.829773 
L 406.187824 173.566967 
L 406.561456 170.380207 
L 406.935088 170.9383 
L 407.30872 166.868308 
L 408.055983 162.644433 
L 408.429615 163.57565 
L 408.803247 159.385964 
L 409.176879 156.827745 
L 409.550511 156.470038 
L 409.924143 152.107992 
L 410.297774 149.585054 
L 410.671406 160.435589 
L 411.045038 166.566986 
L 411.41867 162.057665 
L 411.41867 162.057665 
" clip-path="url(#pd9d0afdd80)" style="fill: none; stroke: #1f77b4; stroke-width: 1.5; stroke-linecap: square"/>
   </g>
   <g id="patch_3">
    <path d="M 38.01875 246.7 
L 38.01875 25.8 
" style="fill: none; stroke: #000000; stroke-width: 0.8; stroke-linejoin: miter; stroke-linecap: square"/>
   </g>
   <g id="patch_4">
    <path d="M 416.072523 246.7 
L 416.072523 25.8 
" style="fill: none; stroke: #000000; stroke-width: 0.8; stroke-linejoin: miter; stroke-linecap: square"/>
   </g>
   <g id="patch_5">
    <path d="M 38.01875 246.7 
L 416.072523 246.7 
" style="fill: none; stroke: #000000; stroke-width: 0.8; stroke-linejoin: miter; stroke-linecap: square"/>
   </g>
   <g id="patch_6">
    <path d="M 38.01875 25.8 
L 416.072523 25.8 
" style="fill: none; stroke: #000000; stroke-width: 0.8; stroke-linejoin: miter; stroke-linecap: square"/>
   </g>
   <g id="text_17">
    <!-- Retraso en paquetes recibidos -->
    <g transform="translate(135.916886 19.8)scale(0.12 -0.12)">
     <defs>
      <path id="DejaVuSans-52" d="M 2841 2188 
Q 3044 2119 3236 1894 
Q 3428 1669 3622 1275 
L 4263 0 
L 3584 0 
L 2988 1197 
Q 2756 1666 2539 1819 
Q 2322 1972 1947 1972 
L 1259 1972 
L 1259 0 
L 628 0 
L 628 4666 
L 2053 4666 
Q 2853 4666 3247 4331 
Q 3641 3997 3641 3322 
Q 3641 2881 3436 2590 
Q 3231 2300 2841 2188 
z
M 1259 4147 
L 1259 2491 
L 2053 2491 
Q 2509 2491 2742 2702 
Q 2975 2913 2975 3322 
Q 2975 3731 2742 3939 
Q 2509 4147 2053 4147 
L 1259 4147 
z
" transform="scale(0.015625)"/>
      <path id="DejaVuSans-74" d="M 1172 4494 
L 1172 3500 
L 2356 3500 
L 2356 3053 
L 1172 3053 
L 1172 1153 
Q 1172 725 1289 603 
Q 1406 481 1766 481 
L 2356 481 
L 2356 0 
L 1766 0 
Q 1100 0 847 248 
Q 594 497 594 1153 
L 594 3053 
L 172 3053 
L 172 3500 
L 594 3500 
L 594 4494 
L 1172 4494 
z
" transform="scale(0.015625)"/>
      <path id="DejaVuSans-72" d="M 2631 2963 
Q 2534 3019 2420 3045 
Q 2306 3072 2169 3072 
Q 1681 3072 1420 2755 
Q 1159 2438 1159 1844 
L 1159 0 
L 581 0 
L 581 3500 
L 1159 3500 
L 1159 2956 
Q 1341 3275 1631 3429 
Q 1922 3584 2338 3584 
Q 2397 3584 2469 3576 
Q 2541 3569 2628 3553 
L 2631 2963 
z
" transform="scale(0.015625)"/>
      <path id="DejaVuSans-61" d="M 2194 1759 
Q 1497 1759 1228 1600 
Q 959 1441 959 1056 
Q 959 750 1161 570 
Q 1363 391 1709 391 
Q 2188 391 2477 730 
Q 2766 1069 2766 1631 
L 2766 1759 
L 2194 1759 
z
M 3341 1997 
L 3341 0 
L 2766 0 
L 2766 531 
Q 2569 213 2275 61 
Q 1981 -91 1556 -91 
Q 1019 -91 701 211 
Q 384 513 384 1019 
Q 384 1609 779 1909 
Q 1175 2209 1959 2209 
L 2766 2209 
L 2766 2266 
Q 2766 2663 2505 2880 
Q 2244 3097 1772 3097 
Q 1472 3097 1187 3025 
Q 903 2953 641 2809 
L 641 3341 
Q 956 3463 1253 3523 
Q 1550 3584 1831 3584 
Q 2591 3584 2966 3190 
Q 3341 2797 3341 1997 
z
" transform="scale(0.015625)"/>
      <path id="DejaVuSans-73" d="M 2834 3397 
L 2834 2853 
Q 2591 2978 2328 3040 
Q 2066 3103 1784 3103 
Q 1356 3103 1142 2972 
Q 928 2841 928 2578 
Q 928 2378 1081 2264 
Q 1234 2150 1697 2047 
L 1894 2003 
Q 2506 1872 2764 1633 
Q 3022 1394 3022 966 
Q 3022 478 2636 193 
Q 2250 -91 1575 -91 
Q 1294 -91 989 -36 
Q 684 19 347 128 
L 347 722 
Q 666 556 975 473 
Q 1284 391 1588 391 
Q 1994 391 2212 530 
Q 2431 669 2431 922 
Q 2431 1156 2273 1281 
Q 2116 1406 1581 1522 
L 1381 1569 
Q 847 1681 609 1914 
Q 372 2147 372 2553 
Q 372 3047 722 3315 
Q 1072 3584 1716 3584 
Q 2034 3584 2315 3537 
Q 2597 3491 2834 3397 
z
" transform="scale(0.015625)"/>
      <path id="DejaVuSans-20" transform="scale(0.015625)"/>
      <path id="DejaVuSans-6e" d="M 3513 2113 
L 3513 0 
L 2938 0 
L 2938 2094 
Q 2938 2591 2744 2837 
Q 2550 3084 2163 3084 
Q 1697 3084 1428 2787 
Q 1159 2491 1159 1978 
L 1159 0 
L 581 0 
L 581 3500 
L 1159 3500 
L 1159 2956 
Q 1366 3272 1645 3428 
Q 1925 3584 2291 3584 
Q 2894 3584 3203 3211 
Q 3513 2838 3513 2113 
z
" transform="scale(0.015625)"/>
      <path id="DejaVuSans-71" d="M 947 1747 
Q 947 1113 1208 752 
Q 1469 391 1925 391 
Q 2381 391 2643 752 
Q 2906 1113 2906 1747 
Q 2906 2381 2643 2742 
Q 2381 3103 1925 3103 
Q 1469 3103 1208 2742 
Q 947 2381 947 1747 
z
M 2906 525 
Q 2725 213 2448 61 
Q 2172 -91 1784 -91 
Q 1150 -91 751 415 
Q 353 922 353 1747 
Q 353 2572 751 3078 
Q 1150 3584 1784 3584 
Q 2172 3584 2448 3432 
Q 2725 3281 2906 2969 
L 2906 3500 
L 3481 3500 
L 3481 -1331 
L 2906 -1331 
L 2906 525 
z
" transform="scale(0.015625)"/>
      <path id="DejaVuSans-75" d="M 544 1381 
L 544 3500 
L 1119 3500 
L 1119 1403 
Q 1119 906 1312 657 
Q 1506 409 1894 409 
Q 2359 409 2629 706 
Q 2900 1003 2900 1516 
L 2900 3500 
L 3475 3500 
L 3475 0 
L 2900 0 
L 2900 538 
Q 2691 219 2414 64 
Q 2138 -91 1772 -91 
Q 1169 -91 856 284 
Q 544 659 544 1381 
z
M 1991 3584 
L 1991 3584 
z
" transform="scale(0.015625)"/>
      <path id="DejaVuSans-63" d="M 3122 3366 
L 3122 2828 
Q 2878 2963 2633 3030 
Q 2388 3097 2138 3097 
Q 1578 3097 1268 2742 
Q 959 2388 959 1747 
Q 959 1106 1268 751 
Q 1578 397 2138 397 
Q 2388 397 2633 464 
Q 2878 531 3122 666 
L 3122 134 
Q 2881 22 2623 -34 
Q 2366 -91 2075 -91 
Q 1284 -91 818 406 
Q 353 903 353 1747 
Q 353 2603 823 3093 
Q 1294 3584 2113 3584 
Q 2378 3584 2631 3529 
Q 2884 3475 3122 3366 
z
" transform="scale(0.015625)"/>
      <path id="DejaVuSans-62" d="M 3116 1747 
Q 3116 2381 2855 2742 
Q 2594 3103 2138 3103 
Q 1681 3103 1420 2742 
Q 1159 2381 1159 1747 
Q 1159 1113 1420 752 
Q 1681 391 2138 391 
Q 2594 391 2855 752 
Q 3116 1113 3116 1747 
z
M 1159 2969 
Q 1341 3281 1617 3432 
Q 1894 3584 2278 3584 
Q 2916 3584 3314 3078 
Q 3713 2572 3713 1747 
Q 3713 922 3314 415 
Q 2916 -91 2278 -91 
Q 1894 -91 1617 61 
Q 1341 213 1159 525 
L 1159 0 
L 581 0 
L 581 4863 
L 1159 4863 
L 1159 2969 
z
" transform="scale(0.015625)"/>
      <path id="DejaVuSans-64" d="M 2906 2969 
L 2906 4863 
L 3481 4863 
L 3481 0 
L 2906 0 
L 2906 525 
Q 2725 213 2448 61 
Q 2172 -91 1784 -91 
Q 1150 -91 751 415 
Q 353 922 353 1747 
Q 353 2572 751 3078 
Q 1150 3584 1784 3584 
Q 2172 3584 2448 3432 
Q 2725 3281 2906 2969 
z
M 947 1747 
Q 947 1113 1208 752 
Q 1469 391 1925 391 
Q 2381 391 2643 752 
Q 2906 1113 2906 1747 
Q 2906 2381 2643 2742 
Q 2381 3103 1925 3103 
Q 1469 3103 1208 2742 
Q 947 2381 947 1747 
z
" transform="scale(0.015625)"/>
     </defs>
     <use xlink:href="#DejaVuSans-52"/>
     <use xlink:href="#DejaVuSans-65" x="64.982422"/>
     <use xlink:href="#DejaVuSans-74" x="126.505859"/>
     <use xlink:href="#DejaVuSans-72" x="165.714844"/>
     <use xlink:href="#DejaVuSans-61" x="206.828125"/>
     <use xlink:href="#DejaVuSans-73" x="268.107422"/>
     <use xlink:href="#DejaVuSans-6f" x="320.207031"/>
     <use xlink:href="#DejaVuSans-20" x="381.388672"/>
     <use xlink:href="#DejaVuSans-65" x="413.175781"/>
     <use xlink:href="#DejaVuSans-6e" x="474.699219"/>
     <use xlink:href="#DejaVuSans-20" x="538.078125"/>
     <use xlink:href="#DejaVuSans-70" x="569.865234"/>
     <use xlink:href="#DejaVuSans-61" x="633.341797"/>
     <use xlink:href="#DejaVuSans-71" x="694.621094"/>
     <use xlink:href="#DejaVuSans-75" x="758.097656"/>
     <use xlink:href="#DejaVuSans-65" x="821.476562"/>
     <use xlink:href="#DejaVuSans-74" x="883"/>
     <use xlink:href="#DejaVuSans-65" x="922.208984"/>
     <use xlink:href="#DejaVuSans-73" x="983.732422"/>
     <use xlink:href="#DejaVuSans-20" x="1035.832031"/>
     <use xlink:href="#DejaVuSans-72" x="1067.619141"/>
     <use xlink:href="#DejaVuSans-65" x="1106.482422"/>
     <use xlink:href="#DejaVuSans-63" x="1168.005859"/>
     <use xlink:href="#DejaVuSans-69" x="1222.986328"/>
     <use xlink:href="#DejaVuSans-62" x="1250.769531"/>
     <use xlink:href="#DejaVuSans-69" x="1314.246094"/>
     <use xlink:href="#DejaVuSans-64" x="1342.029297"/>
     <use xlink:href="#DejaVuSans-6f" x="1405.505859"/>
     <use xlink:href="#DejaVuSans-73" x="1466.6875"/>
    </g>
   </g>
  </g>
 </g>
 <defs>
  <clipPath id="pd9d0afdd80">
   <rect x="38.01875" y="25.8" width="378.053773" height="220.9"/>
  </clipPath>
 </defs>
</svg>
