<?xml version="1.0" encoding="utf-8" standalone="no"?>
<!DOCTYPE svg PUBLIC "-//W3C//DTD SVG 1.1//EN"
  "http://www.w3.org/Graphics/SVG/1.1/DTD/svg11.dtd">
<svg xmlns:xlink="http://www.w3.org/1999/xlink" width="432pt" height="288pt" viewBox="0 0 432 288" xmlns="http://www.w3.org/2000/svg" version="1.1">
 <metadata>
  <rdf:RDF xmlns:dc="http://purl.org/dc/elements/1.1/" xmlns:cc="http://creativecommons.org/ns#" xmlns:rdf="http://www.w3.org/1999/02/22-rdf-syntax-ns#">
   <cc:Work>
    <dc:type rdf:resource="http://purl.org/dc/dcmitype/StillImage"/>
    <dc:date>2022-05-22T20:32:05.496805</dc:date>
    <dc:format>image/svg+xml</dc:format>
    <dc:creator>
     <cc:Agent>
      <dc:title>omnetpp.scave 6.0.0; Matplotlib 3.5.1 w/ backend GTK3Agg; Pandas 1.4.2; Python 3.8.10; Linux-5.4.0-109-generic-x86_64-with-glibc2.29</dc:title>
     </cc:Agent>
    </dc:creator>
   </cc:Work>
  </rdf:RDF>
 </metadata>
 <defs>
  <style type="text/css">*{stroke-linejoin: round; stroke-linecap: butt}</style>
 </defs>
 <g id="figure_1">
  <g id="patch_1">
   <path d="M 0 288 
L 432 288 
L 432 0 
L 0 0 
z
" style="fill: #ffffff"/>
  </g>
  <g id="axes_1">
   <g id="patch_2">
    <path d="M 37.01875 260.45 
L 416.142157 260.45 
L 416.142157 25.8 
L 37.01875 25.8 
z
" style="fill: #ffffff"/>
   </g>
   <g id="matplotlib.axis_1">
    <g id="xtick_1">
     <g id="line2d_1">
      <path d="M 37.01875 260.45 
L 37.01875 25.8 
" clip-path="url(#p88969e6830)" style="fill: none; stroke: #b0b0b0; stroke-width: 0.8; stroke-linecap: square"/>
     </g>
     <g id="line2d_2">
      <defs>
       <path id="m2598d03a6c" d="M 0 0 
L 0 3.5 
" style="stroke: #000000; stroke-width: 0.8"/>
      </defs>
      <g>
       <use xlink:href="#m2598d03a6c" x="37.01875" y="260.45" style="stroke: #000000; stroke-width: 0.8"/>
      </g>
     </g>
     <g id="text_1">
      <!-- 0 -->
      <g transform="translate(33.8375 275.048437)scale(0.1 -0.1)">
       <defs>
        <path id="DejaVuSans-30" d="M 2034 4250 
Q 1547 4250 1301 3770 
Q 1056 3291 1056 2328 
Q 1056 1369 1301 889 
Q 1547 409 2034 409 
Q 2525 409 2770 889 
Q 3016 1369 3016 2328 
Q 3016 3291 2770 3770 
Q 2525 4250 2034 4250 
z
M 2034 4750 
Q 2819 4750 3233 4129 
Q 3647 3509 3647 2328 
Q 3647 1150 3233 529 
Q 2819 -91 2034 -91 
Q 1250 -91 836 529 
Q 422 1150 422 2328 
Q 422 3509 836 4129 
Q 1250 4750 2034 4750 
z
" transform="scale(0.015625)"/>
       </defs>
       <use xlink:href="#DejaVuSans-30"/>
      </g>
     </g>
    </g>
    <g id="xtick_2">
     <g id="line2d_3">
      <path d="M 83.847862 260.45 
L 83.847862 25.8 
" clip-path="url(#p88969e6830)" style="fill: none; stroke: #b0b0b0; stroke-width: 0.8; stroke-linecap: square"/>
     </g>
     <g id="line2d_4">
      <g>
       <use xlink:href="#m2598d03a6c" x="83.847862" y="260.45" style="stroke: #000000; stroke-width: 0.8"/>
      </g>
     </g>
     <g id="text_2">
      <!-- 25 -->
      <g transform="translate(77.485362 275.048437)scale(0.1 -0.1)">
       <defs>
        <path id="DejaVuSans-32" d="M 1228 531 
L 3431 531 
L 3431 0 
L 469 0 
L 469 531 
Q 828 903 1448 1529 
Q 2069 2156 2228 2338 
Q 2531 2678 2651 2914 
Q 2772 3150 2772 3378 
Q 2772 3750 2511 3984 
Q 2250 4219 1831 4219 
Q 1534 4219 1204 4116 
Q 875 4013 500 3803 
L 500 4441 
Q 881 4594 1212 4672 
Q 1544 4750 1819 4750 
Q 2544 4750 2975 4387 
Q 3406 4025 3406 3419 
Q 3406 3131 3298 2873 
Q 3191 2616 2906 2266 
Q 2828 2175 2409 1742 
Q 1991 1309 1228 531 
z
" transform="scale(0.015625)"/>
        <path id="DejaVuSans-35" d="M 691 4666 
L 3169 4666 
L 3169 4134 
L 1269 4134 
L 1269 2991 
Q 1406 3038 1543 3061 
Q 1681 3084 1819 3084 
Q 2600 3084 3056 2656 
Q 3513 2228 3513 1497 
Q 3513 744 3044 326 
Q 2575 -91 1722 -91 
Q 1428 -91 1123 -41 
Q 819 9 494 109 
L 494 744 
Q 775 591 1075 516 
Q 1375 441 1709 441 
Q 2250 441 2565 725 
Q 2881 1009 2881 1497 
Q 2881 1984 2565 2268 
Q 2250 2553 1709 2553 
Q 1456 2553 1204 2497 
Q 953 2441 691 2322 
L 691 4666 
z
" transform="scale(0.015625)"/>
       </defs>
       <use xlink:href="#DejaVuSans-32"/>
       <use xlink:href="#DejaVuSans-35" x="63.623047"/>
      </g>
     </g>
    </g>
    <g id="xtick_3">
     <g id="line2d_5">
      <path d="M 130.676973 260.45 
L 130.676973 25.8 
" clip-path="url(#p88969e6830)" style="fill: none; stroke: #b0b0b0; stroke-width: 0.8; stroke-linecap: square"/>
     </g>
     <g id="line2d_6">
      <g>
       <use xlink:href="#m2598d03a6c" x="130.676973" y="260.45" style="stroke: #000000; stroke-width: 0.8"/>
      </g>
     </g>
     <g id="text_3">
      <!-- 50 -->
      <g transform="translate(124.314473 275.048437)scale(0.1 -0.1)">
       <use xlink:href="#DejaVuSans-35"/>
       <use xlink:href="#DejaVuSans-30" x="63.623047"/>
      </g>
     </g>
    </g>
    <g id="xtick_4">
     <g id="line2d_7">
      <path d="M 177.506085 260.45 
L 177.506085 25.8 
" clip-path="url(#p88969e6830)" style="fill: none; stroke: #b0b0b0; stroke-width: 0.8; stroke-linecap: square"/>
     </g>
     <g id="line2d_8">
      <g>
       <use xlink:href="#m2598d03a6c" x="177.506085" y="260.45" style="stroke: #000000; stroke-width: 0.8"/>
      </g>
     </g>
     <g id="text_4">
      <!-- 75 -->
      <g transform="translate(171.143585 275.048437)scale(0.1 -0.1)">
       <defs>
        <path id="DejaVuSans-37" d="M 525 4666 
L 3525 4666 
L 3525 4397 
L 1831 0 
L 1172 0 
L 2766 4134 
L 525 4134 
L 525 4666 
z
" transform="scale(0.015625)"/>
       </defs>
       <use xlink:href="#DejaVuSans-37"/>
       <use xlink:href="#DejaVuSans-35" x="63.623047"/>
      </g>
     </g>
    </g>
    <g id="xtick_5">
     <g id="line2d_9">
      <path d="M 224.335196 260.45 
L 224.335196 25.8 
" clip-path="url(#p88969e6830)" style="fill: none; stroke: #b0b0b0; stroke-width: 0.8; stroke-linecap: square"/>
     </g>
     <g id="line2d_10">
      <g>
       <use xlink:href="#m2598d03a6c" x="224.335196" y="260.45" style="stroke: #000000; stroke-width: 0.8"/>
      </g>
     </g>
     <g id="text_5">
      <!-- 100 -->
      <g transform="translate(214.791446 275.048437)scale(0.1 -0.1)">
       <defs>
        <path id="DejaVuSans-31" d="M 794 531 
L 1825 531 
L 1825 4091 
L 703 3866 
L 703 4441 
L 1819 4666 
L 2450 4666 
L 2450 531 
L 3481 531 
L 3481 0 
L 794 0 
L 794 531 
z
" transform="scale(0.015625)"/>
       </defs>
       <use xlink:href="#DejaVuSans-31"/>
       <use xlink:href="#DejaVuSans-30" x="63.623047"/>
       <use xlink:href="#DejaVuSans-30" x="127.246094"/>
      </g>
     </g>
    </g>
    <g id="xtick_6">
     <g id="line2d_11">
      <path d="M 271.164308 260.45 
L 271.164308 25.8 
" clip-path="url(#p88969e6830)" style="fill: none; stroke: #b0b0b0; stroke-width: 0.8; stroke-linecap: square"/>
     </g>
     <g id="line2d_12">
      <g>
       <use xlink:href="#m2598d03a6c" x="271.164308" y="260.45" style="stroke: #000000; stroke-width: 0.8"/>
      </g>
     </g>
     <g id="text_6">
      <!-- 125 -->
      <g transform="translate(261.620558 275.048437)scale(0.1 -0.1)">
       <use xlink:href="#DejaVuSans-31"/>
       <use xlink:href="#DejaVuSans-32" x="63.623047"/>
       <use xlink:href="#DejaVuSans-35" x="127.246094"/>
      </g>
     </g>
    </g>
    <g id="xtick_7">
     <g id="line2d_13">
      <path d="M 317.99342 260.45 
L 317.99342 25.8 
" clip-path="url(#p88969e6830)" style="fill: none; stroke: #b0b0b0; stroke-width: 0.8; stroke-linecap: square"/>
     </g>
     <g id="line2d_14">
      <g>
       <use xlink:href="#m2598d03a6c" x="317.99342" y="260.45" style="stroke: #000000; stroke-width: 0.8"/>
      </g>
     </g>
     <g id="text_7">
      <!-- 150 -->
      <g transform="translate(308.44967 275.048437)scale(0.1 -0.1)">
       <use xlink:href="#DejaVuSans-31"/>
       <use xlink:href="#DejaVuSans-35" x="63.623047"/>
       <use xlink:href="#DejaVuSans-30" x="127.246094"/>
      </g>
     </g>
    </g>
    <g id="xtick_8">
     <g id="line2d_15">
      <path d="M 364.822531 260.45 
L 364.822531 25.8 
" clip-path="url(#p88969e6830)" style="fill: none; stroke: #b0b0b0; stroke-width: 0.8; stroke-linecap: square"/>
     </g>
     <g id="line2d_16">
      <g>
       <use xlink:href="#m2598d03a6c" x="364.822531" y="260.45" style="stroke: #000000; stroke-width: 0.8"/>
      </g>
     </g>
     <g id="text_8">
      <!-- 175 -->
      <g transform="translate(355.278781 275.048437)scale(0.1 -0.1)">
       <use xlink:href="#DejaVuSans-31"/>
       <use xlink:href="#DejaVuSans-37" x="63.623047"/>
       <use xlink:href="#DejaVuSans-35" x="127.246094"/>
      </g>
     </g>
    </g>
    <g id="xtick_9">
     <g id="line2d_17">
      <path d="M 411.651643 260.45 
L 411.651643 25.8 
" clip-path="url(#p88969e6830)" style="fill: none; stroke: #b0b0b0; stroke-width: 0.8; stroke-linecap: square"/>
     </g>
     <g id="line2d_18">
      <g>
       <use xlink:href="#m2598d03a6c" x="411.651643" y="260.45" style="stroke: #000000; stroke-width: 0.8"/>
      </g>
     </g>
     <g id="text_9">
      <!-- 200 -->
      <g transform="translate(402.107893 275.048437)scale(0.1 -0.1)">
       <use xlink:href="#DejaVuSans-32"/>
       <use xlink:href="#DejaVuSans-30" x="63.623047"/>
       <use xlink:href="#DejaVuSans-30" x="127.246094"/>
      </g>
     </g>
    </g>
   </g>
   <g id="matplotlib.axis_2">
    <g id="ytick_1">
     <g id="line2d_19">
      <path d="M 37.01875 260.45 
L 416.142157 260.45 
" clip-path="url(#p88969e6830)" style="fill: none; stroke: #b0b0b0; stroke-width: 0.8; stroke-linecap: square"/>
     </g>
     <g id="line2d_20">
      <defs>
       <path id="m2e5d96f748" d="M 0 0 
L -3.5 0 
" style="stroke: #000000; stroke-width: 0.8"/>
      </defs>
      <g>
       <use xlink:href="#m2e5d96f748" x="37.01875" y="260.45" style="stroke: #000000; stroke-width: 0.8"/>
      </g>
     </g>
     <g id="text_10">
      <!-- 0 -->
      <g transform="translate(23.65625 264.249219)scale(0.1 -0.1)">
       <use xlink:href="#DejaVuSans-30"/>
      </g>
     </g>
    </g>
    <g id="ytick_2">
     <g id="line2d_21">
      <path d="M 37.01875 224.902194 
L 416.142157 224.902194 
" clip-path="url(#p88969e6830)" style="fill: none; stroke: #b0b0b0; stroke-width: 0.8; stroke-linecap: square"/>
     </g>
     <g id="line2d_22">
      <g>
       <use xlink:href="#m2e5d96f748" x="37.01875" y="224.902194" style="stroke: #000000; stroke-width: 0.8"/>
      </g>
     </g>
     <g id="text_11">
      <!-- 20 -->
      <g transform="translate(17.29375 228.701413)scale(0.1 -0.1)">
       <use xlink:href="#DejaVuSans-32"/>
       <use xlink:href="#DejaVuSans-30" x="63.623047"/>
      </g>
     </g>
    </g>
    <g id="ytick_3">
     <g id="line2d_23">
      <path d="M 37.01875 189.354388 
L 416.142157 189.354388 
" clip-path="url(#p88969e6830)" style="fill: none; stroke: #b0b0b0; stroke-width: 0.8; stroke-linecap: square"/>
     </g>
     <g id="line2d_24">
      <g>
       <use xlink:href="#m2e5d96f748" x="37.01875" y="189.354388" style="stroke: #000000; stroke-width: 0.8"/>
      </g>
     </g>
     <g id="text_12">
      <!-- 40 -->
      <g transform="translate(17.29375 193.153607)scale(0.1 -0.1)">
       <defs>
        <path id="DejaVuSans-34" d="M 2419 4116 
L 825 1625 
L 2419 1625 
L 2419 4116 
z
M 2253 4666 
L 3047 4666 
L 3047 1625 
L 3713 1625 
L 3713 1100 
L 3047 1100 
L 3047 0 
L 2419 0 
L 2419 1100 
L 313 1100 
L 313 1709 
L 2253 4666 
z
" transform="scale(0.015625)"/>
       </defs>
       <use xlink:href="#DejaVuSans-34"/>
       <use xlink:href="#DejaVuSans-30" x="63.623047"/>
      </g>
     </g>
    </g>
    <g id="ytick_4">
     <g id="line2d_25">
      <path d="M 37.01875 153.806582 
L 416.142157 153.806582 
" clip-path="url(#p88969e6830)" style="fill: none; stroke: #b0b0b0; stroke-width: 0.8; stroke-linecap: square"/>
     </g>
     <g id="line2d_26">
      <g>
       <use xlink:href="#m2e5d96f748" x="37.01875" y="153.806582" style="stroke: #000000; stroke-width: 0.8"/>
      </g>
     </g>
     <g id="text_13">
      <!-- 60 -->
      <g transform="translate(17.29375 157.6058)scale(0.1 -0.1)">
       <defs>
        <path id="DejaVuSans-36" d="M 2113 2584 
Q 1688 2584 1439 2293 
Q 1191 2003 1191 1497 
Q 1191 994 1439 701 
Q 1688 409 2113 409 
Q 2538 409 2786 701 
Q 3034 994 3034 1497 
Q 3034 2003 2786 2293 
Q 2538 2584 2113 2584 
z
M 3366 4563 
L 3366 3988 
Q 3128 4100 2886 4159 
Q 2644 4219 2406 4219 
Q 1781 4219 1451 3797 
Q 1122 3375 1075 2522 
Q 1259 2794 1537 2939 
Q 1816 3084 2150 3084 
Q 2853 3084 3261 2657 
Q 3669 2231 3669 1497 
Q 3669 778 3244 343 
Q 2819 -91 2113 -91 
Q 1303 -91 875 529 
Q 447 1150 447 2328 
Q 447 3434 972 4092 
Q 1497 4750 2381 4750 
Q 2619 4750 2861 4703 
Q 3103 4656 3366 4563 
z
" transform="scale(0.015625)"/>
       </defs>
       <use xlink:href="#DejaVuSans-36"/>
       <use xlink:href="#DejaVuSans-30" x="63.623047"/>
      </g>
     </g>
    </g>
    <g id="ytick_5">
     <g id="line2d_27">
      <path d="M 37.01875 118.258776 
L 416.142157 118.258776 
" clip-path="url(#p88969e6830)" style="fill: none; stroke: #b0b0b0; stroke-width: 0.8; stroke-linecap: square"/>
     </g>
     <g id="line2d_28">
      <g>
       <use xlink:href="#m2e5d96f748" x="37.01875" y="118.258776" style="stroke: #000000; stroke-width: 0.8"/>
      </g>
     </g>
     <g id="text_14">
      <!-- 80 -->
      <g transform="translate(17.29375 122.057994)scale(0.1 -0.1)">
       <defs>
        <path id="DejaVuSans-38" d="M 2034 2216 
Q 1584 2216 1326 1975 
Q 1069 1734 1069 1313 
Q 1069 891 1326 650 
Q 1584 409 2034 409 
Q 2484 409 2743 651 
Q 3003 894 3003 1313 
Q 3003 1734 2745 1975 
Q 2488 2216 2034 2216 
z
M 1403 2484 
Q 997 2584 770 2862 
Q 544 3141 544 3541 
Q 544 4100 942 4425 
Q 1341 4750 2034 4750 
Q 2731 4750 3128 4425 
Q 3525 4100 3525 3541 
Q 3525 3141 3298 2862 
Q 3072 2584 2669 2484 
Q 3125 2378 3379 2068 
Q 3634 1759 3634 1313 
Q 3634 634 3220 271 
Q 2806 -91 2034 -91 
Q 1263 -91 848 271 
Q 434 634 434 1313 
Q 434 1759 690 2068 
Q 947 2378 1403 2484 
z
M 1172 3481 
Q 1172 3119 1398 2916 
Q 1625 2713 2034 2713 
Q 2441 2713 2670 2916 
Q 2900 3119 2900 3481 
Q 2900 3844 2670 4047 
Q 2441 4250 2034 4250 
Q 1625 4250 1398 4047 
Q 1172 3844 1172 3481 
z
" transform="scale(0.015625)"/>
       </defs>
       <use xlink:href="#DejaVuSans-38"/>
       <use xlink:href="#DejaVuSans-30" x="63.623047"/>
      </g>
     </g>
    </g>
    <g id="ytick_6">
     <g id="line2d_29">
      <path d="M 37.01875 82.71097 
L 416.142157 82.71097 
" clip-path="url(#p88969e6830)" style="fill: none; stroke: #b0b0b0; stroke-width: 0.8; stroke-linecap: square"/>
     </g>
     <g id="line2d_30">
      <g>
       <use xlink:href="#m2e5d96f748" x="37.01875" y="82.71097" style="stroke: #000000; stroke-width: 0.8"/>
      </g>
     </g>
     <g id="text_15">
      <!-- 100 -->
      <g transform="translate(10.93125 86.510188)scale(0.1 -0.1)">
       <use xlink:href="#DejaVuSans-31"/>
       <use xlink:href="#DejaVuSans-30" x="63.623047"/>
       <use xlink:href="#DejaVuSans-30" x="127.246094"/>
      </g>
     </g>
    </g>
    <g id="ytick_7">
     <g id="line2d_31">
      <path d="M 37.01875 47.163163 
L 416.142157 47.163163 
" clip-path="url(#p88969e6830)" style="fill: none; stroke: #b0b0b0; stroke-width: 0.8; stroke-linecap: square"/>
     </g>
     <g id="line2d_32">
      <g>
       <use xlink:href="#m2e5d96f748" x="37.01875" y="47.163163" style="stroke: #000000; stroke-width: 0.8"/>
      </g>
     </g>
     <g id="text_16">
      <!-- 120 -->
      <g transform="translate(10.93125 50.962382)scale(0.1 -0.1)">
       <use xlink:href="#DejaVuSans-31"/>
       <use xlink:href="#DejaVuSans-32" x="63.623047"/>
       <use xlink:href="#DejaVuSans-30" x="127.246094"/>
      </g>
     </g>
    </g>
   </g>
   <g id="line2d_33">
    <path d="M 37.9643 259.694254 
L 38.713566 259.366235 
L 39.088199 259.341281 
L 39.462831 259.149896 
L 39.837464 259.141283 
L 40.212097 258.925722 
L 40.58673 258.904209 
L 41.335996 258.464848 
L 42.085262 258.024639 
L 42.834528 257.478745 
L 43.20916 257.518474 
L 43.583793 257.173374 
L 43.958426 257.407085 
L 45.082325 256.598622 
L 45.831591 256.463737 
L 47.330122 255.529694 
L 47.704755 255.636027 
L 48.079388 255.601967 
L 49.203287 254.637986 
L 49.57792 254.468176 
L 50.327185 253.842477 
L 50.701818 253.804705 
L 51.076451 254.009135 
L 51.451084 253.921294 
L 51.825717 253.592695 
L 52.574983 253.607129 
L 52.949616 253.935097 
L 53.324249 253.693675 
L 54.073514 253.554904 
L 54.82278 253.084588 
L 55.572046 252.84508 
L 55.946679 252.511975 
L 57.070577 252.008792 
L 57.819843 251.462345 
L 58.194476 251.621318 
L 58.569109 251.518472 
L 59.318375 250.958554 
L 61.191539 249.746196 
L 61.566172 249.628051 
L 63.064704 248.532955 
L 63.81397 247.895004 
L 64.188602 247.7104 
L 64.937868 247.196581 
L 65.687134 246.700865 
L 66.061767 246.432222 
L 66.811033 246.646723 
L 67.560298 246.245545 
L 68.684197 245.529176 
L 69.05883 245.587182 
L 69.433463 245.444299 
L 70.182729 244.762967 
L 70.557362 245.029614 
L 71.68126 244.544092 
L 73.179792 243.300819 
L 73.554425 243.192228 
L 75.052956 242.154274 
L 75.427589 241.948884 
L 76.176855 241.347506 
L 76.551488 241.17081 
L 76.926121 241.60707 
L 77.300754 241.819103 
L 77.675387 241.482756 
L 78.050019 241.315295 
L 79.173918 240.500936 
L 79.548551 241.098157 
L 80.297817 240.730355 
L 81.421715 239.922546 
L 83.29488 238.587113 
L 83.669513 238.252422 
L 84.418779 237.930935 
L 85.168044 237.314228 
L 85.542677 237.226538 
L 85.91731 236.909964 
L 86.291943 237.085426 
L 87.041209 236.649305 
L 87.415842 236.599597 
L 88.165108 235.909225 
L 88.53974 235.72706 
L 88.914373 235.695035 
L 89.289006 235.538592 
L 89.663639 235.201071 
L 90.412905 235.791631 
L 90.787538 235.81035 
L 91.536804 235.338439 
L 91.911436 235.651602 
L 92.286069 235.306313 
L 93.409968 234.750465 
L 94.533867 233.798325 
L 94.9085 233.501929 
L 95.283133 233.838135 
L 96.407031 232.936048 
L 97.905563 231.928553 
L 98.280196 231.950635 
L 98.654829 231.690227 
L 99.029461 231.779792 
L 99.778727 231.124058 
L 100.527993 230.770719 
L 100.902626 230.563848 
L 101.277259 230.564424 
L 102.026525 230.034701 
L 102.401157 229.810885 
L 102.77579 229.897192 
L 103.150423 229.559248 
L 103.525056 229.655281 
L 103.899689 229.452285 
L 104.274322 229.112229 
L 104.648955 229.227627 
L 106.147486 228.129048 
L 106.522119 228.101913 
L 106.896752 227.771555 
L 107.646018 227.469703 
L 108.020651 227.441493 
L 109.893815 226.062567 
L 110.268448 225.850133 
L 111.017714 225.174825 
L 111.392347 225.133188 
L 113.640144 223.518467 
L 114.38941 223.259904 
L 114.764043 222.964919 
L 115.138676 223.191562 
L 116.262575 222.527698 
L 117.386473 221.862834 
L 117.761106 221.90971 
L 118.885005 221.220136 
L 119.259638 221.259506 
L 119.634271 221.446538 
L 120.383536 221.043467 
L 120.758169 220.793989 
L 121.132802 220.771498 
L 121.507435 221.099072 
L 121.882068 220.957278 
L 122.631334 220.331023 
L 123.380599 220.177766 
L 124.504498 219.49543 
L 124.879131 219.518447 
L 126.00303 218.724609 
L 126.377663 218.748573 
L 126.752296 218.991075 
L 128.250827 218.357789 
L 129.000093 217.905917 
L 129.374726 218.105957 
L 130.123992 217.625147 
L 131.24789 216.917419 
L 131.997156 216.48667 
L 132.746422 215.892045 
L 133.121055 215.600362 
L 133.87032 215.305025 
L 135.368852 214.26139 
L 135.743485 214.151721 
L 136.118118 213.89577 
L 136.492751 213.914868 
L 138.365915 212.412823 
L 139.115181 211.938394 
L 140.613713 211.005237 
L 140.988345 211.266964 
L 141.737611 210.812482 
L 142.486877 210.246328 
L 142.86151 210.294075 
L 144.360041 209.100601 
L 144.734674 209.480574 
L 145.109307 209.52055 
L 145.48394 209.218672 
L 145.858573 209.154845 
L 147.357105 208.210479 
L 147.731738 207.873643 
L 148.10637 207.965939 
L 148.481003 207.687661 
L 149.230269 207.311934 
L 149.604902 208.158929 
L 149.979535 208.130444 
L 150.354168 207.803736 
L 151.103434 207.870581 
L 152.227332 206.968649 
L 152.601965 206.783084 
L 153.351231 206.128066 
L 154.100497 206.020312 
L 154.849762 205.957874 
L 156.722927 204.550062 
L 157.09756 204.207323 
L 157.472193 204.571661 
L 157.846826 204.428659 
L 158.970724 203.649527 
L 159.345357 203.521615 
L 159.71999 203.175363 
L 160.094623 203.177634 
L 160.469256 202.903011 
L 160.843889 203.206938 
L 161.218522 202.85444 
L 161.593155 202.843167 
L 162.34242 202.180932 
L 162.717053 202.082783 
L 163.091686 201.806622 
L 163.466319 201.963852 
L 164.215585 201.732007 
L 165.339483 200.903572 
L 166.088749 200.322069 
L 167.212648 199.404038 
L 167.961914 198.729734 
L 168.336547 198.654801 
L 169.085812 198.099563 
L 169.460445 198.113077 
L 169.835078 197.832899 
L 170.584344 198.102487 
L 172.457508 197.147511 
L 173.206774 196.591749 
L 173.581407 196.408941 
L 174.330673 195.860191 
L 174.705306 195.718172 
L 175.079939 195.41098 
L 175.454572 195.922714 
L 175.829204 196.050926 
L 176.57847 195.564418 
L 178.826268 194.763115 
L 179.200901 195.000919 
L 182.197964 192.666938 
L 182.572597 192.824962 
L 184.071128 192.018782 
L 184.445761 192.287964 
L 184.820394 191.978345 
L 185.195027 191.825691 
L 187.817457 189.712943 
L 188.19209 189.735812 
L 188.566723 189.592174 
L 188.941356 189.90263 
L 190.81452 188.559063 
L 191.189153 188.546329 
L 191.563786 188.203225 
L 192.313052 187.936522 
L 193.811583 187.075428 
L 194.186216 186.885969 
L 194.560849 186.93393 
L 194.935482 186.801373 
L 195.310115 187.270542 
L 196.808646 186.306336 
L 197.183279 186.371907 
L 199.056444 184.977509 
L 199.431077 185.001249 
L 199.80571 184.714322 
L 200.180343 184.776148 
L 200.929608 184.33562 
L 204.301304 182.47599 
L 204.675937 182.21901 
L 205.425203 182.177327 
L 205.799836 181.858347 
L 206.174469 181.705324 
L 206.549102 181.892516 
L 208.047633 180.946124 
L 208.422266 180.86697 
L 208.796899 181.034841 
L 209.171532 180.725689 
L 209.546165 180.603494 
L 209.920798 180.625311 
L 211.044696 179.720496 
L 211.419329 179.926157 
L 212.168595 179.458422 
L 212.543228 179.107565 
L 212.917861 178.973079 
L 214.04176 178.075894 
L 214.416392 177.953427 
L 217.038823 176.138355 
L 218.162721 175.963601 
L 218.537354 175.630346 
L 219.28662 175.24856 
L 220.785152 174.167891 
L 221.159785 174.029077 
L 222.283683 173.310957 
L 222.658316 173.281677 
L 225.280746 171.150726 
L 225.655379 171.02283 
L 226.030012 171.168689 
L 226.404645 170.818707 
L 227.528544 170.499641 
L 227.903177 170.161434 
L 228.277809 170.221952 
L 229.027075 169.57006 
L 230.150974 169.126127 
L 230.525607 168.926742 
L 230.90024 168.579563 
L 231.274873 168.805024 
L 232.773404 167.595307 
L 233.148037 167.440837 
L 234.646569 166.196399 
L 235.021202 166.312384 
L 235.395834 165.958556 
L 235.770467 165.800085 
L 236.519733 165.680612 
L 236.894366 166.063813 
L 237.268999 165.76715 
L 238.018265 165.429192 
L 239.142163 164.537792 
L 239.891429 164.099376 
L 240.266062 164.418244 
L 241.389961 164.164642 
L 242.139227 163.570842 
L 242.513859 163.794602 
L 243.263125 163.238431 
L 243.637758 163.25814 
L 244.012391 163.432715 
L 244.387024 163.197709 
L 244.761657 163.346413 
L 247.384087 162.372417 
L 247.75872 162.07857 
L 248.507986 162.034408 
L 249.257251 161.532848 
L 249.631884 161.441177 
L 250.006517 161.088068 
L 250.38115 161.383054 
L 250.755783 161.103388 
L 251.130416 161.100322 
L 251.505049 160.773341 
L 251.879682 160.687328 
L 252.628948 161.435575 
L 253.00358 161.195769 
L 253.378213 161.089246 
L 254.876745 160.027466 
L 256.375276 158.906731 
L 256.749909 158.858143 
L 258.997707 157.111942 
L 259.37234 157.458113 
L 260.121605 156.858074 
L 260.496238 156.854855 
L 260.870871 156.649058 
L 261.245504 156.935029 
L 261.620137 156.654378 
L 261.99477 156.874768 
L 262.369403 156.795727 
L 262.744036 156.861559 
L 263.118669 156.600276 
L 263.493301 156.509172 
L 266.490365 154.391245 
L 266.864997 154.499057 
L 267.988896 153.537584 
L 268.363529 153.725074 
L 268.738162 153.599439 
L 269.862061 152.673056 
L 270.236693 152.579246 
L 270.985959 151.961101 
L 271.360592 151.986764 
L 272.484491 151.003023 
L 273.983022 150.325972 
L 274.732288 149.812582 
L 276.980086 149.052656 
L 278.478617 147.782456 
L 278.85325 147.58629 
L 279.602516 147.000488 
L 281.47568 145.677174 
L 282.974212 144.906897 
L 283.348845 144.891761 
L 284.472743 144.070516 
L 284.847376 144.026742 
L 285.596642 143.477859 
L 285.971275 143.398543 
L 286.720541 142.714046 
L 287.469807 142.40708 
L 287.844439 142.092734 
L 289.342971 141.743199 
L 291.965401 139.655013 
L 292.340034 139.695197 
L 294.213199 138.44258 
L 294.587832 138.547881 
L 294.962464 138.200515 
L 296.086363 137.763145 
L 296.835629 137.179097 
L 297.210262 136.953643 
L 297.584895 136.979077 
L 298.33416 136.45238 
L 299.083426 135.989738 
L 299.458059 136.20388 
L 299.832692 135.882403 
L 300.581958 135.470431 
L 300.956591 135.121352 
L 301.331224 135.037965 
L 303.953654 133.319342 
L 304.328287 133.150186 
L 306.576084 131.424292 
L 306.950717 131.62564 
L 308.074616 130.651625 
L 308.449249 130.712632 
L 309.198514 130.294905 
L 309.94778 129.70966 
L 310.697046 129.807673 
L 311.446312 129.221173 
L 312.57021 129.042711 
L 313.319476 128.439699 
L 313.694109 128.500818 
L 314.818008 127.855252 
L 315.567274 127.512337 
L 315.941906 127.227436 
L 316.691172 126.991651 
L 317.065805 126.641051 
L 318.564337 125.940104 
L 319.313602 125.261996 
L 319.688235 125.1894 
L 320.062868 124.899433 
L 320.437501 125.11241 
L 321.5614 124.326424 
L 321.936033 124.129844 
L 322.310666 124.320572 
L 322.685298 124.311681 
L 323.434564 123.854372 
L 323.809197 123.517121 
L 324.18383 123.700893 
L 324.933096 123.315101 
L 325.682362 123.263025 
L 326.056995 122.938036 
L 326.431627 123.008275 
L 326.80626 123.520785 
L 327.180893 123.465728 
L 328.304792 122.463584 
L 329.428691 121.842128 
L 329.803323 122.016629 
L 330.177956 121.672662 
L 330.552589 121.807851 
L 332.051121 120.873824 
L 332.800387 120.739888 
L 333.549652 120.10013 
L 333.924285 120.312308 
L 335.048184 119.450882 
L 336.921348 118.014509 
L 337.295981 117.990806 
L 338.045247 117.507603 
L 338.41988 117.622989 
L 338.794513 117.470183 
L 339.543779 116.944864 
L 339.918412 117.105881 
L 340.293044 116.768829 
L 340.667677 116.77528 
L 342.540842 115.219289 
L 343.66474 114.41747 
L 344.039373 114.387173 
L 345.163272 113.460847 
L 347.036437 112.249743 
L 348.909601 110.780381 
L 349.284234 110.686965 
L 351.157398 109.162431 
L 351.532031 109.517476 
L 352.281297 109.027657 
L 352.65593 109.322626 
L 353.030563 109.050494 
L 353.405196 109.519774 
L 354.529094 108.621113 
L 354.903727 108.297251 
L 355.27836 108.258314 
L 356.776892 107.611178 
L 357.151525 108.064025 
L 358.650056 107.074119 
L 359.024689 107.00634 
L 360.523221 105.911513 
L 361.272486 105.478793 
L 362.021752 104.996654 
L 362.396385 104.836012 
L 362.771018 104.945436 
L 363.145651 104.719419 
L 363.520284 104.705864 
L 365.393448 103.452088 
L 366.142714 103.266395 
L 366.517347 103.149136 
L 367.641246 102.362765 
L 368.015879 102.624156 
L 368.390511 102.582225 
L 368.765144 102.30695 
L 369.139777 102.411785 
L 371.387575 100.845069 
L 371.762207 100.981776 
L 372.13684 100.926183 
L 372.511473 100.62356 
L 372.886106 101.020454 
L 373.260739 100.750446 
L 373.635372 101.01223 
L 374.010005 100.86906 
L 374.759271 100.98051 
L 375.508536 100.355011 
L 375.883169 100.857963 
L 377.756334 99.366168 
L 378.130967 99.546567 
L 378.5056 99.585886 
L 379.254865 99.000973 
L 379.629498 98.853527 
L 380.378764 98.239732 
L 380.753397 98.326047 
L 381.12803 98.203756 
L 381.502663 97.869755 
L 381.877296 97.893697 
L 382.626561 97.41653 
L 383.75046 96.543443 
L 384.499726 95.985527 
L 385.248992 95.722697 
L 385.623624 95.415485 
L 385.998257 95.342142 
L 386.747523 94.789304 
L 387.871422 93.955877 
L 388.620688 93.955655 
L 389.744586 93.252882 
L 390.493852 92.810032 
L 390.868485 92.96243 
L 391.617751 92.470121 
L 391.992384 92.255985 
L 392.367017 92.259466 
L 392.741649 92.034311 
L 393.116282 92.179508 
L 393.490915 91.900264 
L 393.865548 91.79173 
L 394.240181 91.440682 
L 394.614814 91.298945 
L 394.989447 90.972109 
L 395.36408 91.228221 
L 395.738713 90.897874 
L 396.113345 91.463996 
L 397.237244 90.942608 
L 397.611877 90.600195 
L 398.735776 89.961577 
L 399.859674 89.12603 
L 400.234307 88.982236 
L 400.983573 88.380782 
L 401.358206 88.190004 
L 402.107472 87.583554 
L 402.482105 87.80134 
L 402.856738 87.847104 
L 403.23137 87.50499 
L 403.606003 87.760157 
L 404.355269 87.193364 
L 404.729902 87.529453 
L 406.228434 86.405871 
L 406.603066 86.453987 
L 407.352332 85.878976 
L 408.101598 85.46492 
L 408.476231 85.770526 
L 409.60013 84.925129 
L 409.974763 85.193348 
L 411.098661 84.273563 
L 411.473294 84.307271 
L 411.473294 84.307271 
" clip-path="url(#p88969e6830)" style="fill: none; stroke: #1f77b4; stroke-width: 1.5; stroke-linecap: square"/>
   </g>
   <g id="patch_3">
    <path d="M 37.01875 260.45 
L 37.01875 25.8 
" style="fill: none; stroke: #000000; stroke-width: 0.8; stroke-linejoin: miter; stroke-linecap: square"/>
   </g>
   <g id="patch_4">
    <path d="M 416.142157 260.45 
L 416.142157 25.8 
" style="fill: none; stroke: #000000; stroke-width: 0.8; stroke-linejoin: miter; stroke-linecap: square"/>
   </g>
   <g id="patch_5">
    <path d="M 37.01875 260.45 
L 416.142157 260.45 
" style="fill: none; stroke: #000000; stroke-width: 0.8; stroke-linejoin: miter; stroke-linecap: square"/>
   </g>
   <g id="patch_6">
    <path d="M 37.01875 25.8 
L 416.142157 25.8 
" style="fill: none; stroke: #000000; stroke-width: 0.8; stroke-linejoin: miter; stroke-linecap: square"/>
   </g>
   <g id="text_17">
    <!-- Resived_packet_delay -->
    <g transform="translate(160.662953 19.8)scale(0.12 -0.12)">
     <defs>
      <path id="DejaVuSans-52" d="M 2841 2188 
Q 3044 2119 3236 1894 
Q 3428 1669 3622 1275 
L 4263 0 
L 3584 0 
L 2988 1197 
Q 2756 1666 2539 1819 
Q 2322 1972 1947 1972 
L 1259 1972 
L 1259 0 
L 628 0 
L 628 4666 
L 2053 4666 
Q 2853 4666 3247 4331 
Q 3641 3997 3641 3322 
Q 3641 2881 3436 2590 
Q 3231 2300 2841 2188 
z
M 1259 4147 
L 1259 2491 
L 2053 2491 
Q 2509 2491 2742 2702 
Q 2975 2913 2975 3322 
Q 2975 3731 2742 3939 
Q 2509 4147 2053 4147 
L 1259 4147 
z
" transform="scale(0.015625)"/>
      <path id="DejaVuSans-65" d="M 3597 1894 
L 3597 1613 
L 953 1613 
Q 991 1019 1311 708 
Q 1631 397 2203 397 
Q 2534 397 2845 478 
Q 3156 559 3463 722 
L 3463 178 
Q 3153 47 2828 -22 
Q 2503 -91 2169 -91 
Q 1331 -91 842 396 
Q 353 884 353 1716 
Q 353 2575 817 3079 
Q 1281 3584 2069 3584 
Q 2775 3584 3186 3129 
Q 3597 2675 3597 1894 
z
M 3022 2063 
Q 3016 2534 2758 2815 
Q 2500 3097 2075 3097 
Q 1594 3097 1305 2825 
Q 1016 2553 972 2059 
L 3022 2063 
z
" transform="scale(0.015625)"/>
      <path id="DejaVuSans-73" d="M 2834 3397 
L 2834 2853 
Q 2591 2978 2328 3040 
Q 2066 3103 1784 3103 
Q 1356 3103 1142 2972 
Q 928 2841 928 2578 
Q 928 2378 1081 2264 
Q 1234 2150 1697 2047 
L 1894 2003 
Q 2506 1872 2764 1633 
Q 3022 1394 3022 966 
Q 3022 478 2636 193 
Q 2250 -91 1575 -91 
Q 1294 -91 989 -36 
Q 684 19 347 128 
L 347 722 
Q 666 556 975 473 
Q 1284 391 1588 391 
Q 1994 391 2212 530 
Q 2431 669 2431 922 
Q 2431 1156 2273 1281 
Q 2116 1406 1581 1522 
L 1381 1569 
Q 847 1681 609 1914 
Q 372 2147 372 2553 
Q 372 3047 722 3315 
Q 1072 3584 1716 3584 
Q 2034 3584 2315 3537 
Q 2597 3491 2834 3397 
z
" transform="scale(0.015625)"/>
      <path id="DejaVuSans-69" d="M 603 3500 
L 1178 3500 
L 1178 0 
L 603 0 
L 603 3500 
z
M 603 4863 
L 1178 4863 
L 1178 4134 
L 603 4134 
L 603 4863 
z
" transform="scale(0.015625)"/>
      <path id="DejaVuSans-76" d="M 191 3500 
L 800 3500 
L 1894 563 
L 2988 3500 
L 3597 3500 
L 2284 0 
L 1503 0 
L 191 3500 
z
" transform="scale(0.015625)"/>
      <path id="DejaVuSans-64" d="M 2906 2969 
L 2906 4863 
L 3481 4863 
L 3481 0 
L 2906 0 
L 2906 525 
Q 2725 213 2448 61 
Q 2172 -91 1784 -91 
Q 1150 -91 751 415 
Q 353 922 353 1747 
Q 353 2572 751 3078 
Q 1150 3584 1784 3584 
Q 2172 3584 2448 3432 
Q 2725 3281 2906 2969 
z
M 947 1747 
Q 947 1113 1208 752 
Q 1469 391 1925 391 
Q 2381 391 2643 752 
Q 2906 1113 2906 1747 
Q 2906 2381 2643 2742 
Q 2381 3103 1925 3103 
Q 1469 3103 1208 2742 
Q 947 2381 947 1747 
z
" transform="scale(0.015625)"/>
      <path id="DejaVuSans-5f" d="M 3263 -1063 
L 3263 -1509 
L -63 -1509 
L -63 -1063 
L 3263 -1063 
z
" transform="scale(0.015625)"/>
      <path id="DejaVuSans-70" d="M 1159 525 
L 1159 -1331 
L 581 -1331 
L 581 3500 
L 1159 3500 
L 1159 2969 
Q 1341 3281 1617 3432 
Q 1894 3584 2278 3584 
Q 2916 3584 3314 3078 
Q 3713 2572 3713 1747 
Q 3713 922 3314 415 
Q 2916 -91 2278 -91 
Q 1894 -91 1617 61 
Q 1341 213 1159 525 
z
M 3116 1747 
Q 3116 2381 2855 2742 
Q 2594 3103 2138 3103 
Q 1681 3103 1420 2742 
Q 1159 2381 1159 1747 
Q 1159 1113 1420 752 
Q 1681 391 2138 391 
Q 2594 391 2855 752 
Q 3116 1113 3116 1747 
z
" transform="scale(0.015625)"/>
      <path id="DejaVuSans-61" d="M 2194 1759 
Q 1497 1759 1228 1600 
Q 959 1441 959 1056 
Q 959 750 1161 570 
Q 1363 391 1709 391 
Q 2188 391 2477 730 
Q 2766 1069 2766 1631 
L 2766 1759 
L 2194 1759 
z
M 3341 1997 
L 3341 0 
L 2766 0 
L 2766 531 
Q 2569 213 2275 61 
Q 1981 -91 1556 -91 
Q 1019 -91 701 211 
Q 384 513 384 1019 
Q 384 1609 779 1909 
Q 1175 2209 1959 2209 
L 2766 2209 
L 2766 2266 
Q 2766 2663 2505 2880 
Q 2244 3097 1772 3097 
Q 1472 3097 1187 3025 
Q 903 2953 641 2809 
L 641 3341 
Q 956 3463 1253 3523 
Q 1550 3584 1831 3584 
Q 2591 3584 2966 3190 
Q 3341 2797 3341 1997 
z
" transform="scale(0.015625)"/>
      <path id="DejaVuSans-63" d="M 3122 3366 
L 3122 2828 
Q 2878 2963 2633 3030 
Q 2388 3097 2138 3097 
Q 1578 3097 1268 2742 
Q 959 2388 959 1747 
Q 959 1106 1268 751 
Q 1578 397 2138 397 
Q 2388 397 2633 464 
Q 2878 531 3122 666 
L 3122 134 
Q 2881 22 2623 -34 
Q 2366 -91 2075 -91 
Q 1284 -91 818 406 
Q 353 903 353 1747 
Q 353 2603 823 3093 
Q 1294 3584 2113 3584 
Q 2378 3584 2631 3529 
Q 2884 3475 3122 3366 
z
" transform="scale(0.015625)"/>
      <path id="DejaVuSans-6b" d="M 581 4863 
L 1159 4863 
L 1159 1991 
L 2875 3500 
L 3609 3500 
L 1753 1863 
L 3688 0 
L 2938 0 
L 1159 1709 
L 1159 0 
L 581 0 
L 581 4863 
z
" transform="scale(0.015625)"/>
      <path id="DejaVuSans-74" d="M 1172 4494 
L 1172 3500 
L 2356 3500 
L 2356 3053 
L 1172 3053 
L 1172 1153 
Q 1172 725 1289 603 
Q 1406 481 1766 481 
L 2356 481 
L 2356 0 
L 1766 0 
Q 1100 0 847 248 
Q 594 497 594 1153 
L 594 3053 
L 172 3053 
L 172 3500 
L 594 3500 
L 594 4494 
L 1172 4494 
z
" transform="scale(0.015625)"/>
      <path id="DejaVuSans-6c" d="M 603 4863 
L 1178 4863 
L 1178 0 
L 603 0 
L 603 4863 
z
" transform="scale(0.015625)"/>
      <path id="DejaVuSans-79" d="M 2059 -325 
Q 1816 -950 1584 -1140 
Q 1353 -1331 966 -1331 
L 506 -1331 
L 506 -850 
L 844 -850 
Q 1081 -850 1212 -737 
Q 1344 -625 1503 -206 
L 1606 56 
L 191 3500 
L 800 3500 
L 1894 763 
L 2988 3500 
L 3597 3500 
L 2059 -325 
z
" transform="scale(0.015625)"/>
     </defs>
     <use xlink:href="#DejaVuSans-52"/>
     <use xlink:href="#DejaVuSans-65" x="64.982422"/>
     <use xlink:href="#DejaVuSans-73" x="126.505859"/>
     <use xlink:href="#DejaVuSans-69" x="178.605469"/>
     <use xlink:href="#DejaVuSans-76" x="206.388672"/>
     <use xlink:href="#DejaVuSans-65" x="265.568359"/>
     <use xlink:href="#DejaVuSans-64" x="327.091797"/>
     <use xlink:href="#DejaVuSans-5f" x="390.568359"/>
     <use xlink:href="#DejaVuSans-70" x="440.568359"/>
     <use xlink:href="#DejaVuSans-61" x="504.044922"/>
     <use xlink:href="#DejaVuSans-63" x="565.324219"/>
     <use xlink:href="#DejaVuSans-6b" x="620.304688"/>
     <use xlink:href="#DejaVuSans-65" x="674.589844"/>
     <use xlink:href="#DejaVuSans-74" x="736.113281"/>
     <use xlink:href="#DejaVuSans-5f" x="775.322266"/>
     <use xlink:href="#DejaVuSans-64" x="825.322266"/>
     <use xlink:href="#DejaVuSans-65" x="888.798828"/>
     <use xlink:href="#DejaVuSans-6c" x="950.322266"/>
     <use xlink:href="#DejaVuSans-61" x="978.105469"/>
     <use xlink:href="#DejaVuSans-79" x="1039.384766"/>
    </g>
   </g>
   <g id="legend_1">
    <g id="patch_7">
     <path d="M 226.942157 48.478125 
L 409.142157 48.478125 
Q 411.142157 48.478125 411.142157 46.478125 
L 411.142157 32.8 
Q 411.142157 30.8 409.142157 30.8 
L 226.942157 30.8 
Q 224.942157 30.8 224.942157 32.8 
L 224.942157 46.478125 
Q 224.942157 48.478125 226.942157 48.478125 
z
" style="fill: #ffffff; opacity: 0.8; stroke: #cccccc; stroke-linejoin: miter"/>
    </g>
    <g id="line2d_34">
     <path d="M 228.942157 38.898437 
L 238.942157 38.898437 
L 248.942157 38.898437 
" style="fill: none; stroke: #1f77b4; stroke-width: 1.5; stroke-linecap: square"/>
    </g>
    <g id="text_18">
     <!-- Delay in Network.nodeRx.sink -->
     <g transform="translate(256.942157 42.398437)scale(0.1 -0.1)">
      <defs>
       <path id="DejaVuSans-44" d="M 1259 4147 
L 1259 519 
L 2022 519 
Q 2988 519 3436 956 
Q 3884 1394 3884 2338 
Q 3884 3275 3436 3711 
Q 2988 4147 2022 4147 
L 1259 4147 
z
M 628 4666 
L 1925 4666 
Q 3281 4666 3915 4102 
Q 4550 3538 4550 2338 
Q 4550 1131 3912 565 
Q 3275 0 1925 0 
L 628 0 
L 628 4666 
z
" transform="scale(0.015625)"/>
       <path id="DejaVuSans-20" transform="scale(0.015625)"/>
       <path id="DejaVuSans-6e" d="M 3513 2113 
L 3513 0 
L 2938 0 
L 2938 2094 
Q 2938 2591 2744 2837 
Q 2550 3084 2163 3084 
Q 1697 3084 1428 2787 
Q 1159 2491 1159 1978 
L 1159 0 
L 581 0 
L 581 3500 
L 1159 3500 
L 1159 2956 
Q 1366 3272 1645 3428 
Q 1925 3584 2291 3584 
Q 2894 3584 3203 3211 
Q 3513 2838 3513 2113 
z
" transform="scale(0.015625)"/>
       <path id="DejaVuSans-4e" d="M 628 4666 
L 1478 4666 
L 3547 763 
L 3547 4666 
L 4159 4666 
L 4159 0 
L 3309 0 
L 1241 3903 
L 1241 0 
L 628 0 
L 628 4666 
z
" transform="scale(0.015625)"/>
       <path id="DejaVuSans-77" d="M 269 3500 
L 844 3500 
L 1563 769 
L 2278 3500 
L 2956 3500 
L 3675 769 
L 4391 3500 
L 4966 3500 
L 4050 0 
L 3372 0 
L 2619 2869 
L 1863 0 
L 1184 0 
L 269 3500 
z
" transform="scale(0.015625)"/>
       <path id="DejaVuSans-6f" d="M 1959 3097 
Q 1497 3097 1228 2736 
Q 959 2375 959 1747 
Q 959 1119 1226 758 
Q 1494 397 1959 397 
Q 2419 397 2687 759 
Q 2956 1122 2956 1747 
Q 2956 2369 2687 2733 
Q 2419 3097 1959 3097 
z
M 1959 3584 
Q 2709 3584 3137 3096 
Q 3566 2609 3566 1747 
Q 3566 888 3137 398 
Q 2709 -91 1959 -91 
Q 1206 -91 779 398 
Q 353 888 353 1747 
Q 353 2609 779 3096 
Q 1206 3584 1959 3584 
z
" transform="scale(0.015625)"/>
       <path id="DejaVuSans-72" d="M 2631 2963 
Q 2534 3019 2420 3045 
Q 2306 3072 2169 3072 
Q 1681 3072 1420 2755 
Q 1159 2438 1159 1844 
L 1159 0 
L 581 0 
L 581 3500 
L 1159 3500 
L 1159 2956 
Q 1341 3275 1631 3429 
Q 1922 3584 2338 3584 
Q 2397 3584 2469 3576 
Q 2541 3569 2628 3553 
L 2631 2963 
z
" transform="scale(0.015625)"/>
       <path id="DejaVuSans-2e" d="M 684 794 
L 1344 794 
L 1344 0 
L 684 0 
L 684 794 
z
" transform="scale(0.015625)"/>
       <path id="DejaVuSans-78" d="M 3513 3500 
L 2247 1797 
L 3578 0 
L 2900 0 
L 1881 1375 
L 863 0 
L 184 0 
L 1544 1831 
L 300 3500 
L 978 3500 
L 1906 2253 
L 2834 3500 
L 3513 3500 
z
" transform="scale(0.015625)"/>
      </defs>
      <use xlink:href="#DejaVuSans-44"/>
      <use xlink:href="#DejaVuSans-65" x="77.001953"/>
      <use xlink:href="#DejaVuSans-6c" x="138.525391"/>
      <use xlink:href="#DejaVuSans-61" x="166.308594"/>
      <use xlink:href="#DejaVuSans-79" x="227.587891"/>
      <use xlink:href="#DejaVuSans-20" x="286.767578"/>
      <use xlink:href="#DejaVuSans-69" x="318.554688"/>
      <use xlink:href="#DejaVuSans-6e" x="346.337891"/>
      <use xlink:href="#DejaVuSans-20" x="409.716797"/>
      <use xlink:href="#DejaVuSans-4e" x="441.503906"/>
      <use xlink:href="#DejaVuSans-65" x="516.308594"/>
      <use xlink:href="#DejaVuSans-74" x="577.832031"/>
      <use xlink:href="#DejaVuSans-77" x="617.041016"/>
      <use xlink:href="#DejaVuSans-6f" x="698.828125"/>
      <use xlink:href="#DejaVuSans-72" x="760.009766"/>
      <use xlink:href="#DejaVuSans-6b" x="801.123047"/>
      <use xlink:href="#DejaVuSans-2e" x="859.033203"/>
      <use xlink:href="#DejaVuSans-6e" x="890.820312"/>
      <use xlink:href="#DejaVuSans-6f" x="954.199219"/>
      <use xlink:href="#DejaVuSans-64" x="1015.380859"/>
      <use xlink:href="#DejaVuSans-65" x="1078.857422"/>
      <use xlink:href="#DejaVuSans-52" x="1140.380859"/>
      <use xlink:href="#DejaVuSans-78" x="1209.863281"/>
      <use xlink:href="#DejaVuSans-2e" x="1269.042969"/>
      <use xlink:href="#DejaVuSans-73" x="1300.830078"/>
      <use xlink:href="#DejaVuSans-69" x="1352.929688"/>
      <use xlink:href="#DejaVuSans-6e" x="1380.712891"/>
      <use xlink:href="#DejaVuSans-6b" x="1444.091797"/>
     </g>
    </g>
   </g>
  </g>
 </g>
 <defs>
  <clipPath id="p88969e6830">
   <rect x="37.01875" y="25.8" width="379.123407" height="234.65"/>
  </clipPath>
 </defs>
</svg>
