<?xml version="1.0" encoding="utf-8" standalone="no"?>
<!DOCTYPE svg PUBLIC "-//W3C//DTD SVG 1.1//EN"
  "http://www.w3.org/Graphics/SVG/1.1/DTD/svg11.dtd">
<svg xmlns:xlink="http://www.w3.org/1999/xlink" width="432pt" height="288pt" viewBox="0 0 432 288" xmlns="http://www.w3.org/2000/svg" version="1.1">
 <metadata>
  <rdf:RDF xmlns:dc="http://purl.org/dc/elements/1.1/" xmlns:cc="http://creativecommons.org/ns#" xmlns:rdf="http://www.w3.org/1999/02/22-rdf-syntax-ns#">
   <cc:Work>
    <dc:type rdf:resource="http://purl.org/dc/dcmitype/StillImage"/>
    <dc:date>2022-05-22T20:32:08.548000</dc:date>
    <dc:format>image/svg+xml</dc:format>
    <dc:creator>
     <cc:Agent>
      <dc:title>omnetpp.scave 6.0.0; Matplotlib 3.5.1 w/ backend GTK3Agg; Pandas 1.4.2; Python 3.8.10; Linux-5.4.0-109-generic-x86_64-with-glibc2.29</dc:title>
     </cc:Agent>
    </dc:creator>
   </cc:Work>
  </rdf:RDF>
 </metadata>
 <defs>
  <style type="text/css">*{stroke-linejoin: round; stroke-linecap: butt}</style>
 </defs>
 <g id="figure_1">
  <g id="patch_1">
   <path d="M 0 288 
L 432 288 
L 432 0 
L 0 0 
z
" style="fill: #ffffff"/>
  </g>
  <g id="axes_1">
   <g id="patch_2">
    <path d="M 24.26875 260.45 
L 416.23335 260.45 
L 416.23335 25.8 
L 24.26875 25.8 
z
" style="fill: #ffffff"/>
   </g>
   <g id="matplotlib.axis_1">
    <g id="xtick_1">
     <g id="line2d_1">
      <path d="M 24.26875 260.45 
L 24.26875 25.8 
" clip-path="url(#p33cbf6e0aa)" style="fill: none; stroke: #b0b0b0; stroke-width: 0.8; stroke-linecap: square"/>
     </g>
     <g id="line2d_2">
      <defs>
       <path id="mf43e053168" d="M 0 0 
L 0 3.5 
" style="stroke: #000000; stroke-width: 0.8"/>
      </defs>
      <g>
       <use xlink:href="#mf43e053168" x="24.26875" y="260.45" style="stroke: #000000; stroke-width: 0.8"/>
      </g>
     </g>
     <g id="text_1">
      <!-- 0 -->
      <g transform="translate(21.0875 275.048437)scale(0.1 -0.1)">
       <defs>
        <path id="DejaVuSans-30" d="M 2034 4250 
Q 1547 4250 1301 3770 
Q 1056 3291 1056 2328 
Q 1056 1369 1301 889 
Q 1547 409 2034 409 
Q 2525 409 2770 889 
Q 3016 1369 3016 2328 
Q 3016 3291 2770 3770 
Q 2525 4250 2034 4250 
z
M 2034 4750 
Q 2819 4750 3233 4129 
Q 3647 3509 3647 2328 
Q 3647 1150 3233 529 
Q 2819 -91 2034 -91 
Q 1250 -91 836 529 
Q 422 1150 422 2328 
Q 422 3509 836 4129 
Q 1250 4750 2034 4750 
z
" transform="scale(0.015625)"/>
       </defs>
       <use xlink:href="#DejaVuSans-30"/>
      </g>
     </g>
    </g>
    <g id="xtick_2">
     <g id="line2d_3">
      <path d="M 72.691246 260.45 
L 72.691246 25.8 
" clip-path="url(#p33cbf6e0aa)" style="fill: none; stroke: #b0b0b0; stroke-width: 0.8; stroke-linecap: square"/>
     </g>
     <g id="line2d_4">
      <g>
       <use xlink:href="#mf43e053168" x="72.691246" y="260.45" style="stroke: #000000; stroke-width: 0.8"/>
      </g>
     </g>
     <g id="text_2">
      <!-- 25 -->
      <g transform="translate(66.328746 275.048437)scale(0.1 -0.1)">
       <defs>
        <path id="DejaVuSans-32" d="M 1228 531 
L 3431 531 
L 3431 0 
L 469 0 
L 469 531 
Q 828 903 1448 1529 
Q 2069 2156 2228 2338 
Q 2531 2678 2651 2914 
Q 2772 3150 2772 3378 
Q 2772 3750 2511 3984 
Q 2250 4219 1831 4219 
Q 1534 4219 1204 4116 
Q 875 4013 500 3803 
L 500 4441 
Q 881 4594 1212 4672 
Q 1544 4750 1819 4750 
Q 2544 4750 2975 4387 
Q 3406 4025 3406 3419 
Q 3406 3131 3298 2873 
Q 3191 2616 2906 2266 
Q 2828 2175 2409 1742 
Q 1991 1309 1228 531 
z
" transform="scale(0.015625)"/>
        <path id="DejaVuSans-35" d="M 691 4666 
L 3169 4666 
L 3169 4134 
L 1269 4134 
L 1269 2991 
Q 1406 3038 1543 3061 
Q 1681 3084 1819 3084 
Q 2600 3084 3056 2656 
Q 3513 2228 3513 1497 
Q 3513 744 3044 326 
Q 2575 -91 1722 -91 
Q 1428 -91 1123 -41 
Q 819 9 494 109 
L 494 744 
Q 775 591 1075 516 
Q 1375 441 1709 441 
Q 2250 441 2565 725 
Q 2881 1009 2881 1497 
Q 2881 1984 2565 2268 
Q 2250 2553 1709 2553 
Q 1456 2553 1204 2497 
Q 953 2441 691 2322 
L 691 4666 
z
" transform="scale(0.015625)"/>
       </defs>
       <use xlink:href="#DejaVuSans-32"/>
       <use xlink:href="#DejaVuSans-35" x="63.623047"/>
      </g>
     </g>
    </g>
    <g id="xtick_3">
     <g id="line2d_5">
      <path d="M 121.113742 260.45 
L 121.113742 25.8 
" clip-path="url(#p33cbf6e0aa)" style="fill: none; stroke: #b0b0b0; stroke-width: 0.8; stroke-linecap: square"/>
     </g>
     <g id="line2d_6">
      <g>
       <use xlink:href="#mf43e053168" x="121.113742" y="260.45" style="stroke: #000000; stroke-width: 0.8"/>
      </g>
     </g>
     <g id="text_3">
      <!-- 50 -->
      <g transform="translate(114.751242 275.048437)scale(0.1 -0.1)">
       <use xlink:href="#DejaVuSans-35"/>
       <use xlink:href="#DejaVuSans-30" x="63.623047"/>
      </g>
     </g>
    </g>
    <g id="xtick_4">
     <g id="line2d_7">
      <path d="M 169.536238 260.45 
L 169.536238 25.8 
" clip-path="url(#p33cbf6e0aa)" style="fill: none; stroke: #b0b0b0; stroke-width: 0.8; stroke-linecap: square"/>
     </g>
     <g id="line2d_8">
      <g>
       <use xlink:href="#mf43e053168" x="169.536238" y="260.45" style="stroke: #000000; stroke-width: 0.8"/>
      </g>
     </g>
     <g id="text_4">
      <!-- 75 -->
      <g transform="translate(163.173738 275.048437)scale(0.1 -0.1)">
       <defs>
        <path id="DejaVuSans-37" d="M 525 4666 
L 3525 4666 
L 3525 4397 
L 1831 0 
L 1172 0 
L 2766 4134 
L 525 4134 
L 525 4666 
z
" transform="scale(0.015625)"/>
       </defs>
       <use xlink:href="#DejaVuSans-37"/>
       <use xlink:href="#DejaVuSans-35" x="63.623047"/>
      </g>
     </g>
    </g>
    <g id="xtick_5">
     <g id="line2d_9">
      <path d="M 217.958734 260.45 
L 217.958734 25.8 
" clip-path="url(#p33cbf6e0aa)" style="fill: none; stroke: #b0b0b0; stroke-width: 0.8; stroke-linecap: square"/>
     </g>
     <g id="line2d_10">
      <g>
       <use xlink:href="#mf43e053168" x="217.958734" y="260.45" style="stroke: #000000; stroke-width: 0.8"/>
      </g>
     </g>
     <g id="text_5">
      <!-- 100 -->
      <g transform="translate(208.414984 275.048437)scale(0.1 -0.1)">
       <defs>
        <path id="DejaVuSans-31" d="M 794 531 
L 1825 531 
L 1825 4091 
L 703 3866 
L 703 4441 
L 1819 4666 
L 2450 4666 
L 2450 531 
L 3481 531 
L 3481 0 
L 794 0 
L 794 531 
z
" transform="scale(0.015625)"/>
       </defs>
       <use xlink:href="#DejaVuSans-31"/>
       <use xlink:href="#DejaVuSans-30" x="63.623047"/>
       <use xlink:href="#DejaVuSans-30" x="127.246094"/>
      </g>
     </g>
    </g>
    <g id="xtick_6">
     <g id="line2d_11">
      <path d="M 266.38123 260.45 
L 266.38123 25.8 
" clip-path="url(#p33cbf6e0aa)" style="fill: none; stroke: #b0b0b0; stroke-width: 0.8; stroke-linecap: square"/>
     </g>
     <g id="line2d_12">
      <g>
       <use xlink:href="#mf43e053168" x="266.38123" y="260.45" style="stroke: #000000; stroke-width: 0.8"/>
      </g>
     </g>
     <g id="text_6">
      <!-- 125 -->
      <g transform="translate(256.83748 275.048437)scale(0.1 -0.1)">
       <use xlink:href="#DejaVuSans-31"/>
       <use xlink:href="#DejaVuSans-32" x="63.623047"/>
       <use xlink:href="#DejaVuSans-35" x="127.246094"/>
      </g>
     </g>
    </g>
    <g id="xtick_7">
     <g id="line2d_13">
      <path d="M 314.803726 260.45 
L 314.803726 25.8 
" clip-path="url(#p33cbf6e0aa)" style="fill: none; stroke: #b0b0b0; stroke-width: 0.8; stroke-linecap: square"/>
     </g>
     <g id="line2d_14">
      <g>
       <use xlink:href="#mf43e053168" x="314.803726" y="260.45" style="stroke: #000000; stroke-width: 0.8"/>
      </g>
     </g>
     <g id="text_7">
      <!-- 150 -->
      <g transform="translate(305.259976 275.048437)scale(0.1 -0.1)">
       <use xlink:href="#DejaVuSans-31"/>
       <use xlink:href="#DejaVuSans-35" x="63.623047"/>
       <use xlink:href="#DejaVuSans-30" x="127.246094"/>
      </g>
     </g>
    </g>
    <g id="xtick_8">
     <g id="line2d_15">
      <path d="M 363.226222 260.45 
L 363.226222 25.8 
" clip-path="url(#p33cbf6e0aa)" style="fill: none; stroke: #b0b0b0; stroke-width: 0.8; stroke-linecap: square"/>
     </g>
     <g id="line2d_16">
      <g>
       <use xlink:href="#mf43e053168" x="363.226222" y="260.45" style="stroke: #000000; stroke-width: 0.8"/>
      </g>
     </g>
     <g id="text_8">
      <!-- 175 -->
      <g transform="translate(353.682472 275.048437)scale(0.1 -0.1)">
       <use xlink:href="#DejaVuSans-31"/>
       <use xlink:href="#DejaVuSans-37" x="63.623047"/>
       <use xlink:href="#DejaVuSans-35" x="127.246094"/>
      </g>
     </g>
    </g>
    <g id="xtick_9">
     <g id="line2d_17">
      <path d="M 411.648718 260.45 
L 411.648718 25.8 
" clip-path="url(#p33cbf6e0aa)" style="fill: none; stroke: #b0b0b0; stroke-width: 0.8; stroke-linecap: square"/>
     </g>
     <g id="line2d_18">
      <g>
       <use xlink:href="#mf43e053168" x="411.648718" y="260.45" style="stroke: #000000; stroke-width: 0.8"/>
      </g>
     </g>
     <g id="text_9">
      <!-- 200 -->
      <g transform="translate(402.104968 275.048437)scale(0.1 -0.1)">
       <use xlink:href="#DejaVuSans-32"/>
       <use xlink:href="#DejaVuSans-30" x="63.623047"/>
       <use xlink:href="#DejaVuSans-30" x="127.246094"/>
      </g>
     </g>
    </g>
   </g>
   <g id="matplotlib.axis_2">
    <g id="ytick_1">
     <g id="line2d_19">
      <path d="M 24.26875 260.45 
L 416.23335 260.45 
" clip-path="url(#p33cbf6e0aa)" style="fill: none; stroke: #b0b0b0; stroke-width: 0.8; stroke-linecap: square"/>
     </g>
     <g id="line2d_20">
      <defs>
       <path id="me0a2e4dc2f" d="M 0 0 
L -3.5 0 
" style="stroke: #000000; stroke-width: 0.8"/>
      </defs>
      <g>
       <use xlink:href="#me0a2e4dc2f" x="24.26875" y="260.45" style="stroke: #000000; stroke-width: 0.8"/>
      </g>
     </g>
     <g id="text_10">
      <!-- 0 -->
      <g transform="translate(10.90625 264.249219)scale(0.1 -0.1)">
       <use xlink:href="#DejaVuSans-30"/>
      </g>
     </g>
    </g>
    <g id="ytick_2">
     <g id="line2d_21">
      <path d="M 24.26875 208.655422 
L 416.23335 208.655422 
" clip-path="url(#p33cbf6e0aa)" style="fill: none; stroke: #b0b0b0; stroke-width: 0.8; stroke-linecap: square"/>
     </g>
     <g id="line2d_22">
      <g>
       <use xlink:href="#me0a2e4dc2f" x="24.26875" y="208.655422" style="stroke: #000000; stroke-width: 0.8"/>
      </g>
     </g>
     <g id="text_11">
      <!-- 2 -->
      <g transform="translate(10.90625 212.45464)scale(0.1 -0.1)">
       <use xlink:href="#DejaVuSans-32"/>
      </g>
     </g>
    </g>
    <g id="ytick_3">
     <g id="line2d_23">
      <path d="M 24.26875 156.860843 
L 416.23335 156.860843 
" clip-path="url(#p33cbf6e0aa)" style="fill: none; stroke: #b0b0b0; stroke-width: 0.8; stroke-linecap: square"/>
     </g>
     <g id="line2d_24">
      <g>
       <use xlink:href="#me0a2e4dc2f" x="24.26875" y="156.860843" style="stroke: #000000; stroke-width: 0.8"/>
      </g>
     </g>
     <g id="text_12">
      <!-- 4 -->
      <g transform="translate(10.90625 160.660062)scale(0.1 -0.1)">
       <defs>
        <path id="DejaVuSans-34" d="M 2419 4116 
L 825 1625 
L 2419 1625 
L 2419 4116 
z
M 2253 4666 
L 3047 4666 
L 3047 1625 
L 3713 1625 
L 3713 1100 
L 3047 1100 
L 3047 0 
L 2419 0 
L 2419 1100 
L 313 1100 
L 313 1709 
L 2253 4666 
z
" transform="scale(0.015625)"/>
       </defs>
       <use xlink:href="#DejaVuSans-34"/>
      </g>
     </g>
    </g>
    <g id="ytick_4">
     <g id="line2d_25">
      <path d="M 24.26875 105.066265 
L 416.23335 105.066265 
" clip-path="url(#p33cbf6e0aa)" style="fill: none; stroke: #b0b0b0; stroke-width: 0.8; stroke-linecap: square"/>
     </g>
     <g id="line2d_26">
      <g>
       <use xlink:href="#me0a2e4dc2f" x="24.26875" y="105.066265" style="stroke: #000000; stroke-width: 0.8"/>
      </g>
     </g>
     <g id="text_13">
      <!-- 6 -->
      <g transform="translate(10.90625 108.865484)scale(0.1 -0.1)">
       <defs>
        <path id="DejaVuSans-36" d="M 2113 2584 
Q 1688 2584 1439 2293 
Q 1191 2003 1191 1497 
Q 1191 994 1439 701 
Q 1688 409 2113 409 
Q 2538 409 2786 701 
Q 3034 994 3034 1497 
Q 3034 2003 2786 2293 
Q 2538 2584 2113 2584 
z
M 3366 4563 
L 3366 3988 
Q 3128 4100 2886 4159 
Q 2644 4219 2406 4219 
Q 1781 4219 1451 3797 
Q 1122 3375 1075 2522 
Q 1259 2794 1537 2939 
Q 1816 3084 2150 3084 
Q 2853 3084 3261 2657 
Q 3669 2231 3669 1497 
Q 3669 778 3244 343 
Q 2819 -91 2113 -91 
Q 1303 -91 875 529 
Q 447 1150 447 2328 
Q 447 3434 972 4092 
Q 1497 4750 2381 4750 
Q 2619 4750 2861 4703 
Q 3103 4656 3366 4563 
z
" transform="scale(0.015625)"/>
       </defs>
       <use xlink:href="#DejaVuSans-36"/>
      </g>
     </g>
    </g>
    <g id="ytick_5">
     <g id="line2d_27">
      <path d="M 24.26875 53.271687 
L 416.23335 53.271687 
" clip-path="url(#p33cbf6e0aa)" style="fill: none; stroke: #b0b0b0; stroke-width: 0.8; stroke-linecap: square"/>
     </g>
     <g id="line2d_28">
      <g>
       <use xlink:href="#me0a2e4dc2f" x="24.26875" y="53.271687" style="stroke: #000000; stroke-width: 0.8"/>
      </g>
     </g>
     <g id="text_14">
      <!-- 8 -->
      <g transform="translate(10.90625 57.070905)scale(0.1 -0.1)">
       <defs>
        <path id="DejaVuSans-38" d="M 2034 2216 
Q 1584 2216 1326 1975 
Q 1069 1734 1069 1313 
Q 1069 891 1326 650 
Q 1584 409 2034 409 
Q 2484 409 2743 651 
Q 3003 894 3003 1313 
Q 3003 1734 2745 1975 
Q 2488 2216 2034 2216 
z
M 1403 2484 
Q 997 2584 770 2862 
Q 544 3141 544 3541 
Q 544 4100 942 4425 
Q 1341 4750 2034 4750 
Q 2731 4750 3128 4425 
Q 3525 4100 3525 3541 
Q 3525 3141 3298 2862 
Q 3072 2584 2669 2484 
Q 3125 2378 3379 2068 
Q 3634 1759 3634 1313 
Q 3634 634 3220 271 
Q 2806 -91 2034 -91 
Q 1263 -91 848 271 
Q 434 634 434 1313 
Q 434 1759 690 2068 
Q 947 2378 1403 2484 
z
M 1172 3481 
Q 1172 3119 1398 2916 
Q 1625 2713 2034 2713 
Q 2441 2713 2670 2916 
Q 2900 3119 2900 3481 
Q 2900 3844 2670 4047 
Q 2441 4250 2034 4250 
Q 1625 4250 1398 4047 
Q 1172 3844 1172 3481 
z
" transform="scale(0.015625)"/>
       </defs>
       <use xlink:href="#DejaVuSans-38"/>
      </g>
     </g>
    </g>
   </g>
   <g id="line2d_29">
    <path d="M 25.400626 249.438473 
L 25.788006 248.91307 
L 26.235232 249.438473 
L 26.955606 249.438473 
L 27.342986 249.04081 
L 28.069233 249.438473 
L 28.456613 248.33629 
L 29.102052 249.438473 
L 29.489432 247.113147 
L 29.876812 246.994053 
L 30.264192 247.191697 
L 31.426332 238.976075 
L 31.813712 245.313268 
L 32.201092 240.436211 
L 32.811929 249.438473 
L 33.586689 243.233266 
L 33.974069 241.417588 
L 34.748829 247.845851 
L 35.136209 246.564837 
L 35.523589 244.772136 
L 35.910969 243.940486 
L 36.298349 241.344914 
L 36.69953 249.438473 
L 37.400056 249.438473 
L 37.787436 244.640665 
L 38.174816 241.592958 
L 38.562196 236.885665 
L 38.949576 237.116734 
L 39.336956 232.043069 
L 39.724336 229.242268 
L 40.111716 233.321027 
L 40.499096 244.457741 
L 40.886476 247.07743 
L 41.273856 242.681266 
L 41.661236 248.069529 
L 42.349451 249.438473 
L 43.839013 249.438473 
L 44.226393 247.58272 
L 44.709436 249.438473 
L 45.334668 249.438473 
L 45.722048 247.464734 
L 46.109428 246.091993 
L 46.496808 248.76737 
L 46.886655 249.438473 
L 47.274035 244.910976 
L 47.661415 246.336506 
L 48.048795 246.447512 
L 48.436175 245.786205 
L 48.823555 241.408163 
L 49.210935 240.221211 
L 49.642802 249.438473 
L 50.19341 249.438473 
L 50.58079 248.08056 
L 50.96817 243.480923 
L 52.13031 235.631666 
L 52.51769 231.520229 
L 52.90507 234.049124 
L 53.29245 235.785746 
L 53.67983 233.761005 
L 54.06721 229.845586 
L 54.45459 229.018606 
L 55.616729 216.360101 
L 56.004109 216.160075 
L 56.391489 211.820397 
L 56.778869 211.545868 
L 57.166249 207.668743 
L 57.553629 207.459224 
L 57.941009 204.810226 
L 58.328389 214.536808 
L 58.715769 221.419859 
L 59.103149 222.1716 
L 59.490529 220.088143 
L 59.877909 217.216229 
L 60.265289 216.954638 
L 60.652669 214.750947 
L 61.040049 221.620726 
L 61.427429 222.636458 
L 62.202189 213.140837 
L 62.589569 226.090588 
L 62.976949 226.602901 
L 63.364329 226.90763 
L 63.751709 227.480465 
L 64.526469 219.315737 
L 64.913849 216.432872 
L 65.301229 211.968328 
L 65.688609 213.983358 
L 66.075989 210.766718 
L 66.463369 210.435551 
L 67.238129 204.454389 
L 67.625508 203.648609 
L 68.012888 198.672099 
L 68.400268 196.482868 
L 68.787648 196.513277 
L 69.175028 214.405698 
L 69.562408 225.763972 
L 69.949788 221.142006 
L 70.337168 221.441515 
L 70.724548 217.475612 
L 71.111928 217.517148 
L 71.499308 213.248827 
L 71.886688 235.831783 
L 72.274068 236.136038 
L 72.661448 235.472632 
L 73.048828 231.805992 
L 73.823588 227.470819 
L 74.210968 225.625797 
L 74.598348 221.898023 
L 74.985728 221.778191 
L 75.373108 217.495439 
L 75.760488 214.452514 
L 76.147868 209.878822 
L 76.535248 210.516767 
L 76.922628 210.869344 
L 77.310008 207.666139 
L 77.697388 203.25693 
L 78.084768 205.881026 
L 78.472148 201.835251 
L 78.859528 212.127818 
L 79.246908 209.330983 
L 79.634287 209.777811 
L 80.021667 213.508739 
L 80.796427 203.749653 
L 81.183807 203.620695 
L 81.571187 207.866912 
L 81.958567 208.487486 
L 82.345947 203.831333 
L 83.120707 231.399618 
L 83.508087 237.124583 
L 84.282847 233.731625 
L 84.670227 248.036911 
L 85.057607 243.154375 
L 85.444987 242.783933 
L 85.832367 240.711875 
L 86.219747 242.494879 
L 86.994507 232.447592 
L 87.381887 230.287129 
L 87.769267 226.829376 
L 88.156647 241.806141 
L 88.544027 237.289948 
L 89.706167 229.2734 
L 90.093547 224.748566 
L 90.480927 225.612881 
L 90.868307 222.415606 
L 91.255686 228.238546 
L 91.643066 225.829499 
L 92.030446 233.618947 
L 92.805206 224.869251 
L 93.192586 225.797356 
L 93.967346 224.08265 
L 94.354726 229.278892 
L 94.742106 225.696856 
L 95.516866 222.858549 
L 95.904246 230.55306 
L 96.291626 225.884557 
L 96.679006 233.862499 
L 97.066386 233.126476 
L 97.453766 228.396442 
L 97.841146 236.938694 
L 98.615906 230.251499 
L 99.003286 225.120732 
L 99.390666 225.643059 
L 99.778046 230.031757 
L 100.165426 225.584315 
L 100.552806 225.800717 
L 100.940186 227.147033 
L 101.327566 231.50442 
L 102.877086 217.824034 
L 103.264465 217.218706 
L 103.651845 216.207662 
L 104.426605 206.887563 
L 104.813985 210.853687 
L 105.201365 208.065745 
L 105.976125 198.551329 
L 106.363505 199.238302 
L 106.750885 198.425558 
L 107.138265 194.876187 
L 107.525645 195.997585 
L 107.913025 197.700372 
L 108.300405 194.283726 
L 108.687785 206.067734 
L 109.075165 203.829712 
L 109.462545 200.131688 
L 109.849925 202.260571 
L 110.237305 201.527124 
L 110.624685 198.959893 
L 111.012065 198.42429 
L 111.399445 204.969745 
L 111.786825 204.18879 
L 112.174205 204.285432 
L 112.561585 200.413373 
L 112.948965 206.740117 
L 113.336345 217.369823 
L 113.723725 218.092917 
L 114.498485 213.892394 
L 114.885865 218.416443 
L 115.273244 233.141675 
L 115.660624 234.189162 
L 116.435384 226.2985 
L 116.822764 228.664572 
L 117.210144 232.19138 
L 117.984904 227.197043 
L 118.372284 227.845936 
L 118.759664 233.69613 
L 119.147044 230.005303 
L 119.534424 229.334748 
L 119.921804 226.101414 
L 120.309184 231.979221 
L 120.696564 244.225378 
L 121.083944 245.154484 
L 121.471324 244.573667 
L 121.858704 246.085599 
L 122.246084 246.488741 
L 123.020844 243.679751 
L 123.800884 249.438473 
L 124.188264 245.616329 
L 124.575644 245.7862 
L 125.350404 240.884914 
L 125.737784 240.700803 
L 126.125163 240.350687 
L 126.512543 238.507342 
L 126.899923 233.428261 
L 127.287303 231.53842 
L 127.674683 228.218011 
L 128.062063 229.559716 
L 128.449443 229.970551 
L 129.611583 220.470908 
L 129.998963 220.276031 
L 130.386343 222.259656 
L 130.773723 219.980493 
L 131.161103 225.716471 
L 132.710623 208.651545 
L 133.098003 207.842972 
L 133.485383 204.927082 
L 133.872763 204.376657 
L 134.647523 202.598195 
L 135.034903 197.595893 
L 135.422283 197.901529 
L 135.809663 210.707922 
L 136.197043 210.997193 
L 136.584423 207.822859 
L 136.971803 205.567778 
L 137.359183 201.683606 
L 137.746563 208.254443 
L 138.133942 203.863783 
L 138.521322 201.057413 
L 138.908702 196.40792 
L 139.296082 194.193503 
L 139.683462 210.445656 
L 140.070842 216.79005 
L 140.458222 213.17254 
L 140.845602 216.492042 
L 141.232982 215.301165 
L 141.620362 216.425208 
L 142.007742 214.322729 
L 142.782502 205.05406 
L 143.169882 212.923118 
L 143.557262 209.993335 
L 143.944642 211.301705 
L 144.332022 209.40324 
L 144.719402 239.264838 
L 145.106782 243.614198 
L 145.494162 239.27314 
L 145.881542 246.266326 
L 146.429088 249.438473 
L 147.203848 240.196292 
L 147.591228 238.693824 
L 147.978608 238.465754 
L 148.753368 229.736929 
L 149.140748 232.377539 
L 150.302888 245.495212 
L 150.690268 243.060882 
L 151.077648 242.241911 
L 151.465028 237.843469 
L 151.852408 235.372194 
L 152.627168 225.559515 
L 153.014548 241.356068 
L 153.401928 242.368334 
L 154.176688 237.559579 
L 154.564068 235.202185 
L 154.951448 236.654165 
L 155.338828 231.743586 
L 155.726208 236.989199 
L 156.113588 234.165938 
L 156.500968 248.202065 
L 156.888347 243.109455 
L 157.275727 247.960417 
L 157.663107 244.139683 
L 158.050487 239.021256 
L 158.437867 241.340586 
L 158.825247 238.472476 
L 159.212627 248.233743 
L 159.62972 249.438473 
L 160.166741 249.438473 
L 160.941501 242.202291 
L 161.716261 239.139116 
L 162.103641 234.249035 
L 162.491021 231.213764 
L 163.265781 223.035238 
L 164.040541 213.744401 
L 164.427921 216.740265 
L 164.815301 214.785524 
L 165.202681 210.919088 
L 165.590061 216.492346 
L 165.977441 213.507202 
L 166.752201 231.722128 
L 167.139581 231.396541 
L 167.526961 232.52979 
L 167.91434 232.053094 
L 168.30172 227.041226 
L 168.6891 229.790644 
L 169.07648 225.543268 
L 169.46386 223.954209 
L 169.85124 223.806502 
L 170.23862 218.894734 
L 170.626 218.174394 
L 171.01338 219.215314 
L 171.40076 215.442949 
L 171.78814 235.534755 
L 172.17552 244.450405 
L 172.5629 240.881592 
L 172.95028 240.632096 
L 173.33766 241.339592 
L 173.72504 240.133191 
L 174.11242 245.298001 
L 174.4998 244.735401 
L 175.27456 248.358237 
L 176.486816 249.438473 
L 176.874196 246.195544 
L 177.261576 245.200985 
L 177.648956 242.651993 
L 179.585856 222.86008 
L 179.973236 232.644467 
L 180.360616 231.831182 
L 180.747996 233.619895 
L 181.522756 229.869571 
L 181.910136 242.893208 
L 182.297516 239.050116 
L 182.684896 239.781134 
L 183.072276 236.121887 
L 184.234416 221.6557 
L 185.396555 214.470141 
L 185.783935 220.31604 
L 186.171315 221.309761 
L 186.558695 235.53615 
L 186.946075 232.813911 
L 187.333455 232.614189 
L 187.720835 228.460097 
L 188.108215 227.330849 
L 188.495595 222.280817 
L 188.882975 227.089219 
L 189.270355 222.270343 
L 189.657735 224.144953 
L 190.045115 224.857328 
L 190.819875 221.002838 
L 191.207255 221.678009 
L 191.594635 220.482175 
L 191.982015 220.140643 
L 192.369395 226.717726 
L 192.756775 228.034361 
L 193.144155 246.885788 
L 193.531535 244.989744 
L 193.918915 241.076617 
L 194.306295 239.050583 
L 194.693675 239.505881 
L 195.081055 246.596134 
L 195.855815 238.584554 
L 196.630575 229.682198 
L 197.017954 231.859557 
L 197.405334 237.7308 
L 197.792714 234.548995 
L 198.180094 241.530095 
L 198.567474 238.855622 
L 198.954854 239.051665 
L 199.342234 238.468986 
L 199.729614 235.322843 
L 200.116994 239.353204 
L 200.504374 237.972193 
L 200.891754 237.92819 
L 201.279134 232.749019 
L 201.666514 238.243498 
L 202.828654 229.166543 
L 203.216034 232.272765 
L 203.603414 238.310789 
L 203.990794 234.194921 
L 204.378174 234.915164 
L 204.765554 245.549548 
L 205.152934 243.524611 
L 205.540314 244.369449 
L 205.927694 242.611039 
L 206.315074 238.688731 
L 206.702454 241.561585 
L 207.253961 249.438473 
L 207.641341 245.608989 
L 208.028721 247.227611 
L 208.685677 249.438473 
L 209.847817 238.609803 
L 210.260919 249.438473 
L 210.648299 248.041198 
L 211.035679 246.167211 
L 211.423059 241.122408 
L 211.810439 242.382833 
L 212.585199 234.092591 
L 212.972578 231.776536 
L 213.359958 233.387204 
L 213.747338 230.635237 
L 214.134718 230.8383 
L 214.522098 228.884761 
L 215.684238 217.352665 
L 216.071618 216.750738 
L 216.458998 220.107421 
L 216.846378 225.256005 
L 217.233758 227.196644 
L 217.621138 222.664787 
L 218.008518 223.304246 
L 218.395898 221.898146 
L 219.170658 213.952035 
L 219.558038 209.768388 
L 220.332798 212.258733 
L 221.107558 207.733528 
L 221.494938 206.870518 
L 221.882318 211.196729 
L 223.431838 194.459069 
L 223.819218 192.747468 
L 224.206598 188.258642 
L 224.593978 185.355325 
L 224.981357 186.807771 
L 225.368737 196.237679 
L 225.756117 191.218402 
L 226.530877 195.485746 
L 226.918257 197.458928 
L 227.305637 192.782746 
L 227.693017 199.725768 
L 228.467777 191.088021 
L 228.855157 193.073392 
L 229.242537 192.055068 
L 229.629917 193.689841 
L 230.017297 193.059061 
L 230.404677 188.12142 
L 230.792057 199.871002 
L 231.954197 189.089081 
L 232.341577 185.336708 
L 232.728957 186.014795 
L 233.891097 171.446876 
L 234.278477 170.468689 
L 234.665857 179.028046 
L 235.053237 173.89667 
L 235.440617 174.458173 
L 235.827997 178.549891 
L 236.215377 181.335552 
L 236.602757 197.681772 
L 236.990136 194.216248 
L 237.377516 195.333407 
L 237.764896 194.726792 
L 238.539656 185.748379 
L 239.314416 182.552934 
L 239.701796 181.872176 
L 240.089176 196.343705 
L 240.476556 199.187287 
L 240.863936 204.840959 
L 241.251316 204.491925 
L 242.026076 197.547026 
L 242.413456 209.247012 
L 242.800836 207.212932 
L 243.188216 203.39866 
L 243.575596 209.152462 
L 243.962976 219.419187 
L 244.350356 217.750376 
L 244.737736 227.263176 
L 245.125116 228.595525 
L 245.512496 231.731473 
L 245.899876 230.000718 
L 246.287256 229.977222 
L 246.674636 231.183417 
L 247.062016 236.744919 
L 247.449396 235.136358 
L 247.836776 231.752894 
L 248.611536 240.824887 
L 248.998915 236.764691 
L 249.386295 236.567933 
L 249.773675 239.076047 
L 250.161055 233.965606 
L 250.548435 247.741189 
L 250.935815 244.770956 
L 251.354801 249.438473 
L 251.742181 245.089458 
L 252.129561 247.762416 
L 253.556806 249.438473 
L 255.184522 249.438473 
L 255.571902 247.629792 
L 255.979222 249.438473 
L 256.366602 247.822189 
L 256.753981 242.663741 
L 257.141361 242.768299 
L 257.916121 236.417192 
L 258.303501 233.974908 
L 258.690881 229.557996 
L 259.078261 227.273895 
L 259.465641 231.037462 
L 260.627781 221.076559 
L 261.015161 219.605827 
L 261.789921 211.228529 
L 262.177301 226.495671 
L 262.564681 221.849534 
L 262.952061 219.368982 
L 263.339441 224.454641 
L 263.726821 223.636993 
L 264.114201 237.149893 
L 264.501581 234.150952 
L 264.888961 245.752746 
L 265.276341 248.628869 
L 266.13403 249.438473 
L 266.52141 247.003928 
L 266.915527 249.438473 
L 268.077667 240.945835 
L 268.465047 236.204453 
L 269.239807 230.415174 
L 269.627187 232.966742 
L 270.014567 229.156061 
L 270.401947 237.477232 
L 270.789327 233.033908 
L 271.176707 229.892579 
L 271.564086 224.997511 
L 271.951466 235.640571 
L 272.338846 237.158918 
L 273.113606 226.932285 
L 273.500986 225.701768 
L 273.888366 228.14753 
L 274.275746 224.84947 
L 274.663126 220.4932 
L 275.050506 226.420496 
L 276.212646 213.291863 
L 276.987406 214.567388 
L 277.374786 218.001191 
L 277.762166 214.279875 
L 278.536926 209.678198 
L 278.924306 211.723406 
L 279.311686 210.765301 
L 280.086446 219.775887 
L 280.473826 217.064329 
L 280.861206 218.610116 
L 281.635966 210.40945 
L 282.410726 202.313283 
L 282.798106 201.776324 
L 283.185486 196.891922 
L 283.572865 195.064478 
L 283.960245 191.744246 
L 284.347625 190.031414 
L 284.735005 186.426364 
L 285.509765 182.399354 
L 285.897145 181.071254 
L 286.284525 181.846833 
L 286.671905 179.689194 
L 287.059285 180.670682 
L 287.446665 185.409069 
L 287.834045 181.956459 
L 288.608805 177.015715 
L 288.996185 180.919548 
L 289.383565 176.775233 
L 289.770945 175.283591 
L 290.158325 178.151693 
L 290.933085 168.563818 
L 291.320465 168.972617 
L 291.707845 169.977501 
L 292.095225 165.996678 
L 292.482605 168.628957 
L 292.869985 173.182314 
L 293.257365 175.78454 
L 293.644745 176.52878 
L 295.194265 161.183665 
L 295.581644 160.591967 
L 295.969024 155.462933 
L 296.356404 151.933567 
L 296.743784 158.284017 
L 297.131164 155.504668 
L 297.905924 147.024452 
L 298.293304 149.668366 
L 298.680684 147.679036 
L 299.068064 155.927057 
L 299.455444 150.983979 
L 299.842824 152.309369 
L 300.230204 155.460643 
L 300.617584 153.777066 
L 301.004964 149.012373 
L 301.779724 145.72589 
L 302.167104 151.646527 
L 302.554484 148.365088 
L 302.941864 146.657068 
L 303.329244 145.940581 
L 303.716624 143.534227 
L 304.104004 154.953941 
L 304.491384 150.765293 
L 304.878764 150.958203 
L 305.266144 149.119021 
L 305.653524 144.126039 
L 306.040904 146.875546 
L 306.428284 144.611217 
L 306.815664 143.642132 
L 307.203044 142.157618 
L 307.590423 137.880397 
L 307.977803 136.680075 
L 308.365183 132.304912 
L 308.752563 133.049694 
L 309.139943 133.299805 
L 309.527323 129.804556 
L 309.914703 128.638362 
L 310.302083 124.173427 
L 311.464223 114.08261 
L 311.851603 125.129511 
L 313.013743 112.284303 
L 313.401123 119.241558 
L 313.788503 118.542011 
L 314.175883 117.427583 
L 314.563263 112.749484 
L 314.950643 110.731996 
L 315.725403 123.947062 
L 316.112783 119.216233 
L 316.500163 117.214913 
L 316.887543 120.381281 
L 317.274923 121.872768 
L 317.662303 127.552749 
L 318.049683 125.010684 
L 318.437063 120.339432 
L 318.824443 127.299948 
L 319.211823 124.998503 
L 319.599202 125.885556 
L 319.986582 124.025993 
L 320.373962 125.075941 
L 320.761342 124.392097 
L 321.148722 121.269303 
L 321.536102 122.614104 
L 321.923482 124.757277 
L 322.310862 119.719954 
L 322.698242 119.775733 
L 323.085622 121.404787 
L 323.473002 117.646901 
L 323.860382 120.011635 
L 324.635142 110.609933 
L 325.022522 113.673873 
L 325.409902 110.403475 
L 325.797282 121.789244 
L 326.184662 117.982824 
L 326.959422 114.423351 
L 327.346802 113.874336 
L 327.734182 124.611741 
L 328.121562 129.532107 
L 328.508942 128.579183 
L 328.896322 126.564672 
L 329.283702 121.916377 
L 329.671082 132.451097 
L 330.058462 132.306129 
L 330.445842 131.56772 
L 331.220602 140.4091 
L 331.607981 136.118119 
L 331.995361 143.344394 
L 332.382741 163.458813 
L 332.770121 167.033856 
L 333.932261 153.368946 
L 334.707021 153.344762 
L 335.094401 150.797605 
L 335.481781 161.062149 
L 335.869161 156.218143 
L 336.256541 165.337119 
L 337.031301 160.90757 
L 337.418681 157.278471 
L 337.806061 158.836646 
L 338.193441 163.45014 
L 338.580821 165.292569 
L 338.968201 160.288549 
L 339.355581 157.008425 
L 339.742961 168.370922 
L 340.130341 163.852227 
L 341.292481 155.912121 
L 341.679861 153.307937 
L 342.067241 148.213751 
L 342.454621 146.965319 
L 342.842001 142.846885 
L 343.229381 147.335612 
L 343.61676 144.812838 
L 344.00414 143.6136 
L 344.39152 152.155501 
L 344.7789 152.88207 
L 345.16628 148.246106 
L 345.55366 147.93276 
L 345.94104 157.80439 
L 346.32842 153.161891 
L 346.7158 158.529333 
L 347.10318 153.849906 
L 347.49056 151.806267 
L 347.87794 146.92511 
L 348.26532 143.794467 
L 349.04008 135.27655 
L 349.42746 131.499298 
L 349.81484 131.256498 
L 350.20222 135.553077 
L 350.5896 130.547824 
L 350.97698 129.195572 
L 351.36436 124.097582 
L 351.75174 122.645495 
L 352.13912 120.366577 
L 352.5265 120.622142 
L 352.91388 115.807846 
L 353.30126 114.702338 
L 353.68864 111.026339 
L 354.4634 102.132976 
L 354.85078 101.448572 
L 355.23816 97.781237 
L 355.625539 100.238487 
L 356.012919 95.786617 
L 356.400299 93.051698 
L 356.787679 87.934959 
L 357.175059 86.253479 
L 357.562439 81.709618 
L 357.949819 97.235372 
L 358.337199 97.046802 
L 358.724579 93.320575 
L 359.111959 107.095665 
L 359.499339 104.344965 
L 359.886719 123.199642 
L 360.274099 118.262246 
L 360.661479 115.807342 
L 361.048859 112.550301 
L 361.436239 108.292148 
L 361.823619 112.336966 
L 362.210999 112.431324 
L 362.598379 115.773024 
L 362.985759 114.084228 
L 363.373139 114.196717 
L 363.760519 132.572521 
L 364.147899 129.770579 
L 364.535279 124.940911 
L 364.922659 121.704071 
L 365.697419 127.648017 
L 366.084799 124.230803 
L 366.859559 115.681367 
L 367.246939 116.461717 
L 367.634318 116.908203 
L 368.021698 114.210808 
L 368.409078 110.494271 
L 368.796458 110.519822 
L 369.183838 111.018048 
L 369.571218 119.386192 
L 369.958598 117.979335 
L 370.345978 122.7638 
L 370.733358 120.442378 
L 371.120738 118.829049 
L 371.508118 117.839667 
L 371.895498 115.552039 
L 372.282878 112.125031 
L 372.670258 115.901475 
L 373.057638 117.072718 
L 373.445018 118.835163 
L 374.607158 111.458041 
L 374.994538 124.254643 
L 375.381918 128.212201 
L 375.769298 125.369916 
L 376.156678 133.604353 
L 376.544058 131.049447 
L 376.931438 126.113938 
L 377.318818 127.885415 
L 377.706198 124.077385 
L 378.093578 121.985775 
L 378.480958 119.025754 
L 378.868338 128.188963 
L 379.255718 131.748381 
L 379.643097 128.109157 
L 380.030477 144.854426 
L 380.417857 142.165657 
L 380.805237 154.973709 
L 381.192617 155.981061 
L 381.967377 169.587714 
L 382.354757 166.230221 
L 382.742137 161.719112 
L 383.129517 181.554987 
L 384.679037 165.677041 
L 385.066417 163.980162 
L 385.453797 174.416605 
L 385.841177 180.741832 
L 386.615937 174.055934 
L 387.003317 174.938699 
L 387.390697 172.279146 
L 387.778077 167.411121 
L 388.165457 175.105884 
L 388.552837 176.721684 
L 388.940217 172.168067 
L 389.327597 178.045211 
L 389.714977 178.03122 
L 391.264497 164.595028 
L 392.039256 158.69583 
L 392.426636 160.671581 
L 392.814016 161.395646 
L 393.201396 157.6227 
L 393.588776 160.664892 
L 393.976156 156.462097 
L 394.363536 154.913675 
L 394.750916 152.824022 
L 395.525676 146.165312 
L 395.913056 152.231627 
L 396.300436 156.517764 
L 397.075196 149.811065 
L 397.462576 151.576751 
L 397.849956 150.012231 
L 398.237336 149.030688 
L 398.624716 158.651144 
L 399.012096 154.637285 
L 399.399476 154.663781 
L 399.786856 153.603143 
L 400.174236 158.884038 
L 400.561616 157.50229 
L 400.948996 166.912908 
L 401.336376 163.954981 
L 401.723756 165.971646 
L 402.111136 160.921303 
L 402.498516 161.97044 
L 402.885896 157.625613 
L 403.273276 170.26838 
L 403.660655 165.821262 
L 404.048035 187.497963 
L 404.435415 188.692962 
L 404.822795 186.627159 
L 405.210175 187.842674 
L 405.597555 183.043939 
L 405.984935 182.764775 
L 406.372315 179.379654 
L 406.759695 179.972486 
L 407.147075 175.649156 
L 407.921835 171.162364 
L 408.309215 172.151544 
L 408.696595 167.70107 
L 409.083975 164.983614 
L 409.471355 164.603642 
L 409.858735 159.970079 
L 410.246115 157.290099 
L 410.633495 168.81603 
L 411.020875 175.329078 
L 411.408255 170.539073 
L 411.408255 170.539073 
" clip-path="url(#p33cbf6e0aa)" style="fill: none; stroke: #1f77b4; stroke-width: 1.5; stroke-linecap: square"/>
   </g>
   <g id="patch_3">
    <path d="M 24.26875 260.45 
L 24.26875 25.8 
" style="fill: none; stroke: #000000; stroke-width: 0.8; stroke-linejoin: miter; stroke-linecap: square"/>
   </g>
   <g id="patch_4">
    <path d="M 416.23335 260.45 
L 416.23335 25.8 
" style="fill: none; stroke: #000000; stroke-width: 0.8; stroke-linejoin: miter; stroke-linecap: square"/>
   </g>
   <g id="patch_5">
    <path d="M 24.26875 260.45 
L 416.23335 260.45 
" style="fill: none; stroke: #000000; stroke-width: 0.8; stroke-linejoin: miter; stroke-linecap: square"/>
   </g>
   <g id="patch_6">
    <path d="M 24.26875 25.8 
L 416.23335 25.8 
" style="fill: none; stroke: #000000; stroke-width: 0.8; stroke-linejoin: miter; stroke-linecap: square"/>
   </g>
   <g id="text_15">
    <!-- Resived_packet_delay -->
    <g transform="translate(154.33355 19.8)scale(0.12 -0.12)">
     <defs>
      <path id="DejaVuSans-52" d="M 2841 2188 
Q 3044 2119 3236 1894 
Q 3428 1669 3622 1275 
L 4263 0 
L 3584 0 
L 2988 1197 
Q 2756 1666 2539 1819 
Q 2322 1972 1947 1972 
L 1259 1972 
L 1259 0 
L 628 0 
L 628 4666 
L 2053 4666 
Q 2853 4666 3247 4331 
Q 3641 3997 3641 3322 
Q 3641 2881 3436 2590 
Q 3231 2300 2841 2188 
z
M 1259 4147 
L 1259 2491 
L 2053 2491 
Q 2509 2491 2742 2702 
Q 2975 2913 2975 3322 
Q 2975 3731 2742 3939 
Q 2509 4147 2053 4147 
L 1259 4147 
z
" transform="scale(0.015625)"/>
      <path id="DejaVuSans-65" d="M 3597 1894 
L 3597 1613 
L 953 1613 
Q 991 1019 1311 708 
Q 1631 397 2203 397 
Q 2534 397 2845 478 
Q 3156 559 3463 722 
L 3463 178 
Q 3153 47 2828 -22 
Q 2503 -91 2169 -91 
Q 1331 -91 842 396 
Q 353 884 353 1716 
Q 353 2575 817 3079 
Q 1281 3584 2069 3584 
Q 2775 3584 3186 3129 
Q 3597 2675 3597 1894 
z
M 3022 2063 
Q 3016 2534 2758 2815 
Q 2500 3097 2075 3097 
Q 1594 3097 1305 2825 
Q 1016 2553 972 2059 
L 3022 2063 
z
" transform="scale(0.015625)"/>
      <path id="DejaVuSans-73" d="M 2834 3397 
L 2834 2853 
Q 2591 2978 2328 3040 
Q 2066 3103 1784 3103 
Q 1356 3103 1142 2972 
Q 928 2841 928 2578 
Q 928 2378 1081 2264 
Q 1234 2150 1697 2047 
L 1894 2003 
Q 2506 1872 2764 1633 
Q 3022 1394 3022 966 
Q 3022 478 2636 193 
Q 2250 -91 1575 -91 
Q 1294 -91 989 -36 
Q 684 19 347 128 
L 347 722 
Q 666 556 975 473 
Q 1284 391 1588 391 
Q 1994 391 2212 530 
Q 2431 669 2431 922 
Q 2431 1156 2273 1281 
Q 2116 1406 1581 1522 
L 1381 1569 
Q 847 1681 609 1914 
Q 372 2147 372 2553 
Q 372 3047 722 3315 
Q 1072 3584 1716 3584 
Q 2034 3584 2315 3537 
Q 2597 3491 2834 3397 
z
" transform="scale(0.015625)"/>
      <path id="DejaVuSans-69" d="M 603 3500 
L 1178 3500 
L 1178 0 
L 603 0 
L 603 3500 
z
M 603 4863 
L 1178 4863 
L 1178 4134 
L 603 4134 
L 603 4863 
z
" transform="scale(0.015625)"/>
      <path id="DejaVuSans-76" d="M 191 3500 
L 800 3500 
L 1894 563 
L 2988 3500 
L 3597 3500 
L 2284 0 
L 1503 0 
L 191 3500 
z
" transform="scale(0.015625)"/>
      <path id="DejaVuSans-64" d="M 2906 2969 
L 2906 4863 
L 3481 4863 
L 3481 0 
L 2906 0 
L 2906 525 
Q 2725 213 2448 61 
Q 2172 -91 1784 -91 
Q 1150 -91 751 415 
Q 353 922 353 1747 
Q 353 2572 751 3078 
Q 1150 3584 1784 3584 
Q 2172 3584 2448 3432 
Q 2725 3281 2906 2969 
z
M 947 1747 
Q 947 1113 1208 752 
Q 1469 391 1925 391 
Q 2381 391 2643 752 
Q 2906 1113 2906 1747 
Q 2906 2381 2643 2742 
Q 2381 3103 1925 3103 
Q 1469 3103 1208 2742 
Q 947 2381 947 1747 
z
" transform="scale(0.015625)"/>
      <path id="DejaVuSans-5f" d="M 3263 -1063 
L 3263 -1509 
L -63 -1509 
L -63 -1063 
L 3263 -1063 
z
" transform="scale(0.015625)"/>
      <path id="DejaVuSans-70" d="M 1159 525 
L 1159 -1331 
L 581 -1331 
L 581 3500 
L 1159 3500 
L 1159 2969 
Q 1341 3281 1617 3432 
Q 1894 3584 2278 3584 
Q 2916 3584 3314 3078 
Q 3713 2572 3713 1747 
Q 3713 922 3314 415 
Q 2916 -91 2278 -91 
Q 1894 -91 1617 61 
Q 1341 213 1159 525 
z
M 3116 1747 
Q 3116 2381 2855 2742 
Q 2594 3103 2138 3103 
Q 1681 3103 1420 2742 
Q 1159 2381 1159 1747 
Q 1159 1113 1420 752 
Q 1681 391 2138 391 
Q 2594 391 2855 752 
Q 3116 1113 3116 1747 
z
" transform="scale(0.015625)"/>
      <path id="DejaVuSans-61" d="M 2194 1759 
Q 1497 1759 1228 1600 
Q 959 1441 959 1056 
Q 959 750 1161 570 
Q 1363 391 1709 391 
Q 2188 391 2477 730 
Q 2766 1069 2766 1631 
L 2766 1759 
L 2194 1759 
z
M 3341 1997 
L 3341 0 
L 2766 0 
L 2766 531 
Q 2569 213 2275 61 
Q 1981 -91 1556 -91 
Q 1019 -91 701 211 
Q 384 513 384 1019 
Q 384 1609 779 1909 
Q 1175 2209 1959 2209 
L 2766 2209 
L 2766 2266 
Q 2766 2663 2505 2880 
Q 2244 3097 1772 3097 
Q 1472 3097 1187 3025 
Q 903 2953 641 2809 
L 641 3341 
Q 956 3463 1253 3523 
Q 1550 3584 1831 3584 
Q 2591 3584 2966 3190 
Q 3341 2797 3341 1997 
z
" transform="scale(0.015625)"/>
      <path id="DejaVuSans-63" d="M 3122 3366 
L 3122 2828 
Q 2878 2963 2633 3030 
Q 2388 3097 2138 3097 
Q 1578 3097 1268 2742 
Q 959 2388 959 1747 
Q 959 1106 1268 751 
Q 1578 397 2138 397 
Q 2388 397 2633 464 
Q 2878 531 3122 666 
L 3122 134 
Q 2881 22 2623 -34 
Q 2366 -91 2075 -91 
Q 1284 -91 818 406 
Q 353 903 353 1747 
Q 353 2603 823 3093 
Q 1294 3584 2113 3584 
Q 2378 3584 2631 3529 
Q 2884 3475 3122 3366 
z
" transform="scale(0.015625)"/>
      <path id="DejaVuSans-6b" d="M 581 4863 
L 1159 4863 
L 1159 1991 
L 2875 3500 
L 3609 3500 
L 1753 1863 
L 3688 0 
L 2938 0 
L 1159 1709 
L 1159 0 
L 581 0 
L 581 4863 
z
" transform="scale(0.015625)"/>
      <path id="DejaVuSans-74" d="M 1172 4494 
L 1172 3500 
L 2356 3500 
L 2356 3053 
L 1172 3053 
L 1172 1153 
Q 1172 725 1289 603 
Q 1406 481 1766 481 
L 2356 481 
L 2356 0 
L 1766 0 
Q 1100 0 847 248 
Q 594 497 594 1153 
L 594 3053 
L 172 3053 
L 172 3500 
L 594 3500 
L 594 4494 
L 1172 4494 
z
" transform="scale(0.015625)"/>
      <path id="DejaVuSans-6c" d="M 603 4863 
L 1178 4863 
L 1178 0 
L 603 0 
L 603 4863 
z
" transform="scale(0.015625)"/>
      <path id="DejaVuSans-79" d="M 2059 -325 
Q 1816 -950 1584 -1140 
Q 1353 -1331 966 -1331 
L 506 -1331 
L 506 -850 
L 844 -850 
Q 1081 -850 1212 -737 
Q 1344 -625 1503 -206 
L 1606 56 
L 191 3500 
L 800 3500 
L 1894 763 
L 2988 3500 
L 3597 3500 
L 2059 -325 
z
" transform="scale(0.015625)"/>
     </defs>
     <use xlink:href="#DejaVuSans-52"/>
     <use xlink:href="#DejaVuSans-65" x="64.982422"/>
     <use xlink:href="#DejaVuSans-73" x="126.505859"/>
     <use xlink:href="#DejaVuSans-69" x="178.605469"/>
     <use xlink:href="#DejaVuSans-76" x="206.388672"/>
     <use xlink:href="#DejaVuSans-65" x="265.568359"/>
     <use xlink:href="#DejaVuSans-64" x="327.091797"/>
     <use xlink:href="#DejaVuSans-5f" x="390.568359"/>
     <use xlink:href="#DejaVuSans-70" x="440.568359"/>
     <use xlink:href="#DejaVuSans-61" x="504.044922"/>
     <use xlink:href="#DejaVuSans-63" x="565.324219"/>
     <use xlink:href="#DejaVuSans-6b" x="620.304688"/>
     <use xlink:href="#DejaVuSans-65" x="674.589844"/>
     <use xlink:href="#DejaVuSans-74" x="736.113281"/>
     <use xlink:href="#DejaVuSans-5f" x="775.322266"/>
     <use xlink:href="#DejaVuSans-64" x="825.322266"/>
     <use xlink:href="#DejaVuSans-65" x="888.798828"/>
     <use xlink:href="#DejaVuSans-6c" x="950.322266"/>
     <use xlink:href="#DejaVuSans-61" x="978.105469"/>
     <use xlink:href="#DejaVuSans-79" x="1039.384766"/>
    </g>
   </g>
   <g id="legend_1">
    <g id="patch_7">
     <path d="M 227.03335 48.478125 
L 409.23335 48.478125 
Q 411.23335 48.478125 411.23335 46.478125 
L 411.23335 32.8 
Q 411.23335 30.8 409.23335 30.8 
L 227.03335 30.8 
Q 225.03335 30.8 225.03335 32.8 
L 225.03335 46.478125 
Q 225.03335 48.478125 227.03335 48.478125 
z
" style="fill: #ffffff; opacity: 0.8; stroke: #cccccc; stroke-linejoin: miter"/>
    </g>
    <g id="line2d_30">
     <path d="M 229.03335 38.898437 
L 239.03335 38.898437 
L 249.03335 38.898437 
" style="fill: none; stroke: #1f77b4; stroke-width: 1.5; stroke-linecap: square"/>
    </g>
    <g id="text_16">
     <!-- Delay in Network.nodeRx.sink -->
     <g transform="translate(257.03335 42.398437)scale(0.1 -0.1)">
      <defs>
       <path id="DejaVuSans-44" d="M 1259 4147 
L 1259 519 
L 2022 519 
Q 2988 519 3436 956 
Q 3884 1394 3884 2338 
Q 3884 3275 3436 3711 
Q 2988 4147 2022 4147 
L 1259 4147 
z
M 628 4666 
L 1925 4666 
Q 3281 4666 3915 4102 
Q 4550 3538 4550 2338 
Q 4550 1131 3912 565 
Q 3275 0 1925 0 
L 628 0 
L 628 4666 
z
" transform="scale(0.015625)"/>
       <path id="DejaVuSans-20" transform="scale(0.015625)"/>
       <path id="DejaVuSans-6e" d="M 3513 2113 
L 3513 0 
L 2938 0 
L 2938 2094 
Q 2938 2591 2744 2837 
Q 2550 3084 2163 3084 
Q 1697 3084 1428 2787 
Q 1159 2491 1159 1978 
L 1159 0 
L 581 0 
L 581 3500 
L 1159 3500 
L 1159 2956 
Q 1366 3272 1645 3428 
Q 1925 3584 2291 3584 
Q 2894 3584 3203 3211 
Q 3513 2838 3513 2113 
z
" transform="scale(0.015625)"/>
       <path id="DejaVuSans-4e" d="M 628 4666 
L 1478 4666 
L 3547 763 
L 3547 4666 
L 4159 4666 
L 4159 0 
L 3309 0 
L 1241 3903 
L 1241 0 
L 628 0 
L 628 4666 
z
" transform="scale(0.015625)"/>
       <path id="DejaVuSans-77" d="M 269 3500 
L 844 3500 
L 1563 769 
L 2278 3500 
L 2956 3500 
L 3675 769 
L 4391 3500 
L 4966 3500 
L 4050 0 
L 3372 0 
L 2619 2869 
L 1863 0 
L 1184 0 
L 269 3500 
z
" transform="scale(0.015625)"/>
       <path id="DejaVuSans-6f" d="M 1959 3097 
Q 1497 3097 1228 2736 
Q 959 2375 959 1747 
Q 959 1119 1226 758 
Q 1494 397 1959 397 
Q 2419 397 2687 759 
Q 2956 1122 2956 1747 
Q 2956 2369 2687 2733 
Q 2419 3097 1959 3097 
z
M 1959 3584 
Q 2709 3584 3137 3096 
Q 3566 2609 3566 1747 
Q 3566 888 3137 398 
Q 2709 -91 1959 -91 
Q 1206 -91 779 398 
Q 353 888 353 1747 
Q 353 2609 779 3096 
Q 1206 3584 1959 3584 
z
" transform="scale(0.015625)"/>
       <path id="DejaVuSans-72" d="M 2631 2963 
Q 2534 3019 2420 3045 
Q 2306 3072 2169 3072 
Q 1681 3072 1420 2755 
Q 1159 2438 1159 1844 
L 1159 0 
L 581 0 
L 581 3500 
L 1159 3500 
L 1159 2956 
Q 1341 3275 1631 3429 
Q 1922 3584 2338 3584 
Q 2397 3584 2469 3576 
Q 2541 3569 2628 3553 
L 2631 2963 
z
" transform="scale(0.015625)"/>
       <path id="DejaVuSans-2e" d="M 684 794 
L 1344 794 
L 1344 0 
L 684 0 
L 684 794 
z
" transform="scale(0.015625)"/>
       <path id="DejaVuSans-78" d="M 3513 3500 
L 2247 1797 
L 3578 0 
L 2900 0 
L 1881 1375 
L 863 0 
L 184 0 
L 1544 1831 
L 300 3500 
L 978 3500 
L 1906 2253 
L 2834 3500 
L 3513 3500 
z
" transform="scale(0.015625)"/>
      </defs>
      <use xlink:href="#DejaVuSans-44"/>
      <use xlink:href="#DejaVuSans-65" x="77.001953"/>
      <use xlink:href="#DejaVuSans-6c" x="138.525391"/>
      <use xlink:href="#DejaVuSans-61" x="166.308594"/>
      <use xlink:href="#DejaVuSans-79" x="227.587891"/>
      <use xlink:href="#DejaVuSans-20" x="286.767578"/>
      <use xlink:href="#DejaVuSans-69" x="318.554688"/>
      <use xlink:href="#DejaVuSans-6e" x="346.337891"/>
      <use xlink:href="#DejaVuSans-20" x="409.716797"/>
      <use xlink:href="#DejaVuSans-4e" x="441.503906"/>
      <use xlink:href="#DejaVuSans-65" x="516.308594"/>
      <use xlink:href="#DejaVuSans-74" x="577.832031"/>
      <use xlink:href="#DejaVuSans-77" x="617.041016"/>
      <use xlink:href="#DejaVuSans-6f" x="698.828125"/>
      <use xlink:href="#DejaVuSans-72" x="760.009766"/>
      <use xlink:href="#DejaVuSans-6b" x="801.123047"/>
      <use xlink:href="#DejaVuSans-2e" x="859.033203"/>
      <use xlink:href="#DejaVuSans-6e" x="890.820312"/>
      <use xlink:href="#DejaVuSans-6f" x="954.199219"/>
      <use xlink:href="#DejaVuSans-64" x="1015.380859"/>
      <use xlink:href="#DejaVuSans-65" x="1078.857422"/>
      <use xlink:href="#DejaVuSans-52" x="1140.380859"/>
      <use xlink:href="#DejaVuSans-78" x="1209.863281"/>
      <use xlink:href="#DejaVuSans-2e" x="1269.042969"/>
      <use xlink:href="#DejaVuSans-73" x="1300.830078"/>
      <use xlink:href="#DejaVuSans-69" x="1352.929688"/>
      <use xlink:href="#DejaVuSans-6e" x="1380.712891"/>
      <use xlink:href="#DejaVuSans-6b" x="1444.091797"/>
     </g>
    </g>
   </g>
  </g>
 </g>
 <defs>
  <clipPath id="p33cbf6e0aa">
   <rect x="24.26875" y="25.8" width="391.9646" height="234.65"/>
  </clipPath>
 </defs>
</svg>
