<?xml version="1.0" encoding="utf-8" standalone="no"?>
<!DOCTYPE svg PUBLIC "-//W3C//DTD SVG 1.1//EN"
  "http://www.w3.org/Graphics/SVG/1.1/DTD/svg11.dtd">
<!-- Created with matplotlib (https://matplotlib.org/) -->
<svg height="288pt" version="1.1" viewBox="0 0 432 288" width="432pt" xmlns="http://www.w3.org/2000/svg" xmlns:xlink="http://www.w3.org/1999/xlink">
 <defs>
  <style type="text/css">
*{stroke-linecap:butt;stroke-linejoin:round;}
  </style>
 </defs>
 <g id="figure_1">
  <g id="patch_1">
   <path d="M 0 288 
L 432 288 
L 432 0 
L 0 0 
z
" style="fill:#ffffff;"/>
  </g>
  <g id="axes_1">
   <g id="patch_2">
    <path d="M 45.757813 251.682812 
L 418.562181 251.682812 
L 418.562181 23.638594 
L 45.757813 23.638594 
z
" style="fill:#ffffff;"/>
   </g>
   <g id="matplotlib.axis_1">
    <g id="xtick_1">
     <g id="line2d_1">
      <path clip-path="url(#p8c8e004bfb)" d="M 45.757813 251.682812 
L 45.757813 23.638594 
" style="fill:none;stroke:#b0b0b0;stroke-linecap:square;stroke-width:0.8;"/>
     </g>
     <g id="line2d_2">
      <defs>
       <path d="M 0 0 
L 0 3.5 
" id="mcfcad914cb" style="stroke:#000000;stroke-width:0.8;"/>
      </defs>
      <g>
       <use style="stroke:#000000;stroke-width:0.8;" x="45.757813" xlink:href="#mcfcad914cb" y="251.682812"/>
      </g>
     </g>
     <g id="text_1">
      <!-- 0 -->
      <defs>
       <path d="M 31.78125 66.40625 
Q 24.171875 66.40625 20.328125 58.90625 
Q 16.5 51.421875 16.5 36.375 
Q 16.5 21.390625 20.328125 13.890625 
Q 24.171875 6.390625 31.78125 6.390625 
Q 39.453125 6.390625 43.28125 13.890625 
Q 47.125 21.390625 47.125 36.375 
Q 47.125 51.421875 43.28125 58.90625 
Q 39.453125 66.40625 31.78125 66.40625 
z
M 31.78125 74.21875 
Q 44.046875 74.21875 50.515625 64.515625 
Q 56.984375 54.828125 56.984375 36.375 
Q 56.984375 17.96875 50.515625 8.265625 
Q 44.046875 -1.421875 31.78125 -1.421875 
Q 19.53125 -1.421875 13.0625 8.265625 
Q 6.59375 17.96875 6.59375 36.375 
Q 6.59375 54.828125 13.0625 64.515625 
Q 19.53125 74.21875 31.78125 74.21875 
z
" id="DejaVuSans-48"/>
      </defs>
      <g transform="translate(42.576563 266.28125)scale(0.1 -0.1)">
       <use xlink:href="#DejaVuSans-48"/>
      </g>
     </g>
    </g>
    <g id="xtick_2">
     <g id="line2d_3">
      <path clip-path="url(#p8c8e004bfb)" d="M 91.80437 251.682812 
L 91.80437 23.638594 
" style="fill:none;stroke:#b0b0b0;stroke-linecap:square;stroke-width:0.8;"/>
     </g>
     <g id="line2d_4">
      <g>
       <use style="stroke:#000000;stroke-width:0.8;" x="91.80437" xlink:href="#mcfcad914cb" y="251.682812"/>
      </g>
     </g>
     <g id="text_2">
      <!-- 25 -->
      <defs>
       <path d="M 19.1875 8.296875 
L 53.609375 8.296875 
L 53.609375 0 
L 7.328125 0 
L 7.328125 8.296875 
Q 12.9375 14.109375 22.625 23.890625 
Q 32.328125 33.6875 34.8125 36.53125 
Q 39.546875 41.84375 41.421875 45.53125 
Q 43.3125 49.21875 43.3125 52.78125 
Q 43.3125 58.59375 39.234375 62.25 
Q 35.15625 65.921875 28.609375 65.921875 
Q 23.96875 65.921875 18.8125 64.3125 
Q 13.671875 62.703125 7.8125 59.421875 
L 7.8125 69.390625 
Q 13.765625 71.78125 18.9375 73 
Q 24.125 74.21875 28.421875 74.21875 
Q 39.75 74.21875 46.484375 68.546875 
Q 53.21875 62.890625 53.21875 53.421875 
Q 53.21875 48.921875 51.53125 44.890625 
Q 49.859375 40.875 45.40625 35.40625 
Q 44.1875 33.984375 37.640625 27.21875 
Q 31.109375 20.453125 19.1875 8.296875 
z
" id="DejaVuSans-50"/>
       <path d="M 10.796875 72.90625 
L 49.515625 72.90625 
L 49.515625 64.59375 
L 19.828125 64.59375 
L 19.828125 46.734375 
Q 21.96875 47.46875 24.109375 47.828125 
Q 26.265625 48.1875 28.421875 48.1875 
Q 40.625 48.1875 47.75 41.5 
Q 54.890625 34.8125 54.890625 23.390625 
Q 54.890625 11.625 47.5625 5.09375 
Q 40.234375 -1.421875 26.90625 -1.421875 
Q 22.3125 -1.421875 17.546875 -0.640625 
Q 12.796875 0.140625 7.71875 1.703125 
L 7.71875 11.625 
Q 12.109375 9.234375 16.796875 8.0625 
Q 21.484375 6.890625 26.703125 6.890625 
Q 35.15625 6.890625 40.078125 11.328125 
Q 45.015625 15.765625 45.015625 23.390625 
Q 45.015625 31 40.078125 35.4375 
Q 35.15625 39.890625 26.703125 39.890625 
Q 22.75 39.890625 18.8125 39.015625 
Q 14.890625 38.140625 10.796875 36.28125 
z
" id="DejaVuSans-53"/>
      </defs>
      <g transform="translate(85.44187 266.28125)scale(0.1 -0.1)">
       <use xlink:href="#DejaVuSans-50"/>
       <use x="63.623047" xlink:href="#DejaVuSans-53"/>
      </g>
     </g>
    </g>
    <g id="xtick_3">
     <g id="line2d_5">
      <path clip-path="url(#p8c8e004bfb)" d="M 137.850928 251.682812 
L 137.850928 23.638594 
" style="fill:none;stroke:#b0b0b0;stroke-linecap:square;stroke-width:0.8;"/>
     </g>
     <g id="line2d_6">
      <g>
       <use style="stroke:#000000;stroke-width:0.8;" x="137.850928" xlink:href="#mcfcad914cb" y="251.682812"/>
      </g>
     </g>
     <g id="text_3">
      <!-- 50 -->
      <g transform="translate(131.488428 266.28125)scale(0.1 -0.1)">
       <use xlink:href="#DejaVuSans-53"/>
       <use x="63.623047" xlink:href="#DejaVuSans-48"/>
      </g>
     </g>
    </g>
    <g id="xtick_4">
     <g id="line2d_7">
      <path clip-path="url(#p8c8e004bfb)" d="M 183.897486 251.682812 
L 183.897486 23.638594 
" style="fill:none;stroke:#b0b0b0;stroke-linecap:square;stroke-width:0.8;"/>
     </g>
     <g id="line2d_8">
      <g>
       <use style="stroke:#000000;stroke-width:0.8;" x="183.897486" xlink:href="#mcfcad914cb" y="251.682812"/>
      </g>
     </g>
     <g id="text_4">
      <!-- 75 -->
      <defs>
       <path d="M 8.203125 72.90625 
L 55.078125 72.90625 
L 55.078125 68.703125 
L 28.609375 0 
L 18.3125 0 
L 43.21875 64.59375 
L 8.203125 64.59375 
z
" id="DejaVuSans-55"/>
      </defs>
      <g transform="translate(177.534986 266.28125)scale(0.1 -0.1)">
       <use xlink:href="#DejaVuSans-55"/>
       <use x="63.623047" xlink:href="#DejaVuSans-53"/>
      </g>
     </g>
    </g>
    <g id="xtick_5">
     <g id="line2d_9">
      <path clip-path="url(#p8c8e004bfb)" d="M 229.944043 251.682812 
L 229.944043 23.638594 
" style="fill:none;stroke:#b0b0b0;stroke-linecap:square;stroke-width:0.8;"/>
     </g>
     <g id="line2d_10">
      <g>
       <use style="stroke:#000000;stroke-width:0.8;" x="229.944043" xlink:href="#mcfcad914cb" y="251.682812"/>
      </g>
     </g>
     <g id="text_5">
      <!-- 100 -->
      <defs>
       <path d="M 12.40625 8.296875 
L 28.515625 8.296875 
L 28.515625 63.921875 
L 10.984375 60.40625 
L 10.984375 69.390625 
L 28.421875 72.90625 
L 38.28125 72.90625 
L 38.28125 8.296875 
L 54.390625 8.296875 
L 54.390625 0 
L 12.40625 0 
z
" id="DejaVuSans-49"/>
      </defs>
      <g transform="translate(220.400293 266.28125)scale(0.1 -0.1)">
       <use xlink:href="#DejaVuSans-49"/>
       <use x="63.623047" xlink:href="#DejaVuSans-48"/>
       <use x="127.246094" xlink:href="#DejaVuSans-48"/>
      </g>
     </g>
    </g>
    <g id="xtick_6">
     <g id="line2d_11">
      <path clip-path="url(#p8c8e004bfb)" d="M 275.990601 251.682812 
L 275.990601 23.638594 
" style="fill:none;stroke:#b0b0b0;stroke-linecap:square;stroke-width:0.8;"/>
     </g>
     <g id="line2d_12">
      <g>
       <use style="stroke:#000000;stroke-width:0.8;" x="275.990601" xlink:href="#mcfcad914cb" y="251.682812"/>
      </g>
     </g>
     <g id="text_6">
      <!-- 125 -->
      <g transform="translate(266.446851 266.28125)scale(0.1 -0.1)">
       <use xlink:href="#DejaVuSans-49"/>
       <use x="63.623047" xlink:href="#DejaVuSans-50"/>
       <use x="127.246094" xlink:href="#DejaVuSans-53"/>
      </g>
     </g>
    </g>
    <g id="xtick_7">
     <g id="line2d_13">
      <path clip-path="url(#p8c8e004bfb)" d="M 322.037159 251.682812 
L 322.037159 23.638594 
" style="fill:none;stroke:#b0b0b0;stroke-linecap:square;stroke-width:0.8;"/>
     </g>
     <g id="line2d_14">
      <g>
       <use style="stroke:#000000;stroke-width:0.8;" x="322.037159" xlink:href="#mcfcad914cb" y="251.682812"/>
      </g>
     </g>
     <g id="text_7">
      <!-- 150 -->
      <g transform="translate(312.493409 266.28125)scale(0.1 -0.1)">
       <use xlink:href="#DejaVuSans-49"/>
       <use x="63.623047" xlink:href="#DejaVuSans-53"/>
       <use x="127.246094" xlink:href="#DejaVuSans-48"/>
      </g>
     </g>
    </g>
    <g id="xtick_8">
     <g id="line2d_15">
      <path clip-path="url(#p8c8e004bfb)" d="M 368.083716 251.682812 
L 368.083716 23.638594 
" style="fill:none;stroke:#b0b0b0;stroke-linecap:square;stroke-width:0.8;"/>
     </g>
     <g id="line2d_16">
      <g>
       <use style="stroke:#000000;stroke-width:0.8;" x="368.083716" xlink:href="#mcfcad914cb" y="251.682812"/>
      </g>
     </g>
     <g id="text_8">
      <!-- 175 -->
      <g transform="translate(358.539966 266.28125)scale(0.1 -0.1)">
       <use xlink:href="#DejaVuSans-49"/>
       <use x="63.623047" xlink:href="#DejaVuSans-55"/>
       <use x="127.246094" xlink:href="#DejaVuSans-53"/>
      </g>
     </g>
    </g>
    <g id="xtick_9">
     <g id="line2d_17">
      <path clip-path="url(#p8c8e004bfb)" d="M 414.130274 251.682812 
L 414.130274 23.638594 
" style="fill:none;stroke:#b0b0b0;stroke-linecap:square;stroke-width:0.8;"/>
     </g>
     <g id="line2d_18">
      <g>
       <use style="stroke:#000000;stroke-width:0.8;" x="414.130274" xlink:href="#mcfcad914cb" y="251.682812"/>
      </g>
     </g>
     <g id="text_9">
      <!-- 200 -->
      <g transform="translate(404.586524 266.28125)scale(0.1 -0.1)">
       <use xlink:href="#DejaVuSans-50"/>
       <use x="63.623047" xlink:href="#DejaVuSans-48"/>
       <use x="127.246094" xlink:href="#DejaVuSans-48"/>
      </g>
     </g>
    </g>
    <g id="text_10">
     <!-- Tiempo -->
     <defs>
      <path d="M -0.296875 72.90625 
L 61.375 72.90625 
L 61.375 64.59375 
L 35.5 64.59375 
L 35.5 0 
L 25.59375 0 
L 25.59375 64.59375 
L -0.296875 64.59375 
z
" id="DejaVuSans-84"/>
      <path d="M 9.421875 54.6875 
L 18.40625 54.6875 
L 18.40625 0 
L 9.421875 0 
z
M 9.421875 75.984375 
L 18.40625 75.984375 
L 18.40625 64.59375 
L 9.421875 64.59375 
z
" id="DejaVuSans-105"/>
      <path d="M 56.203125 29.59375 
L 56.203125 25.203125 
L 14.890625 25.203125 
Q 15.484375 15.921875 20.484375 11.0625 
Q 25.484375 6.203125 34.421875 6.203125 
Q 39.59375 6.203125 44.453125 7.46875 
Q 49.3125 8.734375 54.109375 11.28125 
L 54.109375 2.78125 
Q 49.265625 0.734375 44.1875 -0.34375 
Q 39.109375 -1.421875 33.890625 -1.421875 
Q 20.796875 -1.421875 13.15625 6.1875 
Q 5.515625 13.8125 5.515625 26.8125 
Q 5.515625 40.234375 12.765625 48.109375 
Q 20.015625 56 32.328125 56 
Q 43.359375 56 49.78125 48.890625 
Q 56.203125 41.796875 56.203125 29.59375 
z
M 47.21875 32.234375 
Q 47.125 39.59375 43.09375 43.984375 
Q 39.0625 48.390625 32.421875 48.390625 
Q 24.90625 48.390625 20.390625 44.140625 
Q 15.875 39.890625 15.1875 32.171875 
z
" id="DejaVuSans-101"/>
      <path d="M 52 44.1875 
Q 55.375 50.25 60.0625 53.125 
Q 64.75 56 71.09375 56 
Q 79.640625 56 84.28125 50.015625 
Q 88.921875 44.046875 88.921875 33.015625 
L 88.921875 0 
L 79.890625 0 
L 79.890625 32.71875 
Q 79.890625 40.578125 77.09375 44.375 
Q 74.3125 48.1875 68.609375 48.1875 
Q 61.625 48.1875 57.5625 43.546875 
Q 53.515625 38.921875 53.515625 30.90625 
L 53.515625 0 
L 44.484375 0 
L 44.484375 32.71875 
Q 44.484375 40.625 41.703125 44.40625 
Q 38.921875 48.1875 33.109375 48.1875 
Q 26.21875 48.1875 22.15625 43.53125 
Q 18.109375 38.875 18.109375 30.90625 
L 18.109375 0 
L 9.078125 0 
L 9.078125 54.6875 
L 18.109375 54.6875 
L 18.109375 46.1875 
Q 21.1875 51.21875 25.484375 53.609375 
Q 29.78125 56 35.6875 56 
Q 41.65625 56 45.828125 52.96875 
Q 50 49.953125 52 44.1875 
z
" id="DejaVuSans-109"/>
      <path d="M 18.109375 8.203125 
L 18.109375 -20.796875 
L 9.078125 -20.796875 
L 9.078125 54.6875 
L 18.109375 54.6875 
L 18.109375 46.390625 
Q 20.953125 51.265625 25.265625 53.625 
Q 29.59375 56 35.59375 56 
Q 45.5625 56 51.78125 48.09375 
Q 58.015625 40.1875 58.015625 27.296875 
Q 58.015625 14.40625 51.78125 6.484375 
Q 45.5625 -1.421875 35.59375 -1.421875 
Q 29.59375 -1.421875 25.265625 0.953125 
Q 20.953125 3.328125 18.109375 8.203125 
z
M 48.6875 27.296875 
Q 48.6875 37.203125 44.609375 42.84375 
Q 40.53125 48.484375 33.40625 48.484375 
Q 26.265625 48.484375 22.1875 42.84375 
Q 18.109375 37.203125 18.109375 27.296875 
Q 18.109375 17.390625 22.1875 11.75 
Q 26.265625 6.109375 33.40625 6.109375 
Q 40.53125 6.109375 44.609375 11.75 
Q 48.6875 17.390625 48.6875 27.296875 
z
" id="DejaVuSans-112"/>
      <path d="M 30.609375 48.390625 
Q 23.390625 48.390625 19.1875 42.75 
Q 14.984375 37.109375 14.984375 27.296875 
Q 14.984375 17.484375 19.15625 11.84375 
Q 23.34375 6.203125 30.609375 6.203125 
Q 37.796875 6.203125 41.984375 11.859375 
Q 46.1875 17.53125 46.1875 27.296875 
Q 46.1875 37.015625 41.984375 42.703125 
Q 37.796875 48.390625 30.609375 48.390625 
z
M 30.609375 56 
Q 42.328125 56 49.015625 48.375 
Q 55.71875 40.765625 55.71875 27.296875 
Q 55.71875 13.875 49.015625 6.21875 
Q 42.328125 -1.421875 30.609375 -1.421875 
Q 18.84375 -1.421875 12.171875 6.21875 
Q 5.515625 13.875 5.515625 27.296875 
Q 5.515625 40.765625 12.171875 48.375 
Q 18.84375 56 30.609375 56 
z
" id="DejaVuSans-111"/>
     </defs>
     <g transform="translate(213.538903 279.959375)scale(0.1 -0.1)">
      <use xlink:href="#DejaVuSans-84"/>
      <use x="61.037109" xlink:href="#DejaVuSans-105"/>
      <use x="88.820312" xlink:href="#DejaVuSans-101"/>
      <use x="150.34375" xlink:href="#DejaVuSans-109"/>
      <use x="247.755859" xlink:href="#DejaVuSans-112"/>
      <use x="311.232422" xlink:href="#DejaVuSans-111"/>
     </g>
    </g>
   </g>
   <g id="matplotlib.axis_2">
    <g id="ytick_1">
     <g id="line2d_19">
      <path clip-path="url(#p8c8e004bfb)" d="M 45.757813 251.682812 
L 418.562181 251.682812 
" style="fill:none;stroke:#b0b0b0;stroke-linecap:square;stroke-width:0.8;"/>
     </g>
     <g id="line2d_20">
      <defs>
       <path d="M 0 0 
L -3.5 0 
" id="m57d2369ce9" style="stroke:#000000;stroke-width:0.8;"/>
      </defs>
      <g>
       <use style="stroke:#000000;stroke-width:0.8;" x="45.757813" xlink:href="#m57d2369ce9" y="251.682812"/>
      </g>
     </g>
     <g id="text_11">
      <!-- 0.00 -->
      <defs>
       <path d="M 10.6875 12.40625 
L 21 12.40625 
L 21 0 
L 10.6875 0 
z
" id="DejaVuSans-46"/>
      </defs>
      <g transform="translate(16.492188 255.482031)scale(0.1 -0.1)">
       <use xlink:href="#DejaVuSans-48"/>
       <use x="63.623047" xlink:href="#DejaVuSans-46"/>
       <use x="95.410156" xlink:href="#DejaVuSans-48"/>
       <use x="159.033203" xlink:href="#DejaVuSans-48"/>
      </g>
     </g>
    </g>
    <g id="ytick_2">
     <g id="line2d_21">
      <path clip-path="url(#p8c8e004bfb)" d="M 45.757813 220.840255 
L 418.562181 220.840255 
" style="fill:none;stroke:#b0b0b0;stroke-linecap:square;stroke-width:0.8;"/>
     </g>
     <g id="line2d_22">
      <g>
       <use style="stroke:#000000;stroke-width:0.8;" x="45.757813" xlink:href="#m57d2369ce9" y="220.840255"/>
      </g>
     </g>
     <g id="text_12">
      <!-- 0.25 -->
      <g transform="translate(16.492188 224.639473)scale(0.1 -0.1)">
       <use xlink:href="#DejaVuSans-48"/>
       <use x="63.623047" xlink:href="#DejaVuSans-46"/>
       <use x="95.410156" xlink:href="#DejaVuSans-50"/>
       <use x="159.033203" xlink:href="#DejaVuSans-53"/>
      </g>
     </g>
    </g>
    <g id="ytick_3">
     <g id="line2d_23">
      <path clip-path="url(#p8c8e004bfb)" d="M 45.757813 189.997697 
L 418.562181 189.997697 
" style="fill:none;stroke:#b0b0b0;stroke-linecap:square;stroke-width:0.8;"/>
     </g>
     <g id="line2d_24">
      <g>
       <use style="stroke:#000000;stroke-width:0.8;" x="45.757813" xlink:href="#m57d2369ce9" y="189.997697"/>
      </g>
     </g>
     <g id="text_13">
      <!-- 0.50 -->
      <g transform="translate(16.492188 193.796915)scale(0.1 -0.1)">
       <use xlink:href="#DejaVuSans-48"/>
       <use x="63.623047" xlink:href="#DejaVuSans-46"/>
       <use x="95.410156" xlink:href="#DejaVuSans-53"/>
       <use x="159.033203" xlink:href="#DejaVuSans-48"/>
      </g>
     </g>
    </g>
    <g id="ytick_4">
     <g id="line2d_25">
      <path clip-path="url(#p8c8e004bfb)" d="M 45.757813 159.155139 
L 418.562181 159.155139 
" style="fill:none;stroke:#b0b0b0;stroke-linecap:square;stroke-width:0.8;"/>
     </g>
     <g id="line2d_26">
      <g>
       <use style="stroke:#000000;stroke-width:0.8;" x="45.757813" xlink:href="#m57d2369ce9" y="159.155139"/>
      </g>
     </g>
     <g id="text_14">
      <!-- 0.75 -->
      <g transform="translate(16.492188 162.954358)scale(0.1 -0.1)">
       <use xlink:href="#DejaVuSans-48"/>
       <use x="63.623047" xlink:href="#DejaVuSans-46"/>
       <use x="95.410156" xlink:href="#DejaVuSans-55"/>
       <use x="159.033203" xlink:href="#DejaVuSans-53"/>
      </g>
     </g>
    </g>
    <g id="ytick_5">
     <g id="line2d_27">
      <path clip-path="url(#p8c8e004bfb)" d="M 45.757813 128.312581 
L 418.562181 128.312581 
" style="fill:none;stroke:#b0b0b0;stroke-linecap:square;stroke-width:0.8;"/>
     </g>
     <g id="line2d_28">
      <g>
       <use style="stroke:#000000;stroke-width:0.8;" x="45.757813" xlink:href="#m57d2369ce9" y="128.312581"/>
      </g>
     </g>
     <g id="text_15">
      <!-- 1.00 -->
      <g transform="translate(16.492188 132.1118)scale(0.1 -0.1)">
       <use xlink:href="#DejaVuSans-49"/>
       <use x="63.623047" xlink:href="#DejaVuSans-46"/>
       <use x="95.410156" xlink:href="#DejaVuSans-48"/>
       <use x="159.033203" xlink:href="#DejaVuSans-48"/>
      </g>
     </g>
    </g>
    <g id="ytick_6">
     <g id="line2d_29">
      <path clip-path="url(#p8c8e004bfb)" d="M 45.757813 97.470023 
L 418.562181 97.470023 
" style="fill:none;stroke:#b0b0b0;stroke-linecap:square;stroke-width:0.8;"/>
     </g>
     <g id="line2d_30">
      <g>
       <use style="stroke:#000000;stroke-width:0.8;" x="45.757813" xlink:href="#m57d2369ce9" y="97.470023"/>
      </g>
     </g>
     <g id="text_16">
      <!-- 1.25 -->
      <g transform="translate(16.492188 101.269242)scale(0.1 -0.1)">
       <use xlink:href="#DejaVuSans-49"/>
       <use x="63.623047" xlink:href="#DejaVuSans-46"/>
       <use x="95.410156" xlink:href="#DejaVuSans-50"/>
       <use x="159.033203" xlink:href="#DejaVuSans-53"/>
      </g>
     </g>
    </g>
    <g id="ytick_7">
     <g id="line2d_31">
      <path clip-path="url(#p8c8e004bfb)" d="M 45.757813 66.627465 
L 418.562181 66.627465 
" style="fill:none;stroke:#b0b0b0;stroke-linecap:square;stroke-width:0.8;"/>
     </g>
     <g id="line2d_32">
      <g>
       <use style="stroke:#000000;stroke-width:0.8;" x="45.757813" xlink:href="#m57d2369ce9" y="66.627465"/>
      </g>
     </g>
     <g id="text_17">
      <!-- 1.50 -->
      <g transform="translate(16.492188 70.426684)scale(0.1 -0.1)">
       <use xlink:href="#DejaVuSans-49"/>
       <use x="63.623047" xlink:href="#DejaVuSans-46"/>
       <use x="95.410156" xlink:href="#DejaVuSans-53"/>
       <use x="159.033203" xlink:href="#DejaVuSans-48"/>
      </g>
     </g>
    </g>
    <g id="ytick_8">
     <g id="line2d_33">
      <path clip-path="url(#p8c8e004bfb)" d="M 45.757813 35.784907 
L 418.562181 35.784907 
" style="fill:none;stroke:#b0b0b0;stroke-linecap:square;stroke-width:0.8;"/>
     </g>
     <g id="line2d_34">
      <g>
       <use style="stroke:#000000;stroke-width:0.8;" x="45.757813" xlink:href="#m57d2369ce9" y="35.784907"/>
      </g>
     </g>
     <g id="text_18">
      <!-- 1.75 -->
      <g transform="translate(16.492188 39.584126)scale(0.1 -0.1)">
       <use xlink:href="#DejaVuSans-49"/>
       <use x="63.623047" xlink:href="#DejaVuSans-46"/>
       <use x="95.410156" xlink:href="#DejaVuSans-55"/>
       <use x="159.033203" xlink:href="#DejaVuSans-53"/>
      </g>
     </g>
    </g>
    <g id="text_19">
     <!-- Tiempo -->
     <g transform="translate(10.4125 156.281797)rotate(-90)scale(0.1 -0.1)">
      <use xlink:href="#DejaVuSans-84"/>
      <use x="61.037109" xlink:href="#DejaVuSans-105"/>
      <use x="88.820312" xlink:href="#DejaVuSans-101"/>
      <use x="150.34375" xlink:href="#DejaVuSans-109"/>
      <use x="247.755859" xlink:href="#DejaVuSans-112"/>
      <use x="311.232422" xlink:href="#DejaVuSans-111"/>
     </g>
    </g>
   </g>
   <g id="line2d_35">
    <path clip-path="url(#p8c8e004bfb)" d="M 46.98074 199.22579 
L 52.260454 199.22579 
L 52.628827 194.946638 
L 53.104794 199.22579 
L 53.678438 199.22579 
L 54.046811 192.506856 
L 54.415183 189.133391 
L 54.783555 177.530142 
L 55.688277 199.22579 
L 56.056649 176.712623 
L 57.552221 199.22579 
L 57.920594 186.334445 
L 58.288966 179.55903 
L 58.657339 178.921687 
L 59.221115 199.22579 
L 60.561006 199.22579 
L 60.929379 198.752637 
L 61.386151 199.22579 
L 61.754523 193.01553 
L 63.097495 199.22579 
L 64.096725 199.22579 
L 64.465097 177.278918 
L 64.83347 167.837813 
L 65.201842 146.537734 
L 65.570215 160.525914 
L 65.938587 136.60784 
L 66.30696 128.931059 
L 66.675332 170.413842 
L 67.985836 199.22579 
L 68.817871 199.22579 
L 69.186243 180.148959 
L 70.028828 199.22579 
L 73.281251 199.22579 
L 73.649624 198.302086 
L 74.522822 199.22579 
L 75.414653 199.22579 
L 75.783026 197.458985 
L 76.162759 199.22579 
L 77.628407 199.22579 
L 77.99678 179.21049 
L 78.402598 199.22579 
L 79.449008 199.22579 
L 79.81738 180.278455 
L 81.559774 199.22579 
L 82.752854 199.22579 
L 83.121227 178.694991 
L 83.489599 173.842805 
L 83.857972 172.918565 
L 84.594716 142.575051 
L 85.331461 197.729379 
L 85.699834 195.598125 
L 86.068206 179.956574 
L 86.436579 186.384214 
L 87.541696 132.940874 
L 87.910069 143.848564 
L 88.278441 125.175363 
L 88.646814 135.550676 
L 89.015186 120.182765 
L 89.383558 131.022615 
L 89.751931 124.430588 
L 90.225489 199.22579 
L 92.145107 199.22579 
L 92.513479 196.674965 
L 92.881852 188.490035 
L 93.250224 198.957799 
L 93.618597 195.547811 
L 94.849132 199.22579 
L 95.510051 199.22579 
L 96.246796 156.046574 
L 97.536223 199.22579 
L 99.342175 199.22579 
L 100.07892 165.556799 
L 100.447293 157.29361 
L 100.815665 137.728153 
L 101.184038 164.464063 
L 101.55241 153.815804 
L 101.920783 163.786397 
L 102.657527 145.720601 
L 103.0259 152.299731 
L 103.394272 129.075895 
L 103.762645 125.769239 
L 104.131017 138.323554 
L 105.683145 199.22579 
L 107.447436 199.22579 
L 107.815808 178.535434 
L 108.18418 193.012675 
L 108.552553 177.010378 
L 108.920925 189.644202 
L 109.289298 171.480904 
L 111.836849 199.22579 
L 112.903651 199.22579 
L 113.272024 185.361957 
L 113.640396 180.491226 
L 114.008769 179.057969 
L 114.377141 178.210946 
L 114.745514 163.910252 
L 115.113886 175.39099 
L 115.482259 157.124576 
L 115.850631 147.717641 
L 116.219004 127.37224 
L 116.955748 159.124301 
L 117.324121 148.572045 
L 117.692493 129.401999 
L 118.060866 160.490137 
L 118.429238 143.917096 
L 119.254102 199.22579 
L 119.622474 191.577352 
L 120.108514 199.22579 
L 121.059099 199.22579 
L 121.795843 154.163929 
L 122.164216 165.579448 
L 122.667448 199.22579 
L 123.286211 199.22579 
L 123.654583 178.291149 
L 125.316656 199.22579 
L 128.551529 199.22579 
L 128.919902 197.955197 
L 129.294677 199.22579 
L 131.373362 199.22579 
L 131.741735 176.673475 
L 132.110107 186.36341 
L 132.47848 183.89404 
L 132.992358 199.22579 
L 133.729103 152.104521 
L 134.097475 149.003427 
L 134.465848 136.63224 
L 135.681675 199.22579 
L 136.050048 179.291262 
L 136.41842 171.102666 
L 136.786793 159.426022 
L 137.155165 159.018146 
L 137.523537 139.021878 
L 137.89191 157.535069 
L 138.260282 147.025194 
L 138.654717 199.22579 
L 139.023089 194.348387 
L 140.33383 199.22579 
L 141.070575 161.376772 
L 141.438947 180.345791 
L 142.175692 192.766992 
L 143.186173 199.22579 
L 143.554546 185.966507 
L 143.922918 187.616507 
L 145.53234 199.22579 
L 145.900712 178.202897 
L 146.990517 199.22579 
L 147.464555 199.22579 
L 147.832927 177.763212 
L 148.97637 199.22579 
L 149.713115 176.114868 
L 150.081487 151.788753 
L 150.44986 167.858192 
L 151.002312 199.22579 
L 151.370685 179.782545 
L 151.739057 193.665914 
L 152.352238 199.22579 
L 153.369655 199.22579 
L 154.1064 173.904243 
L 154.474772 156.719403 
L 154.843145 150.817376 
L 155.211517 158.82888 
L 155.57989 163.941246 
L 156.316635 122.016268 
L 156.685007 162.694187 
L 157.05338 155.109295 
L 157.790124 111.795785 
L 158.158497 129.04174 
L 158.526869 135.571098 
L 158.895242 122.545237 
L 159.631987 167.40018 
L 160.000359 155.322731 
L 161.154615 199.22579 
L 161.522988 195.570484 
L 161.89136 181.48238 
L 162.406133 199.22579 
L 162.880445 199.22579 
L 163.248818 193.218047 
L 163.654544 199.22579 
L 165.937503 199.22579 
L 166.305875 183.894078 
L 167.304492 199.22579 
L 169.620757 199.22579 
L 170.357502 193.883986 
L 171.312948 199.22579 
L 174.100742 199.22579 
L 174.469115 179.123597 
L 174.837487 167.515203 
L 175.20586 196.75957 
L 176.097848 199.22579 
L 176.834593 188.211589 
L 177.29194 199.22579 
L 178.468614 199.22579 
L 178.836986 185.189113 
L 179.205359 192.734528 
L 179.573731 181.966979 
L 180.495684 199.22579 
L 187.338844 199.22579 
L 187.707216 184.250762 
L 188.075589 197.801638 
L 188.812334 187.452361 
L 189.180706 198.473772 
L 189.684686 199.22579 
L 190.053059 198.390748 
L 190.421431 174.433968 
L 190.789804 173.266678 
L 191.158176 161.876911 
L 191.526549 183.801412 
L 191.894921 199.074161 
L 192.631666 174.977402 
L 193.000039 168.203229 
L 193.368411 179.147713 
L 193.832831 199.22579 
L 194.201204 195.276502 
L 195.306731 199.22579 
L 196.043476 159.28299 
L 196.411849 147.719158 
L 196.780221 126.632326 
L 197.148594 133.191495 
L 197.516966 124.692323 
L 197.885339 133.096145 
L 198.253711 138.125406 
L 198.622083 145.061765 
L 198.990456 121.653623 
L 199.358828 136.174647 
L 200.336283 199.22579 
L 200.919702 199.22579 
L 201.288074 188.879842 
L 201.656447 185.102635 
L 202.024819 169.684372 
L 202.837332 199.22579 
L 203.205705 180.188294 
L 203.574077 172.471716 
L 203.94245 151.584665 
L 204.310822 148.098033 
L 205.83389 199.22579 
L 207.063286 199.22579 
L 207.431659 185.713021 
L 208.136611 199.22579 
L 209.234599 199.22579 
L 209.602971 196.539039 
L 210.339716 154.981572 
L 211.071221 199.22579 
L 211.439593 190.627341 
L 212.003362 199.22579 
L 212.371734 197.996873 
L 216.091662 199.22579 
L 217.108223 199.22579 
L 217.476595 180.542729 
L 218.496276 199.22579 
L 219.61571 199.22579 
L 220.352455 157.857598 
L 220.720827 159.458374 
L 221.0892 170.165667 
L 221.825945 132.465784 
L 222.704495 199.22579 
L 224.720619 199.22579 
L 225.088991 194.167717 
L 225.478665 199.22579 
L 225.847038 180.13268 
L 226.21541 174.810613 
L 226.952155 129.365788 
L 228.146955 199.22579 
L 228.807505 199.22579 
L 229.175877 191.846001 
L 229.544249 189.53771 
L 229.912622 185.029408 
L 230.408136 199.22579 
L 230.776509 176.473083 
L 231.548996 199.22579 
L 231.917368 191.388518 
L 233.850332 199.22579 
L 234.218705 175.172337 
L 234.92967 199.22579 
L 235.298043 184.260832 
L 235.666415 160.022896 
L 236.034788 188.933257 
L 236.40316 180.775505 
L 237.721623 199.22579 
L 239.211094 199.22579 
L 239.579467 181.520742 
L 239.947839 172.191949 
L 240.316212 174.762902 
L 240.684584 174.977339 
L 241.052957 152.371103 
L 241.421329 143.018859 
L 242.158074 109.251269 
L 242.894819 67.535393 
L 243.263191 101.280089 
L 243.631564 99.649037 
L 243.999936 84.357508 
L 244.368309 136.519591 
L 244.736681 127.525547 
L 245.260109 199.22579 
L 248.407548 199.22579 
L 248.775921 175.749304 
L 249.271302 199.22579 
L 249.639674 181.212157 
L 250.008047 182.194176 
L 250.376419 193.475723 
L 250.744791 170.714517 
L 251.113164 177.904175 
L 251.481536 197.679346 
L 251.849909 183.060026 
L 254.304569 199.22579 
L 255.808273 199.22579 
L 256.176646 186.060995 
L 256.545018 196.615184 
L 257.134079 199.22579 
L 262.490045 199.22579 
L 262.858418 188.389683 
L 263.22679 193.619842 
L 263.595163 187.742427 
L 265.437025 107.999637 
L 265.805398 190.253368 
L 266.17377 196.778868 
L 266.880622 199.22579 
L 267.248995 196.820526 
L 267.617367 197.100993 
L 269.5276 199.22579 
L 269.895973 184.101072 
L 270.300713 199.22579 
L 270.669086 185.414776 
L 271.774203 119.05421 
L 272.142576 115.472682 
L 272.510948 115.56325 
L 272.879321 104.719123 
L 273.247693 158.829433 
L 273.616065 178.26733 
L 275.373434 199.22579 
L 275.741806 192.110398 
L 276.166828 199.22579 
L 276.535201 181.878741 
L 276.903573 186.146453 
L 277.271946 162.397252 
L 277.787644 199.22579 
L 278.156017 177.128368 
L 278.578659 199.22579 
L 279.207216 199.22579 
L 279.575589 198.65449 
L 279.943961 196.356641 
L 280.525714 199.22579 
L 285.977742 199.22579 
L 286.346114 198.014172 
L 286.714487 182.389 
L 287.082859 180.248511 
L 287.451232 195.838971 
L 288.709634 199.22579 
L 289.078007 185.862508 
L 290.183124 127.711258 
L 291.079208 199.22579 
L 291.447581 188.826458 
L 292.589645 199.22579 
L 292.958017 192.451718 
L 293.430357 199.22579 
L 293.920754 199.22579 
L 294.289126 189.081291 
L 295.120202 199.22579 
L 296.073295 199.22579 
L 296.441667 174.553792 
L 297.21205 199.22579 
L 297.948795 175.538876 
L 298.317167 171.375285 
L 298.785311 199.22579 
L 299.982022 199.22579 
L 300.350395 182.151884 
L 300.724885 199.22579 
L 302.411949 199.22579 
L 302.780321 197.093136 
L 303.39117 199.22579 
L 303.759543 198.997669 
L 304.127915 183.306894 
L 304.749296 199.22579 
L 306.376294 199.22579 
L 306.744666 184.198314 
L 307.24555 199.22579 
L 308.418493 199.22579 
L 309.52361 158.857977 
L 310.665417 199.22579 
L 311.068911 199.22579 
L 311.437283 198.171787 
L 311.805656 174.459945 
L 312.174028 195.80364 
L 312.910773 161.237756 
L 313.279146 157.024849 
L 313.647518 180.871292 
L 314.01589 173.543464 
L 314.384263 187.331529 
L 314.752635 185.709062 
L 315.857753 140.31475 
L 316.226125 148.350556 
L 316.594498 184.673572 
L 317.479063 199.22579 
L 318.238655 199.22579 
L 318.607027 179.179334 
L 318.9754 196.085762 
L 319.343772 198.375162 
L 319.712145 185.700072 
L 320.448889 148.710104 
L 321.185634 191.179517 
L 321.554007 185.16941 
L 321.922379 183.517616 
L 322.290752 189.687789 
L 323.162444 199.22579 
L 324.635934 128.970878 
L 325.004307 129.077245 
L 325.372679 109.338278 
L 325.741052 100.928945 
L 326.109424 123.644774 
L 326.5396 199.22579 
L 326.907973 175.696359 
L 327.357653 199.22579 
L 328.880121 199.22579 
L 329.248494 178.148023 
L 330.227071 199.22579 
L 330.595444 183.626787 
L 330.963816 162.176723 
L 331.332189 188.700698 
L 331.700561 193.76104 
L 332.345936 199.22579 
L 332.831201 199.22579 
L 333.199573 176.279707 
L 334.663035 199.22579 
L 335.39978 171.350611 
L 336.136525 144.715569 
L 336.504897 161.898025 
L 337.610015 94.810507 
L 337.978387 100.157658 
L 338.346759 173.657639 
L 338.715132 149.327167 
L 339.083504 165.676551 
L 339.571704 199.22579 
L 342.717862 199.22579 
L 343.086235 186.799072 
L 343.57245 199.22579 
L 344.060293 199.22579 
L 344.797038 159.742413 
L 345.16541 161.651437 
L 345.533783 161.582637 
L 345.902155 169.055137 
L 347.548142 199.22579 
L 350.075092 199.22579 
L 350.443465 189.827317 
L 350.811837 174.273384 
L 352.240054 199.22579 
L 352.608426 197.0278 
L 352.976799 182.109024 
L 353.887643 199.22579 
L 362.185263 199.22579 
L 362.553635 187.385454 
L 363.405415 199.22579 
L 364.449807 199.22579 
L 364.818179 182.549696 
L 365.186552 193.48074 
L 365.920912 199.22579 
L 366.289284 175.044925 
L 367.95045 199.22579 
L 368.318823 190.33829 
L 369.281722 199.22579 
L 369.650094 180.48588 
L 370.208033 199.22579 
L 374.744434 199.22579 
L 375.112806 198.638449 
L 375.877993 199.22579 
L 376.258122 199.22579 
L 376.626495 174.701873 
L 376.994867 187.786041 
L 377.36324 174.733393 
L 377.731612 167.076715 
L 378.099985 161.961806 
L 378.468357 142.736716 
L 378.83673 138.752141 
L 379.205102 177.982643 
L 379.573475 166.395584 
L 379.941847 149.5136 
L 380.31022 143.815671 
L 380.678592 145.643228 
L 381.415337 110.45526 
L 382.271332 199.22579 
L 382.639704 178.362713 
L 383.008077 172.974351 
L 383.711265 199.22579 
L 386.170747 199.22579 
L 386.539119 190.133156 
L 388.19364 199.22579 
L 390.362809 199.22579 
L 390.731182 194.166189 
L 391.477537 199.22579 
L 392.582654 175.550662 
L 392.951026 154.006993 
L 393.319399 142.630799 
L 393.687771 137.312345 
L 394.056144 167.882211 
L 394.424516 152.989097 
L 395.174507 199.22579 
L 395.54288 179.811961 
L 395.911252 169.70186 
L 396.279624 147.059994 
L 397.188802 199.22579 
L 397.903342 199.22579 
L 398.640087 150.822954 
L 399.008459 154.367024 
L 399.376832 184.180828 
L 399.745204 172.950765 
L 400.113577 154.159005 
L 400.625649 199.22579 
L 400.994021 177.618565 
L 401.362394 163.622683 
L 401.730766 142.423034 
L 403.042806 199.22579 
L 403.411179 184.971249 
L 404.147924 176.762894 
L 404.58331 199.22579 
L 407.100047 199.22579 
L 407.468419 192.186726 
L 408.080796 199.22579 
L 408.449169 178.309629 
L 409.185914 151.577591 
L 409.554286 132.120916 
L 409.922659 140.620973 
L 410.291031 118.055319 
L 410.659404 117.3339 
L 411.027776 105.945396 
L 411.396148 106.042965 
L 411.764521 92.619231 
L 412.501266 88.517302 
L 412.869638 91.364065 
L 413.238011 109.243177 
L 413.606383 106.162268 
L 413.974756 125.512751 
L 413.974756 125.512751 
" style="fill:none;stroke:#1f77b4;stroke-linecap:square;stroke-width:1.5;"/>
   </g>
   <g id="patch_3">
    <path d="M 45.757813 251.682812 
L 45.757813 23.638594 
" style="fill:none;stroke:#000000;stroke-linecap:square;stroke-linejoin:miter;stroke-width:0.8;"/>
   </g>
   <g id="patch_4">
    <path d="M 418.562181 251.682812 
L 418.562181 23.638594 
" style="fill:none;stroke:#000000;stroke-linecap:square;stroke-linejoin:miter;stroke-width:0.8;"/>
   </g>
   <g id="patch_5">
    <path d="M 45.757813 251.682812 
L 418.562181 251.682812 
" style="fill:none;stroke:#000000;stroke-linecap:square;stroke-linejoin:miter;stroke-width:0.8;"/>
   </g>
   <g id="patch_6">
    <path d="M 45.757813 23.638594 
L 418.562181 23.638594 
" style="fill:none;stroke:#000000;stroke-linecap:square;stroke-linejoin:miter;stroke-width:0.8;"/>
   </g>
   <g id="text_20">
    <!-- Retraso en paquetes recibidos -->
    <defs>
     <path d="M 44.390625 34.1875 
Q 47.5625 33.109375 50.5625 29.59375 
Q 53.5625 26.078125 56.59375 19.921875 
L 66.609375 0 
L 56 0 
L 46.6875 18.703125 
Q 43.0625 26.03125 39.671875 28.421875 
Q 36.28125 30.8125 30.421875 30.8125 
L 19.671875 30.8125 
L 19.671875 0 
L 9.8125 0 
L 9.8125 72.90625 
L 32.078125 72.90625 
Q 44.578125 72.90625 50.734375 67.671875 
Q 56.890625 62.453125 56.890625 51.90625 
Q 56.890625 45.015625 53.6875 40.46875 
Q 50.484375 35.9375 44.390625 34.1875 
z
M 19.671875 64.796875 
L 19.671875 38.921875 
L 32.078125 38.921875 
Q 39.203125 38.921875 42.84375 42.21875 
Q 46.484375 45.515625 46.484375 51.90625 
Q 46.484375 58.296875 42.84375 61.546875 
Q 39.203125 64.796875 32.078125 64.796875 
z
" id="DejaVuSans-82"/>
     <path d="M 18.3125 70.21875 
L 18.3125 54.6875 
L 36.8125 54.6875 
L 36.8125 47.703125 
L 18.3125 47.703125 
L 18.3125 18.015625 
Q 18.3125 11.328125 20.140625 9.421875 
Q 21.96875 7.515625 27.59375 7.515625 
L 36.8125 7.515625 
L 36.8125 0 
L 27.59375 0 
Q 17.1875 0 13.234375 3.875 
Q 9.28125 7.765625 9.28125 18.015625 
L 9.28125 47.703125 
L 2.6875 47.703125 
L 2.6875 54.6875 
L 9.28125 54.6875 
L 9.28125 70.21875 
z
" id="DejaVuSans-116"/>
     <path d="M 41.109375 46.296875 
Q 39.59375 47.171875 37.8125 47.578125 
Q 36.03125 48 33.890625 48 
Q 26.265625 48 22.1875 43.046875 
Q 18.109375 38.09375 18.109375 28.8125 
L 18.109375 0 
L 9.078125 0 
L 9.078125 54.6875 
L 18.109375 54.6875 
L 18.109375 46.1875 
Q 20.953125 51.171875 25.484375 53.578125 
Q 30.03125 56 36.53125 56 
Q 37.453125 56 38.578125 55.875 
Q 39.703125 55.765625 41.0625 55.515625 
z
" id="DejaVuSans-114"/>
     <path d="M 34.28125 27.484375 
Q 23.390625 27.484375 19.1875 25 
Q 14.984375 22.515625 14.984375 16.5 
Q 14.984375 11.71875 18.140625 8.90625 
Q 21.296875 6.109375 26.703125 6.109375 
Q 34.1875 6.109375 38.703125 11.40625 
Q 43.21875 16.703125 43.21875 25.484375 
L 43.21875 27.484375 
z
M 52.203125 31.203125 
L 52.203125 0 
L 43.21875 0 
L 43.21875 8.296875 
Q 40.140625 3.328125 35.546875 0.953125 
Q 30.953125 -1.421875 24.3125 -1.421875 
Q 15.921875 -1.421875 10.953125 3.296875 
Q 6 8.015625 6 15.921875 
Q 6 25.140625 12.171875 29.828125 
Q 18.359375 34.515625 30.609375 34.515625 
L 43.21875 34.515625 
L 43.21875 35.40625 
Q 43.21875 41.609375 39.140625 45 
Q 35.0625 48.390625 27.6875 48.390625 
Q 23 48.390625 18.546875 47.265625 
Q 14.109375 46.140625 10.015625 43.890625 
L 10.015625 52.203125 
Q 14.9375 54.109375 19.578125 55.046875 
Q 24.21875 56 28.609375 56 
Q 40.484375 56 46.34375 49.84375 
Q 52.203125 43.703125 52.203125 31.203125 
z
" id="DejaVuSans-97"/>
     <path d="M 44.28125 53.078125 
L 44.28125 44.578125 
Q 40.484375 46.53125 36.375 47.5 
Q 32.28125 48.484375 27.875 48.484375 
Q 21.1875 48.484375 17.84375 46.4375 
Q 14.5 44.390625 14.5 40.28125 
Q 14.5 37.15625 16.890625 35.375 
Q 19.28125 33.59375 26.515625 31.984375 
L 29.59375 31.296875 
Q 39.15625 29.25 43.1875 25.515625 
Q 47.21875 21.78125 47.21875 15.09375 
Q 47.21875 7.46875 41.1875 3.015625 
Q 35.15625 -1.421875 24.609375 -1.421875 
Q 20.21875 -1.421875 15.453125 -0.5625 
Q 10.6875 0.296875 5.421875 2 
L 5.421875 11.28125 
Q 10.40625 8.6875 15.234375 7.390625 
Q 20.0625 6.109375 24.8125 6.109375 
Q 31.15625 6.109375 34.5625 8.28125 
Q 37.984375 10.453125 37.984375 14.40625 
Q 37.984375 18.0625 35.515625 20.015625 
Q 33.0625 21.96875 24.703125 23.78125 
L 21.578125 24.515625 
Q 13.234375 26.265625 9.515625 29.90625 
Q 5.8125 33.546875 5.8125 39.890625 
Q 5.8125 47.609375 11.28125 51.796875 
Q 16.75 56 26.8125 56 
Q 31.78125 56 36.171875 55.265625 
Q 40.578125 54.546875 44.28125 53.078125 
z
" id="DejaVuSans-115"/>
     <path id="DejaVuSans-32"/>
     <path d="M 54.890625 33.015625 
L 54.890625 0 
L 45.90625 0 
L 45.90625 32.71875 
Q 45.90625 40.484375 42.875 44.328125 
Q 39.84375 48.1875 33.796875 48.1875 
Q 26.515625 48.1875 22.3125 43.546875 
Q 18.109375 38.921875 18.109375 30.90625 
L 18.109375 0 
L 9.078125 0 
L 9.078125 54.6875 
L 18.109375 54.6875 
L 18.109375 46.1875 
Q 21.34375 51.125 25.703125 53.5625 
Q 30.078125 56 35.796875 56 
Q 45.21875 56 50.046875 50.171875 
Q 54.890625 44.34375 54.890625 33.015625 
z
" id="DejaVuSans-110"/>
     <path d="M 14.796875 27.296875 
Q 14.796875 17.390625 18.875 11.75 
Q 22.953125 6.109375 30.078125 6.109375 
Q 37.203125 6.109375 41.296875 11.75 
Q 45.40625 17.390625 45.40625 27.296875 
Q 45.40625 37.203125 41.296875 42.84375 
Q 37.203125 48.484375 30.078125 48.484375 
Q 22.953125 48.484375 18.875 42.84375 
Q 14.796875 37.203125 14.796875 27.296875 
z
M 45.40625 8.203125 
Q 42.578125 3.328125 38.25 0.953125 
Q 33.9375 -1.421875 27.875 -1.421875 
Q 17.96875 -1.421875 11.734375 6.484375 
Q 5.515625 14.40625 5.515625 27.296875 
Q 5.515625 40.1875 11.734375 48.09375 
Q 17.96875 56 27.875 56 
Q 33.9375 56 38.25 53.625 
Q 42.578125 51.265625 45.40625 46.390625 
L 45.40625 54.6875 
L 54.390625 54.6875 
L 54.390625 -20.796875 
L 45.40625 -20.796875 
z
" id="DejaVuSans-113"/>
     <path d="M 8.5 21.578125 
L 8.5 54.6875 
L 17.484375 54.6875 
L 17.484375 21.921875 
Q 17.484375 14.15625 20.5 10.265625 
Q 23.53125 6.390625 29.59375 6.390625 
Q 36.859375 6.390625 41.078125 11.03125 
Q 45.3125 15.671875 45.3125 23.6875 
L 45.3125 54.6875 
L 54.296875 54.6875 
L 54.296875 0 
L 45.3125 0 
L 45.3125 8.40625 
Q 42.046875 3.421875 37.71875 1 
Q 33.40625 -1.421875 27.6875 -1.421875 
Q 18.265625 -1.421875 13.375 4.4375 
Q 8.5 10.296875 8.5 21.578125 
z
M 31.109375 56 
z
" id="DejaVuSans-117"/>
     <path d="M 48.78125 52.59375 
L 48.78125 44.1875 
Q 44.96875 46.296875 41.140625 47.34375 
Q 37.3125 48.390625 33.40625 48.390625 
Q 24.65625 48.390625 19.8125 42.84375 
Q 14.984375 37.3125 14.984375 27.296875 
Q 14.984375 17.28125 19.8125 11.734375 
Q 24.65625 6.203125 33.40625 6.203125 
Q 37.3125 6.203125 41.140625 7.25 
Q 44.96875 8.296875 48.78125 10.40625 
L 48.78125 2.09375 
Q 45.015625 0.34375 40.984375 -0.53125 
Q 36.96875 -1.421875 32.421875 -1.421875 
Q 20.0625 -1.421875 12.78125 6.34375 
Q 5.515625 14.109375 5.515625 27.296875 
Q 5.515625 40.671875 12.859375 48.328125 
Q 20.21875 56 33.015625 56 
Q 37.15625 56 41.109375 55.140625 
Q 45.0625 54.296875 48.78125 52.59375 
z
" id="DejaVuSans-99"/>
     <path d="M 48.6875 27.296875 
Q 48.6875 37.203125 44.609375 42.84375 
Q 40.53125 48.484375 33.40625 48.484375 
Q 26.265625 48.484375 22.1875 42.84375 
Q 18.109375 37.203125 18.109375 27.296875 
Q 18.109375 17.390625 22.1875 11.75 
Q 26.265625 6.109375 33.40625 6.109375 
Q 40.53125 6.109375 44.609375 11.75 
Q 48.6875 17.390625 48.6875 27.296875 
z
M 18.109375 46.390625 
Q 20.953125 51.265625 25.265625 53.625 
Q 29.59375 56 35.59375 56 
Q 45.5625 56 51.78125 48.09375 
Q 58.015625 40.1875 58.015625 27.296875 
Q 58.015625 14.40625 51.78125 6.484375 
Q 45.5625 -1.421875 35.59375 -1.421875 
Q 29.59375 -1.421875 25.265625 0.953125 
Q 20.953125 3.328125 18.109375 8.203125 
L 18.109375 0 
L 9.078125 0 
L 9.078125 75.984375 
L 18.109375 75.984375 
z
" id="DejaVuSans-98"/>
     <path d="M 45.40625 46.390625 
L 45.40625 75.984375 
L 54.390625 75.984375 
L 54.390625 0 
L 45.40625 0 
L 45.40625 8.203125 
Q 42.578125 3.328125 38.25 0.953125 
Q 33.9375 -1.421875 27.875 -1.421875 
Q 17.96875 -1.421875 11.734375 6.484375 
Q 5.515625 14.40625 5.515625 27.296875 
Q 5.515625 40.1875 11.734375 48.09375 
Q 17.96875 56 27.875 56 
Q 33.9375 56 38.25 53.625 
Q 42.578125 51.265625 45.40625 46.390625 
z
M 14.796875 27.296875 
Q 14.796875 17.390625 18.875 11.75 
Q 22.953125 6.109375 30.078125 6.109375 
Q 37.203125 6.109375 41.296875 11.75 
Q 45.40625 17.390625 45.40625 27.296875 
Q 45.40625 37.203125 41.296875 42.84375 
Q 37.203125 48.484375 30.078125 48.484375 
Q 22.953125 48.484375 18.875 42.84375 
Q 14.796875 37.203125 14.796875 27.296875 
z
" id="DejaVuSans-100"/>
    </defs>
    <g transform="translate(140.631872 17.638594)scale(0.12 -0.12)">
     <use xlink:href="#DejaVuSans-82"/>
     <use x="69.419922" xlink:href="#DejaVuSans-101"/>
     <use x="130.943359" xlink:href="#DejaVuSans-116"/>
     <use x="170.152344" xlink:href="#DejaVuSans-114"/>
     <use x="211.265625" xlink:href="#DejaVuSans-97"/>
     <use x="272.544922" xlink:href="#DejaVuSans-115"/>
     <use x="324.644531" xlink:href="#DejaVuSans-111"/>
     <use x="385.826172" xlink:href="#DejaVuSans-32"/>
     <use x="417.613281" xlink:href="#DejaVuSans-101"/>
     <use x="479.136719" xlink:href="#DejaVuSans-110"/>
     <use x="542.515625" xlink:href="#DejaVuSans-32"/>
     <use x="574.302734" xlink:href="#DejaVuSans-112"/>
     <use x="637.779297" xlink:href="#DejaVuSans-97"/>
     <use x="699.058594" xlink:href="#DejaVuSans-113"/>
     <use x="762.535156" xlink:href="#DejaVuSans-117"/>
     <use x="825.914062" xlink:href="#DejaVuSans-101"/>
     <use x="887.4375" xlink:href="#DejaVuSans-116"/>
     <use x="926.646484" xlink:href="#DejaVuSans-101"/>
     <use x="988.169922" xlink:href="#DejaVuSans-115"/>
     <use x="1040.269531" xlink:href="#DejaVuSans-32"/>
     <use x="1072.056641" xlink:href="#DejaVuSans-114"/>
     <use x="1113.138672" xlink:href="#DejaVuSans-101"/>
     <use x="1174.662109" xlink:href="#DejaVuSans-99"/>
     <use x="1229.642578" xlink:href="#DejaVuSans-105"/>
     <use x="1257.425781" xlink:href="#DejaVuSans-98"/>
     <use x="1320.902344" xlink:href="#DejaVuSans-105"/>
     <use x="1348.685547" xlink:href="#DejaVuSans-100"/>
     <use x="1412.162109" xlink:href="#DejaVuSans-111"/>
     <use x="1473.34375" xlink:href="#DejaVuSans-115"/>
    </g>
   </g>
  </g>
 </g>
 <defs>
  <clipPath id="p8c8e004bfb">
   <rect height="228.044219" width="372.804368" x="45.757813" y="23.638594"/>
  </clipPath>
 </defs>
</svg>
