<?xml version="1.0" encoding="utf-8" standalone="no"?>
<!DOCTYPE svg PUBLIC "-//W3C//DTD SVG 1.1//EN"
  "http://www.w3.org/Graphics/SVG/1.1/DTD/svg11.dtd">
<!-- Created with matplotlib (https://matplotlib.org/) -->
<svg height="288pt" version="1.1" viewBox="0 0 432 288" width="432pt" xmlns="http://www.w3.org/2000/svg" xmlns:xlink="http://www.w3.org/1999/xlink">
 <defs>
  <style type="text/css">
*{stroke-linecap:butt;stroke-linejoin:round;}
  </style>
 </defs>
 <g id="figure_1">
  <g id="patch_1">
   <path d="M 0 288 
L 432 288 
L 432 0 
L 0 0 
z
" style="fill:#ffffff;"/>
  </g>
  <g id="axes_1">
   <g id="patch_2">
    <path d="M 51.425 245.2 
L 415.560319 245.2 
L 415.560319 25.8 
L 51.425 25.8 
z
" style="fill:#ffffff;"/>
   </g>
   <g id="matplotlib.axis_1">
    <g id="xtick_1">
     <g id="line2d_1">
      <path clip-path="url(#p4cde6b53bd)" d="M 51.425 245.2 
L 51.425 25.8 
" style="fill:none;stroke:#b0b0b0;stroke-linecap:square;stroke-width:0.8;"/>
     </g>
     <g id="line2d_2">
      <defs>
       <path d="M 0 0 
L 0 3.5 
" id="md5a6d374fb" style="stroke:#000000;stroke-width:0.8;"/>
      </defs>
      <g>
       <use style="stroke:#000000;stroke-width:0.8;" x="51.425" xlink:href="#md5a6d374fb" y="245.2"/>
      </g>
     </g>
     <g id="text_1">
      <!-- 0 -->
      <defs>
       <path d="M 31.78125 66.40625 
Q 24.171875 66.40625 20.328125 58.90625 
Q 16.5 51.421875 16.5 36.375 
Q 16.5 21.390625 20.328125 13.890625 
Q 24.171875 6.390625 31.78125 6.390625 
Q 39.453125 6.390625 43.28125 13.890625 
Q 47.125 21.390625 47.125 36.375 
Q 47.125 51.421875 43.28125 58.90625 
Q 39.453125 66.40625 31.78125 66.40625 
z
M 31.78125 74.21875 
Q 44.046875 74.21875 50.515625 64.515625 
Q 56.984375 54.828125 56.984375 36.375 
Q 56.984375 17.96875 50.515625 8.265625 
Q 44.046875 -1.421875 31.78125 -1.421875 
Q 19.53125 -1.421875 13.0625 8.265625 
Q 6.59375 17.96875 6.59375 36.375 
Q 6.59375 54.828125 13.0625 64.515625 
Q 19.53125 74.21875 31.78125 74.21875 
z
" id="DejaVuSans-48"/>
      </defs>
      <g transform="translate(48.24375 259.798437)scale(0.1 -0.1)">
       <use xlink:href="#DejaVuSans-48"/>
      </g>
     </g>
    </g>
    <g id="xtick_2">
     <g id="line2d_3">
      <path clip-path="url(#p4cde6b53bd)" d="M 96.464516 245.2 
L 96.464516 25.8 
" style="fill:none;stroke:#b0b0b0;stroke-linecap:square;stroke-width:0.8;"/>
     </g>
     <g id="line2d_4">
      <g>
       <use style="stroke:#000000;stroke-width:0.8;" x="96.464516" xlink:href="#md5a6d374fb" y="245.2"/>
      </g>
     </g>
     <g id="text_2">
      <!-- 25 -->
      <defs>
       <path d="M 19.1875 8.296875 
L 53.609375 8.296875 
L 53.609375 0 
L 7.328125 0 
L 7.328125 8.296875 
Q 12.9375 14.109375 22.625 23.890625 
Q 32.328125 33.6875 34.8125 36.53125 
Q 39.546875 41.84375 41.421875 45.53125 
Q 43.3125 49.21875 43.3125 52.78125 
Q 43.3125 58.59375 39.234375 62.25 
Q 35.15625 65.921875 28.609375 65.921875 
Q 23.96875 65.921875 18.8125 64.3125 
Q 13.671875 62.703125 7.8125 59.421875 
L 7.8125 69.390625 
Q 13.765625 71.78125 18.9375 73 
Q 24.125 74.21875 28.421875 74.21875 
Q 39.75 74.21875 46.484375 68.546875 
Q 53.21875 62.890625 53.21875 53.421875 
Q 53.21875 48.921875 51.53125 44.890625 
Q 49.859375 40.875 45.40625 35.40625 
Q 44.1875 33.984375 37.640625 27.21875 
Q 31.109375 20.453125 19.1875 8.296875 
z
" id="DejaVuSans-50"/>
       <path d="M 10.796875 72.90625 
L 49.515625 72.90625 
L 49.515625 64.59375 
L 19.828125 64.59375 
L 19.828125 46.734375 
Q 21.96875 47.46875 24.109375 47.828125 
Q 26.265625 48.1875 28.421875 48.1875 
Q 40.625 48.1875 47.75 41.5 
Q 54.890625 34.8125 54.890625 23.390625 
Q 54.890625 11.625 47.5625 5.09375 
Q 40.234375 -1.421875 26.90625 -1.421875 
Q 22.3125 -1.421875 17.546875 -0.640625 
Q 12.796875 0.140625 7.71875 1.703125 
L 7.71875 11.625 
Q 12.109375 9.234375 16.796875 8.0625 
Q 21.484375 6.890625 26.703125 6.890625 
Q 35.15625 6.890625 40.078125 11.328125 
Q 45.015625 15.765625 45.015625 23.390625 
Q 45.015625 31 40.078125 35.4375 
Q 35.15625 39.890625 26.703125 39.890625 
Q 22.75 39.890625 18.8125 39.015625 
Q 14.890625 38.140625 10.796875 36.28125 
z
" id="DejaVuSans-53"/>
      </defs>
      <g transform="translate(90.102016 259.798437)scale(0.1 -0.1)">
       <use xlink:href="#DejaVuSans-50"/>
       <use x="63.623047" xlink:href="#DejaVuSans-53"/>
      </g>
     </g>
    </g>
    <g id="xtick_3">
     <g id="line2d_5">
      <path clip-path="url(#p4cde6b53bd)" d="M 141.504032 245.2 
L 141.504032 25.8 
" style="fill:none;stroke:#b0b0b0;stroke-linecap:square;stroke-width:0.8;"/>
     </g>
     <g id="line2d_6">
      <g>
       <use style="stroke:#000000;stroke-width:0.8;" x="141.504032" xlink:href="#md5a6d374fb" y="245.2"/>
      </g>
     </g>
     <g id="text_3">
      <!-- 50 -->
      <g transform="translate(135.141532 259.798437)scale(0.1 -0.1)">
       <use xlink:href="#DejaVuSans-53"/>
       <use x="63.623047" xlink:href="#DejaVuSans-48"/>
      </g>
     </g>
    </g>
    <g id="xtick_4">
     <g id="line2d_7">
      <path clip-path="url(#p4cde6b53bd)" d="M 186.543548 245.2 
L 186.543548 25.8 
" style="fill:none;stroke:#b0b0b0;stroke-linecap:square;stroke-width:0.8;"/>
     </g>
     <g id="line2d_8">
      <g>
       <use style="stroke:#000000;stroke-width:0.8;" x="186.543548" xlink:href="#md5a6d374fb" y="245.2"/>
      </g>
     </g>
     <g id="text_4">
      <!-- 75 -->
      <defs>
       <path d="M 8.203125 72.90625 
L 55.078125 72.90625 
L 55.078125 68.703125 
L 28.609375 0 
L 18.3125 0 
L 43.21875 64.59375 
L 8.203125 64.59375 
z
" id="DejaVuSans-55"/>
      </defs>
      <g transform="translate(180.181048 259.798437)scale(0.1 -0.1)">
       <use xlink:href="#DejaVuSans-55"/>
       <use x="63.623047" xlink:href="#DejaVuSans-53"/>
      </g>
     </g>
    </g>
    <g id="xtick_5">
     <g id="line2d_9">
      <path clip-path="url(#p4cde6b53bd)" d="M 231.583064 245.2 
L 231.583064 25.8 
" style="fill:none;stroke:#b0b0b0;stroke-linecap:square;stroke-width:0.8;"/>
     </g>
     <g id="line2d_10">
      <g>
       <use style="stroke:#000000;stroke-width:0.8;" x="231.583064" xlink:href="#md5a6d374fb" y="245.2"/>
      </g>
     </g>
     <g id="text_5">
      <!-- 100 -->
      <defs>
       <path d="M 12.40625 8.296875 
L 28.515625 8.296875 
L 28.515625 63.921875 
L 10.984375 60.40625 
L 10.984375 69.390625 
L 28.421875 72.90625 
L 38.28125 72.90625 
L 38.28125 8.296875 
L 54.390625 8.296875 
L 54.390625 0 
L 12.40625 0 
z
" id="DejaVuSans-49"/>
      </defs>
      <g transform="translate(222.039314 259.798437)scale(0.1 -0.1)">
       <use xlink:href="#DejaVuSans-49"/>
       <use x="63.623047" xlink:href="#DejaVuSans-48"/>
       <use x="127.246094" xlink:href="#DejaVuSans-48"/>
      </g>
     </g>
    </g>
    <g id="xtick_6">
     <g id="line2d_11">
      <path clip-path="url(#p4cde6b53bd)" d="M 276.62258 245.2 
L 276.62258 25.8 
" style="fill:none;stroke:#b0b0b0;stroke-linecap:square;stroke-width:0.8;"/>
     </g>
     <g id="line2d_12">
      <g>
       <use style="stroke:#000000;stroke-width:0.8;" x="276.62258" xlink:href="#md5a6d374fb" y="245.2"/>
      </g>
     </g>
     <g id="text_6">
      <!-- 125 -->
      <g transform="translate(267.07883 259.798437)scale(0.1 -0.1)">
       <use xlink:href="#DejaVuSans-49"/>
       <use x="63.623047" xlink:href="#DejaVuSans-50"/>
       <use x="127.246094" xlink:href="#DejaVuSans-53"/>
      </g>
     </g>
    </g>
    <g id="xtick_7">
     <g id="line2d_13">
      <path clip-path="url(#p4cde6b53bd)" d="M 321.662096 245.2 
L 321.662096 25.8 
" style="fill:none;stroke:#b0b0b0;stroke-linecap:square;stroke-width:0.8;"/>
     </g>
     <g id="line2d_14">
      <g>
       <use style="stroke:#000000;stroke-width:0.8;" x="321.662096" xlink:href="#md5a6d374fb" y="245.2"/>
      </g>
     </g>
     <g id="text_7">
      <!-- 150 -->
      <g transform="translate(312.118346 259.798437)scale(0.1 -0.1)">
       <use xlink:href="#DejaVuSans-49"/>
       <use x="63.623047" xlink:href="#DejaVuSans-53"/>
       <use x="127.246094" xlink:href="#DejaVuSans-48"/>
      </g>
     </g>
    </g>
    <g id="xtick_8">
     <g id="line2d_15">
      <path clip-path="url(#p4cde6b53bd)" d="M 366.701612 245.2 
L 366.701612 25.8 
" style="fill:none;stroke:#b0b0b0;stroke-linecap:square;stroke-width:0.8;"/>
     </g>
     <g id="line2d_16">
      <g>
       <use style="stroke:#000000;stroke-width:0.8;" x="366.701612" xlink:href="#md5a6d374fb" y="245.2"/>
      </g>
     </g>
     <g id="text_8">
      <!-- 175 -->
      <g transform="translate(357.157862 259.798437)scale(0.1 -0.1)">
       <use xlink:href="#DejaVuSans-49"/>
       <use x="63.623047" xlink:href="#DejaVuSans-55"/>
       <use x="127.246094" xlink:href="#DejaVuSans-53"/>
      </g>
     </g>
    </g>
    <g id="xtick_9">
     <g id="line2d_17">
      <path clip-path="url(#p4cde6b53bd)" d="M 411.741128 245.2 
L 411.741128 25.8 
" style="fill:none;stroke:#b0b0b0;stroke-linecap:square;stroke-width:0.8;"/>
     </g>
     <g id="line2d_18">
      <g>
       <use style="stroke:#000000;stroke-width:0.8;" x="411.741128" xlink:href="#md5a6d374fb" y="245.2"/>
      </g>
     </g>
     <g id="text_9">
      <!-- 200 -->
      <g transform="translate(402.197378 259.798437)scale(0.1 -0.1)">
       <use xlink:href="#DejaVuSans-50"/>
       <use x="63.623047" xlink:href="#DejaVuSans-48"/>
       <use x="127.246094" xlink:href="#DejaVuSans-48"/>
      </g>
     </g>
    </g>
    <g id="text_10">
     <!-- Tiempo -->
     <defs>
      <path d="M -0.296875 72.90625 
L 61.375 72.90625 
L 61.375 64.59375 
L 35.5 64.59375 
L 35.5 0 
L 25.59375 0 
L 25.59375 64.59375 
L -0.296875 64.59375 
z
" id="DejaVuSans-84"/>
      <path d="M 9.421875 54.6875 
L 18.40625 54.6875 
L 18.40625 0 
L 9.421875 0 
z
M 9.421875 75.984375 
L 18.40625 75.984375 
L 18.40625 64.59375 
L 9.421875 64.59375 
z
" id="DejaVuSans-105"/>
      <path d="M 56.203125 29.59375 
L 56.203125 25.203125 
L 14.890625 25.203125 
Q 15.484375 15.921875 20.484375 11.0625 
Q 25.484375 6.203125 34.421875 6.203125 
Q 39.59375 6.203125 44.453125 7.46875 
Q 49.3125 8.734375 54.109375 11.28125 
L 54.109375 2.78125 
Q 49.265625 0.734375 44.1875 -0.34375 
Q 39.109375 -1.421875 33.890625 -1.421875 
Q 20.796875 -1.421875 13.15625 6.1875 
Q 5.515625 13.8125 5.515625 26.8125 
Q 5.515625 40.234375 12.765625 48.109375 
Q 20.015625 56 32.328125 56 
Q 43.359375 56 49.78125 48.890625 
Q 56.203125 41.796875 56.203125 29.59375 
z
M 47.21875 32.234375 
Q 47.125 39.59375 43.09375 43.984375 
Q 39.0625 48.390625 32.421875 48.390625 
Q 24.90625 48.390625 20.390625 44.140625 
Q 15.875 39.890625 15.1875 32.171875 
z
" id="DejaVuSans-101"/>
      <path d="M 52 44.1875 
Q 55.375 50.25 60.0625 53.125 
Q 64.75 56 71.09375 56 
Q 79.640625 56 84.28125 50.015625 
Q 88.921875 44.046875 88.921875 33.015625 
L 88.921875 0 
L 79.890625 0 
L 79.890625 32.71875 
Q 79.890625 40.578125 77.09375 44.375 
Q 74.3125 48.1875 68.609375 48.1875 
Q 61.625 48.1875 57.5625 43.546875 
Q 53.515625 38.921875 53.515625 30.90625 
L 53.515625 0 
L 44.484375 0 
L 44.484375 32.71875 
Q 44.484375 40.625 41.703125 44.40625 
Q 38.921875 48.1875 33.109375 48.1875 
Q 26.21875 48.1875 22.15625 43.53125 
Q 18.109375 38.875 18.109375 30.90625 
L 18.109375 0 
L 9.078125 0 
L 9.078125 54.6875 
L 18.109375 54.6875 
L 18.109375 46.1875 
Q 21.1875 51.21875 25.484375 53.609375 
Q 29.78125 56 35.6875 56 
Q 41.65625 56 45.828125 52.96875 
Q 50 49.953125 52 44.1875 
z
" id="DejaVuSans-109"/>
      <path d="M 18.109375 8.203125 
L 18.109375 -20.796875 
L 9.078125 -20.796875 
L 9.078125 54.6875 
L 18.109375 54.6875 
L 18.109375 46.390625 
Q 20.953125 51.265625 25.265625 53.625 
Q 29.59375 56 35.59375 56 
Q 45.5625 56 51.78125 48.09375 
Q 58.015625 40.1875 58.015625 27.296875 
Q 58.015625 14.40625 51.78125 6.484375 
Q 45.5625 -1.421875 35.59375 -1.421875 
Q 29.59375 -1.421875 25.265625 0.953125 
Q 20.953125 3.328125 18.109375 8.203125 
z
M 48.6875 27.296875 
Q 48.6875 37.203125 44.609375 42.84375 
Q 40.53125 48.484375 33.40625 48.484375 
Q 26.265625 48.484375 22.1875 42.84375 
Q 18.109375 37.203125 18.109375 27.296875 
Q 18.109375 17.390625 22.1875 11.75 
Q 26.265625 6.109375 33.40625 6.109375 
Q 40.53125 6.109375 44.609375 11.75 
Q 48.6875 17.390625 48.6875 27.296875 
z
" id="DejaVuSans-112"/>
      <path d="M 30.609375 48.390625 
Q 23.390625 48.390625 19.1875 42.75 
Q 14.984375 37.109375 14.984375 27.296875 
Q 14.984375 17.484375 19.15625 11.84375 
Q 23.34375 6.203125 30.609375 6.203125 
Q 37.796875 6.203125 41.984375 11.859375 
Q 46.1875 17.53125 46.1875 27.296875 
Q 46.1875 37.015625 41.984375 42.703125 
Q 37.796875 48.390625 30.609375 48.390625 
z
M 30.609375 56 
Q 42.328125 56 49.015625 48.375 
Q 55.71875 40.765625 55.71875 27.296875 
Q 55.71875 13.875 49.015625 6.21875 
Q 42.328125 -1.421875 30.609375 -1.421875 
Q 18.84375 -1.421875 12.171875 6.21875 
Q 5.515625 13.875 5.515625 27.296875 
Q 5.515625 40.765625 12.171875 48.375 
Q 18.84375 56 30.609375 56 
z
" id="DejaVuSans-111"/>
     </defs>
     <g transform="translate(214.871566 273.476562)scale(0.1 -0.1)">
      <use xlink:href="#DejaVuSans-84"/>
      <use x="61.037109" xlink:href="#DejaVuSans-105"/>
      <use x="88.820312" xlink:href="#DejaVuSans-101"/>
      <use x="150.34375" xlink:href="#DejaVuSans-109"/>
      <use x="247.755859" xlink:href="#DejaVuSans-112"/>
      <use x="311.232422" xlink:href="#DejaVuSans-111"/>
     </g>
    </g>
   </g>
   <g id="matplotlib.axis_2">
    <g id="ytick_1">
     <g id="line2d_19">
      <path clip-path="url(#p4cde6b53bd)" d="M 51.425 245.2 
L 415.560319 245.2 
" style="fill:none;stroke:#b0b0b0;stroke-linecap:square;stroke-width:0.8;"/>
     </g>
     <g id="line2d_20">
      <defs>
       <path d="M 0 0 
L -3.5 0 
" id="m7e828d4580" style="stroke:#000000;stroke-width:0.8;"/>
      </defs>
      <g>
       <use style="stroke:#000000;stroke-width:0.8;" x="51.425" xlink:href="#m7e828d4580" y="245.2"/>
      </g>
     </g>
     <g id="text_11">
      <!-- 0 -->
      <g transform="translate(38.0625 248.999219)scale(0.1 -0.1)">
       <use xlink:href="#DejaVuSans-48"/>
      </g>
     </g>
    </g>
    <g id="ytick_2">
     <g id="line2d_21">
      <path clip-path="url(#p4cde6b53bd)" d="M 51.425 204.0625 
L 415.560319 204.0625 
" style="fill:none;stroke:#b0b0b0;stroke-linecap:square;stroke-width:0.8;"/>
     </g>
     <g id="line2d_22">
      <g>
       <use style="stroke:#000000;stroke-width:0.8;" x="51.425" xlink:href="#m7e828d4580" y="204.0625"/>
      </g>
     </g>
     <g id="text_12">
      <!-- 50 -->
      <g transform="translate(31.7 207.861719)scale(0.1 -0.1)">
       <use xlink:href="#DejaVuSans-53"/>
       <use x="63.623047" xlink:href="#DejaVuSans-48"/>
      </g>
     </g>
    </g>
    <g id="ytick_3">
     <g id="line2d_23">
      <path clip-path="url(#p4cde6b53bd)" d="M 51.425 162.925 
L 415.560319 162.925 
" style="fill:none;stroke:#b0b0b0;stroke-linecap:square;stroke-width:0.8;"/>
     </g>
     <g id="line2d_24">
      <g>
       <use style="stroke:#000000;stroke-width:0.8;" x="51.425" xlink:href="#m7e828d4580" y="162.925"/>
      </g>
     </g>
     <g id="text_13">
      <!-- 100 -->
      <g transform="translate(25.3375 166.724219)scale(0.1 -0.1)">
       <use xlink:href="#DejaVuSans-49"/>
       <use x="63.623047" xlink:href="#DejaVuSans-48"/>
       <use x="127.246094" xlink:href="#DejaVuSans-48"/>
      </g>
     </g>
    </g>
    <g id="ytick_4">
     <g id="line2d_25">
      <path clip-path="url(#p4cde6b53bd)" d="M 51.425 121.7875 
L 415.560319 121.7875 
" style="fill:none;stroke:#b0b0b0;stroke-linecap:square;stroke-width:0.8;"/>
     </g>
     <g id="line2d_26">
      <g>
       <use style="stroke:#000000;stroke-width:0.8;" x="51.425" xlink:href="#m7e828d4580" y="121.7875"/>
      </g>
     </g>
     <g id="text_14">
      <!-- 150 -->
      <g transform="translate(25.3375 125.586719)scale(0.1 -0.1)">
       <use xlink:href="#DejaVuSans-49"/>
       <use x="63.623047" xlink:href="#DejaVuSans-53"/>
       <use x="127.246094" xlink:href="#DejaVuSans-48"/>
      </g>
     </g>
    </g>
    <g id="ytick_5">
     <g id="line2d_27">
      <path clip-path="url(#p4cde6b53bd)" d="M 51.425 80.65 
L 415.560319 80.65 
" style="fill:none;stroke:#b0b0b0;stroke-linecap:square;stroke-width:0.8;"/>
     </g>
     <g id="line2d_28">
      <g>
       <use style="stroke:#000000;stroke-width:0.8;" x="51.425" xlink:href="#m7e828d4580" y="80.65"/>
      </g>
     </g>
     <g id="text_15">
      <!-- 200 -->
      <g transform="translate(25.3375 84.449219)scale(0.1 -0.1)">
       <use xlink:href="#DejaVuSans-50"/>
       <use x="63.623047" xlink:href="#DejaVuSans-48"/>
       <use x="127.246094" xlink:href="#DejaVuSans-48"/>
      </g>
     </g>
    </g>
    <g id="ytick_6">
     <g id="line2d_29">
      <path clip-path="url(#p4cde6b53bd)" d="M 51.425 39.5125 
L 415.560319 39.5125 
" style="fill:none;stroke:#b0b0b0;stroke-linecap:square;stroke-width:0.8;"/>
     </g>
     <g id="line2d_30">
      <g>
       <use style="stroke:#000000;stroke-width:0.8;" x="51.425" xlink:href="#m7e828d4580" y="39.5125"/>
      </g>
     </g>
     <g id="text_16">
      <!-- 250 -->
      <g transform="translate(25.3375 43.311719)scale(0.1 -0.1)">
       <use xlink:href="#DejaVuSans-50"/>
       <use x="63.623047" xlink:href="#DejaVuSans-53"/>
       <use x="127.246094" xlink:href="#DejaVuSans-48"/>
      </g>
     </g>
    </g>
    <g id="text_17">
     <!-- Paquetes -->
     <defs>
      <path d="M 19.671875 64.796875 
L 19.671875 37.40625 
L 32.078125 37.40625 
Q 38.96875 37.40625 42.71875 40.96875 
Q 46.484375 44.53125 46.484375 51.125 
Q 46.484375 57.671875 42.71875 61.234375 
Q 38.96875 64.796875 32.078125 64.796875 
z
M 9.8125 72.90625 
L 32.078125 72.90625 
Q 44.34375 72.90625 50.609375 67.359375 
Q 56.890625 61.8125 56.890625 51.125 
Q 56.890625 40.328125 50.609375 34.8125 
Q 44.34375 29.296875 32.078125 29.296875 
L 19.671875 29.296875 
L 19.671875 0 
L 9.8125 0 
z
" id="DejaVuSans-80"/>
      <path d="M 34.28125 27.484375 
Q 23.390625 27.484375 19.1875 25 
Q 14.984375 22.515625 14.984375 16.5 
Q 14.984375 11.71875 18.140625 8.90625 
Q 21.296875 6.109375 26.703125 6.109375 
Q 34.1875 6.109375 38.703125 11.40625 
Q 43.21875 16.703125 43.21875 25.484375 
L 43.21875 27.484375 
z
M 52.203125 31.203125 
L 52.203125 0 
L 43.21875 0 
L 43.21875 8.296875 
Q 40.140625 3.328125 35.546875 0.953125 
Q 30.953125 -1.421875 24.3125 -1.421875 
Q 15.921875 -1.421875 10.953125 3.296875 
Q 6 8.015625 6 15.921875 
Q 6 25.140625 12.171875 29.828125 
Q 18.359375 34.515625 30.609375 34.515625 
L 43.21875 34.515625 
L 43.21875 35.40625 
Q 43.21875 41.609375 39.140625 45 
Q 35.0625 48.390625 27.6875 48.390625 
Q 23 48.390625 18.546875 47.265625 
Q 14.109375 46.140625 10.015625 43.890625 
L 10.015625 52.203125 
Q 14.9375 54.109375 19.578125 55.046875 
Q 24.21875 56 28.609375 56 
Q 40.484375 56 46.34375 49.84375 
Q 52.203125 43.703125 52.203125 31.203125 
z
" id="DejaVuSans-97"/>
      <path d="M 14.796875 27.296875 
Q 14.796875 17.390625 18.875 11.75 
Q 22.953125 6.109375 30.078125 6.109375 
Q 37.203125 6.109375 41.296875 11.75 
Q 45.40625 17.390625 45.40625 27.296875 
Q 45.40625 37.203125 41.296875 42.84375 
Q 37.203125 48.484375 30.078125 48.484375 
Q 22.953125 48.484375 18.875 42.84375 
Q 14.796875 37.203125 14.796875 27.296875 
z
M 45.40625 8.203125 
Q 42.578125 3.328125 38.25 0.953125 
Q 33.9375 -1.421875 27.875 -1.421875 
Q 17.96875 -1.421875 11.734375 6.484375 
Q 5.515625 14.40625 5.515625 27.296875 
Q 5.515625 40.1875 11.734375 48.09375 
Q 17.96875 56 27.875 56 
Q 33.9375 56 38.25 53.625 
Q 42.578125 51.265625 45.40625 46.390625 
L 45.40625 54.6875 
L 54.390625 54.6875 
L 54.390625 -20.796875 
L 45.40625 -20.796875 
z
" id="DejaVuSans-113"/>
      <path d="M 8.5 21.578125 
L 8.5 54.6875 
L 17.484375 54.6875 
L 17.484375 21.921875 
Q 17.484375 14.15625 20.5 10.265625 
Q 23.53125 6.390625 29.59375 6.390625 
Q 36.859375 6.390625 41.078125 11.03125 
Q 45.3125 15.671875 45.3125 23.6875 
L 45.3125 54.6875 
L 54.296875 54.6875 
L 54.296875 0 
L 45.3125 0 
L 45.3125 8.40625 
Q 42.046875 3.421875 37.71875 1 
Q 33.40625 -1.421875 27.6875 -1.421875 
Q 18.265625 -1.421875 13.375 4.4375 
Q 8.5 10.296875 8.5 21.578125 
z
M 31.109375 56 
z
" id="DejaVuSans-117"/>
      <path d="M 18.3125 70.21875 
L 18.3125 54.6875 
L 36.8125 54.6875 
L 36.8125 47.703125 
L 18.3125 47.703125 
L 18.3125 18.015625 
Q 18.3125 11.328125 20.140625 9.421875 
Q 21.96875 7.515625 27.59375 7.515625 
L 36.8125 7.515625 
L 36.8125 0 
L 27.59375 0 
Q 17.1875 0 13.234375 3.875 
Q 9.28125 7.765625 9.28125 18.015625 
L 9.28125 47.703125 
L 2.6875 47.703125 
L 2.6875 54.6875 
L 9.28125 54.6875 
L 9.28125 70.21875 
z
" id="DejaVuSans-116"/>
      <path d="M 44.28125 53.078125 
L 44.28125 44.578125 
Q 40.484375 46.53125 36.375 47.5 
Q 32.28125 48.484375 27.875 48.484375 
Q 21.1875 48.484375 17.84375 46.4375 
Q 14.5 44.390625 14.5 40.28125 
Q 14.5 37.15625 16.890625 35.375 
Q 19.28125 33.59375 26.515625 31.984375 
L 29.59375 31.296875 
Q 39.15625 29.25 43.1875 25.515625 
Q 47.21875 21.78125 47.21875 15.09375 
Q 47.21875 7.46875 41.1875 3.015625 
Q 35.15625 -1.421875 24.609375 -1.421875 
Q 20.21875 -1.421875 15.453125 -0.5625 
Q 10.6875 0.296875 5.421875 2 
L 5.421875 11.28125 
Q 10.40625 8.6875 15.234375 7.390625 
Q 20.0625 6.109375 24.8125 6.109375 
Q 31.15625 6.109375 34.5625 8.28125 
Q 37.984375 10.453125 37.984375 14.40625 
Q 37.984375 18.0625 35.515625 20.015625 
Q 33.0625 21.96875 24.703125 23.78125 
L 21.578125 24.515625 
Q 13.234375 26.265625 9.515625 29.90625 
Q 5.8125 33.546875 5.8125 39.890625 
Q 5.8125 47.609375 11.28125 51.796875 
Q 16.75 56 26.8125 56 
Q 31.78125 56 36.171875 55.265625 
Q 40.578125 54.546875 44.28125 53.078125 
z
" id="DejaVuSans-115"/>
     </defs>
     <g transform="translate(19.257812 158.636719)rotate(-90)scale(0.1 -0.1)">
      <use xlink:href="#DejaVuSans-80"/>
      <use x="60.240234" xlink:href="#DejaVuSans-97"/>
      <use x="121.519531" xlink:href="#DejaVuSans-113"/>
      <use x="184.996094" xlink:href="#DejaVuSans-117"/>
      <use x="248.375" xlink:href="#DejaVuSans-101"/>
      <use x="309.898438" xlink:href="#DejaVuSans-116"/>
      <use x="349.107422" xlink:href="#DejaVuSans-101"/>
      <use x="410.630859" xlink:href="#DejaVuSans-115"/>
     </g>
    </g>
   </g>
   <g id="line2d_31">
    <path clip-path="url(#p4cde6b53bd)" d="M 53.624864 244.37725 
L 55.243693 243.5545 
L 57.506354 242.73175 
L 60.856581 241.909 
L 62.519842 241.08625 
L 66.035708 240.2635 
L 67.453914 239.44075 
L 70.83902 238.618 
L 71.831778 237.79525 
L 75.462261 236.14975 
L 76.336259 235.327 
L 77.373103 234.50425 
L 78.009348 233.6815 
L 82.015206 232.85875 
L 82.375522 232.036 
L 88.092473 231.21325 
L 88.666017 230.3905 
L 89.537265 229.56775 
L 90.707295 228.745 
L 96.546411 227.0995 
L 100.592743 224.63125 
L 101.491501 223.8085 
L 106.172465 222.98575 
L 109.430388 222.163 
L 109.790704 221.34025 
L 110.304629 220.5175 
L 110.664945 219.69475 
L 112.350817 218.872 
L 112.711133 218.04925 
L 113.214988 217.2265 
L 116.435291 216.40375 
L 122.110576 215.581 
L 124.823368 214.75825 
L 125.183684 213.9355 
L 132.448445 212.29 
L 139.375922 211.46725 
L 140.532013 210.6445 
L 146.331737 208.999 
L 147.446788 208.17625 
L 148.770886 207.3535 
L 151.503047 206.53075 
L 153.549533 205.708 
L 153.909849 204.88525 
L 156.073731 204.0625 
L 159.48548 202.417 
L 159.845796 201.59425 
L 161.152959 200.7715 
L 166.367491 199.94875 
L 168.928194 199.126 
L 170.257449 198.30325 
L 170.617766 197.4805 
L 171.423994 196.65775 
L 172.580059 195.835 
L 173.133649 195.01225 
L 173.505141 194.1895 
L 178.591985 192.544 
L 179.689296 191.72125 
L 180.128969 190.8985 
L 181.6429 190.07575 
L 182.723849 187.6075 
L 184.376616 186.78475 
L 184.736932 185.962 
L 186.374809 185.13925 
L 186.827801 184.3165 
L 188.556505 183.49375 
L 189.436679 182.671 
L 194.621475 181.84825 
L 198.817201 181.0255 
L 200.880261 180.20275 
L 201.957149 179.38 
L 202.759786 178.55725 
L 204.470377 177.7345 
L 205.505444 176.91175 
L 209.696553 176.089 
L 211.851437 175.26625 
L 212.57207 173.62075 
L 218.457636 172.798 
L 224.345821 170.32975 
L 225.10903 168.68425 
L 225.907858 167.8615 
L 226.268174 167.03875 
L 228.659 166.216 
L 229.341731 165.39325 
L 231.028121 164.5705 
L 232.550843 162.925 
L 234.072148 162.10225 
L 234.432464 161.2795 
L 235.182836 160.45675 
L 236.994994 159.634 
L 245.020129 158.81125 
L 250.77248 157.9885 
L 251.132796 157.16575 
L 252.872153 156.343 
L 253.294266 155.52025 
L 255.110294 154.6975 
L 255.47061 153.87475 
L 265.083869 153.052 
L 266.99128 152.22925 
L 268.562106 151.4065 
L 269.088313 150.58375 
L 271.183563 148.93825 
L 272.343386 148.1155 
L 272.848328 147.29275 
L 274.608227 146.47 
L 274.968543 145.64725 
L 275.663284 144.8245 
L 276.0236 144.00175 
L 279.821685 142.35625 
L 280.509089 141.5335 
L 280.869405 140.71075 
L 283.491331 139.888 
L 283.885662 139.06525 
L 289.267326 138.2425 
L 290.096078 137.41975 
L 292.05308 136.597 
L 295.152396 135.77425 
L 295.873028 134.12875 
L 297.117761 133.306 
L 300.396311 132.48325 
L 302.413747 131.6605 
L 302.774063 130.83775 
L 315.78806 129.19225 
L 319.580966 128.3695 
L 322.003948 126.724 
L 328.781363 125.90125 
L 329.14168 125.0785 
L 330.557371 124.25575 
L 331.638224 123.433 
L 334.05999 122.61025 
L 335.218487 120.142 
L 335.817351 119.31925 
L 342.828329 118.4965 
L 343.188645 117.67375 
L 344.494164 116.02825 
L 345.675364 115.2055 
L 346.03568 114.38275 
L 348.00528 113.56 
L 348.694747 112.73725 
L 352.521731 111.9145 
L 353.485369 111.09175 
L 357.996368 110.269 
L 358.717 108.6235 
L 360.680511 107.80075 
L 363.687243 106.15525 
L 367.296242 105.3325 
L 367.851876 104.50975 
L 370.467784 102.86425 
L 374.945761 102.0415 
L 375.306077 101.21875 
L 379.700051 100.396 
L 381.245619 99.57325 
L 381.605935 98.7505 
L 386.174791 97.92775 
L 387.812249 95.4595 
L 389.452132 94.63675 
L 392.780242 93.814 
L 393.140558 92.99125 
L 394.911712 92.1685 
L 397.181584 91.34575 
L 400.498803 90.523 
L 401.668339 88.8775 
L 402.032889 88.05475 
L 402.946651 87.232 
L 405.987587 85.5865 
L 406.708219 83.941 
L 409.530045 83.11825 
L 410.361891 82.2955 
L 411.082523 80.65 
L 411.082523 80.65 
" style="fill:none;stroke:#1f77b4;stroke-linecap:square;stroke-width:1.5;"/>
   </g>
   <g id="line2d_32">
    <path clip-path="url(#p4cde6b53bd)" d="M 52.858832 244.37725 
L 54.477661 243.5545 
L 56.740322 242.73175 
L 60.090549 241.909 
L 61.75381 241.08625 
L 65.269676 240.2635 
L 66.687882 239.44075 
L 70.072987 238.618 
L 71.065746 237.79525 
L 74.696229 236.14975 
L 75.570227 235.327 
L 76.607071 234.50425 
L 77.243316 233.6815 
L 81.249174 232.85875 
L 81.354359 232.036 
L 87.326441 231.21325 
L 87.899985 230.3905 
L 88.771233 229.56775 
L 89.941263 228.745 
L 95.780379 227.0995 
L 99.826711 224.63125 
L 100.725469 223.8085 
L 105.406433 222.98575 
L 108.664356 222.163 
L 108.797106 221.34025 
L 109.538597 220.5175 
L 109.702831 219.69475 
L 111.584785 218.872 
L 111.621583 218.04925 
L 112.448956 217.2265 
L 115.669259 216.40375 
L 121.344544 215.581 
L 124.057336 214.75825 
L 124.32979 213.9355 
L 131.682413 212.29 
L 138.60989 211.46725 
L 139.765981 210.6445 
L 145.565704 208.999 
L 146.680756 208.17625 
L 148.004853 207.3535 
L 150.737015 206.53075 
L 152.783501 205.708 
L 153.010274 204.88525 
L 155.307699 204.0625 
L 158.719448 202.417 
L 158.998206 201.59425 
L 160.386927 200.7715 
L 165.601459 199.94875 
L 168.162162 199.126 
L 169.491417 198.30325 
L 169.693097 197.4805 
L 170.657962 196.65775 
L 171.814027 195.835 
L 172.367617 195.01225 
L 172.739109 194.1895 
L 177.825953 192.544 
L 178.923264 191.72125 
L 179.362937 190.8985 
L 180.876868 190.07575 
L 181.138598 189.253 
L 181.172772 188.43025 
L 181.878578 187.6075 
L 183.610584 186.78475 
L 183.902686 185.962 
L 185.608776 185.13925 
L 186.061769 184.3165 
L 187.790472 183.49375 
L 188.670647 182.671 
L 193.855443 181.84825 
L 198.051169 181.0255 
L 200.114229 180.20275 
L 201.191117 179.38 
L 201.993754 178.55725 
L 203.704345 177.7345 
L 204.739412 176.91175 
L 208.930521 176.089 
L 211.085405 175.26625 
L 211.385686 173.62075 
L 217.691604 172.798 
L 223.579789 170.32975 
L 224.342998 168.68425 
L 225.141826 167.8615 
L 225.390496 167.03875 
L 227.892968 166.216 
L 228.575698 165.39325 
L 230.262089 164.5705 
L 231.784811 162.925 
L 233.306116 162.10225 
L 233.376708 161.2795 
L 234.416804 160.45675 
L 236.228962 159.634 
L 244.254097 158.81125 
L 250.006448 157.9885 
L 250.200361 157.16575 
L 252.106121 156.343 
L 252.528234 155.52025 
L 254.344262 154.6975 
L 254.661184 153.87475 
L 264.317837 153.052 
L 266.225248 152.22925 
L 267.796074 151.4065 
L 268.322281 150.58375 
L 270.41753 148.93825 
L 271.577354 148.1155 
L 272.082295 147.29275 
L 273.842195 146.47 
L 274.154098 145.64725 
L 274.897252 144.8245 
L 275.107957 144.00175 
L 279.055653 142.35625 
L 279.743057 141.5335 
L 280.010974 140.71075 
L 282.725299 139.888 
L 283.11963 139.06525 
L 288.501294 138.2425 
L 289.330046 137.41975 
L 291.287048 136.597 
L 294.386364 135.77425 
L 294.410982 134.9515 
L 294.595004 134.12875 
L 296.351729 133.306 
L 299.630279 132.48325 
L 301.647715 131.6605 
L 301.829738 130.83775 
L 315.022028 129.19225 
L 318.814934 128.3695 
L 321.237916 126.724 
L 328.015331 125.90125 
L 328.11861 125.0785 
L 329.791339 124.25575 
L 330.872192 123.433 
L 333.293958 122.61025 
L 333.402353 120.96475 
L 334.452455 120.142 
L 335.051319 119.31925 
L 342.062297 118.4965 
L 342.293001 117.67375 
L 343.09546 116.851 
L 343.728132 116.02825 
L 344.909332 115.2055 
L 345.137031 114.38275 
L 347.239248 113.56 
L 347.928715 112.73725 
L 351.755699 111.9145 
L 352.719337 111.09175 
L 357.230336 110.269 
L 357.349776 109.44625 
L 357.790074 108.6235 
L 359.914479 107.80075 
L 362.921211 106.15525 
L 366.53021 105.3325 
L 367.085844 104.50975 
L 369.701752 102.86425 
L 374.179729 102.0415 
L 374.357455 101.21875 
L 378.934019 100.396 
L 380.479587 99.57325 
L 380.635911 98.7505 
L 385.408759 97.92775 
L 386.685901 96.28225 
L 386.702837 95.4595 
L 388.6861 94.63675 
L 392.014209 93.814 
L 392.268828 92.99125 
L 394.14568 92.1685 
L 396.415552 91.34575 
L 399.732771 90.523 
L 400.902307 88.8775 
L 401.266857 88.05475 
L 402.180619 87.232 
L 405.221555 85.5865 
L 405.258149 84.76375 
L 405.582888 83.941 
L 408.764013 83.11825 
L 409.595859 82.2955 
L 409.604338 81.47275 
L 409.889603 80.65 
L 409.889603 80.65 
" style="fill:none;stroke:#ff7f0e;stroke-linecap:square;stroke-width:1.5;"/>
   </g>
   <g id="line2d_33">
    <path clip-path="url(#p4cde6b53bd)" d="M 53.264548 245.2 
L 53.264548 244.37725 
L 53.624864 245.2 
L 54.883377 245.2 
L 54.883377 244.37725 
L 55.243693 245.2 
L 57.146038 245.2 
L 57.146038 244.37725 
L 57.506354 245.2 
L 60.496265 245.2 
L 60.496265 244.37725 
L 60.856581 245.2 
L 62.159525 245.2 
L 62.159525 244.37725 
L 62.519842 245.2 
L 65.675392 245.2 
L 65.675392 244.37725 
L 66.035708 245.2 
L 67.093598 245.2 
L 67.093598 244.37725 
L 67.453914 245.2 
L 70.478703 245.2 
L 70.478703 244.37725 
L 70.83902 245.2 
L 71.471462 245.2 
L 71.471462 244.37725 
L 71.831778 245.2 
L 73.231618 245.2 
L 73.231618 244.37725 
L 73.591934 245.2 
L 75.101945 245.2 
L 75.101945 244.37725 
L 75.462261 245.2 
L 75.975943 245.2 
L 75.975943 244.37725 
L 76.336259 245.2 
L 77.012787 245.2 
L 77.012787 244.37725 
L 77.373103 245.2 
L 77.649032 245.2 
L 77.649032 244.37725 
L 78.009348 245.2 
L 81.65489 245.2 
L 81.65489 244.37725 
L 81.880088 245.2 
L 82.015206 244.37725 
L 82.375522 245.2 
L 87.732157 245.2 
L 87.732157 244.37725 
L 88.092473 245.2 
L 88.305701 245.2 
L 88.305701 244.37725 
L 88.666017 245.2 
L 89.176949 245.2 
L 89.176949 244.37725 
L 89.537265 245.2 
L 90.346979 245.2 
L 90.346979 244.37725 
L 90.707295 245.2 
L 93.173472 245.2 
L 93.173472 244.37725 
L 93.533788 245.2 
L 96.186095 245.2 
L 96.186095 244.37725 
L 96.546411 245.2 
L 97.542098 245.2 
L 97.542098 244.37725 
L 97.902415 245.2 
L 98.720121 245.2 
L 98.720121 244.37725 
L 99.080437 245.2 
L 100.232427 245.2 
L 100.232427 244.37725 
L 100.592743 245.2 
L 101.131185 245.2 
L 101.131185 244.37725 
L 101.491501 245.2 
L 105.812149 245.2 
L 105.812149 244.37725 
L 106.172465 245.2 
L 109.070072 245.2 
L 109.070072 244.37725 
L 109.29527 245.2 
L 109.430388 244.37725 
L 109.790704 245.2 
L 109.944313 245.2 
L 109.944313 244.37725 
L 110.169511 245.2 
L 110.304629 244.37725 
L 110.664945 245.2 
L 111.990501 245.2 
L 111.990501 244.37725 
L 112.215698 245.2 
L 112.350817 244.37725 
L 112.711133 245.2 
L 112.854672 245.2 
L 112.854672 244.37725 
L 113.214988 245.2 
L 116.074975 245.2 
L 116.074975 244.37725 
L 116.435291 245.2 
L 121.75026 245.2 
L 121.75026 244.37725 
L 122.110576 245.2 
L 124.463052 245.2 
L 124.463052 244.37725 
L 124.735506 245.2 
L 124.823368 244.37725 
L 125.183684 245.2 
L 128.411297 245.2 
L 128.411297 244.37725 
L 128.771613 245.2 
L 132.088129 245.2 
L 132.088129 244.37725 
L 132.448445 245.2 
L 139.015606 245.2 
L 139.015606 244.37725 
L 139.375922 245.2 
L 140.171697 245.2 
L 140.171697 244.37725 
L 140.532013 245.2 
L 143.063666 245.2 
L 143.063666 244.37725 
L 143.423982 245.2 
L 145.97142 245.2 
L 145.97142 244.37725 
L 146.331737 245.2 
L 147.086472 245.2 
L 147.086472 244.37725 
L 147.446788 245.2 
L 148.410569 245.2 
L 148.410569 244.37725 
L 148.770886 245.2 
L 151.142731 245.2 
L 151.142731 244.37725 
L 151.503047 245.2 
L 153.189217 245.2 
L 153.189217 244.37725 
L 153.41599 245.2 
L 153.549533 244.37725 
L 153.909849 245.2 
L 155.713415 245.2 
L 155.713415 244.37725 
L 156.073731 245.2 
L 157.553607 245.2 
L 157.553607 244.37725 
L 157.913923 245.2 
L 159.125164 245.2 
L 159.125164 244.37725 
L 159.403922 245.2 
L 159.48548 244.37725 
L 159.845796 245.2 
L 160.792643 245.2 
L 160.792643 244.37725 
L 161.152959 245.2 
L 166.007175 245.2 
L 166.007175 244.37725 
L 166.367491 245.2 
L 168.567878 245.2 
L 168.567878 244.37725 
L 168.928194 245.2 
L 169.897133 245.2 
L 169.897133 244.37725 
L 170.122331 245.2 
L 170.257449 244.37725 
L 170.617766 245.2 
L 171.063678 245.2 
L 171.063678 244.37725 
L 171.423994 245.2 
L 172.219743 245.2 
L 172.219743 244.37725 
L 172.580059 245.2 
L 172.773333 245.2 
L 172.773333 244.37725 
L 173.144825 245.2 
L 173.144825 244.37725 
L 173.505141 245.2 
L 175.826036 245.2 
L 175.826036 244.37725 
L 176.186352 245.2 
L 178.231669 245.2 
L 178.231669 244.37725 
L 178.591985 245.2 
L 179.32898 245.2 
L 179.32898 244.37725 
L 179.768653 245.2 
L 179.768653 244.37725 
L 180.128969 245.2 
L 181.282584 245.2 
L 181.282584 244.37725 
L 181.544314 245.2 
L 181.6429 244.37725 
L 181.769512 245.2 
L 182.003216 244.37725 
L 182.284294 245.2 
L 182.363532 244.37725 
L 182.723849 245.2 
L 184.0163 245.2 
L 184.0163 244.37725 
L 184.308402 245.2 
L 184.376616 244.37725 
L 184.736932 245.2 
L 186.014492 245.2 
L 186.014492 244.37725 
L 186.467485 245.2 
L 186.467485 244.37725 
L 186.827801 245.2 
L 188.196188 245.2 
L 188.196188 244.37725 
L 188.556505 245.2 
L 189.076363 245.2 
L 189.076363 244.37725 
L 189.436679 245.2 
L 194.261159 245.2 
L 194.261159 244.37725 
L 194.621475 245.2 
L 198.456885 245.2 
L 198.456885 244.37725 
L 198.817201 245.2 
L 200.519945 245.2 
L 200.519945 244.37725 
L 200.880261 245.2 
L 201.596832 245.2 
L 201.596832 244.37725 
L 201.957149 245.2 
L 202.39947 245.2 
L 202.39947 244.37725 
L 202.759786 245.2 
L 204.110061 245.2 
L 204.110061 244.37725 
L 204.470377 245.2 
L 205.145127 245.2 
L 205.145127 244.37725 
L 205.505444 245.2 
L 209.336237 245.2 
L 209.336237 244.37725 
L 209.696553 245.2 
L 211.491121 245.2 
L 211.491121 244.37725 
L 211.716319 245.2 
L 211.851437 244.37725 
L 211.941516 245.2 
L 212.211753 244.37725 
L 212.57207 245.2 
L 218.09732 245.2 
L 218.09732 244.37725 
L 218.457636 245.2 
L 220.077099 245.2 
L 220.077099 244.37725 
L 220.437415 245.2 
L 221.984674 245.2 
L 221.984674 244.37725 
L 222.34499 245.2 
L 223.985505 245.2 
L 223.985505 244.37725 
L 224.323168 245.2 
L 224.345821 244.37725 
L 224.748714 245.2 
L 224.748714 244.37725 
L 225.10903 245.2 
L 225.547542 245.2 
L 225.547542 244.37725 
L 225.796211 245.2 
L 225.907858 244.37725 
L 226.268174 245.2 
L 228.298684 245.2 
L 228.298684 244.37725 
L 228.659 245.2 
L 228.981414 245.2 
L 228.981414 244.37725 
L 229.341731 245.2 
L 230.667805 245.2 
L 230.667805 244.37725 
L 231.028121 245.2 
L 231.482303 245.2 
L 231.482303 244.37725 
L 231.842619 245.2 
L 232.190527 245.2 
L 232.190527 244.37725 
L 232.550843 245.2 
L 233.711832 245.2 
L 233.711832 244.37725 
L 233.937029 245.2 
L 234.072148 244.37725 
L 234.432464 245.2 
L 234.82252 245.2 
L 234.82252 244.37725 
L 235.182836 245.2 
L 236.634678 245.2 
L 236.634678 244.37725 
L 236.994994 245.2 
L 244.659813 245.2 
L 244.659813 244.37725 
L 245.020129 245.2 
L 250.412164 245.2 
L 250.412164 244.37725 
L 250.637361 245.2 
L 250.77248 244.37725 
L 251.132796 245.2 
L 252.511837 245.2 
L 252.511837 244.37725 
L 252.93395 245.2 
L 252.93395 244.37725 
L 253.294266 245.2 
L 254.749978 245.2 
L 254.749978 244.37725 
L 255.0669 245.2 
L 255.110294 244.37725 
L 255.47061 245.2 
L 264.723553 245.2 
L 264.723553 244.37725 
L 265.083869 245.2 
L 266.630964 245.2 
L 266.630964 244.37725 
L 266.99128 245.2 
L 268.20179 245.2 
L 268.20179 244.37725 
L 268.562106 245.2 
L 268.727997 245.2 
L 268.727997 244.37725 
L 269.088313 245.2 
L 269.691959 245.2 
L 269.691959 244.37725 
L 270.052275 245.2 
L 270.823246 245.2 
L 270.823246 244.37725 
L 271.183563 245.2 
L 271.98307 245.2 
L 271.98307 244.37725 
L 272.343386 245.2 
L 272.488011 245.2 
L 272.488011 244.37725 
L 272.848328 245.2 
L 274.247911 245.2 
L 274.247911 244.37725 
L 274.559814 245.2 
L 274.608227 244.37725 
L 274.968543 245.2 
L 275.302968 245.2 
L 275.302968 244.37725 
L 275.528166 245.2 
L 275.663284 244.37725 
L 276.0236 245.2 
L 277.537151 245.2 
L 277.537151 244.37725 
L 277.897467 245.2 
L 279.461369 245.2 
L 279.461369 244.37725 
L 279.821685 245.2 
L 280.148773 245.2 
L 280.148773 244.37725 
L 280.41669 245.2 
L 280.509089 244.37725 
L 280.869405 245.2 
L 283.131015 245.2 
L 283.131015 244.37725 
L 283.525346 245.2 
L 283.525346 244.37725 
L 283.885662 245.2 
L 288.90701 245.2 
L 288.90701 244.37725 
L 289.267326 245.2 
L 289.735762 245.2 
L 289.735762 244.37725 
L 290.096078 245.2 
L 291.692764 245.2 
L 291.692764 244.37725 
L 292.05308 245.2 
L 294.79208 245.2 
L 294.79208 244.37725 
L 295.017277 245.2 
L 295.152396 244.37725 
L 295.242475 245.2 
L 295.512712 244.37725 
L 295.873028 245.2 
L 296.757445 245.2 
L 296.757445 244.37725 
L 297.117761 245.2 
L 300.035995 245.2 
L 300.035995 244.37725 
L 300.396311 245.2 
L 302.053431 245.2 
L 302.053431 244.37725 
L 302.278629 245.2 
L 302.413747 244.37725 
L 302.774063 245.2 
L 308.673561 245.2 
L 308.673561 244.37725 
L 309.033877 245.2 
L 315.427744 245.2 
L 315.427744 244.37725 
L 315.78806 245.2 
L 319.22065 245.2 
L 319.22065 244.37725 
L 319.580966 245.2 
L 320.359855 245.2 
L 320.359855 244.37725 
L 320.720171 245.2 
L 321.643632 245.2 
L 321.643632 244.37725 
L 322.003948 245.2 
L 328.421047 245.2 
L 328.421047 244.37725 
L 328.646245 245.2 
L 328.781363 244.37725 
L 329.14168 245.2 
L 330.197055 245.2 
L 330.197055 244.37725 
L 330.557371 245.2 
L 331.277908 245.2 
L 331.277908 244.37725 
L 331.638224 245.2 
L 333.699674 245.2 
L 333.699674 244.37725 
L 333.924872 245.2 
L 334.05999 244.37725 
L 334.150069 245.2 
L 334.420306 244.37725 
L 334.858171 245.2 
L 334.858171 244.37725 
L 335.218487 245.2 
L 335.457035 245.2 
L 335.457035 244.37725 
L 335.817351 245.2 
L 342.468013 245.2 
L 342.468013 244.37725 
L 342.698717 245.2 
L 342.828329 244.37725 
L 343.188645 245.2 
L 343.501176 245.2 
L 343.501176 244.37725 
L 343.861492 245.2 
L 344.133848 245.2 
L 344.133848 244.37725 
L 344.494164 245.2 
L 345.315048 245.2 
L 345.315048 244.37725 
L 345.542747 245.2 
L 345.675364 244.37725 
L 346.03568 245.2 
L 347.644964 245.2 
L 347.644964 244.37725 
L 348.00528 245.2 
L 348.334431 245.2 
L 348.334431 244.37725 
L 348.694747 245.2 
L 352.161415 245.2 
L 352.161415 244.37725 
L 352.521731 245.2 
L 353.125053 245.2 
L 353.125053 244.37725 
L 353.485369 245.2 
L 357.636052 245.2 
L 357.636052 244.37725 
L 357.861249 245.2 
L 357.996368 244.37725 
L 358.19579 245.2 
L 358.356684 244.37725 
L 358.717 245.2 
L 360.320195 245.2 
L 360.320195 244.37725 
L 360.680511 245.2 
L 361.82063 245.2 
L 361.82063 244.37725 
L 362.180946 245.2 
L 363.326927 245.2 
L 363.326927 244.37725 
L 363.687243 245.2 
L 366.935926 245.2 
L 366.935926 244.37725 
L 367.296242 245.2 
L 367.49156 245.2 
L 367.49156 244.37725 
L 367.851876 245.2 
L 368.772931 245.2 
L 368.772931 244.37725 
L 369.133247 245.2 
L 370.107468 245.2 
L 370.107468 244.37725 
L 370.467784 245.2 
L 374.585445 245.2 
L 374.585445 244.37725 
L 374.810642 245.2 
L 374.945761 244.37725 
L 375.306077 245.2 
L 379.339735 245.2 
L 379.339735 244.37725 
L 379.700051 245.2 
L 380.885303 245.2 
L 380.885303 244.37725 
L 381.1105 245.2 
L 381.245619 244.37725 
L 381.605935 245.2 
L 385.814475 245.2 
L 385.814475 244.37725 
L 386.174791 245.2 
L 386.400602 245.2 
L 386.400602 244.37725 
L 386.760918 245.2 
L 387.091617 245.2 
L 387.091617 244.37725 
L 387.316814 245.2 
L 387.451933 244.37725 
L 387.812249 245.2 
L 389.091816 245.2 
L 389.091816 244.37725 
L 389.452132 245.2 
L 392.419925 245.2 
L 392.419925 244.37725 
L 392.674544 245.2 
L 392.780242 244.37725 
L 393.140558 245.2 
L 394.551396 245.2 
L 394.551396 244.37725 
L 394.911712 245.2 
L 396.821268 245.2 
L 396.821268 244.37725 
L 397.181584 245.2 
L 400.138487 245.2 
L 400.138487 244.37725 
L 400.498803 245.2 
L 400.754005 245.2 
L 400.754005 244.37725 
L 401.114321 245.2 
L 401.308023 245.2 
L 401.308023 244.37725 
L 401.672573 245.2 
L 401.672573 244.37725 
L 402.032889 245.2 
L 402.586335 245.2 
L 402.586335 244.37725 
L 402.946651 245.2 
L 404.177363 245.2 
L 404.177363 244.37725 
L 404.53768 245.2 
L 405.627271 245.2 
L 405.627271 244.37725 
L 405.852468 245.2 
L 405.987587 244.37725 
L 406.077666 245.2 
L 406.347903 244.37725 
L 406.708219 245.2 
L 409.169729 245.2 
L 409.169729 244.37725 
L 409.530045 245.2 
L 410.001575 245.2 
L 410.001575 244.37725 
L 410.226772 245.2 
L 410.361891 244.37725 
L 410.45197 245.2 
L 410.722207 244.37725 
L 411.082523 245.2 
L 411.082523 245.2 
" style="fill:none;stroke:#2ca02c;stroke-linecap:square;stroke-width:1.5;"/>
   </g>
   <g id="line2d_34">
    <path clip-path="url(#p4cde6b53bd)" d="M 52.858832 245.2 
L 52.858832 244.37725 
L 53.03899 245.2 
L 54.477661 245.2 
L 54.477661 244.37725 
L 54.657819 245.2 
L 56.740322 245.2 
L 56.740322 244.37725 
L 56.92048 245.2 
L 60.090549 245.2 
L 60.090549 244.37725 
L 60.270707 245.2 
L 61.75381 245.2 
L 61.75381 244.37725 
L 61.933968 245.2 
L 65.269676 245.2 
L 65.269676 244.37725 
L 65.449834 245.2 
L 66.687882 245.2 
L 66.687882 244.37725 
L 66.86804 245.2 
L 70.072987 245.2 
L 70.072987 244.37725 
L 70.253145 245.2 
L 71.065746 245.2 
L 71.065746 244.37725 
L 71.245904 245.2 
L 72.825902 245.2 
L 72.825902 244.37725 
L 73.00606 245.2 
L 74.696229 245.2 
L 74.696229 244.37725 
L 74.876387 245.2 
L 75.570227 245.2 
L 75.570227 244.37725 
L 75.750385 245.2 
L 76.607071 245.2 
L 76.607071 244.37725 
L 76.787229 245.2 
L 77.243316 245.2 
L 77.243316 244.37725 
L 77.423474 245.2 
L 81.249174 245.2 
L 81.249174 244.37725 
L 81.354359 245.2 
L 81.429332 244.37725 
L 81.60949 245.2 
L 87.326441 245.2 
L 87.326441 244.37725 
L 87.506599 245.2 
L 87.899985 245.2 
L 87.899985 244.37725 
L 88.080143 245.2 
L 88.771233 245.2 
L 88.771233 244.37725 
L 88.951391 245.2 
L 89.941263 245.2 
L 89.941263 244.37725 
L 90.121421 245.2 
L 92.767756 245.2 
L 92.767756 244.37725 
L 92.947914 245.2 
L 95.780379 245.2 
L 95.780379 244.37725 
L 95.960537 245.2 
L 97.136382 245.2 
L 97.136382 244.37725 
L 97.316541 245.2 
L 98.314405 245.2 
L 98.314405 244.37725 
L 98.494563 245.2 
L 99.826711 245.2 
L 99.826711 244.37725 
L 100.006869 245.2 
L 100.725469 245.2 
L 100.725469 244.37725 
L 100.905627 245.2 
L 105.406433 245.2 
L 105.406433 244.37725 
L 105.586591 245.2 
L 108.664356 245.2 
L 108.664356 244.37725 
L 108.797106 245.2 
L 108.844514 244.37725 
L 109.024672 245.2 
L 109.538597 245.2 
L 109.538597 244.37725 
L 109.702831 245.2 
L 109.718755 244.37725 
L 109.898913 245.2 
L 111.584785 245.2 
L 111.584785 244.37725 
L 111.621583 245.2 
L 111.764943 244.37725 
L 111.945101 245.2 
L 112.448956 245.2 
L 112.448956 244.37725 
L 112.629114 245.2 
L 115.669259 245.2 
L 115.669259 244.37725 
L 115.849417 245.2 
L 121.344544 245.2 
L 121.344544 244.37725 
L 121.524702 245.2 
L 124.057336 245.2 
L 124.057336 244.37725 
L 124.32979 245.2 
L 124.32979 244.37725 
L 124.509948 245.2 
L 128.005581 245.2 
L 128.005581 244.37725 
L 128.185739 245.2 
L 131.682413 245.2 
L 131.682413 244.37725 
L 131.862571 245.2 
L 138.60989 245.2 
L 138.60989 244.37725 
L 138.790048 245.2 
L 139.765981 245.2 
L 139.765981 244.37725 
L 139.946139 245.2 
L 142.65795 245.2 
L 142.65795 244.37725 
L 142.838108 245.2 
L 145.565704 245.2 
L 145.565704 244.37725 
L 145.745863 245.2 
L 146.680756 245.2 
L 146.680756 244.37725 
L 146.860914 245.2 
L 148.004853 245.2 
L 148.004853 244.37725 
L 148.185012 245.2 
L 150.737015 245.2 
L 150.737015 244.37725 
L 150.917173 245.2 
L 152.783501 245.2 
L 152.783501 244.37725 
L 153.010274 245.2 
L 153.010274 244.37725 
L 153.190432 245.2 
L 155.307699 245.2 
L 155.307699 244.37725 
L 155.487857 245.2 
L 157.147891 245.2 
L 157.147891 244.37725 
L 157.328049 245.2 
L 158.719448 245.2 
L 158.719448 244.37725 
L 158.998206 245.2 
L 158.998206 244.37725 
L 159.178364 245.2 
L 160.386927 245.2 
L 160.386927 244.37725 
L 160.567085 245.2 
L 165.601459 245.2 
L 165.601459 244.37725 
L 165.781617 245.2 
L 168.162162 245.2 
L 168.162162 244.37725 
L 168.34232 245.2 
L 169.491417 245.2 
L 169.491417 244.37725 
L 169.693097 245.2 
L 169.693097 244.37725 
L 169.873255 245.2 
L 170.657962 245.2 
L 170.657962 244.37725 
L 170.83812 245.2 
L 171.814027 245.2 
L 171.814027 244.37725 
L 171.994185 245.2 
L 172.367617 245.2 
L 172.367617 244.37725 
L 172.547775 245.2 
L 172.739109 245.2 
L 172.739109 244.37725 
L 172.919267 245.2 
L 175.42032 245.2 
L 175.42032 244.37725 
L 175.600478 245.2 
L 177.825953 245.2 
L 177.825953 244.37725 
L 178.006111 245.2 
L 178.923264 245.2 
L 178.923264 244.37725 
L 179.103422 245.2 
L 179.362937 245.2 
L 179.362937 244.37725 
L 179.543095 245.2 
L 180.876868 245.2 
L 180.876868 244.37725 
L 181.138598 245.2 
L 181.138598 244.37725 
L 181.172772 245.2 
L 181.318756 244.37725 
L 181.498914 245.2 
L 181.878578 245.2 
L 181.878578 244.37725 
L 182.058736 245.2 
L 183.610584 245.2 
L 183.610584 244.37725 
L 183.902686 245.2 
L 183.902686 244.37725 
L 184.082844 245.2 
L 185.608776 245.2 
L 185.608776 244.37725 
L 185.788934 245.2 
L 186.061769 245.2 
L 186.061769 244.37725 
L 186.241927 245.2 
L 187.790472 245.2 
L 187.790472 244.37725 
L 187.97063 245.2 
L 188.670647 245.2 
L 188.670647 244.37725 
L 188.850805 245.2 
L 193.855443 245.2 
L 193.855443 244.37725 
L 194.035601 245.2 
L 198.051169 245.2 
L 198.051169 244.37725 
L 198.231327 245.2 
L 200.114229 245.2 
L 200.114229 244.37725 
L 200.294387 245.2 
L 201.191117 245.2 
L 201.191117 244.37725 
L 201.371275 245.2 
L 201.993754 245.2 
L 201.993754 244.37725 
L 202.173912 245.2 
L 203.704345 245.2 
L 203.704345 244.37725 
L 203.884503 245.2 
L 204.739412 245.2 
L 204.739412 244.37725 
L 204.91957 245.2 
L 208.930521 245.2 
L 208.930521 244.37725 
L 209.110679 245.2 
L 211.085405 245.2 
L 211.085405 244.37725 
L 211.273781 245.2 
L 211.273781 244.37725 
L 211.385686 245.2 
L 211.453939 244.37725 
L 211.634097 245.2 
L 217.691604 245.2 
L 217.691604 244.37725 
L 217.871762 245.2 
L 219.671383 245.2 
L 219.671383 244.37725 
L 219.851541 245.2 
L 221.578958 245.2 
L 221.578958 244.37725 
L 221.759116 245.2 
L 223.579789 245.2 
L 223.579789 244.37725 
L 223.759947 245.2 
L 223.917452 245.2 
L 223.917452 244.37725 
L 224.09761 245.2 
L 224.342998 245.2 
L 224.342998 244.37725 
L 224.523156 245.2 
L 225.141826 245.2 
L 225.141826 244.37725 
L 225.390496 245.2 
L 225.390496 244.37725 
L 225.570654 245.2 
L 227.892968 245.2 
L 227.892968 244.37725 
L 228.073126 245.2 
L 228.575698 245.2 
L 228.575698 244.37725 
L 228.755857 245.2 
L 230.262089 245.2 
L 230.262089 244.37725 
L 230.442247 245.2 
L 231.076587 245.2 
L 231.076587 244.37725 
L 231.256745 245.2 
L 231.784811 245.2 
L 231.784811 244.37725 
L 231.964969 245.2 
L 233.306116 245.2 
L 233.306116 244.37725 
L 233.376708 245.2 
L 233.486274 244.37725 
L 233.666432 245.2 
L 234.416804 245.2 
L 234.416804 244.37725 
L 234.596962 245.2 
L 236.228962 245.2 
L 236.228962 244.37725 
L 236.40912 245.2 
L 244.254097 245.2 
L 244.254097 244.37725 
L 244.434255 245.2 
L 250.006448 245.2 
L 250.006448 244.37725 
L 250.200361 245.2 
L 250.200361 244.37725 
L 250.380519 245.2 
L 252.106121 245.2 
L 252.106121 244.37725 
L 252.286279 245.2 
L 252.528234 245.2 
L 252.528234 244.37725 
L 252.708392 245.2 
L 254.344262 245.2 
L 254.344262 244.37725 
L 254.52442 245.2 
L 254.661184 245.2 
L 254.661184 244.37725 
L 254.841342 245.2 
L 264.317837 245.2 
L 264.317837 244.37725 
L 264.497995 245.2 
L 266.225248 245.2 
L 266.225248 244.37725 
L 266.405406 245.2 
L 267.796074 245.2 
L 267.796074 244.37725 
L 267.976232 245.2 
L 268.322281 245.2 
L 268.322281 244.37725 
L 268.502439 245.2 
L 269.286243 245.2 
L 269.286243 244.37725 
L 269.466401 245.2 
L 270.41753 245.2 
L 270.41753 244.37725 
L 270.597689 245.2 
L 271.577354 245.2 
L 271.577354 244.37725 
L 271.757512 245.2 
L 272.082295 245.2 
L 272.082295 244.37725 
L 272.262454 245.2 
L 273.842195 245.2 
L 273.842195 244.37725 
L 274.022353 245.2 
L 274.154098 245.2 
L 274.154098 244.37725 
L 274.334256 245.2 
L 274.897252 245.2 
L 274.897252 244.37725 
L 275.107957 245.2 
L 275.107957 244.37725 
L 275.288115 245.2 
L 277.131435 245.2 
L 277.131435 244.37725 
L 277.311593 245.2 
L 279.055653 245.2 
L 279.055653 244.37725 
L 279.235811 245.2 
L 279.743057 245.2 
L 279.743057 244.37725 
L 280.010974 245.2 
L 280.010974 244.37725 
L 280.191132 245.2 
L 282.725299 245.2 
L 282.725299 244.37725 
L 282.905457 245.2 
L 283.11963 245.2 
L 283.11963 244.37725 
L 283.299788 245.2 
L 288.501294 245.2 
L 288.501294 244.37725 
L 288.681452 245.2 
L 289.330046 245.2 
L 289.330046 244.37725 
L 289.510204 245.2 
L 291.287048 245.2 
L 291.287048 244.37725 
L 291.467206 245.2 
L 294.386364 245.2 
L 294.386364 244.37725 
L 294.410982 245.2 
L 294.566522 244.37725 
L 294.595004 245.2 
L 294.74668 244.37725 
L 294.926838 245.2 
L 296.351729 245.2 
L 296.351729 244.37725 
L 296.531887 245.2 
L 299.630279 245.2 
L 299.630279 244.37725 
L 299.810437 245.2 
L 301.647715 245.2 
L 301.647715 244.37725 
L 301.829738 245.2 
L 301.829738 244.37725 
L 302.009896 245.2 
L 308.267845 245.2 
L 308.267845 244.37725 
L 308.448003 245.2 
L 315.022028 245.2 
L 315.022028 244.37725 
L 315.202186 245.2 
L 318.814934 245.2 
L 318.814934 244.37725 
L 318.995092 245.2 
L 319.954139 245.2 
L 319.954139 244.37725 
L 320.134297 245.2 
L 321.237916 245.2 
L 321.237916 244.37725 
L 321.418074 245.2 
L 328.015331 245.2 
L 328.015331 244.37725 
L 328.11861 245.2 
L 328.195489 244.37725 
L 328.375647 245.2 
L 329.791339 245.2 
L 329.791339 244.37725 
L 329.971497 245.2 
L 330.872192 245.2 
L 330.872192 244.37725 
L 331.05235 245.2 
L 333.293958 245.2 
L 333.293958 244.37725 
L 333.402353 244.37725 
L 333.474116 243.5545 
L 333.834432 245.2 
L 334.452455 245.2 
L 334.452455 244.37725 
L 334.632613 245.2 
L 335.051319 245.2 
L 335.051319 244.37725 
L 335.231477 245.2 
L 342.062297 245.2 
L 342.062297 244.37725 
L 342.293001 245.2 
L 342.293001 244.37725 
L 342.473159 245.2 
L 343.09546 245.2 
L 343.09546 244.37725 
L 343.275618 245.2 
L 343.728132 245.2 
L 343.728132 244.37725 
L 343.90829 245.2 
L 344.909332 245.2 
L 344.909332 244.37725 
L 345.137031 245.2 
L 345.137031 244.37725 
L 345.317189 245.2 
L 347.239248 245.2 
L 347.239248 244.37725 
L 347.419406 245.2 
L 347.928715 245.2 
L 347.928715 244.37725 
L 348.108873 245.2 
L 351.755699 245.2 
L 351.755699 244.37725 
L 351.935857 245.2 
L 352.719337 245.2 
L 352.719337 244.37725 
L 352.899495 245.2 
L 357.230336 245.2 
L 357.230336 244.37725 
L 357.349776 245.2 
L 357.410494 244.37725 
L 357.590652 245.2 
L 357.790074 245.2 
L 357.790074 244.37725 
L 357.970232 245.2 
L 359.914479 245.2 
L 359.914479 244.37725 
L 360.094637 245.2 
L 361.414914 245.2 
L 361.414914 244.37725 
L 361.595072 245.2 
L 362.921211 245.2 
L 362.921211 244.37725 
L 363.101369 245.2 
L 366.53021 245.2 
L 366.53021 244.37725 
L 366.710368 245.2 
L 367.085844 245.2 
L 367.085844 244.37725 
L 367.266002 245.2 
L 368.367215 245.2 
L 368.367215 244.37725 
L 368.547373 245.2 
L 369.701752 245.2 
L 369.701752 244.37725 
L 369.88191 245.2 
L 374.179729 245.2 
L 374.179729 244.37725 
L 374.357455 245.2 
L 374.359887 244.37725 
L 374.540045 245.2 
L 378.934019 245.2 
L 378.934019 244.37725 
L 379.114177 245.2 
L 380.479587 245.2 
L 380.479587 244.37725 
L 380.635911 245.2 
L 380.659745 244.37725 
L 380.839903 245.2 
L 385.408759 245.2 
L 385.408759 244.37725 
L 385.588917 245.2 
L 385.994886 245.2 
L 385.994886 244.37725 
L 386.175044 245.2 
L 386.685901 245.2 
L 386.685901 244.37725 
L 386.702837 245.2 
L 386.866059 244.37725 
L 387.046217 245.2 
L 388.6861 245.2 
L 388.6861 244.37725 
L 388.866258 245.2 
L 392.014209 245.2 
L 392.014209 244.37725 
L 392.268828 245.2 
L 392.268828 244.37725 
L 392.448986 245.2 
L 394.14568 245.2 
L 394.14568 244.37725 
L 394.325838 245.2 
L 396.415552 245.2 
L 396.415552 244.37725 
L 396.59571 245.2 
L 399.732771 245.2 
L 399.732771 244.37725 
L 399.912929 245.2 
L 400.348289 245.2 
L 400.348289 244.37725 
L 400.528447 245.2 
L 400.902307 245.2 
L 400.902307 244.37725 
L 401.082465 245.2 
L 401.266857 245.2 
L 401.266857 244.37725 
L 401.447015 245.2 
L 402.180619 245.2 
L 402.180619 244.37725 
L 402.360777 245.2 
L 403.771647 245.2 
L 403.771647 244.37725 
L 403.951806 245.2 
L 405.221555 245.2 
L 405.221555 244.37725 
L 405.258149 245.2 
L 405.401713 244.37725 
L 405.582888 245.2 
L 405.582888 244.37725 
L 405.763046 245.2 
L 408.764013 245.2 
L 408.764013 244.37725 
L 408.944171 245.2 
L 409.595859 245.2 
L 409.595859 244.37725 
L 409.604338 245.2 
L 409.776017 244.37725 
L 409.889603 245.2 
L 409.956175 244.37725 
L 410.136333 245.2 
L 410.136333 245.2 
" style="fill:none;stroke:#d62728;stroke-linecap:square;stroke-width:1.5;"/>
   </g>
   <g id="line2d_35">
    <path clip-path="url(#p4cde6b53bd)" d="M 53.03917 245.2 
L 53.03917 244.37725 
L 53.264368 245.2 
L 54.657999 245.2 
L 54.657999 244.37725 
L 54.883197 245.2 
L 56.92066 245.2 
L 56.92066 244.37725 
L 57.145857 245.2 
L 60.270887 245.2 
L 60.270887 244.37725 
L 60.496084 245.2 
L 61.934148 245.2 
L 61.934148 244.37725 
L 62.159345 245.2 
L 65.450014 245.2 
L 65.450014 244.37725 
L 65.675212 245.2 
L 66.86822 245.2 
L 66.86822 244.37725 
L 67.093418 245.2 
L 70.253326 245.2 
L 70.253326 244.37725 
L 70.478523 245.2 
L 71.246084 245.2 
L 71.246084 244.37725 
L 71.471282 245.2 
L 73.00624 245.2 
L 73.00624 244.37725 
L 73.231437 245.2 
L 74.876567 245.2 
L 74.876567 244.37725 
L 75.101765 245.2 
L 75.750565 245.2 
L 75.750565 244.37725 
L 75.975763 245.2 
L 76.787409 245.2 
L 76.787409 244.37725 
L 77.012607 245.2 
L 77.423654 245.2 
L 77.423654 244.37725 
L 77.648851 245.2 
L 81.429512 245.2 
L 81.429512 244.37725 
L 81.609671 245.2 
L 81.65471 244.37725 
L 81.879908 245.2 
L 87.506779 245.2 
L 87.506779 244.37725 
L 87.731977 245.2 
L 88.080323 245.2 
L 88.080323 244.37725 
L 88.305521 245.2 
L 88.951571 245.2 
L 88.951571 244.37725 
L 89.176769 245.2 
L 90.121601 245.2 
L 90.121601 244.37725 
L 90.346799 245.2 
L 92.948094 245.2 
L 92.948094 244.37725 
L 93.173292 245.2 
L 95.960718 245.2 
L 95.960718 244.37725 
L 96.185915 245.2 
L 97.316721 245.2 
L 97.316721 244.37725 
L 97.541918 245.2 
L 98.494743 245.2 
L 98.494743 244.37725 
L 98.71994 245.2 
L 100.007049 245.2 
L 100.007049 244.37725 
L 100.232246 245.2 
L 100.905807 245.2 
L 100.905807 244.37725 
L 101.131005 245.2 
L 105.586771 245.2 
L 105.586771 244.37725 
L 105.811969 245.2 
L 108.844694 245.2 
L 108.844694 244.37725 
L 109.024852 245.2 
L 109.069892 244.37725 
L 109.295089 245.2 
L 109.718935 245.2 
L 109.718935 244.37725 
L 109.899093 245.2 
L 109.944133 244.37725 
L 110.169331 245.2 
L 111.765123 245.2 
L 111.765123 244.37725 
L 111.945281 245.2 
L 111.990321 244.37725 
L 112.215518 245.2 
L 112.629294 245.2 
L 112.629294 244.37725 
L 112.854491 245.2 
L 115.849597 245.2 
L 115.849597 244.37725 
L 116.074795 245.2 
L 121.524882 245.2 
L 121.524882 244.37725 
L 121.75008 245.2 
L 124.237674 245.2 
L 124.237674 244.37725 
L 124.510129 245.2 
L 124.510129 244.37725 
L 124.735326 245.2 
L 128.185919 245.2 
L 128.185919 244.37725 
L 128.411117 245.2 
L 131.862751 245.2 
L 131.862751 244.37725 
L 132.087949 245.2 
L 138.790228 245.2 
L 138.790228 244.37725 
L 139.015426 245.2 
L 139.946319 245.2 
L 139.946319 244.37725 
L 140.171517 245.2 
L 142.838288 245.2 
L 142.838288 244.37725 
L 143.063485 245.2 
L 145.746043 245.2 
L 145.746043 244.37725 
L 145.97124 245.2 
L 146.861094 245.2 
L 146.861094 244.37725 
L 147.086292 245.2 
L 148.185192 245.2 
L 148.185192 244.37725 
L 148.410389 245.2 
L 150.917354 245.2 
L 150.917354 244.37725 
L 151.142551 245.2 
L 152.963839 245.2 
L 152.963839 244.37725 
L 153.190612 245.2 
L 153.190612 244.37725 
L 153.41581 245.2 
L 155.488038 245.2 
L 155.488038 244.37725 
L 155.713235 245.2 
L 157.328229 245.2 
L 157.328229 244.37725 
L 157.553427 245.2 
L 158.899786 245.2 
L 158.899786 244.37725 
L 159.178544 245.2 
L 159.178544 244.37725 
L 159.403742 245.2 
L 160.567265 245.2 
L 160.567265 244.37725 
L 160.792463 245.2 
L 165.781797 245.2 
L 165.781797 244.37725 
L 166.006995 245.2 
L 168.3425 245.2 
L 168.3425 244.37725 
L 168.567698 245.2 
L 169.671756 245.2 
L 169.671756 244.37725 
L 169.873436 245.2 
L 169.896953 244.37725 
L 170.122151 245.2 
L 170.8383 245.2 
L 170.8383 244.37725 
L 171.063498 245.2 
L 171.994365 245.2 
L 171.994365 244.37725 
L 172.219563 245.2 
L 172.547956 245.2 
L 172.547956 244.37725 
L 172.773153 245.2 
L 172.919447 245.2 
L 172.919447 244.37725 
L 173.144645 245.2 
L 175.600659 245.2 
L 175.600659 244.37725 
L 175.825856 245.2 
L 178.006291 245.2 
L 178.006291 244.37725 
L 178.231489 245.2 
L 179.103603 245.2 
L 179.103603 244.37725 
L 179.3288 245.2 
L 179.543276 245.2 
L 179.543276 244.37725 
L 179.768473 245.2 
L 181.057206 245.2 
L 181.057206 244.37725 
L 181.318936 245.2 
L 181.318936 244.37725 
L 181.499094 245.2 
L 181.544134 244.37725 
L 181.769332 245.2 
L 182.058917 245.2 
L 182.058917 244.37725 
L 182.284114 245.2 
L 183.790922 245.2 
L 183.790922 244.37725 
L 184.083024 245.2 
L 184.083024 244.37725 
L 184.308221 245.2 
L 185.789115 245.2 
L 185.789115 244.37725 
L 186.014312 245.2 
L 186.242108 245.2 
L 186.242108 244.37725 
L 186.467305 245.2 
L 187.970811 245.2 
L 187.970811 244.37725 
L 188.196008 245.2 
L 188.850986 245.2 
L 188.850986 244.37725 
L 189.076183 245.2 
L 194.035782 245.2 
L 194.035782 244.37725 
L 194.260979 245.2 
L 198.231507 245.2 
L 198.231507 244.37725 
L 198.456704 245.2 
L 200.294567 245.2 
L 200.294567 244.37725 
L 200.519765 245.2 
L 201.371455 245.2 
L 201.371455 244.37725 
L 201.596652 245.2 
L 202.174092 245.2 
L 202.174092 244.37725 
L 202.39929 245.2 
L 203.884683 245.2 
L 203.884683 244.37725 
L 204.109881 245.2 
L 204.91975 245.2 
L 204.91975 244.37725 
L 205.144947 245.2 
L 209.110859 245.2 
L 209.110859 244.37725 
L 209.336056 245.2 
L 211.265743 245.2 
L 211.265743 244.37725 
L 211.454119 245.2 
L 211.490941 244.37725 
L 211.634277 245.2 
L 211.716139 244.37725 
L 211.941336 245.2 
L 217.871942 245.2 
L 217.871942 244.37725 
L 218.097139 245.2 
L 219.851721 245.2 
L 219.851721 244.37725 
L 220.076919 245.2 
L 221.759296 245.2 
L 221.759296 244.37725 
L 221.984494 245.2 
L 223.760127 245.2 
L 223.760127 244.37725 
L 224.09779 245.2 
L 224.09779 244.37725 
L 224.322988 245.2 
L 224.523336 245.2 
L 224.523336 244.37725 
L 224.748533 245.2 
L 225.322164 245.2 
L 225.322164 244.37725 
L 225.570834 245.2 
L 225.570834 244.37725 
L 225.796031 245.2 
L 228.073306 245.2 
L 228.073306 244.37725 
L 228.298504 245.2 
L 228.756037 245.2 
L 228.756037 244.37725 
L 228.981234 245.2 
L 230.442427 245.2 
L 230.442427 244.37725 
L 230.667625 245.2 
L 231.256925 245.2 
L 231.256925 244.37725 
L 231.482123 245.2 
L 231.965149 245.2 
L 231.965149 244.37725 
L 232.190347 245.2 
L 233.486454 245.2 
L 233.486454 244.37725 
L 233.666612 245.2 
L 233.711652 244.37725 
L 233.936849 245.2 
L 234.597142 245.2 
L 234.597142 244.37725 
L 234.82234 245.2 
L 236.4093 245.2 
L 236.4093 244.37725 
L 236.634497 245.2 
L 244.434435 245.2 
L 244.434435 244.37725 
L 244.659633 245.2 
L 250.186786 245.2 
L 250.186786 244.37725 
L 250.380699 245.2 
L 250.411984 244.37725 
L 250.637181 245.2 
L 252.286459 245.2 
L 252.286459 244.37725 
L 252.511656 245.2 
L 252.708572 245.2 
L 252.708572 244.37725 
L 252.93377 245.2 
L 254.5246 245.2 
L 254.5246 244.37725 
L 254.841522 245.2 
L 254.841522 244.37725 
L 255.06672 245.2 
L 264.498175 245.2 
L 264.498175 244.37725 
L 264.723373 245.2 
L 266.405586 245.2 
L 266.405586 244.37725 
L 266.630783 245.2 
L 267.976412 245.2 
L 267.976412 244.37725 
L 268.20161 245.2 
L 268.502619 245.2 
L 268.502619 244.37725 
L 268.727817 245.2 
L 269.466581 245.2 
L 269.466581 244.37725 
L 269.691779 245.2 
L 270.597869 245.2 
L 270.597869 244.37725 
L 270.823066 245.2 
L 271.757692 245.2 
L 271.757692 244.37725 
L 271.98289 245.2 
L 272.262634 245.2 
L 272.262634 244.37725 
L 272.487831 245.2 
L 274.022533 245.2 
L 274.022533 244.37725 
L 274.334436 245.2 
L 274.334436 244.37725 
L 274.559634 245.2 
L 275.07759 245.2 
L 275.07759 244.37725 
L 275.288295 245.2 
L 275.302788 244.37725 
L 275.527986 245.2 
L 277.311773 245.2 
L 277.311773 244.37725 
L 277.536971 245.2 
L 279.235991 245.2 
L 279.235991 244.37725 
L 279.461189 245.2 
L 279.923395 245.2 
L 279.923395 244.37725 
L 280.191312 245.2 
L 280.191312 244.37725 
L 280.41651 245.2 
L 282.905637 245.2 
L 282.905637 244.37725 
L 283.130835 245.2 
L 283.299968 245.2 
L 283.299968 244.37725 
L 283.525166 245.2 
L 288.681632 245.2 
L 288.681632 244.37725 
L 288.906829 245.2 
L 289.510384 245.2 
L 289.510384 244.37725 
L 289.735582 245.2 
L 291.467386 245.2 
L 291.467386 244.37725 
L 291.692584 245.2 
L 294.566702 245.2 
L 294.566702 244.37725 
L 294.74686 245.2 
L 294.7919 244.37725 
L 294.927018 245.2 
L 295.017097 244.37725 
L 295.242295 245.2 
L 296.532067 245.2 
L 296.532067 244.37725 
L 296.757265 245.2 
L 299.810618 245.2 
L 299.810618 244.37725 
L 300.035815 245.2 
L 301.828053 245.2 
L 301.828053 244.37725 
L 302.010076 245.2 
L 302.053251 244.37725 
L 302.278449 245.2 
L 308.448183 245.2 
L 308.448183 244.37725 
L 308.673381 245.2 
L 315.202366 245.2 
L 315.202366 244.37725 
L 315.427563 245.2 
L 318.995272 245.2 
L 318.995272 244.37725 
L 319.22047 245.2 
L 320.134477 245.2 
L 320.134477 244.37725 
L 320.359675 245.2 
L 321.418254 245.2 
L 321.418254 244.37725 
L 321.643452 245.2 
L 328.19567 245.2 
L 328.19567 244.37725 
L 328.375828 245.2 
L 328.420867 244.37725 
L 328.646065 245.2 
L 329.971677 245.2 
L 329.971677 244.37725 
L 330.196875 245.2 
L 331.05253 245.2 
L 331.05253 244.37725 
L 331.277728 245.2 
L 333.474296 245.2 
L 333.474296 244.37725 
L 333.654455 245.2 
L 333.699494 244.37725 
L 333.834613 245.2 
L 333.924692 244.37725 
L 334.149889 245.2 
L 334.632794 245.2 
L 334.632794 244.37725 
L 334.857991 245.2 
L 335.231657 245.2 
L 335.231657 244.37725 
L 335.456855 245.2 
L 342.242635 245.2 
L 342.242635 244.37725 
L 342.473339 245.2 
L 342.473339 244.37725 
L 342.698537 245.2 
L 343.275798 245.2 
L 343.275798 244.37725 
L 343.500996 245.2 
L 343.908471 245.2 
L 343.908471 244.37725 
L 344.133668 245.2 
L 345.08967 245.2 
L 345.08967 244.37725 
L 345.317369 245.2 
L 345.317369 244.37725 
L 345.542567 245.2 
L 347.419586 245.2 
L 347.419586 244.37725 
L 347.644784 245.2 
L 348.109053 245.2 
L 348.109053 244.37725 
L 348.33425 245.2 
L 351.936037 245.2 
L 351.936037 244.37725 
L 352.161235 245.2 
L 352.899675 245.2 
L 352.899675 244.37725 
L 353.124872 245.2 
L 357.410674 245.2 
L 357.410674 244.37725 
L 357.590832 245.2 
L 357.635871 244.37725 
L 357.970412 245.2 
L 357.970412 244.37725 
L 358.19561 245.2 
L 360.094817 245.2 
L 360.094817 244.37725 
L 360.320015 245.2 
L 361.595252 245.2 
L 361.595252 244.37725 
L 361.820449 245.2 
L 363.101549 245.2 
L 363.101549 244.37725 
L 363.326747 245.2 
L 366.710548 245.2 
L 366.710548 244.37725 
L 366.935746 245.2 
L 367.266183 245.2 
L 367.266183 244.37725 
L 367.49138 245.2 
L 368.547553 245.2 
L 368.547553 244.37725 
L 368.772751 245.2 
L 369.88209 245.2 
L 369.88209 244.37725 
L 370.107288 245.2 
L 374.360067 245.2 
L 374.360067 244.37725 
L 374.540225 245.2 
L 374.585265 244.37725 
L 374.810462 245.2 
L 379.114357 245.2 
L 379.114357 244.37725 
L 379.339555 245.2 
L 380.659925 245.2 
L 380.659925 244.37725 
L 380.840083 245.2 
L 380.885123 244.37725 
L 381.11032 245.2 
L 385.589097 245.2 
L 385.589097 244.37725 
L 385.814295 245.2 
L 386.175224 245.2 
L 386.175224 244.37725 
L 386.400422 245.2 
L 386.866239 245.2 
L 386.866239 244.37725 
L 387.046397 245.2 
L 387.091437 244.37725 
L 387.316634 245.2 
L 388.866438 245.2 
L 388.866438 244.37725 
L 389.091636 245.2 
L 392.194548 245.2 
L 392.194548 244.37725 
L 392.449166 245.2 
L 392.449166 244.37725 
L 392.674364 245.2 
L 394.326018 245.2 
L 394.326018 244.37725 
L 394.551216 245.2 
L 396.595891 245.2 
L 396.595891 244.37725 
L 396.821088 245.2 
L 399.913109 245.2 
L 399.913109 244.37725 
L 400.138307 245.2 
L 400.528627 245.2 
L 400.528627 244.37725 
L 400.753825 245.2 
L 401.082645 245.2 
L 401.082645 244.37725 
L 401.307843 245.2 
L 401.447196 245.2 
L 401.447196 244.37725 
L 401.672393 245.2 
L 402.360957 245.2 
L 402.360957 244.37725 
L 402.586155 245.2 
L 403.951986 245.2 
L 403.951986 244.37725 
L 404.177183 245.2 
L 405.401893 245.2 
L 405.401893 244.37725 
L 405.582051 245.2 
L 405.627091 244.37725 
L 405.763227 245.2 
L 405.852288 244.37725 
L 406.077486 245.2 
L 408.944352 245.2 
L 408.944352 244.37725 
L 409.169549 245.2 
L 409.776197 245.2 
L 409.776197 244.37725 
L 409.956355 245.2 
L 410.001395 244.37725 
L 410.136513 245.2 
L 410.226592 244.37725 
L 410.45179 245.2 
L 410.45179 245.2 
" style="fill:none;stroke:#9467bd;stroke-linecap:square;stroke-width:1.5;"/>
   </g>
   <g id="patch_3">
    <path d="M 51.425 245.2 
L 51.425 25.8 
" style="fill:none;stroke:#000000;stroke-linecap:square;stroke-linejoin:miter;stroke-width:0.8;"/>
   </g>
   <g id="patch_4">
    <path d="M 415.560319 245.2 
L 415.560319 25.8 
" style="fill:none;stroke:#000000;stroke-linecap:square;stroke-linejoin:miter;stroke-width:0.8;"/>
   </g>
   <g id="patch_5">
    <path d="M 51.425 245.2 
L 415.560319 245.2 
" style="fill:none;stroke:#000000;stroke-linecap:square;stroke-linejoin:miter;stroke-width:0.8;"/>
   </g>
   <g id="patch_6">
    <path d="M 51.425 25.8 
L 415.560319 25.8 
" style="fill:none;stroke:#000000;stroke-linecap:square;stroke-linejoin:miter;stroke-width:0.8;"/>
   </g>
   <g id="text_18">
    <!-- Paquetes enviados y recibidos y en buffers -->
    <defs>
     <path id="DejaVuSans-32"/>
     <path d="M 54.890625 33.015625 
L 54.890625 0 
L 45.90625 0 
L 45.90625 32.71875 
Q 45.90625 40.484375 42.875 44.328125 
Q 39.84375 48.1875 33.796875 48.1875 
Q 26.515625 48.1875 22.3125 43.546875 
Q 18.109375 38.921875 18.109375 30.90625 
L 18.109375 0 
L 9.078125 0 
L 9.078125 54.6875 
L 18.109375 54.6875 
L 18.109375 46.1875 
Q 21.34375 51.125 25.703125 53.5625 
Q 30.078125 56 35.796875 56 
Q 45.21875 56 50.046875 50.171875 
Q 54.890625 44.34375 54.890625 33.015625 
z
" id="DejaVuSans-110"/>
     <path d="M 2.984375 54.6875 
L 12.5 54.6875 
L 29.59375 8.796875 
L 46.6875 54.6875 
L 56.203125 54.6875 
L 35.6875 0 
L 23.484375 0 
z
" id="DejaVuSans-118"/>
     <path d="M 45.40625 46.390625 
L 45.40625 75.984375 
L 54.390625 75.984375 
L 54.390625 0 
L 45.40625 0 
L 45.40625 8.203125 
Q 42.578125 3.328125 38.25 0.953125 
Q 33.9375 -1.421875 27.875 -1.421875 
Q 17.96875 -1.421875 11.734375 6.484375 
Q 5.515625 14.40625 5.515625 27.296875 
Q 5.515625 40.1875 11.734375 48.09375 
Q 17.96875 56 27.875 56 
Q 33.9375 56 38.25 53.625 
Q 42.578125 51.265625 45.40625 46.390625 
z
M 14.796875 27.296875 
Q 14.796875 17.390625 18.875 11.75 
Q 22.953125 6.109375 30.078125 6.109375 
Q 37.203125 6.109375 41.296875 11.75 
Q 45.40625 17.390625 45.40625 27.296875 
Q 45.40625 37.203125 41.296875 42.84375 
Q 37.203125 48.484375 30.078125 48.484375 
Q 22.953125 48.484375 18.875 42.84375 
Q 14.796875 37.203125 14.796875 27.296875 
z
" id="DejaVuSans-100"/>
     <path d="M 32.171875 -5.078125 
Q 28.375 -14.84375 24.75 -17.8125 
Q 21.140625 -20.796875 15.09375 -20.796875 
L 7.90625 -20.796875 
L 7.90625 -13.28125 
L 13.1875 -13.28125 
Q 16.890625 -13.28125 18.9375 -11.515625 
Q 21 -9.765625 23.484375 -3.21875 
L 25.09375 0.875 
L 2.984375 54.6875 
L 12.5 54.6875 
L 29.59375 11.921875 
L 46.6875 54.6875 
L 56.203125 54.6875 
z
" id="DejaVuSans-121"/>
     <path d="M 41.109375 46.296875 
Q 39.59375 47.171875 37.8125 47.578125 
Q 36.03125 48 33.890625 48 
Q 26.265625 48 22.1875 43.046875 
Q 18.109375 38.09375 18.109375 28.8125 
L 18.109375 0 
L 9.078125 0 
L 9.078125 54.6875 
L 18.109375 54.6875 
L 18.109375 46.1875 
Q 20.953125 51.171875 25.484375 53.578125 
Q 30.03125 56 36.53125 56 
Q 37.453125 56 38.578125 55.875 
Q 39.703125 55.765625 41.0625 55.515625 
z
" id="DejaVuSans-114"/>
     <path d="M 48.78125 52.59375 
L 48.78125 44.1875 
Q 44.96875 46.296875 41.140625 47.34375 
Q 37.3125 48.390625 33.40625 48.390625 
Q 24.65625 48.390625 19.8125 42.84375 
Q 14.984375 37.3125 14.984375 27.296875 
Q 14.984375 17.28125 19.8125 11.734375 
Q 24.65625 6.203125 33.40625 6.203125 
Q 37.3125 6.203125 41.140625 7.25 
Q 44.96875 8.296875 48.78125 10.40625 
L 48.78125 2.09375 
Q 45.015625 0.34375 40.984375 -0.53125 
Q 36.96875 -1.421875 32.421875 -1.421875 
Q 20.0625 -1.421875 12.78125 6.34375 
Q 5.515625 14.109375 5.515625 27.296875 
Q 5.515625 40.671875 12.859375 48.328125 
Q 20.21875 56 33.015625 56 
Q 37.15625 56 41.109375 55.140625 
Q 45.0625 54.296875 48.78125 52.59375 
z
" id="DejaVuSans-99"/>
     <path d="M 48.6875 27.296875 
Q 48.6875 37.203125 44.609375 42.84375 
Q 40.53125 48.484375 33.40625 48.484375 
Q 26.265625 48.484375 22.1875 42.84375 
Q 18.109375 37.203125 18.109375 27.296875 
Q 18.109375 17.390625 22.1875 11.75 
Q 26.265625 6.109375 33.40625 6.109375 
Q 40.53125 6.109375 44.609375 11.75 
Q 48.6875 17.390625 48.6875 27.296875 
z
M 18.109375 46.390625 
Q 20.953125 51.265625 25.265625 53.625 
Q 29.59375 56 35.59375 56 
Q 45.5625 56 51.78125 48.09375 
Q 58.015625 40.1875 58.015625 27.296875 
Q 58.015625 14.40625 51.78125 6.484375 
Q 45.5625 -1.421875 35.59375 -1.421875 
Q 29.59375 -1.421875 25.265625 0.953125 
Q 20.953125 3.328125 18.109375 8.203125 
L 18.109375 0 
L 9.078125 0 
L 9.078125 75.984375 
L 18.109375 75.984375 
z
" id="DejaVuSans-98"/>
     <path d="M 37.109375 75.984375 
L 37.109375 68.5 
L 28.515625 68.5 
Q 23.6875 68.5 21.796875 66.546875 
Q 19.921875 64.59375 19.921875 59.515625 
L 19.921875 54.6875 
L 34.71875 54.6875 
L 34.71875 47.703125 
L 19.921875 47.703125 
L 19.921875 0 
L 10.890625 0 
L 10.890625 47.703125 
L 2.296875 47.703125 
L 2.296875 54.6875 
L 10.890625 54.6875 
L 10.890625 58.5 
Q 10.890625 67.625 15.140625 71.796875 
Q 19.390625 75.984375 28.609375 75.984375 
z
" id="DejaVuSans-102"/>
    </defs>
    <g transform="translate(104.370785 19.8)scale(0.12 -0.12)">
     <use xlink:href="#DejaVuSans-80"/>
     <use x="60.240234" xlink:href="#DejaVuSans-97"/>
     <use x="121.519531" xlink:href="#DejaVuSans-113"/>
     <use x="184.996094" xlink:href="#DejaVuSans-117"/>
     <use x="248.375" xlink:href="#DejaVuSans-101"/>
     <use x="309.898438" xlink:href="#DejaVuSans-116"/>
     <use x="349.107422" xlink:href="#DejaVuSans-101"/>
     <use x="410.630859" xlink:href="#DejaVuSans-115"/>
     <use x="462.730469" xlink:href="#DejaVuSans-32"/>
     <use x="494.517578" xlink:href="#DejaVuSans-101"/>
     <use x="556.041016" xlink:href="#DejaVuSans-110"/>
     <use x="619.419922" xlink:href="#DejaVuSans-118"/>
     <use x="678.599609" xlink:href="#DejaVuSans-105"/>
     <use x="706.382812" xlink:href="#DejaVuSans-97"/>
     <use x="767.662109" xlink:href="#DejaVuSans-100"/>
     <use x="831.138672" xlink:href="#DejaVuSans-111"/>
     <use x="892.320312" xlink:href="#DejaVuSans-115"/>
     <use x="944.419922" xlink:href="#DejaVuSans-32"/>
     <use x="976.207031" xlink:href="#DejaVuSans-121"/>
     <use x="1035.386719" xlink:href="#DejaVuSans-32"/>
     <use x="1067.173828" xlink:href="#DejaVuSans-114"/>
     <use x="1108.255859" xlink:href="#DejaVuSans-101"/>
     <use x="1169.779297" xlink:href="#DejaVuSans-99"/>
     <use x="1224.759766" xlink:href="#DejaVuSans-105"/>
     <use x="1252.542969" xlink:href="#DejaVuSans-98"/>
     <use x="1316.019531" xlink:href="#DejaVuSans-105"/>
     <use x="1343.802734" xlink:href="#DejaVuSans-100"/>
     <use x="1407.279297" xlink:href="#DejaVuSans-111"/>
     <use x="1468.460938" xlink:href="#DejaVuSans-115"/>
     <use x="1520.560547" xlink:href="#DejaVuSans-32"/>
     <use x="1552.347656" xlink:href="#DejaVuSans-121"/>
     <use x="1611.527344" xlink:href="#DejaVuSans-32"/>
     <use x="1643.314453" xlink:href="#DejaVuSans-101"/>
     <use x="1704.837891" xlink:href="#DejaVuSans-110"/>
     <use x="1768.216797" xlink:href="#DejaVuSans-32"/>
     <use x="1800.003906" xlink:href="#DejaVuSans-98"/>
     <use x="1863.480469" xlink:href="#DejaVuSans-117"/>
     <use x="1926.859375" xlink:href="#DejaVuSans-102"/>
     <use x="1962.064453" xlink:href="#DejaVuSans-102"/>
     <use x="1997.269531" xlink:href="#DejaVuSans-101"/>
     <use x="2058.792969" xlink:href="#DejaVuSans-114"/>
     <use x="2099.90625" xlink:href="#DejaVuSans-115"/>
    </g>
   </g>
   <g id="legend_1">
    <g id="patch_7">
     <path d="M 175.307194 107.360938 
L 408.560319 107.360938 
Q 410.560319 107.360938 410.560319 105.360938 
L 410.560319 32.8 
Q 410.560319 30.8 408.560319 30.8 
L 175.307194 30.8 
Q 173.307194 30.8 173.307194 32.8 
L 173.307194 105.360938 
Q 173.307194 107.360938 175.307194 107.360938 
z
" style="fill:#ffffff;opacity:0.8;stroke:#cccccc;stroke-linejoin:miter;"/>
    </g>
    <g id="line2d_36">
     <path d="M 177.307194 38.898438 
L 197.307194 38.898438 
" style="fill:none;stroke:#1f77b4;stroke-linecap:square;stroke-width:1.5;"/>
    </g>
    <g id="line2d_37"/>
    <g id="text_19">
     <!-- Paquetes recibidos -->
     <g transform="translate(205.307194 42.398438)scale(0.1 -0.1)">
      <use xlink:href="#DejaVuSans-80"/>
      <use x="60.240234" xlink:href="#DejaVuSans-97"/>
      <use x="121.519531" xlink:href="#DejaVuSans-113"/>
      <use x="184.996094" xlink:href="#DejaVuSans-117"/>
      <use x="248.375" xlink:href="#DejaVuSans-101"/>
      <use x="309.898438" xlink:href="#DejaVuSans-116"/>
      <use x="349.107422" xlink:href="#DejaVuSans-101"/>
      <use x="410.630859" xlink:href="#DejaVuSans-115"/>
      <use x="462.730469" xlink:href="#DejaVuSans-32"/>
      <use x="494.517578" xlink:href="#DejaVuSans-114"/>
      <use x="535.599609" xlink:href="#DejaVuSans-101"/>
      <use x="597.123047" xlink:href="#DejaVuSans-99"/>
      <use x="652.103516" xlink:href="#DejaVuSans-105"/>
      <use x="679.886719" xlink:href="#DejaVuSans-98"/>
      <use x="743.363281" xlink:href="#DejaVuSans-105"/>
      <use x="771.146484" xlink:href="#DejaVuSans-100"/>
      <use x="834.623047" xlink:href="#DejaVuSans-111"/>
      <use x="895.804688" xlink:href="#DejaVuSans-115"/>
     </g>
    </g>
    <g id="line2d_38">
     <path d="M 177.307194 53.576563 
L 197.307194 53.576563 
" style="fill:none;stroke:#ff7f0e;stroke-linecap:square;stroke-width:1.5;"/>
    </g>
    <g id="line2d_39"/>
    <g id="text_20">
     <!-- Paquetes enviados -->
     <g transform="translate(205.307194 57.076563)scale(0.1 -0.1)">
      <use xlink:href="#DejaVuSans-80"/>
      <use x="60.240234" xlink:href="#DejaVuSans-97"/>
      <use x="121.519531" xlink:href="#DejaVuSans-113"/>
      <use x="184.996094" xlink:href="#DejaVuSans-117"/>
      <use x="248.375" xlink:href="#DejaVuSans-101"/>
      <use x="309.898438" xlink:href="#DejaVuSans-116"/>
      <use x="349.107422" xlink:href="#DejaVuSans-101"/>
      <use x="410.630859" xlink:href="#DejaVuSans-115"/>
      <use x="462.730469" xlink:href="#DejaVuSans-32"/>
      <use x="494.517578" xlink:href="#DejaVuSans-101"/>
      <use x="556.041016" xlink:href="#DejaVuSans-110"/>
      <use x="619.419922" xlink:href="#DejaVuSans-118"/>
      <use x="678.599609" xlink:href="#DejaVuSans-105"/>
      <use x="706.382812" xlink:href="#DejaVuSans-97"/>
      <use x="767.662109" xlink:href="#DejaVuSans-100"/>
      <use x="831.138672" xlink:href="#DejaVuSans-111"/>
      <use x="892.320312" xlink:href="#DejaVuSans-115"/>
     </g>
    </g>
    <g id="line2d_40">
     <path d="M 177.307194 68.425 
L 197.307194 68.425 
" style="fill:none;stroke:#2ca02c;stroke-linecap:square;stroke-width:1.5;"/>
    </g>
    <g id="line2d_41"/>
    <g id="text_21">
     <!-- Tamao del buffer del receptor -->
     <defs>
      <path d="M 54.890625 33.015625 
L 54.890625 0 
L 45.90625 0 
L 45.90625 32.71875 
Q 45.90625 40.484375 42.875 44.328125 
Q 39.84375 48.1875 33.796875 48.1875 
Q 26.515625 48.1875 22.3125 43.546875 
Q 18.109375 38.921875 18.109375 30.90625 
L 18.109375 0 
L 9.078125 0 
L 9.078125 54.6875 
L 18.109375 54.6875 
L 18.109375 46.1875 
Q 21.34375 51.125 25.703125 53.5625 
Q 30.078125 56 35.796875 56 
Q 45.21875 56 50.046875 50.171875 
Q 54.890625 44.34375 54.890625 33.015625 
z
M 32.234375 66.890625 
L 29.4375 69.578125 
Q 28.375 70.5625 27.5625 71.015625 
Q 26.765625 71.484375 26.125 71.484375 
Q 24.265625 71.484375 23.390625 69.703125 
Q 22.515625 67.921875 22.40625 63.921875 
L 16.3125 63.921875 
Q 16.40625 70.515625 18.890625 74.09375 
Q 21.390625 77.6875 25.828125 77.6875 
Q 27.6875 77.6875 29.25 77 
Q 30.8125 76.3125 32.625 74.703125 
L 35.40625 72.015625 
Q 36.46875 71.046875 37.28125 70.578125 
Q 38.09375 70.125 38.71875 70.125 
Q 40.578125 70.125 41.453125 71.90625 
Q 42.328125 73.6875 42.4375 77.6875 
L 48.53125 77.6875 
Q 48.4375 71.09375 45.9375 67.5 
Q 43.453125 63.921875 39.015625 63.921875 
Q 37.15625 63.921875 35.59375 64.59375 
Q 34.03125 65.28125 32.234375 66.890625 
z
" id="DejaVuSans-241"/>
      <path d="M 9.421875 75.984375 
L 18.40625 75.984375 
L 18.40625 0 
L 9.421875 0 
z
" id="DejaVuSans-108"/>
     </defs>
     <g transform="translate(205.307194 71.925)scale(0.1 -0.1)">
      <use xlink:href="#DejaVuSans-84"/>
      <use x="60.833984" xlink:href="#DejaVuSans-97"/>
      <use x="122.113281" xlink:href="#DejaVuSans-109"/>
      <use x="219.525391" xlink:href="#DejaVuSans-97"/>
      <use x="280.804688" xlink:href="#DejaVuSans-241"/>
      <use x="344.183594" xlink:href="#DejaVuSans-111"/>
      <use x="405.365234" xlink:href="#DejaVuSans-32"/>
      <use x="437.152344" xlink:href="#DejaVuSans-100"/>
      <use x="500.628906" xlink:href="#DejaVuSans-101"/>
      <use x="562.152344" xlink:href="#DejaVuSans-108"/>
      <use x="589.935547" xlink:href="#DejaVuSans-32"/>
      <use x="621.722656" xlink:href="#DejaVuSans-98"/>
      <use x="685.199219" xlink:href="#DejaVuSans-117"/>
      <use x="748.578125" xlink:href="#DejaVuSans-102"/>
      <use x="783.783203" xlink:href="#DejaVuSans-102"/>
      <use x="818.988281" xlink:href="#DejaVuSans-101"/>
      <use x="880.511719" xlink:href="#DejaVuSans-114"/>
      <use x="921.625" xlink:href="#DejaVuSans-32"/>
      <use x="953.412109" xlink:href="#DejaVuSans-100"/>
      <use x="1016.888672" xlink:href="#DejaVuSans-101"/>
      <use x="1078.412109" xlink:href="#DejaVuSans-108"/>
      <use x="1106.195312" xlink:href="#DejaVuSans-32"/>
      <use x="1137.982422" xlink:href="#DejaVuSans-114"/>
      <use x="1179.064453" xlink:href="#DejaVuSans-101"/>
      <use x="1240.587891" xlink:href="#DejaVuSans-99"/>
      <use x="1295.568359" xlink:href="#DejaVuSans-101"/>
      <use x="1357.091797" xlink:href="#DejaVuSans-112"/>
      <use x="1420.568359" xlink:href="#DejaVuSans-116"/>
      <use x="1459.777344" xlink:href="#DejaVuSans-111"/>
      <use x="1520.958984" xlink:href="#DejaVuSans-114"/>
     </g>
    </g>
    <g id="line2d_42">
     <path d="M 177.307194 83.103125 
L 197.307194 83.103125 
" style="fill:none;stroke:#d62728;stroke-linecap:square;stroke-width:1.5;"/>
    </g>
    <g id="line2d_43"/>
    <g id="text_22">
     <!-- Tamao del buffer del emisor -->
     <g transform="translate(205.307194 86.603125)scale(0.1 -0.1)">
      <use xlink:href="#DejaVuSans-84"/>
      <use x="60.833984" xlink:href="#DejaVuSans-97"/>
      <use x="122.113281" xlink:href="#DejaVuSans-109"/>
      <use x="219.525391" xlink:href="#DejaVuSans-97"/>
      <use x="280.804688" xlink:href="#DejaVuSans-241"/>
      <use x="344.183594" xlink:href="#DejaVuSans-111"/>
      <use x="405.365234" xlink:href="#DejaVuSans-32"/>
      <use x="437.152344" xlink:href="#DejaVuSans-100"/>
      <use x="500.628906" xlink:href="#DejaVuSans-101"/>
      <use x="562.152344" xlink:href="#DejaVuSans-108"/>
      <use x="589.935547" xlink:href="#DejaVuSans-32"/>
      <use x="621.722656" xlink:href="#DejaVuSans-98"/>
      <use x="685.199219" xlink:href="#DejaVuSans-117"/>
      <use x="748.578125" xlink:href="#DejaVuSans-102"/>
      <use x="783.783203" xlink:href="#DejaVuSans-102"/>
      <use x="818.988281" xlink:href="#DejaVuSans-101"/>
      <use x="880.511719" xlink:href="#DejaVuSans-114"/>
      <use x="921.625" xlink:href="#DejaVuSans-32"/>
      <use x="953.412109" xlink:href="#DejaVuSans-100"/>
      <use x="1016.888672" xlink:href="#DejaVuSans-101"/>
      <use x="1078.412109" xlink:href="#DejaVuSans-108"/>
      <use x="1106.195312" xlink:href="#DejaVuSans-32"/>
      <use x="1137.982422" xlink:href="#DejaVuSans-101"/>
      <use x="1199.505859" xlink:href="#DejaVuSans-109"/>
      <use x="1296.917969" xlink:href="#DejaVuSans-105"/>
      <use x="1324.701172" xlink:href="#DejaVuSans-115"/>
      <use x="1376.800781" xlink:href="#DejaVuSans-111"/>
      <use x="1437.982422" xlink:href="#DejaVuSans-114"/>
     </g>
    </g>
    <g id="line2d_44">
     <path d="M 177.307194 97.78125 
L 197.307194 97.78125 
" style="fill:none;stroke:#9467bd;stroke-linecap:square;stroke-width:1.5;"/>
    </g>
    <g id="line2d_45"/>
    <g id="text_23">
     <!-- Tamao del buffer de la cola intermedia -->
     <g transform="translate(205.307194 101.28125)scale(0.1 -0.1)">
      <use xlink:href="#DejaVuSans-84"/>
      <use x="60.833984" xlink:href="#DejaVuSans-97"/>
      <use x="122.113281" xlink:href="#DejaVuSans-109"/>
      <use x="219.525391" xlink:href="#DejaVuSans-97"/>
      <use x="280.804688" xlink:href="#DejaVuSans-241"/>
      <use x="344.183594" xlink:href="#DejaVuSans-111"/>
      <use x="405.365234" xlink:href="#DejaVuSans-32"/>
      <use x="437.152344" xlink:href="#DejaVuSans-100"/>
      <use x="500.628906" xlink:href="#DejaVuSans-101"/>
      <use x="562.152344" xlink:href="#DejaVuSans-108"/>
      <use x="589.935547" xlink:href="#DejaVuSans-32"/>
      <use x="621.722656" xlink:href="#DejaVuSans-98"/>
      <use x="685.199219" xlink:href="#DejaVuSans-117"/>
      <use x="748.578125" xlink:href="#DejaVuSans-102"/>
      <use x="783.783203" xlink:href="#DejaVuSans-102"/>
      <use x="818.988281" xlink:href="#DejaVuSans-101"/>
      <use x="880.511719" xlink:href="#DejaVuSans-114"/>
      <use x="921.625" xlink:href="#DejaVuSans-32"/>
      <use x="953.412109" xlink:href="#DejaVuSans-100"/>
      <use x="1016.888672" xlink:href="#DejaVuSans-101"/>
      <use x="1078.412109" xlink:href="#DejaVuSans-32"/>
      <use x="1110.199219" xlink:href="#DejaVuSans-108"/>
      <use x="1137.982422" xlink:href="#DejaVuSans-97"/>
      <use x="1199.261719" xlink:href="#DejaVuSans-32"/>
      <use x="1231.048828" xlink:href="#DejaVuSans-99"/>
      <use x="1286.029297" xlink:href="#DejaVuSans-111"/>
      <use x="1347.210938" xlink:href="#DejaVuSans-108"/>
      <use x="1374.994141" xlink:href="#DejaVuSans-97"/>
      <use x="1436.273438" xlink:href="#DejaVuSans-32"/>
      <use x="1468.060547" xlink:href="#DejaVuSans-105"/>
      <use x="1495.84375" xlink:href="#DejaVuSans-110"/>
      <use x="1559.222656" xlink:href="#DejaVuSans-116"/>
      <use x="1598.431641" xlink:href="#DejaVuSans-101"/>
      <use x="1659.955078" xlink:href="#DejaVuSans-114"/>
      <use x="1701.052734" xlink:href="#DejaVuSans-109"/>
      <use x="1798.464844" xlink:href="#DejaVuSans-101"/>
      <use x="1859.988281" xlink:href="#DejaVuSans-100"/>
      <use x="1923.464844" xlink:href="#DejaVuSans-105"/>
      <use x="1951.248047" xlink:href="#DejaVuSans-97"/>
     </g>
    </g>
   </g>
  </g>
 </g>
 <defs>
  <clipPath id="p4cde6b53bd">
   <rect height="219.4" width="364.135319" x="51.425" y="25.8"/>
  </clipPath>
 </defs>
</svg>
