<?xml version="1.0" encoding="utf-8" standalone="no"?>
<!DOCTYPE svg PUBLIC "-//W3C//DTD SVG 1.1//EN"
  "http://www.w3.org/Graphics/SVG/1.1/DTD/svg11.dtd">
<svg xmlns:xlink="http://www.w3.org/1999/xlink" width="432pt" height="288pt" viewBox="0 0 432 288" xmlns="http://www.w3.org/2000/svg" version="1.1">
 <metadata>
  <rdf:RDF xmlns:dc="http://purl.org/dc/elements/1.1/" xmlns:cc="http://creativecommons.org/ns#" xmlns:rdf="http://www.w3.org/1999/02/22-rdf-syntax-ns#">
   <cc:Work>
    <dc:type rdf:resource="http://purl.org/dc/dcmitype/StillImage"/>
    <dc:date>2022-05-22T20:32:13.085317</dc:date>
    <dc:format>image/svg+xml</dc:format>
    <dc:creator>
     <cc:Agent>
      <dc:title>omnetpp.scave 6.0.0; Matplotlib 3.5.1 w/ backend GTK3Agg; Pandas 1.4.2; Python 3.8.10; Linux-5.4.0-109-generic-x86_64-with-glibc2.29</dc:title>
     </cc:Agent>
    </dc:creator>
   </cc:Work>
  </rdf:RDF>
 </metadata>
 <defs>
  <style type="text/css">*{stroke-linejoin: round; stroke-linecap: butt}</style>
 </defs>
 <g id="figure_1">
  <g id="patch_1">
   <path d="M 0 288 
L 432 288 
L 432 0 
L 0 0 
z
" style="fill: #ffffff"/>
  </g>
  <g id="axes_1">
   <g id="patch_2">
    <path d="M 37.01875 260.45 
L 415.653661 260.45 
L 415.653661 25.8 
L 37.01875 25.8 
z
" style="fill: #ffffff"/>
   </g>
   <g id="matplotlib.axis_1">
    <g id="xtick_1">
     <g id="line2d_1">
      <path d="M 37.01875 260.45 
L 37.01875 25.8 
" clip-path="url(#p5811d0e3e3)" style="fill: none; stroke: #b0b0b0; stroke-width: 0.8; stroke-linecap: square"/>
     </g>
     <g id="line2d_2">
      <defs>
       <path id="m0e23e28658" d="M 0 0 
L 0 3.5 
" style="stroke: #000000; stroke-width: 0.8"/>
      </defs>
      <g>
       <use xlink:href="#m0e23e28658" x="37.01875" y="260.45" style="stroke: #000000; stroke-width: 0.8"/>
      </g>
     </g>
     <g id="text_1">
      <!-- 0 -->
      <g transform="translate(33.8375 275.048437)scale(0.1 -0.1)">
       <defs>
        <path id="DejaVuSans-30" d="M 2034 4250 
Q 1547 4250 1301 3770 
Q 1056 3291 1056 2328 
Q 1056 1369 1301 889 
Q 1547 409 2034 409 
Q 2525 409 2770 889 
Q 3016 1369 3016 2328 
Q 3016 3291 2770 3770 
Q 2525 4250 2034 4250 
z
M 2034 4750 
Q 2819 4750 3233 4129 
Q 3647 3509 3647 2328 
Q 3647 1150 3233 529 
Q 2819 -91 2034 -91 
Q 1250 -91 836 529 
Q 422 1150 422 2328 
Q 422 3509 836 4129 
Q 1250 4750 2034 4750 
z
" transform="scale(0.015625)"/>
       </defs>
       <use xlink:href="#DejaVuSans-30"/>
      </g>
     </g>
    </g>
    <g id="xtick_2">
     <g id="line2d_3">
      <path d="M 83.851705 260.45 
L 83.851705 25.8 
" clip-path="url(#p5811d0e3e3)" style="fill: none; stroke: #b0b0b0; stroke-width: 0.8; stroke-linecap: square"/>
     </g>
     <g id="line2d_4">
      <g>
       <use xlink:href="#m0e23e28658" x="83.851705" y="260.45" style="stroke: #000000; stroke-width: 0.8"/>
      </g>
     </g>
     <g id="text_2">
      <!-- 25 -->
      <g transform="translate(77.489205 275.048437)scale(0.1 -0.1)">
       <defs>
        <path id="DejaVuSans-32" d="M 1228 531 
L 3431 531 
L 3431 0 
L 469 0 
L 469 531 
Q 828 903 1448 1529 
Q 2069 2156 2228 2338 
Q 2531 2678 2651 2914 
Q 2772 3150 2772 3378 
Q 2772 3750 2511 3984 
Q 2250 4219 1831 4219 
Q 1534 4219 1204 4116 
Q 875 4013 500 3803 
L 500 4441 
Q 881 4594 1212 4672 
Q 1544 4750 1819 4750 
Q 2544 4750 2975 4387 
Q 3406 4025 3406 3419 
Q 3406 3131 3298 2873 
Q 3191 2616 2906 2266 
Q 2828 2175 2409 1742 
Q 1991 1309 1228 531 
z
" transform="scale(0.015625)"/>
        <path id="DejaVuSans-35" d="M 691 4666 
L 3169 4666 
L 3169 4134 
L 1269 4134 
L 1269 2991 
Q 1406 3038 1543 3061 
Q 1681 3084 1819 3084 
Q 2600 3084 3056 2656 
Q 3513 2228 3513 1497 
Q 3513 744 3044 326 
Q 2575 -91 1722 -91 
Q 1428 -91 1123 -41 
Q 819 9 494 109 
L 494 744 
Q 775 591 1075 516 
Q 1375 441 1709 441 
Q 2250 441 2565 725 
Q 2881 1009 2881 1497 
Q 2881 1984 2565 2268 
Q 2250 2553 1709 2553 
Q 1456 2553 1204 2497 
Q 953 2441 691 2322 
L 691 4666 
z
" transform="scale(0.015625)"/>
       </defs>
       <use xlink:href="#DejaVuSans-32"/>
       <use xlink:href="#DejaVuSans-35" x="63.623047"/>
      </g>
     </g>
    </g>
    <g id="xtick_3">
     <g id="line2d_5">
      <path d="M 130.684661 260.45 
L 130.684661 25.8 
" clip-path="url(#p5811d0e3e3)" style="fill: none; stroke: #b0b0b0; stroke-width: 0.8; stroke-linecap: square"/>
     </g>
     <g id="line2d_6">
      <g>
       <use xlink:href="#m0e23e28658" x="130.684661" y="260.45" style="stroke: #000000; stroke-width: 0.8"/>
      </g>
     </g>
     <g id="text_3">
      <!-- 50 -->
      <g transform="translate(124.322161 275.048437)scale(0.1 -0.1)">
       <use xlink:href="#DejaVuSans-35"/>
       <use xlink:href="#DejaVuSans-30" x="63.623047"/>
      </g>
     </g>
    </g>
    <g id="xtick_4">
     <g id="line2d_7">
      <path d="M 177.517616 260.45 
L 177.517616 25.8 
" clip-path="url(#p5811d0e3e3)" style="fill: none; stroke: #b0b0b0; stroke-width: 0.8; stroke-linecap: square"/>
     </g>
     <g id="line2d_8">
      <g>
       <use xlink:href="#m0e23e28658" x="177.517616" y="260.45" style="stroke: #000000; stroke-width: 0.8"/>
      </g>
     </g>
     <g id="text_4">
      <!-- 75 -->
      <g transform="translate(171.155116 275.048437)scale(0.1 -0.1)">
       <defs>
        <path id="DejaVuSans-37" d="M 525 4666 
L 3525 4666 
L 3525 4397 
L 1831 0 
L 1172 0 
L 2766 4134 
L 525 4134 
L 525 4666 
z
" transform="scale(0.015625)"/>
       </defs>
       <use xlink:href="#DejaVuSans-37"/>
       <use xlink:href="#DejaVuSans-35" x="63.623047"/>
      </g>
     </g>
    </g>
    <g id="xtick_5">
     <g id="line2d_9">
      <path d="M 224.350571 260.45 
L 224.350571 25.8 
" clip-path="url(#p5811d0e3e3)" style="fill: none; stroke: #b0b0b0; stroke-width: 0.8; stroke-linecap: square"/>
     </g>
     <g id="line2d_10">
      <g>
       <use xlink:href="#m0e23e28658" x="224.350571" y="260.45" style="stroke: #000000; stroke-width: 0.8"/>
      </g>
     </g>
     <g id="text_5">
      <!-- 100 -->
      <g transform="translate(214.806821 275.048437)scale(0.1 -0.1)">
       <defs>
        <path id="DejaVuSans-31" d="M 794 531 
L 1825 531 
L 1825 4091 
L 703 3866 
L 703 4441 
L 1819 4666 
L 2450 4666 
L 2450 531 
L 3481 531 
L 3481 0 
L 794 0 
L 794 531 
z
" transform="scale(0.015625)"/>
       </defs>
       <use xlink:href="#DejaVuSans-31"/>
       <use xlink:href="#DejaVuSans-30" x="63.623047"/>
       <use xlink:href="#DejaVuSans-30" x="127.246094"/>
      </g>
     </g>
    </g>
    <g id="xtick_6">
     <g id="line2d_11">
      <path d="M 271.183527 260.45 
L 271.183527 25.8 
" clip-path="url(#p5811d0e3e3)" style="fill: none; stroke: #b0b0b0; stroke-width: 0.8; stroke-linecap: square"/>
     </g>
     <g id="line2d_12">
      <g>
       <use xlink:href="#m0e23e28658" x="271.183527" y="260.45" style="stroke: #000000; stroke-width: 0.8"/>
      </g>
     </g>
     <g id="text_6">
      <!-- 125 -->
      <g transform="translate(261.639777 275.048437)scale(0.1 -0.1)">
       <use xlink:href="#DejaVuSans-31"/>
       <use xlink:href="#DejaVuSans-32" x="63.623047"/>
       <use xlink:href="#DejaVuSans-35" x="127.246094"/>
      </g>
     </g>
    </g>
    <g id="xtick_7">
     <g id="line2d_13">
      <path d="M 318.016482 260.45 
L 318.016482 25.8 
" clip-path="url(#p5811d0e3e3)" style="fill: none; stroke: #b0b0b0; stroke-width: 0.8; stroke-linecap: square"/>
     </g>
     <g id="line2d_14">
      <g>
       <use xlink:href="#m0e23e28658" x="318.016482" y="260.45" style="stroke: #000000; stroke-width: 0.8"/>
      </g>
     </g>
     <g id="text_7">
      <!-- 150 -->
      <g transform="translate(308.472732 275.048437)scale(0.1 -0.1)">
       <use xlink:href="#DejaVuSans-31"/>
       <use xlink:href="#DejaVuSans-35" x="63.623047"/>
       <use xlink:href="#DejaVuSans-30" x="127.246094"/>
      </g>
     </g>
    </g>
    <g id="xtick_8">
     <g id="line2d_15">
      <path d="M 364.849437 260.45 
L 364.849437 25.8 
" clip-path="url(#p5811d0e3e3)" style="fill: none; stroke: #b0b0b0; stroke-width: 0.8; stroke-linecap: square"/>
     </g>
     <g id="line2d_16">
      <g>
       <use xlink:href="#m0e23e28658" x="364.849437" y="260.45" style="stroke: #000000; stroke-width: 0.8"/>
      </g>
     </g>
     <g id="text_8">
      <!-- 175 -->
      <g transform="translate(355.305687 275.048437)scale(0.1 -0.1)">
       <use xlink:href="#DejaVuSans-31"/>
       <use xlink:href="#DejaVuSans-37" x="63.623047"/>
       <use xlink:href="#DejaVuSans-35" x="127.246094"/>
      </g>
     </g>
    </g>
    <g id="xtick_9">
     <g id="line2d_17">
      <path d="M 411.682393 260.45 
L 411.682393 25.8 
" clip-path="url(#p5811d0e3e3)" style="fill: none; stroke: #b0b0b0; stroke-width: 0.8; stroke-linecap: square"/>
     </g>
     <g id="line2d_18">
      <g>
       <use xlink:href="#m0e23e28658" x="411.682393" y="260.45" style="stroke: #000000; stroke-width: 0.8"/>
      </g>
     </g>
     <g id="text_9">
      <!-- 200 -->
      <g transform="translate(402.138643 275.048437)scale(0.1 -0.1)">
       <use xlink:href="#DejaVuSans-32"/>
       <use xlink:href="#DejaVuSans-30" x="63.623047"/>
       <use xlink:href="#DejaVuSans-30" x="127.246094"/>
      </g>
     </g>
    </g>
   </g>
   <g id="matplotlib.axis_2">
    <g id="ytick_1">
     <g id="line2d_19">
      <path d="M 37.01875 260.45 
L 415.653661 260.45 
" clip-path="url(#p5811d0e3e3)" style="fill: none; stroke: #b0b0b0; stroke-width: 0.8; stroke-linecap: square"/>
     </g>
     <g id="line2d_20">
      <defs>
       <path id="mf227ce4933" d="M 0 0 
L -3.5 0 
" style="stroke: #000000; stroke-width: 0.8"/>
      </defs>
      <g>
       <use xlink:href="#mf227ce4933" x="37.01875" y="260.45" style="stroke: #000000; stroke-width: 0.8"/>
      </g>
     </g>
     <g id="text_10">
      <!-- 0 -->
      <g transform="translate(23.65625 264.249219)scale(0.1 -0.1)">
       <use xlink:href="#DejaVuSans-30"/>
      </g>
     </g>
    </g>
    <g id="ytick_2">
     <g id="line2d_21">
      <path d="M 37.01875 216.453125 
L 415.653661 216.453125 
" clip-path="url(#p5811d0e3e3)" style="fill: none; stroke: #b0b0b0; stroke-width: 0.8; stroke-linecap: square"/>
     </g>
     <g id="line2d_22">
      <g>
       <use xlink:href="#mf227ce4933" x="37.01875" y="216.453125" style="stroke: #000000; stroke-width: 0.8"/>
      </g>
     </g>
     <g id="text_11">
      <!-- 50 -->
      <g transform="translate(17.29375 220.252344)scale(0.1 -0.1)">
       <use xlink:href="#DejaVuSans-35"/>
       <use xlink:href="#DejaVuSans-30" x="63.623047"/>
      </g>
     </g>
    </g>
    <g id="ytick_3">
     <g id="line2d_23">
      <path d="M 37.01875 172.45625 
L 415.653661 172.45625 
" clip-path="url(#p5811d0e3e3)" style="fill: none; stroke: #b0b0b0; stroke-width: 0.8; stroke-linecap: square"/>
     </g>
     <g id="line2d_24">
      <g>
       <use xlink:href="#mf227ce4933" x="37.01875" y="172.45625" style="stroke: #000000; stroke-width: 0.8"/>
      </g>
     </g>
     <g id="text_12">
      <!-- 100 -->
      <g transform="translate(10.93125 176.255469)scale(0.1 -0.1)">
       <use xlink:href="#DejaVuSans-31"/>
       <use xlink:href="#DejaVuSans-30" x="63.623047"/>
       <use xlink:href="#DejaVuSans-30" x="127.246094"/>
      </g>
     </g>
    </g>
    <g id="ytick_4">
     <g id="line2d_25">
      <path d="M 37.01875 128.459375 
L 415.653661 128.459375 
" clip-path="url(#p5811d0e3e3)" style="fill: none; stroke: #b0b0b0; stroke-width: 0.8; stroke-linecap: square"/>
     </g>
     <g id="line2d_26">
      <g>
       <use xlink:href="#mf227ce4933" x="37.01875" y="128.459375" style="stroke: #000000; stroke-width: 0.8"/>
      </g>
     </g>
     <g id="text_13">
      <!-- 150 -->
      <g transform="translate(10.93125 132.258594)scale(0.1 -0.1)">
       <use xlink:href="#DejaVuSans-31"/>
       <use xlink:href="#DejaVuSans-35" x="63.623047"/>
       <use xlink:href="#DejaVuSans-30" x="127.246094"/>
      </g>
     </g>
    </g>
    <g id="ytick_5">
     <g id="line2d_27">
      <path d="M 37.01875 84.4625 
L 415.653661 84.4625 
" clip-path="url(#p5811d0e3e3)" style="fill: none; stroke: #b0b0b0; stroke-width: 0.8; stroke-linecap: square"/>
     </g>
     <g id="line2d_28">
      <g>
       <use xlink:href="#mf227ce4933" x="37.01875" y="84.4625" style="stroke: #000000; stroke-width: 0.8"/>
      </g>
     </g>
     <g id="text_14">
      <!-- 200 -->
      <g transform="translate(10.93125 88.261719)scale(0.1 -0.1)">
       <use xlink:href="#DejaVuSans-32"/>
       <use xlink:href="#DejaVuSans-30" x="63.623047"/>
       <use xlink:href="#DejaVuSans-30" x="127.246094"/>
      </g>
     </g>
    </g>
    <g id="ytick_6">
     <g id="line2d_29">
      <path d="M 37.01875 40.465625 
L 415.653661 40.465625 
" clip-path="url(#p5811d0e3e3)" style="fill: none; stroke: #b0b0b0; stroke-width: 0.8; stroke-linecap: square"/>
     </g>
     <g id="line2d_30">
      <g>
       <use xlink:href="#mf227ce4933" x="37.01875" y="40.465625" style="stroke: #000000; stroke-width: 0.8"/>
      </g>
     </g>
     <g id="text_15">
      <!-- 250 -->
      <g transform="translate(10.93125 44.264844)scale(0.1 -0.1)">
       <use xlink:href="#DejaVuSans-32"/>
       <use xlink:href="#DejaVuSans-35" x="63.623047"/>
       <use xlink:href="#DejaVuSans-30" x="127.246094"/>
      </g>
     </g>
    </g>
   </g>
   <g id="line2d_31">
    <path d="M 39.306211 259.570063 
L 40.989501 258.690125 
L 43.342259 257.810187 
L 46.825889 256.93025 
L 48.55538 256.050312 
L 52.211245 255.170375 
L 53.685923 254.290437 
L 57.205821 253.4105 
L 58.23811 252.530562 
L 62.013157 250.770687 
L 62.921956 249.89075 
L 64.000087 249.010812 
L 64.661666 248.130875 
L 68.827035 247.250937 
L 69.201699 246.371 
L 75.146294 245.491062 
L 75.742676 244.611125 
L 76.648617 243.731187 
L 77.865236 242.85125 
L 83.936862 241.091375 
L 88.144315 238.451562 
L 89.078861 237.571625 
L 93.946218 236.691688 
L 97.333869 235.81175 
L 97.708532 234.931812 
L 98.242921 234.051875 
L 98.617585 233.171937 
L 100.370587 232.292 
L 100.74525 231.412062 
L 101.269168 230.532125 
L 104.617701 229.652187 
L 110.518972 228.77225 
L 113.339785 227.892312 
L 113.714449 227.012375 
L 121.268487 225.2525 
L 128.471811 224.372562 
L 129.673937 223.492625 
L 135.704601 221.73275 
L 136.864052 220.852812 
L 138.240875 219.972875 
L 141.081829 219.092937 
L 143.209804 218.213 
L 143.584468 217.333062 
L 145.834514 216.453125 
L 147.747981 215.573187 
L 149.382116 214.69325 
L 149.75678 213.813312 
L 151.115993 212.933375 
L 156.538164 212.053437 
L 159.200832 211.1735 
L 160.583017 210.293562 
L 160.957681 209.413625 
L 161.796013 208.533687 
L 162.998111 207.65375 
L 163.573745 206.773812 
L 163.96003 205.893875 
L 169.249428 204.134 
L 170.390433 203.254062 
L 170.847614 202.374125 
L 172.421828 201.494187 
L 173.545819 198.854375 
L 175.264398 197.974437 
L 175.639062 197.0945 
L 177.342157 196.214562 
L 177.813188 195.334625 
L 179.610727 194.454687 
L 180.52595 193.57475 
L 185.9172 192.694812 
L 190.279996 191.814875 
L 192.425206 190.934937 
L 193.544974 190.055 
L 194.379572 189.175062 
L 196.158278 188.295125 
L 197.23456 187.415187 
L 201.592556 186.53525 
L 203.833246 185.655312 
L 204.582573 183.895437 
L 210.702498 183.0155 
L 216.825147 180.375687 
L 217.618746 178.615812 
L 218.449383 177.735875 
L 218.824046 176.855937 
L 221.310073 175.976 
L 222.01999 175.096062 
L 223.773531 174.216125 
L 225.356887 172.45625 
L 226.938769 171.576312 
L 227.313432 170.696375 
L 228.093683 169.816437 
L 229.978 168.9365 
L 238.32269 168.056562 
L 244.304095 167.176625 
L 244.678759 166.296687 
L 246.487375 165.41675 
L 246.926297 164.536812 
L 248.814637 163.656875 
L 249.189301 162.776937 
L 259.185353 161.897 
L 261.168715 161.017062 
L 262.802091 160.137125 
L 263.349251 159.257187 
L 264.351597 158.37725 
L 266.733938 156.617375 
L 267.258986 155.737437 
L 269.088963 154.8575 
L 269.463627 153.977562 
L 270.186032 153.097625 
L 270.560696 152.217687 
L 274.510018 150.457812 
L 275.224793 149.577875 
L 275.599457 148.697937 
L 278.325786 147.818 
L 278.735819 146.938062 
L 284.331776 146.058125 
L 285.193529 145.178187 
L 287.228457 144.29825 
L 290.451186 143.418312 
L 291.200513 141.658437 
L 292.49481 140.7785 
L 295.90391 139.898562 
L 298.001678 139.018625 
L 298.376342 138.138687 
L 311.908546 136.378812 
L 315.852483 135.498875 
L 318.371946 133.739 
L 325.419233 132.859062 
L 325.793897 131.979125 
L 327.26596 131.099187 
L 328.389852 130.21925 
L 330.908051 129.339312 
L 332.112678 126.6995 
L 332.735388 125.819562 
L 340.025538 124.939625 
L 340.400201 124.059687 
L 341.757706 122.299812 
L 342.98594 121.419875 
L 343.360603 120.539937 
L 345.408631 119.66 
L 346.125552 118.780062 
L 350.104924 117.900125 
L 351.106933 117.020187 
L 355.797556 116.14025 
L 356.546884 114.380375 
L 358.58858 113.500437 
L 361.715038 111.740562 
L 365.467745 110.860625 
L 366.045504 109.980687 
L 368.765575 108.220812 
L 373.421862 107.340875 
L 373.796525 106.460937 
L 378.365464 105.581 
L 379.972575 104.701062 
L 380.347239 103.821125 
L 385.098023 102.941187 
L 386.800684 100.301375 
L 388.505865 99.421437 
L 391.966498 98.5415 
L 392.341161 97.661562 
L 394.182842 96.781625 
L 396.543099 95.901687 
L 399.992407 95.02175 
L 401.208512 93.261875 
L 401.587579 92.381937 
L 402.537726 91.502 
L 405.69975 89.742125 
L 406.449077 87.98225 
L 409.383266 87.102312 
L 410.248235 86.222375 
L 410.997562 84.4625 
L 410.997562 84.4625 
" clip-path="url(#p5811d0e3e3)" style="fill: none; stroke: #1f77b4; stroke-width: 1.5; stroke-linecap: square"/>
   </g>
   <g id="line2d_32">
    <path d="M 38.509676 259.570063 
L 40.192966 258.690125 
L 42.545724 257.810187 
L 46.029354 256.93025 
L 47.758845 256.050312 
L 51.41471 255.170375 
L 52.889389 254.290437 
L 56.409286 253.4105 
L 57.441575 252.530562 
L 61.216622 250.770687 
L 62.125421 249.89075 
L 63.203552 249.010812 
L 63.865131 248.130875 
L 68.0305 247.250937 
L 68.139873 246.371 
L 74.349759 245.491062 
L 74.946141 244.611125 
L 75.852082 243.731187 
L 77.068701 242.85125 
L 83.140327 241.091375 
L 87.34778 238.451562 
L 88.282326 237.571625 
L 93.149683 236.691688 
L 96.537334 235.81175 
L 96.67537 234.931812 
L 97.446386 234.051875 
L 97.61716 233.171937 
L 99.574052 232.292 
L 99.612315 231.412062 
L 100.472633 230.532125 
L 103.821166 229.652187 
L 109.722437 228.77225 
L 112.54325 227.892312 
L 112.826554 227.012375 
L 120.471952 225.2525 
L 127.675276 224.372562 
L 128.877402 223.492625 
L 134.908066 221.73275 
L 136.067518 220.852812 
L 137.44434 219.972875 
L 140.285294 219.092937 
L 142.413269 218.213 
L 142.649072 217.333062 
L 145.037979 216.453125 
L 146.951446 215.573187 
L 148.585582 214.69325 
L 148.87544 213.813312 
L 150.319458 212.933375 
L 155.741629 212.053437 
L 158.404297 211.1735 
L 159.786482 210.293562 
L 159.996193 209.413625 
L 160.999478 208.533687 
L 162.201577 207.65375 
L 162.77721 206.773812 
L 163.163495 205.893875 
L 168.452893 204.134 
L 169.593898 203.254062 
L 170.051079 202.374125 
L 171.625293 201.494187 
L 171.897445 200.61425 
L 171.932979 199.734312 
L 172.666891 198.854375 
L 174.467863 197.974437 
L 174.771596 197.0945 
L 176.545622 196.214562 
L 177.016653 195.334625 
L 178.814192 194.454687 
L 179.729415 193.57475 
L 185.120665 192.694812 
L 189.483461 191.814875 
L 191.628671 190.934937 
L 192.748439 190.055 
L 193.583037 189.175062 
L 195.361743 188.295125 
L 196.438025 187.415187 
L 200.796021 186.53525 
L 203.036711 185.655312 
L 203.348949 183.895437 
L 209.905963 183.0155 
L 216.028612 180.375687 
L 216.822211 178.615812 
L 217.652848 177.735875 
L 217.911419 176.855937 
L 220.513538 175.976 
L 221.223455 175.096062 
L 222.976996 174.216125 
L 224.560352 172.45625 
L 226.142234 171.576312 
L 226.215636 170.696375 
L 227.297148 169.816437 
L 229.181465 168.9365 
L 237.526155 168.056562 
L 243.50756 167.176625 
L 243.709195 166.296687 
L 245.69084 165.41675 
L 246.129762 164.536812 
L 248.018102 163.656875 
L 248.347644 162.776937 
L 258.388818 161.897 
L 260.37218 161.017062 
L 262.005556 160.137125 
L 262.552716 159.257187 
L 263.555062 158.37725 
L 265.937403 156.617375 
L 266.462451 155.737437 
L 268.292428 154.8575 
L 268.616751 153.977562 
L 269.389497 153.097625 
L 269.608592 152.217687 
L 273.713483 150.457812 
L 274.428258 149.577875 
L 274.706844 148.697937 
L 277.529251 147.818 
L 277.939284 146.938062 
L 283.535241 146.058125 
L 284.396994 145.178187 
L 286.431922 144.29825 
L 289.654651 143.418312 
L 289.680249 142.538375 
L 289.871599 141.658437 
L 291.698275 140.7785 
L 295.107375 139.898562 
L 297.205144 139.018625 
L 297.394414 138.138687 
L 311.112011 136.378812 
L 315.055948 135.498875 
L 317.575411 133.739 
L 324.622698 132.859062 
L 324.73009 131.979125 
L 326.469425 131.099187 
L 327.593317 130.21925 
L 330.111516 129.339312 
L 330.224227 127.579437 
L 331.316143 126.6995 
L 331.938854 125.819562 
L 339.229003 124.939625 
L 339.468894 124.059687 
L 340.303306 123.17975 
L 340.961171 122.299812 
L 342.189405 121.419875 
L 342.426171 120.539937 
L 344.612096 119.66 
L 345.329017 118.780062 
L 349.308389 117.900125 
L 350.310398 117.020187 
L 355.001022 116.14025 
L 355.125218 115.260312 
L 355.583048 114.380375 
L 357.792045 113.500437 
L 360.918503 111.740562 
L 364.67121 110.860625 
L 365.248969 109.980687 
L 367.96904 108.220812 
L 372.625327 107.340875 
L 372.81013 106.460937 
L 377.568929 105.581 
L 379.17604 104.701062 
L 379.338589 103.821125 
L 384.301489 102.941187 
L 385.629485 101.181312 
L 385.647096 100.301375 
L 387.70933 99.421437 
L 391.169963 98.5415 
L 391.43472 97.661562 
L 393.386307 96.781625 
L 395.746564 95.901687 
L 399.195872 95.02175 
L 400.411977 93.261875 
L 400.791044 92.381937 
L 401.741191 91.502 
L 404.903215 89.742125 
L 404.941266 88.862187 
L 405.278936 87.98225 
L 408.586731 87.102312 
L 409.4517 86.222375 
L 409.460517 85.342437 
L 409.757141 84.4625 
L 409.757141 84.4625 
" clip-path="url(#p5811d0e3e3)" style="fill: none; stroke: #ff7f0e; stroke-width: 1.5; stroke-linecap: square"/>
   </g>
   <g id="line2d_33">
    <path d="M 38.931547 260.45 
L 38.931547 259.570063 
L 38.931547 260.45 
L 40.614837 260.45 
L 40.614837 259.570063 
L 40.614837 260.45 
L 42.967595 260.45 
L 42.967595 259.570063 
L 42.967595 260.45 
L 46.451225 260.45 
L 46.451225 259.570063 
L 46.451225 260.45 
L 48.180716 260.45 
L 48.180716 259.570063 
L 48.180716 260.45 
L 51.836582 260.45 
L 51.836582 259.570063 
L 51.836582 260.45 
L 53.31126 260.45 
L 53.31126 259.570063 
L 53.31126 260.45 
L 56.831157 260.45 
L 56.831157 259.570063 
L 56.831157 260.45 
L 57.863447 260.45 
L 57.863447 259.570063 
L 57.863447 260.45 
L 59.69369 260.45 
L 59.69369 259.570063 
L 59.69369 260.45 
L 61.638493 260.45 
L 61.638493 259.570063 
L 61.638493 260.45 
L 62.547293 260.45 
L 62.547293 259.570063 
L 62.547293 260.45 
L 63.625423 260.45 
L 63.625423 259.570063 
L 63.625423 260.45 
L 64.287003 260.45 
L 64.287003 259.570063 
L 64.287003 260.45 
L 68.452371 260.45 
L 68.452371 259.570063 
L 68.452371 260.45 
L 68.686536 260.45 
L 68.686536 259.570063 
L 68.827035 259.570063 
L 68.827035 260.45 
L 74.77163 260.45 
L 74.77163 259.570063 
L 74.77163 260.45 
L 75.368012 260.45 
L 75.368012 259.570063 
L 75.368012 260.45 
L 76.273953 260.45 
L 76.273953 259.570063 
L 76.273953 260.45 
L 77.490573 260.45 
L 77.490573 259.570063 
L 77.490573 260.45 
L 80.429614 260.45 
L 80.429614 259.570063 
L 80.429614 260.45 
L 83.562198 260.45 
L 83.562198 259.570063 
L 83.562198 260.45 
L 84.972196 260.45 
L 84.972196 259.570063 
L 84.972196 260.45 
L 86.197126 260.45 
L 86.197126 259.570063 
L 86.197126 260.45 
L 87.769651 260.45 
L 87.769651 259.570063 
L 87.769651 260.45 
L 88.704197 260.45 
L 88.704197 259.570063 
L 88.704197 260.45 
L 93.571554 260.45 
L 93.571554 259.570063 
L 93.571554 260.45 
L 96.959205 260.45 
L 96.959205 259.570063 
L 96.959205 260.45 
L 97.19337 260.45 
L 97.19337 259.570063 
L 97.333869 259.570063 
L 97.333869 260.45 
L 97.868258 260.45 
L 97.868258 259.570063 
L 97.868258 260.45 
L 98.102422 260.45 
L 98.102422 259.570063 
L 98.242921 259.570063 
L 98.242921 260.45 
L 99.995923 260.45 
L 99.995923 259.570063 
L 99.995923 260.45 
L 100.230088 260.45 
L 100.230088 259.570063 
L 100.370587 259.570063 
L 100.370587 260.45 
L 100.894504 260.45 
L 100.894504 259.570063 
L 100.894504 260.45 
L 104.243038 260.45 
L 104.243038 259.570063 
L 104.243038 260.45 
L 110.144308 260.45 
L 110.144308 259.570063 
L 110.144308 260.45 
L 112.965121 260.45 
L 112.965121 259.570063 
L 112.965121 260.45 
L 113.248425 260.45 
L 113.248425 259.570063 
L 113.339785 260.45 
L 117.070583 260.45 
L 117.070583 259.570063 
L 117.070583 260.45 
L 120.893823 260.45 
L 120.893823 259.570063 
L 120.893823 260.45 
L 128.097148 260.45 
L 128.097148 259.570063 
L 128.097148 260.45 
L 129.299273 260.45 
L 129.299273 259.570063 
L 129.299273 260.45 
L 132.306398 260.45 
L 132.306398 259.570063 
L 132.306398 260.45 
L 135.329937 260.45 
L 135.329937 259.570063 
L 135.329937 260.45 
L 136.489389 260.45 
L 136.489389 259.570063 
L 136.489389 260.45 
L 137.866211 260.45 
L 137.866211 259.570063 
L 137.866211 260.45 
L 140.707166 260.45 
L 140.707166 259.570063 
L 140.707166 260.45 
L 142.835141 260.45 
L 142.835141 259.570063 
L 142.835141 260.45 
L 143.070943 260.45 
L 143.070943 259.570063 
L 143.209804 259.570063 
L 143.209804 260.45 
L 145.459851 260.45 
L 145.459851 259.570063 
L 145.459851 260.45 
L 147.373318 260.45 
L 147.373318 259.570063 
L 147.373318 260.45 
L 149.007453 260.45 
L 149.007453 259.570063 
L 149.007453 260.45 
L 149.297311 260.45 
L 149.297311 259.570063 
L 149.382116 260.45 
L 150.741329 260.45 
L 150.741329 259.570063 
L 150.741329 260.45 
L 156.1635 260.45 
L 156.1635 259.570063 
L 156.1635 260.45 
L 158.826168 260.45 
L 158.826168 259.570063 
L 158.826168 260.45 
L 160.208354 260.45 
L 160.208354 259.570063 
L 160.208354 260.45 
L 160.442518 260.45 
L 160.442518 259.570063 
L 160.583017 259.570063 
L 160.583017 260.45 
L 161.421349 260.45 
L 161.421349 259.570063 
L 161.421349 260.45 
L 162.623448 260.45 
L 162.623448 259.570063 
L 162.623448 260.45 
L 163.199082 260.45 
L 163.199082 259.570063 
L 163.199082 260.45 
L 163.585366 260.45 
L 163.585366 259.570063 
L 163.585366 260.45 
L 166.373341 260.45 
L 166.373341 259.570063 
L 166.373341 260.45 
L 168.874764 260.45 
L 168.874764 259.570063 
L 168.874764 260.45 
L 170.01577 260.45 
L 170.01577 259.570063 
L 170.01577 260.45 
L 170.47295 260.45 
L 170.47295 259.570063 
L 170.47295 260.45 
L 172.047164 260.45 
L 172.047164 259.570063 
L 172.047164 260.45 
L 172.319316 260.45 
L 172.319316 259.570063 
L 172.421828 260.45 
L 172.553481 260.45 
L 172.553481 259.570063 
L 172.796492 259.570063 
L 172.796492 260.45 
L 173.088762 260.45 
L 173.088762 259.570063 
L 173.171155 260.45 
L 174.889734 260.45 
L 174.889734 259.570063 
L 174.889734 260.45 
L 175.193468 260.45 
L 175.193468 259.570063 
L 175.264398 260.45 
L 176.967494 260.45 
L 176.967494 259.570063 
L 176.967494 260.45 
L 177.438524 260.45 
L 177.438524 259.570063 
L 177.438524 260.45 
L 179.236063 260.45 
L 179.236063 259.570063 
L 179.236063 260.45 
L 180.151286 260.45 
L 180.151286 259.570063 
L 180.151286 260.45 
L 185.542537 260.45 
L 185.542537 259.570063 
L 185.542537 260.45 
L 189.905332 260.45 
L 189.905332 259.570063 
L 189.905332 260.45 
L 192.050542 260.45 
L 192.050542 259.570063 
L 192.050542 260.45 
L 193.170311 260.45 
L 193.170311 259.570063 
L 193.170311 260.45 
L 194.004909 260.45 
L 194.004909 259.570063 
L 194.004909 260.45 
L 195.783614 260.45 
L 195.783614 259.570063 
L 195.783614 260.45 
L 196.859896 260.45 
L 196.859896 259.570063 
L 196.859896 260.45 
L 201.217892 260.45 
L 201.217892 259.570063 
L 201.217892 260.45 
L 203.458582 260.45 
L 203.458582 259.570063 
L 203.458582 260.45 
L 203.692747 260.45 
L 203.692747 259.570063 
L 203.833246 259.570063 
L 203.833246 260.45 
L 203.926912 259.570063 
L 204.20791 259.570063 
L 204.20791 260.45 
L 210.327835 260.45 
L 210.327835 259.570063 
L 210.327835 260.45 
L 212.386447 260.45 
L 212.386447 259.570063 
L 212.386447 260.45 
L 214.369981 260.45 
L 214.369981 259.570063 
L 214.369981 260.45 
L 216.450483 260.45 
L 216.450483 259.570063 
L 216.450483 260.45 
L 216.801592 260.45 
L 216.801592 259.570063 
L 216.825147 260.45 
L 217.244082 260.45 
L 217.244082 259.570063 
L 217.244082 260.45 
L 218.074719 260.45 
L 218.074719 259.570063 
L 218.074719 260.45 
L 218.333291 260.45 
L 218.333291 259.570063 
L 218.449383 259.570063 
L 218.449383 260.45 
L 220.93541 260.45 
L 220.93541 259.570063 
L 220.93541 260.45 
L 221.645326 260.45 
L 221.645326 259.570063 
L 221.645326 260.45 
L 223.398867 260.45 
L 223.398867 259.570063 
L 223.398867 260.45 
L 224.245798 260.45 
L 224.245798 259.570063 
L 224.245798 260.45 
L 224.982223 260.45 
L 224.982223 259.570063 
L 224.982223 260.45 
L 226.564105 260.45 
L 226.564105 259.570063 
L 226.564105 260.45 
L 226.79827 260.45 
L 226.79827 259.570063 
L 226.938769 259.570063 
L 226.938769 260.45 
L 227.71902 260.45 
L 227.71902 259.570063 
L 227.71902 260.45 
L 229.603336 260.45 
L 229.603336 259.570063 
L 229.603336 260.45 
L 237.948026 260.45 
L 237.948026 259.570063 
L 237.948026 260.45 
L 243.929431 260.45 
L 243.929431 259.570063 
L 243.929431 260.45 
L 244.163596 260.45 
L 244.163596 259.570063 
L 244.304095 259.570063 
L 244.304095 260.45 
L 246.112712 260.45 
L 246.112712 259.570063 
L 246.112712 260.45 
L 246.551633 260.45 
L 246.551633 259.570063 
L 246.551633 260.45 
L 248.439974 260.45 
L 248.439974 259.570063 
L 248.439974 260.45 
L 248.769516 260.45 
L 248.769516 259.570063 
L 248.814637 260.45 
L 258.810689 260.45 
L 258.810689 259.570063 
L 258.810689 260.45 
L 260.794051 260.45 
L 260.794051 259.570063 
L 260.794051 260.45 
L 262.427427 260.45 
L 262.427427 259.570063 
L 262.427427 260.45 
L 262.974587 260.45 
L 262.974587 259.570063 
L 262.974587 260.45 
L 263.976933 260.45 
L 263.976933 259.570063 
L 263.976933 260.45 
L 265.153268 260.45 
L 265.153268 259.570063 
L 265.153268 260.45 
L 266.359274 260.45 
L 266.359274 259.570063 
L 266.359274 260.45 
L 266.884322 260.45 
L 266.884322 259.570063 
L 266.884322 260.45 
L 268.7143 260.45 
L 268.7143 259.570063 
L 268.7143 260.45 
L 269.038623 260.45 
L 269.038623 259.570063 
L 269.088963 260.45 
L 269.811369 260.45 
L 269.811369 259.570063 
L 269.811369 260.45 
L 270.045533 260.45 
L 270.045533 259.570063 
L 270.186032 259.570063 
L 270.186032 260.45 
L 272.134515 260.45 
L 272.134515 259.570063 
L 272.134515 260.45 
L 274.135354 260.45 
L 274.135354 259.570063 
L 274.135354 260.45 
L 274.85013 260.45 
L 274.85013 259.570063 
L 274.85013 260.45 
L 275.128715 260.45 
L 275.128715 259.570063 
L 275.224793 260.45 
L 277.951122 260.45 
L 277.951122 259.570063 
L 277.951122 260.45 
L 278.361155 260.45 
L 278.361155 259.570063 
L 278.361155 260.45 
L 283.957113 260.45 
L 283.957113 259.570063 
L 283.957113 260.45 
L 284.818865 260.45 
L 284.818865 259.570063 
L 284.818865 260.45 
L 286.853793 260.45 
L 286.853793 259.570063 
L 286.853793 260.45 
L 290.076522 260.45 
L 290.076522 259.570063 
L 290.076522 260.45 
L 290.310687 260.45 
L 290.310687 259.570063 
L 290.451186 259.570063 
L 290.451186 260.45 
L 290.544852 259.570063 
L 290.825849 259.570063 
L 290.825849 260.45 
L 292.120146 260.45 
L 292.120146 259.570063 
L 292.120146 260.45 
L 295.529246 260.45 
L 295.529246 259.570063 
L 295.529246 260.45 
L 297.627015 260.45 
L 297.627015 259.570063 
L 297.627015 260.45 
L 297.86118 260.45 
L 297.86118 259.570063 
L 298.001678 259.570063 
L 298.001678 260.45 
L 304.510753 260.45 
L 304.510753 259.570063 
L 304.510753 260.45 
L 311.533882 260.45 
L 311.533882 259.570063 
L 311.533882 260.45 
L 315.477819 260.45 
L 315.477819 259.570063 
L 315.477819 260.45 
L 316.662387 260.45 
L 316.662387 259.570063 
L 316.662387 260.45 
L 317.997282 260.45 
L 317.997282 259.570063 
L 317.997282 260.45 
L 325.044569 260.45 
L 325.044569 259.570063 
L 325.044569 260.45 
L 325.278734 260.45 
L 325.278734 259.570063 
L 325.419233 259.570063 
L 325.419233 260.45 
L 326.891297 260.45 
L 326.891297 259.570063 
L 326.891297 260.45 
L 328.015188 260.45 
L 328.015188 259.570063 
L 328.015188 260.45 
L 330.533387 260.45 
L 330.533387 259.570063 
L 330.533387 260.45 
L 330.767552 260.45 
L 330.767552 259.570063 
L 330.908051 259.570063 
L 330.908051 260.45 
L 331.001717 259.570063 
L 331.282714 259.570063 
L 331.282714 260.45 
L 331.738015 260.45 
L 331.738015 259.570063 
L 331.738015 260.45 
L 332.360725 260.45 
L 332.360725 259.570063 
L 332.360725 260.45 
L 339.650874 260.45 
L 339.650874 259.570063 
L 339.650874 260.45 
L 339.890765 260.45 
L 339.890765 259.570063 
L 340.025538 259.570063 
L 340.025538 260.45 
L 340.725177 260.45 
L 340.725177 259.570063 
L 340.725177 260.45 
L 341.383042 260.45 
L 341.383042 259.570063 
L 341.383042 260.45 
L 342.611276 260.45 
L 342.611276 259.570063 
L 342.611276 260.45 
L 342.848042 260.45 
L 342.848042 259.570063 
L 342.98594 259.570063 
L 342.98594 260.45 
L 345.033968 260.45 
L 345.033968 259.570063 
L 345.033968 260.45 
L 345.750888 260.45 
L 345.750888 259.570063 
L 345.750888 260.45 
L 349.730261 260.45 
L 349.730261 259.570063 
L 349.730261 260.45 
L 350.732269 260.45 
L 350.732269 259.570063 
L 350.732269 260.45 
L 355.422893 260.45 
L 355.422893 259.570063 
L 355.422893 260.45 
L 355.657058 260.45 
L 355.657058 259.570063 
L 355.797556 259.570063 
L 355.797556 260.45 
L 356.004919 260.45 
L 356.004919 259.570063 
L 356.17222 259.570063 
L 356.17222 260.45 
L 358.213917 260.45 
L 358.213917 259.570063 
L 358.213917 260.45 
L 359.774098 260.45 
L 359.774098 259.570063 
L 359.774098 260.45 
L 361.340374 260.45 
L 361.340374 259.570063 
L 361.340374 260.45 
L 365.093081 260.45 
L 365.093081 259.570063 
L 365.093081 260.45 
L 365.67084 260.45 
L 365.67084 259.570063 
L 365.67084 260.45 
L 367.003234 260.45 
L 367.003234 259.570063 
L 367.003234 260.45 
L 368.390911 260.45 
L 368.390911 259.570063 
L 368.390911 260.45 
L 373.047198 260.45 
L 373.047198 259.570063 
L 373.047198 260.45 
L 373.281363 260.45 
L 373.281363 259.570063 
L 373.421862 259.570063 
L 373.421862 260.45 
L 377.9908 260.45 
L 377.9908 259.570063 
L 377.9908 260.45 
L 379.597912 260.45 
L 379.597912 259.570063 
L 379.597912 260.45 
L 379.832076 260.45 
L 379.832076 259.570063 
L 379.972575 259.570063 
L 379.972575 260.45 
L 384.72336 260.45 
L 384.72336 259.570063 
L 384.72336 260.45 
L 385.332826 260.45 
L 385.332826 259.570063 
L 385.332826 260.45 
L 386.051356 260.45 
L 386.051356 259.570063 
L 386.051356 260.45 
L 386.285521 260.45 
L 386.285521 259.570063 
L 386.42602 259.570063 
L 386.42602 260.45 
L 388.131202 260.45 
L 388.131202 259.570063 
L 388.131202 260.45 
L 391.591834 260.45 
L 391.591834 259.570063 
L 391.591834 260.45 
L 391.856591 260.45 
L 391.856591 259.570063 
L 391.966498 260.45 
L 393.808178 260.45 
L 393.808178 259.570063 
L 393.808178 260.45 
L 396.168435 260.45 
L 396.168435 259.570063 
L 396.168435 260.45 
L 399.617743 260.45 
L 399.617743 259.570063 
L 399.617743 260.45 
L 400.25777 260.45 
L 400.25777 259.570063 
L 400.25777 260.45 
L 400.833849 260.45 
L 400.833849 259.570063 
L 400.833849 260.45 
L 401.212915 260.45 
L 401.212915 259.570063 
L 401.212915 260.45 
L 402.163063 260.45 
L 402.163063 259.570063 
L 402.163063 260.45 
L 403.817444 260.45 
L 403.817444 259.570063 
L 403.817444 260.45 
L 405.325086 260.45 
L 405.325086 259.570063 
L 405.325086 260.45 
L 405.559251 260.45 
L 405.559251 259.570063 
L 405.69975 259.570063 
L 405.69975 260.45 
L 405.793416 259.570063 
L 406.074413 259.570063 
L 406.074413 260.45 
L 409.008602 260.45 
L 409.008602 259.570063 
L 409.008602 260.45 
L 409.873571 260.45 
L 409.873571 259.570063 
L 409.873571 260.45 
L 410.107736 260.45 
L 410.107736 259.570063 
L 410.248235 259.570063 
L 410.248235 260.45 
L 410.341901 259.570063 
L 410.622899 259.570063 
L 410.622899 260.45 
L 410.997562 260.45 
L 410.997562 260.45 
" clip-path="url(#p5811d0e3e3)" style="fill: none; stroke: #2ca02c; stroke-width: 1.5; stroke-linecap: square"/>
   </g>
   <g id="line2d_34">
    <path d="M 38.509676 260.45 
L 38.509676 259.570063 
L 38.509676 260.45 
L 40.192966 260.45 
L 40.192966 259.570063 
L 40.192966 260.45 
L 42.545724 260.45 
L 42.545724 259.570063 
L 42.545724 260.45 
L 46.029354 260.45 
L 46.029354 259.570063 
L 46.029354 260.45 
L 47.758845 260.45 
L 47.758845 259.570063 
L 47.758845 260.45 
L 51.41471 260.45 
L 51.41471 259.570063 
L 51.41471 260.45 
L 52.889389 260.45 
L 52.889389 259.570063 
L 52.889389 260.45 
L 56.409286 260.45 
L 56.409286 259.570063 
L 56.409286 260.45 
L 57.441575 260.45 
L 57.441575 259.570063 
L 57.441575 260.45 
L 59.271819 260.45 
L 59.271819 259.570063 
L 59.271819 260.45 
L 61.216622 260.45 
L 61.216622 259.570063 
L 61.216622 260.45 
L 62.125421 260.45 
L 62.125421 259.570063 
L 62.125421 260.45 
L 63.203552 260.45 
L 63.203552 259.570063 
L 63.203552 260.45 
L 63.865131 260.45 
L 63.865131 259.570063 
L 63.865131 260.45 
L 68.0305 260.45 
L 68.0305 259.570063 
L 68.139873 259.570063 
L 68.217832 259.570063 
L 68.217832 260.45 
L 74.349759 260.45 
L 74.349759 259.570063 
L 74.349759 260.45 
L 74.946141 260.45 
L 74.946141 259.570063 
L 74.946141 260.45 
L 75.852082 260.45 
L 75.852082 259.570063 
L 75.852082 260.45 
L 77.068701 260.45 
L 77.068701 259.570063 
L 77.068701 260.45 
L 80.007743 260.45 
L 80.007743 259.570063 
L 80.007743 260.45 
L 83.140327 260.45 
L 83.140327 259.570063 
L 83.140327 260.45 
L 84.550325 260.45 
L 84.550325 259.570063 
L 84.550325 260.45 
L 85.775255 260.45 
L 85.775255 259.570063 
L 85.775255 260.45 
L 87.34778 260.45 
L 87.34778 259.570063 
L 87.34778 260.45 
L 88.282326 260.45 
L 88.282326 259.570063 
L 88.282326 260.45 
L 93.149683 260.45 
L 93.149683 259.570063 
L 93.149683 260.45 
L 96.537334 260.45 
L 96.537334 259.570063 
L 96.537334 260.45 
L 96.67537 260.45 
L 96.67537 259.570063 
L 96.724666 260.45 
L 97.446386 260.45 
L 97.446386 259.570063 
L 97.446386 260.45 
L 97.61716 260.45 
L 97.61716 259.570063 
L 97.633718 260.45 
L 99.574052 260.45 
L 99.574052 259.570063 
L 99.612315 259.570063 
L 99.761383 259.570063 
L 99.761383 260.45 
L 100.472633 260.45 
L 100.472633 259.570063 
L 100.472633 260.45 
L 103.821166 260.45 
L 103.821166 259.570063 
L 103.821166 260.45 
L 109.722437 260.45 
L 109.722437 259.570063 
L 109.722437 260.45 
L 112.54325 260.45 
L 112.54325 259.570063 
L 112.54325 260.45 
L 112.826554 260.45 
L 112.826554 259.570063 
L 112.826554 260.45 
L 116.648712 260.45 
L 116.648712 259.570063 
L 116.648712 260.45 
L 120.471952 260.45 
L 120.471952 259.570063 
L 120.471952 260.45 
L 127.675276 260.45 
L 127.675276 259.570063 
L 127.675276 260.45 
L 128.877402 260.45 
L 128.877402 259.570063 
L 128.877402 260.45 
L 131.884526 260.45 
L 131.884526 259.570063 
L 131.884526 260.45 
L 134.908066 260.45 
L 134.908066 259.570063 
L 134.908066 260.45 
L 136.067518 260.45 
L 136.067518 259.570063 
L 136.067518 260.45 
L 137.44434 260.45 
L 137.44434 259.570063 
L 137.44434 260.45 
L 140.285294 260.45 
L 140.285294 259.570063 
L 140.285294 260.45 
L 142.413269 260.45 
L 142.413269 259.570063 
L 142.413269 260.45 
L 142.649072 260.45 
L 142.649072 259.570063 
L 142.649072 260.45 
L 145.037979 260.45 
L 145.037979 259.570063 
L 145.037979 260.45 
L 146.951446 260.45 
L 146.951446 259.570063 
L 146.951446 260.45 
L 148.585582 260.45 
L 148.585582 259.570063 
L 148.585582 260.45 
L 148.87544 260.45 
L 148.87544 259.570063 
L 148.87544 260.45 
L 150.319458 260.45 
L 150.319458 259.570063 
L 150.319458 260.45 
L 155.741629 260.45 
L 155.741629 259.570063 
L 155.741629 260.45 
L 158.404297 260.45 
L 158.404297 259.570063 
L 158.404297 260.45 
L 159.786482 260.45 
L 159.786482 259.570063 
L 159.786482 260.45 
L 159.996193 260.45 
L 159.996193 259.570063 
L 159.996193 260.45 
L 160.999478 260.45 
L 160.999478 259.570063 
L 160.999478 260.45 
L 162.201577 260.45 
L 162.201577 259.570063 
L 162.201577 260.45 
L 162.77721 260.45 
L 162.77721 259.570063 
L 162.77721 260.45 
L 163.163495 260.45 
L 163.163495 259.570063 
L 163.163495 260.45 
L 165.95147 260.45 
L 165.95147 259.570063 
L 165.95147 260.45 
L 168.452893 260.45 
L 168.452893 259.570063 
L 168.452893 260.45 
L 169.593898 260.45 
L 169.593898 259.570063 
L 169.593898 260.45 
L 170.051079 260.45 
L 170.051079 259.570063 
L 170.051079 260.45 
L 171.625293 260.45 
L 171.625293 259.570063 
L 171.625293 260.45 
L 171.897445 260.45 
L 171.897445 259.570063 
L 171.932979 259.570063 
L 172.084777 259.570063 
L 172.084777 260.45 
L 172.666891 260.45 
L 172.666891 259.570063 
L 172.666891 260.45 
L 174.467863 260.45 
L 174.467863 259.570063 
L 174.467863 260.45 
L 174.771596 260.45 
L 174.771596 259.570063 
L 174.771596 260.45 
L 176.545622 260.45 
L 176.545622 259.570063 
L 176.545622 260.45 
L 177.016653 260.45 
L 177.016653 259.570063 
L 177.016653 260.45 
L 178.814192 260.45 
L 178.814192 259.570063 
L 178.814192 260.45 
L 179.729415 260.45 
L 179.729415 259.570063 
L 179.729415 260.45 
L 185.120665 260.45 
L 185.120665 259.570063 
L 185.120665 260.45 
L 189.483461 260.45 
L 189.483461 259.570063 
L 189.483461 260.45 
L 191.628671 260.45 
L 191.628671 259.570063 
L 191.628671 260.45 
L 192.748439 260.45 
L 192.748439 259.570063 
L 192.748439 260.45 
L 193.583037 260.45 
L 193.583037 259.570063 
L 193.583037 260.45 
L 195.361743 260.45 
L 195.361743 259.570063 
L 195.361743 260.45 
L 196.438025 260.45 
L 196.438025 259.570063 
L 196.438025 260.45 
L 200.796021 260.45 
L 200.796021 259.570063 
L 200.796021 260.45 
L 203.036711 260.45 
L 203.036711 259.570063 
L 203.036711 260.45 
L 203.232588 260.45 
L 203.232588 259.570063 
L 203.232588 260.45 
L 203.348949 260.45 
L 203.348949 259.570063 
L 203.419919 260.45 
L 209.905963 260.45 
L 209.905963 259.570063 
L 209.905963 260.45 
L 211.964576 260.45 
L 211.964576 259.570063 
L 211.964576 260.45 
L 213.948109 260.45 
L 213.948109 259.570063 
L 213.948109 260.45 
L 216.028612 260.45 
L 216.028612 259.570063 
L 216.028612 260.45 
L 216.37972 260.45 
L 216.37972 259.570063 
L 216.37972 260.45 
L 216.822211 260.45 
L 216.822211 259.570063 
L 216.822211 260.45 
L 217.652848 260.45 
L 217.652848 259.570063 
L 217.652848 260.45 
L 217.911419 260.45 
L 217.911419 259.570063 
L 217.911419 260.45 
L 220.513538 260.45 
L 220.513538 259.570063 
L 220.513538 260.45 
L 221.223455 260.45 
L 221.223455 259.570063 
L 221.223455 260.45 
L 222.976996 260.45 
L 222.976996 259.570063 
L 222.976996 260.45 
L 223.823927 260.45 
L 223.823927 259.570063 
L 223.823927 260.45 
L 224.560352 260.45 
L 224.560352 259.570063 
L 224.560352 260.45 
L 226.142234 260.45 
L 226.142234 259.570063 
L 226.215636 259.570063 
L 226.329566 259.570063 
L 226.329566 260.45 
L 227.297148 260.45 
L 227.297148 259.570063 
L 227.297148 260.45 
L 229.181465 260.45 
L 229.181465 259.570063 
L 229.181465 260.45 
L 237.526155 260.45 
L 237.526155 259.570063 
L 237.526155 260.45 
L 243.50756 260.45 
L 243.50756 259.570063 
L 243.50756 260.45 
L 243.709195 260.45 
L 243.709195 259.570063 
L 243.709195 260.45 
L 245.69084 260.45 
L 245.69084 259.570063 
L 245.69084 260.45 
L 246.129762 260.45 
L 246.129762 259.570063 
L 246.129762 260.45 
L 248.018102 260.45 
L 248.018102 259.570063 
L 248.018102 260.45 
L 248.347644 260.45 
L 248.347644 259.570063 
L 248.347644 260.45 
L 258.388818 260.45 
L 258.388818 259.570063 
L 258.388818 260.45 
L 260.37218 260.45 
L 260.37218 259.570063 
L 260.37218 260.45 
L 262.005556 260.45 
L 262.005556 259.570063 
L 262.005556 260.45 
L 262.552716 260.45 
L 262.552716 259.570063 
L 262.552716 260.45 
L 263.555062 260.45 
L 263.555062 259.570063 
L 263.555062 260.45 
L 264.731397 260.45 
L 264.731397 259.570063 
L 264.731397 260.45 
L 265.937403 260.45 
L 265.937403 259.570063 
L 265.937403 260.45 
L 266.462451 260.45 
L 266.462451 259.570063 
L 266.462451 260.45 
L 268.292428 260.45 
L 268.292428 259.570063 
L 268.292428 260.45 
L 268.616751 260.45 
L 268.616751 259.570063 
L 268.616751 260.45 
L 269.389497 260.45 
L 269.389497 259.570063 
L 269.389497 260.45 
L 269.608592 260.45 
L 269.608592 259.570063 
L 269.608592 260.45 
L 271.712644 260.45 
L 271.712644 259.570063 
L 271.712644 260.45 
L 273.713483 260.45 
L 273.713483 259.570063 
L 273.713483 260.45 
L 274.428258 260.45 
L 274.428258 259.570063 
L 274.428258 260.45 
L 274.706844 260.45 
L 274.706844 259.570063 
L 274.706844 260.45 
L 277.529251 260.45 
L 277.529251 259.570063 
L 277.529251 260.45 
L 277.939284 260.45 
L 277.939284 259.570063 
L 277.939284 260.45 
L 283.535241 260.45 
L 283.535241 259.570063 
L 283.535241 260.45 
L 284.396994 260.45 
L 284.396994 259.570063 
L 284.396994 260.45 
L 286.431922 260.45 
L 286.431922 259.570063 
L 286.431922 260.45 
L 289.654651 260.45 
L 289.654651 259.570063 
L 289.680249 259.570063 
L 289.841983 259.570063 
L 289.841983 260.45 
L 289.871599 259.570063 
L 290.029314 259.570063 
L 290.029314 260.45 
L 291.698275 260.45 
L 291.698275 259.570063 
L 291.698275 260.45 
L 295.107375 260.45 
L 295.107375 259.570063 
L 295.107375 260.45 
L 297.205144 260.45 
L 297.205144 259.570063 
L 297.205144 260.45 
L 297.394414 260.45 
L 297.394414 259.570063 
L 297.394414 260.45 
L 304.088882 260.45 
L 304.088882 259.570063 
L 304.088882 260.45 
L 311.112011 260.45 
L 311.112011 259.570063 
L 311.112011 260.45 
L 315.055948 260.45 
L 315.055948 259.570063 
L 315.055948 260.45 
L 316.240515 260.45 
L 316.240515 259.570063 
L 316.240515 260.45 
L 317.575411 260.45 
L 317.575411 259.570063 
L 317.575411 260.45 
L 324.622698 260.45 
L 324.622698 259.570063 
L 324.73009 259.570063 
L 324.81003 259.570063 
L 324.81003 260.45 
L 326.469425 260.45 
L 326.469425 259.570063 
L 326.469425 260.45 
L 327.593317 260.45 
L 327.593317 259.570063 
L 327.593317 260.45 
L 330.111516 260.45 
L 330.111516 259.570063 
L 330.149338 259.570063 
L 330.224227 259.570063 
L 330.224227 258.690125 
L 330.298848 259.570063 
L 330.486179 259.570063 
L 330.486179 260.45 
L 331.316143 260.45 
L 331.316143 259.570063 
L 331.316143 260.45 
L 331.938854 260.45 
L 331.938854 259.570063 
L 331.938854 260.45 
L 339.229003 260.45 
L 339.229003 259.570063 
L 339.229003 260.45 
L 339.468894 260.45 
L 339.468894 259.570063 
L 339.468894 260.45 
L 340.303306 260.45 
L 340.303306 259.570063 
L 340.303306 260.45 
L 340.961171 260.45 
L 340.961171 259.570063 
L 340.961171 260.45 
L 342.189405 260.45 
L 342.189405 259.570063 
L 342.189405 260.45 
L 342.426171 260.45 
L 342.426171 259.570063 
L 342.426171 260.45 
L 344.612096 260.45 
L 344.612096 259.570063 
L 344.612096 260.45 
L 345.329017 260.45 
L 345.329017 259.570063 
L 345.329017 260.45 
L 349.308389 260.45 
L 349.308389 259.570063 
L 349.308389 260.45 
L 350.310398 260.45 
L 350.310398 259.570063 
L 350.310398 260.45 
L 355.001022 260.45 
L 355.001022 259.570063 
L 355.001022 260.45 
L 355.125218 260.45 
L 355.125218 259.570063 
L 355.188353 260.45 
L 355.583048 260.45 
L 355.583048 259.570063 
L 355.583048 260.45 
L 357.792045 260.45 
L 357.792045 259.570063 
L 357.792045 260.45 
L 359.352226 260.45 
L 359.352226 259.570063 
L 359.352226 260.45 
L 360.918503 260.45 
L 360.918503 259.570063 
L 360.918503 260.45 
L 364.67121 260.45 
L 364.67121 259.570063 
L 364.67121 260.45 
L 365.248969 260.45 
L 365.248969 259.570063 
L 365.248969 260.45 
L 366.581363 260.45 
L 366.581363 259.570063 
L 366.581363 260.45 
L 367.96904 260.45 
L 367.96904 259.570063 
L 367.96904 260.45 
L 372.625327 260.45 
L 372.625327 259.570063 
L 372.625327 260.45 
L 372.81013 260.45 
L 372.81013 259.570063 
L 372.812659 260.45 
L 377.568929 260.45 
L 377.568929 259.570063 
L 377.568929 260.45 
L 379.17604 260.45 
L 379.17604 259.570063 
L 379.17604 260.45 
L 379.338589 260.45 
L 379.338589 259.570063 
L 379.363372 260.45 
L 384.301489 260.45 
L 384.301489 259.570063 
L 384.301489 260.45 
L 384.910955 260.45 
L 384.910955 259.570063 
L 384.910955 260.45 
L 385.629485 260.45 
L 385.629485 259.570063 
L 385.647096 259.570063 
L 385.816817 259.570063 
L 385.816817 260.45 
L 387.70933 260.45 
L 387.70933 259.570063 
L 387.70933 260.45 
L 391.169963 260.45 
L 391.169963 259.570063 
L 391.169963 260.45 
L 391.43472 260.45 
L 391.43472 259.570063 
L 391.43472 260.45 
L 393.386307 260.45 
L 393.386307 259.570063 
L 393.386307 260.45 
L 395.746564 260.45 
L 395.746564 259.570063 
L 395.746564 260.45 
L 399.195872 260.45 
L 399.195872 259.570063 
L 399.195872 260.45 
L 399.835899 260.45 
L 399.835899 259.570063 
L 399.835899 260.45 
L 400.411977 260.45 
L 400.411977 259.570063 
L 400.411977 260.45 
L 400.791044 260.45 
L 400.791044 259.570063 
L 400.791044 260.45 
L 401.741191 260.45 
L 401.741191 259.570063 
L 401.741191 260.45 
L 403.395573 260.45 
L 403.395573 259.570063 
L 403.395573 260.45 
L 404.903215 260.45 
L 404.903215 259.570063 
L 404.941266 259.570063 
L 405.090547 259.570063 
L 405.090547 260.45 
L 405.278936 260.45 
L 405.278936 259.570063 
L 405.278936 260.45 
L 408.586731 260.45 
L 408.586731 259.570063 
L 408.586731 260.45 
L 409.4517 260.45 
L 409.4517 259.570063 
L 409.460517 259.570063 
L 409.639032 259.570063 
L 409.639032 260.45 
L 409.757141 260.45 
L 409.757141 259.570063 
L 409.826364 260.45 
L 410.013696 260.45 
L 410.013696 260.45 
" clip-path="url(#p5811d0e3e3)" style="fill: none; stroke: #d62728; stroke-width: 1.5; stroke-linecap: square"/>
   </g>
   <g id="line2d_35">
    <path d="M 38.697195 260.45 
L 38.697195 259.570063 
L 38.697195 260.45 
L 40.380485 260.45 
L 40.380485 259.570063 
L 40.380485 260.45 
L 42.733243 260.45 
L 42.733243 259.570063 
L 42.733243 260.45 
L 46.216873 260.45 
L 46.216873 259.570063 
L 46.216873 260.45 
L 47.946364 260.45 
L 47.946364 259.570063 
L 47.946364 260.45 
L 51.602229 260.45 
L 51.602229 259.570063 
L 51.602229 260.45 
L 53.076908 260.45 
L 53.076908 259.570063 
L 53.076908 260.45 
L 56.596805 260.45 
L 56.596805 259.570063 
L 56.596805 260.45 
L 57.629094 260.45 
L 57.629094 259.570063 
L 57.629094 260.45 
L 59.459338 260.45 
L 59.459338 259.570063 
L 59.459338 260.45 
L 61.404141 260.45 
L 61.404141 259.570063 
L 61.404141 260.45 
L 62.312941 260.45 
L 62.312941 259.570063 
L 62.312941 260.45 
L 63.391071 260.45 
L 63.391071 259.570063 
L 63.391071 260.45 
L 64.052651 260.45 
L 64.052651 259.570063 
L 64.052651 260.45 
L 68.218019 260.45 
L 68.218019 259.570063 
L 68.218019 260.45 
L 68.405351 260.45 
L 68.405351 259.570063 
L 68.452184 260.45 
L 74.537278 260.45 
L 74.537278 259.570063 
L 74.537278 260.45 
L 75.13366 260.45 
L 75.13366 259.570063 
L 75.13366 260.45 
L 76.039601 260.45 
L 76.039601 259.570063 
L 76.039601 260.45 
L 77.256221 260.45 
L 77.256221 259.570063 
L 77.256221 260.45 
L 80.195262 260.45 
L 80.195262 259.570063 
L 80.195262 260.45 
L 83.327846 260.45 
L 83.327846 259.570063 
L 83.327846 260.45 
L 84.737844 260.45 
L 84.737844 259.570063 
L 84.737844 260.45 
L 85.962774 260.45 
L 85.962774 259.570063 
L 85.962774 260.45 
L 87.535299 260.45 
L 87.535299 259.570063 
L 87.535299 260.45 
L 88.469845 260.45 
L 88.469845 259.570063 
L 88.469845 260.45 
L 93.337202 260.45 
L 93.337202 259.570063 
L 93.337202 260.45 
L 96.724853 260.45 
L 96.724853 259.570063 
L 96.724853 260.45 
L 96.912185 260.45 
L 96.912185 259.570063 
L 96.959018 260.45 
L 97.633906 260.45 
L 97.633906 259.570063 
L 97.633906 260.45 
L 97.821237 260.45 
L 97.821237 259.570063 
L 97.86807 260.45 
L 99.761571 260.45 
L 99.761571 259.570063 
L 99.761571 260.45 
L 99.948903 260.45 
L 99.948903 259.570063 
L 99.995736 260.45 
L 100.660152 260.45 
L 100.660152 259.570063 
L 100.660152 260.45 
L 104.008686 260.45 
L 104.008686 259.570063 
L 104.008686 260.45 
L 109.909956 260.45 
L 109.909956 259.570063 
L 109.909956 260.45 
L 112.730769 260.45 
L 112.730769 259.570063 
L 112.730769 260.45 
L 113.014073 260.45 
L 113.014073 259.570063 
L 113.014073 260.45 
L 116.836231 260.45 
L 116.836231 259.570063 
L 116.836231 260.45 
L 120.659471 260.45 
L 120.659471 259.570063 
L 120.659471 260.45 
L 127.862795 260.45 
L 127.862795 259.570063 
L 127.862795 260.45 
L 129.064921 260.45 
L 129.064921 259.570063 
L 129.064921 260.45 
L 132.072045 260.45 
L 132.072045 259.570063 
L 132.072045 260.45 
L 135.095585 260.45 
L 135.095585 259.570063 
L 135.095585 260.45 
L 136.255037 260.45 
L 136.255037 259.570063 
L 136.255037 260.45 
L 137.631859 260.45 
L 137.631859 259.570063 
L 137.631859 260.45 
L 140.472813 260.45 
L 140.472813 259.570063 
L 140.472813 260.45 
L 142.600789 260.45 
L 142.600789 259.570063 
L 142.600789 260.45 
L 142.836591 260.45 
L 142.836591 259.570063 
L 142.836591 260.45 
L 145.225499 260.45 
L 145.225499 259.570063 
L 145.225499 260.45 
L 147.138966 260.45 
L 147.138966 259.570063 
L 147.138966 260.45 
L 148.773101 260.45 
L 148.773101 259.570063 
L 148.773101 260.45 
L 149.062959 260.45 
L 149.062959 259.570063 
L 149.062959 260.45 
L 150.506977 260.45 
L 150.506977 259.570063 
L 150.506977 260.45 
L 155.929148 260.45 
L 155.929148 259.570063 
L 155.929148 260.45 
L 158.591816 260.45 
L 158.591816 259.570063 
L 158.591816 260.45 
L 159.974002 260.45 
L 159.974002 259.570063 
L 159.974002 260.45 
L 160.183712 260.45 
L 160.183712 259.570063 
L 160.208166 260.45 
L 161.186997 260.45 
L 161.186997 259.570063 
L 161.186997 260.45 
L 162.389096 260.45 
L 162.389096 259.570063 
L 162.389096 260.45 
L 162.96473 260.45 
L 162.96473 259.570063 
L 162.96473 260.45 
L 163.351014 260.45 
L 163.351014 259.570063 
L 163.351014 260.45 
L 166.138989 260.45 
L 166.138989 259.570063 
L 166.138989 260.45 
L 168.640412 260.45 
L 168.640412 259.570063 
L 168.640412 260.45 
L 169.781417 260.45 
L 169.781417 259.570063 
L 169.781417 260.45 
L 170.238598 260.45 
L 170.238598 259.570063 
L 170.238598 260.45 
L 171.812812 260.45 
L 171.812812 259.570063 
L 171.812812 260.45 
L 172.084964 260.45 
L 172.084964 259.570063 
L 172.084964 260.45 
L 172.272296 260.45 
L 172.272296 259.570063 
L 172.319129 260.45 
L 172.85441 260.45 
L 172.85441 259.570063 
L 172.85441 260.45 
L 174.655382 260.45 
L 174.655382 259.570063 
L 174.655382 260.45 
L 174.959115 260.45 
L 174.959115 259.570063 
L 174.959115 260.45 
L 176.733142 260.45 
L 176.733142 259.570063 
L 176.733142 260.45 
L 177.204172 260.45 
L 177.204172 259.570063 
L 177.204172 260.45 
L 179.001711 260.45 
L 179.001711 259.570063 
L 179.001711 260.45 
L 179.916934 260.45 
L 179.916934 259.570063 
L 179.916934 260.45 
L 185.308184 260.45 
L 185.308184 259.570063 
L 185.308184 260.45 
L 189.67098 260.45 
L 189.67098 259.570063 
L 189.67098 260.45 
L 191.81619 260.45 
L 191.81619 259.570063 
L 191.81619 260.45 
L 192.935959 260.45 
L 192.935959 259.570063 
L 192.935959 260.45 
L 193.770556 260.45 
L 193.770556 259.570063 
L 193.770556 260.45 
L 195.549262 260.45 
L 195.549262 259.570063 
L 195.549262 260.45 
L 196.625544 260.45 
L 196.625544 259.570063 
L 196.625544 260.45 
L 200.98354 260.45 
L 200.98354 259.570063 
L 200.98354 260.45 
L 203.22423 260.45 
L 203.22423 259.570063 
L 203.22423 260.45 
L 203.420107 260.45 
L 203.420107 259.570063 
L 203.458395 260.45 
L 203.607439 260.45 
L 203.607439 259.570063 
L 203.69256 260.45 
L 210.093483 260.45 
L 210.093483 259.570063 
L 210.093483 260.45 
L 212.152095 260.45 
L 212.152095 259.570063 
L 212.152095 260.45 
L 214.135629 260.45 
L 214.135629 259.570063 
L 214.135629 260.45 
L 216.216131 260.45 
L 216.216131 259.570063 
L 216.216131 260.45 
L 216.56724 260.45 
L 216.56724 259.570063 
L 216.56724 260.45 
L 217.00973 260.45 
L 217.00973 259.570063 
L 217.00973 260.45 
L 217.840367 260.45 
L 217.840367 259.570063 
L 217.840367 260.45 
L 218.098938 260.45 
L 218.098938 259.570063 
L 218.098938 260.45 
L 220.701057 260.45 
L 220.701057 259.570063 
L 220.701057 260.45 
L 221.410974 260.45 
L 221.410974 259.570063 
L 221.410974 260.45 
L 223.164515 260.45 
L 223.164515 259.570063 
L 223.164515 260.45 
L 224.011446 260.45 
L 224.011446 259.570063 
L 224.011446 260.45 
L 224.747871 260.45 
L 224.747871 259.570063 
L 224.747871 260.45 
L 226.329753 260.45 
L 226.329753 259.570063 
L 226.329753 260.45 
L 226.517085 260.45 
L 226.517085 259.570063 
L 226.563918 260.45 
L 227.484668 260.45 
L 227.484668 259.570063 
L 227.484668 260.45 
L 229.368984 260.45 
L 229.368984 259.570063 
L 229.368984 260.45 
L 237.713674 260.45 
L 237.713674 259.570063 
L 237.713674 260.45 
L 243.695079 260.45 
L 243.695079 259.570063 
L 243.695079 260.45 
L 243.896714 260.45 
L 243.896714 259.570063 
L 243.929244 260.45 
L 245.878359 260.45 
L 245.878359 259.570063 
L 245.878359 260.45 
L 246.317281 260.45 
L 246.317281 259.570063 
L 246.317281 260.45 
L 248.205622 260.45 
L 248.205622 259.570063 
L 248.205622 260.45 
L 248.535164 260.45 
L 248.535164 259.570063 
L 248.535164 260.45 
L 258.576337 260.45 
L 258.576337 259.570063 
L 258.576337 260.45 
L 260.559699 260.45 
L 260.559699 259.570063 
L 260.559699 260.45 
L 262.193075 260.45 
L 262.193075 259.570063 
L 262.193075 260.45 
L 262.740235 260.45 
L 262.740235 259.570063 
L 262.740235 260.45 
L 263.742581 260.45 
L 263.742581 259.570063 
L 263.742581 260.45 
L 264.918916 260.45 
L 264.918916 259.570063 
L 264.918916 260.45 
L 266.124922 260.45 
L 266.124922 259.570063 
L 266.124922 260.45 
L 266.64997 260.45 
L 266.64997 259.570063 
L 266.64997 260.45 
L 268.479948 260.45 
L 268.479948 259.570063 
L 268.479948 260.45 
L 268.80427 260.45 
L 268.80427 259.570063 
L 268.80427 260.45 
L 269.577017 260.45 
L 269.577017 259.570063 
L 269.577017 260.45 
L 269.796111 260.45 
L 269.796111 259.570063 
L 269.811181 260.45 
L 271.900163 260.45 
L 271.900163 259.570063 
L 271.900163 260.45 
L 273.901002 260.45 
L 273.901002 259.570063 
L 273.901002 260.45 
L 274.615777 260.45 
L 274.615777 259.570063 
L 274.615777 260.45 
L 274.894363 260.45 
L 274.894363 259.570063 
L 274.894363 260.45 
L 277.71677 260.45 
L 277.71677 259.570063 
L 277.71677 260.45 
L 278.126803 260.45 
L 278.126803 259.570063 
L 278.126803 260.45 
L 283.722761 260.45 
L 283.722761 259.570063 
L 283.722761 260.45 
L 284.584513 260.45 
L 284.584513 259.570063 
L 284.584513 260.45 
L 286.619441 260.45 
L 286.619441 259.570063 
L 286.619441 260.45 
L 289.84217 260.45 
L 289.84217 259.570063 
L 289.84217 260.45 
L 290.029502 260.45 
L 290.029502 259.570063 
L 290.076335 260.45 
L 290.216834 260.45 
L 290.216834 259.570063 
L 290.310499 260.45 
L 291.885794 260.45 
L 291.885794 259.570063 
L 291.885794 260.45 
L 295.294894 260.45 
L 295.294894 259.570063 
L 295.294894 260.45 
L 297.392663 260.45 
L 297.392663 259.570063 
L 297.392663 260.45 
L 297.581933 260.45 
L 297.581933 259.570063 
L 297.626827 260.45 
L 304.276401 260.45 
L 304.276401 259.570063 
L 304.276401 260.45 
L 311.29953 260.45 
L 311.29953 259.570063 
L 311.29953 260.45 
L 315.243467 260.45 
L 315.243467 259.570063 
L 315.243467 260.45 
L 316.428034 260.45 
L 316.428034 259.570063 
L 316.428034 260.45 
L 317.76293 260.45 
L 317.76293 259.570063 
L 317.76293 260.45 
L 324.810217 260.45 
L 324.810217 259.570063 
L 324.810217 260.45 
L 324.997549 260.45 
L 324.997549 259.570063 
L 325.044382 260.45 
L 326.656944 260.45 
L 326.656944 259.570063 
L 326.656944 260.45 
L 327.780836 260.45 
L 327.780836 259.570063 
L 327.780836 260.45 
L 330.299035 260.45 
L 330.299035 259.570063 
L 330.299035 260.45 
L 330.486367 260.45 
L 330.486367 259.570063 
L 330.5332 260.45 
L 330.673699 260.45 
L 330.673699 259.570063 
L 330.767365 260.45 
L 331.503663 260.45 
L 331.503663 259.570063 
L 331.503663 260.45 
L 332.126373 260.45 
L 332.126373 259.570063 
L 332.126373 260.45 
L 339.416522 260.45 
L 339.416522 259.570063 
L 339.416522 260.45 
L 339.656413 260.45 
L 339.656413 259.570063 
L 339.656413 260.45 
L 340.490825 260.45 
L 340.490825 259.570063 
L 340.490825 260.45 
L 341.14869 260.45 
L 341.14869 259.570063 
L 341.14869 260.45 
L 342.376924 260.45 
L 342.376924 259.570063 
L 342.376924 260.45 
L 342.61369 260.45 
L 342.61369 259.570063 
L 342.61369 260.45 
L 344.799616 260.45 
L 344.799616 259.570063 
L 344.799616 260.45 
L 345.516536 260.45 
L 345.516536 259.570063 
L 345.516536 260.45 
L 349.495909 260.45 
L 349.495909 259.570063 
L 349.495909 260.45 
L 350.497917 260.45 
L 350.497917 259.570063 
L 350.497917 260.45 
L 355.188541 260.45 
L 355.188541 259.570063 
L 355.188541 260.45 
L 355.375873 260.45 
L 355.375873 259.570063 
L 355.422706 260.45 
L 355.770567 260.45 
L 355.770567 259.570063 
L 355.770567 260.45 
L 357.979565 260.45 
L 357.979565 259.570063 
L 357.979565 260.45 
L 359.539745 260.45 
L 359.539745 259.570063 
L 359.539745 260.45 
L 361.106022 260.45 
L 361.106022 259.570063 
L 361.106022 260.45 
L 364.858729 260.45 
L 364.858729 259.570063 
L 364.858729 260.45 
L 365.436488 260.45 
L 365.436488 259.570063 
L 365.436488 260.45 
L 366.768882 260.45 
L 366.768882 259.570063 
L 366.768882 260.45 
L 368.156559 260.45 
L 368.156559 259.570063 
L 368.156559 260.45 
L 372.812846 260.45 
L 372.812846 259.570063 
L 372.812846 260.45 
L 373.000178 260.45 
L 373.000178 259.570063 
L 373.047011 260.45 
L 377.756448 260.45 
L 377.756448 259.570063 
L 377.756448 260.45 
L 379.36356 260.45 
L 379.36356 259.570063 
L 379.36356 260.45 
L 379.550891 260.45 
L 379.550891 259.570063 
L 379.597724 260.45 
L 384.489008 260.45 
L 384.489008 259.570063 
L 384.489008 260.45 
L 385.098474 260.45 
L 385.098474 259.570063 
L 385.098474 260.45 
L 385.817004 260.45 
L 385.817004 259.570063 
L 385.817004 260.45 
L 386.004336 260.45 
L 386.004336 259.570063 
L 386.051169 260.45 
L 387.896849 260.45 
L 387.896849 259.570063 
L 387.896849 260.45 
L 391.357482 260.45 
L 391.357482 259.570063 
L 391.357482 260.45 
L 391.622239 260.45 
L 391.622239 259.570063 
L 391.622239 260.45 
L 393.573826 260.45 
L 393.573826 259.570063 
L 393.573826 260.45 
L 395.934083 260.45 
L 395.934083 259.570063 
L 395.934083 260.45 
L 399.383391 260.45 
L 399.383391 259.570063 
L 399.383391 260.45 
L 400.023418 260.45 
L 400.023418 259.570063 
L 400.023418 260.45 
L 400.599497 260.45 
L 400.599497 259.570063 
L 400.599497 260.45 
L 400.978563 260.45 
L 400.978563 259.570063 
L 400.978563 260.45 
L 401.928711 260.45 
L 401.928711 259.570063 
L 401.928711 260.45 
L 403.583092 260.45 
L 403.583092 259.570063 
L 403.583092 260.45 
L 405.090734 260.45 
L 405.090734 259.570063 
L 405.090734 260.45 
L 405.278066 260.45 
L 405.278066 259.570063 
L 405.324899 260.45 
L 405.466455 260.45 
L 405.466455 259.570063 
L 405.559063 260.45 
L 408.77425 260.45 
L 408.77425 259.570063 
L 408.77425 260.45 
L 409.639219 260.45 
L 409.639219 259.570063 
L 409.639219 260.45 
L 409.826551 260.45 
L 409.826551 259.570063 
L 409.873384 260.45 
L 410.013883 260.45 
L 410.013883 259.570063 
L 410.107549 260.45 
L 410.341714 260.45 
L 410.341714 260.45 
" clip-path="url(#p5811d0e3e3)" style="fill: none; stroke: #9467bd; stroke-width: 1.5; stroke-linecap: square"/>
   </g>
   <g id="patch_3">
    <path d="M 37.01875 260.45 
L 37.01875 25.8 
" style="fill: none; stroke: #000000; stroke-width: 0.8; stroke-linejoin: miter; stroke-linecap: square"/>
   </g>
   <g id="patch_4">
    <path d="M 415.653661 260.45 
L 415.653661 25.8 
" style="fill: none; stroke: #000000; stroke-width: 0.8; stroke-linejoin: miter; stroke-linecap: square"/>
   </g>
   <g id="patch_5">
    <path d="M 37.01875 260.45 
L 415.653661 260.45 
" style="fill: none; stroke: #000000; stroke-width: 0.8; stroke-linejoin: miter; stroke-linecap: square"/>
   </g>
   <g id="patch_6">
    <path d="M 37.01875 25.8 
L 415.653661 25.8 
" style="fill: none; stroke: #000000; stroke-width: 0.8; stroke-linejoin: miter; stroke-linecap: square"/>
   </g>
   <g id="text_16">
    <!-- Sent_vs_recived_packets -->
    <g transform="translate(151.75058 19.8)scale(0.12 -0.12)">
     <defs>
      <path id="DejaVuSans-53" d="M 3425 4513 
L 3425 3897 
Q 3066 4069 2747 4153 
Q 2428 4238 2131 4238 
Q 1616 4238 1336 4038 
Q 1056 3838 1056 3469 
Q 1056 3159 1242 3001 
Q 1428 2844 1947 2747 
L 2328 2669 
Q 3034 2534 3370 2195 
Q 3706 1856 3706 1288 
Q 3706 609 3251 259 
Q 2797 -91 1919 -91 
Q 1588 -91 1214 -16 
Q 841 59 441 206 
L 441 856 
Q 825 641 1194 531 
Q 1563 422 1919 422 
Q 2459 422 2753 634 
Q 3047 847 3047 1241 
Q 3047 1584 2836 1778 
Q 2625 1972 2144 2069 
L 1759 2144 
Q 1053 2284 737 2584 
Q 422 2884 422 3419 
Q 422 4038 858 4394 
Q 1294 4750 2059 4750 
Q 2388 4750 2728 4690 
Q 3069 4631 3425 4513 
z
" transform="scale(0.015625)"/>
      <path id="DejaVuSans-65" d="M 3597 1894 
L 3597 1613 
L 953 1613 
Q 991 1019 1311 708 
Q 1631 397 2203 397 
Q 2534 397 2845 478 
Q 3156 559 3463 722 
L 3463 178 
Q 3153 47 2828 -22 
Q 2503 -91 2169 -91 
Q 1331 -91 842 396 
Q 353 884 353 1716 
Q 353 2575 817 3079 
Q 1281 3584 2069 3584 
Q 2775 3584 3186 3129 
Q 3597 2675 3597 1894 
z
M 3022 2063 
Q 3016 2534 2758 2815 
Q 2500 3097 2075 3097 
Q 1594 3097 1305 2825 
Q 1016 2553 972 2059 
L 3022 2063 
z
" transform="scale(0.015625)"/>
      <path id="DejaVuSans-6e" d="M 3513 2113 
L 3513 0 
L 2938 0 
L 2938 2094 
Q 2938 2591 2744 2837 
Q 2550 3084 2163 3084 
Q 1697 3084 1428 2787 
Q 1159 2491 1159 1978 
L 1159 0 
L 581 0 
L 581 3500 
L 1159 3500 
L 1159 2956 
Q 1366 3272 1645 3428 
Q 1925 3584 2291 3584 
Q 2894 3584 3203 3211 
Q 3513 2838 3513 2113 
z
" transform="scale(0.015625)"/>
      <path id="DejaVuSans-74" d="M 1172 4494 
L 1172 3500 
L 2356 3500 
L 2356 3053 
L 1172 3053 
L 1172 1153 
Q 1172 725 1289 603 
Q 1406 481 1766 481 
L 2356 481 
L 2356 0 
L 1766 0 
Q 1100 0 847 248 
Q 594 497 594 1153 
L 594 3053 
L 172 3053 
L 172 3500 
L 594 3500 
L 594 4494 
L 1172 4494 
z
" transform="scale(0.015625)"/>
      <path id="DejaVuSans-5f" d="M 3263 -1063 
L 3263 -1509 
L -63 -1509 
L -63 -1063 
L 3263 -1063 
z
" transform="scale(0.015625)"/>
      <path id="DejaVuSans-76" d="M 191 3500 
L 800 3500 
L 1894 563 
L 2988 3500 
L 3597 3500 
L 2284 0 
L 1503 0 
L 191 3500 
z
" transform="scale(0.015625)"/>
      <path id="DejaVuSans-73" d="M 2834 3397 
L 2834 2853 
Q 2591 2978 2328 3040 
Q 2066 3103 1784 3103 
Q 1356 3103 1142 2972 
Q 928 2841 928 2578 
Q 928 2378 1081 2264 
Q 1234 2150 1697 2047 
L 1894 2003 
Q 2506 1872 2764 1633 
Q 3022 1394 3022 966 
Q 3022 478 2636 193 
Q 2250 -91 1575 -91 
Q 1294 -91 989 -36 
Q 684 19 347 128 
L 347 722 
Q 666 556 975 473 
Q 1284 391 1588 391 
Q 1994 391 2212 530 
Q 2431 669 2431 922 
Q 2431 1156 2273 1281 
Q 2116 1406 1581 1522 
L 1381 1569 
Q 847 1681 609 1914 
Q 372 2147 372 2553 
Q 372 3047 722 3315 
Q 1072 3584 1716 3584 
Q 2034 3584 2315 3537 
Q 2597 3491 2834 3397 
z
" transform="scale(0.015625)"/>
      <path id="DejaVuSans-72" d="M 2631 2963 
Q 2534 3019 2420 3045 
Q 2306 3072 2169 3072 
Q 1681 3072 1420 2755 
Q 1159 2438 1159 1844 
L 1159 0 
L 581 0 
L 581 3500 
L 1159 3500 
L 1159 2956 
Q 1341 3275 1631 3429 
Q 1922 3584 2338 3584 
Q 2397 3584 2469 3576 
Q 2541 3569 2628 3553 
L 2631 2963 
z
" transform="scale(0.015625)"/>
      <path id="DejaVuSans-63" d="M 3122 3366 
L 3122 2828 
Q 2878 2963 2633 3030 
Q 2388 3097 2138 3097 
Q 1578 3097 1268 2742 
Q 959 2388 959 1747 
Q 959 1106 1268 751 
Q 1578 397 2138 397 
Q 2388 397 2633 464 
Q 2878 531 3122 666 
L 3122 134 
Q 2881 22 2623 -34 
Q 2366 -91 2075 -91 
Q 1284 -91 818 406 
Q 353 903 353 1747 
Q 353 2603 823 3093 
Q 1294 3584 2113 3584 
Q 2378 3584 2631 3529 
Q 2884 3475 3122 3366 
z
" transform="scale(0.015625)"/>
      <path id="DejaVuSans-69" d="M 603 3500 
L 1178 3500 
L 1178 0 
L 603 0 
L 603 3500 
z
M 603 4863 
L 1178 4863 
L 1178 4134 
L 603 4134 
L 603 4863 
z
" transform="scale(0.015625)"/>
      <path id="DejaVuSans-64" d="M 2906 2969 
L 2906 4863 
L 3481 4863 
L 3481 0 
L 2906 0 
L 2906 525 
Q 2725 213 2448 61 
Q 2172 -91 1784 -91 
Q 1150 -91 751 415 
Q 353 922 353 1747 
Q 353 2572 751 3078 
Q 1150 3584 1784 3584 
Q 2172 3584 2448 3432 
Q 2725 3281 2906 2969 
z
M 947 1747 
Q 947 1113 1208 752 
Q 1469 391 1925 391 
Q 2381 391 2643 752 
Q 2906 1113 2906 1747 
Q 2906 2381 2643 2742 
Q 2381 3103 1925 3103 
Q 1469 3103 1208 2742 
Q 947 2381 947 1747 
z
" transform="scale(0.015625)"/>
      <path id="DejaVuSans-70" d="M 1159 525 
L 1159 -1331 
L 581 -1331 
L 581 3500 
L 1159 3500 
L 1159 2969 
Q 1341 3281 1617 3432 
Q 1894 3584 2278 3584 
Q 2916 3584 3314 3078 
Q 3713 2572 3713 1747 
Q 3713 922 3314 415 
Q 2916 -91 2278 -91 
Q 1894 -91 1617 61 
Q 1341 213 1159 525 
z
M 3116 1747 
Q 3116 2381 2855 2742 
Q 2594 3103 2138 3103 
Q 1681 3103 1420 2742 
Q 1159 2381 1159 1747 
Q 1159 1113 1420 752 
Q 1681 391 2138 391 
Q 2594 391 2855 752 
Q 3116 1113 3116 1747 
z
" transform="scale(0.015625)"/>
      <path id="DejaVuSans-61" d="M 2194 1759 
Q 1497 1759 1228 1600 
Q 959 1441 959 1056 
Q 959 750 1161 570 
Q 1363 391 1709 391 
Q 2188 391 2477 730 
Q 2766 1069 2766 1631 
L 2766 1759 
L 2194 1759 
z
M 3341 1997 
L 3341 0 
L 2766 0 
L 2766 531 
Q 2569 213 2275 61 
Q 1981 -91 1556 -91 
Q 1019 -91 701 211 
Q 384 513 384 1019 
Q 384 1609 779 1909 
Q 1175 2209 1959 2209 
L 2766 2209 
L 2766 2266 
Q 2766 2663 2505 2880 
Q 2244 3097 1772 3097 
Q 1472 3097 1187 3025 
Q 903 2953 641 2809 
L 641 3341 
Q 956 3463 1253 3523 
Q 1550 3584 1831 3584 
Q 2591 3584 2966 3190 
Q 3341 2797 3341 1997 
z
" transform="scale(0.015625)"/>
      <path id="DejaVuSans-6b" d="M 581 4863 
L 1159 4863 
L 1159 1991 
L 2875 3500 
L 3609 3500 
L 1753 1863 
L 3688 0 
L 2938 0 
L 1159 1709 
L 1159 0 
L 581 0 
L 581 4863 
z
" transform="scale(0.015625)"/>
     </defs>
     <use xlink:href="#DejaVuSans-53"/>
     <use xlink:href="#DejaVuSans-65" x="63.476562"/>
     <use xlink:href="#DejaVuSans-6e" x="125"/>
     <use xlink:href="#DejaVuSans-74" x="188.378906"/>
     <use xlink:href="#DejaVuSans-5f" x="227.587891"/>
     <use xlink:href="#DejaVuSans-76" x="277.587891"/>
     <use xlink:href="#DejaVuSans-73" x="336.767578"/>
     <use xlink:href="#DejaVuSans-5f" x="388.867188"/>
     <use xlink:href="#DejaVuSans-72" x="438.867188"/>
     <use xlink:href="#DejaVuSans-65" x="477.730469"/>
     <use xlink:href="#DejaVuSans-63" x="539.253906"/>
     <use xlink:href="#DejaVuSans-69" x="594.234375"/>
     <use xlink:href="#DejaVuSans-76" x="622.017578"/>
     <use xlink:href="#DejaVuSans-65" x="681.197266"/>
     <use xlink:href="#DejaVuSans-64" x="742.720703"/>
     <use xlink:href="#DejaVuSans-5f" x="806.197266"/>
     <use xlink:href="#DejaVuSans-70" x="856.197266"/>
     <use xlink:href="#DejaVuSans-61" x="919.673828"/>
     <use xlink:href="#DejaVuSans-63" x="980.953125"/>
     <use xlink:href="#DejaVuSans-6b" x="1035.933594"/>
     <use xlink:href="#DejaVuSans-65" x="1090.21875"/>
     <use xlink:href="#DejaVuSans-74" x="1151.742188"/>
     <use xlink:href="#DejaVuSans-73" x="1190.951172"/>
    </g>
   </g>
   <g id="legend_1">
    <g id="patch_7">
     <path d="M 167.766161 107.190625 
L 408.653661 107.190625 
Q 410.653661 107.190625 410.653661 105.190625 
L 410.653661 32.8 
Q 410.653661 30.8 408.653661 30.8 
L 167.766161 30.8 
Q 165.766161 30.8 165.766161 32.8 
L 165.766161 105.190625 
Q 165.766161 107.190625 167.766161 107.190625 
z
" style="fill: #ffffff; opacity: 0.8; stroke: #cccccc; stroke-linejoin: miter"/>
    </g>
    <g id="line2d_36">
     <path d="M 169.766161 38.898437 
L 179.766161 38.898437 
L 189.766161 38.898437 
" style="fill: none; stroke: #1f77b4; stroke-width: 1.5; stroke-linecap: square"/>
    </g>
    <g id="text_17">
     <!-- Received packets in Network.nodeRx.sink -->
     <g transform="translate(197.766161 42.398437)scale(0.1 -0.1)">
      <defs>
       <path id="DejaVuSans-52" d="M 2841 2188 
Q 3044 2119 3236 1894 
Q 3428 1669 3622 1275 
L 4263 0 
L 3584 0 
L 2988 1197 
Q 2756 1666 2539 1819 
Q 2322 1972 1947 1972 
L 1259 1972 
L 1259 0 
L 628 0 
L 628 4666 
L 2053 4666 
Q 2853 4666 3247 4331 
Q 3641 3997 3641 3322 
Q 3641 2881 3436 2590 
Q 3231 2300 2841 2188 
z
M 1259 4147 
L 1259 2491 
L 2053 2491 
Q 2509 2491 2742 2702 
Q 2975 2913 2975 3322 
Q 2975 3731 2742 3939 
Q 2509 4147 2053 4147 
L 1259 4147 
z
" transform="scale(0.015625)"/>
       <path id="DejaVuSans-20" transform="scale(0.015625)"/>
       <path id="DejaVuSans-4e" d="M 628 4666 
L 1478 4666 
L 3547 763 
L 3547 4666 
L 4159 4666 
L 4159 0 
L 3309 0 
L 1241 3903 
L 1241 0 
L 628 0 
L 628 4666 
z
" transform="scale(0.015625)"/>
       <path id="DejaVuSans-77" d="M 269 3500 
L 844 3500 
L 1563 769 
L 2278 3500 
L 2956 3500 
L 3675 769 
L 4391 3500 
L 4966 3500 
L 4050 0 
L 3372 0 
L 2619 2869 
L 1863 0 
L 1184 0 
L 269 3500 
z
" transform="scale(0.015625)"/>
       <path id="DejaVuSans-6f" d="M 1959 3097 
Q 1497 3097 1228 2736 
Q 959 2375 959 1747 
Q 959 1119 1226 758 
Q 1494 397 1959 397 
Q 2419 397 2687 759 
Q 2956 1122 2956 1747 
Q 2956 2369 2687 2733 
Q 2419 3097 1959 3097 
z
M 1959 3584 
Q 2709 3584 3137 3096 
Q 3566 2609 3566 1747 
Q 3566 888 3137 398 
Q 2709 -91 1959 -91 
Q 1206 -91 779 398 
Q 353 888 353 1747 
Q 353 2609 779 3096 
Q 1206 3584 1959 3584 
z
" transform="scale(0.015625)"/>
       <path id="DejaVuSans-2e" d="M 684 794 
L 1344 794 
L 1344 0 
L 684 0 
L 684 794 
z
" transform="scale(0.015625)"/>
       <path id="DejaVuSans-78" d="M 3513 3500 
L 2247 1797 
L 3578 0 
L 2900 0 
L 1881 1375 
L 863 0 
L 184 0 
L 1544 1831 
L 300 3500 
L 978 3500 
L 1906 2253 
L 2834 3500 
L 3513 3500 
z
" transform="scale(0.015625)"/>
      </defs>
      <use xlink:href="#DejaVuSans-52"/>
      <use xlink:href="#DejaVuSans-65" x="64.982422"/>
      <use xlink:href="#DejaVuSans-63" x="126.505859"/>
      <use xlink:href="#DejaVuSans-65" x="181.486328"/>
      <use xlink:href="#DejaVuSans-69" x="243.009766"/>
      <use xlink:href="#DejaVuSans-76" x="270.792969"/>
      <use xlink:href="#DejaVuSans-65" x="329.972656"/>
      <use xlink:href="#DejaVuSans-64" x="391.496094"/>
      <use xlink:href="#DejaVuSans-20" x="454.972656"/>
      <use xlink:href="#DejaVuSans-70" x="486.759766"/>
      <use xlink:href="#DejaVuSans-61" x="550.236328"/>
      <use xlink:href="#DejaVuSans-63" x="611.515625"/>
      <use xlink:href="#DejaVuSans-6b" x="666.496094"/>
      <use xlink:href="#DejaVuSans-65" x="720.78125"/>
      <use xlink:href="#DejaVuSans-74" x="782.304688"/>
      <use xlink:href="#DejaVuSans-73" x="821.513672"/>
      <use xlink:href="#DejaVuSans-20" x="873.613281"/>
      <use xlink:href="#DejaVuSans-69" x="905.400391"/>
      <use xlink:href="#DejaVuSans-6e" x="933.183594"/>
      <use xlink:href="#DejaVuSans-20" x="996.5625"/>
      <use xlink:href="#DejaVuSans-4e" x="1028.349609"/>
      <use xlink:href="#DejaVuSans-65" x="1103.154297"/>
      <use xlink:href="#DejaVuSans-74" x="1164.677734"/>
      <use xlink:href="#DejaVuSans-77" x="1203.886719"/>
      <use xlink:href="#DejaVuSans-6f" x="1285.673828"/>
      <use xlink:href="#DejaVuSans-72" x="1346.855469"/>
      <use xlink:href="#DejaVuSans-6b" x="1387.96875"/>
      <use xlink:href="#DejaVuSans-2e" x="1445.878906"/>
      <use xlink:href="#DejaVuSans-6e" x="1477.666016"/>
      <use xlink:href="#DejaVuSans-6f" x="1541.044922"/>
      <use xlink:href="#DejaVuSans-64" x="1602.226562"/>
      <use xlink:href="#DejaVuSans-65" x="1665.703125"/>
      <use xlink:href="#DejaVuSans-52" x="1727.226562"/>
      <use xlink:href="#DejaVuSans-78" x="1796.708984"/>
      <use xlink:href="#DejaVuSans-2e" x="1855.888672"/>
      <use xlink:href="#DejaVuSans-73" x="1887.675781"/>
      <use xlink:href="#DejaVuSans-69" x="1939.775391"/>
      <use xlink:href="#DejaVuSans-6e" x="1967.558594"/>
      <use xlink:href="#DejaVuSans-6b" x="2030.9375"/>
     </g>
    </g>
    <g id="line2d_37">
     <path d="M 169.766161 53.576562 
L 179.766161 53.576562 
L 189.766161 53.576562 
" style="fill: none; stroke: #ff7f0e; stroke-width: 1.5; stroke-linecap: square"/>
    </g>
    <g id="text_18">
     <!-- Sent packets in Network.nodeTx.gen -->
     <g transform="translate(197.766161 57.076562)scale(0.1 -0.1)">
      <defs>
       <path id="DejaVuSans-54" d="M -19 4666 
L 3928 4666 
L 3928 4134 
L 2272 4134 
L 2272 0 
L 1638 0 
L 1638 4134 
L -19 4134 
L -19 4666 
z
" transform="scale(0.015625)"/>
       <path id="DejaVuSans-67" d="M 2906 1791 
Q 2906 2416 2648 2759 
Q 2391 3103 1925 3103 
Q 1463 3103 1205 2759 
Q 947 2416 947 1791 
Q 947 1169 1205 825 
Q 1463 481 1925 481 
Q 2391 481 2648 825 
Q 2906 1169 2906 1791 
z
M 3481 434 
Q 3481 -459 3084 -895 
Q 2688 -1331 1869 -1331 
Q 1566 -1331 1297 -1286 
Q 1028 -1241 775 -1147 
L 775 -588 
Q 1028 -725 1275 -790 
Q 1522 -856 1778 -856 
Q 2344 -856 2625 -561 
Q 2906 -266 2906 331 
L 2906 616 
Q 2728 306 2450 153 
Q 2172 0 1784 0 
Q 1141 0 747 490 
Q 353 981 353 1791 
Q 353 2603 747 3093 
Q 1141 3584 1784 3584 
Q 2172 3584 2450 3431 
Q 2728 3278 2906 2969 
L 2906 3500 
L 3481 3500 
L 3481 434 
z
" transform="scale(0.015625)"/>
      </defs>
      <use xlink:href="#DejaVuSans-53"/>
      <use xlink:href="#DejaVuSans-65" x="63.476562"/>
      <use xlink:href="#DejaVuSans-6e" x="125"/>
      <use xlink:href="#DejaVuSans-74" x="188.378906"/>
      <use xlink:href="#DejaVuSans-20" x="227.587891"/>
      <use xlink:href="#DejaVuSans-70" x="259.375"/>
      <use xlink:href="#DejaVuSans-61" x="322.851562"/>
      <use xlink:href="#DejaVuSans-63" x="384.130859"/>
      <use xlink:href="#DejaVuSans-6b" x="439.111328"/>
      <use xlink:href="#DejaVuSans-65" x="493.396484"/>
      <use xlink:href="#DejaVuSans-74" x="554.919922"/>
      <use xlink:href="#DejaVuSans-73" x="594.128906"/>
      <use xlink:href="#DejaVuSans-20" x="646.228516"/>
      <use xlink:href="#DejaVuSans-69" x="678.015625"/>
      <use xlink:href="#DejaVuSans-6e" x="705.798828"/>
      <use xlink:href="#DejaVuSans-20" x="769.177734"/>
      <use xlink:href="#DejaVuSans-4e" x="800.964844"/>
      <use xlink:href="#DejaVuSans-65" x="875.769531"/>
      <use xlink:href="#DejaVuSans-74" x="937.292969"/>
      <use xlink:href="#DejaVuSans-77" x="976.501953"/>
      <use xlink:href="#DejaVuSans-6f" x="1058.289062"/>
      <use xlink:href="#DejaVuSans-72" x="1119.470703"/>
      <use xlink:href="#DejaVuSans-6b" x="1160.583984"/>
      <use xlink:href="#DejaVuSans-2e" x="1218.494141"/>
      <use xlink:href="#DejaVuSans-6e" x="1250.28125"/>
      <use xlink:href="#DejaVuSans-6f" x="1313.660156"/>
      <use xlink:href="#DejaVuSans-64" x="1374.841797"/>
      <use xlink:href="#DejaVuSans-65" x="1438.318359"/>
      <use xlink:href="#DejaVuSans-54" x="1499.841797"/>
      <use xlink:href="#DejaVuSans-78" x="1560.925781"/>
      <use xlink:href="#DejaVuSans-2e" x="1620.105469"/>
      <use xlink:href="#DejaVuSans-67" x="1651.892578"/>
      <use xlink:href="#DejaVuSans-65" x="1715.369141"/>
      <use xlink:href="#DejaVuSans-6e" x="1776.892578"/>
     </g>
    </g>
    <g id="line2d_38">
     <path d="M 169.766161 68.254687 
L 179.766161 68.254687 
L 189.766161 68.254687 
" style="fill: none; stroke: #2ca02c; stroke-width: 1.5; stroke-linecap: square"/>
    </g>
    <g id="text_19">
     <!-- buffer size in Network.nodeRx.traRx -->
     <g transform="translate(197.766161 71.754687)scale(0.1 -0.1)">
      <defs>
       <path id="DejaVuSans-62" d="M 3116 1747 
Q 3116 2381 2855 2742 
Q 2594 3103 2138 3103 
Q 1681 3103 1420 2742 
Q 1159 2381 1159 1747 
Q 1159 1113 1420 752 
Q 1681 391 2138 391 
Q 2594 391 2855 752 
Q 3116 1113 3116 1747 
z
M 1159 2969 
Q 1341 3281 1617 3432 
Q 1894 3584 2278 3584 
Q 2916 3584 3314 3078 
Q 3713 2572 3713 1747 
Q 3713 922 3314 415 
Q 2916 -91 2278 -91 
Q 1894 -91 1617 61 
Q 1341 213 1159 525 
L 1159 0 
L 581 0 
L 581 4863 
L 1159 4863 
L 1159 2969 
z
" transform="scale(0.015625)"/>
       <path id="DejaVuSans-75" d="M 544 1381 
L 544 3500 
L 1119 3500 
L 1119 1403 
Q 1119 906 1312 657 
Q 1506 409 1894 409 
Q 2359 409 2629 706 
Q 2900 1003 2900 1516 
L 2900 3500 
L 3475 3500 
L 3475 0 
L 2900 0 
L 2900 538 
Q 2691 219 2414 64 
Q 2138 -91 1772 -91 
Q 1169 -91 856 284 
Q 544 659 544 1381 
z
M 1991 3584 
L 1991 3584 
z
" transform="scale(0.015625)"/>
       <path id="DejaVuSans-66" d="M 2375 4863 
L 2375 4384 
L 1825 4384 
Q 1516 4384 1395 4259 
Q 1275 4134 1275 3809 
L 1275 3500 
L 2222 3500 
L 2222 3053 
L 1275 3053 
L 1275 0 
L 697 0 
L 697 3053 
L 147 3053 
L 147 3500 
L 697 3500 
L 697 3744 
Q 697 4328 969 4595 
Q 1241 4863 1831 4863 
L 2375 4863 
z
" transform="scale(0.015625)"/>
       <path id="DejaVuSans-7a" d="M 353 3500 
L 3084 3500 
L 3084 2975 
L 922 459 
L 3084 459 
L 3084 0 
L 275 0 
L 275 525 
L 2438 3041 
L 353 3041 
L 353 3500 
z
" transform="scale(0.015625)"/>
      </defs>
      <use xlink:href="#DejaVuSans-62"/>
      <use xlink:href="#DejaVuSans-75" x="63.476562"/>
      <use xlink:href="#DejaVuSans-66" x="126.855469"/>
      <use xlink:href="#DejaVuSans-66" x="162.060547"/>
      <use xlink:href="#DejaVuSans-65" x="197.265625"/>
      <use xlink:href="#DejaVuSans-72" x="258.789062"/>
      <use xlink:href="#DejaVuSans-20" x="299.902344"/>
      <use xlink:href="#DejaVuSans-73" x="331.689453"/>
      <use xlink:href="#DejaVuSans-69" x="383.789062"/>
      <use xlink:href="#DejaVuSans-7a" x="411.572266"/>
      <use xlink:href="#DejaVuSans-65" x="464.0625"/>
      <use xlink:href="#DejaVuSans-20" x="525.585938"/>
      <use xlink:href="#DejaVuSans-69" x="557.373047"/>
      <use xlink:href="#DejaVuSans-6e" x="585.15625"/>
      <use xlink:href="#DejaVuSans-20" x="648.535156"/>
      <use xlink:href="#DejaVuSans-4e" x="680.322266"/>
      <use xlink:href="#DejaVuSans-65" x="755.126953"/>
      <use xlink:href="#DejaVuSans-74" x="816.650391"/>
      <use xlink:href="#DejaVuSans-77" x="855.859375"/>
      <use xlink:href="#DejaVuSans-6f" x="937.646484"/>
      <use xlink:href="#DejaVuSans-72" x="998.828125"/>
      <use xlink:href="#DejaVuSans-6b" x="1039.941406"/>
      <use xlink:href="#DejaVuSans-2e" x="1097.851562"/>
      <use xlink:href="#DejaVuSans-6e" x="1129.638672"/>
      <use xlink:href="#DejaVuSans-6f" x="1193.017578"/>
      <use xlink:href="#DejaVuSans-64" x="1254.199219"/>
      <use xlink:href="#DejaVuSans-65" x="1317.675781"/>
      <use xlink:href="#DejaVuSans-52" x="1379.199219"/>
      <use xlink:href="#DejaVuSans-78" x="1448.681641"/>
      <use xlink:href="#DejaVuSans-2e" x="1507.861328"/>
      <use xlink:href="#DejaVuSans-74" x="1539.648438"/>
      <use xlink:href="#DejaVuSans-72" x="1578.857422"/>
      <use xlink:href="#DejaVuSans-61" x="1619.970703"/>
      <use xlink:href="#DejaVuSans-52" x="1681.25"/>
      <use xlink:href="#DejaVuSans-78" x="1750.732422"/>
     </g>
    </g>
    <g id="line2d_39">
     <path d="M 169.766161 82.932812 
L 179.766161 82.932812 
L 189.766161 82.932812 
" style="fill: none; stroke: #d62728; stroke-width: 1.5; stroke-linecap: square"/>
    </g>
    <g id="text_20">
     <!-- buffer size in Network.nodeTx.traTx -->
     <g transform="translate(197.766161 86.432812)scale(0.1 -0.1)">
      <use xlink:href="#DejaVuSans-62"/>
      <use xlink:href="#DejaVuSans-75" x="63.476562"/>
      <use xlink:href="#DejaVuSans-66" x="126.855469"/>
      <use xlink:href="#DejaVuSans-66" x="162.060547"/>
      <use xlink:href="#DejaVuSans-65" x="197.265625"/>
      <use xlink:href="#DejaVuSans-72" x="258.789062"/>
      <use xlink:href="#DejaVuSans-20" x="299.902344"/>
      <use xlink:href="#DejaVuSans-73" x="331.689453"/>
      <use xlink:href="#DejaVuSans-69" x="383.789062"/>
      <use xlink:href="#DejaVuSans-7a" x="411.572266"/>
      <use xlink:href="#DejaVuSans-65" x="464.0625"/>
      <use xlink:href="#DejaVuSans-20" x="525.585938"/>
      <use xlink:href="#DejaVuSans-69" x="557.373047"/>
      <use xlink:href="#DejaVuSans-6e" x="585.15625"/>
      <use xlink:href="#DejaVuSans-20" x="648.535156"/>
      <use xlink:href="#DejaVuSans-4e" x="680.322266"/>
      <use xlink:href="#DejaVuSans-65" x="755.126953"/>
      <use xlink:href="#DejaVuSans-74" x="816.650391"/>
      <use xlink:href="#DejaVuSans-77" x="855.859375"/>
      <use xlink:href="#DejaVuSans-6f" x="937.646484"/>
      <use xlink:href="#DejaVuSans-72" x="998.828125"/>
      <use xlink:href="#DejaVuSans-6b" x="1039.941406"/>
      <use xlink:href="#DejaVuSans-2e" x="1097.851562"/>
      <use xlink:href="#DejaVuSans-6e" x="1129.638672"/>
      <use xlink:href="#DejaVuSans-6f" x="1193.017578"/>
      <use xlink:href="#DejaVuSans-64" x="1254.199219"/>
      <use xlink:href="#DejaVuSans-65" x="1317.675781"/>
      <use xlink:href="#DejaVuSans-54" x="1379.199219"/>
      <use xlink:href="#DejaVuSans-78" x="1440.283203"/>
      <use xlink:href="#DejaVuSans-2e" x="1499.462891"/>
      <use xlink:href="#DejaVuSans-74" x="1531.25"/>
      <use xlink:href="#DejaVuSans-72" x="1570.458984"/>
      <use xlink:href="#DejaVuSans-61" x="1611.572266"/>
      <use xlink:href="#DejaVuSans-54" x="1672.851562"/>
      <use xlink:href="#DejaVuSans-78" x="1733.935547"/>
     </g>
    </g>
    <g id="line2d_40">
     <path d="M 169.766161 97.610937 
L 179.766161 97.610937 
L 189.766161 97.610937 
" style="fill: none; stroke: #9467bd; stroke-width: 1.5; stroke-linecap: square"/>
    </g>
    <g id="text_21">
     <!-- buffer size in Network.queue0 -->
     <g transform="translate(197.766161 101.110937)scale(0.1 -0.1)">
      <defs>
       <path id="DejaVuSans-71" d="M 947 1747 
Q 947 1113 1208 752 
Q 1469 391 1925 391 
Q 2381 391 2643 752 
Q 2906 1113 2906 1747 
Q 2906 2381 2643 2742 
Q 2381 3103 1925 3103 
Q 1469 3103 1208 2742 
Q 947 2381 947 1747 
z
M 2906 525 
Q 2725 213 2448 61 
Q 2172 -91 1784 -91 
Q 1150 -91 751 415 
Q 353 922 353 1747 
Q 353 2572 751 3078 
Q 1150 3584 1784 3584 
Q 2172 3584 2448 3432 
Q 2725 3281 2906 2969 
L 2906 3500 
L 3481 3500 
L 3481 -1331 
L 2906 -1331 
L 2906 525 
z
" transform="scale(0.015625)"/>
      </defs>
      <use xlink:href="#DejaVuSans-62"/>
      <use xlink:href="#DejaVuSans-75" x="63.476562"/>
      <use xlink:href="#DejaVuSans-66" x="126.855469"/>
      <use xlink:href="#DejaVuSans-66" x="162.060547"/>
      <use xlink:href="#DejaVuSans-65" x="197.265625"/>
      <use xlink:href="#DejaVuSans-72" x="258.789062"/>
      <use xlink:href="#DejaVuSans-20" x="299.902344"/>
      <use xlink:href="#DejaVuSans-73" x="331.689453"/>
      <use xlink:href="#DejaVuSans-69" x="383.789062"/>
      <use xlink:href="#DejaVuSans-7a" x="411.572266"/>
      <use xlink:href="#DejaVuSans-65" x="464.0625"/>
      <use xlink:href="#DejaVuSans-20" x="525.585938"/>
      <use xlink:href="#DejaVuSans-69" x="557.373047"/>
      <use xlink:href="#DejaVuSans-6e" x="585.15625"/>
      <use xlink:href="#DejaVuSans-20" x="648.535156"/>
      <use xlink:href="#DejaVuSans-4e" x="680.322266"/>
      <use xlink:href="#DejaVuSans-65" x="755.126953"/>
      <use xlink:href="#DejaVuSans-74" x="816.650391"/>
      <use xlink:href="#DejaVuSans-77" x="855.859375"/>
      <use xlink:href="#DejaVuSans-6f" x="937.646484"/>
      <use xlink:href="#DejaVuSans-72" x="998.828125"/>
      <use xlink:href="#DejaVuSans-6b" x="1039.941406"/>
      <use xlink:href="#DejaVuSans-2e" x="1097.851562"/>
      <use xlink:href="#DejaVuSans-71" x="1129.638672"/>
      <use xlink:href="#DejaVuSans-75" x="1193.115234"/>
      <use xlink:href="#DejaVuSans-65" x="1256.494141"/>
      <use xlink:href="#DejaVuSans-75" x="1318.017578"/>
      <use xlink:href="#DejaVuSans-65" x="1381.396484"/>
      <use xlink:href="#DejaVuSans-30" x="1442.919922"/>
     </g>
    </g>
   </g>
  </g>
 </g>
 <defs>
  <clipPath id="p5811d0e3e3">
   <rect x="37.01875" y="25.8" width="378.634911" height="234.65"/>
  </clipPath>
 </defs>
</svg>
