<?xml version="1.0" encoding="utf-8" standalone="no"?>
<!DOCTYPE svg PUBLIC "-//W3C//DTD SVG 1.1//EN"
  "http://www.w3.org/Graphics/SVG/1.1/DTD/svg11.dtd">
<svg xmlns:xlink="http://www.w3.org/1999/xlink" width="432pt" height="288pt" viewBox="0 0 432 288" xmlns="http://www.w3.org/2000/svg" version="1.1">
 <metadata>
  <rdf:RDF xmlns:dc="http://purl.org/dc/elements/1.1/" xmlns:cc="http://creativecommons.org/ns#" xmlns:rdf="http://www.w3.org/1999/02/22-rdf-syntax-ns#">
   <cc:Work>
    <dc:type rdf:resource="http://purl.org/dc/dcmitype/StillImage"/>
    <dc:date>2022-05-23T10:05:19.752121</dc:date>
    <dc:format>image/svg+xml</dc:format>
    <dc:creator>
     <cc:Agent>
      <dc:title>omnetpp.scave 6.0.0; Matplotlib 3.5.1 w/ backend GTK3Agg; Pandas 1.4.2; Python 3.8.10; Linux-5.4.0-109-generic-x86_64-with-glibc2.29</dc:title>
     </cc:Agent>
    </dc:creator>
   </cc:Work>
  </rdf:RDF>
 </metadata>
 <defs>
  <style type="text/css">*{stroke-linejoin: round; stroke-linecap: butt}</style>
 </defs>
 <g id="figure_1">
  <g id="patch_1">
   <path d="M 0 288 
L 432 288 
L 432 0 
L 0 0 
z
" style="fill: #ffffff"/>
  </g>
  <g id="axes_1">
   <g id="patch_2">
    <path d="M 50.76875 246.7 
L 415.515214 246.7 
L 415.515214 25.8 
L 50.76875 25.8 
z
" style="fill: #ffffff"/>
   </g>
   <g id="matplotlib.axis_1">
    <g id="xtick_1">
     <g id="line2d_1">
      <path d="M 50.76875 246.7 
L 50.76875 25.8 
" clip-path="url(#pd3ae1db67e)" style="fill: none; stroke: #b0b0b0; stroke-width: 0.8; stroke-linecap: square"/>
     </g>
     <g id="line2d_2">
      <defs>
       <path id="mcdd0304d10" d="M 0 0 
L 0 3.5 
" style="stroke: #000000; stroke-width: 0.8"/>
      </defs>
      <g>
       <use xlink:href="#mcdd0304d10" x="50.76875" y="246.7" style="stroke: #000000; stroke-width: 0.8"/>
      </g>
     </g>
     <g id="text_1">
      <!-- 0 -->
      <g transform="translate(47.5875 261.298437)scale(0.1 -0.1)">
       <defs>
        <path id="DejaVuSans-30" d="M 2034 4250 
Q 1547 4250 1301 3770 
Q 1056 3291 1056 2328 
Q 1056 1369 1301 889 
Q 1547 409 2034 409 
Q 2525 409 2770 889 
Q 3016 1369 3016 2328 
Q 3016 3291 2770 3770 
Q 2525 4250 2034 4250 
z
M 2034 4750 
Q 2819 4750 3233 4129 
Q 3647 3509 3647 2328 
Q 3647 1150 3233 529 
Q 2819 -91 2034 -91 
Q 1250 -91 836 529 
Q 422 1150 422 2328 
Q 422 3509 836 4129 
Q 1250 4750 2034 4750 
z
" transform="scale(0.015625)"/>
       </defs>
       <use xlink:href="#DejaVuSans-30"/>
      </g>
     </g>
    </g>
    <g id="xtick_2">
     <g id="line2d_3">
      <path d="M 95.883858 246.7 
L 95.883858 25.8 
" clip-path="url(#pd3ae1db67e)" style="fill: none; stroke: #b0b0b0; stroke-width: 0.8; stroke-linecap: square"/>
     </g>
     <g id="line2d_4">
      <g>
       <use xlink:href="#mcdd0304d10" x="95.883858" y="246.7" style="stroke: #000000; stroke-width: 0.8"/>
      </g>
     </g>
     <g id="text_2">
      <!-- 25 -->
      <g transform="translate(89.521358 261.298437)scale(0.1 -0.1)">
       <defs>
        <path id="DejaVuSans-32" d="M 1228 531 
L 3431 531 
L 3431 0 
L 469 0 
L 469 531 
Q 828 903 1448 1529 
Q 2069 2156 2228 2338 
Q 2531 2678 2651 2914 
Q 2772 3150 2772 3378 
Q 2772 3750 2511 3984 
Q 2250 4219 1831 4219 
Q 1534 4219 1204 4116 
Q 875 4013 500 3803 
L 500 4441 
Q 881 4594 1212 4672 
Q 1544 4750 1819 4750 
Q 2544 4750 2975 4387 
Q 3406 4025 3406 3419 
Q 3406 3131 3298 2873 
Q 3191 2616 2906 2266 
Q 2828 2175 2409 1742 
Q 1991 1309 1228 531 
z
" transform="scale(0.015625)"/>
        <path id="DejaVuSans-35" d="M 691 4666 
L 3169 4666 
L 3169 4134 
L 1269 4134 
L 1269 2991 
Q 1406 3038 1543 3061 
Q 1681 3084 1819 3084 
Q 2600 3084 3056 2656 
Q 3513 2228 3513 1497 
Q 3513 744 3044 326 
Q 2575 -91 1722 -91 
Q 1428 -91 1123 -41 
Q 819 9 494 109 
L 494 744 
Q 775 591 1075 516 
Q 1375 441 1709 441 
Q 2250 441 2565 725 
Q 2881 1009 2881 1497 
Q 2881 1984 2565 2268 
Q 2250 2553 1709 2553 
Q 1456 2553 1204 2497 
Q 953 2441 691 2322 
L 691 4666 
z
" transform="scale(0.015625)"/>
       </defs>
       <use xlink:href="#DejaVuSans-32"/>
       <use xlink:href="#DejaVuSans-35" x="63.623047"/>
      </g>
     </g>
    </g>
    <g id="xtick_3">
     <g id="line2d_5">
      <path d="M 140.998966 246.7 
L 140.998966 25.8 
" clip-path="url(#pd3ae1db67e)" style="fill: none; stroke: #b0b0b0; stroke-width: 0.8; stroke-linecap: square"/>
     </g>
     <g id="line2d_6">
      <g>
       <use xlink:href="#mcdd0304d10" x="140.998966" y="246.7" style="stroke: #000000; stroke-width: 0.8"/>
      </g>
     </g>
     <g id="text_3">
      <!-- 50 -->
      <g transform="translate(134.636466 261.298437)scale(0.1 -0.1)">
       <use xlink:href="#DejaVuSans-35"/>
       <use xlink:href="#DejaVuSans-30" x="63.623047"/>
      </g>
     </g>
    </g>
    <g id="xtick_4">
     <g id="line2d_7">
      <path d="M 186.114074 246.7 
L 186.114074 25.8 
" clip-path="url(#pd3ae1db67e)" style="fill: none; stroke: #b0b0b0; stroke-width: 0.8; stroke-linecap: square"/>
     </g>
     <g id="line2d_8">
      <g>
       <use xlink:href="#mcdd0304d10" x="186.114074" y="246.7" style="stroke: #000000; stroke-width: 0.8"/>
      </g>
     </g>
     <g id="text_4">
      <!-- 75 -->
      <g transform="translate(179.751574 261.298437)scale(0.1 -0.1)">
       <defs>
        <path id="DejaVuSans-37" d="M 525 4666 
L 3525 4666 
L 3525 4397 
L 1831 0 
L 1172 0 
L 2766 4134 
L 525 4134 
L 525 4666 
z
" transform="scale(0.015625)"/>
       </defs>
       <use xlink:href="#DejaVuSans-37"/>
       <use xlink:href="#DejaVuSans-35" x="63.623047"/>
      </g>
     </g>
    </g>
    <g id="xtick_5">
     <g id="line2d_9">
      <path d="M 231.229182 246.7 
L 231.229182 25.8 
" clip-path="url(#pd3ae1db67e)" style="fill: none; stroke: #b0b0b0; stroke-width: 0.8; stroke-linecap: square"/>
     </g>
     <g id="line2d_10">
      <g>
       <use xlink:href="#mcdd0304d10" x="231.229182" y="246.7" style="stroke: #000000; stroke-width: 0.8"/>
      </g>
     </g>
     <g id="text_5">
      <!-- 100 -->
      <g transform="translate(221.685432 261.298437)scale(0.1 -0.1)">
       <defs>
        <path id="DejaVuSans-31" d="M 794 531 
L 1825 531 
L 1825 4091 
L 703 3866 
L 703 4441 
L 1819 4666 
L 2450 4666 
L 2450 531 
L 3481 531 
L 3481 0 
L 794 0 
L 794 531 
z
" transform="scale(0.015625)"/>
       </defs>
       <use xlink:href="#DejaVuSans-31"/>
       <use xlink:href="#DejaVuSans-30" x="63.623047"/>
       <use xlink:href="#DejaVuSans-30" x="127.246094"/>
      </g>
     </g>
    </g>
    <g id="xtick_6">
     <g id="line2d_11">
      <path d="M 276.34429 246.7 
L 276.34429 25.8 
" clip-path="url(#pd3ae1db67e)" style="fill: none; stroke: #b0b0b0; stroke-width: 0.8; stroke-linecap: square"/>
     </g>
     <g id="line2d_12">
      <g>
       <use xlink:href="#mcdd0304d10" x="276.34429" y="246.7" style="stroke: #000000; stroke-width: 0.8"/>
      </g>
     </g>
     <g id="text_6">
      <!-- 125 -->
      <g transform="translate(266.80054 261.298437)scale(0.1 -0.1)">
       <use xlink:href="#DejaVuSans-31"/>
       <use xlink:href="#DejaVuSans-32" x="63.623047"/>
       <use xlink:href="#DejaVuSans-35" x="127.246094"/>
      </g>
     </g>
    </g>
    <g id="xtick_7">
     <g id="line2d_13">
      <path d="M 321.459398 246.7 
L 321.459398 25.8 
" clip-path="url(#pd3ae1db67e)" style="fill: none; stroke: #b0b0b0; stroke-width: 0.8; stroke-linecap: square"/>
     </g>
     <g id="line2d_14">
      <g>
       <use xlink:href="#mcdd0304d10" x="321.459398" y="246.7" style="stroke: #000000; stroke-width: 0.8"/>
      </g>
     </g>
     <g id="text_7">
      <!-- 150 -->
      <g transform="translate(311.915648 261.298437)scale(0.1 -0.1)">
       <use xlink:href="#DejaVuSans-31"/>
       <use xlink:href="#DejaVuSans-35" x="63.623047"/>
       <use xlink:href="#DejaVuSans-30" x="127.246094"/>
      </g>
     </g>
    </g>
    <g id="xtick_8">
     <g id="line2d_15">
      <path d="M 366.574505 246.7 
L 366.574505 25.8 
" clip-path="url(#pd3ae1db67e)" style="fill: none; stroke: #b0b0b0; stroke-width: 0.8; stroke-linecap: square"/>
     </g>
     <g id="line2d_16">
      <g>
       <use xlink:href="#mcdd0304d10" x="366.574505" y="246.7" style="stroke: #000000; stroke-width: 0.8"/>
      </g>
     </g>
     <g id="text_8">
      <!-- 175 -->
      <g transform="translate(357.030755 261.298437)scale(0.1 -0.1)">
       <use xlink:href="#DejaVuSans-31"/>
       <use xlink:href="#DejaVuSans-37" x="63.623047"/>
       <use xlink:href="#DejaVuSans-35" x="127.246094"/>
      </g>
     </g>
    </g>
    <g id="xtick_9">
     <g id="line2d_17">
      <path d="M 411.689613 246.7 
L 411.689613 25.8 
" clip-path="url(#pd3ae1db67e)" style="fill: none; stroke: #b0b0b0; stroke-width: 0.8; stroke-linecap: square"/>
     </g>
     <g id="line2d_18">
      <g>
       <use xlink:href="#mcdd0304d10" x="411.689613" y="246.7" style="stroke: #000000; stroke-width: 0.8"/>
      </g>
     </g>
     <g id="text_9">
      <!-- 200 -->
      <g transform="translate(402.145863 261.298437)scale(0.1 -0.1)">
       <use xlink:href="#DejaVuSans-32"/>
       <use xlink:href="#DejaVuSans-30" x="63.623047"/>
       <use xlink:href="#DejaVuSans-30" x="127.246094"/>
      </g>
     </g>
    </g>
    <g id="text_10">
     <!-- Tiempo -->
     <g transform="translate(214.674795 274.976562)scale(0.1 -0.1)">
      <defs>
       <path id="DejaVuSans-54" d="M -19 4666 
L 3928 4666 
L 3928 4134 
L 2272 4134 
L 2272 0 
L 1638 0 
L 1638 4134 
L -19 4134 
L -19 4666 
z
" transform="scale(0.015625)"/>
       <path id="DejaVuSans-69" d="M 603 3500 
L 1178 3500 
L 1178 0 
L 603 0 
L 603 3500 
z
M 603 4863 
L 1178 4863 
L 1178 4134 
L 603 4134 
L 603 4863 
z
" transform="scale(0.015625)"/>
       <path id="DejaVuSans-65" d="M 3597 1894 
L 3597 1613 
L 953 1613 
Q 991 1019 1311 708 
Q 1631 397 2203 397 
Q 2534 397 2845 478 
Q 3156 559 3463 722 
L 3463 178 
Q 3153 47 2828 -22 
Q 2503 -91 2169 -91 
Q 1331 -91 842 396 
Q 353 884 353 1716 
Q 353 2575 817 3079 
Q 1281 3584 2069 3584 
Q 2775 3584 3186 3129 
Q 3597 2675 3597 1894 
z
M 3022 2063 
Q 3016 2534 2758 2815 
Q 2500 3097 2075 3097 
Q 1594 3097 1305 2825 
Q 1016 2553 972 2059 
L 3022 2063 
z
" transform="scale(0.015625)"/>
       <path id="DejaVuSans-6d" d="M 3328 2828 
Q 3544 3216 3844 3400 
Q 4144 3584 4550 3584 
Q 5097 3584 5394 3201 
Q 5691 2819 5691 2113 
L 5691 0 
L 5113 0 
L 5113 2094 
Q 5113 2597 4934 2840 
Q 4756 3084 4391 3084 
Q 3944 3084 3684 2787 
Q 3425 2491 3425 1978 
L 3425 0 
L 2847 0 
L 2847 2094 
Q 2847 2600 2669 2842 
Q 2491 3084 2119 3084 
Q 1678 3084 1418 2786 
Q 1159 2488 1159 1978 
L 1159 0 
L 581 0 
L 581 3500 
L 1159 3500 
L 1159 2956 
Q 1356 3278 1631 3431 
Q 1906 3584 2284 3584 
Q 2666 3584 2933 3390 
Q 3200 3197 3328 2828 
z
" transform="scale(0.015625)"/>
       <path id="DejaVuSans-70" d="M 1159 525 
L 1159 -1331 
L 581 -1331 
L 581 3500 
L 1159 3500 
L 1159 2969 
Q 1341 3281 1617 3432 
Q 1894 3584 2278 3584 
Q 2916 3584 3314 3078 
Q 3713 2572 3713 1747 
Q 3713 922 3314 415 
Q 2916 -91 2278 -91 
Q 1894 -91 1617 61 
Q 1341 213 1159 525 
z
M 3116 1747 
Q 3116 2381 2855 2742 
Q 2594 3103 2138 3103 
Q 1681 3103 1420 2742 
Q 1159 2381 1159 1747 
Q 1159 1113 1420 752 
Q 1681 391 2138 391 
Q 2594 391 2855 752 
Q 3116 1113 3116 1747 
z
" transform="scale(0.015625)"/>
       <path id="DejaVuSans-6f" d="M 1959 3097 
Q 1497 3097 1228 2736 
Q 959 2375 959 1747 
Q 959 1119 1226 758 
Q 1494 397 1959 397 
Q 2419 397 2687 759 
Q 2956 1122 2956 1747 
Q 2956 2369 2687 2733 
Q 2419 3097 1959 3097 
z
M 1959 3584 
Q 2709 3584 3137 3096 
Q 3566 2609 3566 1747 
Q 3566 888 3137 398 
Q 2709 -91 1959 -91 
Q 1206 -91 779 398 
Q 353 888 353 1747 
Q 353 2609 779 3096 
Q 1206 3584 1959 3584 
z
" transform="scale(0.015625)"/>
      </defs>
      <use xlink:href="#DejaVuSans-54"/>
      <use xlink:href="#DejaVuSans-69" x="57.958984"/>
      <use xlink:href="#DejaVuSans-65" x="85.742188"/>
      <use xlink:href="#DejaVuSans-6d" x="147.265625"/>
      <use xlink:href="#DejaVuSans-70" x="244.677734"/>
      <use xlink:href="#DejaVuSans-6f" x="308.154297"/>
     </g>
    </g>
   </g>
   <g id="matplotlib.axis_2">
    <g id="ytick_1">
     <g id="line2d_19">
      <path d="M 50.76875 246.7 
L 415.515214 246.7 
" clip-path="url(#pd3ae1db67e)" style="fill: none; stroke: #b0b0b0; stroke-width: 0.8; stroke-linecap: square"/>
     </g>
     <g id="line2d_20">
      <defs>
       <path id="m3e6246b0dc" d="M 0 0 
L -3.5 0 
" style="stroke: #000000; stroke-width: 0.8"/>
      </defs>
      <g>
       <use xlink:href="#m3e6246b0dc" x="50.76875" y="246.7" style="stroke: #000000; stroke-width: 0.8"/>
      </g>
     </g>
     <g id="text_11">
      <!-- 0 -->
      <g transform="translate(37.40625 250.499219)scale(0.1 -0.1)">
       <use xlink:href="#DejaVuSans-30"/>
      </g>
     </g>
    </g>
    <g id="ytick_2">
     <g id="line2d_21">
      <path d="M 50.76875 205.28125 
L 415.515214 205.28125 
" clip-path="url(#pd3ae1db67e)" style="fill: none; stroke: #b0b0b0; stroke-width: 0.8; stroke-linecap: square"/>
     </g>
     <g id="line2d_22">
      <g>
       <use xlink:href="#m3e6246b0dc" x="50.76875" y="205.28125" style="stroke: #000000; stroke-width: 0.8"/>
      </g>
     </g>
     <g id="text_12">
      <!-- 50 -->
      <g transform="translate(31.04375 209.080469)scale(0.1 -0.1)">
       <use xlink:href="#DejaVuSans-35"/>
       <use xlink:href="#DejaVuSans-30" x="63.623047"/>
      </g>
     </g>
    </g>
    <g id="ytick_3">
     <g id="line2d_23">
      <path d="M 50.76875 163.8625 
L 415.515214 163.8625 
" clip-path="url(#pd3ae1db67e)" style="fill: none; stroke: #b0b0b0; stroke-width: 0.8; stroke-linecap: square"/>
     </g>
     <g id="line2d_24">
      <g>
       <use xlink:href="#m3e6246b0dc" x="50.76875" y="163.8625" style="stroke: #000000; stroke-width: 0.8"/>
      </g>
     </g>
     <g id="text_13">
      <!-- 100 -->
      <g transform="translate(24.68125 167.661719)scale(0.1 -0.1)">
       <use xlink:href="#DejaVuSans-31"/>
       <use xlink:href="#DejaVuSans-30" x="63.623047"/>
       <use xlink:href="#DejaVuSans-30" x="127.246094"/>
      </g>
     </g>
    </g>
    <g id="ytick_4">
     <g id="line2d_25">
      <path d="M 50.76875 122.44375 
L 415.515214 122.44375 
" clip-path="url(#pd3ae1db67e)" style="fill: none; stroke: #b0b0b0; stroke-width: 0.8; stroke-linecap: square"/>
     </g>
     <g id="line2d_26">
      <g>
       <use xlink:href="#m3e6246b0dc" x="50.76875" y="122.44375" style="stroke: #000000; stroke-width: 0.8"/>
      </g>
     </g>
     <g id="text_14">
      <!-- 150 -->
      <g transform="translate(24.68125 126.242969)scale(0.1 -0.1)">
       <use xlink:href="#DejaVuSans-31"/>
       <use xlink:href="#DejaVuSans-35" x="63.623047"/>
       <use xlink:href="#DejaVuSans-30" x="127.246094"/>
      </g>
     </g>
    </g>
    <g id="ytick_5">
     <g id="line2d_27">
      <path d="M 50.76875 81.025 
L 415.515214 81.025 
" clip-path="url(#pd3ae1db67e)" style="fill: none; stroke: #b0b0b0; stroke-width: 0.8; stroke-linecap: square"/>
     </g>
     <g id="line2d_28">
      <g>
       <use xlink:href="#m3e6246b0dc" x="50.76875" y="81.025" style="stroke: #000000; stroke-width: 0.8"/>
      </g>
     </g>
     <g id="text_15">
      <!-- 200 -->
      <g transform="translate(24.68125 84.824219)scale(0.1 -0.1)">
       <use xlink:href="#DejaVuSans-32"/>
       <use xlink:href="#DejaVuSans-30" x="63.623047"/>
       <use xlink:href="#DejaVuSans-30" x="127.246094"/>
      </g>
     </g>
    </g>
    <g id="ytick_6">
     <g id="line2d_29">
      <path d="M 50.76875 39.60625 
L 415.515214 39.60625 
" clip-path="url(#pd3ae1db67e)" style="fill: none; stroke: #b0b0b0; stroke-width: 0.8; stroke-linecap: square"/>
     </g>
     <g id="line2d_30">
      <g>
       <use xlink:href="#m3e6246b0dc" x="50.76875" y="39.60625" style="stroke: #000000; stroke-width: 0.8"/>
      </g>
     </g>
     <g id="text_16">
      <!-- 250 -->
      <g transform="translate(24.68125 43.405469)scale(0.1 -0.1)">
       <use xlink:href="#DejaVuSans-32"/>
       <use xlink:href="#DejaVuSans-35" x="63.623047"/>
       <use xlink:href="#DejaVuSans-30" x="127.246094"/>
      </g>
     </g>
    </g>
    <g id="text_17">
     <!-- Paquetes -->
     <g transform="translate(18.601562 159.164844)rotate(-90)scale(0.1 -0.1)">
      <defs>
       <path id="DejaVuSans-50" d="M 1259 4147 
L 1259 2394 
L 2053 2394 
Q 2494 2394 2734 2622 
Q 2975 2850 2975 3272 
Q 2975 3691 2734 3919 
Q 2494 4147 2053 4147 
L 1259 4147 
z
M 628 4666 
L 2053 4666 
Q 2838 4666 3239 4311 
Q 3641 3956 3641 3272 
Q 3641 2581 3239 2228 
Q 2838 1875 2053 1875 
L 1259 1875 
L 1259 0 
L 628 0 
L 628 4666 
z
" transform="scale(0.015625)"/>
       <path id="DejaVuSans-61" d="M 2194 1759 
Q 1497 1759 1228 1600 
Q 959 1441 959 1056 
Q 959 750 1161 570 
Q 1363 391 1709 391 
Q 2188 391 2477 730 
Q 2766 1069 2766 1631 
L 2766 1759 
L 2194 1759 
z
M 3341 1997 
L 3341 0 
L 2766 0 
L 2766 531 
Q 2569 213 2275 61 
Q 1981 -91 1556 -91 
Q 1019 -91 701 211 
Q 384 513 384 1019 
Q 384 1609 779 1909 
Q 1175 2209 1959 2209 
L 2766 2209 
L 2766 2266 
Q 2766 2663 2505 2880 
Q 2244 3097 1772 3097 
Q 1472 3097 1187 3025 
Q 903 2953 641 2809 
L 641 3341 
Q 956 3463 1253 3523 
Q 1550 3584 1831 3584 
Q 2591 3584 2966 3190 
Q 3341 2797 3341 1997 
z
" transform="scale(0.015625)"/>
       <path id="DejaVuSans-71" d="M 947 1747 
Q 947 1113 1208 752 
Q 1469 391 1925 391 
Q 2381 391 2643 752 
Q 2906 1113 2906 1747 
Q 2906 2381 2643 2742 
Q 2381 3103 1925 3103 
Q 1469 3103 1208 2742 
Q 947 2381 947 1747 
z
M 2906 525 
Q 2725 213 2448 61 
Q 2172 -91 1784 -91 
Q 1150 -91 751 415 
Q 353 922 353 1747 
Q 353 2572 751 3078 
Q 1150 3584 1784 3584 
Q 2172 3584 2448 3432 
Q 2725 3281 2906 2969 
L 2906 3500 
L 3481 3500 
L 3481 -1331 
L 2906 -1331 
L 2906 525 
z
" transform="scale(0.015625)"/>
       <path id="DejaVuSans-75" d="M 544 1381 
L 544 3500 
L 1119 3500 
L 1119 1403 
Q 1119 906 1312 657 
Q 1506 409 1894 409 
Q 2359 409 2629 706 
Q 2900 1003 2900 1516 
L 2900 3500 
L 3475 3500 
L 3475 0 
L 2900 0 
L 2900 538 
Q 2691 219 2414 64 
Q 2138 -91 1772 -91 
Q 1169 -91 856 284 
Q 544 659 544 1381 
z
M 1991 3584 
L 1991 3584 
z
" transform="scale(0.015625)"/>
       <path id="DejaVuSans-74" d="M 1172 4494 
L 1172 3500 
L 2356 3500 
L 2356 3053 
L 1172 3053 
L 1172 1153 
Q 1172 725 1289 603 
Q 1406 481 1766 481 
L 2356 481 
L 2356 0 
L 1766 0 
Q 1100 0 847 248 
Q 594 497 594 1153 
L 594 3053 
L 172 3053 
L 172 3500 
L 594 3500 
L 594 4494 
L 1172 4494 
z
" transform="scale(0.015625)"/>
       <path id="DejaVuSans-73" d="M 2834 3397 
L 2834 2853 
Q 2591 2978 2328 3040 
Q 2066 3103 1784 3103 
Q 1356 3103 1142 2972 
Q 928 2841 928 2578 
Q 928 2378 1081 2264 
Q 1234 2150 1697 2047 
L 1894 2003 
Q 2506 1872 2764 1633 
Q 3022 1394 3022 966 
Q 3022 478 2636 193 
Q 2250 -91 1575 -91 
Q 1294 -91 989 -36 
Q 684 19 347 128 
L 347 722 
Q 666 556 975 473 
Q 1284 391 1588 391 
Q 1994 391 2212 530 
Q 2431 669 2431 922 
Q 2431 1156 2273 1281 
Q 2116 1406 1581 1522 
L 1381 1569 
Q 847 1681 609 1914 
Q 372 2147 372 2553 
Q 372 3047 722 3315 
Q 1072 3584 1716 3584 
Q 2034 3584 2315 3537 
Q 2597 3491 2834 3397 
z
" transform="scale(0.015625)"/>
      </defs>
      <use xlink:href="#DejaVuSans-50"/>
      <use xlink:href="#DejaVuSans-61" x="55.802734"/>
      <use xlink:href="#DejaVuSans-71" x="117.082031"/>
      <use xlink:href="#DejaVuSans-75" x="180.558594"/>
      <use xlink:href="#DejaVuSans-65" x="243.9375"/>
      <use xlink:href="#DejaVuSans-74" x="305.460938"/>
      <use xlink:href="#DejaVuSans-65" x="344.669922"/>
      <use xlink:href="#DejaVuSans-73" x="406.193359"/>
     </g>
    </g>
   </g>
   <g id="line2d_31">
    <path d="M 52.972306 245.871625 
L 54.593852 245.04325 
L 56.86031 244.214875 
L 60.21616 243.3865 
L 61.882213 242.558125 
L 65.40398 241.72975 
L 66.824566 240.901375 
L 70.215353 240.073 
L 71.209777 239.244625 
L 74.846354 237.587875 
L 75.721819 236.7595 
L 76.760403 235.931125 
L 77.397716 235.10275 
L 81.410297 234.274375 
L 81.771218 233.446 
L 87.497764 232.617625 
L 88.07227 231.78925 
L 88.944981 230.960875 
L 90.116975 230.1325 
L 95.965891 228.47575 
L 100.019013 225.990625 
L 100.91928 225.16225 
L 105.6081 224.333875 
L 108.871491 223.5055 
L 109.232412 222.677125 
L 109.7472 221.84875 
L 110.10812 221.020375 
L 111.796821 220.192 
L 112.157742 219.363625 
L 112.662443 218.53525 
L 115.888151 217.706875 
L 121.572961 216.8785 
L 124.290306 216.050125 
L 124.651227 215.22175 
L 131.92818 213.565 
L 138.867284 212.736625 
L 140.025316 211.90825 
L 145.834773 210.2515 
L 146.951696 209.423125 
L 148.278016 208.59475 
L 151.014763 207.766375 
L 153.064683 206.938 
L 153.425604 206.109625 
L 155.593118 205.28125 
L 159.010593 203.6245 
L 159.371514 202.796125 
L 160.680871 201.96775 
L 165.904154 201.139375 
L 168.469155 200.311 
L 169.800641 199.482625 
L 170.161562 198.65425 
L 170.969144 197.825875 
L 172.127149 196.9975 
L 172.681669 196.169125 
L 173.053784 195.34075 
L 178.149165 193.684 
L 179.248318 192.855625 
L 179.688729 192.02725 
L 181.205201 191.198875 
L 182.287963 188.71375 
L 183.943504 187.885375 
L 184.304425 187.057 
L 185.945051 186.228625 
L 186.398804 185.40025 
L 188.130409 184.571875 
L 189.012061 183.7435 
L 194.205559 182.915125 
L 198.408326 182.08675 
L 200.474848 181.258375 
L 201.553544 180.43 
L 202.357528 179.601625 
L 204.07099 178.77325 
L 205.107794 177.944875 
L 209.305937 177.1165 
L 211.464438 176.288125 
L 212.18628 174.631375 
L 218.081724 173.803 
L 223.979792 171.317875 
L 224.744282 169.661125 
L 225.54445 168.83275 
L 225.905371 168.004375 
L 228.30021 167.176 
L 228.984086 166.347625 
L 230.673307 165.51925 
L 232.198585 163.8625 
L 233.722443 163.034125 
L 234.083364 162.20575 
L 234.834995 161.377375 
L 236.650194 160.549 
L 244.688798 159.720625 
L 250.450804 158.89225 
L 250.811725 158.063875 
L 252.554001 157.2355 
L 252.976822 156.407125 
L 254.795898 155.57875 
L 255.156819 154.750375 
L 264.786213 153.922 
L 266.696824 153.093625 
L 268.270287 152.26525 
L 268.797377 151.436875 
L 270.896143 149.780125 
L 272.057913 148.95175 
L 272.563702 148.123375 
L 274.326556 147.295 
L 274.687476 146.466625 
L 275.383384 145.63825 
L 275.744304 144.809875 
L 279.548764 143.153125 
L 280.237321 142.32475 
L 280.598242 141.496375 
L 283.224569 140.668 
L 283.619562 139.839625 
L 289.010257 139.01125 
L 289.8404 138.182875 
L 291.800687 137.3545 
L 294.905205 136.526125 
L 295.627047 134.869375 
L 296.873868 134.041 
L 300.157921 133.212625 
L 302.178743 132.38425 
L 302.539664 131.555875 
L 315.575502 129.899125 
L 319.374774 129.07075 
L 321.801823 127.414 
L 328.590613 126.585625 
L 328.951534 125.75725 
L 330.369602 124.928875 
L 331.452269 124.1005 
L 333.8781 123.272125 
L 335.038541 120.787 
L 335.63841 119.958625 
L 342.661154 119.13025 
L 343.022075 118.301875 
L 344.329786 116.645125 
L 345.512968 115.81675 
L 345.873889 114.988375 
L 347.846794 114.16 
L 348.537418 113.331625 
L 352.370826 112.50325 
L 353.33608 111.674875 
L 357.85465 110.8465 
L 358.576492 109.18975 
L 360.543299 108.361375 
L 363.555077 106.704625 
L 367.170133 105.87625 
L 367.7267 105.047875 
L 370.346998 103.391125 
L 374.832491 102.56275 
L 375.193411 101.734375 
L 379.59476 100.906 
L 381.142922 100.077625 
L 381.503843 99.24925 
L 386.080367 98.420875 
L 387.720573 95.93575 
L 389.363208 95.107375 
L 392.696904 94.279 
L 393.057824 93.450625 
L 394.831951 92.62225 
L 397.105633 91.793875 
L 400.42842 90.9655 
L 401.599918 89.30875 
L 401.965081 88.480375 
L 402.880376 87.652 
L 405.926416 85.99525 
L 406.648257 84.3385 
L 409.474819 83.510125 
L 410.308061 82.68175 
L 411.029903 81.025 
L 411.029903 81.025 
" clip-path="url(#pd3ae1db67e)" style="fill: none; stroke: #1f77b4; stroke-width: 1.5; stroke-linecap: square"/>
   </g>
   <g id="line2d_32">
    <path d="M 52.204989 245.871625 
L 53.826535 245.04325 
L 56.092993 244.214875 
L 59.448842 243.3865 
L 61.114895 242.558125 
L 64.636662 241.72975 
L 66.057249 240.901375 
L 69.448035 240.073 
L 70.44246 239.244625 
L 74.079036 237.587875 
L 74.954501 236.7595 
L 75.993085 235.931125 
L 76.630398 235.10275 
L 80.64298 234.274375 
L 80.748341 233.446 
L 86.730446 232.617625 
L 87.304953 231.78925 
L 88.177663 230.960875 
L 89.349657 230.1325 
L 95.198573 228.47575 
L 99.251695 225.990625 
L 100.151962 225.16225 
L 104.840783 224.333875 
L 108.104174 223.5055 
L 108.237146 222.677125 
L 108.979882 221.84875 
L 109.144391 221.020375 
L 111.029504 220.192 
L 111.066364 219.363625 
L 111.895125 218.53525 
L 115.120833 217.706875 
L 120.805643 216.8785 
L 123.522988 216.050125 
L 123.7959 215.22175 
L 131.160863 213.565 
L 138.099967 212.736625 
L 139.257998 211.90825 
L 145.067455 210.2515 
L 146.184378 209.423125 
L 147.510698 208.59475 
L 150.247445 207.766375 
L 152.297366 206.938 
L 152.524519 206.109625 
L 154.8258 205.28125 
L 158.243275 203.6245 
L 158.522501 202.796125 
L 159.913553 201.96775 
L 165.136836 201.139375 
L 167.701837 200.311 
L 169.033324 199.482625 
L 169.235342 198.65425 
L 170.201826 197.825875 
L 171.359831 196.9975 
L 171.914351 196.169125 
L 172.286466 195.34075 
L 177.381848 193.684 
L 178.481 192.855625 
L 178.921411 192.02725 
L 180.437883 191.198875 
L 180.700052 190.3705 
L 180.734283 189.542125 
L 181.441274 188.71375 
L 183.176187 187.885375 
L 183.468779 187.057 
L 185.177733 186.228625 
L 185.631486 185.40025 
L 187.363091 184.571875 
L 188.244743 183.7435 
L 193.438241 182.915125 
L 197.641008 182.08675 
L 199.707531 181.258375 
L 200.786226 180.43 
L 201.59021 179.601625 
L 203.303672 178.77325 
L 204.340476 177.944875 
L 208.538619 177.1165 
L 210.697121 176.288125 
L 210.997906 174.631375 
L 217.314406 173.803 
L 223.212474 171.317875 
L 223.976964 169.661125 
L 224.777133 168.83275 
L 225.02622 168.004375 
L 227.532892 167.176 
L 228.216769 166.347625 
L 229.905989 165.51925 
L 231.431267 163.8625 
L 232.955125 163.034125 
L 233.025835 162.20575 
L 234.067677 161.377375 
L 235.882877 160.549 
L 243.921481 159.720625 
L 249.683486 158.89225 
L 249.877725 158.063875 
L 251.786683 157.2355 
L 252.209504 156.407125 
L 254.02858 155.57875 
L 254.346035 154.750375 
L 264.018895 153.922 
L 265.929507 153.093625 
L 267.50297 152.26525 
L 268.030059 151.436875 
L 270.128826 149.780125 
L 271.290596 148.95175 
L 271.796385 148.123375 
L 273.559238 147.295 
L 273.871664 146.466625 
L 274.616066 145.63825 
L 274.827124 144.809875 
L 278.781446 143.153125 
L 279.470003 142.32475 
L 279.73837 141.496375 
L 282.457251 140.668 
L 282.852244 139.839625 
L 288.24294 139.01125 
L 289.073083 138.182875 
L 291.033369 137.3545 
L 294.137887 136.526125 
L 294.162546 135.69775 
L 294.346877 134.869375 
L 296.10655 134.041 
L 299.390604 133.212625 
L 301.411425 132.38425 
L 301.593753 131.555875 
L 314.808185 129.899125 
L 318.607456 129.07075 
L 321.034505 127.414 
L 327.823295 126.585625 
L 327.926748 125.75725 
L 329.602284 124.928875 
L 330.684951 124.1005 
L 333.110782 123.272125 
L 333.219358 121.615375 
L 334.271223 120.787 
L 334.871092 119.958625 
L 341.893836 119.13025 
L 342.124928 118.301875 
L 342.928734 117.4735 
L 343.562468 116.645125 
L 344.74565 115.81675 
L 344.973732 114.988375 
L 347.079477 114.16 
L 347.7701 113.331625 
L 351.603508 112.50325 
L 352.568763 111.674875 
L 357.087333 110.8465 
L 357.206973 110.018125 
L 357.64801 109.18975 
L 359.775981 108.361375 
L 362.787759 106.704625 
L 366.402816 105.87625 
L 366.959382 105.047875 
L 369.57968 103.391125 
L 374.065173 102.56275 
L 374.243198 101.734375 
L 378.827442 100.906 
L 380.375604 100.077625 
L 380.532191 99.24925 
L 385.313049 98.420875 
L 386.592334 96.764125 
L 386.609299 95.93575 
L 388.59589 95.107375 
L 391.929586 94.279 
L 392.184632 93.450625 
L 394.064634 92.62225 
L 396.338316 91.793875 
L 399.661102 90.9655 
L 400.8326 89.30875 
L 401.197763 88.480375 
L 402.113058 87.652 
L 405.159098 85.99525 
L 405.195754 85.166875 
L 405.521038 84.3385 
L 408.707502 83.510125 
L 409.540743 82.68175 
L 409.549237 81.853375 
L 409.83498 81.025 
L 409.83498 81.025 
" clip-path="url(#pd3ae1db67e)" style="fill: none; stroke: #ff7f0e; stroke-width: 1.5; stroke-linecap: square"/>
   </g>
   <g id="line2d_33">
    <path d="M 52.611385 246.7 
L 52.611385 245.871625 
L 52.611385 246.7 
L 54.232931 246.7 
L 54.232931 245.871625 
L 54.232931 246.7 
L 56.499389 246.7 
L 56.499389 245.871625 
L 56.499389 246.7 
L 59.855239 246.7 
L 59.855239 245.871625 
L 59.855239 246.7 
L 61.521292 246.7 
L 61.521292 245.871625 
L 61.521292 246.7 
L 65.043059 246.7 
L 65.043059 245.871625 
L 65.043059 246.7 
L 66.463645 246.7 
L 66.463645 245.871625 
L 66.463645 246.7 
L 69.854432 246.7 
L 69.854432 245.871625 
L 69.854432 246.7 
L 70.848857 246.7 
L 70.848857 245.871625 
L 70.848857 246.7 
L 72.611967 246.7 
L 72.611967 245.871625 
L 72.611967 246.7 
L 74.485433 246.7 
L 74.485433 245.871625 
L 74.485433 246.7 
L 75.360898 246.7 
L 75.360898 245.871625 
L 75.360898 246.7 
L 76.399482 246.7 
L 76.399482 245.871625 
L 76.399482 246.7 
L 77.036795 246.7 
L 77.036795 245.871625 
L 77.036795 246.7 
L 81.049376 246.7 
L 81.049376 245.871625 
L 81.049376 246.7 
L 81.274952 246.7 
L 81.274952 245.871625 
L 81.410297 245.871625 
L 81.410297 246.7 
L 87.136843 246.7 
L 87.136843 245.871625 
L 87.136843 246.7 
L 87.71135 246.7 
L 87.71135 245.871625 
L 87.71135 246.7 
L 88.58406 246.7 
L 88.58406 245.871625 
L 88.58406 246.7 
L 89.756054 246.7 
L 89.756054 245.871625 
L 89.756054 246.7 
L 92.58729 246.7 
L 92.58729 245.871625 
L 92.58729 246.7 
L 95.60497 246.7 
L 95.60497 245.871625 
L 95.60497 246.7 
L 96.963249 246.7 
L 96.963249 245.871625 
L 96.963249 246.7 
L 98.143248 246.7 
L 98.143248 245.871625 
L 98.143248 246.7 
L 99.658092 246.7 
L 99.658092 245.871625 
L 99.658092 246.7 
L 100.558359 246.7 
L 100.558359 245.871625 
L 100.558359 246.7 
L 105.247179 246.7 
L 105.247179 245.871625 
L 105.247179 246.7 
L 108.51057 246.7 
L 108.51057 245.871625 
L 108.51057 246.7 
L 108.736146 246.7 
L 108.736146 245.871625 
L 108.871491 245.871625 
L 108.871491 246.7 
L 109.386279 246.7 
L 109.386279 245.871625 
L 109.386279 246.7 
L 109.611854 246.7 
L 109.611854 245.871625 
L 109.7472 245.871625 
L 109.7472 246.7 
L 111.435901 246.7 
L 111.435901 245.871625 
L 111.435901 246.7 
L 111.661476 246.7 
L 111.661476 245.871625 
L 111.796821 245.871625 
L 111.796821 246.7 
L 112.301522 246.7 
L 112.301522 245.871625 
L 112.301522 246.7 
L 115.52723 246.7 
L 115.52723 245.871625 
L 115.52723 246.7 
L 121.21204 246.7 
L 121.21204 245.871625 
L 121.21204 246.7 
L 123.929385 246.7 
L 123.929385 245.871625 
L 123.929385 246.7 
L 124.202297 246.7 
L 124.202297 245.871625 
L 124.290306 246.7 
L 127.884257 246.7 
L 127.884257 245.871625 
L 127.884257 246.7 
L 131.56726 246.7 
L 131.56726 245.871625 
L 131.56726 246.7 
L 138.506363 246.7 
L 138.506363 245.871625 
L 138.506363 246.7 
L 139.664395 246.7 
L 139.664395 245.871625 
L 139.664395 246.7 
L 142.561217 246.7 
L 142.561217 245.871625 
L 142.561217 246.7 
L 145.473852 246.7 
L 145.473852 245.871625 
L 145.473852 246.7 
L 146.590775 246.7 
L 146.590775 245.871625 
L 146.590775 246.7 
L 147.917095 246.7 
L 147.917095 245.871625 
L 147.917095 246.7 
L 150.653842 246.7 
L 150.653842 245.871625 
L 150.653842 246.7 
L 152.703762 246.7 
L 152.703762 245.871625 
L 152.703762 246.7 
L 152.930916 246.7 
L 152.930916 245.871625 
L 153.064683 245.871625 
L 153.064683 246.7 
L 155.232197 246.7 
L 155.232197 245.871625 
L 155.232197 246.7 
L 157.075478 246.7 
L 157.075478 245.871625 
L 157.075478 246.7 
L 158.649672 246.7 
L 158.649672 245.871625 
L 158.649672 246.7 
L 158.928898 246.7 
L 158.928898 245.871625 
L 159.010593 246.7 
L 160.31995 246.7 
L 160.31995 245.871625 
L 160.31995 246.7 
L 165.543233 246.7 
L 165.543233 245.871625 
L 165.543233 246.7 
L 168.108234 246.7 
L 168.108234 245.871625 
L 168.108234 246.7 
L 169.439721 246.7 
L 169.439721 245.871625 
L 169.439721 246.7 
L 169.665296 246.7 
L 169.665296 245.871625 
L 169.800641 245.871625 
L 169.800641 246.7 
L 170.608223 246.7 
L 170.608223 245.871625 
L 170.608223 246.7 
L 171.766228 246.7 
L 171.766228 245.871625 
L 171.766228 246.7 
L 172.320748 246.7 
L 172.320748 245.871625 
L 172.320748 246.7 
L 172.692863 246.7 
L 172.692863 245.871625 
L 172.692863 246.7 
L 175.378574 246.7 
L 175.378574 245.871625 
L 175.378574 246.7 
L 177.788245 246.7 
L 177.788245 245.871625 
L 177.788245 246.7 
L 178.887397 246.7 
L 178.887397 245.871625 
L 178.887397 246.7 
L 179.327808 246.7 
L 179.327808 245.871625 
L 179.327808 246.7 
L 180.84428 246.7 
L 180.84428 245.871625 
L 180.84428 246.7 
L 181.106449 246.7 
L 181.106449 245.871625 
L 181.205201 246.7 
L 181.332025 246.7 
L 181.332025 245.871625 
L 181.566122 245.871625 
L 181.566122 246.7 
L 181.847671 246.7 
L 181.847671 245.871625 
L 181.927043 246.7 
L 183.582584 246.7 
L 183.582584 245.871625 
L 183.582584 246.7 
L 183.875176 246.7 
L 183.875176 245.871625 
L 183.943504 246.7 
L 185.58413 246.7 
L 185.58413 245.871625 
L 185.58413 246.7 
L 186.037883 246.7 
L 186.037883 245.871625 
L 186.037883 246.7 
L 187.769488 246.7 
L 187.769488 245.871625 
L 187.769488 246.7 
L 188.65114 246.7 
L 188.65114 245.871625 
L 188.65114 246.7 
L 193.844638 246.7 
L 193.844638 245.871625 
L 193.844638 246.7 
L 198.047405 246.7 
L 198.047405 245.871625 
L 198.047405 246.7 
L 200.113928 246.7 
L 200.113928 245.871625 
L 200.113928 246.7 
L 201.192623 246.7 
L 201.192623 245.871625 
L 201.192623 246.7 
L 201.996607 246.7 
L 201.996607 245.871625 
L 201.996607 246.7 
L 203.710069 246.7 
L 203.710069 245.871625 
L 203.710069 246.7 
L 204.746873 246.7 
L 204.746873 245.871625 
L 204.746873 246.7 
L 208.945016 246.7 
L 208.945016 245.871625 
L 208.945016 246.7 
L 211.103517 246.7 
L 211.103517 245.871625 
L 211.103517 246.7 
L 211.329093 246.7 
L 211.329093 245.871625 
L 211.464438 245.871625 
L 211.464438 246.7 
L 211.554669 245.871625 
L 211.825359 245.871625 
L 211.825359 246.7 
L 217.720803 246.7 
L 217.720803 245.871625 
L 217.720803 246.7 
L 219.703906 246.7 
L 219.703906 245.871625 
L 219.703906 246.7 
L 221.614682 246.7 
L 221.614682 245.871625 
L 221.614682 246.7 
L 223.618871 246.7 
L 223.618871 245.871625 
L 223.618871 246.7 
L 223.957101 246.7 
L 223.957101 245.871625 
L 223.979792 246.7 
L 224.383361 246.7 
L 224.383361 245.871625 
L 224.383361 246.7 
L 225.183529 246.7 
L 225.183529 245.871625 
L 225.183529 246.7 
L 225.432617 246.7 
L 225.432617 245.871625 
L 225.54445 245.871625 
L 225.54445 246.7 
L 227.939289 246.7 
L 227.939289 245.871625 
L 227.939289 246.7 
L 228.623165 246.7 
L 228.623165 245.871625 
L 228.623165 246.7 
L 230.312386 246.7 
L 230.312386 245.871625 
L 230.312386 246.7 
L 231.128252 246.7 
L 231.128252 245.871625 
L 231.128252 246.7 
L 231.837664 246.7 
L 231.837664 245.871625 
L 231.837664 246.7 
L 233.361522 246.7 
L 233.361522 245.871625 
L 233.361522 246.7 
L 233.587098 246.7 
L 233.587098 245.871625 
L 233.722443 245.871625 
L 233.722443 246.7 
L 234.474074 246.7 
L 234.474074 245.871625 
L 234.474074 246.7 
L 236.289273 246.7 
L 236.289273 245.871625 
L 236.289273 246.7 
L 244.327878 246.7 
L 244.327878 245.871625 
L 244.327878 246.7 
L 250.089883 246.7 
L 250.089883 245.871625 
L 250.089883 246.7 
L 250.315458 246.7 
L 250.315458 245.871625 
L 250.450804 245.871625 
L 250.450804 246.7 
L 252.19308 246.7 
L 252.19308 245.871625 
L 252.19308 246.7 
L 252.615901 246.7 
L 252.615901 245.871625 
L 252.615901 246.7 
L 254.434977 246.7 
L 254.434977 245.871625 
L 254.434977 246.7 
L 254.752432 246.7 
L 254.752432 245.871625 
L 254.795898 246.7 
L 264.425292 246.7 
L 264.425292 245.871625 
L 264.425292 246.7 
L 266.335903 246.7 
L 266.335903 245.871625 
L 266.335903 246.7 
L 267.909367 246.7 
L 267.909367 245.871625 
L 267.909367 246.7 
L 268.436456 246.7 
L 268.436456 245.871625 
L 268.436456 246.7 
L 269.402036 246.7 
L 269.402036 245.871625 
L 269.402036 246.7 
L 270.535223 246.7 
L 270.535223 245.871625 
L 270.535223 246.7 
L 271.696992 246.7 
L 271.696992 245.871625 
L 271.696992 246.7 
L 272.202782 246.7 
L 272.202782 245.871625 
L 272.202782 246.7 
L 273.965635 246.7 
L 273.965635 245.871625 
L 273.965635 246.7 
L 274.278061 246.7 
L 274.278061 245.871625 
L 274.326556 246.7 
L 275.022463 246.7 
L 275.022463 245.871625 
L 275.022463 246.7 
L 275.248038 246.7 
L 275.248038 245.871625 
L 275.383384 245.871625 
L 275.383384 246.7 
L 277.260395 246.7 
L 277.260395 245.871625 
L 277.260395 246.7 
L 279.187843 246.7 
L 279.187843 245.871625 
L 279.187843 246.7 
L 279.8764 246.7 
L 279.8764 245.871625 
L 279.8764 246.7 
L 280.144767 246.7 
L 280.144767 245.871625 
L 280.237321 246.7 
L 282.863648 246.7 
L 282.863648 245.871625 
L 282.863648 246.7 
L 283.258641 246.7 
L 283.258641 245.871625 
L 283.258641 246.7 
L 288.649336 246.7 
L 288.649336 245.871625 
L 288.649336 246.7 
L 289.47948 246.7 
L 289.47948 245.871625 
L 289.47948 246.7 
L 291.439766 246.7 
L 291.439766 245.871625 
L 291.439766 246.7 
L 294.544284 246.7 
L 294.544284 245.871625 
L 294.544284 246.7 
L 294.76986 246.7 
L 294.76986 245.871625 
L 294.905205 245.871625 
L 294.905205 246.7 
L 294.995435 245.871625 
L 295.266126 245.871625 
L 295.266126 246.7 
L 296.512947 246.7 
L 296.512947 245.871625 
L 296.512947 246.7 
L 299.797 246.7 
L 299.797 245.871625 
L 299.797 246.7 
L 301.817822 246.7 
L 301.817822 245.871625 
L 301.817822 246.7 
L 302.043398 246.7 
L 302.043398 245.871625 
L 302.178743 245.871625 
L 302.178743 246.7 
L 308.449063 246.7 
L 308.449063 245.871625 
L 308.449063 246.7 
L 315.214581 246.7 
L 315.214581 245.871625 
L 315.214581 246.7 
L 319.013853 246.7 
L 319.013853 245.871625 
L 319.013853 246.7 
L 320.154971 246.7 
L 320.154971 245.871625 
L 320.154971 246.7 
L 321.440902 246.7 
L 321.440902 245.871625 
L 321.440902 246.7 
L 328.229692 246.7 
L 328.229692 245.871625 
L 328.229692 246.7 
L 328.455268 246.7 
L 328.455268 245.871625 
L 328.590613 245.871625 
L 328.590613 246.7 
L 330.008681 246.7 
L 330.008681 245.871625 
L 330.008681 246.7 
L 331.091348 246.7 
L 331.091348 245.871625 
L 331.091348 246.7 
L 333.517179 246.7 
L 333.517179 245.871625 
L 333.517179 246.7 
L 333.742754 246.7 
L 333.742754 245.871625 
L 333.8781 245.871625 
L 333.8781 246.7 
L 333.96833 245.871625 
L 334.23902 245.871625 
L 334.23902 246.7 
L 334.67762 246.7 
L 334.67762 245.871625 
L 334.67762 246.7 
L 335.277489 246.7 
L 335.277489 245.871625 
L 335.277489 246.7 
L 342.300233 246.7 
L 342.300233 245.871625 
L 342.300233 246.7 
L 342.531325 246.7 
L 342.531325 245.871625 
L 342.661154 245.871625 
L 342.661154 246.7 
L 343.335131 246.7 
L 343.335131 245.871625 
L 343.335131 246.7 
L 343.968865 246.7 
L 343.968865 245.871625 
L 343.968865 246.7 
L 345.152047 246.7 
L 345.152047 245.871625 
L 345.152047 246.7 
L 345.380128 246.7 
L 345.380128 245.871625 
L 345.512968 245.871625 
L 345.512968 246.7 
L 347.485873 246.7 
L 347.485873 245.871625 
L 347.485873 246.7 
L 348.176497 246.7 
L 348.176497 245.871625 
L 348.176497 246.7 
L 352.009905 246.7 
L 352.009905 245.871625 
L 352.009905 246.7 
L 352.97516 246.7 
L 352.97516 245.871625 
L 352.97516 246.7 
L 357.49373 246.7 
L 357.49373 245.871625 
L 357.49373 246.7 
L 357.719305 246.7 
L 357.719305 245.871625 
L 357.85465 245.871625 
L 357.85465 246.7 
L 358.054407 246.7 
L 358.054407 245.871625 
L 358.215571 245.871625 
L 358.215571 246.7 
L 360.182378 246.7 
L 360.182378 245.871625 
L 360.182378 246.7 
L 361.685331 246.7 
L 361.685331 245.871625 
L 361.685331 246.7 
L 363.194156 246.7 
L 363.194156 245.871625 
L 363.194156 246.7 
L 366.809212 246.7 
L 366.809212 245.871625 
L 366.809212 246.7 
L 367.365779 246.7 
L 367.365779 245.871625 
L 367.365779 246.7 
L 368.6493 246.7 
L 368.6493 245.871625 
L 368.6493 246.7 
L 369.986077 246.7 
L 369.986077 245.871625 
L 369.986077 246.7 
L 374.47157 246.7 
L 374.47157 245.871625 
L 374.47157 246.7 
L 374.697145 246.7 
L 374.697145 245.871625 
L 374.832491 245.871625 
L 374.832491 246.7 
L 379.233839 246.7 
L 379.233839 245.871625 
L 379.233839 246.7 
L 380.782001 246.7 
L 380.782001 245.871625 
L 380.782001 246.7 
L 381.007577 246.7 
L 381.007577 245.871625 
L 381.142922 245.871625 
L 381.142922 246.7 
L 385.719446 246.7 
L 385.719446 245.871625 
L 385.719446 246.7 
L 386.306557 246.7 
L 386.306557 245.871625 
L 386.306557 246.7 
L 386.998731 246.7 
L 386.998731 245.871625 
L 386.998731 246.7 
L 387.224307 246.7 
L 387.224307 245.871625 
L 387.359652 245.871625 
L 387.359652 246.7 
L 389.002287 246.7 
L 389.002287 245.871625 
L 389.002287 246.7 
L 392.335983 246.7 
L 392.335983 245.871625 
L 392.335983 246.7 
L 392.591029 246.7 
L 392.591029 245.871625 
L 392.696904 246.7 
L 394.471031 246.7 
L 394.471031 245.871625 
L 394.471031 246.7 
L 396.744713 246.7 
L 396.744713 245.871625 
L 396.744713 246.7 
L 400.067499 246.7 
L 400.067499 245.871625 
L 400.067499 246.7 
L 400.684049 246.7 
L 400.684049 245.871625 
L 400.684049 246.7 
L 401.238997 246.7 
L 401.238997 245.871625 
L 401.238997 246.7 
L 401.60416 246.7 
L 401.60416 245.871625 
L 401.60416 246.7 
L 402.519455 246.7 
L 402.519455 245.871625 
L 402.519455 246.7 
L 404.113154 246.7 
L 404.113154 245.871625 
L 404.113154 246.7 
L 405.565495 246.7 
L 405.565495 245.871625 
L 405.565495 246.7 
L 405.79107 246.7 
L 405.79107 245.871625 
L 405.926416 245.871625 
L 405.926416 246.7 
L 406.016646 245.871625 
L 406.287336 245.871625 
L 406.287336 246.7 
L 409.113899 246.7 
L 409.113899 245.871625 
L 409.113899 246.7 
L 409.94714 246.7 
L 409.94714 245.871625 
L 409.94714 246.7 
L 410.172716 246.7 
L 410.172716 245.871625 
L 410.308061 245.871625 
L 410.308061 246.7 
L 410.398291 245.871625 
L 410.668982 245.871625 
L 410.668982 246.7 
L 411.029903 246.7 
L 411.029903 246.7 
" clip-path="url(#pd3ae1db67e)" style="fill: none; stroke: #2ca02c; stroke-width: 1.5; stroke-linecap: square"/>
   </g>
   <g id="line2d_34">
    <path d="M 52.204989 246.7 
L 52.204989 245.871625 
L 52.204989 246.7 
L 53.826535 246.7 
L 53.826535 245.871625 
L 53.826535 246.7 
L 56.092993 246.7 
L 56.092993 245.871625 
L 56.092993 246.7 
L 59.448842 246.7 
L 59.448842 245.871625 
L 59.448842 246.7 
L 61.114895 246.7 
L 61.114895 245.871625 
L 61.114895 246.7 
L 64.636662 246.7 
L 64.636662 245.871625 
L 64.636662 246.7 
L 66.057249 246.7 
L 66.057249 245.871625 
L 66.057249 246.7 
L 69.448035 246.7 
L 69.448035 245.871625 
L 69.448035 246.7 
L 70.44246 246.7 
L 70.44246 245.871625 
L 70.44246 246.7 
L 72.20557 246.7 
L 72.20557 245.871625 
L 72.20557 246.7 
L 74.079036 246.7 
L 74.079036 245.871625 
L 74.079036 246.7 
L 74.954501 246.7 
L 74.954501 245.871625 
L 74.954501 246.7 
L 75.993085 246.7 
L 75.993085 245.871625 
L 75.993085 246.7 
L 76.630398 246.7 
L 76.630398 245.871625 
L 76.630398 246.7 
L 80.64298 246.7 
L 80.64298 245.871625 
L 80.748341 245.871625 
L 80.82344 245.871625 
L 80.82344 246.7 
L 86.730446 246.7 
L 86.730446 245.871625 
L 86.730446 246.7 
L 87.304953 246.7 
L 87.304953 245.871625 
L 87.304953 246.7 
L 88.177663 246.7 
L 88.177663 245.871625 
L 88.177663 246.7 
L 89.349657 246.7 
L 89.349657 245.871625 
L 89.349657 246.7 
L 92.180893 246.7 
L 92.180893 245.871625 
L 92.180893 246.7 
L 95.198573 246.7 
L 95.198573 245.871625 
L 95.198573 246.7 
L 96.556852 246.7 
L 96.556852 245.871625 
L 96.556852 246.7 
L 97.736851 246.7 
L 97.736851 245.871625 
L 97.736851 246.7 
L 99.251695 246.7 
L 99.251695 245.871625 
L 99.251695 246.7 
L 100.151962 246.7 
L 100.151962 245.871625 
L 100.151962 246.7 
L 104.840783 246.7 
L 104.840783 245.871625 
L 104.840783 246.7 
L 108.104174 246.7 
L 108.104174 245.871625 
L 108.104174 246.7 
L 108.237146 246.7 
L 108.237146 245.871625 
L 108.284634 246.7 
L 108.979882 246.7 
L 108.979882 245.871625 
L 108.979882 246.7 
L 109.144391 246.7 
L 109.144391 245.871625 
L 109.160342 246.7 
L 111.029504 246.7 
L 111.029504 245.871625 
L 111.066364 245.871625 
L 111.209964 245.871625 
L 111.209964 246.7 
L 111.895125 246.7 
L 111.895125 245.871625 
L 111.895125 246.7 
L 115.120833 246.7 
L 115.120833 245.871625 
L 115.120833 246.7 
L 120.805643 246.7 
L 120.805643 245.871625 
L 120.805643 246.7 
L 123.522988 246.7 
L 123.522988 245.871625 
L 123.522988 246.7 
L 123.7959 246.7 
L 123.7959 245.871625 
L 123.7959 246.7 
L 127.47786 246.7 
L 127.47786 245.871625 
L 127.47786 246.7 
L 131.160863 246.7 
L 131.160863 245.871625 
L 131.160863 246.7 
L 138.099967 246.7 
L 138.099967 245.871625 
L 138.099967 246.7 
L 139.257998 246.7 
L 139.257998 245.871625 
L 139.257998 246.7 
L 142.15482 246.7 
L 142.15482 245.871625 
L 142.15482 246.7 
L 145.067455 246.7 
L 145.067455 245.871625 
L 145.067455 246.7 
L 146.184378 246.7 
L 146.184378 245.871625 
L 146.184378 246.7 
L 147.510698 246.7 
L 147.510698 245.871625 
L 147.510698 246.7 
L 150.247445 246.7 
L 150.247445 245.871625 
L 150.247445 246.7 
L 152.297366 246.7 
L 152.297366 245.871625 
L 152.297366 246.7 
L 152.524519 246.7 
L 152.524519 245.871625 
L 152.524519 246.7 
L 154.8258 246.7 
L 154.8258 245.871625 
L 154.8258 246.7 
L 156.669081 246.7 
L 156.669081 245.871625 
L 156.669081 246.7 
L 158.243275 246.7 
L 158.243275 245.871625 
L 158.243275 246.7 
L 158.522501 246.7 
L 158.522501 245.871625 
L 158.522501 246.7 
L 159.913553 246.7 
L 159.913553 245.871625 
L 159.913553 246.7 
L 165.136836 246.7 
L 165.136836 245.871625 
L 165.136836 246.7 
L 167.701837 246.7 
L 167.701837 245.871625 
L 167.701837 246.7 
L 169.033324 246.7 
L 169.033324 245.871625 
L 169.033324 246.7 
L 169.235342 246.7 
L 169.235342 245.871625 
L 169.235342 246.7 
L 170.201826 246.7 
L 170.201826 245.871625 
L 170.201826 246.7 
L 171.359831 246.7 
L 171.359831 245.871625 
L 171.359831 246.7 
L 171.914351 246.7 
L 171.914351 245.871625 
L 171.914351 246.7 
L 172.286466 246.7 
L 172.286466 245.871625 
L 172.286466 246.7 
L 174.972177 246.7 
L 174.972177 245.871625 
L 174.972177 246.7 
L 177.381848 246.7 
L 177.381848 245.871625 
L 177.381848 246.7 
L 178.481 246.7 
L 178.481 245.871625 
L 178.481 246.7 
L 178.921411 246.7 
L 178.921411 245.871625 
L 178.921411 246.7 
L 180.437883 246.7 
L 180.437883 245.871625 
L 180.437883 246.7 
L 180.700052 246.7 
L 180.700052 245.871625 
L 180.734283 245.871625 
L 180.880513 245.871625 
L 180.880513 246.7 
L 181.441274 246.7 
L 181.441274 245.871625 
L 181.441274 246.7 
L 183.176187 246.7 
L 183.176187 245.871625 
L 183.176187 246.7 
L 183.468779 246.7 
L 183.468779 245.871625 
L 183.468779 246.7 
L 185.177733 246.7 
L 185.177733 245.871625 
L 185.177733 246.7 
L 185.631486 246.7 
L 185.631486 245.871625 
L 185.631486 246.7 
L 187.363091 246.7 
L 187.363091 245.871625 
L 187.363091 246.7 
L 188.244743 246.7 
L 188.244743 245.871625 
L 188.244743 246.7 
L 193.438241 246.7 
L 193.438241 245.871625 
L 193.438241 246.7 
L 197.641008 246.7 
L 197.641008 245.871625 
L 197.641008 246.7 
L 199.707531 246.7 
L 199.707531 245.871625 
L 199.707531 246.7 
L 200.786226 246.7 
L 200.786226 245.871625 
L 200.786226 246.7 
L 201.59021 246.7 
L 201.59021 245.871625 
L 201.59021 246.7 
L 203.303672 246.7 
L 203.303672 245.871625 
L 203.303672 246.7 
L 204.340476 246.7 
L 204.340476 245.871625 
L 204.340476 246.7 
L 208.538619 246.7 
L 208.538619 245.871625 
L 208.538619 246.7 
L 210.697121 246.7 
L 210.697121 245.871625 
L 210.697121 246.7 
L 210.885812 246.7 
L 210.885812 245.871625 
L 210.885812 246.7 
L 210.997906 246.7 
L 210.997906 245.871625 
L 211.066273 246.7 
L 217.314406 246.7 
L 217.314406 245.871625 
L 217.314406 246.7 
L 219.297509 246.7 
L 219.297509 245.871625 
L 219.297509 246.7 
L 221.208285 246.7 
L 221.208285 245.871625 
L 221.208285 246.7 
L 223.212474 246.7 
L 223.212474 245.871625 
L 223.212474 246.7 
L 223.550704 246.7 
L 223.550704 245.871625 
L 223.550704 246.7 
L 223.976964 246.7 
L 223.976964 245.871625 
L 223.976964 246.7 
L 224.777133 246.7 
L 224.777133 245.871625 
L 224.777133 246.7 
L 225.02622 246.7 
L 225.02622 245.871625 
L 225.02622 246.7 
L 227.532892 246.7 
L 227.532892 245.871625 
L 227.532892 246.7 
L 228.216769 246.7 
L 228.216769 245.871625 
L 228.216769 246.7 
L 229.905989 246.7 
L 229.905989 245.871625 
L 229.905989 246.7 
L 230.721855 246.7 
L 230.721855 245.871625 
L 230.721855 246.7 
L 231.431267 246.7 
L 231.431267 245.871625 
L 231.431267 246.7 
L 232.955125 246.7 
L 232.955125 245.871625 
L 233.025835 245.871625 
L 233.135586 245.871625 
L 233.135586 246.7 
L 234.067677 246.7 
L 234.067677 245.871625 
L 234.067677 246.7 
L 235.882877 246.7 
L 235.882877 245.871625 
L 235.882877 246.7 
L 243.921481 246.7 
L 243.921481 245.871625 
L 243.921481 246.7 
L 249.683486 246.7 
L 249.683486 245.871625 
L 249.683486 246.7 
L 249.877725 246.7 
L 249.877725 245.871625 
L 249.877725 246.7 
L 251.786683 246.7 
L 251.786683 245.871625 
L 251.786683 246.7 
L 252.209504 246.7 
L 252.209504 245.871625 
L 252.209504 246.7 
L 254.02858 246.7 
L 254.02858 245.871625 
L 254.02858 246.7 
L 254.346035 246.7 
L 254.346035 245.871625 
L 254.346035 246.7 
L 264.018895 246.7 
L 264.018895 245.871625 
L 264.018895 246.7 
L 265.929507 246.7 
L 265.929507 245.871625 
L 265.929507 246.7 
L 267.50297 246.7 
L 267.50297 245.871625 
L 267.50297 246.7 
L 268.030059 246.7 
L 268.030059 245.871625 
L 268.030059 246.7 
L 268.99564 246.7 
L 268.99564 245.871625 
L 268.99564 246.7 
L 270.128826 246.7 
L 270.128826 245.871625 
L 270.128826 246.7 
L 271.290596 246.7 
L 271.290596 245.871625 
L 271.290596 246.7 
L 271.796385 246.7 
L 271.796385 245.871625 
L 271.796385 246.7 
L 273.559238 246.7 
L 273.559238 245.871625 
L 273.559238 246.7 
L 273.871664 246.7 
L 273.871664 245.871625 
L 273.871664 246.7 
L 274.616066 246.7 
L 274.616066 245.871625 
L 274.616066 246.7 
L 274.827124 246.7 
L 274.827124 245.871625 
L 274.827124 246.7 
L 276.853998 246.7 
L 276.853998 245.871625 
L 276.853998 246.7 
L 278.781446 246.7 
L 278.781446 245.871625 
L 278.781446 246.7 
L 279.470003 246.7 
L 279.470003 245.871625 
L 279.470003 246.7 
L 279.73837 246.7 
L 279.73837 245.871625 
L 279.73837 246.7 
L 282.457251 246.7 
L 282.457251 245.871625 
L 282.457251 246.7 
L 282.852244 246.7 
L 282.852244 245.871625 
L 282.852244 246.7 
L 288.24294 246.7 
L 288.24294 245.871625 
L 288.24294 246.7 
L 289.073083 246.7 
L 289.073083 245.871625 
L 289.073083 246.7 
L 291.033369 246.7 
L 291.033369 245.871625 
L 291.033369 246.7 
L 294.137887 246.7 
L 294.137887 245.871625 
L 294.162546 245.871625 
L 294.318348 245.871625 
L 294.318348 246.7 
L 294.346877 245.871625 
L 294.498808 245.871625 
L 294.498808 246.7 
L 296.10655 246.7 
L 296.10655 245.871625 
L 296.10655 246.7 
L 299.390604 246.7 
L 299.390604 245.871625 
L 299.390604 246.7 
L 301.411425 246.7 
L 301.411425 245.871625 
L 301.411425 246.7 
L 301.593753 246.7 
L 301.593753 245.871625 
L 301.593753 246.7 
L 308.042666 246.7 
L 308.042666 245.871625 
L 308.042666 246.7 
L 314.808185 246.7 
L 314.808185 245.871625 
L 314.808185 246.7 
L 318.607456 246.7 
L 318.607456 245.871625 
L 318.607456 246.7 
L 319.748574 246.7 
L 319.748574 245.871625 
L 319.748574 246.7 
L 321.034505 246.7 
L 321.034505 245.871625 
L 321.034505 246.7 
L 327.823295 246.7 
L 327.823295 245.871625 
L 327.926748 245.871625 
L 328.003756 245.871625 
L 328.003756 246.7 
L 329.602284 246.7 
L 329.602284 245.871625 
L 329.602284 246.7 
L 330.684951 246.7 
L 330.684951 245.871625 
L 330.684951 246.7 
L 333.110782 246.7 
L 333.219358 245.04325 
L 333.291242 245.04325 
L 333.291242 245.871625 
L 333.471703 245.871625 
L 333.471703 246.7 
L 334.271223 246.7 
L 334.271223 245.871625 
L 334.271223 246.7 
L 334.871092 246.7 
L 334.871092 245.871625 
L 334.871092 246.7 
L 341.893836 246.7 
L 341.893836 245.871625 
L 341.893836 246.7 
L 342.124928 246.7 
L 342.124928 245.871625 
L 342.124928 246.7 
L 342.928734 246.7 
L 342.928734 245.871625 
L 342.928734 246.7 
L 343.562468 246.7 
L 343.562468 245.871625 
L 343.562468 246.7 
L 344.74565 246.7 
L 344.74565 245.871625 
L 344.74565 246.7 
L 344.973732 246.7 
L 344.973732 245.871625 
L 344.973732 246.7 
L 347.079477 246.7 
L 347.079477 245.871625 
L 347.079477 246.7 
L 347.7701 246.7 
L 347.7701 245.871625 
L 347.7701 246.7 
L 351.603508 246.7 
L 351.603508 245.871625 
L 351.603508 246.7 
L 352.568763 246.7 
L 352.568763 245.871625 
L 352.568763 246.7 
L 357.087333 246.7 
L 357.087333 245.871625 
L 357.087333 246.7 
L 357.206973 246.7 
L 357.206973 245.871625 
L 357.267793 246.7 
L 357.64801 246.7 
L 357.64801 245.871625 
L 357.64801 246.7 
L 359.775981 246.7 
L 359.775981 245.871625 
L 359.775981 246.7 
L 361.278934 246.7 
L 361.278934 245.871625 
L 361.278934 246.7 
L 362.787759 246.7 
L 362.787759 245.871625 
L 362.787759 246.7 
L 366.402816 246.7 
L 366.402816 245.871625 
L 366.402816 246.7 
L 366.959382 246.7 
L 366.959382 245.871625 
L 366.959382 246.7 
L 368.242903 246.7 
L 368.242903 245.871625 
L 368.242903 246.7 
L 369.57968 246.7 
L 369.57968 245.871625 
L 369.57968 246.7 
L 374.065173 246.7 
L 374.065173 245.871625 
L 374.065173 246.7 
L 374.243198 246.7 
L 374.243198 245.871625 
L 374.245633 246.7 
L 378.827442 246.7 
L 378.827442 245.871625 
L 378.827442 246.7 
L 380.375604 246.7 
L 380.375604 245.871625 
L 380.375604 246.7 
L 380.532191 246.7 
L 380.532191 245.871625 
L 380.556065 246.7 
L 385.313049 246.7 
L 385.313049 245.871625 
L 385.313049 246.7 
L 385.90016 246.7 
L 385.90016 245.871625 
L 385.90016 246.7 
L 386.592334 246.7 
L 386.592334 245.871625 
L 386.609299 245.871625 
L 386.772795 245.871625 
L 386.772795 246.7 
L 388.59589 246.7 
L 388.59589 245.871625 
L 388.59589 246.7 
L 391.929586 246.7 
L 391.929586 245.871625 
L 391.929586 246.7 
L 392.184632 246.7 
L 392.184632 245.871625 
L 392.184632 246.7 
L 394.064634 246.7 
L 394.064634 245.871625 
L 394.064634 246.7 
L 396.338316 246.7 
L 396.338316 245.871625 
L 396.338316 246.7 
L 399.661102 246.7 
L 399.661102 245.871625 
L 399.661102 246.7 
L 400.277653 246.7 
L 400.277653 245.871625 
L 400.277653 246.7 
L 400.8326 246.7 
L 400.8326 245.871625 
L 400.8326 246.7 
L 401.197763 246.7 
L 401.197763 245.871625 
L 401.197763 246.7 
L 402.113058 246.7 
L 402.113058 245.871625 
L 402.113058 246.7 
L 403.706757 246.7 
L 403.706757 245.871625 
L 403.706757 246.7 
L 405.159098 246.7 
L 405.159098 245.871625 
L 405.195754 245.871625 
L 405.339558 245.871625 
L 405.339558 246.7 
L 405.521038 246.7 
L 405.521038 245.871625 
L 405.521038 246.7 
L 408.707502 246.7 
L 408.707502 245.871625 
L 408.707502 246.7 
L 409.540743 246.7 
L 409.540743 245.871625 
L 409.549237 245.871625 
L 409.721204 245.871625 
L 409.721204 246.7 
L 409.83498 246.7 
L 409.83498 245.871625 
L 409.901664 246.7 
L 410.082125 246.7 
L 410.082125 246.7 
" clip-path="url(#pd3ae1db67e)" style="fill: none; stroke: #d62728; stroke-width: 1.5; stroke-linecap: square"/>
   </g>
   <g id="line2d_35">
    <path d="M 52.385629 246.7 
L 52.385629 245.871625 
L 52.385629 246.7 
L 54.007175 246.7 
L 54.007175 245.871625 
L 54.007175 246.7 
L 56.273633 246.7 
L 56.273633 245.871625 
L 56.273633 246.7 
L 59.629483 246.7 
L 59.629483 245.871625 
L 59.629483 246.7 
L 61.295536 246.7 
L 61.295536 245.871625 
L 61.295536 246.7 
L 64.817303 246.7 
L 64.817303 245.871625 
L 64.817303 246.7 
L 66.237889 246.7 
L 66.237889 245.871625 
L 66.237889 246.7 
L 69.628676 246.7 
L 69.628676 245.871625 
L 69.628676 246.7 
L 70.623101 246.7 
L 70.623101 245.871625 
L 70.623101 246.7 
L 72.386211 246.7 
L 72.386211 245.871625 
L 72.386211 246.7 
L 74.259677 246.7 
L 74.259677 245.871625 
L 74.259677 246.7 
L 75.135142 246.7 
L 75.135142 245.871625 
L 75.135142 246.7 
L 76.173726 246.7 
L 76.173726 245.871625 
L 76.173726 246.7 
L 76.811039 246.7 
L 76.811039 245.871625 
L 76.811039 246.7 
L 80.82362 246.7 
L 80.82362 245.871625 
L 80.82362 246.7 
L 81.004081 246.7 
L 81.004081 245.871625 
L 81.049196 246.7 
L 86.911087 246.7 
L 86.911087 245.871625 
L 86.911087 246.7 
L 87.485594 246.7 
L 87.485594 245.871625 
L 87.485594 246.7 
L 88.358304 246.7 
L 88.358304 245.871625 
L 88.358304 246.7 
L 89.530298 246.7 
L 89.530298 245.871625 
L 89.530298 246.7 
L 92.361534 246.7 
L 92.361534 245.871625 
L 92.361534 246.7 
L 95.379214 246.7 
L 95.379214 245.871625 
L 95.379214 246.7 
L 96.737493 246.7 
L 96.737493 245.871625 
L 96.737493 246.7 
L 97.917492 246.7 
L 97.917492 245.871625 
L 97.917492 246.7 
L 99.432336 246.7 
L 99.432336 245.871625 
L 99.432336 246.7 
L 100.332603 246.7 
L 100.332603 245.871625 
L 100.332603 246.7 
L 105.021423 246.7 
L 105.021423 245.871625 
L 105.021423 246.7 
L 108.284814 246.7 
L 108.284814 245.871625 
L 108.284814 246.7 
L 108.465275 246.7 
L 108.465275 245.871625 
L 108.51039 246.7 
L 109.160523 246.7 
L 109.160523 245.871625 
L 109.160523 246.7 
L 109.340983 246.7 
L 109.340983 245.871625 
L 109.386098 246.7 
L 111.210145 246.7 
L 111.210145 245.871625 
L 111.210145 246.7 
L 111.390605 246.7 
L 111.390605 245.871625 
L 111.43572 246.7 
L 112.075766 246.7 
L 112.075766 245.871625 
L 112.075766 246.7 
L 115.301474 246.7 
L 115.301474 245.871625 
L 115.301474 246.7 
L 120.986284 246.7 
L 120.986284 245.871625 
L 120.986284 246.7 
L 123.703629 246.7 
L 123.703629 245.871625 
L 123.703629 246.7 
L 123.976541 246.7 
L 123.976541 245.871625 
L 123.976541 246.7 
L 127.658501 246.7 
L 127.658501 245.871625 
L 127.658501 246.7 
L 131.341504 246.7 
L 131.341504 245.871625 
L 131.341504 246.7 
L 138.280607 246.7 
L 138.280607 245.871625 
L 138.280607 246.7 
L 139.438639 246.7 
L 139.438639 245.871625 
L 139.438639 246.7 
L 142.335461 246.7 
L 142.335461 245.871625 
L 142.335461 246.7 
L 145.248096 246.7 
L 145.248096 245.871625 
L 145.248096 246.7 
L 146.365019 246.7 
L 146.365019 245.871625 
L 146.365019 246.7 
L 147.691339 246.7 
L 147.691339 245.871625 
L 147.691339 246.7 
L 150.428086 246.7 
L 150.428086 245.871625 
L 150.428086 246.7 
L 152.478006 246.7 
L 152.478006 245.871625 
L 152.478006 246.7 
L 152.70516 246.7 
L 152.70516 245.871625 
L 152.70516 246.7 
L 155.006441 246.7 
L 155.006441 245.871625 
L 155.006441 246.7 
L 156.849722 246.7 
L 156.849722 245.871625 
L 156.849722 246.7 
L 158.423916 246.7 
L 158.423916 245.871625 
L 158.423916 246.7 
L 158.703142 246.7 
L 158.703142 245.871625 
L 158.703142 246.7 
L 160.094194 246.7 
L 160.094194 245.871625 
L 160.094194 246.7 
L 165.317477 246.7 
L 165.317477 245.871625 
L 165.317477 246.7 
L 167.882478 246.7 
L 167.882478 245.871625 
L 167.882478 246.7 
L 169.213965 246.7 
L 169.213965 245.871625 
L 169.213965 246.7 
L 169.415983 246.7 
L 169.415983 245.871625 
L 169.43954 246.7 
L 170.382467 246.7 
L 170.382467 245.871625 
L 170.382467 246.7 
L 171.540472 246.7 
L 171.540472 245.871625 
L 171.540472 246.7 
L 172.094992 246.7 
L 172.094992 245.871625 
L 172.094992 246.7 
L 172.467107 246.7 
L 172.467107 245.871625 
L 172.467107 246.7 
L 175.152818 246.7 
L 175.152818 245.871625 
L 175.152818 246.7 
L 177.562489 246.7 
L 177.562489 245.871625 
L 177.562489 246.7 
L 178.661641 246.7 
L 178.661641 245.871625 
L 178.661641 246.7 
L 179.102052 246.7 
L 179.102052 245.871625 
L 179.102052 246.7 
L 180.618524 246.7 
L 180.618524 245.871625 
L 180.618524 246.7 
L 180.880693 246.7 
L 180.880693 245.871625 
L 180.880693 246.7 
L 181.061154 246.7 
L 181.061154 245.871625 
L 181.106269 246.7 
L 181.621915 246.7 
L 181.621915 245.871625 
L 181.621915 246.7 
L 183.356828 246.7 
L 183.356828 245.871625 
L 183.356828 246.7 
L 183.64942 246.7 
L 183.64942 245.871625 
L 183.64942 246.7 
L 185.358374 246.7 
L 185.358374 245.871625 
L 185.358374 246.7 
L 185.812127 246.7 
L 185.812127 245.871625 
L 185.812127 246.7 
L 187.543732 246.7 
L 187.543732 245.871625 
L 187.543732 246.7 
L 188.425384 246.7 
L 188.425384 245.871625 
L 188.425384 246.7 
L 193.618882 246.7 
L 193.618882 245.871625 
L 193.618882 246.7 
L 197.821649 246.7 
L 197.821649 245.871625 
L 197.821649 246.7 
L 199.888172 246.7 
L 199.888172 245.871625 
L 199.888172 246.7 
L 200.966867 246.7 
L 200.966867 245.871625 
L 200.966867 246.7 
L 201.770851 246.7 
L 201.770851 245.871625 
L 201.770851 246.7 
L 203.484313 246.7 
L 203.484313 245.871625 
L 203.484313 246.7 
L 204.521117 246.7 
L 204.521117 245.871625 
L 204.521117 246.7 
L 208.71926 246.7 
L 208.71926 245.871625 
L 208.71926 246.7 
L 210.877761 246.7 
L 210.877761 245.871625 
L 210.877761 246.7 
L 211.066453 246.7 
L 211.066453 245.871625 
L 211.103337 246.7 
L 211.246914 246.7 
L 211.246914 245.871625 
L 211.328913 246.7 
L 217.495047 246.7 
L 217.495047 245.871625 
L 217.495047 246.7 
L 219.47815 246.7 
L 219.47815 245.871625 
L 219.47815 246.7 
L 221.388926 246.7 
L 221.388926 245.871625 
L 221.388926 246.7 
L 223.393115 246.7 
L 223.393115 245.871625 
L 223.393115 246.7 
L 223.731345 246.7 
L 223.731345 245.871625 
L 223.731345 246.7 
L 224.157605 246.7 
L 224.157605 245.871625 
L 224.157605 246.7 
L 224.957773 246.7 
L 224.957773 245.871625 
L 224.957773 246.7 
L 225.206861 246.7 
L 225.206861 245.871625 
L 225.206861 246.7 
L 227.713533 246.7 
L 227.713533 245.871625 
L 227.713533 246.7 
L 228.397409 246.7 
L 228.397409 245.871625 
L 228.397409 246.7 
L 230.08663 246.7 
L 230.08663 245.871625 
L 230.08663 246.7 
L 230.902496 246.7 
L 230.902496 245.871625 
L 230.902496 246.7 
L 231.611908 246.7 
L 231.611908 245.871625 
L 231.611908 246.7 
L 233.135766 246.7 
L 233.135766 245.871625 
L 233.135766 246.7 
L 233.316227 246.7 
L 233.316227 245.871625 
L 233.361342 246.7 
L 234.248318 246.7 
L 234.248318 245.871625 
L 234.248318 246.7 
L 236.063517 246.7 
L 236.063517 245.871625 
L 236.063517 246.7 
L 244.102122 246.7 
L 244.102122 245.871625 
L 244.102122 246.7 
L 249.864127 246.7 
L 249.864127 245.871625 
L 249.864127 246.7 
L 250.058366 246.7 
L 250.058366 245.871625 
L 250.089702 246.7 
L 251.967324 246.7 
L 251.967324 245.871625 
L 251.967324 246.7 
L 252.390145 246.7 
L 252.390145 245.871625 
L 252.390145 246.7 
L 254.209221 246.7 
L 254.209221 245.871625 
L 254.209221 246.7 
L 254.526676 246.7 
L 254.526676 245.871625 
L 254.526676 246.7 
L 264.199536 246.7 
L 264.199536 245.871625 
L 264.199536 246.7 
L 266.110147 246.7 
L 266.110147 245.871625 
L 266.110147 246.7 
L 267.683611 246.7 
L 267.683611 245.871625 
L 267.683611 246.7 
L 268.2107 246.7 
L 268.2107 245.871625 
L 268.2107 246.7 
L 269.17628 246.7 
L 269.17628 245.871625 
L 269.17628 246.7 
L 270.309467 246.7 
L 270.309467 245.871625 
L 270.309467 246.7 
L 271.471236 246.7 
L 271.471236 245.871625 
L 271.471236 246.7 
L 271.977026 246.7 
L 271.977026 245.871625 
L 271.977026 246.7 
L 273.739879 246.7 
L 273.739879 245.871625 
L 273.739879 246.7 
L 274.052305 246.7 
L 274.052305 245.871625 
L 274.052305 246.7 
L 274.796707 246.7 
L 274.796707 245.871625 
L 274.796707 246.7 
L 275.007765 246.7 
L 275.007765 245.871625 
L 275.022282 246.7 
L 277.034639 246.7 
L 277.034639 245.871625 
L 277.034639 246.7 
L 278.962087 246.7 
L 278.962087 245.871625 
L 278.962087 246.7 
L 279.650644 246.7 
L 279.650644 245.871625 
L 279.650644 246.7 
L 279.919011 246.7 
L 279.919011 245.871625 
L 279.919011 246.7 
L 282.637892 246.7 
L 282.637892 245.871625 
L 282.637892 246.7 
L 283.032885 246.7 
L 283.032885 245.871625 
L 283.032885 246.7 
L 288.42358 246.7 
L 288.42358 245.871625 
L 288.42358 246.7 
L 289.253724 246.7 
L 289.253724 245.871625 
L 289.253724 246.7 
L 291.21401 246.7 
L 291.21401 245.871625 
L 291.21401 246.7 
L 294.318528 246.7 
L 294.318528 245.871625 
L 294.318528 246.7 
L 294.498988 246.7 
L 294.498988 245.871625 
L 294.544104 246.7 
L 294.679449 246.7 
L 294.679449 245.871625 
L 294.769679 246.7 
L 296.287191 246.7 
L 296.287191 245.871625 
L 296.287191 246.7 
L 299.571244 246.7 
L 299.571244 245.871625 
L 299.571244 246.7 
L 301.592066 246.7 
L 301.592066 245.871625 
L 301.592066 246.7 
L 301.774394 246.7 
L 301.774394 245.871625 
L 301.817642 246.7 
L 308.223307 246.7 
L 308.223307 245.871625 
L 308.223307 246.7 
L 314.988825 246.7 
L 314.988825 245.871625 
L 314.988825 246.7 
L 318.788097 246.7 
L 318.788097 245.871625 
L 318.788097 246.7 
L 319.929215 246.7 
L 319.929215 245.871625 
L 319.929215 246.7 
L 321.215146 246.7 
L 321.215146 245.871625 
L 321.215146 246.7 
L 328.003936 246.7 
L 328.003936 245.871625 
L 328.003936 246.7 
L 328.184397 246.7 
L 328.184397 245.871625 
L 328.229512 246.7 
L 329.782925 246.7 
L 329.782925 245.871625 
L 329.782925 246.7 
L 330.865592 246.7 
L 330.865592 245.871625 
L 330.865592 246.7 
L 333.291423 246.7 
L 333.291423 245.871625 
L 333.291423 246.7 
L 333.471883 246.7 
L 333.471883 245.871625 
L 333.516998 246.7 
L 333.652344 246.7 
L 333.652344 245.871625 
L 333.742574 246.7 
L 334.451864 246.7 
L 334.451864 245.871625 
L 334.451864 246.7 
L 335.051733 246.7 
L 335.051733 245.871625 
L 335.051733 246.7 
L 342.074477 246.7 
L 342.074477 245.871625 
L 342.074477 246.7 
L 342.305569 246.7 
L 342.305569 245.871625 
L 342.305569 246.7 
L 343.109375 246.7 
L 343.109375 245.871625 
L 343.109375 246.7 
L 343.743109 246.7 
L 343.743109 245.871625 
L 343.743109 246.7 
L 344.926291 246.7 
L 344.926291 245.871625 
L 344.926291 246.7 
L 345.154372 246.7 
L 345.154372 245.871625 
L 345.154372 246.7 
L 347.260117 246.7 
L 347.260117 245.871625 
L 347.260117 246.7 
L 347.950741 246.7 
L 347.950741 245.871625 
L 347.950741 246.7 
L 351.784149 246.7 
L 351.784149 245.871625 
L 351.784149 246.7 
L 352.749404 246.7 
L 352.749404 245.871625 
L 352.749404 246.7 
L 357.267974 246.7 
L 357.267974 245.871625 
L 357.267974 246.7 
L 357.448434 246.7 
L 357.448434 245.871625 
L 357.493549 246.7 
L 357.828651 246.7 
L 357.828651 245.871625 
L 357.828651 246.7 
L 359.956622 246.7 
L 359.956622 245.871625 
L 359.956622 246.7 
L 361.459575 246.7 
L 361.459575 245.871625 
L 361.459575 246.7 
L 362.9684 246.7 
L 362.9684 245.871625 
L 362.9684 246.7 
L 366.583456 246.7 
L 366.583456 245.871625 
L 366.583456 246.7 
L 367.140023 246.7 
L 367.140023 245.871625 
L 367.140023 246.7 
L 368.423544 246.7 
L 368.423544 245.871625 
L 368.423544 246.7 
L 369.760321 246.7 
L 369.760321 245.871625 
L 369.760321 246.7 
L 374.245814 246.7 
L 374.245814 245.871625 
L 374.245814 246.7 
L 374.426274 246.7 
L 374.426274 245.871625 
L 374.471389 246.7 
L 379.008083 246.7 
L 379.008083 245.871625 
L 379.008083 246.7 
L 380.556245 246.7 
L 380.556245 245.871625 
L 380.556245 246.7 
L 380.736706 246.7 
L 380.736706 245.871625 
L 380.781821 246.7 
L 385.49369 246.7 
L 385.49369 245.871625 
L 385.49369 246.7 
L 386.080801 246.7 
L 386.080801 245.871625 
L 386.080801 246.7 
L 386.772975 246.7 
L 386.772975 245.871625 
L 386.772975 246.7 
L 386.953436 246.7 
L 386.953436 245.871625 
L 386.998551 246.7 
L 388.776531 246.7 
L 388.776531 245.871625 
L 388.776531 246.7 
L 392.110227 246.7 
L 392.110227 245.871625 
L 392.110227 246.7 
L 392.365273 246.7 
L 392.365273 245.871625 
L 392.365273 246.7 
L 394.245275 246.7 
L 394.245275 245.871625 
L 394.245275 246.7 
L 396.518957 246.7 
L 396.518957 245.871625 
L 396.518957 246.7 
L 399.841743 246.7 
L 399.841743 245.871625 
L 399.841743 246.7 
L 400.458293 246.7 
L 400.458293 245.871625 
L 400.458293 246.7 
L 401.013241 246.7 
L 401.013241 245.871625 
L 401.013241 246.7 
L 401.378404 246.7 
L 401.378404 245.871625 
L 401.378404 246.7 
L 402.293699 246.7 
L 402.293699 245.871625 
L 402.293699 246.7 
L 403.887398 246.7 
L 403.887398 245.871625 
L 403.887398 246.7 
L 405.339739 246.7 
L 405.339739 245.871625 
L 405.339739 246.7 
L 405.520199 246.7 
L 405.520199 245.871625 
L 405.565314 246.7 
L 405.701679 246.7 
L 405.701679 245.871625 
L 405.79089 246.7 
L 408.888143 246.7 
L 408.888143 245.871625 
L 408.888143 246.7 
L 409.721384 246.7 
L 409.721384 245.871625 
L 409.721384 246.7 
L 409.901845 246.7 
L 409.901845 245.871625 
L 409.94696 246.7 
L 410.082305 246.7 
L 410.082305 245.871625 
L 410.172535 246.7 
L 410.398111 246.7 
L 410.398111 246.7 
" clip-path="url(#pd3ae1db67e)" style="fill: none; stroke: #9467bd; stroke-width: 1.5; stroke-linecap: square"/>
   </g>
   <g id="patch_3">
    <path d="M 50.76875 246.7 
L 50.76875 25.8 
" style="fill: none; stroke: #000000; stroke-width: 0.8; stroke-linejoin: miter; stroke-linecap: square"/>
   </g>
   <g id="patch_4">
    <path d="M 415.515214 246.7 
L 415.515214 25.8 
" style="fill: none; stroke: #000000; stroke-width: 0.8; stroke-linejoin: miter; stroke-linecap: square"/>
   </g>
   <g id="patch_5">
    <path d="M 50.76875 246.7 
L 415.515214 246.7 
" style="fill: none; stroke: #000000; stroke-width: 0.8; stroke-linejoin: miter; stroke-linecap: square"/>
   </g>
   <g id="patch_6">
    <path d="M 50.76875 25.8 
L 415.515214 25.8 
" style="fill: none; stroke: #000000; stroke-width: 0.8; stroke-linejoin: miter; stroke-linecap: square"/>
   </g>
   <g id="text_18">
    <!-- Paquetes enviados y recibidos y en buffers -->
    <g transform="translate(104.419482 19.8)scale(0.12 -0.12)">
     <defs>
      <path id="DejaVuSans-20" transform="scale(0.015625)"/>
      <path id="DejaVuSans-6e" d="M 3513 2113 
L 3513 0 
L 2938 0 
L 2938 2094 
Q 2938 2591 2744 2837 
Q 2550 3084 2163 3084 
Q 1697 3084 1428 2787 
Q 1159 2491 1159 1978 
L 1159 0 
L 581 0 
L 581 3500 
L 1159 3500 
L 1159 2956 
Q 1366 3272 1645 3428 
Q 1925 3584 2291 3584 
Q 2894 3584 3203 3211 
Q 3513 2838 3513 2113 
z
" transform="scale(0.015625)"/>
      <path id="DejaVuSans-76" d="M 191 3500 
L 800 3500 
L 1894 563 
L 2988 3500 
L 3597 3500 
L 2284 0 
L 1503 0 
L 191 3500 
z
" transform="scale(0.015625)"/>
      <path id="DejaVuSans-64" d="M 2906 2969 
L 2906 4863 
L 3481 4863 
L 3481 0 
L 2906 0 
L 2906 525 
Q 2725 213 2448 61 
Q 2172 -91 1784 -91 
Q 1150 -91 751 415 
Q 353 922 353 1747 
Q 353 2572 751 3078 
Q 1150 3584 1784 3584 
Q 2172 3584 2448 3432 
Q 2725 3281 2906 2969 
z
M 947 1747 
Q 947 1113 1208 752 
Q 1469 391 1925 391 
Q 2381 391 2643 752 
Q 2906 1113 2906 1747 
Q 2906 2381 2643 2742 
Q 2381 3103 1925 3103 
Q 1469 3103 1208 2742 
Q 947 2381 947 1747 
z
" transform="scale(0.015625)"/>
      <path id="DejaVuSans-79" d="M 2059 -325 
Q 1816 -950 1584 -1140 
Q 1353 -1331 966 -1331 
L 506 -1331 
L 506 -850 
L 844 -850 
Q 1081 -850 1212 -737 
Q 1344 -625 1503 -206 
L 1606 56 
L 191 3500 
L 800 3500 
L 1894 763 
L 2988 3500 
L 3597 3500 
L 2059 -325 
z
" transform="scale(0.015625)"/>
      <path id="DejaVuSans-72" d="M 2631 2963 
Q 2534 3019 2420 3045 
Q 2306 3072 2169 3072 
Q 1681 3072 1420 2755 
Q 1159 2438 1159 1844 
L 1159 0 
L 581 0 
L 581 3500 
L 1159 3500 
L 1159 2956 
Q 1341 3275 1631 3429 
Q 1922 3584 2338 3584 
Q 2397 3584 2469 3576 
Q 2541 3569 2628 3553 
L 2631 2963 
z
" transform="scale(0.015625)"/>
      <path id="DejaVuSans-63" d="M 3122 3366 
L 3122 2828 
Q 2878 2963 2633 3030 
Q 2388 3097 2138 3097 
Q 1578 3097 1268 2742 
Q 959 2388 959 1747 
Q 959 1106 1268 751 
Q 1578 397 2138 397 
Q 2388 397 2633 464 
Q 2878 531 3122 666 
L 3122 134 
Q 2881 22 2623 -34 
Q 2366 -91 2075 -91 
Q 1284 -91 818 406 
Q 353 903 353 1747 
Q 353 2603 823 3093 
Q 1294 3584 2113 3584 
Q 2378 3584 2631 3529 
Q 2884 3475 3122 3366 
z
" transform="scale(0.015625)"/>
      <path id="DejaVuSans-62" d="M 3116 1747 
Q 3116 2381 2855 2742 
Q 2594 3103 2138 3103 
Q 1681 3103 1420 2742 
Q 1159 2381 1159 1747 
Q 1159 1113 1420 752 
Q 1681 391 2138 391 
Q 2594 391 2855 752 
Q 3116 1113 3116 1747 
z
M 1159 2969 
Q 1341 3281 1617 3432 
Q 1894 3584 2278 3584 
Q 2916 3584 3314 3078 
Q 3713 2572 3713 1747 
Q 3713 922 3314 415 
Q 2916 -91 2278 -91 
Q 1894 -91 1617 61 
Q 1341 213 1159 525 
L 1159 0 
L 581 0 
L 581 4863 
L 1159 4863 
L 1159 2969 
z
" transform="scale(0.015625)"/>
      <path id="DejaVuSans-66" d="M 2375 4863 
L 2375 4384 
L 1825 4384 
Q 1516 4384 1395 4259 
Q 1275 4134 1275 3809 
L 1275 3500 
L 2222 3500 
L 2222 3053 
L 1275 3053 
L 1275 0 
L 697 0 
L 697 3053 
L 147 3053 
L 147 3500 
L 697 3500 
L 697 3744 
Q 697 4328 969 4595 
Q 1241 4863 1831 4863 
L 2375 4863 
z
" transform="scale(0.015625)"/>
     </defs>
     <use xlink:href="#DejaVuSans-50"/>
     <use xlink:href="#DejaVuSans-61" x="55.802734"/>
     <use xlink:href="#DejaVuSans-71" x="117.082031"/>
     <use xlink:href="#DejaVuSans-75" x="180.558594"/>
     <use xlink:href="#DejaVuSans-65" x="243.9375"/>
     <use xlink:href="#DejaVuSans-74" x="305.460938"/>
     <use xlink:href="#DejaVuSans-65" x="344.669922"/>
     <use xlink:href="#DejaVuSans-73" x="406.193359"/>
     <use xlink:href="#DejaVuSans-20" x="458.292969"/>
     <use xlink:href="#DejaVuSans-65" x="490.080078"/>
     <use xlink:href="#DejaVuSans-6e" x="551.603516"/>
     <use xlink:href="#DejaVuSans-76" x="614.982422"/>
     <use xlink:href="#DejaVuSans-69" x="674.162109"/>
     <use xlink:href="#DejaVuSans-61" x="701.945312"/>
     <use xlink:href="#DejaVuSans-64" x="763.224609"/>
     <use xlink:href="#DejaVuSans-6f" x="826.701172"/>
     <use xlink:href="#DejaVuSans-73" x="887.882812"/>
     <use xlink:href="#DejaVuSans-20" x="939.982422"/>
     <use xlink:href="#DejaVuSans-79" x="971.769531"/>
     <use xlink:href="#DejaVuSans-20" x="1030.949219"/>
     <use xlink:href="#DejaVuSans-72" x="1062.736328"/>
     <use xlink:href="#DejaVuSans-65" x="1101.599609"/>
     <use xlink:href="#DejaVuSans-63" x="1163.123047"/>
     <use xlink:href="#DejaVuSans-69" x="1218.103516"/>
     <use xlink:href="#DejaVuSans-62" x="1245.886719"/>
     <use xlink:href="#DejaVuSans-69" x="1309.363281"/>
     <use xlink:href="#DejaVuSans-64" x="1337.146484"/>
     <use xlink:href="#DejaVuSans-6f" x="1400.623047"/>
     <use xlink:href="#DejaVuSans-73" x="1461.804688"/>
     <use xlink:href="#DejaVuSans-20" x="1513.904297"/>
     <use xlink:href="#DejaVuSans-79" x="1545.691406"/>
     <use xlink:href="#DejaVuSans-20" x="1604.871094"/>
     <use xlink:href="#DejaVuSans-65" x="1636.658203"/>
     <use xlink:href="#DejaVuSans-6e" x="1698.181641"/>
     <use xlink:href="#DejaVuSans-20" x="1761.560547"/>
     <use xlink:href="#DejaVuSans-62" x="1793.347656"/>
     <use xlink:href="#DejaVuSans-75" x="1856.824219"/>
     <use xlink:href="#DejaVuSans-66" x="1920.203125"/>
     <use xlink:href="#DejaVuSans-66" x="1955.408203"/>
     <use xlink:href="#DejaVuSans-65" x="1990.613281"/>
     <use xlink:href="#DejaVuSans-72" x="2052.136719"/>
     <use xlink:href="#DejaVuSans-73" x="2093.25"/>
    </g>
   </g>
   <g id="legend_1">
    <g id="patch_7">
     <path d="M 177.060527 107.360937 
L 408.515214 107.360937 
Q 410.515214 107.360937 410.515214 105.360937 
L 410.515214 32.8 
Q 410.515214 30.8 408.515214 30.8 
L 177.060527 30.8 
Q 175.060527 30.8 175.060527 32.8 
L 175.060527 105.360937 
Q 175.060527 107.360937 177.060527 107.360937 
z
" style="fill: #ffffff; opacity: 0.8; stroke: #cccccc; stroke-linejoin: miter"/>
    </g>
    <g id="line2d_36">
     <path d="M 179.060527 38.898437 
L 189.060527 38.898437 
L 199.060527 38.898437 
" style="fill: none; stroke: #1f77b4; stroke-width: 1.5; stroke-linecap: square"/>
    </g>
    <g id="text_19">
     <!-- Paquetes recibidos -->
     <g transform="translate(207.060527 42.398437)scale(0.1 -0.1)">
      <use xlink:href="#DejaVuSans-50"/>
      <use xlink:href="#DejaVuSans-61" x="55.802734"/>
      <use xlink:href="#DejaVuSans-71" x="117.082031"/>
      <use xlink:href="#DejaVuSans-75" x="180.558594"/>
      <use xlink:href="#DejaVuSans-65" x="243.9375"/>
      <use xlink:href="#DejaVuSans-74" x="305.460938"/>
      <use xlink:href="#DejaVuSans-65" x="344.669922"/>
      <use xlink:href="#DejaVuSans-73" x="406.193359"/>
      <use xlink:href="#DejaVuSans-20" x="458.292969"/>
      <use xlink:href="#DejaVuSans-72" x="490.080078"/>
      <use xlink:href="#DejaVuSans-65" x="528.943359"/>
      <use xlink:href="#DejaVuSans-63" x="590.466797"/>
      <use xlink:href="#DejaVuSans-69" x="645.447266"/>
      <use xlink:href="#DejaVuSans-62" x="673.230469"/>
      <use xlink:href="#DejaVuSans-69" x="736.707031"/>
      <use xlink:href="#DejaVuSans-64" x="764.490234"/>
      <use xlink:href="#DejaVuSans-6f" x="827.966797"/>
      <use xlink:href="#DejaVuSans-73" x="889.148438"/>
     </g>
    </g>
    <g id="line2d_37">
     <path d="M 179.060527 53.576562 
L 189.060527 53.576562 
L 199.060527 53.576562 
" style="fill: none; stroke: #ff7f0e; stroke-width: 1.5; stroke-linecap: square"/>
    </g>
    <g id="text_20">
     <!-- Paquetes enviados -->
     <g transform="translate(207.060527 57.076562)scale(0.1 -0.1)">
      <use xlink:href="#DejaVuSans-50"/>
      <use xlink:href="#DejaVuSans-61" x="55.802734"/>
      <use xlink:href="#DejaVuSans-71" x="117.082031"/>
      <use xlink:href="#DejaVuSans-75" x="180.558594"/>
      <use xlink:href="#DejaVuSans-65" x="243.9375"/>
      <use xlink:href="#DejaVuSans-74" x="305.460938"/>
      <use xlink:href="#DejaVuSans-65" x="344.669922"/>
      <use xlink:href="#DejaVuSans-73" x="406.193359"/>
      <use xlink:href="#DejaVuSans-20" x="458.292969"/>
      <use xlink:href="#DejaVuSans-65" x="490.080078"/>
      <use xlink:href="#DejaVuSans-6e" x="551.603516"/>
      <use xlink:href="#DejaVuSans-76" x="614.982422"/>
      <use xlink:href="#DejaVuSans-69" x="674.162109"/>
      <use xlink:href="#DejaVuSans-61" x="701.945312"/>
      <use xlink:href="#DejaVuSans-64" x="763.224609"/>
      <use xlink:href="#DejaVuSans-6f" x="826.701172"/>
      <use xlink:href="#DejaVuSans-73" x="887.882812"/>
     </g>
    </g>
    <g id="line2d_38">
     <path d="M 179.060527 68.425 
L 189.060527 68.425 
L 199.060527 68.425 
" style="fill: none; stroke: #2ca02c; stroke-width: 1.5; stroke-linecap: square"/>
    </g>
    <g id="text_21">
     <!-- Tamao del buffer del receptor -->
     <g transform="translate(207.060527 71.925)scale(0.1 -0.1)">
      <defs>
       <path id="DejaVuSans-f1" d="M 3513 2113 
L 3513 0 
L 2938 0 
L 2938 2094 
Q 2938 2591 2744 2837 
Q 2550 3084 2163 3084 
Q 1697 3084 1428 2787 
Q 1159 2491 1159 1978 
L 1159 0 
L 581 0 
L 581 3500 
L 1159 3500 
L 1159 2956 
Q 1366 3272 1645 3428 
Q 1925 3584 2291 3584 
Q 2894 3584 3203 3211 
Q 3513 2838 3513 2113 
z
M 2060 4281 
L 1881 4453 
Q 1813 4516 1761 4545 
Q 1710 4575 1669 4575 
Q 1550 4575 1494 4461 
Q 1438 4347 1431 4091 
L 1041 4091 
Q 1047 4513 1206 4742 
Q 1366 4972 1650 4972 
Q 1769 4972 1869 4928 
Q 1969 4884 2085 4781 
L 2263 4609 
Q 2331 4547 2383 4517 
Q 2435 4488 2475 4488 
Q 2594 4488 2650 4602 
Q 2706 4716 2713 4972 
L 3103 4972 
Q 3097 4550 2937 4320 
Q 2778 4091 2494 4091 
Q 2375 4091 2275 4134 
Q 2175 4178 2060 4281 
z
" transform="scale(0.015625)"/>
       <path id="DejaVuSans-6c" d="M 603 4863 
L 1178 4863 
L 1178 0 
L 603 0 
L 603 4863 
z
" transform="scale(0.015625)"/>
      </defs>
      <use xlink:href="#DejaVuSans-54"/>
      <use xlink:href="#DejaVuSans-61" x="44.583984"/>
      <use xlink:href="#DejaVuSans-6d" x="105.863281"/>
      <use xlink:href="#DejaVuSans-61" x="203.275391"/>
      <use xlink:href="#DejaVuSans-f1" x="264.554688"/>
      <use xlink:href="#DejaVuSans-6f" x="327.933594"/>
      <use xlink:href="#DejaVuSans-20" x="389.115234"/>
      <use xlink:href="#DejaVuSans-64" x="420.902344"/>
      <use xlink:href="#DejaVuSans-65" x="484.378906"/>
      <use xlink:href="#DejaVuSans-6c" x="545.902344"/>
      <use xlink:href="#DejaVuSans-20" x="573.685547"/>
      <use xlink:href="#DejaVuSans-62" x="605.472656"/>
      <use xlink:href="#DejaVuSans-75" x="668.949219"/>
      <use xlink:href="#DejaVuSans-66" x="732.328125"/>
      <use xlink:href="#DejaVuSans-66" x="767.533203"/>
      <use xlink:href="#DejaVuSans-65" x="802.738281"/>
      <use xlink:href="#DejaVuSans-72" x="864.261719"/>
      <use xlink:href="#DejaVuSans-20" x="905.375"/>
      <use xlink:href="#DejaVuSans-64" x="937.162109"/>
      <use xlink:href="#DejaVuSans-65" x="1000.638672"/>
      <use xlink:href="#DejaVuSans-6c" x="1062.162109"/>
      <use xlink:href="#DejaVuSans-20" x="1089.945312"/>
      <use xlink:href="#DejaVuSans-72" x="1121.732422"/>
      <use xlink:href="#DejaVuSans-65" x="1160.595703"/>
      <use xlink:href="#DejaVuSans-63" x="1222.119141"/>
      <use xlink:href="#DejaVuSans-65" x="1277.099609"/>
      <use xlink:href="#DejaVuSans-70" x="1338.623047"/>
      <use xlink:href="#DejaVuSans-74" x="1402.099609"/>
      <use xlink:href="#DejaVuSans-6f" x="1441.308594"/>
      <use xlink:href="#DejaVuSans-72" x="1502.490234"/>
     </g>
    </g>
    <g id="line2d_39">
     <path d="M 179.060527 83.103125 
L 189.060527 83.103125 
L 199.060527 83.103125 
" style="fill: none; stroke: #d62728; stroke-width: 1.5; stroke-linecap: square"/>
    </g>
    <g id="text_22">
     <!-- Tamao del buffer del emisor -->
     <g transform="translate(207.060527 86.603125)scale(0.1 -0.1)">
      <use xlink:href="#DejaVuSans-54"/>
      <use xlink:href="#DejaVuSans-61" x="44.583984"/>
      <use xlink:href="#DejaVuSans-6d" x="105.863281"/>
      <use xlink:href="#DejaVuSans-61" x="203.275391"/>
      <use xlink:href="#DejaVuSans-f1" x="264.554688"/>
      <use xlink:href="#DejaVuSans-6f" x="327.933594"/>
      <use xlink:href="#DejaVuSans-20" x="389.115234"/>
      <use xlink:href="#DejaVuSans-64" x="420.902344"/>
      <use xlink:href="#DejaVuSans-65" x="484.378906"/>
      <use xlink:href="#DejaVuSans-6c" x="545.902344"/>
      <use xlink:href="#DejaVuSans-20" x="573.685547"/>
      <use xlink:href="#DejaVuSans-62" x="605.472656"/>
      <use xlink:href="#DejaVuSans-75" x="668.949219"/>
      <use xlink:href="#DejaVuSans-66" x="732.328125"/>
      <use xlink:href="#DejaVuSans-66" x="767.533203"/>
      <use xlink:href="#DejaVuSans-65" x="802.738281"/>
      <use xlink:href="#DejaVuSans-72" x="864.261719"/>
      <use xlink:href="#DejaVuSans-20" x="905.375"/>
      <use xlink:href="#DejaVuSans-64" x="937.162109"/>
      <use xlink:href="#DejaVuSans-65" x="1000.638672"/>
      <use xlink:href="#DejaVuSans-6c" x="1062.162109"/>
      <use xlink:href="#DejaVuSans-20" x="1089.945312"/>
      <use xlink:href="#DejaVuSans-65" x="1121.732422"/>
      <use xlink:href="#DejaVuSans-6d" x="1183.255859"/>
      <use xlink:href="#DejaVuSans-69" x="1280.667969"/>
      <use xlink:href="#DejaVuSans-73" x="1308.451172"/>
      <use xlink:href="#DejaVuSans-6f" x="1360.550781"/>
      <use xlink:href="#DejaVuSans-72" x="1421.732422"/>
     </g>
    </g>
    <g id="line2d_40">
     <path d="M 179.060527 97.78125 
L 189.060527 97.78125 
L 199.060527 97.78125 
" style="fill: none; stroke: #9467bd; stroke-width: 1.5; stroke-linecap: square"/>
    </g>
    <g id="text_23">
     <!-- Tamao del buffer de la cola intermedia -->
     <g transform="translate(207.060527 101.28125)scale(0.1 -0.1)">
      <use xlink:href="#DejaVuSans-54"/>
      <use xlink:href="#DejaVuSans-61" x="44.583984"/>
      <use xlink:href="#DejaVuSans-6d" x="105.863281"/>
      <use xlink:href="#DejaVuSans-61" x="203.275391"/>
      <use xlink:href="#DejaVuSans-f1" x="264.554688"/>
      <use xlink:href="#DejaVuSans-6f" x="327.933594"/>
      <use xlink:href="#DejaVuSans-20" x="389.115234"/>
      <use xlink:href="#DejaVuSans-64" x="420.902344"/>
      <use xlink:href="#DejaVuSans-65" x="484.378906"/>
      <use xlink:href="#DejaVuSans-6c" x="545.902344"/>
      <use xlink:href="#DejaVuSans-20" x="573.685547"/>
      <use xlink:href="#DejaVuSans-62" x="605.472656"/>
      <use xlink:href="#DejaVuSans-75" x="668.949219"/>
      <use xlink:href="#DejaVuSans-66" x="732.328125"/>
      <use xlink:href="#DejaVuSans-66" x="767.533203"/>
      <use xlink:href="#DejaVuSans-65" x="802.738281"/>
      <use xlink:href="#DejaVuSans-72" x="864.261719"/>
      <use xlink:href="#DejaVuSans-20" x="905.375"/>
      <use xlink:href="#DejaVuSans-64" x="937.162109"/>
      <use xlink:href="#DejaVuSans-65" x="1000.638672"/>
      <use xlink:href="#DejaVuSans-20" x="1062.162109"/>
      <use xlink:href="#DejaVuSans-6c" x="1093.949219"/>
      <use xlink:href="#DejaVuSans-61" x="1121.732422"/>
      <use xlink:href="#DejaVuSans-20" x="1183.011719"/>
      <use xlink:href="#DejaVuSans-63" x="1214.798828"/>
      <use xlink:href="#DejaVuSans-6f" x="1269.779297"/>
      <use xlink:href="#DejaVuSans-6c" x="1330.960938"/>
      <use xlink:href="#DejaVuSans-61" x="1358.744141"/>
      <use xlink:href="#DejaVuSans-20" x="1420.023438"/>
      <use xlink:href="#DejaVuSans-69" x="1451.810547"/>
      <use xlink:href="#DejaVuSans-6e" x="1479.59375"/>
      <use xlink:href="#DejaVuSans-74" x="1542.972656"/>
      <use xlink:href="#DejaVuSans-65" x="1582.181641"/>
      <use xlink:href="#DejaVuSans-72" x="1643.705078"/>
      <use xlink:href="#DejaVuSans-6d" x="1683.068359"/>
      <use xlink:href="#DejaVuSans-65" x="1780.480469"/>
      <use xlink:href="#DejaVuSans-64" x="1842.003906"/>
      <use xlink:href="#DejaVuSans-69" x="1905.480469"/>
      <use xlink:href="#DejaVuSans-61" x="1933.263672"/>
     </g>
    </g>
   </g>
  </g>
 </g>
 <defs>
  <clipPath id="pd3ae1db67e">
   <rect x="50.76875" y="25.8" width="364.746464" height="220.9"/>
  </clipPath>
 </defs>
</svg>
